<?xml version="1.0" encoding="UTF-8" standalone="no"?>
<!DOCTYPE svg PUBLIC "-//W3C//DTD SVG 1.1//EN" "http://www.w3.org/Graphics/SVG/1.1/DTD/svg11.dtd">
<svg width="100%" height="100%" viewBox="0 0 175 195" version="1.1" xmlns="http://www.w3.org/2000/svg" xmlns:xlink="http://www.w3.org/1999/xlink" xml:space="preserve" xmlns:serif="http://www.serif.com/" style="fill-rule:evenodd;clip-rule:evenodd;stroke-linejoin:round;stroke-miterlimit:1.41421;" fill-opacity="0.15">
    <g transform="matrix(1,0,0,1,-5476.47,-2279.39)">
        <g transform="matrix(1,0,0,1,5453.67,2252)">
            <path d="M181.45,134.85C183.117,134.55 184.8,133.951 186.5,133.05C187.334,132.616 188.033,132.184 188.6,131.75L188.651,131.7C188.684,131.634 188.734,131.599 188.8,131.599C189.067,131.466 189.334,131.483 189.6,131.65L189.651,131.7C189.684,131.7 190.35,132.116 191.651,132.95L191.701,132.95C193.368,133.884 195.017,134.5 196.651,134.8L196.701,134.8C197.1,134.901 197.301,135.151 197.301,135.55C197.534,139.717 196.384,143.417 193.851,146.651C192.518,148.317 191.068,149.617 189.501,150.55L189.451,150.55L189.401,150.6C189.3,150.634 189.184,150.651 189.05,150.651C188.916,150.651 188.8,150.617 188.7,150.55C188.4,150.417 187.933,150.116 187.3,149.651C186.3,148.817 185.383,147.901 184.55,146.901C183.416,145.501 182.533,143.984 181.901,142.35C181.067,140.217 180.717,137.967 180.85,135.6C180.883,135.2 181.084,134.95 181.45,134.85ZM181.85,106.7L181.8,106.7L183.25,109.2C183.383,109.4 183.416,109.634 183.35,109.9C183.284,110.133 183.133,110.333 182.901,110.5C182.667,110.6 182.434,110.634 182.201,110.6L182.151,110.55C181.917,110.45 181.734,110.3 181.6,110.1L180.6,108.35C180.767,108.817 180.784,109.317 180.651,109.85C180.451,110.484 180.085,110.967 179.55,111.3L179.55,111.25C178.984,111.583 178.401,111.684 177.8,111.55C177.434,111.45 177.1,111.3 176.8,111.1C176.567,111.401 176.3,111.701 176,112C175.566,112.4 175.1,112.75 174.6,113.05C173.666,113.55 172.717,113.884 171.75,114.05C170.783,114.151 169.834,114.067 168.9,113.8C167.933,113.567 167.066,113.151 166.299,112.55C165.466,111.917 164.799,111.167 164.299,110.3C163.799,109.434 163.466,108.5 163.299,107.5C163.199,106.533 163.266,105.566 163.499,104.6C163.799,103.634 164.216,102.767 164.749,102C165.382,101.167 166.149,100.5 167.049,100C167.882,99.5 168.816,99.184 169.849,99.05C170.816,98.95 171.783,99.017 172.749,99.25C173.683,99.517 174.549,99.95 175.349,100.55C176.15,101.184 176.816,101.917 177.349,102.75C177.95,103.816 178.266,104.95 178.299,106.15C178.366,107.216 178.199,108.266 177.799,109.299L177.9,109.499L177.95,109.499C177.983,109.599 178.066,109.666 178.2,109.699C178.367,109.699 178.5,109.682 178.599,109.649C178.7,109.582 178.783,109.482 178.849,109.348C178.882,109.248 178.867,109.132 178.799,108.998L178.549,108.598C178.282,108.132 178.233,107.649 178.4,107.149C178.5,106.649 178.783,106.265 179.25,105.999C179.684,105.766 180.166,105.699 180.7,105.799C181.2,105.967 181.584,106.267 181.85,106.7ZM194.55,76.1L193.25,74.8L192.6,75.45L193.901,76.75L194.55,76.1ZM191.3,72.85L191.95,72.151L186,64.9L182.15,64.349L182.7,68.15L189.95,74.15L190.65,73.5L185.25,68.1C185.15,67.967 185.1,67.85 185.1,67.75C185.1,67.616 185.151,67.5 185.25,67.4C185.35,67.299 185.45,67.25 185.55,67.25C185.684,67.25 185.8,67.3 185.901,67.4L191.3,72.85ZM180.7,63.95L180.75,63.95C180.717,63.816 180.717,63.683 180.75,63.55C180.783,63.417 180.867,63.283 181,63.151C181.066,63.05 181.166,62.967 181.3,62.901L181.35,62.901C181.484,62.867 181.633,62.867 181.8,62.901L181.75,62.901L186.35,63.55C186.584,63.583 186.784,63.7 186.951,63.901L192.85,71.001C193.05,70.968 193.3,70.968 193.6,71.001C193.967,71.067 194.284,71.218 194.55,71.451C194.55,71.484 194.567,71.501 194.6,71.501L195.25,72.151C195.416,72.35 195.5,72.584 195.5,72.85C195.5,73.083 195.416,73.284 195.25,73.451L194.55,74.151L195.6,75.201C196.133,75.201 196.567,75.367 196.901,75.701C197.267,76.1 197.451,76.551 197.451,77.051L197.451,77.801C197.451,78.301 197.267,78.735 196.901,79.101C196.567,79.468 196.133,79.652 195.6,79.652L194.85,79.652C194.35,79.652 193.916,79.468 193.55,79.101C193.184,78.735 193,78.301 193,77.801L191.9,76.751L191.3,77.4C191.1,77.599 190.883,77.7 190.651,77.7C190.383,77.7 190.167,77.599 190.001,77.4L189.351,76.75C189.051,76.483 188.884,76.15 188.851,75.75C188.785,75.517 188.785,75.283 188.851,75.05L181.7,69.1C181.5,68.967 181.383,68.784 181.349,68.55L180.7,63.95ZM180.15,35.8C180.25,36.5 180.15,37.134 179.849,37.7C179.583,38.2 179.183,38.5 178.65,38.599C178.117,38.7 177.632,38.516 177.2,38.049C176.733,37.65 176.45,37.099 176.349,36.4C176.249,35.7 176.349,35.083 176.65,34.549C176.95,33.983 177.349,33.666 177.849,33.599C178.382,33.499 178.867,33.683 179.299,34.15C179.767,34.55 180.05,35.1 180.15,35.8ZM181.95,135.9C181.816,139.466 182.816,142.683 184.95,145.549C186.183,147.183 187.55,148.499 189.05,149.499C190.584,148.565 191.95,147.282 193.151,145.649C195.35,142.782 196.368,139.515 196.201,135.848C194.667,135.515 193.151,134.965 191.651,134.199C190.684,133.699 189.85,133.199 189.151,132.699C188.484,133.166 187.667,133.649 186.701,134.149C185.1,134.983 183.517,135.566 181.95,135.9ZM187.4,135.4C188.099,135 188.65,134.667 189.049,134.4L189.15,134.349L190.75,135.299C192.084,136.032 193.434,136.549 194.8,136.849C194.967,139.95 194.067,142.7 192.1,145.099C191.133,146.299 190.118,147.2 189.05,147.799C188.05,147.233 187.05,146.349 186.05,145.15C184.084,142.75 183.2,140 183.401,136.9C184.733,136.634 186.066,136.134 187.4,135.4ZM193.9,217.55L194.549,216.901L193.249,215.6L192.599,216.25L193.9,217.55ZM185.25,208.9C185.15,208.766 185.1,208.65 185.1,208.549C185.1,208.416 185.151,208.299 185.25,208.199C185.35,208.098 185.45,208.049 185.55,208.049C185.684,208.049 185.8,208.099 185.901,208.199L191.3,213.649L191.95,212.949L186,205.7L182.15,205.15L182.7,208.95L189.95,214.95L190.65,214.3L185.25,208.9ZM186.35,204.35C186.584,204.384 186.784,204.5 186.951,204.701L192.85,211.801C193.05,211.768 193.3,211.768 193.6,211.801C193.967,211.867 194.284,212.018 194.55,212.251C194.55,212.284 194.567,212.301 194.6,212.301L195.25,212.951C195.416,213.151 195.5,213.385 195.5,213.651C195.5,213.884 195.416,214.084 195.25,214.251L194.55,214.951L195.6,216.001C196.133,216.001 196.567,216.168 196.901,216.501C197.267,216.901 197.451,217.351 197.451,217.851L197.451,218.601C197.451,219.101 197.267,219.535 196.901,219.902C196.567,220.268 196.133,220.452 195.6,220.452L194.85,220.452C194.35,220.452 193.916,220.268 193.55,219.902C193.184,219.535 193,219.101 193,218.601L191.9,217.551L191.299,218.201C191.099,218.401 190.882,218.501 190.65,218.501C190.382,218.501 190.166,218.401 190,218.201L189.35,217.551C189.05,217.284 188.883,216.951 188.85,216.551C188.784,216.318 188.784,216.084 188.85,215.851L181.7,209.9C181.5,209.766 181.383,209.583 181.349,209.349L180.7,204.749L180.75,204.749C180.717,204.615 180.717,204.482 180.75,204.349C180.783,204.216 180.867,204.082 181,203.95C181.066,203.849 181.166,203.766 181.3,203.7L181.35,203.7C181.484,203.667 181.633,203.667 181.8,203.7L181.75,203.7L186.35,204.35ZM179.85,178.5C179.584,179 179.184,179.3 178.651,179.4C178.118,179.5 177.633,179.316 177.201,178.849C176.734,178.45 176.451,177.9 176.35,177.2C176.25,176.5 176.35,175.884 176.651,175.349C176.951,174.783 177.35,174.466 177.85,174.4C178.383,174.299 178.868,174.483 179.3,174.95C179.767,175.349 180.05,175.9 180.151,176.599C180.25,177.3 180.15,177.934 179.85,178.5ZM144.05,38.1C143.317,39.5 142.234,40.55 140.8,41.25L133.75,44.85L129.45,38.201C128.584,36.901 128.183,35.451 128.25,33.85C128.217,33.117 128.3,32.567 128.5,32.201C128.934,31.001 129.65,30.1 130.65,29.501C131.683,28.834 132.766,28.651 133.9,28.951C134.299,29.051 134.666,29.218 135,29.451C135.4,29.651 135.75,29.934 136.05,30.301C136.55,30.935 136.867,31.701 137,32.601C137.533,31.902 138.217,31.418 139.05,31.152C139.883,30.851 140.717,30.801 141.55,31.002C142.717,31.302 143.567,32.002 144.1,33.102C144.666,34.136 144.834,35.286 144.6,36.552C144.566,36.95 144.383,37.467 144.05,38.1ZM104,28.85L104.05,28.85C105.717,29.75 107.367,30.367 109,30.701L109.05,30.701C109.45,30.801 109.666,31.034 109.7,31.401L109.7,31.451C109.9,35.617 108.75,39.317 106.25,42.551C104.883,44.185 103.416,45.485 101.85,46.451L101.8,46.451L101.75,46.501C101.65,46.501 101.533,46.501 101.4,46.501C101.299,46.501 101.2,46.484 101.099,46.451C100.766,46.284 100.299,45.968 99.7,45.501C98.666,44.668 97.733,43.751 96.9,42.751C95.766,41.385 94.882,39.885 94.25,38.251C93.416,36.084 93.066,33.834 93.2,31.501C93.233,31.101 93.433,30.851 93.8,30.751L93.85,30.751C95.484,30.418 97.151,29.817 98.85,28.951C99.684,28.484 100.383,28.034 100.951,27.6L101.001,27.55C101.067,27.517 101.118,27.484 101.151,27.45C101.451,27.349 101.734,27.366 102.001,27.5C102.001,27.533 102.018,27.566 102.051,27.6L104,28.85ZM169.2,37.7C169.867,37.167 170.683,36.833 171.65,36.7L171.75,36.7C172.85,36.533 173.85,36.667 174.75,37.099C175.517,37.433 176.1,37.9 176.5,38.499L176.85,38.899C177.451,39.666 177.767,40.482 177.8,41.348C177.834,42.215 177.567,42.865 177,43.298C176.8,43.465 176.584,43.565 176.35,43.598C176.084,43.632 175.784,43.598 175.451,43.498C175.284,43.432 174.984,43.314 174.551,43.148C174.085,42.915 173.652,42.748 173.251,42.648C173.085,42.648 172.835,42.665 172.501,42.698C172.201,42.731 172.018,42.781 171.951,42.847C171.618,43.047 171.251,43.33 170.85,43.698C170.55,43.931 170.317,44.097 170.151,44.198C170.118,44.231 170.085,44.264 170.05,44.298C169.75,44.465 169.467,44.581 169.2,44.649C168.9,44.682 168.633,44.649 168.4,44.548C167.7,44.215 167.266,43.632 167.099,42.798C166.966,41.932 167.083,41.081 167.45,40.248L167.65,39.848C167.882,39.115 168.316,38.465 168.95,37.899C169.017,37.833 169.1,37.767 169.2,37.7ZM175.05,30.15C175.584,30.683 175.934,31.4 176.1,32.299C176.234,33.199 176.118,33.983 175.75,34.65C175.383,35.383 174.867,35.783 174.2,35.849C173.533,35.983 172.916,35.766 172.349,35.2C171.782,34.634 171.433,33.917 171.299,33.05C171.165,32.151 171.282,31.366 171.65,30.7C172.016,29.967 172.533,29.533 173.2,29.4C173.867,29.3 174.483,29.55 175.05,30.15ZM166.2,33.85C166.066,32.951 166.183,32.151 166.55,31.451C166.883,30.751 167.383,30.334 168.05,30.201L168.1,30.201C168.767,30.1 169.383,30.35 169.951,30.951C170.517,31.484 170.868,32.201 171.001,33.1C171.134,33.967 171.018,34.75 170.651,35.451C170.284,36.151 169.767,36.551 169.1,36.651C169.067,36.651 169.034,36.651 169,36.651C168.367,36.751 167.783,36.517 167.25,35.951C166.684,35.417 166.334,34.717 166.2,33.85ZM166.55,36.1C166.984,36.534 167.267,37.1 167.401,37.8C167.467,38.5 167.35,39.116 167.05,39.651C166.783,40.184 166.383,40.501 165.85,40.6C165.317,40.667 164.834,40.484 164.401,40.05C163.967,39.651 163.701,39.1 163.6,38.401C163.5,37.668 163.584,37.034 163.85,36.501C164.151,35.968 164.55,35.651 165.05,35.551C165.617,35.45 166.117,35.634 166.55,36.1ZM99.05,30.05C97.484,30.884 95.901,31.467 94.3,31.8C94.166,35.366 95.184,38.583 97.35,41.45C98.55,43.083 99.901,44.384 101.401,45.349C102.934,44.416 104.317,43.133 105.55,41.499C107.717,38.666 108.717,35.416 108.55,31.749C107.017,31.383 105.5,30.815 104,30.049C103.033,29.582 102.2,29.082 101.5,28.549C100.834,29.05 100.017,29.55 99.05,30.05ZM101.4,30.25L101.5,30.2L103.1,31.2C104.434,31.933 105.784,32.433 107.151,32.7C107.317,35.8 106.417,38.566 104.451,41C103.484,42.167 102.468,43.05 101.401,43.65L101.401,43.7C100.401,43.099 99.401,42.217 98.401,41.05C96.467,38.616 95.585,35.85 95.751,32.75C97.085,32.483 98.435,32 99.801,31.3C100.5,30.9 101.033,30.55 101.4,30.25ZM151.3,63.25C152.133,62.783 152.834,62.333 153.401,61.9L153.451,61.849C153.517,61.816 153.567,61.783 153.6,61.749C153.901,61.649 154.184,61.666 154.451,61.799C154.451,61.832 154.468,61.865 154.501,61.9L156.451,63.15L156.501,63.15C158.167,64.049 159.835,64.667 161.501,65L161.551,65C161.917,65.1 162.101,65.333 162.101,65.7L162.101,65.75C162.335,69.917 161.185,73.616 158.652,76.85C157.351,78.517 155.902,79.817 154.301,80.75L154.251,80.75L154.201,80.8C154.1,80.833 153.984,80.85 153.85,80.85C153.717,80.85 153.618,80.817 153.55,80.75C153.217,80.583 152.75,80.267 152.151,79.8C151.118,79 150.184,78.083 149.35,77.05C148.217,75.684 147.334,74.184 146.701,72.55C145.868,70.417 145.517,68.167 145.651,65.8C145.684,65.401 145.883,65.151 146.251,65.05L146.301,65.05C147.934,64.717 149.6,64.116 151.3,63.25ZM122.6,67.3C121.6,66.767 120.517,66.55 119.35,66.651C118.317,66.784 117.401,67.134 116.6,67.701L119.35,70.551L122.6,67.3ZM114.25,71.75C114.184,72.917 114.4,74 114.9,75L118.099,71.8L115.299,69C114.7,69.8 114.35,70.717 114.25,71.75ZM110.5,63.7C110.467,63.433 110.517,63.233 110.65,63.099L110.7,63.099L110.7,63.049C110.834,62.883 111.033,62.832 111.3,62.9L111.25,62.9L115.2,63.95C115.4,64.05 115.5,64.233 115.5,64.5C115.5,64.833 115.35,65.05 115.05,65.15L115,65.15L114.2,65.25L115.05,66.2C116.25,65.266 117.6,64.7 119.1,64.5C120.734,64.333 122.284,64.667 123.75,65.5C123.983,65.634 124.267,65.684 124.6,65.65C124.901,65.583 125.151,65.45 125.35,65.25L125.401,65.2C125.633,65.033 125.883,64.95 126.151,64.95C126.451,64.95 126.684,65.033 126.85,65.2C127.118,65.433 127.25,65.7 127.25,66C127.283,66.267 127.15,66.517 126.85,66.75L126.85,66.8C126.383,67.267 125.85,67.567 125.25,67.7L120.85,72.099L122.1,73.299L123.6,72.799C123.967,72.699 124.184,72.782 124.25,73.049L124.8,73.599C125,73.799 125.067,73.983 125,74.15C125,74.183 124.983,74.233 124.95,74.299C125.15,74.133 125.367,74.166 125.599,74.4L126.299,74.95C126.333,75.016 126.366,75.083 126.4,75.15C126.433,75.283 126.45,75.4 126.45,75.5C126.45,75.533 126.45,75.566 126.45,75.6C126.383,75.8 126.266,75.934 126.099,76L126.049,76.05L125.199,76.3L125.299,76.5C125.499,76.634 125.599,76.833 125.599,77.1C125.599,77.333 125.516,77.55 125.349,77.75C125.316,77.75 125.299,77.767 125.299,77.8C125.099,77.934 124.9,78 124.699,78C124.432,78 124.216,77.934 124.049,77.8L123.9,77.6L123.6,78.45C123.6,78.483 123.584,78.533 123.55,78.599C123.484,78.666 123.383,78.749 123.25,78.849C123.184,78.883 123.117,78.9 123.05,78.9C122.916,78.9 122.783,78.849 122.651,78.75C122.618,78.75 122.6,78.733 122.6,78.7L121.95,78.1L121.95,78.151C121.683,77.918 121.65,77.668 121.849,77.401L121.9,77.35C121.865,77.384 121.831,77.401 121.799,77.401L121.749,77.401C121.516,77.467 121.315,77.434 121.149,77.3L121.149,77.25L120.548,76.7C120.348,76.566 120.265,76.366 120.298,76.099C120.298,76.066 120.315,76.033 120.348,75.999L120.798,74.549L119.649,73.349L115.348,77.65C115.149,78.283 114.832,78.849 114.399,79.349L114.348,79.349C114.116,79.549 113.866,79.65 113.598,79.65C113.265,79.65 113.015,79.549 112.848,79.349C112.616,79.15 112.498,78.9 112.498,78.599C112.465,78.332 112.598,78.082 112.898,77.849C113.064,77.616 113.181,77.332 113.248,76.999L113.248,76.949C113.281,76.682 113.231,76.416 113.098,76.149C112.298,74.715 111.965,73.182 112.098,71.548C112.265,70.015 112.815,68.665 113.748,67.498L112.898,66.548L112.748,67.399C112.682,67.732 112.465,67.899 112.098,67.899C111.832,67.899 111.649,67.798 111.548,67.598C111.515,67.565 111.498,67.532 111.498,67.498L110.5,63.7ZM153.95,64.5L155.55,65.5C156.883,66.233 158.234,66.75 159.6,67.05C159.767,70.151 158.868,72.901 156.901,75.3C155.934,76.467 154.917,77.35 153.85,77.95L153.85,78C152.85,77.4 151.85,76.517 150.85,75.35C148.916,72.917 148.034,70.167 148.201,67.1C149.534,66.833 150.884,66.333 152.251,65.6C152.951,65.201 153.484,64.85 153.851,64.55L153.95,64.5ZM149.8,75.75C151,77.384 152.35,78.7 153.85,79.7C155.383,78.733 156.767,77.45 158,75.849C160.166,72.983 161.166,69.716 161,66.049C159.467,65.716 157.95,65.166 156.45,64.4C155.483,63.9 154.65,63.4 153.95,62.9C153.283,63.366 152.467,63.849 151.5,64.349C149.9,65.183 148.316,65.766 146.75,66.099C146.617,69.667 147.633,72.884 149.8,75.75ZM27.65,41.15L27,40.45L25.65,41.8L26.35,42.45L27.65,41.15ZM34.35,33.1C34.45,33.034 34.567,33 34.7,33C34.833,33 34.95,33.033 35.05,33.1C35.117,33.201 35.15,33.317 35.15,33.451C35.15,33.551 35.117,33.668 35.05,33.801L29.65,39.152L30.3,39.851L37.55,33.851L38.1,30.051L34.3,30.601L28.3,37.801L28.95,38.501L34.35,33.1ZM25.05,37.9L25.7,37.25C25.967,36.95 26.3,36.767 26.7,36.7C26.933,36.634 27.166,36.634 27.4,36.7L33.35,29.55C33.483,29.384 33.666,29.283 33.9,29.25L38.5,28.55L38.5,28.6C38.6,28.567 38.75,28.567 38.95,28.6C39.05,28.634 39.166,28.717 39.3,28.85C39.367,28.917 39.433,29.034 39.5,29.201C39.5,29.234 39.517,29.251 39.55,29.251C39.584,29.351 39.584,29.484 39.55,29.651L38.9,34.251C38.867,34.484 38.75,34.668 38.55,34.801L31.4,40.701C31.467,40.934 31.483,41.184 31.45,41.451L31.45,41.501C31.35,41.834 31.183,42.151 30.95,42.451L30.25,43.151C30.083,43.317 29.883,43.401 29.65,43.401C29.383,43.401 29.167,43.3 29,43.1L28.3,42.4L27.25,43.5C27.25,44 27.067,44.434 26.7,44.8C26.367,45.167 25.933,45.35 25.4,45.35L24.65,45.35C24.15,45.35 23.717,45.167 23.35,44.8C22.983,44.434 22.8,44 22.8,43.5L22.8,42.7C22.8,42.2 22.984,41.783 23.35,41.45C23.717,41.083 24.15,40.9 24.65,40.9L24.7,40.9L25.7,39.799L25.05,39.15C24.883,38.983 24.8,38.766 24.8,38.5C24.8,38.234 24.883,38.033 25.05,37.9ZM72.3,38.95C72.133,38.616 71.933,38.316 71.7,38.05C71.666,38.651 71.55,39.25 71.35,39.85C71.217,40.184 71.083,40.484 70.95,40.75C71.183,40.583 71.416,40.4 71.65,40.2L71.65,40.15C71.95,39.816 72.2,39.466 72.4,39.099C72.367,39.066 72.333,39.017 72.3,38.95ZM69.15,37.35C69.117,38.05 68.967,38.734 68.7,39.401L68.7,39.35C68.467,40.017 68.117,40.617 67.65,41.151C67.417,41.418 67.183,41.668 66.95,41.901C67.016,41.901 67.1,41.901 67.2,41.901C67.266,41.867 67.367,41.817 67.5,41.751L67.45,41.751C67.95,41.484 68.367,41.151 68.7,40.751L68.7,40.7C69.067,40.3 69.35,39.849 69.55,39.349L69.5,39.4C69.667,38.866 69.767,38.333 69.8,37.799C69.8,37.332 69.734,36.865 69.6,36.4C69.433,36.299 69.267,36.216 69.1,36.15C69.133,36.55 69.15,36.95 69.15,37.35ZM64.05,34C63.783,34.167 63.55,34.316 63.35,34.45C63.683,34.316 64.033,34.2 64.4,34.099C65.533,33.766 66.733,33.7 68,33.9L67.95,33.849C69.117,34.082 70.217,34.499 71.25,35.099C71.95,35.599 72.583,36.183 73.15,36.849C73.15,36.783 73.15,36.733 73.15,36.7C73.117,36.599 73.067,36.5 73,36.4C72.567,35.633 72,34.983 71.3,34.45C70.633,33.917 69.867,33.55 69,33.349C68.167,33.15 67.333,33.082 66.5,33.15C65.633,33.283 64.817,33.566 64.05,34ZM66.5,35.7C66.633,36.667 66.517,37.634 66.15,38.599C65.817,39.533 65.283,40.349 64.55,41.049C64.617,41.082 64.667,41.115 64.7,41.15C64.766,41.116 64.833,41.083 64.9,41.049C65.367,40.782 65.783,40.433 66.15,39.999C66.517,39.565 66.783,39.099 66.95,38.599C67.15,38.099 67.25,37.566 67.25,36.999C67.25,36.532 67.183,36.099 67.05,35.699C66.883,35.7 66.7,35.7 66.5,35.7ZM62.05,37.55C62.183,38.083 62.383,38.6 62.65,39.1L62.7,39.151C62.833,39.384 62.983,39.6 63.15,39.8C63.683,39.333 64.084,38.75 64.35,38.05C64.616,37.35 64.717,36.667 64.65,36C64.217,36.134 63.783,36.333 63.35,36.6C62.883,36.833 62.45,37.15 62.05,37.55ZM63.95,31.95C64.583,31.65 65.25,31.45 65.95,31.349C66.883,31.183 67.833,31.183 68.8,31.349C69.767,31.516 70.667,31.849 71.5,32.349C71.533,32.349 71.567,32.349 71.6,32.349C71.367,32.15 71.15,31.966 70.95,31.799C70.35,31.365 69.7,31.049 69,30.849C68.3,30.65 67.583,30.599 66.85,30.7C66.083,30.8 65.367,31.033 64.7,31.4C64.433,31.533 64.183,31.717 63.95,31.95ZM63.8,29.75C64.633,29.25 65.567,28.934 66.6,28.8C67.567,28.7 68.533,28.767 69.5,29C70.433,29.267 71.3,29.7 72.1,30.3C72.9,30.901 73.567,31.634 74.1,32.5C74.666,33.566 74.983,34.7 75.05,35.9C75.117,36.966 74.95,38.016 74.55,39.049L74.65,39.199L74.7,39.199C74.733,39.332 74.817,39.416 74.95,39.449C75.117,39.449 75.25,39.432 75.35,39.399C75.45,39.298 75.533,39.199 75.6,39.098C75.633,38.965 75.617,38.848 75.55,38.748L75.3,38.348C75.033,37.882 74.984,37.399 75.15,36.899C75.25,36.399 75.533,36.015 76,35.749C76.433,35.516 76.917,35.449 77.45,35.549C77.95,35.683 78.333,35.983 78.6,36.449L78.55,36.449L80,38.9C80.133,39.133 80.167,39.366 80.1,39.599C80.033,39.866 79.883,40.082 79.65,40.249C79.417,40.349 79.183,40.383 78.95,40.349L78.9,40.3C78.633,40.2 78.45,40.05 78.35,39.85L77.3,38.1C77.5,38.567 77.533,39.067 77.4,39.6C77.2,40.234 76.834,40.717 76.3,41.05L76.3,41C75.734,41.333 75.15,41.434 74.55,41.3C74.183,41.2 73.85,41.033 73.55,40.8C73.317,41.134 73.05,41.45 72.75,41.75C72.317,42.116 71.833,42.467 71.3,42.8C70.4,43.3 69.467,43.634 68.5,43.8C67.533,43.901 66.583,43.817 65.65,43.55C64.65,43.317 63.767,42.901 63,42.3C62.2,41.667 61.55,40.901 61.05,40C60.55,39.167 60.217,38.25 60.05,37.25C59.95,36.25 60.017,35.283 60.25,34.35C60.517,33.384 60.933,32.517 61.5,31.75C62.133,30.917 62.9,30.25 63.8,29.75ZM51.45,74.9L45.5,80.2L39.7,74.9C38.5,73.866 37.733,72.583 37.4,71.049C37.167,70.349 37.1,69.799 37.2,69.4C37.333,68.133 37.783,67.066 38.55,66.2C39.417,65.3 40.433,64.849 41.6,64.849C42,64.849 42.4,64.9 42.8,64.999C43.234,65.133 43.617,65.332 43.95,65.599C44.65,66.099 45.166,66.749 45.5,67.549C45.833,66.749 46.367,66.099 47.1,65.599C47.833,65.099 48.633,64.849 49.5,64.849C50.667,64.849 51.667,65.299 52.5,66.2C53.3,67.066 53.767,68.134 53.9,69.4C53.967,69.799 53.917,70.349 53.75,71.049C53.417,72.55 52.65,73.833 51.45,74.9ZM73.8,100.6C74.167,100.701 74.367,100.934 74.4,101.3C74.633,105.5 73.483,109.2 70.95,112.401C69.617,114.067 68.15,115.367 66.55,116.3C66.55,116.333 66.533,116.35 66.5,116.35C66.4,116.384 66.267,116.401 66.1,116.401C66,116.401 65.9,116.384 65.8,116.35C65.5,116.184 65.033,115.867 64.4,115.401C63.4,114.567 62.483,113.651 61.65,112.651C60.483,111.284 59.584,109.767 58.95,108.1C58.117,105.967 57.766,103.734 57.9,101.401L57.9,101.35C57.967,100.951 58.167,100.717 58.5,100.651L58.55,100.651C60.217,100.317 61.883,99.717 63.55,98.85C64.383,98.384 65.1,97.934 65.7,97.5L65.7,97.45C65.766,97.384 65.817,97.349 65.85,97.349C66.15,97.216 66.433,97.233 66.7,97.4L66.75,97.45C66.783,97.45 67.45,97.884 68.75,98.75L68.8,98.75C70.433,99.65 72.084,100.267 73.75,100.6C73.75,100.566 73.767,100.566 73.8,100.6ZM96.15,111.65L96.8,112.3L98.1,111L97.451,110.35L96.15,111.65ZM96.15,109.7L95.5,109.05C95.3,108.884 95.2,108.667 95.2,108.401C95.2,108.135 95.3,107.918 95.5,107.751L96.15,107.151C96.416,106.817 96.75,106.617 97.15,106.55L97.1,106.6C97.368,106.534 97.618,106.534 97.85,106.6L103.8,99.451C103.901,99.284 104.084,99.184 104.35,99.151L108.951,98.451L108.951,98.501C109.085,98.468 109.218,98.468 109.35,98.501C109.484,98.501 109.618,98.584 109.75,98.751C109.816,98.817 109.883,98.935 109.95,99.101L110,99.15C110.033,99.25 110.033,99.383 110,99.549L110,99.5L109.35,104.1C109.317,104.333 109.201,104.534 109,104.701L101.85,110.6C101.951,110.833 101.967,111.083 101.901,111.35C101.8,111.717 101.633,112.034 101.401,112.3L101.401,112.35L100.701,113C100.534,113.167 100.335,113.25 100.1,113.25C99.868,113.25 99.633,113.167 99.401,113L98.751,112.3L97.7,113.4C97.7,113.9 97.516,114.333 97.15,114.7C96.816,115.033 96.382,115.2 95.849,115.2L95.1,115.2C94.6,115.2 94.166,115.033 93.8,114.7C93.434,114.333 93.25,113.9 93.25,113.4L93.25,112.6C93.25,112.1 93.434,111.667 93.8,111.3C94.166,110.934 94.6,110.75 95.1,110.75L95.151,110.75L96.15,109.7ZM88.2,73.95C88.7,74.783 88.883,75.634 88.75,76.5C88.65,77.366 88.283,77.967 87.65,78.3C87.417,78.434 87.183,78.5 86.95,78.5C86.683,78.5 86.4,78.434 86.1,78.3C85.933,78.234 85.633,78.067 85.2,77.8C84.8,77.5 84.416,77.267 84.05,77.1C83.883,77.067 83.633,77.05 83.3,77.05C83,77.05 82.8,77.067 82.7,77.1C82.367,77.234 81.95,77.467 81.45,77.8C81.15,77.967 80.916,78.1 80.75,78.2C80.683,78.2 80.633,78.217 80.6,78.25C80.3,78.384 80.017,78.45 79.75,78.45C79.45,78.45 79.183,78.366 78.95,78.2C78.283,77.8 77.95,77.167 77.95,76.3C77.916,75.434 78.15,74.616 78.65,73.85L78.95,73.451C79.283,72.784 79.783,72.218 80.45,71.751C80.583,71.718 80.683,71.668 80.75,71.601C81.517,71.168 82.383,70.952 83.35,70.952L83.45,70.952C84.583,70.952 85.55,71.252 86.35,71.851C87.05,72.285 87.567,72.834 87.9,73.501L88.2,73.95ZM88.4,67.3C88.4,68.2 88.167,68.967 87.7,69.6C87.233,70.234 86.666,70.55 86,70.55C85.334,70.55 84.767,70.234 84.3,69.6C83.8,68.967 83.55,68.201 83.55,67.3C83.55,66.401 83.8,65.634 84.3,65C84.767,64.366 85.334,64.05 86,64.05C86.666,64.05 87.233,64.366 87.7,65C88.167,65.634 88.4,66.4 88.4,67.3ZM88.65,69.6C89.017,69.1 89.45,68.85 89.95,68.85C90.516,68.85 90.983,69.1 91.35,69.6C91.717,70.1 91.9,70.7 91.9,71.4C91.9,72.099 91.717,72.7 91.35,73.2C90.983,73.7 90.517,73.95 89.95,73.95C89.45,73.95 89.016,73.7 88.65,73.2C88.25,72.7 88.05,72.099 88.05,71.4C88.05,70.7 88.25,70.1 88.65,69.6ZM75.65,73.2C75.317,72.733 75.15,72.134 75.15,71.4C75.15,70.7 75.317,70.099 75.65,69.599C76.05,69.099 76.517,68.849 77.05,68.849C77.584,68.849 78.033,69.099 78.4,69.599C78.767,70.099 78.95,70.7 78.95,71.4C78.95,72.099 78.766,72.7 78.4,73.2C78.034,73.7 77.584,73.95 77.05,73.95C76.517,73.95 76.05,73.7 75.65,73.2ZM80.75,64.05C80.783,64.05 80.817,64.05 80.85,64.05C81.517,64.05 82.083,64.366 82.55,65C83.05,65.634 83.3,66.4 83.3,67.3C83.3,68.2 83.05,68.967 82.55,69.6C82.084,70.234 81.517,70.55 80.85,70.55C80.817,70.55 80.783,70.55 80.75,70.55C80.117,70.55 79.567,70.234 79.1,69.6C78.633,68.967 78.4,68.201 78.4,67.3C78.4,66.401 78.633,65.634 79.1,65C79.567,64.366 80.117,64.05 80.75,64.05ZM63.8,99.95C62.2,100.75 60.6,101.316 59,101.65C58.867,105.25 59.883,108.483 62.05,111.349C63.25,112.983 64.6,114.283 66.1,115.249C67.633,114.315 69.017,113.032 70.25,111.399C72.417,108.532 73.417,105.265 73.25,101.598C71.75,101.298 70.25,100.765 68.75,99.998C67.75,99.498 66.9,98.981 66.2,98.448C65.567,98.95 64.767,99.45 63.8,99.95ZM66.1,100.15L66.2,100.099L67.8,101.099C69.167,101.832 70.517,102.332 71.85,102.599C72.017,105.7 71.117,108.45 69.15,110.849C68.183,112.049 67.167,112.95 66.1,113.549L66.1,113.599C65.1,112.999 64.1,112.099 63.1,110.9C61.166,108.5 60.283,105.75 60.45,102.65C61.783,102.417 63.133,101.917 64.5,101.15C65.2,100.783 65.733,100.45 66.1,100.15ZM82.5,134C83.067,133.3 83.767,132.833 84.6,132.6C85.767,132.3 86.867,132.484 87.9,133.151C88.867,133.784 89.567,134.684 90,135.85C90.2,136.217 90.3,136.767 90.3,137.5C90.4,139.066 89.984,140.517 89.05,141.85L84.75,148.5L77.7,144.9C76.3,144.2 75.233,143.15 74.5,141.75C74.133,141.116 73.933,140.583 73.9,140.15C73.667,138.95 73.834,137.816 74.4,136.75C75,135.684 75.85,135 76.95,134.7C77.35,134.566 77.75,134.5 78.15,134.5C78.584,134.533 79.033,134.634 79.5,134.8C80.267,135.067 80.917,135.567 81.45,136.3C81.55,135.434 81.9,134.667 82.5,134ZM114.2,140.8C113.733,140.934 113.283,141.134 112.849,141.401C112.382,141.634 111.95,141.951 111.549,142.35C111.683,142.884 111.9,143.401 112.199,143.901L112.199,143.951C112.333,144.184 112.482,144.401 112.649,144.6C113.182,144.134 113.583,143.55 113.848,142.85L113.899,142.85C114.133,142.15 114.233,141.467 114.2,140.8ZM116.6,140.5C116.401,140.5 116.217,140.5 116.05,140.5C116.151,141.467 116.017,142.434 115.651,143.4C115.317,144.333 114.8,145.15 114.1,145.849C114.133,145.883 114.184,145.916 114.25,145.95C114.283,145.917 114.334,145.884 114.4,145.849C114.867,145.582 115.299,145.233 115.7,144.799C116.033,144.365 116.3,143.9 116.5,143.4C116.666,142.9 116.75,142.366 116.75,141.799C116.75,141.333 116.7,140.9 116.6,140.5ZM121.2,142.85C121.166,143.451 121.05,144.05 120.849,144.651C120.749,144.984 120.617,145.284 120.45,145.55C120.683,145.384 120.916,145.2 121.15,145L121.15,144.95C121.45,144.616 121.716,144.266 121.95,143.9C121.916,143.866 121.883,143.816 121.849,143.75C121.65,143.417 121.434,143.116 121.2,142.85ZM119.15,141.2C118.95,141.099 118.75,141.016 118.549,140.95C118.616,141.349 118.65,141.75 118.65,142.15C118.584,142.849 118.433,143.533 118.2,144.2L118.2,144.15C117.967,144.816 117.617,145.417 117.15,145.95C116.95,146.217 116.733,146.467 116.5,146.7C116.566,146.7 116.633,146.7 116.7,146.7C116.8,146.667 116.9,146.616 117,146.55L116.95,146.55C117.45,146.283 117.867,145.934 118.2,145.5C118.566,145.1 118.849,144.65 119.05,144.15L119,144.2C119.166,143.667 119.267,143.134 119.3,142.599C119.3,142.134 119.25,141.667 119.15,141.2ZM118.5,138.15C117.7,137.95 116.883,137.883 116.05,137.95C115.151,138.083 114.317,138.366 113.55,138.8C113.283,138.934 113.05,139.083 112.85,139.25C113.184,139.116 113.534,139 113.901,138.9C115.067,138.566 116.267,138.5 117.501,138.7L117.451,138.65C118.651,138.883 119.751,139.299 120.751,139.9C121.484,140.4 122.134,140.983 122.701,141.65C122.701,141.583 122.701,141.533 122.701,141.5C122.634,141.4 122.585,141.3 122.551,141.2C122.118,140.433 121.534,139.783 120.801,139.25C120.1,138.717 119.334,138.35 118.5,138.15ZM116.35,135.5C115.584,135.6 114.883,135.833 114.25,136.2C113.95,136.333 113.684,136.516 113.45,136.75C114.084,136.45 114.75,136.25 115.45,136.15C116.383,135.983 117.349,135.983 118.349,136.15C119.283,136.316 120.183,136.633 121.049,137.099C120.849,136.933 120.65,136.766 120.449,136.599C119.848,136.166 119.199,135.849 118.499,135.65C117.8,135.45 117.084,135.4 116.35,135.5ZM111.05,136.55C111.651,135.717 112.401,135.05 113.3,134.55C114.166,134.05 115.1,133.734 116.1,133.6C117.1,133.5 118.067,133.567 119,133.8C119.934,134.067 120.8,134.5 121.6,135.1C122.401,135.701 123.067,136.434 123.6,137.3C124.201,138.366 124.534,139.5 124.6,140.7C124.633,141.766 124.467,142.816 124.1,143.849L124.2,144C124.233,144.134 124.316,144.217 124.45,144.25C124.617,144.25 124.75,144.233 124.849,144.2C124.95,144.099 125.033,144 125.099,143.9C125.132,143.766 125.117,143.65 125.049,143.549L124.799,143.15C124.532,142.683 124.483,142.2 124.65,141.7C124.783,141.167 125.066,140.783 125.5,140.55C125.934,140.283 126.416,140.217 126.95,140.35C127.45,140.484 127.816,140.784 128.05,141.25L129.5,143.7L129.55,143.7C129.651,143.933 129.666,144.167 129.6,144.4C129.534,144.667 129.383,144.883 129.151,145.049C128.917,145.15 128.684,145.183 128.451,145.15C128.451,145.116 128.434,145.099 128.401,145.099C128.167,144.999 127.984,144.849 127.85,144.65L126.85,142.9C127.05,143.366 127.067,143.866 126.901,144.4C126.701,145.033 126.335,145.516 125.8,145.849L125.8,145.799C125.267,146.133 124.7,146.233 124.1,146.099C123.701,145.999 123.368,145.832 123.1,145.599C122.834,145.933 122.567,146.249 122.3,146.549C121.834,146.916 121.334,147.266 120.8,147.599C119.934,148.099 119,148.416 118,148.549C117.033,148.683 116.084,148.615 115.15,148.349C114.15,148.116 113.266,147.7 112.5,147.099C111.7,146.466 111.05,145.7 110.55,144.799C110.05,143.966 109.734,143.049 109.6,142.049C109.467,141.049 109.517,140.082 109.75,139.15C110.017,138.184 110.45,137.316 111.05,136.55ZM105.15,102.85C105.283,102.85 105.4,102.901 105.5,103C105.6,103.066 105.65,103.167 105.65,103.3C105.65,103.434 105.599,103.55 105.5,103.651L100.1,109.05L100.75,109.75L108,103.75L108.55,99.95L104.75,100.45L98.75,107.7L99.4,108.4L104.799,103C104.9,102.9 105.017,102.85 105.15,102.85ZM130.75,104.4C131.283,104.4 131.75,104.667 132.15,105.2C132.516,105.667 132.7,106.25 132.7,106.95C132.7,107.683 132.516,108.283 132.15,108.75C131.75,109.25 131.283,109.5 130.75,109.5C130.217,109.5 129.783,109.25 129.45,108.75C129.05,108.283 128.849,107.684 128.849,106.95C128.849,106.25 129.049,105.667 129.45,105.2C129.783,104.667 130.217,104.4 130.75,104.4ZM134.5,99.6L134.55,99.6C135.25,99.6 135.834,99.934 136.3,100.6C136.767,101.234 137,101.984 137,102.85C137,103.75 136.767,104.517 136.3,105.151C135.834,105.817 135.25,106.151 134.55,106.151L134.5,106.151C133.867,106.117 133.334,105.784 132.9,105.151C132.4,104.517 132.15,103.751 132.15,102.85C132.15,101.984 132.4,101.234 132.9,100.6C133.334,99.967 133.867,99.634 134.5,99.6ZM156.05,133.65C156.184,133.483 156.367,133.383 156.6,133.349L161.201,132.7C161.301,132.667 161.451,132.683 161.651,132.75C161.751,132.75 161.868,132.816 162.001,132.95C162.067,133.05 162.134,133.167 162.201,133.3C162.201,133.333 162.218,133.35 162.251,133.35C162.284,133.484 162.284,133.617 162.251,133.75L161.601,138.35C161.568,138.583 161.452,138.767 161.251,138.901L154.101,144.8C154.167,145.033 154.185,145.283 154.152,145.55L154.152,145.6C154.086,145.967 153.918,146.284 153.652,146.55L153.652,146.6L152.952,147.25C152.785,147.417 152.586,147.5 152.351,147.5C152.119,147.5 151.902,147.4 151.702,147.2L151.002,146.55L149.952,147.6C149.952,148.1 149.785,148.55 149.452,148.951C149.086,149.284 148.635,149.451 148.101,149.451L147.351,149.451C146.851,149.451 146.417,149.284 146.051,148.951C145.685,148.551 145.501,148.1 145.501,147.6L145.501,146.85C145.501,146.35 145.685,145.917 146.051,145.55C146.417,145.184 146.851,145 147.351,145L147.402,145L148.402,143.95L147.752,143.25C147.586,143.083 147.502,142.884 147.502,142.65C147.502,142.383 147.586,142.167 147.752,142L148.402,141.35C148.668,141.05 149.002,140.867 149.402,140.8L149.402,140.85C149.634,140.784 149.869,140.784 150.101,140.85L156.05,133.65ZM157.1,137.2C157.166,137.134 157.267,137.099 157.401,137.099C157.534,137.099 157.651,137.133 157.751,137.2C157.851,137.3 157.901,137.417 157.901,137.55C157.901,137.684 157.85,137.8 157.751,137.901L152.351,143.251L153,144L160.25,138L160.8,134.15L157,134.7L151,141.95L151.65,142.65L157.1,137.2ZM141.65,109.1L141.9,109.55C142.4,110.384 142.599,111.234 142.5,112.1C142.4,112.967 142.033,113.567 141.4,113.901C141.166,114.034 140.933,114.1 140.7,114.1C140.433,114.1 140.15,114.017 139.849,113.85C139.683,113.784 139.4,113.634 138.999,113.401C138.565,113.1 138.165,112.85 137.799,112.651C137.632,112.617 137.382,112.6 137.049,112.6C136.749,112.6 136.549,112.617 136.449,112.651C136.116,112.817 135.699,113.05 135.199,113.35C134.899,113.517 134.665,113.651 134.499,113.75C134.433,113.783 134.382,113.8 134.349,113.8C134.016,113.967 133.733,114.05 133.499,114.05C133.199,114.05 132.933,113.967 132.699,113.8C132.065,113.401 131.732,112.75 131.699,111.85C131.665,111.017 131.899,110.217 132.399,109.451L132.649,109.051C133.015,108.351 133.532,107.768 134.199,107.301C134.299,107.268 134.399,107.235 134.499,107.201C135.266,106.767 136.132,106.551 137.099,106.551L137.2,106.551C138.334,106.551 139.316,106.834 140.15,107.402C140.816,107.833 141.316,108.4 141.65,109.1ZM143.7,104.4C144.233,104.4 144.7,104.667 145.099,105.2C145.466,105.667 145.65,106.25 145.65,106.95C145.65,107.683 145.466,108.283 145.099,108.75C144.7,109.25 144.233,109.5 143.7,109.5C143.2,109.5 142.75,109.25 142.349,108.75C141.983,108.283 141.799,107.684 141.799,106.95C141.799,106.25 141.983,105.667 142.349,105.2C142.75,104.667 143.2,104.4 143.7,104.4ZM138,100.6C138.5,99.934 139.084,99.6 139.75,99.6C140.416,99.6 140.983,99.934 141.45,100.6C141.916,101.234 142.15,101.984 142.15,102.85C142.15,103.75 141.916,104.517 141.45,105.151C140.983,105.817 140.416,106.151 139.75,106.151C139.084,106.151 138.5,105.817 138,105.151C137.533,104.517 137.3,103.751 137.3,102.85C137.3,101.983 137.533,101.233 138,100.6ZM175.65,109.35C175.617,109.317 175.584,109.267 175.549,109.201C175.382,108.867 175.183,108.567 174.949,108.301C174.915,108.902 174.799,109.501 174.598,110.101C174.465,110.435 174.332,110.751 174.199,111.051C174.432,110.851 174.665,110.652 174.899,110.451L174.899,110.401C175.2,110.1 175.45,109.75 175.65,109.35ZM172.85,106.65C172.684,106.549 172.517,106.466 172.35,106.4C172.383,106.799 172.401,107.216 172.401,107.65C172.368,108.316 172.217,108.983 171.951,109.65L171.951,109.6C171.718,110.267 171.368,110.884 170.901,111.451C170.667,111.718 170.434,111.951 170.201,112.151C170.267,112.151 170.35,112.168 170.451,112.201C170.517,112.135 170.618,112.067 170.751,112.001L170.701,112.001C171.201,111.734 171.618,111.401 171.951,111.001L171.951,110.951C172.317,110.551 172.6,110.1 172.801,109.6L172.751,109.651C172.917,109.117 173.018,108.584 173.051,108.05C173.05,107.583 172.983,107.116 172.85,106.65ZM170.5,107.3C170.5,106.8 170.434,106.35 170.3,105.95C170.133,105.95 169.967,105.95 169.8,105.95C169.901,106.917 169.767,107.884 169.401,108.849C169.067,109.816 168.534,110.633 167.8,111.299C167.867,111.332 167.916,111.365 167.95,111.4C168.016,111.366 168.084,111.333 168.15,111.299C168.617,111.032 169.033,110.683 169.4,110.249C169.766,109.815 170.033,109.349 170.2,108.849C170.4,108.35 170.5,107.833 170.5,107.3ZM165.3,107.8C165.434,108.333 165.633,108.85 165.901,109.35L165.951,109.401C166.085,109.634 166.234,109.85 166.401,110.05C166.934,109.583 167.335,109 167.6,108.3C167.868,107.634 167.967,106.95 167.901,106.25C167.467,106.384 167.034,106.583 166.6,106.85C166.133,107.116 165.7,107.434 165.3,107.8ZM167.3,104.25C167.033,104.417 166.8,104.566 166.6,104.7C166.934,104.566 167.284,104.45 167.651,104.349C168.784,104.016 169.984,103.95 171.251,104.15L171.201,104.15C172.368,104.349 173.468,104.75 174.501,105.349C175.201,105.849 175.835,106.433 176.401,107.099C176.401,107.033 176.401,106.983 176.401,106.95C176.368,106.849 176.317,106.75 176.251,106.65C175.817,105.883 175.251,105.233 174.551,104.7C173.884,104.167 173.134,103.8 172.301,103.599C171.468,103.4 170.634,103.349 169.801,103.45C168.9,103.55 168.066,103.816 167.3,104.25ZM172.25,101.15C171.55,100.917 170.834,100.849 170.1,100.95C169.334,101.05 168.618,101.283 167.951,101.65C167.684,101.816 167.434,102 167.201,102.2C167.835,101.9 168.501,101.7 169.201,101.599C170.134,101.433 171.085,101.433 172.051,101.599C173.018,101.766 173.917,102.099 174.751,102.599C174.784,102.599 174.817,102.599 174.851,102.599C174.652,102.4 174.435,102.216 174.202,102.049C173.6,101.616 172.95,101.316 172.25,101.15ZM93.2,172.3C93.233,171.901 93.433,171.651 93.8,171.55L93.85,171.55C95.484,171.217 97.151,170.616 98.85,169.75C99.684,169.283 100.383,168.833 100.951,168.4L101.001,168.349C101.067,168.316 101.118,168.283 101.151,168.249C101.451,168.149 101.734,168.166 102.001,168.299C102.001,168.332 102.018,168.365 102.051,168.4L104.001,169.65L104.051,169.65C105.718,170.549 107.368,171.167 109.001,171.5L109.051,171.5C109.451,171.6 109.667,171.833 109.701,172.2L109.701,172.25C109.901,176.417 108.751,180.116 106.251,183.35C104.884,184.984 103.417,186.284 101.851,187.25L101.801,187.25L101.751,187.3C101.651,187.3 101.534,187.3 101.401,187.3C101.3,187.3 101.201,187.283 101.1,187.25C100.767,187.083 100.3,186.767 99.701,186.3C98.667,185.467 97.734,184.55 96.901,183.55C95.767,182.184 94.883,180.684 94.251,179.05C93.416,176.884 93.066,174.634 93.2,172.3ZM69.8,178.6C69.8,178.134 69.734,177.667 69.6,177.201C69.433,177.1 69.267,177.017 69.1,176.951C69.133,177.35 69.15,177.751 69.15,178.151C69.117,178.85 68.967,179.534 68.7,180.201L68.7,180.151C68.467,180.817 68.117,181.418 67.65,181.951C67.417,182.218 67.183,182.468 66.95,182.701C67.016,182.701 67.1,182.701 67.2,182.701C67.266,182.668 67.367,182.617 67.5,182.551L67.45,182.551C67.95,182.284 68.367,181.951 68.7,181.551L68.7,181.501C69.067,181.101 69.35,180.651 69.55,180.151L69.5,180.201C69.667,179.667 69.767,179.134 69.8,178.6ZM72.4,179.9C72.367,179.866 72.334,179.816 72.3,179.75C72.133,179.417 71.933,179.116 71.7,178.85C71.666,179.451 71.55,180.05 71.35,180.651C71.217,180.984 71.083,181.284 70.95,181.55C71.183,181.384 71.416,181.2 71.65,181L71.65,180.95C71.95,180.616 72.2,180.267 72.4,179.9ZM66.5,176.5C66.633,177.467 66.517,178.434 66.15,179.4C65.817,180.333 65.283,181.15 64.55,181.849C64.617,181.883 64.667,181.916 64.7,181.95C64.766,181.917 64.833,181.884 64.9,181.849C65.367,181.582 65.783,181.233 66.15,180.799C66.517,180.365 66.783,179.9 66.95,179.4C67.15,178.9 67.25,178.366 67.25,177.799C67.25,177.332 67.183,176.9 67.05,176.499C66.883,176.5 66.7,176.5 66.5,176.5ZM64.65,176.8C64.217,176.934 63.783,177.134 63.35,177.401C62.883,177.634 62.45,177.951 62.05,178.35C62.183,178.884 62.383,179.401 62.65,179.901L62.7,179.951C62.833,180.184 62.983,180.401 63.15,180.6C63.683,180.134 64.084,179.55 64.35,178.85C64.617,178.15 64.717,177.467 64.65,176.8ZM72.1,171.1C72.9,171.701 73.567,172.434 74.1,173.3C74.666,174.366 74.983,175.5 75.05,176.7C75.117,177.766 74.95,178.816 74.55,179.849L74.65,179.999L74.7,179.999C74.733,180.133 74.817,180.216 74.95,180.249C75.117,180.249 75.25,180.232 75.35,180.199C75.45,180.098 75.533,179.999 75.6,179.899C75.633,179.765 75.617,179.649 75.55,179.548L75.3,179.149C75.033,178.682 74.984,178.199 75.15,177.699C75.25,177.199 75.533,176.815 76,176.549C76.433,176.316 76.917,176.249 77.45,176.349C77.95,176.483 78.333,176.783 78.6,177.249L78.55,177.249L80,179.7C80.133,179.933 80.167,180.167 80.1,180.4C80.033,180.667 79.883,180.883 79.65,181.049C79.417,181.15 79.183,181.183 78.95,181.15L78.9,181.1C78.633,181 78.45,180.85 78.35,180.651L77.3,178.901C77.5,179.367 77.533,179.867 77.4,180.401C77.2,181.034 76.834,181.517 76.3,181.85L76.3,181.8C75.734,182.134 75.15,182.234 74.55,182.1C74.183,182 73.85,181.833 73.55,181.6C73.317,181.934 73.05,182.25 72.75,182.55C72.317,182.917 71.833,183.267 71.3,183.6C70.4,184.1 69.467,184.434 68.5,184.6C67.533,184.701 66.583,184.617 65.65,184.35C64.65,184.117 63.767,183.701 63,183.1C62.2,182.467 61.55,181.701 61.05,180.8C60.55,179.967 60.217,179.05 60.05,178.05C59.95,177.05 60.017,176.083 60.25,175.151C60.517,174.184 60.933,173.317 61.5,172.55C62.133,171.717 62.9,171.05 63.8,170.55C64.633,170.05 65.567,169.734 66.6,169.6C67.567,169.5 68.533,169.567 69.5,169.8C70.433,170.066 71.3,170.5 72.1,171.1ZM71.3,175.25C70.633,174.717 69.867,174.35 69,174.15C68.167,173.95 67.333,173.883 66.5,173.95C65.633,174.083 64.817,174.366 64.05,174.8C63.783,174.967 63.55,175.116 63.35,175.25C63.683,175.116 64.033,175 64.4,174.9C65.533,174.566 66.733,174.5 68,174.7L67.95,174.65C69.117,174.883 70.217,175.299 71.25,175.9C71.95,176.4 72.583,176.983 73.15,177.65C73.15,177.583 73.15,177.533 73.15,177.5C73.117,177.4 73.067,177.3 73,177.2C72.567,176.434 72,175.783 71.3,175.25ZM70.95,172.6C70.35,172.167 69.7,171.85 69,171.651C68.3,171.451 67.583,171.401 66.85,171.501C66.083,171.601 65.367,171.834 64.7,172.201C64.433,172.334 64.183,172.517 63.95,172.751C64.583,172.451 65.25,172.251 65.95,172.151C66.883,171.984 67.833,171.984 68.8,172.151C69.767,172.317 70.667,172.651 71.5,173.151C71.533,173.151 71.567,173.151 71.6,173.151C71.367,172.95 71.15,172.767 70.95,172.6ZM26.35,183.25L27.65,181.95L27,181.25L25.65,182.6L26.35,183.25ZM34.7,173.8C34.833,173.8 34.95,173.833 35.05,173.901C35.117,174.001 35.15,174.117 35.15,174.251C35.15,174.351 35.117,174.468 35.05,174.601L29.65,179.952L30.3,180.652L37.55,174.652L38.1,170.851L34.3,171.402L28.3,178.601L28.95,179.301L34.35,173.902C34.45,173.833 34.567,173.8 34.7,173.8ZM33.35,170.35C33.483,170.184 33.666,170.083 33.9,170.05L38.5,169.35L38.5,169.401C38.6,169.367 38.75,169.367 38.95,169.401C39.05,169.434 39.166,169.517 39.3,169.651C39.367,169.717 39.433,169.834 39.5,170.001C39.5,170.034 39.517,170.051 39.55,170.051C39.584,170.152 39.584,170.284 39.55,170.451L38.9,175.051C38.867,175.284 38.75,175.468 38.55,175.601L31.4,181.501C31.467,181.734 31.483,181.984 31.45,182.251L31.45,182.301C31.35,182.635 31.183,182.951 30.95,183.251L30.25,183.951C30.083,184.117 29.883,184.201 29.65,184.201C29.383,184.201 29.167,184.1 29,183.901L28.3,183.201L27.25,184.301C27.25,184.801 27.067,185.235 26.7,185.601C26.367,185.968 25.933,186.152 25.4,186.152L24.65,186.152C24.15,186.152 23.717,185.968 23.35,185.601C22.983,185.235 22.8,184.801 22.8,184.301L22.8,183.501C22.8,183.001 22.984,182.584 23.35,182.251C23.717,181.885 24.15,181.701 24.65,181.701L24.7,181.701L25.7,180.6L25.05,179.951C24.883,179.784 24.8,179.567 24.8,179.301C24.8,179.035 24.883,178.834 25.05,178.701L25.7,178.051C25.967,177.751 26.3,177.568 26.7,177.501C26.933,177.435 27.166,177.435 27.4,177.501L33.35,170.35ZM52.35,143.95L52.55,144.349C52.917,145.283 52.984,146.166 52.75,146.999C52.516,147.832 52.067,148.383 51.4,148.649C51.167,148.749 50.933,148.782 50.7,148.749C50.433,148.716 50.15,148.599 49.85,148.399C49.717,148.298 49.467,148.098 49.1,147.798C48.7,147.432 48.35,147.149 48.05,146.948C47.85,146.882 47.6,146.814 47.3,146.748C47,146.715 46.8,146.715 46.7,146.748C46.333,146.848 45.9,147.015 45.4,147.248C45.067,147.382 44.8,147.481 44.6,147.548C44.533,147.548 44.483,147.565 44.45,147.598C44.117,147.699 43.817,147.732 43.55,147.699C43.25,147.666 43,147.549 42.8,147.348C42.234,146.848 42,146.165 42.1,145.298C42.2,144.432 42.55,143.649 43.15,142.948L43.45,142.648C43.883,142.014 44.467,141.514 45.2,141.148C45.333,141.114 45.433,141.081 45.5,141.047C46.333,140.714 47.233,140.613 48.2,140.747L48.3,140.797C49.4,140.931 50.317,141.347 51.05,142.047C51.683,142.583 52.117,143.217 52.35,143.95ZM55,139.6C55.533,139.667 55.967,139.984 56.3,140.55C56.567,141.05 56.65,141.667 56.55,142.401C56.484,143.067 56.234,143.617 55.8,144.05C55.334,144.517 54.834,144.7 54.3,144.6C53.8,144.534 53.4,144.217 53.1,143.651C52.8,143.151 52.683,142.55 52.75,141.85C52.85,141.151 53.133,140.583 53.6,140.151C54.033,139.684 54.5,139.5 55,139.6ZM49.9,135C50.5,134.4 51.117,134.15 51.75,134.25C52.417,134.35 52.933,134.767 53.3,135.5C53.667,136.167 53.8,136.95 53.7,137.85C53.567,138.717 53.233,139.434 52.7,140C52.133,140.566 51.516,140.8 50.85,140.7C50.183,140.599 49.666,140.2 49.3,139.5C48.9,138.833 48.767,138.05 48.9,137.15C49,136.25 49.333,135.533 49.9,135ZM43.8,136.45C43.9,135.55 44.234,134.833 44.8,134.3C45.334,133.734 45.933,133.484 46.6,133.55L46.65,133.55C47.317,133.616 47.834,134.017 48.2,134.75C48.6,135.45 48.733,136.233 48.6,137.1C48.467,138 48.133,138.734 47.6,139.3C47,139.866 46.383,140.1 45.75,140C45.717,140 45.683,140 45.65,140C45.017,139.866 44.533,139.467 44.2,138.8C43.8,138.134 43.667,137.35 43.8,136.45ZM40.8,138.35C41.2,137.917 41.667,137.734 42.2,137.8C42.733,137.866 43.15,138.184 43.45,138.75C43.75,139.25 43.85,139.866 43.75,140.6C43.65,141.3 43.383,141.85 42.95,142.25C42.516,142.684 42.033,142.884 41.5,142.85C40.967,142.75 40.567,142.434 40.3,141.901C40,141.367 39.9,140.751 40,140.05C40.067,139.35 40.333,138.783 40.8,138.35ZM30.9,107.4L28.1,104.599C27.5,105.4 27.15,106.316 27.05,107.349C26.95,108.483 27.167,109.566 27.7,110.599L30.9,107.4ZM35.4,102.9C34.367,102.366 33.283,102.15 32.15,102.25C31.117,102.35 30.2,102.7 29.4,103.3L32.15,106.1L35.4,102.9ZM38.95,100.5C39.25,100.5 39.483,100.6 39.65,100.8C39.917,101.033 40.05,101.3 40.05,101.6C40.05,101.867 39.917,102.117 39.65,102.35C39.183,102.817 38.65,103.117 38.05,103.25L33.65,107.65L34.9,108.849L36.35,108.4L36.4,108.4C36.767,108.299 36.983,108.366 37.05,108.599L37.6,109.15C37.8,109.349 37.867,109.549 37.8,109.75C37.8,109.783 37.783,109.816 37.75,109.85C37.95,109.684 38.167,109.717 38.4,109.951L39.1,110.551C39.133,110.617 39.166,110.668 39.2,110.701C39.233,110.867 39.25,110.984 39.25,111.051C39.25,111.084 39.25,111.117 39.25,111.152C39.183,111.351 39.05,111.502 38.85,111.601L38.8,111.601L38,111.9L38.1,112.049C38.3,112.183 38.4,112.383 38.4,112.65C38.4,112.883 38.317,113.099 38.15,113.299L38.1,113.349C37.9,113.516 37.683,113.599 37.45,113.599C37.217,113.599 37.016,113.516 36.85,113.349L36.7,113.2L36.4,114.05C36.367,114.083 36.35,114.116 36.35,114.151C36.25,114.251 36.15,114.334 36.05,114.401C35.984,114.434 35.917,114.451 35.85,114.451C35.717,114.451 35.583,114.418 35.45,114.35C35.416,114.317 35.4,114.284 35.4,114.25L34.75,113.65L34.75,113.7C34.483,113.467 34.45,113.233 34.65,113L34.7,112.95C34.664,112.983 34.631,113 34.6,113L34.55,113C34.317,113.066 34.117,113.033 33.95,112.9L33.35,112.25C33.15,112.15 33.067,111.95 33.1,111.65C33.1,111.616 33.117,111.599 33.15,111.599L33.6,110.15L32.45,108.9L28.1,113.25C27.933,113.884 27.633,114.434 27.2,114.9C27.2,114.933 27.183,114.95 27.15,114.95C26.917,115.15 26.667,115.25 26.4,115.25C26.067,115.25 25.817,115.15 25.65,114.95C25.417,114.75 25.3,114.483 25.3,114.15C25.267,113.883 25.383,113.633 25.65,113.4C25.85,113.2 25.983,112.933 26.05,112.599C26.05,112.566 26.05,112.533 26.05,112.499C26.084,112.232 26.033,111.966 25.9,111.699C25.1,110.265 24.767,108.732 24.9,107.098C25.1,105.598 25.65,104.265 26.55,103.098L25.65,102.149L25.5,102.949C25.467,103.315 25.267,103.499 24.9,103.499C24.633,103.499 24.45,103.383 24.35,103.149C24.317,103.115 24.3,103.082 24.3,103.048L23.3,99.248C23.234,99.015 23.283,98.831 23.45,98.698L23.5,98.698L23.5,98.648C23.633,98.481 23.833,98.431 24.1,98.498L24.05,98.498L27.95,99.498C28.183,99.632 28.3,99.831 28.3,100.098C28.3,100.399 28.15,100.615 27.85,100.748L27.8,100.748L26.95,100.848L27.85,101.748C29.05,100.848 30.4,100.298 31.9,100.098C33.533,99.899 35.067,100.215 36.5,101.048L36.55,101.048C36.783,101.215 37.067,101.281 37.4,101.248C37.7,101.182 37.967,101.031 38.2,100.798C38.433,100.6 38.683,100.5 38.95,100.5ZM101.5,171L103.1,172C104.434,172.733 105.784,173.233 107.151,173.5C107.317,176.6 106.417,179.366 104.451,181.8C103.484,182.967 102.468,183.85 101.401,184.45L101.401,184.5C100.401,183.9 99.401,183.017 98.401,181.85C96.467,179.417 95.585,176.651 95.751,173.55C97.085,173.283 98.435,172.8 99.801,172.1C100.501,171.701 101.034,171.35 101.402,171.05L101.5,171ZM101.5,169.35C100.834,169.85 100.017,170.35 99.05,170.85C97.484,171.684 95.901,172.267 94.3,172.6C94.166,176.167 95.184,179.384 97.35,182.25C98.55,183.884 99.901,185.184 101.401,186.15C102.934,185.216 104.317,183.933 105.55,182.299C107.717,179.466 108.717,176.216 108.55,172.549C107.017,172.183 105.5,171.615 104,170.849C103.033,170.384 102.2,169.884 101.5,169.35ZM129.45,179C128.584,177.7 128.183,176.25 128.25,174.65C128.217,173.917 128.3,173.366 128.5,173C128.934,171.8 129.65,170.9 130.65,170.3C131.683,169.634 132.766,169.45 133.9,169.75C134.299,169.85 134.666,170.017 135,170.25C135.4,170.45 135.75,170.733 136.05,171.1C136.55,171.734 136.867,172.5 137,173.401C137.533,172.701 138.217,172.217 139.05,171.951C139.883,171.651 140.717,171.6 141.55,171.801C142.717,172.101 143.567,172.801 144.1,173.902C144.666,174.935 144.834,176.085 144.6,177.351C144.567,177.751 144.383,178.268 144.05,178.902C143.317,180.301 142.234,181.351 140.8,182.051L133.75,185.652L129.45,179ZM161.5,205.8L161.55,205.8C161.916,205.901 162.1,206.134 162.1,206.5L162.1,206.55C162.334,210.717 161.184,214.417 158.651,217.651C157.35,219.317 155.901,220.617 154.3,221.55L154.25,221.55L154.2,221.6C154.099,221.634 153.983,221.651 153.849,221.651C153.716,221.651 153.617,221.617 153.549,221.55C153.216,221.384 152.749,221.067 152.15,220.6C151.117,219.8 150.183,218.884 149.349,217.85C148.216,216.484 147.333,214.984 146.7,213.35C145.867,211.217 145.516,208.967 145.65,206.6C145.683,206.201 145.882,205.951 146.25,205.85L146.3,205.85C147.934,205.517 149.6,204.917 151.3,204.05C152.133,203.583 152.834,203.134 153.401,202.7L153.451,202.65C153.517,202.616 153.567,202.583 153.6,202.549C153.901,202.449 154.184,202.466 154.451,202.599C154.451,202.633 154.468,202.666 154.501,202.7L156.451,203.95L156.501,203.95C158.166,204.85 159.834,205.467 161.5,205.8ZM167.45,181.05L167.65,180.651C167.882,179.918 168.316,179.267 168.95,178.701C169.016,178.635 169.099,178.567 169.2,178.501C169.867,177.968 170.683,177.635 171.65,177.501L171.75,177.501C172.85,177.334 173.85,177.468 174.75,177.901C175.517,178.234 176.1,178.701 176.5,179.3L176.85,179.7C177.451,180.467 177.767,181.283 177.8,182.15C177.834,183.016 177.567,183.667 177,184.099C176.8,184.266 176.584,184.366 176.35,184.4C176.084,184.433 175.784,184.4 175.451,184.299C175.284,184.233 174.984,184.115 174.551,183.949C174.085,183.716 173.652,183.549 173.251,183.449C173.085,183.449 172.835,183.466 172.501,183.499C172.201,183.532 172.018,183.582 171.951,183.649C171.618,183.848 171.251,184.132 170.85,184.499C170.55,184.732 170.317,184.899 170.151,184.999C170.118,185.032 170.085,185.065 170.05,185.099C169.75,185.266 169.467,185.383 169.2,185.45C168.9,185.483 168.633,185.45 168.4,185.349C167.7,185.016 167.266,184.433 167.099,183.599C166.967,182.733 167.084,181.884 167.45,181.05ZM166.55,176.9C166.984,177.333 167.267,177.9 167.401,178.599C167.467,179.299 167.35,179.916 167.05,180.45C166.783,180.983 166.383,181.3 165.85,181.4C165.317,181.466 164.834,181.283 164.401,180.849C163.967,180.45 163.701,179.9 163.6,179.2C163.5,178.467 163.584,177.833 163.85,177.3C164.151,176.767 164.55,176.45 165.05,176.35C165.617,176.25 166.117,176.434 166.55,176.9ZM171.3,173.85C171.166,172.951 171.283,172.167 171.651,171.5C172.017,170.767 172.534,170.333 173.201,170.2C173.868,170.099 174.484,170.349 175.051,170.95C175.585,171.483 175.935,172.2 176.101,173.099C176.235,173.999 176.119,174.783 175.751,175.45C175.384,176.183 174.868,176.583 174.201,176.65C173.534,176.783 172.917,176.566 172.35,176C171.783,175.434 171.434,174.717 171.3,173.85ZM168.1,171C168.767,170.9 169.383,171.15 169.951,171.75C170.517,172.283 170.868,173 171.001,173.9C171.134,174.766 171.018,175.549 170.651,176.25C170.284,176.95 169.767,177.35 169.1,177.45C169.067,177.45 169.034,177.45 169,177.45C168.367,177.55 167.783,177.316 167.25,176.75C166.684,176.217 166.334,175.517 166.2,174.65C166.066,173.75 166.183,172.95 166.55,172.25C166.883,171.55 167.383,171.134 168.05,171L168.1,171ZM148.4,145.9L149.049,146.549L150.349,145.249L149.7,144.599L148.4,145.9ZM153.95,205.3L155.55,206.3C156.883,207.033 158.234,207.55 159.6,207.85C159.767,210.951 158.868,213.701 156.901,216.1C155.934,217.267 154.917,218.151 153.85,218.75L153.85,218.8C152.85,218.2 151.85,217.317 150.85,216.151C148.916,213.717 148.034,210.967 148.201,207.901C149.534,207.634 150.884,207.134 152.251,206.401C152.951,206.001 153.484,205.651 153.851,205.35L153.95,205.3ZM153.95,203.7C153.283,204.167 152.467,204.65 151.5,205.15C149.9,205.983 148.316,206.566 146.75,206.9C146.617,210.466 147.633,213.683 149.8,216.549C151,218.183 152.35,219.499 153.85,220.499C155.383,219.532 156.767,218.249 158,216.649C160.166,213.782 161.166,210.515 161,206.848C159.467,206.515 157.95,205.965 156.45,205.199C155.483,204.7 154.65,204.2 153.95,203.7ZM89.95,209.65C90.516,209.65 90.983,209.9 91.35,210.4C91.717,210.9 91.9,211.5 91.9,212.2C91.9,212.9 91.717,213.5 91.35,214C90.983,214.5 90.517,214.75 89.95,214.75C89.45,214.75 89.016,214.5 88.65,214C88.25,213.5 88.05,212.9 88.05,212.2C88.05,211.5 88.25,210.9 88.65,210.4C89.017,209.9 89.45,209.65 89.95,209.65ZM80.45,212.55C80.583,212.517 80.683,212.467 80.75,212.401C81.517,211.967 82.383,211.751 83.35,211.751L83.45,211.751C84.583,211.751 85.55,212.051 86.35,212.651C87.05,213.084 87.567,213.634 87.9,214.3L88.2,214.75C88.7,215.583 88.883,216.434 88.75,217.3C88.65,218.167 88.283,218.767 87.65,219.1C87.417,219.234 87.183,219.3 86.95,219.3C86.683,219.3 86.4,219.234 86.1,219.1C85.933,219.034 85.633,218.867 85.2,218.6C84.8,218.3 84.416,218.067 84.05,217.901C83.883,217.867 83.633,217.85 83.3,217.85C83,217.85 82.8,217.867 82.7,217.901C82.367,218.034 81.95,218.267 81.45,218.6C81.15,218.767 80.916,218.901 80.75,219C80.683,219 80.633,219.017 80.6,219.05C80.3,219.184 80.017,219.25 79.75,219.25C79.45,219.25 79.183,219.167 78.95,219C78.283,218.6 77.95,217.967 77.95,217.1C77.916,216.234 78.15,215.417 78.65,214.651L78.95,214.251C79.283,213.583 79.783,213.017 80.45,212.55ZM78.4,210.4C78.767,210.9 78.95,211.5 78.95,212.2C78.95,212.9 78.766,213.5 78.4,214C78.034,214.5 77.584,214.75 77.05,214.75C76.517,214.75 76.05,214.5 75.65,214C75.317,213.533 75.15,212.934 75.15,212.2C75.15,211.5 75.317,210.9 75.65,210.4C76.05,209.9 76.517,209.65 77.05,209.65C77.583,209.65 78.033,209.9 78.4,210.4ZM80.75,204.85C80.783,204.85 80.817,204.85 80.85,204.85C81.517,204.85 82.083,205.167 82.55,205.8C83.05,206.434 83.3,207.2 83.3,208.1C83.3,209 83.05,209.767 82.55,210.401C82.084,211.034 81.517,211.35 80.85,211.35C80.817,211.35 80.783,211.35 80.75,211.35C80.117,211.35 79.567,211.034 79.1,210.401C78.633,209.767 78.4,209.001 78.4,208.1C78.4,207.201 78.633,206.434 79.1,205.8C79.567,205.167 80.117,204.85 80.75,204.85ZM84.3,205.8C84.767,205.167 85.334,204.85 86,204.85C86.666,204.85 87.233,205.167 87.7,205.8C88.166,206.434 88.4,207.2 88.4,208.1C88.4,209 88.167,209.767 87.7,210.401C87.233,211.034 86.666,211.35 86,211.35C85.334,211.35 84.767,211.034 84.3,210.401C83.8,209.767 83.55,209.001 83.55,208.1C83.55,207.2 83.8,206.434 84.3,205.8ZM115.3,209.8C114.7,210.6 114.35,211.517 114.25,212.55C114.184,213.717 114.4,214.8 114.9,215.8L118.099,212.6L115.3,209.8ZM122.6,208.1C121.6,207.567 120.517,207.35 119.35,207.451C118.317,207.584 117.401,207.934 116.6,208.501L119.35,211.351L122.6,208.1ZM126.15,205.75C126.45,205.75 126.683,205.833 126.849,206C127.117,206.233 127.249,206.5 127.249,206.8C127.282,207.067 127.149,207.317 126.849,207.55L126.849,207.6C126.382,208.067 125.849,208.367 125.249,208.5L120.849,212.9L122.099,214.099L123.599,213.599C123.966,213.499 124.183,213.582 124.249,213.849L124.799,214.4C124.999,214.599 125.066,214.783 124.999,214.95C124.999,214.983 124.982,215.033 124.949,215.099C125.149,214.933 125.366,214.966 125.598,215.2L126.298,215.75C126.332,215.816 126.365,215.884 126.399,215.95C126.432,216.083 126.449,216.2 126.449,216.3C126.449,216.333 126.449,216.366 126.449,216.401C126.382,216.6 126.265,216.734 126.098,216.8L126.048,216.85L125.198,217.1L125.298,217.3C125.498,217.434 125.598,217.634 125.598,217.901C125.598,218.134 125.515,218.35 125.348,218.55C125.315,218.55 125.298,218.567 125.298,218.6C125.098,218.734 124.899,218.8 124.698,218.8C124.431,218.8 124.215,218.734 124.048,218.6L123.9,218.4L123.599,219.25C123.599,219.283 123.583,219.333 123.549,219.4C123.483,219.466 123.382,219.549 123.249,219.65C123.183,219.683 123.116,219.7 123.049,219.7C122.915,219.7 122.782,219.65 122.65,219.55C122.617,219.55 122.599,219.533 122.599,219.5L121.95,218.9L121.95,218.95C121.683,218.717 121.65,218.467 121.849,218.2L121.9,218.15C121.865,218.183 121.831,218.2 121.799,218.2L121.749,218.2C121.516,218.266 121.315,218.233 121.149,218.099L121.149,218.049L120.548,217.499C120.348,217.365 120.265,217.166 120.298,216.899C120.298,216.865 120.315,216.832 120.348,216.798L120.798,215.348L119.649,214.149L115.348,218.449C115.149,219.082 114.832,219.649 114.399,220.149L114.348,220.149C114.116,220.348 113.866,220.449 113.598,220.449C113.265,220.449 113.015,220.348 112.848,220.149C112.616,219.949 112.498,219.699 112.498,219.399C112.465,219.132 112.598,218.882 112.898,218.649C113.064,218.416 113.181,218.132 113.248,217.798L113.248,217.748C113.281,217.481 113.231,217.215 113.098,216.948C112.298,215.514 111.965,213.981 112.098,212.347C112.265,210.814 112.815,209.464 113.748,208.297L112.898,207.347L112.748,208.198C112.682,208.531 112.465,208.698 112.098,208.698C111.832,208.698 111.649,208.597 111.548,208.398C111.515,208.364 111.498,208.331 111.498,208.297L110.498,204.497C110.465,204.23 110.515,204.03 110.648,203.897L110.698,203.897L110.698,203.846C110.832,203.68 111.031,203.63 111.298,203.697L111.248,203.697L115.198,204.747C115.398,204.847 115.498,205.03 115.498,205.297C115.498,205.631 115.348,205.847 115.048,205.947L115,205.947L114.2,206.047L115.05,206.997C116.25,206.063 117.6,205.497 119.1,205.297C120.734,205.131 122.284,205.464 123.75,206.297C123.983,206.431 124.267,206.481 124.6,206.447C124.901,206.381 125.151,206.247 125.35,206.047L125.4,206C125.633,205.833 125.883,205.75 126.15,205.75ZM42.8,205.8C43.234,205.934 43.617,206.134 43.95,206.401C44.65,206.901 45.166,207.55 45.5,208.35C45.833,207.55 46.367,206.901 47.1,206.401C47.833,205.901 48.633,205.651 49.5,205.651C50.667,205.651 51.667,206.1 52.5,207.001C53.3,207.867 53.767,208.935 53.9,210.201C53.967,210.6 53.917,211.151 53.75,211.85C53.417,213.35 52.65,214.634 51.45,215.701L45.5,221L39.7,215.7C38.5,214.667 37.733,213.384 37.4,211.849C37.167,211.15 37.1,210.599 37.2,210.2C37.333,208.933 37.783,207.866 38.55,207C39.417,206.1 40.433,205.65 41.6,205.65C42,205.65 42.4,205.7 42.8,205.8Z" style="fill:rgb(255,138,35);"/>
        </g>
    </g>
</svg>
