<?xml version="1.0" encoding="UTF-8" standalone="no"?>
<!DOCTYPE svg PUBLIC "-//W3C//DTD SVG 1.1//EN" "http://www.w3.org/Graphics/SVG/1.1/DTD/svg11.dtd">
<svg width="100%" height="100%" viewBox="0 0 200 200" version="1.1" xmlns="http://www.w3.org/2000/svg" xmlns:xlink="http://www.w3.org/1999/xlink" xml:space="preserve" xmlns:serif="http://www.serif.com/" style="fill-rule:evenodd;clip-rule:evenodd;stroke-linecap:round;stroke-linejoin:round;stroke-miterlimit:1.5;">
    <g transform="matrix(1,0,0,1,-2880.03,-824.035)">
        <g transform="matrix(1.35647,0,0,1.02888,2430.96,-1687.4)">
            <path d="M404.779,2445.79L373.446,2497.13L384.779,2498.46L365.446,2531.13L375.446,2531.79L354.112,2569.13L366.112,2570.46L346.779,2603.13L387.446,2603.13L387.446,2630.46L421.446,2630.46L421.446,2603.79L462.779,2605.13L443.446,2568.46L455.446,2569.13L434.779,2531.13L446.779,2531.13L424.779,2496.46L435.446,2497.13L404.779,2445.79Z" style="fill:rgb(23,122,37);stroke:rgb(49,50,61);stroke-width:6.08px;"/>
        </g>
        <g transform="matrix(0.378788,0,0,0.340136,2155.4,274.663)">
            <rect x="1913.01" y="1615.15" width="528" height="588" style="fill:none;"/>
        </g>
    </g>
</svg>
