<?xml version="1.0" encoding="UTF-8" standalone="no"?>
<!DOCTYPE svg PUBLIC "-//W3C//DTD SVG 1.1//EN" "http://www.w3.org/Graphics/SVG/1.1/DTD/svg11.dtd">
<svg width="100%" height="100%" viewBox="0 0 200 200" version="1.1" xmlns="http://www.w3.org/2000/svg" xmlns:xlink="http://www.w3.org/1999/xlink" xml:space="preserve" xmlns:serif="http://www.serif.com/" style="fill-rule:evenodd;clip-rule:evenodd;stroke-linecap:round;stroke-linejoin:round;stroke-miterlimit:1.5;">
    <g transform="matrix(1,0,0,1,-2372.03,-786.938)">
        <g id="Fire" transform="matrix(1.00392,0,0,1.00392,2283.68,-1320.74)">
            <path d="M164.092,2291.66C158.014,2289.94 149.676,2284.51 144.551,2281.04C137.946,2276.56 128.825,2270.27 123.712,2263.97C100.567,2235.45 120.584,2196.56 140.423,2173.44C145.333,2167.71 168.48,2145.43 170.414,2137.68C171.387,2133.78 171.66,2129.67 171.426,2125.66C171.181,2121.48 161.847,2108.8 169.754,2104.45C170.403,2104.1 178.142,2108.75 180.217,2109.41C194.597,2113.99 209.443,2124.22 212.29,2140.15C214.569,2152.9 211.819,2166.64 216.759,2178.99C218.907,2184.36 225.056,2181.91 227.325,2179.17C230.349,2175.52 229.064,2170.77 230.314,2166.75C231.151,2164.06 233.752,2161.72 235.707,2164.72C247.165,2182.33 260.931,2201.99 261.828,2223.4C262.448,2238.18 258.422,2254.94 249.426,2267.66C244.357,2274.83 237.423,2280.35 230.092,2284.99C227.036,2286.93 223.699,2288.39 220.475,2290.03C219.263,2290.65 213.443,2293.13 212.121,2293.45C208.119,2294.42 214.743,2286.88 215.385,2285.69C216.916,2282.86 219.596,2280.66 220.759,2277.66C222.152,2274.06 222.982,2270.14 222.899,2266.28C222.581,2251.44 207.894,2242.7 200.092,2232.33C197.043,2228.28 194.718,2223.67 192.759,2218.99C192.044,2217.29 192.648,2215.27 192.199,2213.47C191.967,2212.55 191.524,2210.42 190.759,2210.99C187.468,2213.46 176.456,2228.45 174.092,2231.66C167.437,2240.7 158.549,2250.34 158.217,2262.41C157.879,2274.75 159.654,2274.39 163.864,2285.62C164.341,2286.9 170.947,2292.18 170.999,2293.54C171.028,2294.31 164.831,2291.87 164.092,2291.66" style="fill:rgb(255,160,57);stroke:rgb(49,50,61);stroke-width:7.65px;"/>
        </g>
        <g transform="matrix(0.378788,0,0,0.340136,1647.4,237.567)">
            <rect x="1913.01" y="1615.15" width="528" height="588" style="fill:none;"/>
        </g>
    </g>
</svg>
