<?xml version="1.0" encoding="UTF-8" standalone="no"?>
<!DOCTYPE svg PUBLIC "-//W3C//DTD SVG 1.1//EN" "http://www.w3.org/Graphics/SVG/1.1/DTD/svg11.dtd">
<svg width="100%" height="100%" viewBox="0 0 200 210" version="1.1" xmlns="http://www.w3.org/2000/svg" xmlns:xlink="http://www.w3.org/1999/xlink" xml:space="preserve" xmlns:serif="http://www.serif.com/" style="fill-rule:evenodd;clip-rule:evenodd;stroke-linecap:round;stroke-linejoin:round;stroke-miterlimit:1.5;">
    <g transform="matrix(1,0,0,1,-2370.03,-1016.29)">
        <g transform="matrix(0.9,0,0,0.9,270.032,-16.7892)">
            <g transform="matrix(1.07914,0,0,1.07914,2028.04,-1342.05)">
                <g transform="matrix(1,0,0,1,-24,125.333)">
                    <path d="M409.193,2197.17L409.193,2382.5" style="fill:none;stroke:rgb(49,50,61);stroke-width:30.36px;"/>
                </g>
                <g transform="matrix(1,0,0,1,-24,125.333)">
                    <path d="M330.526,2244.5L490.526,2335.84" style="fill:none;stroke:rgb(49,50,61);stroke-width:30.36px;"/>
                </g>
                <g transform="matrix(1,0,0,1,-24,125.333)">
                    <path d="M328.526,2336.5L491.193,2242.5" style="fill:none;stroke:rgb(49,50,61);stroke-width:30.36px;"/>
                </g>
                <g transform="matrix(1,0,0,1,-24,125.333)">
                    <path d="M379.859,2217.84L409.193,2233.84" style="fill:none;stroke:rgb(49,50,61);stroke-width:30.36px;"/>
                </g>
                <g transform="matrix(1,0,0,1,-24,125.333)">
                    <path d="M437.859,2219.84L409.193,2233.84" style="fill:none;stroke:rgb(49,50,61);stroke-width:30.36px;"/>
                </g>
                <g transform="matrix(1,0,0,1,-24,125.333)">
                    <path d="M361.193,2230.5L359.859,2259.84" style="fill:none;stroke:rgb(49,50,61);stroke-width:30.36px;"/>
                </g>
                <g transform="matrix(1,0,0,1,-24,125.333)">
                    <path d="M335.193,2277.17L359.859,2259.84" style="fill:none;stroke:rgb(49,50,61);stroke-width:30.36px;"/>
                </g>
                <g transform="matrix(1,0,0,1,-24,125.333)">
                    <path d="M334.526,2300.5L361.193,2317.84" style="fill:none;stroke:rgb(49,50,61);stroke-width:30.36px;"/>
                </g>
                <g transform="matrix(1,0,0,1,-24,125.333)">
                    <path d="M361.193,2347.17L361.193,2317.84" style="fill:none;stroke:rgb(49,50,61);stroke-width:30.36px;"/>
                </g>
                <g transform="matrix(1,0,0,1,-24,125.333)">
                    <path d="M383.193,2360.5L410.526,2347.17" style="fill:none;stroke:rgb(49,50,61);stroke-width:30.36px;"/>
                </g>
                <g transform="matrix(1,0,0,1,-24,125.333)">
                    <path d="M437.859,2361.17L410.526,2347.17" style="fill:none;stroke:rgb(49,50,61);stroke-width:30.36px;"/>
                </g>
                <g transform="matrix(1,0,0,1,-24,125.333)">
                    <path d="M457.859,2349.17L459.193,2319.84" style="fill:none;stroke:rgb(49,50,61);stroke-width:30.36px;"/>
                </g>
                <g transform="matrix(1,0,0,1,-24,125.333)">
                    <path d="M482.526,2303.84L459.193,2319.84" style="fill:none;stroke:rgb(49,50,61);stroke-width:30.36px;"/>
                </g>
                <g transform="matrix(1,0,0,1,-24,125.333)">
                    <path d="M455.193,2226.5L455.859,2261.17" style="fill:none;stroke:rgb(49,50,61);stroke-width:30.36px;"/>
                </g>
                <g transform="matrix(1,0,0,1,-24,125.333)">
                    <path d="M485.193,2279.84L455.859,2261.17" style="fill:none;stroke:rgb(49,50,61);stroke-width:30.36px;"/>
                </g>
            </g>
            <g transform="matrix(1.07914,0,0,1.07914,2028.04,-1342.05)">
                <g transform="matrix(1,0,0,1,-24,125.333)">
                    <path d="M409.193,2197.17L409.193,2382.5" style="fill:none;stroke:rgb(69,240,244);stroke-width:16.47px;"/>
                </g>
                <g transform="matrix(1,0,0,1,-24,125.333)">
                    <path d="M330.526,2244.5L490.526,2335.84" style="fill:none;stroke:rgb(69,240,244);stroke-width:16.47px;"/>
                </g>
                <g transform="matrix(1,0,0,1,-24,125.333)">
                    <path d="M328.526,2336.5L491.193,2242.5" style="fill:none;stroke:rgb(69,240,244);stroke-width:16.47px;"/>
                </g>
                <g transform="matrix(1,0,0,1,-24,125.333)">
                    <path d="M379.859,2217.84L409.193,2233.84" style="fill:none;stroke:rgb(69,240,244);stroke-width:16.47px;"/>
                </g>
                <g transform="matrix(1,0,0,1,-24,125.333)">
                    <path d="M437.859,2219.84L409.193,2233.84" style="fill:none;stroke:rgb(69,240,244);stroke-width:16.47px;"/>
                </g>
                <g transform="matrix(1,0,0,1,-24,125.333)">
                    <path d="M361.193,2230.5L359.859,2259.84" style="fill:none;stroke:rgb(69,240,244);stroke-width:16.47px;"/>
                </g>
                <g transform="matrix(1,0,0,1,-24,125.333)">
                    <path d="M335.193,2277.17L359.859,2259.84" style="fill:none;stroke:rgb(69,240,244);stroke-width:16.47px;"/>
                </g>
                <g transform="matrix(1,0,0,1,-24,125.333)">
                    <path d="M334.526,2300.5L361.193,2317.84" style="fill:none;stroke:rgb(69,240,244);stroke-width:16.47px;"/>
                </g>
                <g transform="matrix(1,0,0,1,-24,125.333)">
                    <path d="M361.193,2347.17L361.193,2317.84" style="fill:none;stroke:rgb(69,240,244);stroke-width:16.47px;"/>
                </g>
                <g transform="matrix(1,0,0,1,-24,125.333)">
                    <path d="M383.193,2360.5L410.526,2347.17" style="fill:none;stroke:rgb(69,240,244);stroke-width:16.47px;"/>
                </g>
                <g transform="matrix(1,0,0,1,-24,125.333)">
                    <path d="M437.859,2361.17L410.526,2347.17" style="fill:none;stroke:rgb(69,240,244);stroke-width:16.47px;"/>
                </g>
                <g transform="matrix(1,0,0,1,-24,125.333)">
                    <path d="M457.859,2349.17L459.193,2319.84" style="fill:none;stroke:rgb(69,240,244);stroke-width:16.47px;"/>
                </g>
                <g transform="matrix(1,0,0,1,-24,125.333)">
                    <path d="M482.526,2303.84L459.193,2319.84" style="fill:none;stroke:rgb(69,240,244);stroke-width:16.47px;"/>
                </g>
                <g transform="matrix(1,0,0,1,-24,125.333)">
                    <path d="M455.193,2226.5L455.859,2261.17" style="fill:none;stroke:rgb(69,240,244);stroke-width:16.47px;"/>
                </g>
                <g transform="matrix(1,0,0,1,-24,125.333)">
                    <path d="M485.193,2279.84L455.859,2261.17" style="fill:none;stroke:rgb(69,240,244);stroke-width:16.47px;"/>
                </g>
            </g>
        </g>
        <g transform="matrix(0.378788,0,0,0.340136,1645.4,471.661)">
            <rect x="1913.01" y="1615.15" width="528" height="588" style="fill:none;"/>
        </g>
    </g>
</svg>
