<?xml version="1.0" encoding="UTF-8" standalone="no"?>
<!DOCTYPE svg PUBLIC "-//W3C//DTD SVG 1.1//EN" "http://www.w3.org/Graphics/SVG/1.1/DTD/svg11.dtd">
<svg width="100%" height="100%" viewBox="0 0 201 204" version="1.1" xmlns="http://www.w3.org/2000/svg" xmlns:xlink="http://www.w3.org/1999/xlink" xml:space="preserve" xmlns:serif="http://www.serif.com/" style="fill-rule:evenodd;clip-rule:evenodd;stroke-linecap:round;stroke-linejoin:round;stroke-miterlimit:1.5;">
    <g transform="matrix(1,0,0,1,-2090.61,-805.599)">
        <g transform="matrix(0.947368,0,0,0.947368,49.6817,45.6276)">
            <g transform="matrix(0.880989,0,0,0.880989,257.881,96.9649)">
                <g transform="matrix(1,0,0,1,920.667,-1357.67)">
                    <path d="M1352.87,2172.42L1352.87,2204.42" style="fill:rgb(252,223,53);stroke:rgb(49,50,61);stroke-width:28.52px;"/>
                </g>
                <g transform="matrix(1,0,0,1,920.667,-1356.67)">
                    <path d="M1388.87,2216.42L1403.54,2185.76" style="fill:rgb(252,223,53);stroke:rgb(49,50,61);stroke-width:28.52px;"/>
                </g>
                <g transform="matrix(1,0,0,1,920.667,-1356.67)">
                    <path d="M1414.21,2240.42L1443.54,2224.42" style="fill:rgb(252,223,53);stroke:rgb(49,50,61);stroke-width:28.52px;"/>
                </g>
                <g transform="matrix(1,0,0,1,920.667,-1356.67)">
                    <path d="M1423.54,2277.76L1458.21,2277.76" style="fill:rgb(252,223,53);stroke:rgb(49,50,61);stroke-width:28.52px;"/>
                </g>
                <g transform="matrix(1,0,0,1,920.667,-1356.67)">
                    <path d="M1416.87,2315.09L1443.54,2331.09" style="fill:rgb(252,223,53);stroke:rgb(49,50,61);stroke-width:28.52px;"/>
                </g>
                <g transform="matrix(1,0,0,1,920.667,-1356.67)">
                    <path d="M1388.87,2343.09L1408.87,2371.09" style="fill:rgb(252,223,53);stroke:rgb(49,50,61);stroke-width:28.52px;"/>
                </g>
                <g transform="matrix(1,0,0,1,920.667,-1356.67)">
                    <path d="M1352.87,2349.76L1352.87,2387.09" style="fill:rgb(252,223,53);stroke:rgb(49,50,61);stroke-width:28.52px;"/>
                </g>
                <g transform="matrix(1,0,0,1,920.667,-1356.67)">
                    <path d="M1314.21,2343.09L1298.21,2371.09" style="fill:rgb(252,223,53);stroke:rgb(49,50,61);stroke-width:28.52px;"/>
                </g>
                <g transform="matrix(1,0,0,1,920.667,-1356.67)">
                    <path d="M1294.21,2313.76L1264.87,2332.42" style="fill:rgb(252,223,53);stroke:rgb(49,50,61);stroke-width:28.52px;"/>
                </g>
                <g transform="matrix(1,0,0,1,920.667,-1356.67)">
                    <path d="M1283.54,2281.76L1246.21,2281.76" style="fill:rgb(252,223,53);stroke:rgb(49,50,61);stroke-width:28.52px;"/>
                </g>
                <g transform="matrix(1,0,0,1,920.667,-1356.67)">
                    <path d="M1290.21,2241.76L1260.87,2225.76" style="fill:rgb(252,223,53);stroke:rgb(49,50,61);stroke-width:28.52px;"/>
                </g>
                <g transform="matrix(0.933333,0,0,0.956522,1008.55,-1260.47)">
                    <path d="M1298.21,2181.76L1318.21,2212.42" style="fill:rgb(252,223,53);stroke:rgb(49,50,61);stroke-width:30.18px;"/>
                </g>
            </g>
            <g transform="matrix(0.823782,0,0,0.880989,1144.73,-1098.24)">
                <ellipse cx="1354.87" cy="2279.76" rx="51.333" ry="48.667" style="fill:rgb(252,223,53);stroke:rgb(49,50,61);stroke-width:10.38px;"/>
            </g>
            <g transform="matrix(0.880989,0,0,0.880989,257.881,96.9649)">
                <g transform="matrix(1,0,0,1,920.667,-1357.67)">
                    <path d="M1352.87,2172.42L1352.87,2204.42" style="fill:rgb(252,223,53);stroke:rgb(252,223,53);stroke-width:13.22px;"/>
                </g>
                <g transform="matrix(1,0,0,1,920.667,-1356.67)">
                    <path d="M1388.87,2216.42L1403.54,2185.76" style="fill:rgb(252,223,53);stroke:rgb(252,223,53);stroke-width:13.22px;"/>
                </g>
                <g transform="matrix(1,0,0,1,920.667,-1356.67)">
                    <path d="M1414.21,2240.42L1443.54,2224.42" style="fill:rgb(252,223,53);stroke:rgb(252,223,53);stroke-width:13.22px;"/>
                </g>
                <g transform="matrix(1,0,0,1,920.667,-1356.67)">
                    <path d="M1423.54,2277.76L1458.21,2277.76" style="fill:rgb(252,223,53);stroke:rgb(252,223,53);stroke-width:13.22px;"/>
                </g>
                <g transform="matrix(1,0,0,1,920.667,-1356.67)">
                    <path d="M1416.87,2315.09L1443.54,2331.09" style="fill:rgb(252,223,53);stroke:rgb(252,223,53);stroke-width:13.22px;"/>
                </g>
                <g transform="matrix(1,0,0,1,920.667,-1356.67)">
                    <path d="M1388.87,2343.09L1408.87,2371.09" style="fill:rgb(252,223,53);stroke:rgb(252,223,53);stroke-width:13.22px;"/>
                </g>
                <g transform="matrix(1,0,0,1,920.667,-1356.67)">
                    <path d="M1352.87,2349.76L1352.87,2387.09" style="fill:rgb(252,223,53);stroke:rgb(252,223,53);stroke-width:13.22px;"/>
                </g>
                <g transform="matrix(1,0,0,1,920.667,-1356.67)">
                    <path d="M1314.21,2343.09L1298.21,2371.09" style="fill:rgb(252,223,53);stroke:rgb(252,223,53);stroke-width:13.22px;"/>
                </g>
                <g transform="matrix(1,0,0,1,920.667,-1356.67)">
                    <path d="M1294.21,2313.76L1264.87,2332.42" style="fill:rgb(252,223,53);stroke:rgb(252,223,53);stroke-width:13.22px;"/>
                </g>
                <g transform="matrix(1,0,0,1,920.667,-1356.67)">
                    <path d="M1283.54,2281.76L1246.21,2281.76" style="fill:rgb(252,223,53);stroke:rgb(252,223,53);stroke-width:13.22px;"/>
                </g>
                <g transform="matrix(1,0,0,1,920.667,-1356.67)">
                    <path d="M1290.21,2241.76L1260.87,2225.76" style="fill:rgb(252,223,53);stroke:rgb(252,223,53);stroke-width:13.22px;"/>
                </g>
                <g transform="matrix(0.933333,0,0,0.956522,1008.55,-1260.47)">
                    <path d="M1298.21,2181.76L1318.21,2212.42" style="fill:rgb(252,223,53);stroke:rgb(252,223,53);stroke-width:13.99px;"/>
                </g>
            </g>
        </g>
        <g transform="matrix(0.378788,0,0,0.340136,1366.35,258.131)">
            <rect x="1913.01" y="1615.15" width="528" height="588" style="fill:none;"/>
        </g>
    </g>
</svg>
