<?xml version="1.0" encoding="UTF-8" standalone="no"?>
<!DOCTYPE svg PUBLIC "-//W3C//DTD SVG 1.1//EN" "http://www.w3.org/Graphics/SVG/1.1/DTD/svg11.dtd">
<svg width="100%" height="100%" viewBox="0 0 201 200" version="1.1" xmlns="http://www.w3.org/2000/svg" xmlns:xlink="http://www.w3.org/1999/xlink" xml:space="preserve" xmlns:serif="http://www.serif.com/" style="fill-rule:evenodd;clip-rule:evenodd;stroke-linecap:round;stroke-linejoin:round;stroke-miterlimit:1.5;">
    <g transform="matrix(1,0,0,1,-3103.23,-769.427)">
        <g transform="matrix(0.803571,0,0,0.803571,622.91,175.709)">
            <g transform="matrix(1.06132,0,0,1.06132,2544.39,-1845.93)">
                <path d="M564.629,2516.08C578.421,2516.76 592.212,2517.57 606.018,2517.8C618.443,2518.01 630.896,2518.23 643.296,2517.41C662.675,2516.13 667.425,2497.13 656.772,2488.55C651.014,2483.91 638.63,2482.4 633.963,2488.08C632.125,2490.31 628.972,2492.83 629.685,2495.63C632.163,2505.38 631.46,2495.18 629.685,2495.63" style="fill:none;stroke:rgb(49,50,61);stroke-width:23.75px;"/>
            </g>
            <g transform="matrix(1.06132,0,0,1.06132,2554.57,-1827.81)">
                <path d="M540.629,2534.74C569.183,2535.32 597.737,2536.01 626.296,2536.24C651.073,2536.45 675.854,2536.39 700.629,2536.08C707.361,2535.99 717.415,2531.78 721.534,2526.48C731.229,2513.99 720.307,2485.2 697.341,2490.85C694.954,2491.44 692.628,2492.36 690.485,2493.57C687.91,2495.01 679.66,2503.58 685.259,2507.93" style="fill:none;stroke:rgb(49,50,61);stroke-width:23.75px;"/>
            </g>
            <g transform="matrix(1.06132,0,0,1.06132,2560.79,-1807.2)">
                <path d="M611.296,2550.74C624.888,2550.6 638.481,2550.55 652.074,2550.58C658.177,2550.59 664.283,2550.63 670.382,2550.88C676.472,2551.13 682.579,2551.34 688.629,2552.08C690.591,2552.32 692.573,2552.84 694.301,2553.8C696.083,2554.79 697.55,2556.3 698.931,2557.79C715.737,2576.02 687.388,2592.8 672.852,2579.98C671.193,2578.52 668.537,2573.37 670.152,2570.39" style="fill:none;stroke:rgb(49,50,61);stroke-width:23.75px;"/>
            </g>
            <g transform="matrix(1.06132,0,0,1.06132,2522.08,-1846.99)">
                <path d="M544.629,2516.08C548.629,2516.08 552.629,2516.08 556.629,2516.08" style="fill:none;stroke:rgb(49,50,61);stroke-width:25.42px;"/>
            </g>
            <g transform="matrix(1.06132,0,0,1.06132,2542.79,-1807.2)">
                <path d="M576.629,2550.74C583.741,2550.74 590.852,2550.74 597.963,2550.74" style="fill:none;stroke:rgb(49,50,61);stroke-width:25.42px;"/>
            </g>
            <g transform="matrix(1.06132,0,0,1.06132,2544.39,-1845.93)">
                <path d="M564.629,2516.08C578.421,2516.76 592.212,2517.57 606.018,2517.8C618.443,2518.01 630.896,2518.23 643.296,2517.41C662.675,2516.13 667.425,2497.13 656.772,2488.55C651.014,2483.91 638.63,2482.4 633.963,2488.08C632.125,2490.31 628.972,2492.83 629.685,2495.63C632.163,2505.38 631.46,2495.18 629.685,2495.63" style="fill:none;stroke:rgb(115,113,132);stroke-width:10.25px;"/>
            </g>
            <g transform="matrix(1.06132,0,0,1.06132,2554.57,-1827.81)">
                <path d="M540.629,2534.74C569.183,2535.32 597.737,2536.01 626.296,2536.24C651.073,2536.45 675.854,2536.39 700.629,2536.08C707.361,2535.99 717.415,2531.78 721.534,2526.48C731.229,2513.99 720.307,2485.2 697.341,2490.85C694.954,2491.44 692.628,2492.36 690.485,2493.57C687.91,2495.01 679.66,2503.58 685.259,2507.93" style="fill:none;stroke:rgb(115,113,132);stroke-width:10.25px;"/>
            </g>
            <g transform="matrix(1.06132,0,0,1.06132,2560.79,-1807.2)">
                <path d="M611.296,2550.74C624.888,2550.6 638.481,2550.55 652.074,2550.58C658.177,2550.59 664.283,2550.63 670.382,2550.88C676.472,2551.13 682.579,2551.34 688.629,2552.08C690.591,2552.32 692.573,2552.84 694.301,2553.8C696.083,2554.79 697.55,2556.3 698.931,2557.79C715.737,2576.02 687.388,2592.8 672.852,2579.98C671.193,2578.52 668.537,2573.37 670.152,2570.39" style="fill:none;stroke:rgb(115,113,132);stroke-width:10.25px;"/>
            </g>
            <g transform="matrix(1.06132,0,0,1.06132,2522.08,-1846.99)">
                <path d="M544.629,2516.08C548.629,2516.08 552.629,2516.08 556.629,2516.08" style="fill:none;stroke:rgb(115,113,132);stroke-width:11.08px;"/>
            </g>
            <g transform="matrix(1.06132,0,0,1.06132,2542.79,-1807.2)">
                <path d="M576.629,2550.74C583.741,2550.74 590.852,2550.74 597.963,2550.74" style="fill:none;stroke:rgb(115,113,132);stroke-width:11.08px;"/>
            </g>
        </g>
        <g transform="matrix(0.378788,0,0,0.340136,2379.44,220.056)">
            <rect x="1913.01" y="1615.15" width="528" height="588" style="fill:none;"/>
        </g>
    </g>
</svg>
