<?xml version="1.0" encoding="UTF-8" standalone="no"?>
<!DOCTYPE svg PUBLIC "-//W3C//DTD SVG 1.1//EN" "http://www.w3.org/Graphics/SVG/1.1/DTD/svg11.dtd">
<svg width="100%" height="100%" viewBox="0 0 232 232" version="1.1" xmlns="http://www.w3.org/2000/svg" xmlns:xlink="http://www.w3.org/1999/xlink" xml:space="preserve" xmlns:serif="http://www.serif.com/" style="fill-rule:evenodd;clip-rule:evenodd;stroke-linecap:round;stroke-linejoin:round;stroke-miterlimit:1.5;">
    <g transform="matrix(1,0,0,1,-331.84,-837.747)">
        <g transform="matrix(1.00746,0,0,1.05469,-138.505,642.703)">
            <ellipse cx="582.001" cy="294.917" rx="111.667" ry="106.667" style="fill:rgb(247,235,218);stroke:rgb(196,126,51);stroke-width:6.79px;"/>
        </g>
        <g transform="matrix(1,0,0,1,55.6717,823.664)">
            <g transform="matrix(0.797938,-0.296492,0.307275,0.855171,74.3049,55.7559)">
                <path d="M342.462,170.15C327.402,173.616 313.339,174.005 300.962,170.15L300.962,193.15C314.386,189.064 328.193,188.8 342.462,193.15L342.462,170.15Z" style="fill:rgb(208,152,92);stroke:rgb(79,69,54);stroke-width:7.99px;"/>
            </g>
            <g transform="matrix(0.797938,-0.296492,0.307275,0.855171,108.67,42.7631)">
                <path d="M342.462,170.15C327.402,173.616 313.339,174.005 300.962,170.15L300.962,193.15C314.386,189.064 328.193,188.8 342.462,193.15L342.462,170.15Z" style="fill:rgb(208,152,92);stroke:rgb(79,69,54);stroke-width:7.99px;"/>
            </g>
            <g transform="matrix(0.797938,-0.296492,0.307275,0.855171,143.019,30.1699)">
                <path d="M342.462,170.15C327.402,173.616 313.339,174.005 300.962,170.15L300.962,193.15C314.386,189.064 328.193,188.8 342.462,193.15L342.462,170.15Z" style="fill:rgb(208,152,92);stroke:rgb(79,69,54);stroke-width:7.99px;"/>
            </g>
            <g transform="matrix(0.80413,-0.279261,0.288811,0.861582,8.02577,72.8766)">
                <path d="M342.462,170.15C327.402,173.616 313.339,174.005 300.962,170.15L300.962,193.15C314.386,189.064 328.193,188.8 342.462,193.15L342.462,170.15Z" style="fill:rgb(208,152,92);stroke:rgb(79,69,54);stroke-width:7.99px;"/>
            </g>
            <g transform="matrix(0.80413,-0.279261,0.288811,0.861582,41.7422,61.058)">
                <path d="M342.462,170.15C327.402,173.616 313.339,174.005 300.962,170.15L300.962,193.15C314.386,189.064 328.193,188.8 342.462,193.15L342.462,170.15Z" style="fill:rgb(208,152,92);stroke:rgb(79,69,54);stroke-width:7.99px;"/>
            </g>
        </g>
        <g transform="matrix(1,0,0,1,51.6717,837.664)">
            <g transform="matrix(1,0,0,1,-36.6667,0.666667)">
                <g transform="matrix(1.20354,-0.110631,0.127954,1.0406,-64.4321,36.2765)">
                    <path d="M354.405,164.456C370.679,160.054 386.953,155.652 403.227,151.25" style="fill:none;stroke:rgb(79,69,54);stroke-width:2.61px;"/>
                </g>
                <g transform="matrix(0.443302,0.973742,-2.40694,0.819157,636.399,-311.265)">
                    <path d="M349.837,164.775L356.337,175.025L352.938,174.164L351.431,175.025L349.931,174.17L348.303,175.025L347.179,174.003L343.337,175.025L349.837,164.775Z" style="fill:rgb(37,125,42);stroke:rgb(79,69,54);stroke-width:1.6px;"/>
                </g>
            </g>
            <g transform="matrix(0.443302,0.973742,-2.40694,0.819157,599.733,-310.599)">
                <g>
                    <path d="M349.837,164.775L356.337,175.025L352.938,174.164L351.431,175.025L349.931,174.17L348.303,175.025L347.179,174.003L343.337,175.025L349.837,164.775Z" style="fill:rgb(196,126,51);stroke:rgb(79,69,54);stroke-width:1.6px;"/>
                </g>
            </g>
        </g>
        <g transform="matrix(1,0,0,1,108.338,840.331)">
            <g transform="matrix(1,0,0,1,-36.6667,0.666667)">
                <g transform="matrix(1.20354,-0.110631,0.127954,1.0406,-64.4321,36.2765)">
                    <path d="M354.405,164.456C370.679,160.054 386.953,155.652 403.227,151.25" style="fill:none;stroke:rgb(79,69,54);stroke-width:2.61px;"/>
                </g>
                <g transform="matrix(0.443302,0.973742,-2.40694,0.819157,636.399,-311.265)">
                    <path d="M349.837,164.775L356.337,175.025L352.938,174.164L351.431,175.025L349.931,174.17L348.303,175.025L347.179,174.003L343.337,175.025L349.837,164.775Z" style="fill:rgb(37,125,42);stroke:rgb(79,69,54);stroke-width:1.6px;"/>
                </g>
            </g>
            <g transform="matrix(0.443302,0.973742,-2.40694,0.819157,599.733,-310.599)">
                <g>
                    <path d="M349.837,164.775L356.337,175.025L352.938,174.164L351.431,175.025L349.931,174.17L348.303,175.025L347.179,174.003L343.337,175.025L349.837,164.775Z" style="fill:rgb(196,126,51);stroke:rgb(79,69,54);stroke-width:1.6px;"/>
                </g>
            </g>
        </g>
        <g transform="matrix(1,0,0,1,128.338,798.331)">
            <g transform="matrix(1,0,0,1,-36.6667,0.666667)">
                <g transform="matrix(1.20354,-0.110631,0.127954,1.0406,-64.4321,36.2765)">
                    <path d="M354.405,164.456C370.679,160.054 386.953,155.652 403.227,151.25" style="fill:none;stroke:rgb(79,69,54);stroke-width:2.61px;"/>
                </g>
                <g transform="matrix(0.443302,0.973742,-2.40694,0.819157,636.399,-311.265)">
                    <path d="M349.837,164.775L356.337,175.025L352.938,174.164L351.431,175.025L349.931,174.17L348.303,175.025L347.179,174.003L343.337,175.025L349.837,164.775Z" style="fill:rgb(37,125,42);stroke:rgb(79,69,54);stroke-width:1.6px;"/>
                </g>
            </g>
            <g transform="matrix(0.443302,0.973742,-2.40694,0.819157,599.733,-310.599)">
                <g>
                    <path d="M349.837,164.775L356.337,175.025L352.938,174.164L351.431,175.025L349.931,174.17L348.303,175.025L347.179,174.003L343.337,175.025L349.837,164.775Z" style="fill:rgb(196,126,51);stroke:rgb(79,69,54);stroke-width:1.6px;"/>
                </g>
            </g>
        </g>
    </g>
</svg>
