<?xml version="1.0" encoding="UTF-8" standalone="no"?>
<!DOCTYPE svg PUBLIC "-//W3C//DTD SVG 1.1//EN" "http://www.w3.org/Graphics/SVG/1.1/DTD/svg11.dtd">
<svg width="100%" height="100%" viewBox="0 0 232 232" version="1.1" xmlns="http://www.w3.org/2000/svg" xmlns:xlink="http://www.w3.org/1999/xlink" xml:space="preserve" xmlns:serif="http://www.serif.com/" style="fill-rule:evenodd;clip-rule:evenodd;stroke-linecap:round;stroke-linejoin:round;stroke-miterlimit:1.5;">
    <g transform="matrix(1,0,0,1,-82.9423,-2677.61)">
        <g transform="matrix(1.00746,5.55112e-17,0,1.05469,-387.402,2482.56)">
            <ellipse cx="582.001" cy="294.917" rx="111.667" ry="106.667" style="fill:url(#_Linear1);stroke:rgb(255,239,133);stroke-width:6.79px;"/>
        </g>
        <g transform="matrix(0.917361,-0.0137885,0.0188896,1.25674,-321.909,2459.64)">
            <path d="M587.597,203.583C587.597,201.284 585.039,199.417 581.889,199.417L541.305,199.417C538.155,199.417 535.597,201.284 535.597,203.583C535.597,205.883 538.155,207.75 541.305,207.75L581.889,207.75C585.039,207.75 587.597,205.883 587.597,203.583Z" style="fill:white;stroke:rgb(49,50,61);stroke-width:6.36px;"/>
        </g>
        <g transform="matrix(1,0,0,1,-158.757,2492.28)">
            <path d="M334.732,220.625L376.857,219.875C381.634,221.054 380.18,226.338 375.815,232.208C375.815,232.208 390.832,261.65 391.482,278.125C391.718,284.111 391.01,387.014 391.01,387.014C391.253,390.41 388.854,393.148 384.732,393.625L333.482,394.625C328.642,394.298 324.879,392.771 324.732,387.625C324.732,387.625 322.565,281.042 322.482,278.375C321.973,262.097 338.065,232.708 338.065,232.708C333.274,226.548 330.587,222.225 334.732,220.625Z" style="fill:white;stroke:rgb(49,50,61);stroke-width:7px;"/>
        </g>
        <g transform="matrix(1,0,0,1,-158.757,2492.28)">
            <path d="M328.74,252.814C333.112,247.664 381.438,246.218 384.018,251.52C388.512,260.758 389.59,270.762 390.732,277.125C391.79,283.022 391.01,387.014 391.01,387.014C391.253,390.41 388.854,393.148 384.732,393.625L333.482,394.625C328.642,394.298 324.879,392.771 324.732,387.625C324.732,387.625 322.565,281.042 322.482,278.375C322.324,273.307 323.742,266.664 325.927,260.432C326.852,257.795 326.955,254.917 328.74,252.814Z" style="fill:url(#_Linear2);stroke:rgb(49,50,61);stroke-width:5px;"/>
        </g>
        <g transform="matrix(0.641418,0,0,0.641418,-104.294,2738.44)">
            <g id="dp_path009" transform="matrix(0.370134,0,0,0.370134,-7.68591,-1493.95)">
                <path d="M1363.11,4292.18C1369.89,4289.52 1379.37,4288.08 1384.35,4281.83C1387,4278.5 1385.4,4277.55 1386.25,4273.78C1388.44,4264.01 1394.05,4256.36 1403.82,4253.24C1414.97,4249.68 1416,4268.07 1414.02,4274.37C1413.74,4275.26 1409.29,4279.31 1411.17,4280.99C1415.41,4284.77 1416.6,4283.58 1421.39,4286.3C1427.01,4289.48 1434.5,4297.25 1432.17,4304.5C1431.1,4307.84 1427.65,4310.32 1424.3,4310.83C1417.11,4311.93 1407.95,4311.92 1401.41,4307.88C1399.71,4306.83 1398.15,4303.17 1395.45,4304.01C1389.47,4305.88 1390.09,4306.88 1384.38,4309.66C1379.55,4312.01 1374.42,4313.73 1369.68,4316.26C1367.17,4317.6 1364.83,4321.98 1361.31,4321.45C1359.39,4320.9 1359.99,4316.91 1360.11,4315.93C1361.05,4308.01 1361.83,4300.06 1363.11,4292.18" style="fill:white;stroke:rgb(49,50,61);stroke-width:15.64px;stroke-linecap:butt;stroke-linejoin:miter;stroke-miterlimit:4;"/>
            </g>
            <g id="dp_path010" transform="matrix(0.367889,-0.0407078,0.0407078,0.367889,-183.914,-1426.08)">
                <path d="M1384.76,4391.02C1382.08,4386.73 1379.87,4383.62 1378.77,4378.57C1378.19,4375.93 1379.74,4370.69 1376.83,4368.6C1367.89,4362.16 1355.17,4361.17 1348.53,4351.57C1344.61,4345.9 1349.43,4336.19 1351.22,4331.23C1351.65,4330.03 1352.25,4328.49 1353.81,4328.28C1368.07,4326.39 1373.59,4345.83 1387.51,4345.35C1389.74,4345.27 1390.62,4343.52 1392.55,4342.84C1400.2,4340.13 1406.4,4338.2 1414.66,4339.22C1419.12,4339.77 1424.08,4342.78 1424.37,4347.7C1424.8,4354.82 1420.01,4362.02 1413.02,4363.96C1410.42,4364.68 1403.67,4363.4 1402.09,4367.09C1400.8,4370.1 1405.37,4373.86 1405.92,4376.21C1407.22,4381.76 1405.08,4395.14 1398.31,4396.75C1393.45,4397.91 1384.76,4391.02 1384.76,4391.02Z" style="fill:white;stroke:rgb(49,50,61);stroke-width:15.64px;stroke-linecap:butt;stroke-linejoin:miter;stroke-miterlimit:4;"/>
            </g>
            <g id="dp_path011" transform="matrix(0.369897,0.0132449,-0.0132449,0.369897,51.463,-1508.22)">
                <path d="M1234.91,4333.75C1230.76,4336.08 1226.59,4338.39 1222.59,4340.97C1216.66,4344.8 1214.74,4348.05 1207.84,4350.35C1205.34,4351.18 1203.87,4348.88 1201.77,4348.44C1191.57,4346.28 1181.45,4343.98 1172,4349.51C1167.87,4351.92 1166.92,4357.88 1169.41,4361.71C1172.82,4366.95 1175.84,4370.46 1181.6,4373.2C1185.65,4375.13 1186.28,4372.46 1190.23,4374.83C1193.21,4376.62 1189.11,4383.6 1188.97,4385.13C1188.22,4393.24 1193.9,4401.31 1201.64,4403.51C1205.87,4404.71 1209.99,4399.95 1211.71,4397.02C1214.54,4392.22 1217.97,4382.71 1219.07,4377.34C1219.41,4375.7 1217.43,4374.72 1218.4,4372.98C1221.71,4367.05 1230.58,4364.67 1235.97,4362.15C1237.37,4361.5 1241.85,4359.3 1242.47,4357.55C1245.67,4348.53 1235.77,4342.1 1234.91,4333.75" style="fill:white;stroke:rgb(49,50,61);stroke-width:15.64px;stroke-linecap:butt;stroke-linejoin:miter;stroke-miterlimit:4;"/>
            </g>
            <g id="dp_path012" transform="matrix(0.368071,-0.0390299,0.0390299,0.368071,-172.253,-1436.17)">
                <path d="M1230.55,4287.96C1223.25,4286.37 1214.75,4286.48 1208.82,4281.08C1206.05,4278.56 1208.82,4273.51 1208.44,4270.76C1207.23,4261.93 1198.5,4254.8 1190.12,4253.27C1181.61,4251.72 1176.33,4260.42 1177.69,4267.92C1178.73,4273.6 1182.8,4277.37 1182.4,4283.52C1182.23,4286.24 1176.76,4285.71 1175.57,4286.24C1168.49,4289.38 1156.38,4300.8 1163.7,4309.11C1169.03,4315.17 1178.26,4316.96 1185.52,4313.35C1190.48,4310.88 1197.14,4303.73 1203.8,4305.84C1210.33,4307.91 1216.78,4310.35 1222.88,4313.45C1224.83,4314.44 1225.93,4316.6 1227.64,4317.95C1228.31,4318.48 1229.19,4319.41 1229.95,4319.03C1231.91,4317.73 1230.79,4293.35 1230.55,4287.96" style="fill:white;stroke:rgb(49,50,61);stroke-width:15.64px;stroke-linecap:butt;stroke-linejoin:miter;stroke-miterlimit:4;"/>
            </g>
            <g id="dp_path005" transform="matrix(0.370134,0,0,0.370134,-7.43591,-1493.2)">
                <path d="M1268.01,4251.5C1276.44,4249.67 1290.13,4246.76 1298.89,4247.25C1307.12,4247.71 1316.3,4253.58 1324.75,4249.91C1342.28,4242.31 1354.35,4226.52 1371.73,4218.68C1380.39,4214.78 1388.34,4221.45 1386.8,4230.61C1385.21,4240.06 1381.64,4247.94 1377.26,4256.35C1376.07,4258.62 1375.07,4261.15 1373.17,4262.86C1372.04,4263.88 1369.41,4262.63 1368.76,4264C1368.2,4265.81 1370.97,4267.56 1370.53,4269.41C1369.18,4275.11 1361.85,4278.61 1362.95,4285.29C1363.74,4290.08 1366.72,4293.57 1367.82,4298.25C1371.08,4312.11 1369.78,4328.18 1360.8,4339.76C1350.31,4353.29 1333.18,4361.06 1319.18,4369.76C1311.43,4374.58 1303.77,4381.48 1293.91,4380.69C1280.26,4379.6 1266.95,4367.45 1256.36,4361.21C1253.8,4359.7 1250.77,4359.11 1248.26,4357.53C1238.04,4351.15 1232.43,4338.48 1228.92,4327.46C1226.32,4319.29 1224.58,4309.44 1225.9,4300.83C1226.61,4296.24 1229.03,4292.07 1230.05,4287.55C1231.32,4281.94 1225.28,4277.6 1223.98,4272.86C1223.35,4270.54 1226.33,4265.87 1224.91,4263.48C1223.72,4261.48 1220.71,4261.11 1219.38,4259.19C1212.04,4248.63 1206.47,4236.27 1205.71,4223.29C1205.36,4217.66 1211.85,4213.87 1216.68,4216.57C1234.83,4226.71 1268.01,4251.5 1268.01,4251.5Z" style="fill:white;stroke:rgb(49,50,61);stroke-width:15.64px;stroke-linecap:butt;stroke-linejoin:miter;stroke-miterlimit:4;"/>
            </g>
            <g id="dp_path006" transform="matrix(0.370134,0,0,0.370134,-7.43591,-1494.65)">
                <path d="M1317.51,4307C1317.3,4306.16 1316.88,4304.48 1317.51,4303.5C1318.64,4301.75 1321.97,4298.33 1324.26,4296.5C1326.36,4294.82 1328.76,4293.46 1331.26,4292.5C1333.76,4291.54 1337.26,4290.21 1339.26,4290.75C1341.26,4291.29 1342.39,4293.8 1343.26,4295.75C1344.14,4297.71 1344.89,4300.24 1344.51,4302.5C1344.09,4304.96 1342.64,4308.46 1340.76,4310.5C1338.89,4312.54 1335.8,4313.92 1333.26,4314.75C1330.79,4315.56 1327.84,4316.65 1325.51,4315.5C1322.89,4314.21 1319.3,4309.4 1317.51,4307Z" style="fill:rgb(49,50,61);stroke:rgb(49,50,61);stroke-width:5.4px;stroke-linecap:butt;stroke-linejoin:miter;stroke-miterlimit:4;"/>
            </g>
            <g id="dp_path007" transform="matrix(0.370134,0,0,0.370134,-7.43591,-1494.65)">
                <path d="M1276.76,4309.75C1277.39,4308.22 1278.64,4305.17 1278.01,4303.25C1277.39,4301.33 1274.84,4299.73 1273.01,4298.25C1270.59,4296.29 1266.55,4292.63 1263.51,4291.5C1260.78,4290.49 1256.68,4290.37 1254.76,4291.5C1252.84,4292.63 1252.49,4295.87 1252.01,4298.25C1251.47,4300.96 1250.59,4305.04 1251.51,4307.75C1252.43,4310.46 1254.82,4313.15 1257.51,4314.5C1260.35,4315.92 1265.3,4317.04 1268.51,4316.25C1271.72,4315.46 1275.08,4311.65 1276.76,4309.75Z" style="fill:rgb(49,50,61);stroke:rgb(49,50,61);stroke-width:5.4px;stroke-linecap:butt;stroke-linejoin:miter;stroke-miterlimit:4;"/>
            </g>
            <g id="dp_path008" transform="matrix(0.370134,0,0,0.370134,-7.43591,-1494.65)">
                <path d="M1285.51,4342.75C1289.94,4342.6 1294.37,4342.47 1298.79,4342.39C1300.98,4342.36 1303.16,4342.46 1305.35,4342.42C1307.52,4342.38 1307.52,4341.96 1309.64,4342.46C1309.99,4342.54 1310.38,4343.03 1310.26,4343.41C1309.79,4344.97 1308.93,4347.15 1307.03,4347.45C1305.52,4347.7 1303.8,4346.91 1303.1,4348.76C1301.73,4352.39 1302.19,4352.54 1300.28,4355.94C1299.95,4356.52 1298.84,4358.38 1297.76,4358C1294.95,4357.02 1293.29,4354.23 1292.01,4351.75C1291.6,4350.96 1293.81,4350.14 1293.01,4349.5C1289.46,4346.64 1289.11,4347.26 1285.41,4344.6C1284.23,4343.74 1284.04,4342.87 1285.51,4342.75" style="fill:rgb(49,50,61);stroke:rgb(49,50,61);stroke-width:5.4px;stroke-linecap:butt;stroke-linejoin:miter;stroke-miterlimit:4;"/>
            </g>
        </g>
    </g>
    <defs>
        <linearGradient id="_Linear1" x1="0" y1="0" x2="1" y2="0" gradientUnits="userSpaceOnUse" gradientTransform="matrix(72.7901,117.57,-123.081,69.5309,515.799,242.403)"><stop offset="0" style="stop-color:rgb(241,233,5);stop-opacity:1"/><stop offset="0.38" style="stop-color:rgb(255,244,169);stop-opacity:1"/><stop offset="0.71" style="stop-color:rgb(252,242,132);stop-opacity:1"/><stop offset="1" style="stop-color:rgb(241,233,5);stop-opacity:1"/></linearGradient>
        <linearGradient id="_Linear2" x1="0" y1="0" x2="1" y2="0" gradientUnits="userSpaceOnUse" gradientTransform="matrix(-33.3333,152,-152,-33.3333,362.781,270.302)"><stop offset="0" style="stop-color:rgb(69,225,146);stop-opacity:1"/><stop offset="1" style="stop-color:rgb(62,202,131);stop-opacity:1"/></linearGradient>
    </defs>
</svg>
