<?xml version="1.0" encoding="UTF-8" standalone="no"?>
<!DOCTYPE svg PUBLIC "-//W3C//DTD SVG 1.1//EN" "http://www.w3.org/Graphics/SVG/1.1/DTD/svg11.dtd">
<svg width="100%" height="100%" viewBox="0 0 232 232" version="1.1" xmlns="http://www.w3.org/2000/svg" xmlns:xlink="http://www.w3.org/1999/xlink" xml:space="preserve" xmlns:serif="http://www.serif.com/" style="fill-rule:evenodd;clip-rule:evenodd;stroke-linecap:round;stroke-linejoin:round;stroke-miterlimit:1.5;">
    <g transform="matrix(1,0,0,1,-330.151,-3221.94)">
        <g transform="matrix(1.00746,0,0,1.05469,-140.193,3026.9)">
            <ellipse cx="582.001" cy="294.917" rx="111.667" ry="106.667" style="fill:url(#_Linear1);stroke:rgb(99,5,111);stroke-width:6.79px;"/>
        </g>
        <g transform="matrix(1,0,0,1,56.7744,2964.91)">
            <path d="M391.812,280.735C382.09,280.624 365.556,294.062 363.146,306.735C359.479,326.013 369.812,396.402 369.812,396.402C354.507,400.6 350.907,405.629 367.146,412.069C367.146,412.069 373.504,440.438 368.146,445.402C365.799,447.576 354.491,449.096 357.146,454.735C363.599,468.444 403.836,470.764 409.479,454.735C411.544,448.871 401.573,447.297 400.479,446.402C395.055,441.967 401.479,414.069 401.479,414.069C417.128,410.473 414.435,401.504 402.146,397.069C402.146,397.069 423.201,326.791 421.479,307.402C420.303,294.157 401.535,280.846 391.812,280.735Z" style="fill:rgb(133,130,138);stroke:rgb(49,50,61);stroke-width:7px;"/>
            <path d="M370.771,447.777C377.103,449.452 390.664,449.591 397.271,448.277C401.368,447.462 409.631,451.627 407.771,455.527C401.342,469.004 365.751,466.507 359.521,455.027C357.492,451.289 366.659,446.689 370.771,447.777Z" style="fill:url(#_Linear2);stroke:rgb(49,50,61);stroke-width:4px;"/>
            <g transform="matrix(1,0,0,1,-0.2,2)">
                <path d="M391.521,288.027C384.862,301.51 377.217,377.477 383.771,394.527C385.347,398.626 399.29,398.823 400.271,395.777C405.191,380.497 417.479,325.235 416.021,307.277C415.18,296.925 395.267,280.441 391.521,288.027Z" style="fill:rgb(177,177,190);"/>
            </g>
            <path d="M368.021,411.277C373.013,411.833 395.178,412.894 401.271,412.527C414.382,411.738 414.657,400.438 401.771,398.527C395.866,397.652 375.287,396.958 369.271,397.527C353.463,399.022 352.965,409.601 368.021,411.277Z" style="fill:url(#_Linear3);stroke:rgb(49,50,61);stroke-width:4px;"/>
            <g transform="matrix(1,0,0,1,0,1)">
                <path d="M369.346,412.202C367.085,412.31 368.726,418.358 370.946,418.802C373.584,419.33 390.347,419.898 397.946,419.802C400.475,419.77 402.912,411.992 400.346,412.602C395.697,413.707 374.246,411.969 369.346,412.202Z" style="fill:rgb(201,32,40);stroke:rgb(49,50,61);stroke-width:3px;"/>
            </g>
            <g transform="matrix(0.843255,0,0,1,59.9233,8)">
                <path d="M369.346,412.202C367.085,412.31 368.726,418.358 370.946,418.802C373.584,419.33 390.347,419.898 397.946,419.802C400.475,419.77 402.912,411.992 400.346,412.602C395.697,413.707 374.246,411.969 369.346,412.202Z" style="fill:rgb(119,191,229);stroke:rgb(49,50,61);stroke-width:3.24px;"/>
            </g>
            <g transform="matrix(0.77694,0,0,1,85.3446,15.8)">
                <path d="M369.346,412.202C367.085,412.31 368.726,418.358 370.946,418.802C373.584,419.33 390.347,419.898 397.946,419.802C400.475,419.77 402.912,411.992 400.346,412.602C395.697,413.707 374.246,411.969 369.346,412.202Z" style="fill:rgb(201,32,40);stroke:rgb(49,50,61);stroke-width:3.35px;"/>
            </g>
            <g transform="matrix(0.752825,0,0,1,94.4251,22.8)">
                <path d="M369.346,412.202C367.085,412.31 368.726,418.358 370.946,418.802C373.584,419.33 390.347,419.898 397.946,419.802C400.475,419.77 402.912,411.992 400.346,412.602C395.697,413.707 374.246,411.969 369.346,412.202Z" style="fill:rgb(119,191,229);stroke:rgb(49,50,61);stroke-width:3.39px;"/>
            </g>
            <g transform="matrix(0.655864,0,0,1,131.855,29.4)">
                <path d="M369.346,412.202C367.085,412.31 365.077,416.633 366.88,418.002C369.769,420.196 394.059,420.854 401.334,418.602C403.751,417.854 402.912,411.992 400.346,412.602C395.697,413.707 374.246,411.969 369.346,412.202Z" style="fill:rgb(201,32,40);stroke:rgb(49,50,61);stroke-width:3.55px;"/>
            </g>
        </g>
    </g>
    <defs>
        <linearGradient id="_Linear1" x1="0" y1="0" x2="1" y2="0" gradientUnits="userSpaceOnUse" gradientTransform="matrix(149.551,147.121,-154.017,142.854,510.165,221.814)"><stop offset="0" style="stop-color:rgb(234,92,92);stop-opacity:1"/><stop offset="0.12" style="stop-color:rgb(242,136,27);stop-opacity:1"/><stop offset="0.36" style="stop-color:rgb(237,210,28);stop-opacity:1"/><stop offset="0.49" style="stop-color:rgb(16,188,16);stop-opacity:1"/><stop offset="0.67" style="stop-color:rgb(24,191,221);stop-opacity:1"/><stop offset="0.84" style="stop-color:rgb(59,78,222);stop-opacity:1"/><stop offset="1" style="stop-color:rgb(99,5,111);stop-opacity:1"/></linearGradient>
        <linearGradient id="_Linear2" x1="0" y1="0" x2="1" y2="0" gradientUnits="userSpaceOnUse" gradientTransform="matrix(6.73556e-16,11,-11,6.73556e-16,384.396,455.052)"><stop offset="0" style="stop-color:rgb(119,191,229);stop-opacity:1"/><stop offset="1" style="stop-color:rgb(36,138,191);stop-opacity:1"/></linearGradient>
        <linearGradient id="_Linear3" x1="0" y1="0" x2="1" y2="0" gradientUnits="userSpaceOnUse" gradientTransform="matrix(-1.5,14.5,-14.5,-1.5,386.896,403.552)"><stop offset="0" style="stop-color:rgb(119,191,229);stop-opacity:1"/><stop offset="1" style="stop-color:rgb(36,138,191);stop-opacity:1"/></linearGradient>
    </defs>
</svg>
