<?xml version="1.0" encoding="UTF-8" standalone="no"?>
<!DOCTYPE svg PUBLIC "-//W3C//DTD SVG 1.1//EN" "http://www.w3.org/Graphics/SVG/1.1/DTD/svg11.dtd">
<svg width="100%" height="100%" viewBox="0 0 232 232" version="1.1" xmlns="http://www.w3.org/2000/svg" xmlns:xlink="http://www.w3.org/1999/xlink" xml:space="preserve" xmlns:serif="http://www.serif.com/" style="fill-rule:evenodd;clip-rule:evenodd;stroke-linecap:round;stroke-linejoin:round;stroke-miterlimit:1.5;">
    <g transform="matrix(1,0,0,1,-831.609,-1890.66)">
        <g transform="matrix(1.00746,-6.245e-17,0,1.05469,361.264,1695.62)">
            <ellipse cx="582.001" cy="294.917" rx="111.667" ry="106.667" style="fill:url(#_Linear1);stroke:rgb(177,177,190);stroke-width:6.79px;"/>
        </g>
        <g transform="matrix(0.300146,0.0174679,-0.0174679,0.300146,837.035,1352.39)">
            <g transform="matrix(1.06927,-0.0273489,0.0301794,1.19789,-138.972,-375.988)">
                <path d="M507.312,1921.56C597.648,1901.22 722.049,1990.13 737.536,2122.55C749.485,2224.71 637.8,2302.1 528.87,2315.21C413.914,2329.05 323.789,2234.7 313.017,2122.55C302.524,2013.29 389.139,1948.17 507.312,1921.56Z" style="fill:url(#_Linear2);stroke:rgb(49,50,61);stroke-width:20.5px;"/>
            </g>
            <g transform="matrix(-0.13638,-0.885504,-0.876869,0.143556,2354.4,2219.02)">
                <path d="M388.744,1817.3C417.761,1855.68 475.793,1932.45 493.203,1986C508.93,2034.37 498.445,2103.86 493.203,2138.6" style="fill:none;stroke:rgb(49,50,61);stroke-width:14.98px;"/>
            </g>
            <g transform="matrix(-0.150351,-0.976217,-0.876869,0.143556,2365.24,2228.89)">
                <path d="M411.203,1830.2C433.981,1865.48 479.536,1936.03 493.203,1986C499.305,2008.31 499.848,2029.66 498.983,2054.96C498.053,2082.17 495.39,2113.12 493.203,2130" style="fill:none;stroke:rgb(49,50,61);stroke-width:14.23px;"/>
            </g>
            <g transform="matrix(0.150351,0.976217,-0.955787,0.156476,2383.56,1309.71)">
                <path d="M471.203,1844C411.318,1907.35 374.798,1981.93 386.194,2087.84" style="fill:none;stroke:rgb(49,50,61);stroke-width:13.54px;"/>
            </g>
            <g transform="matrix(0.145225,0.942933,-0.93758,0.153495,2374.3,1294.39)">
                <path d="M448.957,1896.81C397.002,1961.2 374.533,1983.89 385.928,2089.8" style="fill:none;stroke:rgb(49,50,61);stroke-width:13.91px;"/>
            </g>
            <g transform="matrix(0.583789,-0.778639,0.498249,0.488357,-755.818,1485.89)">
                <path d="M435.035,1974.17C458.662,1984.69 499.954,2045.96 496.339,2099.7" style="fill:none;stroke:rgb(49,50,61);stroke-width:16.79px;"/>
            </g>
            <g transform="matrix(-0.956219,-0.00804579,0.0678382,-0.624786,813.816,3405.37)">
                <path d="M426.116,1954.78C475.814,1979.55 508.744,2072.22 493.203,2130" style="fill:none;stroke:rgb(49,50,61);stroke-width:17.25px;"/>
            </g>
            <g transform="matrix(0.956219,0.00804579,0.0739436,-0.681017,-80.7143,3493.49)">
                <path d="M464.368,1894.62C404.483,1957.97 378.259,1986.99 391.036,2078.4" style="fill:none;stroke:rgb(49,50,61);stroke-width:15.29px;"/>
            </g>
            <g transform="matrix(0.956219,0.00804579,0.0739436,-0.681017,-111.713,3515.56)">
                <path d="M456.355,1893.81C404.401,1958.2 372.979,1989.64 384.375,2095.55" style="fill:none;stroke:rgb(49,50,61);stroke-width:15.29px;"/>
            </g>
            <g transform="matrix(0.568207,0.713566,0.716639,-0.475981,-1270.63,2848.73)">
                <path d="M485.82,1965.19C490.649,2003.53 500.306,2080.2 493.203,2130C486.472,2177.19 457.626,2235.06 443.203,2264" style="fill:none;stroke:rgb(49,50,61);stroke-width:14.4px;"/>
            </g>
            <g transform="matrix(0.626415,0.786665,0.716639,-0.475981,-1277.69,2841.31)">
                <path d="M486.949,1956.91C491.472,1996.81 500.52,2076.6 493.203,2130C486.162,2181.39 457.42,2245.34 443.049,2277.32" style="fill:none;stroke:rgb(49,50,61);stroke-width:13.65px;"/>
            </g>
            <g transform="matrix(-0.665022,-0.835148,0.739525,-0.491181,-733.293,3610.48)">
                <path d="M403.624,1945.87C369.455,2028.61 377.887,2148.17 442.65,2288.11" style="fill:none;stroke:rgb(49,50,61);stroke-width:14.16px;"/>
            </g>
            <g transform="matrix(-0.622778,-0.782097,0.726088,-0.482257,-679.772,3603.99)">
                <path d="M421.188,1919.36C380.311,2012.29 387.043,2138.97 459.784,2296.15" style="fill:none;stroke:rgb(49,50,61);stroke-width:14.83px;"/>
            </g>
            <g transform="matrix(-0.495262,-0.621961,0.683005,-0.453641,-621.827,3516.6)">
                <path d="M421.188,1919.36C380.311,2012.29 387.043,2138.97 459.784,2296.15" style="fill:none;stroke:rgb(49,50,61);stroke-width:17.23px;"/>
            </g>
            <g transform="matrix(-0.911746,0.0167856,-0.12034,0.918803,1106.92,228.769)">
                <path d="M403.183,1838.64C428.359,1870.49 478.709,1934.2 493.203,1986C507.697,2037.79 504.85,2096.95 490.149,2149.41C474.156,2206.48 422.88,2287.79 397.242,2328.45" style="fill:none;stroke:rgb(49,50,61);stroke-width:13.51px;"/>
            </g>
            <g transform="matrix(-1.00515,0.0185051,-0.12034,0.918803,1117.17,227.615)">
                <path d="M414.154,1836.56C436.112,1870.07 480.028,1937.09 493.203,1986C505.688,2032.35 503.951,2083.22 493.203,2130C480.251,2186.37 437.079,2278.28 415.493,2324.24" style="fill:none;stroke:rgb(49,50,61);stroke-width:12.85px;"/>
            </g>
            <g transform="matrix(1.00515,-0.0185051,-0.12034,0.918803,195.95,244.575)">
                <path d="M466.769,1839.71C377.892,1933.73 352.091,2093.38 446.965,2298.38" style="fill:none;stroke:rgb(49,50,61);stroke-width:14.91px;"/>
            </g>
            <g transform="matrix(1.00515,-0.0185051,-0.12034,0.918803,151.002,250.902)">
                <path d="M471.203,1844C382.326,1938.02 358.329,2061.92 453.203,2266.93" style="fill:none;stroke:rgb(49,50,61);stroke-width:14.91px;"/>
            </g>
            <g transform="matrix(1.06927,-0.0273489,0.0299292,1.18796,-138.392,-352.979)">
                <path d="M528.87,1921.56C626.968,1921.13 732.426,2004.75 741.129,2135.85C747.943,2238.48 638.586,2315.4 528.87,2315.21C420.275,2315.03 330.225,2255.97 313.017,2154.15C293.351,2037.79 401.361,1922.13 528.87,1921.56Z" style="fill:none;stroke:rgb(49,50,61);stroke-width:11.77px;"/>
            </g>
        </g>
    </g>
    <defs>
        <linearGradient id="_Linear1" x1="0" y1="0" x2="1" y2="0" gradientUnits="userSpaceOnUse" gradientTransform="matrix(72.7901,117.57,-123.081,69.5309,515.799,242.403)"><stop offset="0" style="stop-color:rgb(133,130,138);stop-opacity:1"/><stop offset="0.4" style="stop-color:rgb(177,177,190);stop-opacity:1"/><stop offset="0.72" style="stop-color:rgb(167,166,178);stop-opacity:1"/><stop offset="1" style="stop-color:rgb(133,130,138);stop-opacity:1"/></linearGradient>
        <linearGradient id="_Linear2" x1="0" y1="0" x2="1" y2="0" gradientUnits="userSpaceOnUse" gradientTransform="matrix(-159.257,517.239,-579.512,-142.357,533.69,1972.43)"><stop offset="0" style="stop-color:rgb(207,92,232);stop-opacity:1"/><stop offset="1" style="stop-color:rgb(184,16,40);stop-opacity:1"/></linearGradient>
    </defs>
</svg>
