<?xml version="1.0" encoding="UTF-8" standalone="no"?>
<!DOCTYPE svg PUBLIC "-//W3C//DTD SVG 1.1//EN" "http://www.w3.org/Graphics/SVG/1.1/DTD/svg11.dtd">
<svg width="100%" height="100%" viewBox="0 0 232 232" version="1.1" xmlns="http://www.w3.org/2000/svg" xmlns:xlink="http://www.w3.org/1999/xlink" xml:space="preserve" xmlns:serif="http://www.serif.com/" style="fill-rule:evenodd;clip-rule:evenodd;stroke-linecap:round;stroke-linejoin:round;stroke-miterlimit:1.5;">
    <g transform="matrix(1,0,0,1,-833.276,-2138.99)">
        <g transform="matrix(1.00746,-6.245e-17,0,1.05469,362.931,1943.95)">
            <ellipse cx="582.001" cy="294.917" rx="111.667" ry="106.667" style="fill:url(#_Linear1);stroke:rgb(177,177,190);stroke-width:6.79px;"/>
        </g>
        <g transform="matrix(1,0,0,1,63.4411,1882.91)">
            <path d="M884.017,402.927C887.35,402.26 890.684,401.594 894.017,400.927" style="fill:none;stroke:rgb(49,50,61);stroke-width:3px;"/>
        </g>
        <g transform="matrix(1,0,0,1,63.4411,1883.51)">
            <path d="M958.342,348.552C958.342,348.552 962.417,347.569 963.767,347.902C964.986,348.203 965.367,350.536 966.442,350.552C967.517,350.569 969.199,346.876 970.217,348.002C971.242,349.136 972.988,355.827 972.592,357.352C972.196,358.877 969.179,356.302 967.842,357.152C966.217,358.186 962.514,365.663 962.842,363.552C963.074,362.059 959.368,348.518 958.342,348.552Z" style="fill:rgb(201,32,40);stroke:rgb(49,50,61);stroke-width:4px;"/>
        </g>
        <g transform="matrix(1,0,0,1,63.4411,1882.91)">
            <path d="M839.725,337.719C839.725,337.719 804.359,342.18 803.892,343.219C803.259,344.625 811.656,377.399 811.475,385.302C811.398,388.693 803.92,387.635 802.809,390.635C801.698,393.635 804.475,402.498 804.809,403.302C805.468,404.891 844.142,396.524 852.142,399.302C858.653,401.563 854.064,413.191 852.809,419.969C851.142,428.969 842.418,448.843 842.142,453.302C841.782,459.118 868.03,458.156 872.309,448.552C873.683,445.468 871.917,424.512 880.809,411.969C884.305,407.037 880.572,396.983 886.142,394.635C899.587,388.969 961.475,377.969 961.475,377.969C964.615,374.518 963.574,370.22 959.475,365.302C965.246,365.029 962.43,350.38 958.059,350.635C958.059,350.635 846.055,372.444 838.475,371.969C831.108,371.506 826.652,370.385 826.809,359.302C826.837,357.302 840.475,350.719 840.475,350.719L839.725,337.719Z" style="fill:url(#_Linear2);stroke:rgb(49,50,61);stroke-width:7px;"/>
        </g>
        <g transform="matrix(1,0,0,1,63.4411,1882.91)">
            <path d="M828.642,341.152C829.143,345.045 829.976,349.021 831.442,353.152L841.642,349.352L841.442,339.552L828.642,341.152Z" style="fill:rgb(201,32,40);stroke:rgb(49,50,61);stroke-width:4px;"/>
        </g>
        <g transform="matrix(0.994756,0.102277,-0.0745738,0.725312,98.7101,1901.68)">
            <path d="M893.267,396.677C893.684,399.26 894.1,401.844 894.517,404.427" style="fill:none;stroke:rgb(49,50,61);stroke-width:3.43px;"/>
        </g>
        <g transform="matrix(1.09757,-0.188947,0.202738,1.17768,-92.0395,1980.14)">
            <path d="M953.441,344.969C953.441,336.322 945.909,329.302 936.631,329.302L857.584,329.302C848.307,329.302 840.774,336.322 840.774,344.969C840.774,353.615 848.307,360.635 857.584,360.635L936.631,360.635C945.909,360.635 953.441,353.615 953.441,344.969Z" style="fill:url(#_Linear3);stroke:rgb(49,50,61);stroke-width:6.06px;"/>
        </g>
        <g transform="matrix(0.723149,-0.0837027,0.112872,0.975156,270.784,1966.03)">
            <path d="M895.042,316.752L881.642,316.752C886.006,331.857 886.581,346.756 881.642,361.352L895.042,361.352C898.735,346.025 898.68,331.197 895.042,316.752Z" style="fill:rgb(201,32,40);stroke:rgb(49,50,61);stroke-width:4.63px;"/>
        </g>
        <g transform="matrix(1,0,0,1,63.4411,1882.91)">
            <path d="M804.442,390.952C805.353,388.186 812.909,386.152 812.909,386.152L813.209,402.019C813.209,402.019 808.645,404.271 807.442,402.752C805.981,400.908 803.531,393.719 804.442,390.952Z" style="fill:rgb(201,32,40);stroke:rgb(49,50,61);stroke-width:4px;"/>
        </g>
    </g>
    <defs>
        <linearGradient id="_Linear1" x1="0" y1="0" x2="1" y2="0" gradientUnits="userSpaceOnUse" gradientTransform="matrix(72.7901,117.57,-123.081,69.5309,515.799,242.403)"><stop offset="0" style="stop-color:rgb(133,130,138);stop-opacity:1"/><stop offset="0.4" style="stop-color:rgb(177,177,190);stop-opacity:1"/><stop offset="0.72" style="stop-color:rgb(167,166,178);stop-opacity:1"/><stop offset="1" style="stop-color:rgb(133,130,138);stop-opacity:1"/></linearGradient>
        <linearGradient id="_Linear2" x1="0" y1="0" x2="1" y2="0" gradientUnits="userSpaceOnUse" gradientTransform="matrix(-18.6667,53.3333,-53.3333,-18.6667,881.32,380.075)"><stop offset="0" style="stop-color:rgb(25,166,74);stop-opacity:1"/><stop offset="1" style="stop-color:rgb(64,151,76);stop-opacity:1"/></linearGradient>
        <linearGradient id="_Linear3" x1="0" y1="0" x2="1" y2="0" gradientUnits="userSpaceOnUse" gradientTransform="matrix(19.439,-26.3176,28.2386,18.1166,909.261,369.074)"><stop offset="0" style="stop-color:rgb(241,233,5);stop-opacity:1"/><stop offset="1" style="stop-color:rgb(252,247,98);stop-opacity:1"/></linearGradient>
    </defs>
</svg>
