<?xml version="1.0" encoding="UTF-8" standalone="no"?>
<!DOCTYPE svg PUBLIC "-//W3C//DTD SVG 1.1//EN" "http://www.w3.org/Graphics/SVG/1.1/DTD/svg11.dtd">
<svg width="100%" height="100%" viewBox="0 0 232 232" version="1.1" xmlns="http://www.w3.org/2000/svg" xmlns:xlink="http://www.w3.org/1999/xlink" xml:space="preserve" xmlns:serif="http://www.serif.com/" style="fill-rule:evenodd;clip-rule:evenodd;stroke-linecap:round;stroke-linejoin:round;stroke-miterlimit:1.5;">
    <g transform="matrix(1,0,0,1,-2340.36,-646.71)">
        <g transform="matrix(1.00746,-1.82959e-18,0,1.05469,1870.02,451.665)">
            <ellipse cx="582.001" cy="294.917" rx="111.667" ry="106.667" style="fill:white;stroke:url(#_Linear1);stroke-width:6.79px;"/>
        </g>
        <g id="Helmet" transform="matrix(1.71935,0,0,1.71935,670.424,76.0791)">
            <g>
                <g transform="matrix(0.283506,0.00569891,-0.00703099,0.349773,985.348,277.806)">
                    <path d="M146.396,262.495L72.15,329.387C57.315,307.98 46.046,272.568 39.064,247.75C68.273,252.04 117.274,259.816 146.396,262.495Z" style="fill:rgb(79,69,54);stroke:rgb(49,50,61);stroke-width:9.13px;"/>
                </g>
                <g transform="matrix(-0.308775,0.0348562,0.0343009,0.303856,1085.31,286.179)">
                    <path d="M126.564,258.25L73.227,338.051C58.206,315.93 44.165,272.674 39.064,247.75C68.273,252.04 97.441,255.57 126.564,258.25Z" style="fill:rgb(79,69,54);stroke:rgb(49,50,61);stroke-width:9.43px;"/>
                </g>
                <path d="M1001.09,406.693C998.408,406.243 999.219,404.993 999.711,403.287C1000.73,399.755 1001.41,393.938 1003,390.622C1008.1,379.995 1015.45,371.138 1026.76,367.564C1030.45,366.398 1036.58,366.278 1040.45,366.189C1044.7,366.091 1049,366.559 1053.15,367.499C1069.18,371.126 1076.74,388.904 1079.5,403.075C1079.63,403.759 1079.93,405.56 1078.54,405.651C1065.63,406.496 1052.69,407 1039.75,407.453C1031.78,407.732 1008.6,407.953 1001.09,406.693" style="fill:rgb(79,69,54);stroke:rgb(49,50,61);stroke-width:2.91px;stroke-miterlimit:10;"/>
                <path d="M998.412,418.89C1002.2,419.152 1006.04,419.418 1009.8,418.89C1016.46,417.953 1021.4,413.347 1027.95,418.012C1032.13,420.982 1033.06,426.387 1032.07,431.223C1031.93,431.878 1029.44,434.845 1029.84,435.91C1030.73,438.277 1035.49,446.127 1039.25,446.517C1041.17,446.716 1043.88,444.271 1044.88,443.202C1046.42,441.535 1048.32,439.124 1049.34,437.094C1050.05,435.679 1047.35,432.119 1047.07,431.075C1045.76,426.299 1045.57,423.06 1049.64,419.476C1056.37,413.543 1061.76,417.622 1069.19,418.397C1073.37,418.833 1077.62,418.49 1081.81,418.15L1081.56,404.584L1045.43,404.337C1045.67,391.336 1045.76,378.267 1045.68,365.118L1034.54,365.118C1033.39,378.273 1033.22,391.428 1034.05,404.584L997.917,404.09L998.412,418.89" style="fill:rgb(209,218,223);stroke:rgb(49,50,61);stroke-width:2.91px;stroke-miterlimit:10;"/>
            </g>
        </g>
        <g transform="matrix(0.673077,0,0,0.673077,1198,459.457)">
            <g transform="matrix(1.73077,0,0,1.75325,-1064.18,-324.044)">
                <ellipse cx="1696.63" cy="439.49" rx="26" ry="25.667" style="fill:white;stroke:rgb(49,50,61);stroke-width:5.97px;"/>
            </g>
            <g id="Badges-01" transform="matrix(1,0,0,1,1872.03,446.823)">
                <g transform="matrix(1,0,0,1,-52,-50)">
                    <path d="M16.225,64.525C16.83,66.043 17.547,67.518 18.375,68.95C19.86,57.583 29.802,49.099 48.2,43.5C32.356,45.846 21.44,52.163 15.45,62.45C15.69,63.14 15.948,63.824 16.225,64.5L16.225,64.525ZM95.5,50C95.5,50.033 95.5,50.067 95.5,50.1C95.466,62.093 91.225,72.318 82.775,80.775C74.285,89.26 64.026,93.502 52,93.5C39.974,93.502 29.715,89.26 21.225,80.775C19.33,78.872 17.647,76.88 16.175,74.8L16.15,74.8C14.27,72.134 12.745,69.326 11.575,66.375L11.575,66.4C9.527,61.375 8.502,55.908 8.5,50C8.498,49.065 8.531,48.149 8.6,47.25C9.179,36.41 13.387,27.068 21.225,19.225C28.554,11.896 37.229,7.737 47.25,6.75L47.225,6.775C48.781,6.595 50.373,6.503 52,6.5C59.716,6.51 66.708,8.268 72.975,11.775C74.025,12.373 75.075,13.023 76.125,13.725L76.175,13.75C77.642,14.762 79.092,15.878 80.525,17.1C80.541,17.119 80.558,17.136 80.575,17.15C81.308,17.807 82.042,18.499 82.775,19.225C88.968,25.418 92.91,32.552 94.6,40.625L94.6,40.675C95.128,43.378 95.428,46.202 95.5,49.15L95.5,50ZM90.5,49.25C90.497,49.097 90.488,48.947 90.475,48.8C82.584,47.455 75.126,45.622 68.1,43.3C71.633,41.734 74.25,39.683 75.95,37.15C80.513,37.068 84.947,37.935 89.25,39.75C87.545,33.412 84.204,27.753 79.225,22.775C78.576,22.119 77.926,21.494 77.275,20.9C77.257,20.885 77.241,20.868 77.225,20.85C75.939,19.759 74.639,18.759 73.325,17.85L73.375,17.875C72.828,17.512 72.278,17.162 71.725,16.825C71.441,19.809 70.2,22.4 68,24.6C65.467,27.133 62.417,28.4 58.85,28.4C55.283,28.4 52.233,27.133 49.7,24.6C47.167,22.067 45.9,19.017 45.9,15.45C45.9,14.201 46.059,13.018 46.375,11.9C38.108,13.018 30.908,16.643 24.775,22.775C18.488,29.057 14.838,36.423 13.825,44.875C25.982,34.177 38.974,32.052 52.8,38.5C57.133,40.533 61.683,42.35 66.45,43.95C73.954,46.441 81.971,48.366 90.5,49.725C90.5,49.565 90.5,49.407 90.5,49.25Z" style="fill:rgb(244,230,94);"/>
                </g>
            </g>
        </g>
    </g>
    <defs>
        <linearGradient id="_Linear1" x1="0" y1="0" x2="1" y2="0" gradientUnits="userSpaceOnUse" gradientTransform="matrix(223.333,0,0,213.333,470.335,294.917)"><stop offset="0" style="stop-color:rgb(255,217,45);stop-opacity:1"/><stop offset="1" style="stop-color:rgb(43,214,99);stop-opacity:1"/></linearGradient>
    </defs>
</svg>
