<?xml version="1.0" encoding="UTF-8" standalone="no"?>
<!DOCTYPE svg PUBLIC "-//W3C//DTD SVG 1.1//EN" "http://www.w3.org/Graphics/SVG/1.1/DTD/svg11.dtd">
<svg width="100%" height="100%" viewBox="0 0 232 232" version="1.1" xmlns="http://www.w3.org/2000/svg" xmlns:xlink="http://www.w3.org/1999/xlink" xml:space="preserve" xmlns:serif="http://www.serif.com/" style="fill-rule:evenodd;clip-rule:evenodd;stroke-linecap:round;stroke-linejoin:round;stroke-miterlimit:1.5;">
    <g transform="matrix(1,0,0,1,-2329.69,-119.442)">
        <g transform="matrix(1.00746,-1.82959e-18,0,1.05469,1859.35,-75.6032)">
            <ellipse cx="582.001" cy="294.917" rx="111.667" ry="106.667" style="fill:white;stroke:url(#_Linear1);stroke-width:6.79px;"/>
        </g>
        <g id="Helmet" transform="matrix(1.71935,0,0,1.71935,659.757,-451.189)">
            <g>
                <g transform="matrix(0.283506,0.00569891,-0.00703099,0.349773,985.348,277.806)">
                    <path d="M146.396,262.495L72.15,329.387C57.315,307.98 46.046,272.568 39.064,247.75C68.273,252.04 117.274,259.816 146.396,262.495Z" style="fill:rgb(79,69,54);stroke:rgb(49,50,61);stroke-width:9.13px;"/>
                </g>
                <g transform="matrix(-0.308775,0.0348562,0.0343009,0.303856,1085.31,286.179)">
                    <path d="M126.564,258.25L73.227,338.051C58.206,315.93 44.165,272.674 39.064,247.75C68.273,252.04 97.441,255.57 126.564,258.25Z" style="fill:rgb(79,69,54);stroke:rgb(49,50,61);stroke-width:9.43px;"/>
                </g>
                <path d="M1001.09,406.693C998.408,406.243 999.219,404.993 999.711,403.287C1000.73,399.755 1001.41,393.938 1003,390.622C1008.1,379.995 1015.45,371.138 1026.76,367.564C1030.45,366.398 1036.58,366.278 1040.45,366.189C1044.7,366.091 1049,366.559 1053.15,367.499C1069.18,371.126 1076.74,388.904 1079.5,403.075C1079.63,403.759 1079.93,405.56 1078.54,405.651C1065.63,406.496 1052.69,407 1039.75,407.453C1031.78,407.732 1008.6,407.953 1001.09,406.693" style="fill:rgb(79,69,54);stroke:rgb(49,50,61);stroke-width:2.91px;stroke-miterlimit:10;"/>
                <path d="M998.412,418.89C1002.2,419.152 1006.04,419.418 1009.8,418.89C1016.46,417.953 1021.4,413.347 1027.95,418.012C1032.13,420.982 1033.06,426.387 1032.07,431.223C1031.93,431.878 1029.44,434.845 1029.84,435.91C1030.73,438.277 1035.49,446.127 1039.25,446.517C1041.17,446.716 1043.88,444.271 1044.88,443.202C1046.42,441.535 1048.32,439.124 1049.34,437.094C1050.05,435.679 1047.35,432.119 1047.07,431.075C1045.76,426.299 1045.57,423.06 1049.64,419.476C1056.37,413.543 1061.76,417.622 1069.19,418.397C1073.37,418.833 1077.62,418.49 1081.81,418.15L1081.56,404.584L1045.43,404.337C1045.67,391.336 1045.76,378.267 1045.68,365.118L1034.54,365.118C1033.39,378.273 1033.22,391.428 1034.05,404.584L997.917,404.09L998.412,418.89" style="fill:rgb(209,218,223);stroke:rgb(49,50,61);stroke-width:2.91px;stroke-miterlimit:10;"/>
            </g>
        </g>
        <g transform="matrix(1.16494,0,0,1.18007,471.063,-285.918)">
            <ellipse cx="1696.63" cy="439.49" rx="26" ry="25.667" style="fill:white;stroke:rgb(49,50,61);stroke-width:5.97px;"/>
        </g>
        <g id="Badges-05" transform="matrix(0.673077,0,0,0.673077,2447.36,232.935)">
            <g transform="matrix(1,0,0,1,-52,-50)">
                <path d="M22.2,40.75L47.55,40.75L54.4,47.601L54.4,49.551L52.8,49.551L52.8,58.7L60.85,58.7L61.95,54.4L61.95,54.35C61.95,54.249 61.983,54.166 62.05,54.1L64.3,44.8L64.3,44.75C64.3,44.684 64.317,44.634 64.35,44.601L64.35,44.551L67.25,32.7L68.45,32.7L71.35,44.5C71.383,44.601 71.4,44.7 71.4,44.801L73.7,54.051L73.75,54.101C73.783,54.167 73.8,54.25 73.8,54.351L74.85,58.701L89.6,58.701C89.632,58.535 89.665,58.368 89.7,58.201C90.234,55.594 90.501,52.86 90.5,50.001C90.498,49.061 90.465,48.136 90.4,47.227L90.4,47.2C89.8,37.762 86.075,29.62 79.225,22.775C71.715,15.261 62.64,11.502 52,11.5C41.36,11.502 32.285,15.261 24.775,22.775C17.26,30.285 13.502,39.36 13.5,50C13.501,50.758 13.518,51.499 13.55,52.226C13.644,54.256 13.894,56.24 14.3,58.176L14.3,58.2C14.334,58.367 14.367,58.534 14.4,58.7L16.65,58.7L16.65,49.551L15.05,49.551L15.05,47.9L22.2,40.75ZM60.15,32.45L60.5,30.25L64.3,31.5C64.2,31.801 64.15,32.117 64.15,32.45L60.15,32.45ZM61.5,36.601L60.5,34.601L64.3,33.401C64.4,33.701 64.55,33.984 64.75,34.251L61.5,36.601ZM9.4,59.2C8.94,57.012 8.656,54.77 8.55,52.475L8.55,52.45C8.516,51.651 8.5,50.835 8.5,50C8.498,37.974 12.74,27.716 21.225,19.226C29.715,10.74 39.974,6.498 52,6.5C64.026,6.498 74.285,10.74 82.775,19.226C90.525,26.98 94.733,36.206 95.4,46.9C95.469,47.916 95.502,48.949 95.5,50C95.499,53.208 95.199,56.274 94.6,59.2C92.946,67.349 89.004,74.542 82.775,80.775C75.625,87.921 67.217,92.054 57.55,93.175C55.753,93.39 53.903,93.498 52,93.5C46.991,93.497 42.299,92.772 37.925,91.325L37.9,91.325C31.739,89.244 26.18,85.727 21.225,80.775C14.996,74.542 11.055,67.35 9.4,59.2ZM74.55,30L78.45,28.7L77.55,32.45L78.45,36.2L74.55,34.9C74.983,33.101 74.983,31.467 74.55,30ZM74.35,32.45L74,34.601L70.15,33.401C70.25,33.101 70.3,32.785 70.3,32.451L74.35,32.451L74.35,32.45ZM73,28.25L74,30.25L70.15,31.5C70.05,31.2 69.917,30.917 69.75,30.65L73,28.25ZM68.2,29.5L69.4,25.7L71.4,26.7L69.05,29.95C68.783,29.75 68.5,29.601 68.2,29.5ZM67.35,25.351L67.3,29.351C67.266,29.351 67.233,29.351 67.2,29.351C66.9,29.351 66.6,29.401 66.3,29.5L65.05,25.7L67.25,25.35L67.35,25.35L67.35,25.351ZM65.05,30.25C64.95,30.384 64.85,30.517 64.75,30.65L61.5,28.25L63.05,26.7L65.45,29.95C65.317,30.017 65.184,30.117 65.05,30.25ZM66.3,35.4L65.05,39.2L63.05,38.2L65.45,34.95C65.717,35.15 66,35.301 66.3,35.4ZM69.4,34.601C69.5,34.5 69.617,34.384 69.75,34.25L73,36.601L71.4,38.201L69.05,34.901C69.15,34.834 69.267,34.733 69.4,34.601ZM69.65,54.851L69.85,58.701L73.85,58.701L72.95,54.851L69.65,54.851ZM68.65,54.851L62.85,54.851L61.9,58.7L68.85,58.7L68.65,54.851ZM69.7,53.851L72.5,53.851L70.5,49.801L69.7,53.851ZM63.4,53.851L68.35,53.851L66.3,49.25L63.4,53.851ZM68.15,46.351L66.95,48.25L68.45,51.7L68.15,46.351ZM69.35,45.25L70.05,46.601L70.3,45.25L69.35,45.25ZM71,47.101L70.8,48.151L71.7,49.951L71,47.101ZM69.75,48.25L69.2,47.2L69.4,50.15L69.75,48.25ZM65.8,48.15L64.95,46.25L63.65,51.551L65.8,48.15ZM67.65,45.25L65.6,45.25L66.45,47.15L67.65,45.25ZM67.775,39.476L67.25,39.551L67.25,36.926L65.45,44.25L68.05,44.25L67.775,39.476ZM69.05,39.25L68.75,39.301L69.05,44.25L70.3,44.25L69.05,39.25Z" style="fill:rgb(255,160,58);"/>
            </g>
        </g>
    </g>
    <defs>
        <linearGradient id="_Linear1" x1="0" y1="0" x2="1" y2="0" gradientUnits="userSpaceOnUse" gradientTransform="matrix(223.333,0,0,213.333,470.335,294.917)"><stop offset="0" style="stop-color:rgb(255,141,71);stop-opacity:1"/><stop offset="1" style="stop-color:rgb(255,218,46);stop-opacity:1"/></linearGradient>
    </defs>
</svg>
