<?xml version="1.0" encoding="UTF-8" standalone="no"?>
<!DOCTYPE svg PUBLIC "-//W3C//DTD SVG 1.1//EN" "http://www.w3.org/Graphics/SVG/1.1/DTD/svg11.dtd">
<svg width="100%" height="100%" viewBox="0 0 232 232" version="1.1" xmlns="http://www.w3.org/2000/svg" xmlns:xlink="http://www.w3.org/1999/xlink" xml:space="preserve" xmlns:serif="http://www.serif.com/" style="fill-rule:evenodd;clip-rule:evenodd;stroke-linecap:round;stroke-linejoin:round;stroke-miterlimit:1.5;">
    <g transform="matrix(1,0,0,1,-3353.69,-4594.9)">
        <g transform="matrix(1.00746,-1.82959e-18,0,1.05469,2883.35,4399.85)">
            <ellipse cx="582.001" cy="294.917" rx="111.667" ry="106.667" style="fill:rgb(188,132,231);stroke:url(#_Linear1);stroke-width:6.79px;"/>
        </g>
        <g id="Helmet" transform="matrix(1.71935,0,0,1.71935,1683.76,4024.27)">
            <g>
                <g transform="matrix(0.283506,0.00569891,-0.00703099,0.349773,985.348,277.806)">
                    <path d="M146.396,262.495L72.15,329.387C57.315,307.98 46.046,272.568 39.064,247.75C68.273,252.04 117.274,259.816 146.396,262.495Z" style="fill:rgb(79,69,54);stroke:rgb(49,50,61);stroke-width:9.13px;"/>
                </g>
                <g transform="matrix(-0.308775,0.0348562,0.0343009,0.303856,1085.31,286.179)">
                    <path d="M126.564,258.25L73.227,338.051C58.206,315.93 44.165,272.674 39.064,247.75C68.273,252.04 97.441,255.57 126.564,258.25Z" style="fill:rgb(79,69,54);stroke:rgb(49,50,61);stroke-width:9.43px;"/>
                </g>
                <path d="M1001.09,406.693C998.408,406.243 999.219,404.993 999.711,403.287C1000.73,399.755 1001.41,393.938 1003,390.622C1008.1,379.995 1015.45,371.138 1026.76,367.564C1030.45,366.398 1036.58,366.278 1040.45,366.189C1044.7,366.091 1049,366.559 1053.15,367.499C1069.18,371.126 1076.74,388.904 1079.5,403.075C1079.63,403.759 1079.93,405.56 1078.54,405.651C1065.63,406.496 1052.69,407 1039.75,407.453C1031.78,407.732 1008.6,407.953 1001.09,406.693" style="fill:rgb(79,69,54);stroke:rgb(49,50,61);stroke-width:2.91px;stroke-miterlimit:10;"/>
                <path d="M998.412,418.89C1002.2,419.152 1006.04,419.418 1009.8,418.89C1016.46,417.953 1021.4,413.347 1027.95,418.012C1032.13,420.982 1033.06,426.387 1032.07,431.223C1031.93,431.878 1029.44,434.845 1029.84,435.91C1030.73,438.277 1035.49,446.127 1039.25,446.517C1041.17,446.716 1043.88,444.271 1044.88,443.202C1046.42,441.535 1048.32,439.124 1049.34,437.094C1050.05,435.679 1047.35,432.119 1047.07,431.075C1045.76,426.299 1045.57,423.06 1049.64,419.476C1056.37,413.543 1061.76,417.622 1069.19,418.397C1073.37,418.833 1077.62,418.49 1081.81,418.15L1081.56,404.584L1045.43,404.337C1045.67,391.336 1045.76,378.267 1045.68,365.118L1034.54,365.118C1033.39,378.273 1033.22,391.428 1034.05,404.584L997.917,404.09L998.412,418.89" style="fill:rgb(209,218,223);stroke:rgb(49,50,61);stroke-width:2.91px;stroke-miterlimit:10;"/>
            </g>
        </g>
        <g transform="matrix(1.16494,0,0,1.18007,1495.06,4189.54)">
            <ellipse cx="1696.63" cy="439.49" rx="26" ry="25.667" style="fill:white;stroke:rgb(49,50,61);stroke-width:5.97px;"/>
        </g>
        <g id="Medals-01" transform="matrix(0.3,0,0,0.3,3471.71,4707.74)">
            <g transform="matrix(1,0,0,1,-100,-100)">
                <path d="M162.649,37.45C145.35,20.15 124.467,11.5 100,11.5C75.566,11.5 54.733,20.15 37.5,37.45C20.166,54.717 11.5,75.567 11.5,100C11.5,119.767 17.133,137.167 28.399,152.2L28.399,126.801L26,126.801L26,113.351L28.399,113.351L28.399,107.351L15.2,107.351L15.2,100.801C29.467,95.667 37.666,87.051 39.8,74.95L66.1,74.95L66.1,67.35L63.25,67.35L63.25,56.8L66.1,56.8L66.1,51.5L48.75,51.5L48.75,48.15C61.483,42.083 68.883,33.533 70.95,22.5L129.1,22.5C130.447,29.687 134.055,35.82 139.925,40.9C143.07,43.619 146.862,46.035 151.3,48.15L151.3,51.5L133.95,51.5L133.95,56.8L136.8,56.8L136.8,67.35L133.95,67.35L133.95,74.95L160.25,74.95C162.383,87.05 170.583,95.667 184.85,100.801L184.85,107.351L171.65,107.351L171.65,113.351L174.05,113.351L174.05,126.801L171.65,126.801L171.65,152.2C182.917,137.167 188.55,119.766 188.55,100C188.55,77.172 181.017,57.472 165.95,40.9C164.885,39.735 163.784,38.585 162.649,37.45ZM170.85,29.3C174.561,33.017 177.919,36.884 180.925,40.9C193.642,57.917 200,77.617 200,100C200,127.667 190.283,151.267 170.85,170.801C153.319,188.242 132.536,197.867 108.5,199.676C105.711,199.892 102.877,200 100,200C72.366,200 48.816,190.267 29.35,170.801C9.783,151.267 0,127.667 0,100C0,72.333 9.783,48.767 29.35,29.3C48.816,9.767 72.366,0 100,0C127.666,0 151.283,9.767 170.85,29.3ZM153.25,97.7L46.8,97.7L46.8,100.35L53.35,111.15L62.3,111.15L62.3,180.45C66,182.15 69.833,183.6 73.8,184.801L73.8,134.801L126.25,134.801L126.25,184.801C130.217,183.601 134.033,182.151 137.7,180.45L137.7,111.15L146.7,111.15L153.25,100.35L153.25,97.7ZM126.25,121.051L73.8,121.051L73.8,111.151L126.25,111.151L126.25,121.051Z" style="fill:rgb(102,0,0);"/>
            </g>
        </g>
    </g>
    <defs>
        <linearGradient id="_Linear1" x1="0" y1="0" x2="1" y2="0" gradientUnits="userSpaceOnUse" gradientTransform="matrix(223.333,0,0,213.333,470.335,294.917)"><stop offset="0" style="stop-color:rgb(161,51,213);stop-opacity:1"/><stop offset="1" style="stop-color:rgb(215,63,89);stop-opacity:1"/></linearGradient>
    </defs>
</svg>
