<?xml version="1.0" encoding="UTF-8" standalone="no"?>
<!DOCTYPE svg PUBLIC "-//W3C//DTD SVG 1.1//EN" "http://www.w3.org/Graphics/SVG/1.1/DTD/svg11.dtd">
<svg width="100%" height="100%" viewBox="0 0 232 232" version="1.1" xmlns="http://www.w3.org/2000/svg" xmlns:xlink="http://www.w3.org/1999/xlink" xml:space="preserve" xmlns:serif="http://www.serif.com/" style="fill-rule:evenodd;clip-rule:evenodd;stroke-linecap:round;stroke-linejoin:round;stroke-miterlimit:1.5;">
    <g transform="matrix(1,0,0,1,-4340.36,-1162.17)">
        <g transform="matrix(1.00746,-1.82959e-18,0,1.05469,3870.02,967.123)">
            <ellipse cx="582.001" cy="294.917" rx="111.667" ry="106.667" style="fill:rgb(248,160,75);stroke:url(#_Linear1);stroke-width:6.79px;"/>
        </g>
        <g id="Helmet" transform="matrix(1.71935,0,0,1.71935,2670.42,591.536)">
            <g>
                <g transform="matrix(0.283506,0.00569891,-0.00703099,0.349773,985.348,277.806)">
                    <path d="M146.396,262.495L72.15,329.387C57.315,307.98 46.046,272.568 39.064,247.75C68.273,252.04 117.274,259.816 146.396,262.495Z" style="fill:rgb(79,69,54);stroke:rgb(49,50,61);stroke-width:9.13px;"/>
                </g>
                <g transform="matrix(-0.308775,0.0348562,0.0343009,0.303856,1085.31,286.179)">
                    <path d="M126.564,258.25L73.227,338.051C58.206,315.93 44.165,272.674 39.064,247.75C68.273,252.04 97.441,255.57 126.564,258.25Z" style="fill:rgb(79,69,54);stroke:rgb(49,50,61);stroke-width:9.43px;"/>
                </g>
                <path d="M1001.09,406.693C998.408,406.243 999.219,404.993 999.711,403.287C1000.73,399.755 1001.41,393.938 1003,390.622C1008.1,379.995 1015.45,371.138 1026.76,367.564C1030.45,366.398 1036.58,366.278 1040.45,366.189C1044.7,366.091 1049,366.559 1053.15,367.499C1069.18,371.126 1076.74,388.904 1079.5,403.075C1079.63,403.759 1079.93,405.56 1078.54,405.651C1065.63,406.496 1052.69,407 1039.75,407.453C1031.78,407.732 1008.6,407.953 1001.09,406.693" style="fill:rgb(79,69,54);stroke:rgb(49,50,61);stroke-width:2.91px;stroke-miterlimit:10;"/>
                <path d="M998.412,418.89C1002.2,419.152 1006.04,419.418 1009.8,418.89C1016.46,417.953 1021.4,413.347 1027.95,418.012C1032.13,420.982 1033.06,426.387 1032.07,431.223C1031.93,431.878 1029.44,434.845 1029.84,435.91C1030.73,438.277 1035.49,446.127 1039.25,446.517C1041.17,446.716 1043.88,444.271 1044.88,443.202C1046.42,441.535 1048.32,439.124 1049.34,437.094C1050.05,435.679 1047.35,432.119 1047.07,431.075C1045.76,426.299 1045.57,423.06 1049.64,419.476C1056.37,413.543 1061.76,417.622 1069.19,418.397C1073.37,418.833 1077.62,418.49 1081.81,418.15L1081.56,404.584L1045.43,404.337C1045.67,391.336 1045.76,378.267 1045.68,365.118L1034.54,365.118C1033.39,378.273 1033.22,391.428 1034.05,404.584L997.917,404.09L998.412,418.89" style="fill:rgb(209,218,223);stroke:rgb(49,50,61);stroke-width:2.91px;stroke-miterlimit:10;"/>
            </g>
        </g>
        <g transform="matrix(1.16494,0,0,1.18007,2481.73,756.808)">
            <ellipse cx="1696.63" cy="439.49" rx="26" ry="25.667" style="fill:white;stroke:rgb(49,50,61);stroke-width:5.97px;"/>
        </g>
        <g id="Badges-03" transform="matrix(0.673077,0,0,0.673077,4458.03,1275.66)">
            <g transform="matrix(1,0,0,1,-52,-50)">
                <path d="M14.125,42.725C13.966,43.647 13.832,44.58 13.725,45.525C13.683,45.933 13.65,46.341 13.625,46.75C17.51,48.771 22.001,49.038 27.1,47.55C31.333,51.85 36.4,53.667 42.3,53C36.3,52.967 31.533,50.2 28,44.7C22.472,46.027 17.847,45.369 14.125,42.725ZM88.45,62.9L88.425,62.95C88.571,62.524 88.712,62.098 88.85,61.675C83.428,65.72 76.711,66.878 68.7,65.15C64.6,74.55 58.483,79.067 50.35,78.7C59.15,79.567 65.784,76.4 70.25,69.2C76.819,70.299 82.311,69.557 86.725,66.975C87.375,65.651 87.95,64.292 88.45,62.9ZM75.2,40.45C75.175,40.387 75.158,40.321 75.149,40.25C74.608,34.882 72.375,30.231 68.45,26.3C63.909,21.764 58.426,19.498 52,19.5C45.573,19.498 40.09,21.764 35.55,26.3C31.658,30.197 29.442,34.781 28.9,40.05C28.892,40.12 28.876,40.187 28.85,40.25C44.562,45.083 60.012,45.149 75.2,40.45ZM92.35,33.325L92.375,33.375C93.115,35.212 93.732,37.121 94.225,39.1C95.073,42.557 95.497,46.19 95.5,50C95.499,52.245 95.357,54.42 95.075,56.525C95.074,56.548 95.074,56.573 95.075,56.6C94.935,57.459 94.777,58.301 94.599,59.125C94.248,60.969 93.774,62.777 93.174,64.55C93.164,64.566 93.156,64.583 93.149,64.6C92.513,66.361 91.772,68.069 90.924,69.725L90.924,69.75C88.879,73.708 86.162,77.383 82.774,80.775C74.284,89.26 64.026,93.502 52,93.5C39.974,93.502 29.715,89.26 21.225,80.775C17.849,77.39 15.157,73.723 13.15,69.775C13.141,69.759 13.133,69.742 13.126,69.725C11.776,67.173 10.727,64.498 9.976,61.7C8.99,57.994 8.498,54.094 8.5,50C8.504,48.308 8.596,46.632 8.774,44.975C8.942,43.433 9.175,41.925 9.474,40.45C9.562,39.963 9.67,39.496 9.799,39.05L9.774,39.1C10.273,37.103 10.916,35.179 11.7,33.325L11.7,33.35C13.811,28.181 16.986,23.472 21.224,19.225C29.715,10.74 39.974,6.498 52,6.5C64.026,6.498 74.284,10.74 82.774,19.225C87.011,23.464 90.202,28.165 92.35,33.325ZM87.75,35.275C87.742,35.258 87.734,35.241 87.725,35.225C85.809,30.671 82.975,26.521 79.225,22.775C71.715,15.26 62.64,11.502 52,11.5C41.359,11.502 32.285,15.26 24.774,22.775C21.012,26.528 18.187,30.686 16.299,35.25L16.299,35.275C16.283,35.312 16.267,35.345 16.249,35.375C19.808,37.043 23.366,38.46 26.924,39.625C27.553,33.991 29.961,29.083 34.149,24.9C39.076,19.969 45.026,17.503 52,17.5C58.974,17.502 64.924,19.969 69.85,24.9C74.07,29.114 76.496,34.089 77.125,39.825C80.687,38.625 84.244,37.158 87.8,35.425C87.786,35.375 87.77,35.325 87.75,35.275Z" style="fill:rgb(83,99,219);"/>
            </g>
        </g>
    </g>
    <defs>
        <linearGradient id="_Linear1" x1="0" y1="0" x2="1" y2="0" gradientUnits="userSpaceOnUse" gradientTransform="matrix(223.333,0,0,213.333,470.335,294.917)"><stop offset="0" style="stop-color:rgb(43,213,99);stop-opacity:1"/><stop offset="1" style="stop-color:rgb(0,130,213);stop-opacity:1"/></linearGradient>
    </defs>
</svg>
