<?xml version="1.0" encoding="UTF-8" standalone="no"?>
<!DOCTYPE svg PUBLIC "-//W3C//DTD SVG 1.1//EN" "http://www.w3.org/Graphics/SVG/1.1/DTD/svg11.dtd">
<svg width="100%" height="100%" viewBox="0 0 232 232" version="1.1" xmlns="http://www.w3.org/2000/svg" xmlns:xlink="http://www.w3.org/1999/xlink" xml:space="preserve" xmlns:serif="http://www.serif.com/" style="fill-rule:evenodd;clip-rule:evenodd;stroke-linecap:round;stroke-linejoin:round;stroke-miterlimit:1.5;">
    <g transform="matrix(1,0,0,1,-4343.03,-1932.41)">
        <g transform="matrix(1.00746,-1.82959e-18,0,1.05469,3872.68,1737.37)">
            <ellipse cx="582.001" cy="294.917" rx="111.667" ry="106.667" style="fill:rgb(248,160,75);stroke:url(#_Linear1);stroke-width:6.79px;"/>
        </g>
        <g id="Helmet" transform="matrix(1.71935,0,0,1.71935,2673.09,1361.78)">
            <g>
                <g transform="matrix(0.283506,0.00569891,-0.00703099,0.349773,985.348,277.806)">
                    <path d="M146.396,262.495L72.15,329.387C57.315,307.98 46.046,272.568 39.064,247.75C68.273,252.04 117.274,259.816 146.396,262.495Z" style="fill:rgb(79,69,54);stroke:rgb(49,50,61);stroke-width:9.13px;"/>
                </g>
                <g transform="matrix(-0.308775,0.0348562,0.0343009,0.303856,1085.31,286.179)">
                    <path d="M126.564,258.25L73.227,338.051C58.206,315.93 44.165,272.674 39.064,247.75C68.273,252.04 97.441,255.57 126.564,258.25Z" style="fill:rgb(79,69,54);stroke:rgb(49,50,61);stroke-width:9.43px;"/>
                </g>
                <path d="M1001.09,406.693C998.408,406.243 999.219,404.993 999.711,403.287C1000.73,399.755 1001.41,393.938 1003,390.622C1008.1,379.995 1015.45,371.138 1026.76,367.564C1030.45,366.398 1036.58,366.278 1040.45,366.189C1044.7,366.091 1049,366.559 1053.15,367.499C1069.18,371.126 1076.74,388.904 1079.5,403.075C1079.63,403.759 1079.93,405.56 1078.54,405.651C1065.63,406.496 1052.69,407 1039.75,407.453C1031.78,407.732 1008.6,407.953 1001.09,406.693" style="fill:rgb(79,69,54);stroke:rgb(49,50,61);stroke-width:2.91px;stroke-miterlimit:10;"/>
                <path d="M998.412,418.89C1002.2,419.152 1006.04,419.418 1009.8,418.89C1016.46,417.953 1021.4,413.347 1027.95,418.012C1032.13,420.982 1033.06,426.387 1032.07,431.223C1031.93,431.878 1029.44,434.845 1029.84,435.91C1030.73,438.277 1035.49,446.127 1039.25,446.517C1041.17,446.716 1043.88,444.271 1044.88,443.202C1046.42,441.535 1048.32,439.124 1049.34,437.094C1050.05,435.679 1047.35,432.119 1047.07,431.075C1045.76,426.299 1045.57,423.06 1049.64,419.476C1056.37,413.543 1061.76,417.622 1069.19,418.397C1073.37,418.833 1077.62,418.49 1081.81,418.15L1081.56,404.584L1045.43,404.337C1045.67,391.336 1045.76,378.267 1045.68,365.118L1034.54,365.118C1033.39,378.273 1033.22,391.428 1034.05,404.584L997.917,404.09L998.412,418.89" style="fill:rgb(209,218,223);stroke:rgb(49,50,61);stroke-width:2.91px;stroke-miterlimit:10;"/>
            </g>
        </g>
        <g transform="matrix(1.16494,0,0,1.18007,2484.4,1527.05)">
            <ellipse cx="1696.63" cy="439.49" rx="26" ry="25.667" style="fill:white;stroke:rgb(49,50,61);stroke-width:5.97px;"/>
        </g>
        <g id="Badges-06" transform="matrix(0.673077,0,0,0.673077,4460.69,2045.91)">
            <g transform="matrix(1,0,0,1,-52,-50)">
                <path d="M88.65,37.9C86.846,32.297 83.705,27.256 79.225,22.775C71.715,15.26 62.64,11.502 52,11.5C41.36,11.502 32.285,15.26 24.775,22.775C18.252,29.292 14.56,36.992 13.7,45.875C20.155,37.609 27.988,29.817 37.2,22.5C45.567,32.267 51.65,40.467 55.45,47.1C59.217,53.734 56.3,59.434 46.7,64.201C37.1,68.934 36.65,73.85 45.35,78.951C51.99,82.833 53.532,85.999 49.975,88.451C50.645,88.484 51.32,88.501 52,88.501C55.988,88.504 59.771,87.987 63.35,86.951L63.325,86.951C65.955,86.154 68.463,85.071 70.85,83.701C73.459,79.805 70.16,76.873 60.95,74.901C47.717,72.067 43.467,69.184 48.2,66.251C52.9,63.284 56.1,60.218 57.8,57.051C59.467,53.885 58.933,50.168 56.2,45.902C59.7,39.3 63.867,34.033 68.7,30.1C73.633,32.734 77.333,35.567 79.8,38.6C80.333,37.167 81.3,35.917 82.7,34.85C84.685,35.469 86.668,36.485 88.65,37.9ZM82.775,19.225C88.83,25.279 92.722,32.237 94.45,40.1C95.152,43.242 95.502,46.541 95.5,50C95.502,62.026 91.26,72.285 82.775,80.775C77.466,86.081 71.466,89.74 64.775,91.75L64.75,91.75C60.729,92.914 56.479,93.497 52,93.5C49.571,93.501 47.213,93.326 44.925,92.975C35.89,91.603 27.99,87.537 21.225,80.776C12.74,72.285 8.498,62.026 8.5,50C8.5,49.8 8.5,49.616 8.5,49.45L8.5,49.425C8.639,37.643 12.88,27.576 21.225,19.225C29.715,10.739 39.974,6.498 52,6.5C64.027,6.498 74.285,10.739 82.775,19.225Z" style="fill:rgb(207,85,81);"/>
            </g>
        </g>
    </g>
    <defs>
        <linearGradient id="_Linear1" x1="0" y1="0" x2="1" y2="0" gradientUnits="userSpaceOnUse" gradientTransform="matrix(223.333,0,0,213.333,470.335,294.917)"><stop offset="0" style="stop-color:rgb(202,48,88);stop-opacity:1"/><stop offset="1" style="stop-color:rgb(255,153,72);stop-opacity:1"/></linearGradient>
    </defs>
</svg>
