<?xml version="1.0" encoding="UTF-8" standalone="no"?>
<!DOCTYPE svg PUBLIC "-//W3C//DTD SVG 1.1//EN" "http://www.w3.org/Graphics/SVG/1.1/DTD/svg11.dtd">
<svg width="100%" height="100%" viewBox="0 0 232 232" version="1.1" xmlns="http://www.w3.org/2000/svg" xmlns:xlink="http://www.w3.org/1999/xlink" xml:space="preserve" xmlns:serif="http://www.serif.com/" style="fill-rule:evenodd;clip-rule:evenodd;stroke-linecap:round;stroke-linejoin:round;stroke-miterlimit:1.5;">
    <g transform="matrix(1,0,0,1,-3353.69,-1436.44)">
        <g transform="matrix(1.00746,-1.82959e-18,0,1.05469,2883.35,1241.4)">
            <ellipse cx="582.001" cy="294.917" rx="111.667" ry="106.667" style="fill:rgb(143,172,233);stroke:url(#_Linear1);stroke-width:6.79px;"/>
        </g>
        <g id="Helmet" transform="matrix(1.71935,0,0,1.71935,1683.76,865.814)">
            <g>
                <g transform="matrix(0.283506,0.00569891,-0.00703099,0.349773,985.348,277.806)">
                    <path d="M146.396,262.495L72.15,329.387C57.315,307.98 46.046,272.568 39.064,247.75C68.273,252.04 117.274,259.816 146.396,262.495Z" style="fill:rgb(79,69,54);stroke:rgb(49,50,61);stroke-width:9.13px;"/>
                </g>
                <g transform="matrix(-0.308775,0.0348562,0.0343009,0.303856,1085.31,286.179)">
                    <path d="M126.564,258.25L73.227,338.051C58.206,315.93 44.165,272.674 39.064,247.75C68.273,252.04 97.441,255.57 126.564,258.25Z" style="fill:rgb(79,69,54);stroke:rgb(49,50,61);stroke-width:9.43px;"/>
                </g>
                <path d="M1001.09,406.693C998.408,406.243 999.219,404.993 999.711,403.287C1000.73,399.755 1001.41,393.938 1003,390.622C1008.1,379.995 1015.45,371.138 1026.76,367.564C1030.45,366.398 1036.58,366.278 1040.45,366.189C1044.7,366.091 1049,366.559 1053.15,367.499C1069.18,371.126 1076.74,388.904 1079.5,403.075C1079.63,403.759 1079.93,405.56 1078.54,405.651C1065.63,406.496 1052.69,407 1039.75,407.453C1031.78,407.732 1008.6,407.953 1001.09,406.693" style="fill:rgb(79,69,54);stroke:rgb(49,50,61);stroke-width:2.91px;stroke-miterlimit:10;"/>
                <path d="M998.412,418.89C1002.2,419.152 1006.04,419.418 1009.8,418.89C1016.46,417.953 1021.4,413.347 1027.95,418.012C1032.13,420.982 1033.06,426.387 1032.07,431.223C1031.93,431.878 1029.44,434.845 1029.84,435.91C1030.73,438.277 1035.49,446.127 1039.25,446.517C1041.17,446.716 1043.88,444.271 1044.88,443.202C1046.42,441.535 1048.32,439.124 1049.34,437.094C1050.05,435.679 1047.35,432.119 1047.07,431.075C1045.76,426.299 1045.57,423.06 1049.64,419.476C1056.37,413.543 1061.76,417.622 1069.19,418.397C1073.37,418.833 1077.62,418.49 1081.81,418.15L1081.56,404.584L1045.43,404.337C1045.67,391.336 1045.76,378.267 1045.68,365.118L1034.54,365.118C1033.39,378.273 1033.22,391.428 1034.05,404.584L997.917,404.09L998.412,418.89" style="fill:rgb(209,218,223);stroke:rgb(49,50,61);stroke-width:2.91px;stroke-miterlimit:10;"/>
            </g>
        </g>
        <g transform="matrix(1.16494,0,0,1.18007,1495.06,1031.08)">
            <ellipse cx="1696.63" cy="439.49" rx="26" ry="25.667" style="fill:white;stroke:rgb(49,50,61);stroke-width:5.97px;"/>
        </g>
        <g id="Badges-08" transform="matrix(0.673077,0,0,0.673077,3471.36,1549.94)">
            <g transform="matrix(1,0,0,1,-52,-50)">
                <path d="M46.301,64.95L35.75,78.95L50.551,83L41.976,87.3C45.143,88.103 48.485,88.502 52,88.5C53.697,88.503 55.348,88.411 56.95,88.225C57.802,88.124 58.643,87.999 59.475,87.85L66.15,79.25L40.95,78.1L49.051,64.3L68.75,57L65.5,55.2L71.351,51.45L59.951,48.2L62.101,44.65L90.375,46.849C89.708,37.56 85.991,29.536 79.226,22.775C71.716,15.26 62.641,11.502 52,11.5C41.36,11.502 32.285,15.26 24.775,22.775C17.261,30.285 13.502,39.36 13.5,50C13.501,50.584 13.51,51.159 13.525,51.725L62.25,39.45L55.101,49.05L64.351,51.651L31.2,70.3L46.301,64.95ZM8.551,52.45C8.517,51.65 8.5,50.834 8.5,50C8.498,37.974 12.74,27.715 21.226,19.225C29.716,10.739 39.974,6.498 52,6.5C64.026,6.498 74.285,10.739 82.775,19.225C90.519,26.975 94.727,36.191 95.4,46.875C95.468,47.899 95.502,48.94 95.5,50C95.502,62.026 91.261,72.285 82.775,80.775C75.625,87.921 67.216,92.053 57.55,93.174C55.753,93.389 53.903,93.497 52,93.5C46.991,93.497 42.3,92.771 37.926,91.325L37.9,91.325C31.739,89.243 26.18,85.726 21.225,80.775C13.337,72.882 9.112,63.448 8.551,52.475L8.551,52.45Z" style="fill:rgb(131,213,255);"/>
            </g>
        </g>
    </g>
    <defs>
        <linearGradient id="_Linear1" x1="0" y1="0" x2="1" y2="0" gradientUnits="userSpaceOnUse" gradientTransform="matrix(223.333,0,0,213.333,470.335,294.917)"><stop offset="0" style="stop-color:rgb(125,175,255);stop-opacity:1"/><stop offset="1" style="stop-color:rgb(27,255,244);stop-opacity:1"/></linearGradient>
    </defs>
</svg>
