<?xml version="1.0" encoding="UTF-8" standalone="no"?>
<!DOCTYPE svg PUBLIC "-//W3C//DTD SVG 1.1//EN" "http://www.w3.org/Graphics/SVG/1.1/DTD/svg11.dtd">
<svg width="100%" height="100%" viewBox="0 0 232 232" version="1.1" xmlns="http://www.w3.org/2000/svg" xmlns:xlink="http://www.w3.org/1999/xlink" xml:space="preserve" xmlns:serif="http://www.serif.com/" style="fill-rule:evenodd;clip-rule:evenodd;stroke-linecap:round;stroke-linejoin:round;stroke-miterlimit:1.5;">
    <g transform="matrix(1,0,0,1,-4333.69,-2780.8)">
        <g transform="matrix(1.00746,-1.82959e-18,0,1.05469,3863.35,2585.76)">
            <ellipse cx="582.001" cy="294.917" rx="111.667" ry="106.667" style="fill:rgb(252,118,229);stroke:url(#_Linear1);stroke-width:6.79px;"/>
        </g>
        <g id="Helmet" transform="matrix(1.71935,0,0,1.71935,2663.76,2210.17)">
            <g>
                <g transform="matrix(0.283506,0.00569891,-0.00703099,0.349773,985.348,277.806)">
                    <path d="M146.396,262.495L72.15,329.387C57.315,307.98 46.046,272.568 39.064,247.75C68.273,252.04 117.274,259.816 146.396,262.495Z" style="fill:rgb(79,69,54);stroke:rgb(49,50,61);stroke-width:9.13px;"/>
                </g>
                <g transform="matrix(-0.308775,0.0348562,0.0343009,0.303856,1085.31,286.179)">
                    <path d="M126.564,258.25L73.227,338.051C58.206,315.93 44.165,272.674 39.064,247.75C68.273,252.04 97.441,255.57 126.564,258.25Z" style="fill:rgb(79,69,54);stroke:rgb(49,50,61);stroke-width:9.43px;"/>
                </g>
                <path d="M1001.09,406.693C998.408,406.243 999.219,404.993 999.711,403.287C1000.73,399.755 1001.41,393.938 1003,390.622C1008.1,379.995 1015.45,371.138 1026.76,367.564C1030.45,366.398 1036.58,366.278 1040.45,366.189C1044.7,366.091 1049,366.559 1053.15,367.499C1069.18,371.126 1076.74,388.904 1079.5,403.075C1079.63,403.759 1079.93,405.56 1078.54,405.651C1065.63,406.496 1052.69,407 1039.75,407.453C1031.78,407.732 1008.6,407.953 1001.09,406.693" style="fill:rgb(79,69,54);stroke:rgb(49,50,61);stroke-width:2.91px;stroke-miterlimit:10;"/>
                <path d="M998.412,418.89C1002.2,419.152 1006.04,419.418 1009.8,418.89C1016.46,417.953 1021.4,413.347 1027.95,418.012C1032.13,420.982 1033.06,426.387 1032.07,431.223C1031.93,431.878 1029.44,434.845 1029.84,435.91C1030.73,438.277 1035.49,446.127 1039.25,446.517C1041.17,446.716 1043.88,444.271 1044.88,443.202C1046.42,441.535 1048.32,439.124 1049.34,437.094C1050.05,435.679 1047.35,432.119 1047.07,431.075C1045.76,426.299 1045.57,423.06 1049.64,419.476C1056.37,413.543 1061.76,417.622 1069.19,418.397C1073.37,418.833 1077.62,418.49 1081.81,418.15L1081.56,404.584L1045.43,404.337C1045.67,391.336 1045.76,378.267 1045.68,365.118L1034.54,365.118C1033.39,378.273 1033.22,391.428 1034.05,404.584L997.917,404.09L998.412,418.89" style="fill:rgb(209,218,223);stroke:rgb(49,50,61);stroke-width:2.91px;stroke-miterlimit:10;"/>
            </g>
        </g>
        <g transform="matrix(1.16494,0,0,1.18007,2475.06,2375.44)">
            <ellipse cx="1696.63" cy="439.49" rx="26" ry="25.667" style="fill:white;stroke:rgb(49,50,61);stroke-width:5.97px;"/>
        </g>
        <g id="Badges-04" transform="matrix(0.673077,0,0,0.673077,4451.36,2894.3)">
            <g transform="matrix(1,0,0,1,-52,-50)">
                <path d="M36.9,17.75L33.8,27L24.55,30.05L33.8,33.15L36.9,42.4L39.95,33.15L49.25,30.05L39.95,27L36.9,17.75ZM54.601,52.5C59.467,47.9 62.834,43.75 64.701,40.05C55.267,41.417 47,45.633 39.9,52.7C38.266,54.333 36.8,56.033 35.5,57.8C43.334,58.867 49.7,57.1 54.601,52.5ZM52,88.5C62.641,88.498 71.716,84.74 79.226,77.225C85.577,70.884 89.244,63.451 90.226,54.925L90.226,54.9C90.242,54.764 90.258,54.63 90.276,54.5C86.734,53.958 82.425,55.259 77.351,58.4C71.051,62.267 65.934,68.6 62,77.4C58.849,84.479 51.648,87.629 40.4,86.85C44.036,87.955 47.902,88.505 52,88.5ZM51.351,36.55L50,32.25L48.5,36.55L44.25,37.95L48.5,39.4L50,43.65L51.351,39.4L55.651,37.95L51.351,36.55ZM95.5,49.7C95.5,49.8 95.5,49.9 95.5,50C95.497,51.86 95.39,53.685 95.176,55.475C94.091,65.149 89.957,73.582 82.776,80.775C74.285,89.26 64.026,93.502 52,93.5C43.862,93.491 36.537,91.558 30.025,87.7L30,87.675C28.382,86.69 26.799,85.582 25.25,84.35C23.873,83.264 22.532,82.072 21.226,80.775C12.74,72.285 8.498,62.026 8.5,50C8.498,37.974 12.74,27.715 21.226,19.225C29.716,10.74 39.974,6.498 52,6.5C64.026,6.498 74.285,10.74 82.775,19.225C89.884,26.342 94.018,34.717 95.175,44.35C95.39,46.081 95.498,47.864 95.5,49.7ZM90.226,44.95C90.159,44.399 90.083,43.849 90,43.3C84.413,40.8 78.312,39.55 71.7,39.55C70.2,39.55 68.75,39.617 67.35,39.75C65.183,45.817 61.083,51.55 55.05,56.95C46.384,64.683 38.45,67.233 31.25,64.6C30.284,66.533 29.483,68.533 28.851,70.6C39.318,73.933 47.917,72.35 54.651,65.85C61.384,59.317 68.234,54.483 75.201,51.35C80.998,48.703 86.097,47.886 90.501,48.9C90.472,47.549 90.381,46.232 90.226,44.95Z" style="fill:rgb(182,81,204);"/>
            </g>
        </g>
    </g>
    <defs>
        <linearGradient id="_Linear1" x1="0" y1="0" x2="1" y2="0" gradientUnits="userSpaceOnUse" gradientTransform="matrix(223.333,0,0,213.333,470.335,294.917)"><stop offset="0" style="stop-color:rgb(0,129,213);stop-opacity:1"/><stop offset="1" style="stop-color:rgb(161,51,213);stop-opacity:1"/></linearGradient>
    </defs>
</svg>
