<?xml version="1.0" encoding="UTF-8" standalone="no"?>
<!DOCTYPE svg PUBLIC "-//W3C//DTD SVG 1.1//EN" "http://www.w3.org/Graphics/SVG/1.1/DTD/svg11.dtd">
<svg width="100%" height="100%" viewBox="0 0 232 232" version="1.1" xmlns="http://www.w3.org/2000/svg" xmlns:xlink="http://www.w3.org/1999/xlink" xml:space="preserve" xmlns:serif="http://www.serif.com/" style="fill-rule:evenodd;clip-rule:evenodd;stroke-linecap:round;stroke-linejoin:round;stroke-miterlimit:1.5;">
    <g transform="matrix(1,0,0,1,-4338.03,-4102.11)">
        <g transform="matrix(1.00746,-1.82959e-18,0,1.05469,3867.68,3907.06)">
            <ellipse cx="582.001" cy="294.917" rx="111.667" ry="106.667" style="fill:rgb(252,118,229);stroke:url(#_Linear1);stroke-width:6.79px;"/>
        </g>
        <g id="Helmet" transform="matrix(1.71935,0,0,1.71935,2668.09,3531.47)">
            <g>
                <g transform="matrix(0.283506,0.00569891,-0.00703099,0.349773,985.348,277.806)">
                    <path d="M146.396,262.495L72.15,329.387C57.315,307.98 46.046,272.568 39.064,247.75C68.273,252.04 117.274,259.816 146.396,262.495Z" style="fill:rgb(79,69,54);stroke:rgb(49,50,61);stroke-width:9.13px;"/>
                </g>
                <g transform="matrix(-0.308775,0.0348562,0.0343009,0.303856,1085.31,286.179)">
                    <path d="M126.564,258.25L73.227,338.051C58.206,315.93 44.165,272.674 39.064,247.75C68.273,252.04 97.441,255.57 126.564,258.25Z" style="fill:rgb(79,69,54);stroke:rgb(49,50,61);stroke-width:9.43px;"/>
                </g>
                <path d="M1001.09,406.693C998.408,406.243 999.219,404.993 999.711,403.287C1000.73,399.755 1001.41,393.938 1003,390.622C1008.1,379.995 1015.45,371.138 1026.76,367.564C1030.45,366.398 1036.58,366.278 1040.45,366.189C1044.7,366.091 1049,366.559 1053.15,367.499C1069.18,371.126 1076.74,388.904 1079.5,403.075C1079.63,403.759 1079.93,405.56 1078.54,405.651C1065.63,406.496 1052.69,407 1039.75,407.453C1031.78,407.732 1008.6,407.953 1001.09,406.693" style="fill:rgb(79,69,54);stroke:rgb(49,50,61);stroke-width:2.91px;stroke-miterlimit:10;"/>
                <path d="M998.412,418.89C1002.2,419.152 1006.04,419.418 1009.8,418.89C1016.46,417.953 1021.4,413.347 1027.95,418.012C1032.13,420.982 1033.06,426.387 1032.07,431.223C1031.93,431.878 1029.44,434.845 1029.84,435.91C1030.73,438.277 1035.49,446.127 1039.25,446.517C1041.17,446.716 1043.88,444.271 1044.88,443.202C1046.42,441.535 1048.32,439.124 1049.34,437.094C1050.05,435.679 1047.35,432.119 1047.07,431.075C1045.76,426.299 1045.57,423.06 1049.64,419.476C1056.37,413.543 1061.76,417.622 1069.19,418.397C1073.37,418.833 1077.62,418.49 1081.81,418.15L1081.56,404.584L1045.43,404.337C1045.67,391.336 1045.76,378.267 1045.68,365.118L1034.54,365.118C1033.39,378.273 1033.22,391.428 1034.05,404.584L997.917,404.09L998.412,418.89" style="fill:rgb(209,218,223);stroke:rgb(49,50,61);stroke-width:2.91px;stroke-miterlimit:10;"/>
            </g>
        </g>
        <g transform="matrix(1.16494,0,0,1.18007,2479.4,3696.75)">
            <ellipse cx="1696.63" cy="439.49" rx="26" ry="25.667" style="fill:white;stroke:rgb(49,50,61);stroke-width:5.97px;"/>
        </g>
        <g id="Badges-02" transform="matrix(0.673077,0,0,0.673077,4455.69,4215.6)">
            <g transform="matrix(1,0,0,1,-52,-50)">
                <path d="M90.5,50C90.498,39.36 86.74,30.285 79.225,22.775C71.715,15.26 62.64,11.502 52,11.5C41.36,11.502 32.285,15.26 24.775,22.775C17.26,30.285 13.502,39.36 13.5,50C13.493,56.94 15.084,63.207 18.275,68.8C18.516,69.221 18.766,69.638 19.025,70.05L42.6,70.05L42.6,64.9C36.2,65.667 29.967,64.633 23.9,61.8C31.366,58.433 35.966,55.65 37.7,53.45C32.867,52.85 29.733,51.666 28.3,49.9C36.567,45.533 41.633,42.45 43.5,40.65C39.233,41.35 35.95,40.933 33.65,39.4C39.25,35.067 43.783,31.017 47.25,27.25C45.917,27.15 44.667,26.75 43.5,26.05C47.7,23.75 50.534,21.033 52,17.9C54.967,25.1 61.233,31.35 70.8,36.65C67.267,37.65 63.983,37.85 60.95,37.25C62.517,41.317 67.267,44.667 75.2,47.3C72.167,50.4 68.283,51.683 63.55,51.15C67.116,54.883 72.25,57.633 78.95,59.4C72.183,63.4 66.333,65.233 61.4,64.9L61.4,70.05L84.975,70.05C85.234,69.637 85.484,69.221 85.725,68.8C88.916,63.207 90.507,56.94 90.5,50ZM82.775,19.225C91.26,27.715 95.502,37.974 95.5,50C95.493,57.86 93.685,64.96 90.075,71.3C88.137,74.688 85.703,77.847 82.775,80.775C74.285,89.26 64.027,93.502 52,93.5C39.974,93.502 29.715,89.26 21.225,80.775C18.297,77.847 15.864,74.688 13.925,71.3C10.316,64.96 8.507,57.86 8.5,50C8.498,37.974 12.74,27.715 21.225,19.225C29.715,10.74 39.974,6.498 52,6.5C64.027,6.498 74.285,10.74 82.775,19.225Z" style="fill:rgb(69,164,82);"/>
            </g>
        </g>
    </g>
    <defs>
        <linearGradient id="_Linear1" x1="0" y1="0" x2="1" y2="0" gradientUnits="userSpaceOnUse" gradientTransform="matrix(223.333,0,0,213.333,470.335,294.917)"><stop offset="0" style="stop-color:rgb(38,109,0);stop-opacity:1"/><stop offset="1" style="stop-color:rgb(43,214,99);stop-opacity:1"/></linearGradient>
    </defs>
</svg>
