<?xml version="1.0" encoding="UTF-8" standalone="no"?>
<!DOCTYPE svg PUBLIC "-//W3C//DTD SVG 1.1//EN" "http://www.w3.org/Graphics/SVG/1.1/DTD/svg11.dtd">
<svg width="100%" height="100%" viewBox="0 0 232 232" version="1.1" xmlns="http://www.w3.org/2000/svg" xmlns:xlink="http://www.w3.org/1999/xlink" xml:space="preserve" xmlns:serif="http://www.serif.com/" style="fill-rule:evenodd;clip-rule:evenodd;stroke-linecap:round;stroke-linejoin:round;stroke-miterlimit:1.5;">
    <g transform="matrix(1,0,0,1,-4347.03,-3322.05)">
        <g transform="matrix(1.00746,-1.82959e-18,0,1.05469,3876.68,3127)">
            <ellipse cx="582.001" cy="294.917" rx="111.667" ry="106.667" style="fill:rgb(252,118,229);stroke:url(#_Linear1);stroke-width:6.79px;"/>
        </g>
        <g id="Helmet" transform="matrix(1.71935,0,0,1.71935,2677.09,2751.42)">
            <g>
                <g transform="matrix(0.283506,0.00569891,-0.00703099,0.349773,985.348,277.806)">
                    <path d="M146.396,262.495L72.15,329.387C57.315,307.98 46.046,272.568 39.064,247.75C68.273,252.04 117.274,259.816 146.396,262.495Z" style="fill:rgb(79,69,54);stroke:rgb(49,50,61);stroke-width:9.13px;"/>
                </g>
                <g transform="matrix(-0.308775,0.0348562,0.0343009,0.303856,1085.31,286.179)">
                    <path d="M126.564,258.25L73.227,338.051C58.206,315.93 44.165,272.674 39.064,247.75C68.273,252.04 97.441,255.57 126.564,258.25Z" style="fill:rgb(79,69,54);stroke:rgb(49,50,61);stroke-width:9.43px;"/>
                </g>
                <path d="M1001.09,406.693C998.408,406.243 999.219,404.993 999.711,403.287C1000.73,399.755 1001.41,393.938 1003,390.622C1008.1,379.995 1015.45,371.138 1026.76,367.564C1030.45,366.398 1036.58,366.278 1040.45,366.189C1044.7,366.091 1049,366.559 1053.15,367.499C1069.18,371.126 1076.74,388.904 1079.5,403.075C1079.63,403.759 1079.93,405.56 1078.54,405.651C1065.63,406.496 1052.69,407 1039.75,407.453C1031.78,407.732 1008.6,407.953 1001.09,406.693" style="fill:rgb(79,69,54);stroke:rgb(49,50,61);stroke-width:2.91px;stroke-miterlimit:10;"/>
                <path d="M998.412,418.89C1002.2,419.152 1006.04,419.418 1009.8,418.89C1016.46,417.953 1021.4,413.347 1027.95,418.012C1032.13,420.982 1033.06,426.387 1032.07,431.223C1031.93,431.878 1029.44,434.845 1029.84,435.91C1030.73,438.277 1035.49,446.127 1039.25,446.517C1041.17,446.716 1043.88,444.271 1044.88,443.202C1046.42,441.535 1048.32,439.124 1049.34,437.094C1050.05,435.679 1047.35,432.119 1047.07,431.075C1045.76,426.299 1045.57,423.06 1049.64,419.476C1056.37,413.543 1061.76,417.622 1069.19,418.397C1073.37,418.833 1077.62,418.49 1081.81,418.15L1081.56,404.584L1045.43,404.337C1045.67,391.336 1045.76,378.267 1045.68,365.118L1034.54,365.118C1033.39,378.273 1033.22,391.428 1034.05,404.584L997.917,404.09L998.412,418.89" style="fill:rgb(209,218,223);stroke:rgb(49,50,61);stroke-width:2.91px;stroke-miterlimit:10;"/>
            </g>
        </g>
        <g transform="matrix(1.16494,0,0,1.18007,2488.4,2916.69)">
            <ellipse cx="1696.63" cy="439.49" rx="26" ry="25.667" style="fill:white;stroke:rgb(49,50,61);stroke-width:5.97px;"/>
        </g>
        <g id="Badges-07" transform="matrix(0.673077,0,0,0.673077,4464.69,3435.54)">
            <g transform="matrix(1,0,0,1,-52,-50)">
                <path d="M89.95,43.05C88.611,35.342 85.036,28.583 79.224,22.776C71.715,15.26 62.64,11.502 52,11.5C41.359,11.502 32.285,15.26 24.774,22.775C17.26,30.285 13.502,39.36 13.5,50C13.499,52.794 13.766,55.494 14.3,58.1C14.333,58.268 14.367,58.434 14.4,58.6L15.751,58.6L15.751,39L24.551,39L24.551,50.85L35.251,50.85L35.251,45L40.451,45L40.451,31.85L41.701,31.85C41.834,30.817 42.284,29.901 43.051,29.1C43.951,28.201 45.034,27.717 46.301,27.651C47.568,27.717 48.651,28.201 49.551,29.1C50.318,29.901 50.768,30.817 50.901,31.85L52.151,31.85L52.151,42.55L54.601,42.55L54.601,19.35L64.851,19.35L64.851,52L70.2,52L70.2,43.05L89.95,43.05ZM94.975,42.65L94.975,42.674C95.326,45.028 95.501,47.47 95.5,49.999C95.502,62.025 91.26,72.284 82.774,80.774C74.284,89.261 64.026,93.502 52,93.5C39.974,93.502 29.715,89.261 21.225,80.775C14.96,74.508 11.018,67.283 9.399,59.1C8.801,56.173 8.5,53.14 8.5,50C8.498,37.974 12.739,27.715 21.225,19.225C29.715,10.739 39.974,6.498 52,6.5C64.026,6.498 74.284,10.739 82.774,19.225C89.464,25.917 93.53,33.725 94.975,42.65Z" style="fill:rgb(133,130,138);"/>
            </g>
        </g>
    </g>
    <defs>
        <linearGradient id="_Linear1" x1="0" y1="0" x2="1" y2="0" gradientUnits="userSpaceOnUse" gradientTransform="matrix(223.333,0,0,213.333,470.335,294.917)"><stop offset="0" style="stop-color:rgb(133,130,138);stop-opacity:1"/><stop offset="0.4" style="stop-color:rgb(177,177,190);stop-opacity:1"/><stop offset="0.72" style="stop-color:rgb(167,166,178);stop-opacity:1"/><stop offset="1" style="stop-color:rgb(133,130,138);stop-opacity:1"/></linearGradient>
    </defs>
</svg>
