<?xml version="1.0" encoding="UTF-8" standalone="no"?>
<!DOCTYPE svg PUBLIC "-//W3C//DTD SVG 1.1//EN" "http://www.w3.org/Graphics/SVG/1.1/DTD/svg11.dtd">
<svg width="100%" height="100%" viewBox="0 0 200 200" version="1.1" xmlns="http://www.w3.org/2000/svg" xmlns:xlink="http://www.w3.org/1999/xlink" xml:space="preserve" xmlns:serif="http://www.serif.com/" style="fill-rule:evenodd;clip-rule:evenodd;stroke-linecap:round;stroke-linejoin:round;stroke-miterlimit:1.5;">
    <g transform="matrix(1,0,0,1,-1684.1,-1531.5)">
        <g transform="matrix(0.971771,0,0,0.971771,1576.42,-511.52)">
            <g transform="matrix(1.20755,0,0,1.1,-216.733,-188.907)">
                <path d="M363.713,2135.73C364.488,2134.72 364.896,2133.57 364.896,2132.4C364.896,2128.72 360.938,2125.73 356.063,2125.73C351.188,2125.73 347.23,2128.72 347.23,2132.4C347.23,2133.57 347.638,2134.72 348.413,2135.73L363.713,2135.73Z" style="fill:rgb(253,243,224);"/>
                <path d="M356.205,2122.2L356.347,2122.2L356.489,2122.21L356.629,2122.21L356.77,2122.22L356.91,2122.23L357.051,2122.24L357.19,2122.25L357.329,2122.26L357.468,2122.27L357.606,2122.28L357.744,2122.3L357.88,2122.32L358.018,2122.33L358.156,2122.35L358.291,2122.37L358.426,2122.39L358.562,2122.42L358.696,2122.44L358.83,2122.47L358.964,2122.49L359.097,2122.52L359.23,2122.55L359.362,2122.58L359.492,2122.61L359.623,2122.64L359.755,2122.68L359.885,2122.71L360.014,2122.75L360.143,2122.79L360.27,2122.83L360.399,2122.87L360.526,2122.91L360.652,2122.95L360.779,2122.99L360.904,2123.04L361.027,2123.09L361.153,2123.13L361.276,2123.18L361.397,2123.23L361.52,2123.28L361.641,2123.33L361.762,2123.39L361.883,2123.44L362.001,2123.5L362.119,2123.55L362.238,2123.61L362.356,2123.67L362.472,2123.73L362.588,2123.79L362.704,2123.86L362.818,2123.92L362.931,2123.98L363.045,2124.05L363.156,2124.12L363.268,2124.19L363.379,2124.26L363.487,2124.33L363.599,2124.4L363.705,2124.47L363.812,2124.55L363.919,2124.62L364.026,2124.7L364.131,2124.78L364.234,2124.86L364.337,2124.94L364.439,2125.02L364.54,2125.1L364.64,2125.19L364.741,2125.27L364.84,2125.36L364.937,2125.45L365.033,2125.54L365.129,2125.63L365.223,2125.72L365.316,2125.81L365.41,2125.91L365.501,2126L365.591,2126.1L365.68,2126.2L365.769,2126.3L365.856,2126.4L365.942,2126.5L366.026,2126.61L366.11,2126.71L366.193,2126.82L366.273,2126.92L366.353,2127.03L366.432,2127.14L366.508,2127.26L366.583,2127.37L366.658,2127.48L366.731,2127.6L366.802,2127.72L366.872,2127.84L366.941,2127.95L367.007,2128.08L367.073,2128.2L367.136,2128.32L367.198,2128.45L367.258,2128.57L367.317,2128.7L367.374,2128.83L367.429,2128.96L367.482,2129.09L367.533,2129.23L367.583,2129.36L367.63,2129.5L367.675,2129.63L367.719,2129.77L367.76,2129.91L367.799,2130.05L367.836,2130.19L367.871,2130.33L367.904,2130.47L367.934,2130.62L367.962,2130.76L367.988,2130.91L368.011,2131.05L368.033,2131.2L368.051,2131.35L368.067,2131.5L368.081,2131.65L368.093,2131.8L368.101,2131.95L368.108,2132.1L368.111,2132.25L368.113,2132.4L368.111,2132.59L368.104,2132.79L368.094,2132.98L368.079,2133.17L368.06,2133.37L368.037,2133.56L368.011,2133.75L367.979,2133.94L367.944,2134.13L367.905,2134.31L367.863,2134.5L367.816,2134.68L367.765,2134.87L367.711,2135.05L367.654,2135.23L367.592,2135.41L367.527,2135.59L367.459,2135.76L367.388,2135.93L367.313,2136.1L367.234,2136.28L367.152,2136.44L367.068,2136.61L366.981,2136.77L366.889,2136.93L366.796,2137.09L366.7,2137.25L366.601,2137.4L366.499,2137.56L366.393,2137.71L366.286,2137.86L366.196,2137.98L366.098,2138.1L365.996,2138.22L365.888,2138.33L365.776,2138.44L365.659,2138.54L365.538,2138.64L365.413,2138.73L365.285,2138.81L365.153,2138.89L365.018,2138.96L364.88,2139.02L364.74,2139.08L364.597,2139.13L364.453,2139.17L364.307,2139.2L364.159,2139.23L364.011,2139.25L363.862,2139.26L363.713,2139.26L348.413,2139.26L348.264,2139.26L348.115,2139.25L347.967,2139.23L347.82,2139.2L347.674,2139.17L347.53,2139.13L347.387,2139.08L347.247,2139.02L347.109,2138.96L346.974,2138.89L346.842,2138.81L346.714,2138.73L346.589,2138.64L346.468,2138.55L346.352,2138.44L346.239,2138.34L346.132,2138.22L346.029,2138.1L345.932,2137.98L345.841,2137.86L345.732,2137.71L345.627,2137.56L345.525,2137.4L345.426,2137.25L345.33,2137.09L345.236,2136.93L345.145,2136.77L345.058,2136.61L344.973,2136.44L344.892,2136.28L344.813,2136.1L344.738,2135.93L344.667,2135.76L344.599,2135.59L344.534,2135.41L344.473,2135.23L344.414,2135.05L344.36,2134.87L344.31,2134.68L344.263,2134.5L344.221,2134.31L344.182,2134.13L344.147,2133.94L344.116,2133.75L344.089,2133.56L344.066,2133.37L344.047,2133.17L344.032,2132.98L344.021,2132.79L344.015,2132.59L344.013,2132.41L344.014,2132.25L344.018,2132.1L344.025,2131.95L344.033,2131.8L344.045,2131.65L344.059,2131.5L344.075,2131.35L344.093,2131.2L344.115,2131.05L344.138,2130.91L344.164,2130.76L344.191,2130.62L344.222,2130.47L344.255,2130.33L344.29,2130.19L344.327,2130.05L344.366,2129.91L344.407,2129.77L344.45,2129.63L344.496,2129.49L344.544,2129.36L344.592,2129.23L344.644,2129.09L344.697,2128.96L344.752,2128.83L344.808,2128.7L344.868,2128.57L344.928,2128.45L344.99,2128.32L345.052,2128.2L345.118,2128.08L345.186,2127.95L345.253,2127.84L345.323,2127.72L345.396,2127.6L345.468,2127.48L345.541,2127.37L345.618,2127.26L345.694,2127.14L345.773,2127.03L345.853,2126.92L345.934,2126.82L346.017,2126.71L346.1,2126.61L346.184,2126.5L346.27,2126.4L346.356,2126.3L346.445,2126.2L346.536,2126.1L346.626,2126L346.716,2125.91L346.809,2125.81L346.902,2125.72L346.997,2125.63L347.093,2125.54L347.19,2125.45L347.286,2125.36L347.385,2125.27L347.486,2125.19L347.586,2125.1L347.686,2125.02L347.789,2124.94L347.891,2124.86L347.994,2124.78L348.101,2124.7L348.207,2124.62L348.313,2124.55L348.42,2124.47L348.528,2124.4L348.639,2124.33L348.747,2124.26L348.857,2124.19L348.969,2124.12L349.082,2124.05L349.195,2123.98L349.308,2123.92L349.423,2123.86L349.538,2123.79L349.654,2123.73L349.77,2123.67L349.887,2123.61L350.007,2123.55L350.125,2123.5L350.242,2123.44L350.364,2123.39L350.485,2123.33L350.606,2123.28L350.728,2123.23L350.85,2123.18L350.974,2123.13L351.099,2123.09L351.222,2123.04L351.347,2122.99L351.474,2122.95L351.6,2122.91L351.728,2122.87L351.856,2122.83L351.983,2122.79L352.112,2122.75L352.241,2122.71L352.371,2122.68L352.503,2122.64L352.633,2122.61L352.764,2122.58L352.896,2122.55L353.029,2122.52L353.163,2122.49L353.296,2122.47L353.43,2122.44L353.563,2122.42L353.7,2122.39L353.835,2122.37L353.97,2122.35L354.108,2122.33L354.246,2122.32L354.382,2122.3L354.52,2122.28L354.658,2122.27L354.797,2122.26L354.936,2122.25L355.075,2122.24L355.216,2122.23L355.356,2122.22L355.497,2122.21L355.637,2122.21L355.779,2122.2L355.921,2122.2L356.063,2122.2L356.205,2122.2ZM355.949,2125.73L355.835,2125.74L355.722,2125.74L355.609,2125.74L355.496,2125.75L355.384,2125.75L355.272,2125.76L355.16,2125.77L355.049,2125.78L354.939,2125.79L354.828,2125.8L354.718,2125.81L354.609,2125.82L354.5,2125.84L354.392,2125.85L354.284,2125.87L354.176,2125.89L354.069,2125.9L353.963,2125.92L353.856,2125.94L353.751,2125.96L353.646,2125.99L353.541,2126.01L353.437,2126.03L353.334,2126.06L353.231,2126.08L353.129,2126.11L353.027,2126.14L352.926,2126.17L352.825,2126.2L352.725,2126.23L352.626,2126.26L352.527,2126.29L352.429,2126.32L352.332,2126.36L352.235,2126.39L352.139,2126.43L352.043,2126.46L351.948,2126.5L351.854,2126.54L351.76,2126.58L351.668,2126.62L351.575,2126.66L351.484,2126.7L351.393,2126.74L351.303,2126.78L351.214,2126.83L351.126,2126.87L351.038,2126.92L350.951,2126.96L350.865,2127.01L350.779,2127.06L350.695,2127.11L350.611,2127.16L350.528,2127.21L350.445,2127.26L350.364,2127.31L350.284,2127.36L350.204,2127.41L350.125,2127.47L350.047,2127.52L349.97,2127.57L349.893,2127.63L349.818,2127.69L349.744,2127.74L349.67,2127.8L349.597,2127.86L349.526,2127.92L349.455,2127.98L349.385,2128.04L349.316,2128.1L349.248,2128.16L349.181,2128.22L349.115,2128.28L349.05,2128.35L348.985,2128.41L348.922,2128.48L348.86,2128.54L348.799,2128.61L348.739,2128.67L348.68,2128.74L348.622,2128.81L348.565,2128.88L348.509,2128.94L348.454,2129.01L348.401,2129.08L348.348,2129.15L348.296,2129.22L348.246,2129.3L348.197,2129.37L348.148,2129.44L348.101,2129.51L348.055,2129.58L348.01,2129.66L347.967,2129.73L347.924,2129.81L347.883,2129.88L347.843,2129.96L347.804,2130.03L347.766,2130.11L347.729,2130.19L347.694,2130.26L347.66,2130.34L347.627,2130.42L347.595,2130.5L347.565,2130.58L347.536,2130.66L347.508,2130.74L347.481,2130.82L347.456,2130.89L347.432,2130.98L347.409,2131.06L347.388,2131.14L347.368,2131.22L347.349,2131.3L347.331,2131.39L347.315,2131.47L347.301,2131.55L347.287,2131.64L347.275,2131.72L347.265,2131.8L347.255,2131.89L347.248,2131.97L347.241,2132.06L347.236,2132.14L347.233,2132.23L347.23,2132.31L347.23,2132.4L347.231,2132.51L347.234,2132.62L347.24,2132.73L347.249,2132.84L347.259,2132.95L347.272,2133.05L347.288,2133.16L347.306,2133.27L347.326,2133.38L347.348,2133.49L347.373,2133.6L347.4,2133.7L347.429,2133.81L347.461,2133.91L347.494,2134.02L347.531,2134.13L347.569,2134.23L347.61,2134.34L347.653,2134.44L347.698,2134.54L347.745,2134.64L347.795,2134.75L347.847,2134.85L347.901,2134.95L347.957,2135.05L348.016,2135.15L348.077,2135.25L348.14,2135.35L348.205,2135.45L348.272,2135.54L348.341,2135.64L348.413,2135.73L363.713,2135.73L363.784,2135.64L363.854,2135.54L363.921,2135.45L363.986,2135.35L364.049,2135.25L364.11,2135.15L364.168,2135.05L364.225,2134.95L364.279,2134.85L364.331,2134.75L364.381,2134.64L364.428,2134.54L364.473,2134.44L364.516,2134.34L364.557,2134.23L364.595,2134.13L364.631,2134.02L364.665,2133.91L364.697,2133.81L364.726,2133.7L364.753,2133.6L364.778,2133.49L364.8,2133.38L364.82,2133.27L364.838,2133.16L364.854,2133.05L364.867,2132.95L364.877,2132.84L364.886,2132.73L364.892,2132.62L364.895,2132.51L364.896,2132.4L364.896,2132.31L364.893,2132.23L364.89,2132.14L364.885,2132.06L364.878,2131.97L364.871,2131.89L364.861,2131.8L364.851,2131.72L364.839,2131.64L364.825,2131.55L364.811,2131.47L364.794,2131.39L364.777,2131.3L364.758,2131.22L364.738,2131.14L364.717,2131.06L364.694,2130.98L364.67,2130.89L364.645,2130.82L364.618,2130.74L364.59,2130.66L364.561,2130.58L364.531,2130.5L364.499,2130.42L364.466,2130.34L364.432,2130.26L364.396,2130.19L364.36,2130.11L364.322,2130.03L364.283,2129.96L364.243,2129.88L364.202,2129.81L364.159,2129.73L364.115,2129.66L364.071,2129.58L364.025,2129.51L363.978,2129.44L363.929,2129.37L363.88,2129.3L363.829,2129.22L363.778,2129.15L363.725,2129.08L363.672,2129.01L363.617,2128.94L363.561,2128.88L363.504,2128.81L363.446,2128.74L363.387,2128.67L363.327,2128.61L363.266,2128.54L363.204,2128.48L363.14,2128.41L363.076,2128.35L363.011,2128.28L362.945,2128.22L362.878,2128.16L362.81,2128.1L362.741,2128.04L362.671,2127.98L362.6,2127.92L362.529,2127.86L362.456,2127.8L362.382,2127.74L362.308,2127.69L362.232,2127.63L362.156,2127.57L362.079,2127.52L362.001,2127.47L361.922,2127.41L361.842,2127.36L361.762,2127.31L361.68,2127.26L361.598,2127.21L361.515,2127.16L361.431,2127.11L361.347,2127.06L361.261,2127.01L361.175,2126.96L361.088,2126.92L361,2126.87L360.912,2126.83L360.823,2126.78L360.733,2126.74L360.642,2126.7L360.55,2126.66L360.458,2126.62L360.366,2126.58L360.272,2126.54L360.178,2126.5L360.083,2126.46L359.987,2126.43L359.891,2126.39L359.794,2126.36L359.697,2126.32L359.599,2126.29L359.5,2126.26L359.401,2126.23L359.301,2126.2L359.2,2126.17L359.099,2126.14L358.997,2126.11L358.895,2126.08L358.792,2126.06L358.689,2126.03L358.585,2126.01L358.48,2125.99L358.375,2125.96L358.269,2125.94L358.163,2125.92L358.057,2125.9L357.95,2125.89L357.842,2125.87L357.734,2125.85L357.626,2125.84L357.517,2125.82L357.407,2125.81L357.298,2125.8L357.187,2125.79L357.077,2125.78L356.966,2125.77L356.854,2125.76L356.742,2125.75L356.63,2125.75L356.517,2125.74L356.404,2125.74L356.291,2125.74L356.177,2125.73L356.063,2125.73L355.949,2125.73Z" style="fill:rgb(66,65,76);"/>
            </g>
            <path d="M118.522,2237.4C171.048,2271.59 274.845,2267.25 308.896,2234.73C302.004,2225.47 294.031,2220.55 280.23,2220.07C280.23,2220.07 271.231,2208.93 270.563,2203.4C262.908,2140.05 161.35,2144.26 156.896,2202.73C156.432,2208.83 146.563,2219.4 146.563,2219.4C132.408,2220.42 120.483,2226.75 118.522,2237.4Z" style="fill:rgb(253,243,224);"/>
            <path d="M214.134,2152.4L214.47,2152.4L214.809,2152.4L215.147,2152.41L215.483,2152.42L215.821,2152.43L216.158,2152.43L216.496,2152.45L216.833,2152.46L217.169,2152.47L217.506,2152.49L217.843,2152.51L218.18,2152.53L218.517,2152.55L218.854,2152.57L219.191,2152.59L219.526,2152.62L219.863,2152.65L220.2,2152.67L220.536,2152.7L220.871,2152.74L221.207,2152.77L221.543,2152.8L221.878,2152.84L222.215,2152.88L222.549,2152.91L222.884,2152.95L223.219,2153L223.553,2153.04L223.887,2153.08L224.221,2153.13L224.555,2153.18L224.888,2153.23L225.221,2153.28L225.555,2153.33L225.888,2153.39L226.219,2153.44L226.551,2153.5L226.884,2153.56L227.215,2153.62L227.546,2153.68L227.877,2153.74L228.208,2153.81L228.538,2153.87L228.867,2153.94L229.198,2154.01L229.527,2154.08L229.855,2154.15L230.184,2154.23L230.512,2154.3L230.839,2154.38L231.166,2154.46L231.494,2154.54L231.82,2154.62L232.145,2154.7L232.472,2154.79L232.797,2154.88L233.121,2154.96L233.445,2155.05L233.768,2155.14L234.092,2155.24L234.415,2155.33L234.736,2155.43L235.058,2155.52L235.379,2155.62L235.7,2155.72L236.021,2155.82L236.34,2155.93L236.659,2156.03L236.977,2156.14L237.295,2156.25L237.612,2156.36L237.93,2156.47L238.246,2156.58L238.561,2156.7L238.876,2156.82L239.19,2156.93L239.503,2157.05L239.817,2157.17L240.129,2157.3L240.44,2157.42L240.751,2157.55L241.063,2157.67L241.372,2157.8L241.68,2157.93L241.989,2158.07L242.296,2158.2L242.603,2158.33L242.909,2158.47L243.215,2158.61L243.52,2158.75L243.823,2158.89L244.126,2159.03L244.429,2159.18L244.73,2159.33L245.03,2159.47L245.33,2159.63L245.63,2159.78L245.929,2159.93L246.225,2160.09L246.523,2160.24L246.818,2160.4L247.113,2160.56L247.406,2160.72L247.7,2160.88L247.992,2161.05L248.283,2161.21L248.574,2161.38L248.864,2161.55L249.151,2161.72L249.44,2161.9L249.727,2162.07L250.011,2162.25L250.297,2162.42L250.58,2162.6L250.863,2162.78L251.146,2162.97L251.426,2163.15L251.705,2163.34L251.984,2163.53L252.262,2163.72L252.539,2163.91L252.814,2164.1L253.088,2164.29L253.362,2164.49L253.634,2164.69L253.905,2164.89L254.175,2165.09L254.444,2165.29L254.712,2165.49L254.979,2165.7L255.244,2165.91L255.509,2166.12L255.772,2166.33L256.033,2166.54L256.295,2166.76L256.554,2166.97L256.812,2167.19L257.07,2167.41L257.326,2167.63L257.579,2167.85L257.833,2168.08L258.085,2168.3L258.336,2168.53L258.586,2168.76L258.833,2168.99L259.081,2169.22L259.327,2169.46L259.57,2169.69L259.813,2169.93L260.055,2170.17L260.294,2170.41L260.533,2170.66L260.771,2170.9L261.007,2171.15L261.241,2171.39L261.474,2171.64L261.705,2171.9L261.935,2172.15L262.165,2172.4L262.392,2172.66L262.618,2172.92L262.842,2173.18L263.064,2173.44L263.285,2173.7L263.505,2173.97L263.723,2174.23L263.94,2174.5L264.154,2174.77L264.368,2175.04L264.581,2175.32L264.79,2175.59L264.999,2175.87L265.206,2176.14L265.411,2176.43L265.615,2176.71L265.817,2176.99L266.017,2177.27L266.216,2177.56L266.413,2177.85L266.608,2178.14L266.802,2178.43L266.994,2178.72L267.184,2179.02L267.372,2179.31L267.559,2179.61L267.744,2179.91L267.927,2180.21L268.109,2180.52L268.289,2180.82L268.466,2181.13L268.642,2181.43L268.816,2181.74L268.988,2182.06L269.159,2182.37L269.327,2182.68L269.494,2183L269.658,2183.32L269.822,2183.64L269.983,2183.96L270.142,2184.28L270.299,2184.61L270.454,2184.93L270.607,2185.26L270.759,2185.59L270.909,2185.92L271.056,2186.25L271.202,2186.58L271.345,2186.92L271.486,2187.25L271.626,2187.59L271.763,2187.93L271.899,2188.28L272.032,2188.62L272.163,2188.96L272.293,2189.31L272.42,2189.66L272.545,2190.01L272.668,2190.36L272.789,2190.71L272.908,2191.07L273.025,2191.42L273.139,2191.78L273.252,2192.14L273.362,2192.5L273.47,2192.86L273.577,2193.22L273.68,2193.59L273.782,2193.95L273.882,2194.32L273.98,2194.69L274.074,2195.06L274.167,2195.44L274.258,2195.81L274.347,2196.19L274.433,2196.56L274.517,2196.94L274.599,2197.32L274.679,2197.7L274.756,2198.09L274.831,2198.47L274.904,2198.86L274.975,2199.25L275.043,2199.64L275.109,2200.03L275.173,2200.42L275.234,2200.81L275.293,2201.21L275.35,2201.6L275.404,2202L275.457,2202.4L275.502,2202.77L275.51,2202.83L275.515,2202.87L275.523,2202.91L275.533,2202.96L275.544,2203.01L275.558,2203.08L275.575,2203.14L275.593,2203.22L275.615,2203.3L275.639,2203.38L275.666,2203.47L275.695,2203.56L275.726,2203.65L275.761,2203.76L275.798,2203.86L275.837,2203.97L275.879,2204.08L275.924,2204.2L275.971,2204.31L276.021,2204.43L276.072,2204.56L276.126,2204.68L276.182,2204.81L276.241,2204.94L276.301,2205.07L276.364,2205.21L276.429,2205.35L276.497,2205.49L276.564,2205.63L276.635,2205.77L276.708,2205.91L276.783,2206.06L276.859,2206.2L276.936,2206.35L277.016,2206.5L277.096,2206.65L277.179,2206.8L277.264,2206.96L277.349,2207.11L277.436,2207.27L277.524,2207.42L277.613,2207.58L277.704,2207.73L277.793,2207.89L277.982,2208.2L278.172,2208.52L278.366,2208.84L278.563,2209.15L278.762,2209.47L278.963,2209.79L279.166,2210.1L279.37,2210.41L279.575,2210.72L279.781,2211.03L279.987,2211.34L280.192,2211.64L280.396,2211.93L280.599,2212.23L280.8,2212.51L281,2212.8L281.197,2213.07L281.39,2213.35L281.581,2213.61L281.767,2213.87L281.95,2214.12L282.128,2214.36L282.302,2214.59L282.467,2214.81L282.77,2215.22L282.807,2215.22L283.144,2215.25L283.479,2215.27L283.812,2215.3L284.143,2215.33L284.473,2215.37L284.801,2215.4L285.128,2215.44L285.451,2215.48L285.775,2215.52L286.096,2215.56L286.415,2215.6L286.733,2215.65L287.05,2215.7L287.366,2215.75L287.68,2215.8L287.991,2215.85L288.301,2215.91L288.61,2215.97L288.918,2216.03L289.224,2216.09L289.527,2216.15L289.83,2216.21L290.132,2216.28L290.431,2216.35L290.73,2216.42L291.026,2216.49L291.321,2216.57L291.615,2216.64L291.907,2216.72L292.199,2216.8L292.488,2216.89L292.775,2216.97L293.062,2217.06L293.347,2217.14L293.63,2217.24L293.913,2217.33L294.193,2217.42L294.472,2217.52L294.75,2217.62L295.026,2217.72L295.3,2217.82L295.575,2217.92L295.847,2218.03L296.116,2218.14L296.386,2218.25L296.654,2218.36L296.919,2218.47L297.184,2218.59L297.447,2218.71L297.709,2218.83L297.969,2218.95L298.228,2219.07L298.486,2219.2L298.742,2219.33L298.998,2219.45L299.25,2219.59L299.501,2219.72L299.752,2219.85L300,2219.99L300.248,2220.13L300.494,2220.27L300.739,2220.41L300.982,2220.56L301.224,2220.7L301.463,2220.85L301.701,2221L301.941,2221.16L302.176,2221.31L302.41,2221.46L302.644,2221.62L302.876,2221.78L303.107,2221.94L303.334,2222.1L303.562,2222.27L303.789,2222.43L304.013,2222.6L304.237,2222.77L304.458,2222.94L304.68,2223.11L304.899,2223.29L305.117,2223.47L305.333,2223.64L305.55,2223.82L305.764,2224L305.975,2224.19L306.188,2224.37L306.398,2224.56L306.606,2224.74L306.815,2224.93L307.022,2225.12L307.227,2225.32L307.431,2225.51L307.633,2225.7L307.835,2225.9L308.035,2226.1L308.235,2226.3L308.433,2226.5L308.63,2226.7L308.826,2226.91L309.021,2227.11L309.216,2227.32L309.408,2227.53L309.599,2227.74L309.79,2227.95L309.98,2228.16L310.168,2228.38L310.356,2228.59L310.543,2228.81L310.728,2229.03L310.913,2229.25L311.097,2229.47L311.281,2229.7L311.462,2229.92L311.643,2230.14L311.825,2230.37L312.004,2230.6L312.182,2230.83L312.361,2231.06L312.538,2231.29L312.715,2231.53L312.884,2231.75L313.215,2232.26L313.483,2232.8L313.684,2233.36L313.814,2233.95L313.872,2234.55L313.858,2235.16L313.77,2235.75L313.611,2236.33L313.384,2236.89L313.09,2237.42L312.735,2237.91L312.323,2238.35L312.114,2238.54L311.893,2238.75L311.667,2238.96L311.442,2239.17L311.216,2239.37L310.988,2239.58L310.758,2239.78L310.526,2239.99L310.293,2240.19L310.059,2240.39L309.822,2240.59L309.584,2240.79L309.346,2240.99L309.106,2241.19L308.864,2241.39L308.621,2241.58L308.376,2241.78L308.13,2241.97L307.883,2242.16L307.634,2242.36L307.382,2242.55L307.13,2242.74L306.878,2242.93L306.623,2243.12L306.367,2243.31L306.111,2243.5L305.851,2243.68L305.59,2243.87L305.329,2244.05L305.067,2244.24L304.802,2244.42L304.536,2244.61L304.27,2244.79L304.002,2244.97L303.732,2245.15L303.461,2245.33L303.188,2245.51L302.914,2245.68L302.64,2245.86L302.363,2246.04L302.086,2246.21L301.808,2246.39L301.527,2246.56L301.246,2246.73L300.963,2246.91L300.679,2247.08L300.394,2247.25L300.109,2247.42L299.82,2247.59L299.531,2247.75L299.242,2247.92L298.95,2248.09L298.657,2248.25L298.363,2248.42L298.068,2248.58L297.771,2248.74L297.474,2248.91L297.175,2249.07L296.875,2249.23L296.574,2249.39L296.271,2249.55L295.968,2249.71L295.664,2249.86L295.357,2250.02L295.051,2250.18L294.743,2250.33L294.433,2250.49L294.121,2250.64L293.811,2250.79L293.498,2250.95L293.183,2251.1L292.869,2251.25L292.552,2251.4L292.235,2251.55L291.916,2251.69L291.596,2251.84L291.276,2251.99L290.953,2252.13L290.632,2252.28L290.308,2252.42L289.982,2252.57L289.655,2252.71L289.328,2252.85L288.999,2252.99L288.67,2253.13L288.34,2253.27L288.008,2253.41L287.675,2253.55L287.341,2253.69L287.007,2253.82L286.672,2253.96L286.334,2254.1L285.996,2254.23L285.658,2254.36L285.318,2254.5L284.976,2254.63L284.635,2254.76L284.292,2254.89L283.948,2255.02L283.602,2255.15L283.256,2255.28L282.91,2255.41L282.562,2255.53L282.213,2255.66L281.863,2255.78L281.512,2255.91L281.161,2256.03L280.807,2256.16L280.453,2256.28L280.099,2256.4L279.743,2256.52L279.387,2256.64L279.03,2256.76L278.671,2256.88L278.311,2256.99L277.951,2257.11L277.59,2257.23L277.228,2257.34L276.865,2257.46L276.5,2257.57L276.136,2257.69L275.771,2257.8L275.404,2257.91L275.036,2258.02L274.667,2258.13L274.299,2258.24L273.929,2258.35L273.557,2258.46L273.185,2258.57L272.813,2258.67L272.44,2258.78L272.065,2258.88L271.689,2258.99L271.314,2259.09L270.937,2259.19L270.559,2259.3L270.181,2259.4L269.801,2259.5L269.421,2259.6L269.041,2259.7L268.66,2259.79L268.277,2259.89L267.893,2259.99L267.509,2260.08L267.124,2260.18L266.739,2260.27L266.352,2260.37L265.965,2260.46L265.577,2260.55L265.188,2260.64L264.8,2260.74L264.409,2260.83L264.018,2260.91L263.627,2261L263.234,2261.09L262.841,2261.18L262.447,2261.26L262.053,2261.35L261.658,2261.43L261.262,2261.52L260.865,2261.6L260.467,2261.68L260.07,2261.76L259.671,2261.85L259.271,2261.93L258.872,2262.01L258.471,2262.09L258.07,2262.16L257.668,2262.24L257.264,2262.32L256.862,2262.39L256.459,2262.47L256.054,2262.54L255.648,2262.62L255.242,2262.69L254.836,2262.76L254.429,2262.83L254.021,2262.9L253.613,2262.97L253.204,2263.04L252.794,2263.11L252.385,2263.18L251.974,2263.24L251.563,2263.31L251.151,2263.37L250.739,2263.44L250.326,2263.5L249.912,2263.57L249.498,2263.63L249.083,2263.69L248.668,2263.75L248.252,2263.81L247.837,2263.87L247.42,2263.93L247.001,2263.99L246.583,2264.04L246.166,2264.1L245.747,2264.15L245.328,2264.21L244.909,2264.26L244.487,2264.32L244.066,2264.37L243.645,2264.42L243.224,2264.47L242.802,2264.52L242.378,2264.57L241.956,2264.62L241.532,2264.67L241.107,2264.71L240.683,2264.76L240.258,2264.8L239.832,2264.85L239.407,2264.89L238.981,2264.94L238.554,2264.98L238.127,2265.02L237.698,2265.06L237.271,2265.1L236.843,2265.14L236.413,2265.18L235.985,2265.22L235.555,2265.26L235.125,2265.29L234.694,2265.33L234.265,2265.36L233.833,2265.4L233.401,2265.43L232.97,2265.46L232.538,2265.49L232.105,2265.53L231.672,2265.55L231.239,2265.58L230.805,2265.61L230.372,2265.64L229.938,2265.67L229.501,2265.7L228.633,2265.74L227.762,2265.79L226.891,2265.84L226.017,2265.88L225.143,2265.92L224.267,2265.95L223.391,2265.98L222.513,2266.01L221.635,2266.04L220.756,2266.06L219.876,2266.08L218.995,2266.1L218.113,2266.11L217.232,2266.12L216.349,2266.13L215.465,2266.13L214.581,2266.13L213.696,2266.13L212.811,2266.12L211.928,2266.11L211.482,2266.11L211.04,2266.1L210.597,2266.09L210.153,2266.09L209.709,2266.08L209.266,2266.07L208.823,2266.06L208.379,2266.05L207.936,2266.03L207.493,2266.02L207.048,2266.01L206.604,2265.99L206.161,2265.98L205.717,2265.96L205.273,2265.95L204.829,2265.93L204.385,2265.91L203.942,2265.89L203.497,2265.87L203.053,2265.85L202.609,2265.83L202.166,2265.81L201.721,2265.78L201.277,2265.76L200.833,2265.74L200.39,2265.71L199.946,2265.68L199.502,2265.66L199.059,2265.63L198.614,2265.6L198.17,2265.57L197.727,2265.54L197.284,2265.51L196.839,2265.48L196.396,2265.44L195.954,2265.41L195.51,2265.38L195.067,2265.34L194.623,2265.31L194.181,2265.27L193.738,2265.23L193.295,2265.19L192.852,2265.15L192.409,2265.11L191.967,2265.07L191.525,2265.03L191.083,2264.99L190.641,2264.95L190.199,2264.9L189.757,2264.86L189.315,2264.81L188.874,2264.76L188.433,2264.72L187.991,2264.67L187.551,2264.62L187.11,2264.57L186.669,2264.52L186.229,2264.47L185.789,2264.42L185.349,2264.36L184.909,2264.31L184.469,2264.26L184.03,2264.2L183.591,2264.14L183.152,2264.09L182.713,2264.03L182.275,2263.97L181.837,2263.91L181.399,2263.85L180.961,2263.79L180.524,2263.73L180.086,2263.66L179.65,2263.6L179.213,2263.53L178.777,2263.47L178.341,2263.4L177.905,2263.34L177.469,2263.27L177.034,2263.2L176.599,2263.13L176.164,2263.06L175.731,2262.99L175.297,2262.92L174.863,2262.84L174.43,2262.77L173.997,2262.7L173.564,2262.62L173.132,2262.54L172.7,2262.47L172.268,2262.39L171.837,2262.31L171.406,2262.23L170.976,2262.15L170.546,2262.07L170.116,2261.99L169.686,2261.9L169.258,2261.82L168.83,2261.74L168.4,2261.65L167.973,2261.56L167.546,2261.48L167.119,2261.39L166.693,2261.3L166.267,2261.21L165.841,2261.12L165.415,2261.03L164.991,2260.94L164.567,2260.84L164.143,2260.75L163.719,2260.65L163.297,2260.56L162.874,2260.46L162.452,2260.37L162.03,2260.27L161.609,2260.17L161.188,2260.07L160.769,2259.97L160.35,2259.87L159.93,2259.76L159.511,2259.66L159.094,2259.55L158.677,2259.45L158.259,2259.34L157.843,2259.24L157.428,2259.13L157.012,2259.02L156.596,2258.91L156.183,2258.8L155.769,2258.69L155.355,2258.58L154.943,2258.47L154.531,2258.35L154.119,2258.24L153.709,2258.12L153.298,2258L152.889,2257.89L152.48,2257.77L152.071,2257.65L151.664,2257.53L151.257,2257.41L150.85,2257.29L150.443,2257.16L150.038,2257.04L149.634,2256.92L149.229,2256.79L148.826,2256.67L148.423,2256.54L148.021,2256.41L147.619,2256.28L147.219,2256.15L146.819,2256.02L146.419,2255.89L146.02,2255.76L145.622,2255.63L145.224,2255.49L144.827,2255.36L144.432,2255.22L144.037,2255.09L143.642,2254.95L143.248,2254.81L142.855,2254.67L142.462,2254.53L142.071,2254.39L141.68,2254.24L141.29,2254.1L140.9,2253.96L140.511,2253.81L140.123,2253.67L139.736,2253.52L139.349,2253.37L138.963,2253.22L138.579,2253.08L138.195,2252.93L137.811,2252.77L137.429,2252.62L137.047,2252.47L136.666,2252.32L136.286,2252.16L135.907,2252.01L135.528,2251.85L135.15,2251.69L134.773,2251.53L134.398,2251.37L134.022,2251.21L133.648,2251.05L133.276,2250.89L132.903,2250.73L132.53,2250.56L132.159,2250.4L131.79,2250.23L131.42,2250.06L131.051,2249.9L130.685,2249.73L130.319,2249.56L129.953,2249.39L129.588,2249.22L129.225,2249.04L128.862,2248.87L128.5,2248.7L128.138,2248.52L127.778,2248.34L127.42,2248.17L127.061,2247.99L126.704,2247.81L126.347,2247.63L125.992,2247.45L125.638,2247.27L125.284,2247.08L124.932,2246.9L124.581,2246.72L124.231,2246.53L123.881,2246.34L123.532,2246.16L123.186,2245.97L122.838,2245.78L122.492,2245.59L122.149,2245.4L121.806,2245.2L121.463,2245.01L121.122,2244.82L120.781,2244.62L120.442,2244.42L120.105,2244.23L119.767,2244.03L119.43,2243.83L119.096,2243.63L118.762,2243.43L118.429,2243.23L118.097,2243.02L117.766,2242.82L117.437,2242.61L117.109,2242.41L116.78,2242.2L116.455,2241.99L116.13,2241.78L115.813,2241.58L115.34,2241.23L114.91,2240.83L114.531,2240.38L114.208,2239.89L113.945,2239.36L113.746,2238.81L113.613,2238.23L113.549,2237.65L113.554,2237.06L113.629,2236.48L113.656,2236.34L113.687,2236.18L113.72,2236.01L113.754,2235.85L113.79,2235.69L113.826,2235.53L113.863,2235.37L113.902,2235.22L113.942,2235.06L113.983,2234.9L114.025,2234.74L114.069,2234.59L114.114,2234.43L114.159,2234.27L114.205,2234.12L114.255,2233.96L114.305,2233.8L114.353,2233.65L114.405,2233.5L114.458,2233.35L114.511,2233.2L114.566,2233.04L114.623,2232.89L114.68,2232.74L114.737,2232.59L114.796,2232.44L114.856,2232.29L114.918,2232.14L114.981,2231.99L115.044,2231.85L115.109,2231.7L115.175,2231.55L115.24,2231.41L115.308,2231.26L115.377,2231.12L115.448,2230.97L115.517,2230.83L115.589,2230.69L115.662,2230.55L115.736,2230.41L115.811,2230.27L115.886,2230.13L115.963,2229.99L116.041,2229.85L116.119,2229.71L116.2,2229.57L116.281,2229.43L116.361,2229.3L116.443,2229.16L116.528,2229.03L116.611,2228.89L116.695,2228.76L116.783,2228.63L116.871,2228.49L116.958,2228.36L117.046,2228.23L117.137,2228.1L117.227,2227.97L117.318,2227.84L117.411,2227.71L117.503,2227.59L117.597,2227.46L117.692,2227.33L117.788,2227.21L117.884,2227.08L117.983,2226.96L118.08,2226.84L118.178,2226.71L118.279,2226.59L118.379,2226.47L118.481,2226.35L118.583,2226.23L118.686,2226.11L118.789,2225.99L118.895,2225.87L119,2225.75L119.104,2225.64L119.211,2225.52L119.319,2225.4L119.429,2225.29L119.535,2225.18L119.646,2225.06L119.757,2224.95L119.866,2224.84L119.98,2224.72L120.091,2224.61L120.205,2224.5L120.325,2224.39L120.548,2224.18L120.781,2223.96L121.016,2223.75L121.252,2223.54L121.493,2223.33L121.737,2223.13L121.983,2222.93L122.229,2222.73L122.479,2222.53L122.732,2222.34L122.987,2222.14L123.244,2221.96L123.503,2221.77L123.765,2221.59L124.03,2221.4L124.296,2221.22L124.563,2221.05L124.834,2220.88L125.107,2220.7L125.381,2220.53L125.657,2220.37L125.936,2220.2L126.216,2220.04L126.499,2219.88L126.784,2219.73L127.071,2219.57L127.357,2219.42L127.647,2219.27L127.941,2219.12L128.234,2218.98L128.529,2218.84L128.827,2218.69L129.126,2218.56L129.426,2218.42L129.728,2218.29L130.033,2218.16L130.34,2218.03L130.647,2217.9L130.954,2217.78L131.265,2217.65L131.578,2217.53L131.891,2217.42L132.207,2217.3L132.524,2217.19L132.842,2217.08L133.16,2216.97L133.482,2216.86L133.805,2216.76L134.129,2216.65L134.455,2216.55L134.781,2216.46L135.109,2216.36L135.438,2216.27L135.768,2216.18L136.101,2216.09L136.434,2216L136.769,2215.91L137.105,2215.83L137.442,2215.75L137.779,2215.67L138.118,2215.6L138.459,2215.52L138.8,2215.45L139.143,2215.38L139.488,2215.31L139.832,2215.25L140.178,2215.18L140.525,2215.12L140.873,2215.07L141.222,2215.01L141.573,2214.95L141.923,2214.9L142.275,2214.85L142.628,2214.8L142.982,2214.76L143.336,2214.71L143.692,2214.67L144.049,2214.63L144.155,2214.62L144.174,2214.6L144.334,2214.41L144.502,2214.21L144.675,2214.01L144.856,2213.8L145.043,2213.57L145.233,2213.34L145.43,2213.1L145.631,2212.86L145.835,2212.61L146.043,2212.35L146.254,2212.08L146.468,2211.81L146.683,2211.54L146.9,2211.26L147.118,2210.97L147.337,2210.68L147.556,2210.39L147.775,2210.09L147.993,2209.79L148.209,2209.49L148.424,2209.18L148.641,2208.87L148.744,2208.72L148.847,2208.57L148.95,2208.42L149.055,2208.26L149.157,2208.11L149.258,2207.96L149.359,2207.8L149.457,2207.65L149.555,2207.5L149.652,2207.34L149.748,2207.19L149.841,2207.04L149.934,2206.89L150.026,2206.74L150.116,2206.58L150.204,2206.43L150.29,2206.29L150.375,2206.14L150.459,2205.99L150.54,2205.85L150.62,2205.7L150.697,2205.56L150.773,2205.41L150.845,2205.28L150.917,2205.14L150.988,2204.99L151.054,2204.86L151.119,2204.73L151.182,2204.59L151.243,2204.46L151.3,2204.34L151.355,2204.21L151.408,2204.09L151.459,2203.97L151.507,2203.85L151.552,2203.73L151.594,2203.62L151.634,2203.51L151.671,2203.41L151.706,2203.3L151.739,2203.2L151.768,2203.11L151.794,2203.02L151.818,2202.93L151.84,2202.85L151.859,2202.78L151.875,2202.7L151.889,2202.64L151.901,2202.58L151.91,2202.52L151.918,2202.47L151.926,2202.41L151.927,2202.4L151.929,2202.39L151.93,2202.37L151.933,2202.34L151.961,2201.98L151.994,2201.61L152.028,2201.23L152.065,2200.86L152.105,2200.49L152.147,2200.12L152.191,2199.75L152.238,2199.39L152.287,2199.02L152.339,2198.66L152.393,2198.29L152.45,2197.93L152.508,2197.57L152.569,2197.21L152.633,2196.85L152.699,2196.49L152.767,2196.14L152.837,2195.78L152.91,2195.43L152.985,2195.08L153.062,2194.72L153.142,2194.38L153.224,2194.03L153.308,2193.68L153.395,2193.33L153.483,2192.99L153.574,2192.65L153.667,2192.3L153.763,2191.96L153.86,2191.62L153.96,2191.28L154.063,2190.95L154.167,2190.61L154.273,2190.28L154.381,2189.95L154.493,2189.61L154.605,2189.28L154.72,2188.95L154.838,2188.63L154.957,2188.3L155.079,2187.98L155.202,2187.65L155.327,2187.33L155.455,2187.01L155.585,2186.69L155.717,2186.37L155.85,2186.06L155.986,2185.74L156.125,2185.43L156.265,2185.12L156.407,2184.8L156.551,2184.49L156.696,2184.19L156.844,2183.88L156.994,2183.57L157.146,2183.27L157.3,2182.97L157.456,2182.67L157.614,2182.37L157.773,2182.07L157.934,2181.77L158.098,2181.48L158.263,2181.18L158.431,2180.89L158.599,2180.6L158.77,2180.31L158.942,2180.02L159.117,2179.74L159.294,2179.45L159.471,2179.17L159.651,2178.89L159.833,2178.6L160.016,2178.32L160.202,2178.05L160.389,2177.77L160.577,2177.49L160.767,2177.22L160.96,2176.95L161.154,2176.68L161.348,2176.41L161.546,2176.14L161.745,2175.88L161.945,2175.61L162.147,2175.35L162.351,2175.09L162.557,2174.83L162.763,2174.57L162.971,2174.31L163.181,2174.06L163.393,2173.8L163.606,2173.55L163.821,2173.3L164.038,2173.05L164.255,2172.8L164.475,2172.55L164.695,2172.31L164.918,2172.07L165.142,2171.82L165.367,2171.58L165.593,2171.34L165.822,2171.11L166.051,2170.87L166.282,2170.64L166.515,2170.4L166.749,2170.17L166.983,2169.94L167.221,2169.71L167.459,2169.49L167.697,2169.26L167.939,2169.04L168.181,2168.81L168.424,2168.59L168.669,2168.37L168.914,2168.16L169.162,2167.94L169.41,2167.72L169.659,2167.51L169.912,2167.3L170.164,2167.09L170.417,2166.88L170.672,2166.67L170.928,2166.47L171.185,2166.26L171.444,2166.06L171.704,2165.86L171.965,2165.66L172.226,2165.46L172.49,2165.26L172.754,2165.07L173.019,2164.88L173.287,2164.68L173.554,2164.49L173.821,2164.3L174.092,2164.12L174.364,2163.93L174.635,2163.75L174.908,2163.56L175.183,2163.38L175.457,2163.2L175.734,2163.02L176.011,2162.85L176.289,2162.67L176.569,2162.5L176.85,2162.32L177.131,2162.15L177.413,2161.98L177.696,2161.82L177.98,2161.65L178.265,2161.48L178.552,2161.32L178.839,2161.16L179.127,2161L179.415,2160.84L179.706,2160.68L179.997,2160.52L180.287,2160.37L180.58,2160.22L180.874,2160.07L181.168,2159.91L181.463,2159.77L181.759,2159.62L182.055,2159.47L182.353,2159.33L182.652,2159.19L182.951,2159.05L183.25,2158.91L183.551,2158.77L183.852,2158.63L184.155,2158.5L184.459,2158.36L184.763,2158.23L185.066,2158.1L185.372,2157.97L185.678,2157.84L185.985,2157.72L186.293,2157.59L186.601,2157.47L186.909,2157.35L187.219,2157.23L187.53,2157.11L187.841,2156.99L188.152,2156.88L188.464,2156.76L188.777,2156.65L189.09,2156.54L189.404,2156.43L189.72,2156.32L190.034,2156.21L190.35,2156.11L190.668,2156L190.983,2155.9L191.301,2155.8L191.62,2155.7L191.939,2155.6L192.259,2155.5L192.577,2155.41L192.898,2155.31L193.22,2155.22L193.541,2155.13L193.863,2155.04L194.185,2154.95L194.507,2154.87L194.832,2154.78L195.155,2154.7L195.479,2154.62L195.805,2154.54L196.13,2154.46L196.456,2154.38L196.782,2154.31L197.108,2154.23L197.435,2154.16L197.762,2154.09L198.09,2154.02L198.418,2153.95L198.747,2153.88L199.075,2153.82L199.406,2153.75L199.735,2153.69L200.065,2153.63L200.395,2153.57L200.726,2153.51L201.058,2153.45L201.387,2153.4L201.719,2153.34L202.052,2153.29L202.385,2153.24L202.717,2153.19L203.049,2153.14L203.382,2153.1L203.715,2153.05L204.049,2153.01L204.384,2152.97L204.717,2152.93L205.052,2152.89L205.385,2152.85L205.721,2152.82L206.056,2152.78L206.391,2152.75L206.726,2152.72L207.061,2152.68L207.396,2152.66L207.732,2152.63L208.07,2152.6L208.405,2152.58L208.741,2152.56L209.077,2152.54L209.414,2152.52L209.751,2152.5L210.087,2152.48L210.424,2152.47L210.76,2152.45L211.098,2152.44L211.435,2152.43L211.772,2152.42L212.11,2152.41L212.448,2152.41L212.784,2152.4L213.121,2152.4L213.458,2152.4L213.797,2152.4L214.134,2152.4ZM213.475,2157.38L213.159,2157.38L212.844,2157.38L212.529,2157.39L212.214,2157.39L211.898,2157.4L211.583,2157.41L211.268,2157.42L210.953,2157.43L210.638,2157.44L210.323,2157.45L210.009,2157.47L209.694,2157.49L209.379,2157.51L209.065,2157.53L208.751,2157.55L208.437,2157.57L208.123,2157.59L207.809,2157.62L207.495,2157.65L207.182,2157.67L206.868,2157.7L206.555,2157.73L206.242,2157.77L205.929,2157.8L205.617,2157.84L205.305,2157.87L204.993,2157.91L204.681,2157.95L204.369,2157.99L204.058,2158.03L203.747,2158.07L203.436,2158.12L203.126,2158.16L202.815,2158.21L202.506,2158.26L202.196,2158.31L201.887,2158.36L201.578,2158.42L201.269,2158.47L200.961,2158.53L200.653,2158.58L200.346,2158.64L200.038,2158.7L199.732,2158.76L199.425,2158.82L199.119,2158.89L198.814,2158.95L198.508,2159.02L198.204,2159.09L197.899,2159.16L197.595,2159.23L197.292,2159.3L196.989,2159.37L196.687,2159.45L196.384,2159.53L196.083,2159.6L195.782,2159.68L195.481,2159.76L195.181,2159.84L194.882,2159.93L194.582,2160.01L194.284,2160.1L193.986,2160.18L193.689,2160.27L193.392,2160.36L193.095,2160.45L192.8,2160.55L192.505,2160.64L192.21,2160.74L191.916,2160.83L191.623,2160.93L191.33,2161.03L191.038,2161.13L190.746,2161.23L190.456,2161.34L190.165,2161.44L189.876,2161.55L189.587,2161.65L189.299,2161.76L189.011,2161.87L188.725,2161.98L188.439,2162.1L188.153,2162.21L187.868,2162.33L187.585,2162.44L187.301,2162.56L187.019,2162.68L186.737,2162.8L186.456,2162.92L186.176,2163.05L185.897,2163.17L185.618,2163.3L185.34,2163.43L185.063,2163.55L184.787,2163.68L184.512,2163.82L184.237,2163.95L183.964,2164.08L183.691,2164.22L183.419,2164.36L183.148,2164.49L182.878,2164.63L182.608,2164.78L182.34,2164.92L182.072,2165.06L181.805,2165.21L181.54,2165.35L181.275,2165.5L181.011,2165.65L180.748,2165.8L180.486,2165.95L180.225,2166.1L179.965,2166.26L179.706,2166.41L179.448,2166.57L179.191,2166.73L178.935,2166.89L178.679,2167.05L178.425,2167.21L178.172,2167.38L177.92,2167.54L177.669,2167.71L177.419,2167.87L177.171,2168.04L176.923,2168.21L176.676,2168.39L176.43,2168.56L176.186,2168.73L175.942,2168.91L175.7,2169.08L175.459,2169.26L175.219,2169.44L174.98,2169.62L174.742,2169.8L174.506,2169.99L174.27,2170.17L174.036,2170.36L173.803,2170.55L173.571,2170.73L173.34,2170.92L173.111,2171.12L172.882,2171.31L172.655,2171.5L172.429,2171.7L172.205,2171.89L171.981,2172.09L171.759,2172.29L171.538,2172.49L171.319,2172.69L171.101,2172.9L170.884,2173.1L170.668,2173.31L170.454,2173.51L170.241,2173.72L170.029,2173.93L169.818,2174.14L169.609,2174.35L169.402,2174.57L169.195,2174.78L168.99,2175L168.787,2175.22L168.585,2175.43L168.384,2175.65L168.184,2175.88L167.986,2176.1L167.79,2176.32L167.595,2176.55L167.401,2176.77L167.209,2177L167.018,2177.23L166.828,2177.46L166.641,2177.69L166.454,2177.93L166.269,2178.16L166.086,2178.39L165.904,2178.63L165.724,2178.87L165.545,2179.11L165.367,2179.35L165.192,2179.59L165.017,2179.84L164.845,2180.08L164.673,2180.33L164.504,2180.57L164.336,2180.82L164.17,2181.07L164.005,2181.32L163.842,2181.57L163.68,2181.83L163.52,2182.08L163.362,2182.34L163.205,2182.6L163.05,2182.86L162.897,2183.12L162.745,2183.38L162.595,2183.64L162.447,2183.9L162.3,2184.17L162.155,2184.43L162.012,2184.7L161.87,2184.97L161.731,2185.24L161.593,2185.51L161.456,2185.78L161.322,2186.06L161.189,2186.34L161.058,2186.61L160.929,2186.89L160.801,2187.17L160.676,2187.45L160.552,2187.73L160.43,2188.01L160.31,2188.3L160.191,2188.58L160.075,2188.87L159.96,2189.16L159.847,2189.45L159.736,2189.74L159.627,2190.03L159.52,2190.32L159.414,2190.62L159.311,2190.91L159.209,2191.21L159.11,2191.51L159.012,2191.81L158.916,2192.11L158.823,2192.41L158.731,2192.71L158.641,2193.02L158.553,2193.32L158.467,2193.63L158.383,2193.94L158.301,2194.25L158.221,2194.56L158.143,2194.87L158.067,2195.18L157.993,2195.5L157.921,2195.81L157.851,2196.13L157.783,2196.45L157.718,2196.77L157.654,2197.09L157.592,2197.41L157.533,2197.73L157.476,2198.06L157.42,2198.39L157.367,2198.71L157.316,2199.04L157.267,2199.37L157.22,2199.7L157.175,2200.03L157.133,2200.37L157.093,2200.7L157.054,2201.04L157.018,2201.37L156.985,2201.71L156.953,2202.05L156.923,2202.39L156.896,2202.73L156.89,2202.8L156.884,2202.88L156.876,2202.95L156.868,2203.02L156.848,2203.17L156.826,2203.32L156.8,2203.47L156.771,2203.62L156.739,2203.77L156.704,2203.93L156.666,2204.08L156.624,2204.24L156.58,2204.39L156.534,2204.55L156.484,2204.71L156.432,2204.87L156.377,2205.04L156.319,2205.2L156.259,2205.36L156.196,2205.53L156.131,2205.69L156.063,2205.86L155.994,2206.03L155.921,2206.2L155.847,2206.37L155.77,2206.53L155.692,2206.7L155.611,2206.88L155.528,2207.05L155.443,2207.22L155.357,2207.39L155.268,2207.56L155.178,2207.74L155.086,2207.91L154.992,2208.08L154.897,2208.26L154.8,2208.43L154.702,2208.6L154.602,2208.78L154.5,2208.95L154.398,2209.13L154.294,2209.3L154.189,2209.47L154.083,2209.65L153.975,2209.82L153.867,2209.99L153.757,2210.17L153.646,2210.34L153.535,2210.51L153.423,2210.68L153.31,2210.86L153.196,2211.03L153.081,2211.2L152.966,2211.37L152.851,2211.54L152.734,2211.71L152.501,2212.04L152.265,2212.38L152.029,2212.7L151.792,2213.03L151.556,2213.35L151.319,2213.67L151.083,2213.98L150.849,2214.29L150.616,2214.59L150.385,2214.89L150.157,2215.17L149.932,2215.46L149.71,2215.73L149.492,2216L149.279,2216.26L149.07,2216.52L148.866,2216.76L148.668,2217L148.476,2217.23L148.291,2217.44L148.112,2217.65L147.941,2217.85L147.778,2218.04L147.477,2218.38L147.212,2218.68L146.988,2218.93L146.807,2219.13L146.674,2219.28L146.563,2219.4L146.232,2219.43L145.901,2219.45L145.571,2219.48L145.243,2219.51L144.915,2219.54L144.588,2219.58L144.262,2219.62L143.937,2219.65L143.613,2219.69L143.29,2219.74L142.968,2219.78L142.647,2219.83L142.327,2219.88L142.008,2219.93L141.691,2219.98L141.374,2220.03L141.059,2220.09L140.745,2220.14L140.432,2220.2L140.121,2220.26L139.81,2220.33L139.501,2220.39L139.193,2220.46L138.887,2220.53L138.582,2220.6L138.278,2220.67L137.976,2220.75L137.675,2220.82L137.375,2220.9L137.077,2220.98L136.781,2221.06L136.486,2221.15L136.192,2221.23L135.9,2221.32L135.61,2221.41L135.321,2221.5L135.034,2221.59L134.748,2221.69L134.464,2221.78L134.182,2221.88L133.901,2221.98L133.623,2222.09L133.345,2222.19L133.07,2222.29L132.797,2222.4L132.525,2222.51L132.255,2222.62L131.987,2222.74L131.721,2222.85L131.457,2222.97L131.194,2223.09L130.934,2223.21L130.676,2223.33L130.419,2223.45L130.165,2223.58L129.913,2223.7L129.662,2223.83L129.414,2223.97L129.168,2224.1L128.924,2224.23L128.682,2224.37L128.442,2224.51L128.205,2224.65L127.97,2224.79L127.737,2224.93L127.506,2225.08L127.277,2225.22L127.051,2225.37L126.827,2225.52L126.606,2225.68L126.386,2225.83L126.17,2225.99L125.955,2226.14L125.743,2226.3L125.534,2226.46L125.327,2226.63L125.122,2226.79L124.92,2226.95L124.721,2227.12L124.524,2227.29L124.329,2227.46L124.138,2227.64L123.949,2227.81L123.762,2227.99L123.67,2228.08L123.579,2228.17L123.488,2228.26L123.397,2228.35L123.308,2228.44L123.219,2228.53L123.131,2228.62L123.044,2228.71L122.957,2228.8L122.871,2228.89L122.785,2228.99L122.701,2229.08L122.617,2229.18L122.533,2229.27L122.451,2229.37L122.369,2229.46L122.288,2229.56L122.208,2229.65L122.128,2229.75L122.049,2229.85L121.971,2229.94L121.893,2230.04L121.816,2230.14L121.74,2230.24L121.665,2230.34L121.59,2230.43L121.516,2230.53L121.443,2230.64L121.371,2230.74L121.299,2230.84L121.229,2230.94L121.158,2231.04L121.089,2231.14L121.02,2231.24L120.953,2231.35L120.886,2231.45L120.819,2231.56L120.754,2231.66L120.689,2231.76L120.625,2231.87L120.562,2231.98L120.499,2232.08L120.438,2232.19L120.377,2232.3L120.317,2232.4L120.258,2232.51L120.199,2232.62L120.142,2232.73L120.085,2232.84L120.029,2232.95L119.973,2233.05L119.919,2233.16L119.865,2233.28L119.813,2233.39L119.761,2233.5L119.709,2233.61L119.659,2233.72L119.61,2233.84L119.561,2233.95L119.513,2234.06L119.466,2234.18L119.42,2234.29L119.375,2234.4L119.33,2234.52L119.286,2234.63L119.244,2234.75L119.202,2234.87L119.161,2234.98L119.12,2235.1L119.081,2235.22L119.042,2235.34L119.005,2235.45L118.968,2235.57L118.932,2235.69L118.897,2235.81L118.863,2235.93L118.83,2236.05L118.797,2236.17L118.766,2236.29L118.735,2236.41L118.705,2236.54L118.676,2236.66L118.648,2236.78L118.621,2236.9L118.595,2237.03L118.57,2237.15L118.546,2237.28L118.522,2237.4L118.831,2237.6L119.14,2237.8L119.451,2238L119.763,2238.19L120.076,2238.39L120.39,2238.59L120.705,2238.78L121.021,2238.97L121.339,2239.17L121.658,2239.36L121.977,2239.55L122.298,2239.74L122.62,2239.93L122.944,2240.12L123.268,2240.31L123.593,2240.49L123.919,2240.68L124.247,2240.86L124.575,2241.05L124.905,2241.23L125.236,2241.41L125.568,2241.6L125.9,2241.78L126.234,2241.95L126.569,2242.13L126.905,2242.31L127.242,2242.49L127.58,2242.67L127.919,2242.84L128.259,2243.02L128.6,2243.19L128.942,2243.36L129.285,2243.53L129.629,2243.7L129.974,2243.88L130.32,2244.05L130.667,2244.21L131.015,2244.38L131.364,2244.55L131.714,2244.71L132.065,2244.88L132.417,2245.04L132.769,2245.21L133.123,2245.37L133.478,2245.53L133.833,2245.69L134.19,2245.85L134.547,2246.01L134.906,2246.17L135.265,2246.33L135.625,2246.48L135.986,2246.64L136.348,2246.79L136.711,2246.95L137.074,2247.1L137.439,2247.25L137.804,2247.4L138.171,2247.55L138.538,2247.7L138.906,2247.85L139.275,2248L139.644,2248.14L140.015,2248.29L140.386,2248.44L140.759,2248.58L141.132,2248.72L141.505,2248.87L141.88,2249.01L142.256,2249.15L142.632,2249.29L143.009,2249.43L143.387,2249.57L143.765,2249.7L144.145,2249.84L144.525,2249.98L144.906,2250.11L145.288,2250.25L145.67,2250.38L146.053,2250.51L146.437,2250.64L146.822,2250.78L147.207,2250.91L147.594,2251.03L147.98,2251.16L148.368,2251.29L148.756,2251.42L149.145,2251.54L149.535,2251.67L149.926,2251.79L150.317,2251.91L150.709,2252.04L151.101,2252.16L151.494,2252.28L151.888,2252.4L152.283,2252.52L152.678,2252.64L153.074,2252.76L153.47,2252.87L153.867,2252.99L154.265,2253.1L154.663,2253.22L155.062,2253.33L155.462,2253.44L155.862,2253.55L156.263,2253.66L156.665,2253.77L157.067,2253.88L157.469,2253.99L157.873,2254.1L158.276,2254.2L158.681,2254.31L159.086,2254.41L159.491,2254.52L159.897,2254.62L160.304,2254.72L160.711,2254.83L161.119,2254.93L161.527,2255.03L161.936,2255.13L162.346,2255.22L162.755,2255.32L163.166,2255.42L163.577,2255.51L163.988,2255.61L164.4,2255.7L164.813,2255.8L165.226,2255.89L165.639,2255.98L166.053,2256.07L166.467,2256.16L166.882,2256.25L167.297,2256.34L167.713,2256.43L168.129,2256.51L168.546,2256.6L168.963,2256.68L169.381,2256.77L169.799,2256.85L170.217,2256.93L170.636,2257.02L171.055,2257.1L171.475,2257.18L171.895,2257.26L172.315,2257.34L172.736,2257.41L173.158,2257.49L173.579,2257.57L174.001,2257.64L174.424,2257.72L174.846,2257.79L175.269,2257.86L175.693,2257.93L176.117,2258.01L176.541,2258.08L176.965,2258.15L177.39,2258.22L177.815,2258.28L178.241,2258.35L178.667,2258.42L179.093,2258.48L179.519,2258.55L179.946,2258.61L180.373,2258.67L180.8,2258.74L181.228,2258.8L181.656,2258.86L182.084,2258.92L182.513,2258.98L182.941,2259.03L183.37,2259.09L183.799,2259.15L184.229,2259.2L184.659,2259.26L185.089,2259.32L185.519,2259.37L185.949,2259.42L186.38,2259.47L186.811,2259.52L187.242,2259.57L187.673,2259.62L188.104,2259.67L188.536,2259.72L188.968,2259.77L189.4,2259.81L189.832,2259.86L190.264,2259.9L190.697,2259.95L191.13,2259.99L191.563,2260.03L191.996,2260.08L192.429,2260.12L192.862,2260.16L193.296,2260.19L193.729,2260.23L194.163,2260.27L194.597,2260.31L195.03,2260.34L195.465,2260.38L195.899,2260.41L196.333,2260.45L196.767,2260.48L197.202,2260.51L197.636,2260.54L198.071,2260.57L198.505,2260.6L198.94,2260.63L199.375,2260.66L199.81,2260.69L200.244,2260.71L200.679,2260.74L201.114,2260.76L201.549,2260.79L201.984,2260.81L202.419,2260.83L202.854,2260.86L203.289,2260.88L203.724,2260.9L204.159,2260.92L204.594,2260.93L205.029,2260.95L205.464,2260.97L205.899,2260.99L206.334,2261L206.769,2261.02L207.204,2261.03L207.639,2261.04L208.074,2261.06L208.509,2261.07L208.943,2261.08L209.378,2261.09L209.812,2261.1L210.247,2261.11L210.681,2261.12L211.116,2261.12L211.55,2261.13L211.984,2261.13L212.852,2261.14L213.719,2261.15L214.586,2261.15L215.453,2261.15L216.318,2261.15L217.184,2261.14L218.048,2261.13L218.912,2261.12L219.775,2261.1L220.637,2261.08L221.499,2261.06L222.359,2261.03L223.219,2261.01L224.077,2260.97L224.935,2260.94L225.792,2260.9L226.647,2260.86L227.501,2260.82L228.354,2260.77L229.206,2260.72L229.632,2260.7L230.057,2260.67L230.481,2260.64L230.906,2260.62L231.33,2260.59L231.754,2260.56L232.177,2260.53L232.6,2260.5L233.023,2260.47L233.445,2260.43L233.867,2260.4L234.289,2260.37L234.71,2260.33L235.131,2260.29L235.551,2260.26L235.971,2260.22L236.391,2260.18L236.81,2260.14L237.229,2260.11L237.647,2260.07L238.065,2260.02L238.482,2259.98L238.9,2259.94L239.316,2259.9L239.732,2259.85L240.148,2259.81L240.563,2259.76L240.978,2259.72L241.392,2259.67L241.806,2259.62L242.219,2259.58L242.632,2259.53L243.045,2259.48L243.457,2259.43L243.868,2259.38L244.279,2259.32L244.689,2259.27L245.099,2259.22L245.508,2259.16L245.917,2259.11L246.325,2259.05L246.733,2259L247.14,2258.94L247.547,2258.88L247.953,2258.82L248.358,2258.76L248.763,2258.7L249.167,2258.64L249.571,2258.58L249.974,2258.52L250.377,2258.46L250.779,2258.39L251.18,2258.33L251.581,2258.26L251.981,2258.2L252.38,2258.13L252.779,2258.06L253.178,2257.99L253.575,2257.93L253.972,2257.86L254.369,2257.79L254.764,2257.72L255.159,2257.64L255.554,2257.57L255.948,2257.5L256.341,2257.42L256.733,2257.35L257.125,2257.27L257.516,2257.2L257.906,2257.12L258.296,2257.04L258.685,2256.97L259.073,2256.89L259.46,2256.81L259.847,2256.73L260.233,2256.65L260.619,2256.56L261.003,2256.48L261.387,2256.4L261.77,2256.32L262.152,2256.23L262.534,2256.14L262.915,2256.06L263.295,2255.97L263.674,2255.88L264.053,2255.8L264.43,2255.71L264.807,2255.62L265.183,2255.53L265.559,2255.44L265.933,2255.34L266.307,2255.25L266.68,2255.16L267.052,2255.06L267.423,2254.97L267.794,2254.87L268.163,2254.78L268.532,2254.68L268.9,2254.58L269.267,2254.49L269.633,2254.39L269.998,2254.29L270.363,2254.19L270.726,2254.09L271.089,2253.98L271.451,2253.88L271.812,2253.78L272.172,2253.68L272.531,2253.57L272.889,2253.47L273.246,2253.36L273.602,2253.25L273.958,2253.14L274.312,2253.04L274.666,2252.93L275.018,2252.82L275.37,2252.71L275.721,2252.6L276.071,2252.49L276.419,2252.37L276.767,2252.26L277.114,2252.15L277.46,2252.03L277.805,2251.92L278.149,2251.8L278.491,2251.69L278.833,2251.57L279.174,2251.45L279.514,2251.33L279.853,2251.21L280.191,2251.09L280.528,2250.97L280.863,2250.85L281.198,2250.73L281.532,2250.61L281.864,2250.48L282.196,2250.36L282.527,2250.24L282.856,2250.11L283.184,2249.98L283.512,2249.86L283.838,2249.73L284.163,2249.6L284.487,2249.47L284.81,2249.34L285.132,2249.21L285.453,2249.08L285.772,2248.95L286.091,2248.82L286.408,2248.68L286.724,2248.55L287.039,2248.42L287.353,2248.28L287.666,2248.14L287.978,2248.01L288.288,2247.87L288.598,2247.73L288.906,2247.6L289.213,2247.46L289.519,2247.32L289.823,2247.18L290.127,2247.03L290.429,2246.89L290.73,2246.75L291.03,2246.61L291.328,2246.46L291.626,2246.32L291.922,2246.17L292.217,2246.03L292.511,2245.88L292.803,2245.73L293.094,2245.59L293.384,2245.44L293.673,2245.29L293.96,2245.14L294.247,2244.99L294.532,2244.84L294.815,2244.68L295.098,2244.53L295.379,2244.38L295.658,2244.22L295.937,2244.07L296.214,2243.91L296.49,2243.76L296.764,2243.6L297.038,2243.44L297.31,2243.28L297.58,2243.13L297.849,2242.97L298.117,2242.81L298.384,2242.65L298.649,2242.49L298.913,2242.32L299.175,2242.16L299.436,2242L299.696,2241.83L299.955,2241.67L300.212,2241.5L300.467,2241.34L300.721,2241.17L300.974,2241L301.225,2240.84L301.475,2240.67L301.724,2240.5L301.971,2240.33L302.217,2240.16L302.461,2239.99L302.704,2239.81L302.945,2239.64L303.185,2239.47L303.424,2239.29L303.661,2239.12L303.896,2238.94L304.13,2238.77L304.363,2238.59L304.594,2238.41L304.824,2238.24L305.052,2238.06L305.278,2237.88L305.503,2237.7L305.727,2237.52L305.949,2237.34L306.17,2237.16L306.389,2236.97L306.606,2236.79L306.822,2236.61L307.037,2236.42L307.25,2236.24L307.461,2236.05L307.671,2235.87L307.879,2235.68L308.086,2235.49L308.291,2235.3L308.494,2235.11L308.696,2234.92L308.896,2234.73L308.735,2234.52L308.572,2234.3L308.41,2234.09L308.247,2233.88L308.083,2233.67L307.919,2233.46L307.755,2233.25L307.59,2233.05L307.425,2232.85L307.259,2232.64L307.092,2232.44L306.925,2232.24L306.758,2232.05L306.59,2231.85L306.421,2231.66L306.252,2231.47L306.082,2231.27L305.911,2231.09L305.74,2230.9L305.568,2230.71L305.396,2230.53L305.223,2230.34L305.049,2230.16L304.874,2229.98L304.699,2229.8L304.523,2229.63L304.346,2229.45L304.168,2229.28L303.99,2229.11L303.811,2228.94L303.631,2228.77L303.45,2228.6L303.269,2228.44L303.086,2228.28L302.903,2228.11L302.719,2227.95L302.534,2227.79L302.348,2227.64L302.161,2227.48L301.973,2227.33L301.784,2227.17L301.595,2227.02L301.404,2226.87L301.213,2226.73L301.02,2226.58L300.826,2226.44L300.632,2226.29L300.436,2226.15L300.239,2226.01L300.042,2225.87L299.843,2225.74L299.643,2225.6L299.442,2225.47L299.24,2225.34L299.036,2225.21L298.832,2225.08L298.626,2224.95L298.42,2224.83L298.212,2224.7L298.003,2224.58L297.792,2224.46L297.581,2224.34L297.368,2224.22L297.154,2224.11L296.938,2224L296.722,2223.88L296.504,2223.77L296.285,2223.66L296.064,2223.56L295.842,2223.45L295.619,2223.35L295.395,2223.24L295.169,2223.14L294.941,2223.04L294.713,2222.94L294.483,2222.85L294.251,2222.75L294.018,2222.66L293.784,2222.57L293.548,2222.48L293.31,2222.39L293.071,2222.3L292.831,2222.22L292.589,2222.14L292.345,2222.05L292.1,2221.97L291.854,2221.89L291.606,2221.82L291.356,2221.74L291.105,2221.67L290.852,2221.6L290.597,2221.53L290.341,2221.46L290.083,2221.39L289.823,2221.33L289.562,2221.26L289.299,2221.2L289.034,2221.14L288.768,2221.08L288.5,2221.02L288.23,2220.97L287.958,2220.91L287.685,2220.86L287.409,2220.81L287.132,2220.76L286.853,2220.71L286.573,2220.66L286.29,2220.62L286.006,2220.58L285.719,2220.53L285.431,2220.49L285.141,2220.46L284.849,2220.42L284.555,2220.39L284.259,2220.35L283.961,2220.32L283.662,2220.29L283.36,2220.26L283.056,2220.24L282.75,2220.21L282.442,2220.19L282.132,2220.16L281.821,2220.14L281.507,2220.13L281.19,2220.11L280.872,2220.09L280.552,2220.08L280.23,2220.07L280.128,2219.94L280.007,2219.79L279.842,2219.58L279.637,2219.32L279.395,2219L279.119,2218.64L278.813,2218.24L278.48,2217.8L278.304,2217.56L278.122,2217.32L277.935,2217.06L277.744,2216.8L277.547,2216.53L277.347,2216.25L277.143,2215.97L276.936,2215.68L276.726,2215.38L276.514,2215.07L276.299,2214.76L276.083,2214.45L275.865,2214.13L275.647,2213.81L275.428,2213.48L275.209,2213.15L274.99,2212.81L274.772,2212.47L274.555,2212.14L274.34,2211.79L274.126,2211.45L273.915,2211.1L273.707,2210.76L273.501,2210.41L273.4,2210.24L273.299,2210.06L273.2,2209.89L273.101,2209.72L273.004,2209.54L272.907,2209.37L272.812,2209.2L272.718,2209.02L272.625,2208.85L272.534,2208.68L272.444,2208.51L272.355,2208.34L272.268,2208.17L272.182,2208L272.098,2207.83L272.016,2207.66L271.935,2207.49L271.856,2207.32L271.779,2207.16L271.703,2206.99L271.629,2206.83L271.558,2206.66L271.488,2206.5L271.42,2206.34L271.354,2206.18L271.291,2206.02L271.229,2205.86L271.17,2205.7L271.113,2205.55L271.058,2205.39L271.006,2205.24L270.956,2205.09L270.909,2204.94L270.864,2204.79L270.821,2204.64L270.782,2204.5L270.744,2204.36L270.71,2204.21L270.678,2204.07L270.649,2203.93L270.623,2203.8L270.6,2203.66L270.58,2203.53L270.563,2203.4L270.517,2203.03L270.469,2202.66L270.419,2202.29L270.366,2201.93L270.312,2201.56L270.255,2201.2L270.197,2200.84L270.136,2200.48L270.073,2200.12L270.008,2199.76L269.941,2199.41L269.872,2199.06L269.801,2198.7L269.728,2198.36L269.653,2198.01L269.576,2197.66L269.497,2197.31L269.416,2196.97L269.333,2196.63L269.247,2196.28L269.16,2195.95L269.071,2195.61L268.98,2195.27L268.887,2194.94L268.792,2194.6L268.695,2194.27L268.596,2193.94L268.496,2193.61L268.393,2193.28L268.289,2192.96L268.182,2192.63L268.074,2192.31L267.964,2191.99L267.852,2191.67L267.738,2191.35L267.622,2191.03L267.504,2190.72L267.385,2190.41L267.263,2190.09L267.14,2189.78L267.015,2189.47L266.889,2189.17L266.76,2188.86L266.63,2188.56L266.498,2188.25L266.364,2187.95L266.229,2187.65L266.091,2187.35L265.952,2187.06L265.811,2186.76L265.669,2186.47L265.525,2186.18L265.379,2185.88L265.231,2185.6L265.082,2185.31L264.931,2185.02L264.778,2184.74L264.624,2184.45L264.468,2184.17L264.31,2183.89L264.151,2183.61L263.99,2183.34L263.828,2183.06L263.664,2182.78L263.498,2182.51L263.331,2182.24L263.162,2181.97L262.991,2181.7L262.819,2181.44L262.645,2181.17L262.47,2180.91L262.294,2180.65L262.115,2180.39L261.936,2180.13L261.754,2179.87L261.572,2179.61L261.387,2179.36L261.201,2179.11L261.014,2178.85L260.825,2178.6L260.635,2178.35L260.444,2178.11L260.251,2177.86L260.056,2177.62L259.86,2177.38L259.663,2177.13L259.464,2176.89L259.264,2176.66L259.062,2176.42L258.859,2176.18L258.654,2175.95L258.449,2175.72L258.242,2175.49L258.033,2175.26L257.823,2175.03L257.612,2174.8L257.4,2174.58L257.186,2174.36L256.971,2174.14L256.754,2173.91L256.536,2173.7L256.317,2173.48L256.097,2173.26L255.876,2173.05L255.653,2172.84L255.429,2172.62L255.203,2172.41L254.977,2172.21L254.749,2172L254.52,2171.79L254.29,2171.59L254.058,2171.39L253.826,2171.19L253.592,2170.99L253.357,2170.79L253.121,2170.59L252.883,2170.4L252.645,2170.2L252.405,2170.01L252.165,2169.82L251.923,2169.63L251.68,2169.44L251.436,2169.26L251.191,2169.07L250.944,2168.89L250.697,2168.71L250.449,2168.53L250.199,2168.35L249.949,2168.17L249.697,2167.99L249.444,2167.82L249.191,2167.65L248.936,2167.48L248.68,2167.31L248.424,2167.14L248.166,2166.97L247.907,2166.8L247.648,2166.64L247.387,2166.48L247.125,2166.32L246.863,2166.16L246.599,2166L246.335,2165.84L246.07,2165.69L245.803,2165.53L245.536,2165.38L245.268,2165.23L244.999,2165.08L244.729,2164.93L244.458,2164.78L244.187,2164.64L243.914,2164.49L243.641,2164.35L243.367,2164.21L243.092,2164.07L242.816,2163.93L242.539,2163.8L242.262,2163.66L241.984,2163.53L241.705,2163.4L241.425,2163.27L241.144,2163.14L240.863,2163.01L240.581,2162.88L240.298,2162.76L240.014,2162.64L239.73,2162.51L239.445,2162.39L239.159,2162.27L238.872,2162.16L238.585,2162.04L238.297,2161.93L238.009,2161.81L237.72,2161.7L237.43,2161.59L237.139,2161.48L236.848,2161.37L236.556,2161.27L236.264,2161.16L235.971,2161.06L235.677,2160.96L235.383,2160.86L235.088,2160.76L234.792,2160.66L234.496,2160.57L234.199,2160.47L233.902,2160.38L233.604,2160.29L233.306,2160.2L233.007,2160.11L232.708,2160.02L232.408,2159.93L232.108,2159.85L231.807,2159.77L231.505,2159.68L231.204,2159.6L230.901,2159.53L230.598,2159.45L230.295,2159.37L229.992,2159.3L229.687,2159.22L229.383,2159.15L229.078,2159.08L228.772,2159.01L228.467,2158.95L228.16,2158.88L227.854,2158.82L227.547,2158.75L227.239,2158.69L226.932,2158.63L226.623,2158.57L226.315,2158.51L226.006,2158.46L225.697,2158.4L225.388,2158.35L225.078,2158.3L224.768,2158.25L224.457,2158.2L224.147,2158.15L223.836,2158.11L223.525,2158.06L223.213,2158.02L222.902,2157.98L222.59,2157.93L222.277,2157.9L221.965,2157.86L221.652,2157.82L221.34,2157.79L221.026,2157.76L220.713,2157.72L220.4,2157.69L220.086,2157.66L219.772,2157.64L219.459,2157.61L219.144,2157.58L218.83,2157.56L218.516,2157.54L218.201,2157.52L217.887,2157.5L217.572,2157.48L217.257,2157.46L216.942,2157.45L216.627,2157.43L216.312,2157.42L215.997,2157.41L215.682,2157.4L215.367,2157.39L215.051,2157.39L214.736,2157.38L214.421,2157.38L214.105,2157.38L213.79,2157.38L213.475,2157.38Z" style="fill:rgb(66,65,76);"/>
            <path d="M212.523,2156.55C189.344,2173.13 182.219,2194.41 186.123,2220.75" style="fill:none;stroke:rgb(66,65,76);stroke-width:3.5px;"/>
            <g transform="matrix(-1,0,0,1,427.692,0.2)">
                <path d="M212.523,2156.55C187.676,2173.22 181.914,2196.4 186.123,2220.75" style="fill:none;stroke:rgb(66,65,76);stroke-width:3.52px;"/>
            </g>
            <g transform="matrix(1,0,0,1.22208,-2.84612e-08,-491.845)">
                <path d="M147.23,2216.73L154.896,2206.4C197.709,2219.93 236.481,2220.77 272.23,2205.73L279.896,2218.73C234.161,2240.31 190.879,2240.42 147.23,2216.73Z" style="fill:rgb(196,126,51);"/>
                <path d="M272.722,2202.88L273.144,2202.95L273.553,2203.07L273.942,2203.22L274.305,2203.41L274.637,2203.63L274.933,2203.89L275.188,2204.17L275.399,2204.48L283.065,2217.48L283.22,2217.79L283.331,2218.11L283.396,2218.43L283.415,2218.77L283.387,2219.1L283.312,2219.42L283.193,2219.74L283.029,2220.05L282.824,2220.33L282.58,2220.6L282.3,2220.84L281.989,2221.05L281.649,2221.23L281.108,2221.48L280.563,2221.74L280.017,2221.99L279.472,2222.24L278.927,2222.49L278.382,2222.74L277.838,2222.98L277.293,2223.22L276.749,2223.47L276.205,2223.7L275.66,2223.94L275.116,2224.18L274.572,2224.41L274.029,2224.64L273.486,2224.87L272.942,2225.09L272.399,2225.32L271.856,2225.54L271.313,2225.76L270.77,2225.98L270.228,2226.2L269.685,2226.41L269.142,2226.63L268.6,2226.84L268.058,2227.05L267.515,2227.25L266.973,2227.46L266.432,2227.66L265.89,2227.86L265.349,2228.06L264.807,2228.26L264.266,2228.45L263.724,2228.64L263.183,2228.83L262.642,2229.02L262.101,2229.21L261.561,2229.39L261.02,2229.58L260.479,2229.76L259.939,2229.94L259.399,2230.11L258.858,2230.29L258.318,2230.46L257.778,2230.63L257.238,2230.8L256.699,2230.97L256.159,2231.13L255.619,2231.29L255.08,2231.45L254.54,2231.61L254.001,2231.77L253.462,2231.92L252.923,2232.08L252.384,2232.23L251.845,2232.37L251.306,2232.52L250.767,2232.66L250.229,2232.81L249.69,2232.95L249.152,2233.09L248.613,2233.22L248.075,2233.36L247.537,2233.49L246.999,2233.62L246.461,2233.74L245.923,2233.87L245.385,2233.99L244.848,2234.12L244.31,2234.24L243.772,2234.35L243.235,2234.47L242.698,2234.58L242.16,2234.69L241.623,2234.8L241.086,2234.91L240.549,2235.01L240.012,2235.12L239.475,2235.22L238.938,2235.32L238.401,2235.41L237.865,2235.51L237.328,2235.6L236.792,2235.69L236.256,2235.78L235.72,2235.87L235.183,2235.95L234.647,2236.03L234.111,2236.11L233.575,2236.19L233.039,2236.27L232.503,2236.34L231.968,2236.41L231.432,2236.48L230.896,2236.55L230.361,2236.61L229.825,2236.68L229.29,2236.74L228.755,2236.8L228.22,2236.86L227.685,2236.91L227.15,2236.96L226.614,2237.01L226.08,2237.06L225.545,2237.11L225.01,2237.15L224.476,2237.19L223.941,2237.23L223.407,2237.27L222.873,2237.31L222.338,2237.34L221.804,2237.37L221.27,2237.4L220.736,2237.43L220.201,2237.46L219.668,2237.48L219.134,2237.5L218.6,2237.52L218.067,2237.53L217.533,2237.55L217,2237.56L216.466,2237.57L215.933,2237.58L215.4,2237.59L214.867,2237.59L214.333,2237.59L213.8,2237.59L213.267,2237.59L212.735,2237.59L212.202,2237.58L211.669,2237.57L211.137,2237.56L210.604,2237.55L210.072,2237.53L209.54,2237.51L209.008,2237.49L208.476,2237.47L207.944,2237.45L207.411,2237.42L206.88,2237.39L206.348,2237.36L205.816,2237.33L205.284,2237.3L204.753,2237.26L204.222,2237.22L203.691,2237.18L203.159,2237.14L202.628,2237.09L202.097,2237.04L201.566,2236.99L201.035,2236.94L200.505,2236.89L199.974,2236.83L199.443,2236.77L198.913,2236.71L198.383,2236.65L197.852,2236.58L197.322,2236.52L196.792,2236.45L196.262,2236.38L195.732,2236.3L195.202,2236.23L194.673,2236.15L194.143,2236.07L193.613,2235.99L193.084,2235.9L192.555,2235.82L192.025,2235.73L191.497,2235.64L190.968,2235.54L190.438,2235.45L189.91,2235.35L189.381,2235.25L188.852,2235.15L188.324,2235.04L187.795,2234.94L187.267,2234.83L186.739,2234.72L186.211,2234.61L185.683,2234.49L185.155,2234.38L184.627,2234.26L184.099,2234.14L183.571,2234.01L183.044,2233.89L182.516,2233.76L181.989,2233.63L181.462,2233.5L180.935,2233.36L180.407,2233.23L179.881,2233.09L179.353,2232.95L178.827,2232.8L178.3,2232.66L177.774,2232.51L177.247,2232.36L176.721,2232.21L176.195,2232.06L175.668,2231.9L175.142,2231.74L174.616,2231.58L174.09,2231.42L173.564,2231.26L173.039,2231.09L172.513,2230.92L171.987,2230.75L171.462,2230.57L170.936,2230.4L170.411,2230.22L169.886,2230.04L169.361,2229.86L168.835,2229.68L168.31,2229.49L167.786,2229.3L167.261,2229.11L166.736,2228.92L166.212,2228.72L165.687,2228.52L165.163,2228.33L164.638,2228.12L164.114,2227.92L163.59,2227.71L163.065,2227.51L162.542,2227.3L162.018,2227.08L161.494,2226.87L160.97,2226.65L160.446,2226.43L159.922,2226.21L159.399,2225.99L158.875,2225.76L158.352,2225.53L157.828,2225.3L157.305,2225.07L156.781,2224.84L156.259,2224.6L155.736,2224.36L155.212,2224.12L154.689,2223.88L154.166,2223.63L153.644,2223.39L153.121,2223.14L152.598,2222.89L152.075,2222.63L151.553,2222.38L151.03,2222.12L150.508,2221.86L149.985,2221.59L149.463,2221.33L148.94,2221.06L148.418,2220.79L147.896,2220.52L147.373,2220.25L146.851,2219.97L146.329,2219.7L145.807,2219.41L145.29,2219.14L144.958,2218.93L144.658,2218.7L144.393,2218.44L144.168,2218.15L143.985,2217.85L143.848,2217.53L143.757,2217.2L143.714,2216.86L143.721,2216.52L143.776,2216.18L143.879,2215.86L144.028,2215.54L144.222,2215.24L151.888,2204.91L152.12,2204.63L152.389,2204.38L152.692,2204.16L153.024,2203.96L153.382,2203.8L153.76,2203.68L154.153,2203.59L154.556,2203.53L154.964,2203.52L155.371,2203.55L155.771,2203.61L156.16,2203.71L156.658,2203.87L157.152,2204.02L157.645,2204.18L158.138,2204.33L158.631,2204.48L159.124,2204.63L159.615,2204.78L160.107,2204.93L160.598,2205.07L161.088,2205.22L161.578,2205.36L162.068,2205.51L162.557,2205.65L163.046,2205.79L163.535,2205.93L164.023,2206.07L164.511,2206.2L164.998,2206.34L165.485,2206.47L165.972,2206.61L166.458,2206.74L166.943,2206.87L167.429,2207L167.914,2207.13L168.398,2207.26L168.882,2207.38L169.366,2207.51L169.85,2207.63L170.333,2207.76L170.815,2207.88L171.297,2208L171.779,2208.12L172.26,2208.23L172.741,2208.35L173.221,2208.47L173.701,2208.58L174.181,2208.7L174.661,2208.81L175.139,2208.92L175.618,2209.03L176.096,2209.14L176.574,2209.24L177.051,2209.35L177.528,2209.45L178.005,2209.56L178.481,2209.66L178.956,2209.76L179.432,2209.86L179.907,2209.96L180.382,2210.06L180.856,2210.16L181.329,2210.25L181.803,2210.35L182.275,2210.44L182.748,2210.53L183.221,2210.62L183.692,2210.71L184.163,2210.8L184.635,2210.88L185.105,2210.97L185.576,2211.05L186.045,2211.14L186.515,2211.22L186.984,2211.3L187.453,2211.38L187.921,2211.46L188.389,2211.53L188.856,2211.61L189.323,2211.69L189.79,2211.76L190.256,2211.83L190.723,2211.9L191.188,2211.97L191.653,2212.04L192.118,2212.11L192.583,2212.18L193.046,2212.24L193.51,2212.3L193.974,2212.37L194.437,2212.43L194.899,2212.49L195.361,2212.55L195.823,2212.6L196.284,2212.66L196.745,2212.71L197.206,2212.77L197.666,2212.82L198.126,2212.87L198.586,2212.92L199.044,2212.97L199.503,2213.02L199.962,2213.07L200.42,2213.11L200.877,2213.15L201.334,2213.2L201.791,2213.24L202.248,2213.28L202.704,2213.32L203.16,2213.35L203.615,2213.39L204.07,2213.43L204.525,2213.46L204.979,2213.49L205.433,2213.52L205.886,2213.55L206.339,2213.58L206.792,2213.61L207.245,2213.64L207.697,2213.66L208.149,2213.69L208.6,2213.71L209.051,2213.73L209.501,2213.75L209.951,2213.77L210.401,2213.79L210.851,2213.8L211.3,2213.82L211.749,2213.83L212.197,2213.84L212.645,2213.86L213.093,2213.87L213.54,2213.87L213.987,2213.88L214.434,2213.89L214.88,2213.89L215.326,2213.9L215.772,2213.9L216.217,2213.9L216.662,2213.9L217.106,2213.9L217.55,2213.9L217.994,2213.89L218.438,2213.89L218.881,2213.88L219.324,2213.87L219.766,2213.86L220.208,2213.85L220.65,2213.84L221.091,2213.83L221.532,2213.81L221.973,2213.8L222.413,2213.78L222.853,2213.76L223.293,2213.74L223.733,2213.72L224.172,2213.7L224.61,2213.68L225.049,2213.65L225.486,2213.63L225.924,2213.6L226.362,2213.57L226.799,2213.54L227.235,2213.51L227.672,2213.48L228.107,2213.45L228.543,2213.41L228.979,2213.38L229.414,2213.34L229.848,2213.3L230.283,2213.26L230.717,2213.22L231.151,2213.18L231.584,2213.13L232.017,2213.09L232.45,2213.04L232.883,2212.99L233.314,2212.94L233.747,2212.89L234.178,2212.84L234.609,2212.79L235.04,2212.73L235.471,2212.68L235.901,2212.62L236.331,2212.56L236.761,2212.5L237.189,2212.44L237.619,2212.38L238.048,2212.31L238.476,2212.25L238.904,2212.18L239.331,2212.12L239.759,2212.05L240.187,2211.98L240.613,2211.9L241.04,2211.83L241.466,2211.76L241.892,2211.68L242.318,2211.6L242.744,2211.53L243.169,2211.45L243.593,2211.37L244.018,2211.28L244.442,2211.2L244.866,2211.11L245.29,2211.03L245.713,2210.94L246.136,2210.85L246.559,2210.76L246.981,2210.67L247.403,2210.58L247.825,2210.48L248.247,2210.39L248.668,2210.29L249.09,2210.19L249.51,2210.09L249.931,2209.99L250.351,2209.89L250.771,2209.78L251.191,2209.68L251.61,2209.57L252.029,2209.46L252.448,2209.35L252.867,2209.24L253.285,2209.13L253.703,2209.02L254.121,2208.9L254.539,2208.79L254.956,2208.67L255.372,2208.55L255.789,2208.43L256.206,2208.31L256.622,2208.18L257.038,2208.06L257.453,2207.93L257.869,2207.81L258.284,2207.68L258.699,2207.55L259.113,2207.42L259.528,2207.28L259.942,2207.15L260.355,2207.02L260.769,2206.88L261.183,2206.74L261.596,2206.6L262.009,2206.46L262.421,2206.32L262.834,2206.17L263.246,2206.03L263.657,2205.88L264.069,2205.73L264.48,2205.58L264.892,2205.43L265.302,2205.28L265.713,2205.13L266.123,2204.97L266.534,2204.82L266.943,2204.66L267.353,2204.5L267.762,2204.34L268.171,2204.18L268.58,2204.01L268.989,2203.85L269.397,2203.68L269.805,2203.51L270.214,2203.34L270.628,2203.17L271.023,2203.03L271.436,2202.93L271.861,2202.87L272.292,2202.86L272.722,2202.88ZM271.811,2205.91L271.391,2206.08L270.972,2206.26L270.552,2206.43L270.132,2206.6L269.711,2206.76L269.29,2206.93L268.869,2207.1L268.448,2207.26L268.026,2207.42L267.605,2207.58L267.182,2207.74L266.76,2207.9L266.337,2208.06L265.914,2208.21L265.491,2208.37L265.068,2208.52L264.644,2208.67L264.22,2208.82L263.795,2208.97L263.371,2209.12L262.946,2209.26L262.52,2209.4L262.095,2209.55L261.669,2209.69L261.243,2209.83L260.817,2209.97L260.39,2210.1L259.963,2210.24L259.536,2210.37L259.108,2210.5L258.68,2210.63L258.252,2210.76L257.824,2210.89L257.395,2211.02L256.966,2211.14L256.537,2211.27L256.107,2211.39L255.677,2211.51L255.247,2211.63L254.817,2211.75L254.386,2211.87L253.955,2211.98L253.524,2212.1L253.092,2212.21L252.66,2212.32L252.228,2212.43L251.796,2212.54L251.363,2212.64L250.93,2212.75L250.496,2212.86L250.063,2212.96L249.629,2213.06L249.195,2213.16L248.76,2213.26L248.325,2213.36L247.89,2213.45L247.455,2213.55L247.019,2213.64L246.583,2213.73L246.146,2213.82L245.71,2213.91L245.273,2214L244.836,2214.08L244.398,2214.17L243.96,2214.25L243.522,2214.33L243.084,2214.41L242.645,2214.49L242.206,2214.57L241.766,2214.65L241.327,2214.72L240.887,2214.8L240.447,2214.87L240.006,2214.94L239.565,2215.01L239.124,2215.08L238.683,2215.15L238.241,2215.21L237.799,2215.28L237.356,2215.34L236.914,2215.4L236.471,2215.46L236.027,2215.52L235.584,2215.58L235.14,2215.63L234.696,2215.69L234.251,2215.74L233.806,2215.79L233.361,2215.84L232.916,2215.89L232.47,2215.94L232.024,2215.99L231.577,2216.03L231.131,2216.08L230.684,2216.12L230.236,2216.16L229.789,2216.2L229.341,2216.24L228.892,2216.28L228.444,2216.31L227.995,2216.35L227.546,2216.38L227.096,2216.41L226.646,2216.44L226.196,2216.47L225.746,2216.5L225.295,2216.53L224.844,2216.55L224.392,2216.58L223.941,2216.6L223.489,2216.62L223.036,2216.64L222.583,2216.66L222.13,2216.68L221.677,2216.69L221.223,2216.7L220.77,2216.72L220.315,2216.73L219.861,2216.74L219.406,2216.75L218.95,2216.76L218.495,2216.76L218.039,2216.77L217.583,2216.78L217.126,2216.78L216.669,2216.78L216.212,2216.78L215.755,2216.78L215.297,2216.78L214.839,2216.77L214.38,2216.77L213.921,2216.76L213.462,2216.75L213.003,2216.74L212.543,2216.73L212.083,2216.72L211.623,2216.71L211.162,2216.7L210.701,2216.68L210.239,2216.66L209.778,2216.64L209.316,2216.63L208.853,2216.61L208.39,2216.58L207.927,2216.56L207.464,2216.53L207,2216.51L206.536,2216.48L206.072,2216.45L205.607,2216.42L205.142,2216.39L204.677,2216.36L204.211,2216.33L203.745,2216.29L203.279,2216.26L202.812,2216.22L202.345,2216.18L201.877,2216.14L201.41,2216.1L200.942,2216.06L200.473,2216.01L200.005,2215.97L199.536,2215.92L199.066,2215.88L198.596,2215.83L198.126,2215.78L197.656,2215.72L197.185,2215.67L196.714,2215.62L196.243,2215.56L195.771,2215.51L195.299,2215.45L194.827,2215.39L194.354,2215.33L193.881,2215.27L193.407,2215.21L192.933,2215.14L192.459,2215.08L191.985,2215.01L191.51,2214.94L191.035,2214.88L190.559,2214.8L190.083,2214.73L189.607,2214.66L189.131,2214.59L188.654,2214.51L188.177,2214.44L187.699,2214.36L187.221,2214.28L186.743,2214.2L186.264,2214.12L185.785,2214.04L185.306,2213.95L184.826,2213.87L184.346,2213.78L183.866,2213.69L183.385,2213.61L182.904,2213.52L182.423,2213.42L181.941,2213.33L181.459,2213.24L180.977,2213.14L180.494,2213.05L180.011,2212.95L179.527,2212.85L179.043,2212.75L178.559,2212.65L178.075,2212.55L177.59,2212.45L177.104,2212.34L176.619,2212.24L176.133,2212.13L175.646,2212.02L175.16,2211.91L174.673,2211.8L174.185,2211.69L173.698,2211.58L173.21,2211.46L172.721,2211.35L172.232,2211.23L171.743,2211.11L171.254,2210.99L170.764,2210.87L170.273,2210.75L169.783,2210.63L169.292,2210.51L168.801,2210.38L168.309,2210.25L167.817,2210.13L167.324,2210L166.832,2209.87L166.339,2209.74L165.845,2209.61L165.351,2209.47L164.857,2209.34L164.362,2209.2L163.868,2209.07L163.372,2208.93L162.877,2208.79L162.381,2208.65L161.884,2208.51L161.387,2208.36L160.89,2208.22L160.393,2208.07L159.895,2207.93L159.397,2207.78L158.898,2207.63L158.399,2207.48L157.9,2207.33L157.4,2207.18L156.9,2207.03L156.4,2206.87L155.899,2206.72L155.398,2206.56L154.896,2206.4L147.23,2216.73L147.741,2217.01L148.253,2217.28L148.764,2217.56L149.275,2217.83L149.787,2218.09L150.298,2218.36L150.809,2218.62L151.321,2218.88L151.832,2219.14L152.343,2219.4L152.855,2219.66L153.366,2219.91L153.877,2220.16L154.388,2220.41L154.899,2220.65L155.41,2220.9L155.921,2221.14L156.432,2221.38L156.944,2221.62L157.455,2221.85L157.966,2222.08L158.477,2222.31L158.988,2222.54L159.499,2222.77L160.01,2222.99L160.521,2223.22L161.032,2223.44L161.543,2223.66L162.054,2223.87L162.565,2224.08L163.076,2224.3L163.587,2224.51L164.097,2224.71L164.608,2224.92L165.119,2225.12L165.63,2225.32L166.141,2225.52L166.652,2225.72L167.163,2225.91L167.674,2226.1L168.185,2226.29L168.696,2226.48L169.207,2226.67L169.718,2226.85L170.229,2227.03L170.74,2227.21L171.251,2227.39L171.762,2227.56L172.273,2227.74L172.785,2227.91L173.296,2228.08L173.807,2228.24L174.318,2228.41L174.829,2228.57L175.34,2228.73L175.851,2228.89L176.363,2229.04L176.874,2229.2L177.385,2229.35L177.896,2229.5L178.408,2229.64L178.919,2229.79L179.431,2229.93L179.942,2230.07L180.453,2230.21L180.965,2230.35L181.476,2230.48L181.988,2230.62L182.5,2230.74L183.011,2230.87L183.523,2231L184.035,2231.12L184.546,2231.24L185.058,2231.37L185.57,2231.48L186.082,2231.6L186.594,2231.71L187.106,2231.82L187.617,2231.93L188.13,2232.04L188.642,2232.14L189.154,2232.25L189.666,2232.35L190.178,2232.45L190.69,2232.54L191.203,2232.64L191.715,2232.73L192.228,2232.82L192.74,2232.91L193.253,2232.99L193.765,2233.08L194.278,2233.16L194.791,2233.24L195.303,2233.32L195.816,2233.39L196.329,2233.46L196.842,2233.53L197.355,2233.6L197.868,2233.67L198.381,2233.74L198.895,2233.8L199.408,2233.86L199.921,2233.92L200.435,2233.97L200.948,2234.03L201.462,2234.08L201.975,2234.13L202.489,2234.18L203.003,2234.23L203.517,2234.27L204.031,2234.31L204.545,2234.35L205.059,2234.39L205.573,2234.43L206.087,2234.46L206.602,2234.49L207.116,2234.52L207.631,2234.55L208.145,2234.57L208.66,2234.6L209.175,2234.62L209.69,2234.64L210.205,2234.65L210.72,2234.67L211.235,2234.68L211.75,2234.69L212.265,2234.7L212.781,2234.71L213.296,2234.71L213.812,2234.71L214.328,2234.71L214.844,2234.71L215.36,2234.71L215.876,2234.7L216.392,2234.69L216.908,2234.68L217.424,2234.67L217.941,2234.66L218.457,2234.64L218.974,2234.62L219.491,2234.6L220.007,2234.58L220.524,2234.56L221.041,2234.53L221.559,2234.5L222.076,2234.47L222.593,2234.44L223.111,2234.4L223.628,2234.37L224.146,2234.33L224.664,2234.29L225.182,2234.24L225.7,2234.2L226.218,2234.15L226.737,2234.1L227.255,2234.05L227.774,2234L228.293,2233.94L228.812,2233.89L229.33,2233.83L229.85,2233.76L230.369,2233.7L230.888,2233.64L231.408,2233.57L231.927,2233.5L232.447,2233.43L232.967,2233.35L233.487,2233.28L234.007,2233.2L234.527,2233.12L235.048,2233.04L235.569,2232.95L236.089,2232.87L236.61,2232.78L237.131,2232.69L237.652,2232.6L238.174,2232.51L238.695,2232.41L239.217,2232.31L239.738,2232.21L240.26,2232.11L240.782,2232.01L241.304,2231.9L241.827,2231.79L242.349,2231.68L242.872,2231.57L243.395,2231.45L243.918,2231.34L244.441,2231.22L244.964,2231.1L245.487,2230.98L246.011,2230.85L246.535,2230.73L247.058,2230.6L247.583,2230.47L248.107,2230.34L248.631,2230.2L249.156,2230.07L249.68,2229.93L250.205,2229.79L250.73,2229.64L251.256,2229.5L251.781,2229.35L252.306,2229.2L252.832,2229.05L253.358,2228.9L253.884,2228.75L254.41,2228.59L254.937,2228.43L255.463,2228.27L255.99,2228.11L256.517,2227.94L257.044,2227.78L257.572,2227.61L258.099,2227.44L258.627,2227.26L259.155,2227.09L259.683,2226.91L260.211,2226.74L260.739,2226.55L261.268,2226.37L261.797,2226.19L262.326,2226L262.855,2225.81L263.384,2225.62L263.914,2225.43L264.444,2225.24L264.974,2225.04L265.504,2224.84L266.034,2224.64L266.565,2224.44L267.096,2224.23L267.627,2224.03L268.158,2223.82L268.689,2223.61L269.221,2223.4L269.752,2223.18L270.284,2222.97L270.817,2222.75L271.349,2222.53L271.882,2222.3L272.414,2222.08L272.947,2221.85L273.481,2221.63L274.014,2221.39L274.548,2221.16L275.082,2220.93L275.616,2220.69L276.15,2220.45L276.685,2220.22L277.219,2219.97L277.754,2219.73L278.289,2219.48L278.825,2219.24L279.36,2218.99L279.896,2218.73L272.23,2205.73L271.811,2205.91Z" style="fill:rgb(66,65,76);"/>
            </g>
            <g transform="matrix(1.04498,-0.183834,0.202667,1.15203,-461.172,-310.269)">
                <path d="M138.938,2221.03L185.289,2260.35C185.401,2260.4 179.65,2257.75 175.896,2257.78L134.343,2221.73C137.048,2220.94 138.254,2220.94 138.938,2221.03Z" style="fill:rgb(66,65,76);"/>
                <path d="M139.51,2218.7L139.735,2218.75L139.954,2218.83L140.165,2218.92L140.366,2219.02L140.556,2219.15L140.733,2219.28L187.084,2258.61L187.253,2258.76L187.405,2258.93L187.539,2259.12L187.654,2259.31L187.75,2259.51L187.824,2259.72L187.877,2259.93L187.908,2260.15L187.917,2260.37L187.903,2260.59L187.868,2260.8L187.811,2261.02L187.732,2261.22L187.633,2261.42L187.514,2261.62L187.376,2261.8L187.22,2261.96L187.048,2262.12L186.862,2262.26L186.661,2262.38L186.45,2262.49L186.228,2262.57L185.999,2262.64L185.763,2262.69L185.524,2262.72L185.282,2262.73L185.041,2262.72L184.802,2262.69L184.566,2262.64L184.337,2262.57L184.116,2262.48L184.08,2262.46L183.926,2262.39L183.812,2262.35L183.668,2262.28L183.5,2262.21L183.308,2262.13L183.093,2262.05L182.859,2261.95L182.606,2261.85L182.335,2261.75L182.046,2261.64L181.899,2261.58L181.748,2261.53L181.593,2261.47L181.434,2261.41L181.273,2261.36L181.109,2261.3L180.944,2261.24L180.776,2261.19L180.606,2261.13L180.434,2261.08L180.261,2261.02L180.087,2260.97L179.912,2260.91L179.734,2260.86L179.557,2260.81L179.38,2260.76L179.202,2260.71L179.026,2260.66L178.847,2260.61L178.671,2260.57L178.495,2260.53L178.319,2260.49L178.147,2260.45L177.975,2260.41L177.805,2260.38L177.637,2260.34L177.471,2260.31L177.309,2260.29L177.145,2260.26L177.071,2260.25L176.994,2260.24L176.917,2260.23L176.84,2260.22L176.767,2260.21L176.694,2260.2L176.62,2260.2L176.547,2260.19L176.479,2260.18L176.413,2260.18L176.342,2260.17L176.277,2260.17L176.214,2260.16L176.149,2260.16L176.087,2260.16L176.027,2260.16L175.969,2260.16L175.897,2260.16L175.674,2260.15L175.453,2260.13L175.235,2260.08L175.022,2260.02L174.815,2259.95L174.617,2259.86L174.427,2259.75L174.248,2259.63L174.08,2259.5L132.527,2223.46L132.363,2223.3L132.216,2223.13L132.086,2222.95L131.974,2222.76L131.881,2222.57L131.808,2222.36L131.756,2222.15L131.725,2221.94L131.715,2221.73L131.726,2221.51L131.759,2221.3L131.812,2221.09L131.886,2220.89L131.98,2220.69L132.093,2220.5L132.224,2220.32L132.373,2220.16L132.537,2220L132.716,2219.86L132.908,2219.74L133.112,2219.63L133.326,2219.54L133.548,2219.46L133.808,2219.39L134.069,2219.31L134.323,2219.24L134.571,2219.18L134.81,2219.12L135.043,2219.06L135.27,2219.01L135.49,2218.96L135.704,2218.91L135.912,2218.87L136.112,2218.83L136.309,2218.8L136.501,2218.77L136.687,2218.74L136.868,2218.71L137.044,2218.69L137.216,2218.67L137.384,2218.65L137.546,2218.64L137.706,2218.63L137.861,2218.62L138.012,2218.61L138.162,2218.61L138.304,2218.6L138.443,2218.61L138.579,2218.61L138.712,2218.61L138.84,2218.62L138.963,2218.63L139.085,2218.64L139.197,2218.65L139.28,2218.66L139.51,2218.7ZM138.872,2221.02L138.803,2221.01L138.731,2221L138.655,2221L138.575,2220.99L138.492,2220.99L138.404,2220.99L138.312,2220.99L138.215,2220.99L138.114,2220.99L138.008,2221L137.897,2221L137.78,2221.01L137.658,2221.02L137.531,2221.03L137.398,2221.05L137.259,2221.07L137.114,2221.09L136.963,2221.11L136.805,2221.14L136.641,2221.17L136.469,2221.2L136.291,2221.24L136.106,2221.28L135.913,2221.32L135.713,2221.37L135.505,2221.42L135.289,2221.47L135.065,2221.53L134.833,2221.6L134.592,2221.66L134.343,2221.73L175.896,2257.78L175.985,2257.78L176.074,2257.78L176.163,2257.78L176.254,2257.78L176.345,2257.78L176.437,2257.79L176.529,2257.8L176.622,2257.8L176.715,2257.81L176.809,2257.82L176.903,2257.83L176.998,2257.84L177.094,2257.85L177.189,2257.86L177.286,2257.87L177.382,2257.88L177.479,2257.89L177.577,2257.91L177.772,2257.94L177.969,2257.97L178.167,2258.01L178.365,2258.05L178.564,2258.09L178.764,2258.13L178.963,2258.18L179.163,2258.22L179.363,2258.27L179.562,2258.32L179.761,2258.37L179.959,2258.43L180.156,2258.48L180.352,2258.54L180.547,2258.59L180.741,2258.65L180.933,2258.71L181.123,2258.77L181.312,2258.83L181.498,2258.89L181.682,2258.95L181.863,2259.01L182.042,2259.07L182.218,2259.13L182.391,2259.19L182.561,2259.25L182.728,2259.32L182.89,2259.37L183.05,2259.43L183.356,2259.55L183.645,2259.66L183.916,2259.77L184.167,2259.87L184.396,2259.96L184.603,2260.05L184.785,2260.13L184.942,2260.19L185.071,2260.25L185.243,2260.33L185.289,2260.35L138.938,2221.03L138.872,2221.02Z" style="fill:rgb(66,65,76);"/>
            </g>
        </g>
        <g transform="matrix(0.378788,0,0,0.340136,959.476,982.131)">
            <rect x="1913.01" y="1615.15" width="528" height="588" style="fill:none;"/>
        </g>
    </g>
</svg>
