<?xml version="1.0" encoding="UTF-8" standalone="no"?>
<!DOCTYPE svg PUBLIC "-//W3C//DTD SVG 1.1//EN" "http://www.w3.org/Graphics/SVG/1.1/DTD/svg11.dtd">
<svg width="100%" height="100%" viewBox="0 0 200 200" version="1.1" xmlns="http://www.w3.org/2000/svg" xmlns:xlink="http://www.w3.org/1999/xlink" xml:space="preserve" xmlns:serif="http://www.serif.com/" style="fill-rule:evenodd;clip-rule:evenodd;stroke-linecap:round;stroke-linejoin:round;stroke-miterlimit:1.5;">
    <g transform="matrix(1,0,0,1,-581.352,-1514.07)">
        <g id="Layer3" transform="matrix(0.936162,0,0,0.936162,45.5175,105)">
            <g>
                <g>
                    <g transform="matrix(0.768618,0,0,0.768618,-292.167,379.102)">
                        <circle cx="1299.31" cy="1563.5" r="5" style="fill:rgb(109,61,215);"/>
                        <path d="M1299.69,1548.83L1300.06,1548.84L1300.43,1548.86L1300.81,1548.9L1301.17,1548.94L1301.53,1548.99L1301.9,1549.05L1302.26,1549.12L1302.63,1549.2L1302.98,1549.28L1303.33,1549.38L1303.67,1549.48L1304.02,1549.59L1304.37,1549.72L1304.7,1549.84L1305.04,1549.98L1305.36,1550.12L1305.68,1550.27L1306.01,1550.43L1306.32,1550.6L1306.63,1550.77L1306.93,1550.95L1307.23,1551.14L1307.54,1551.34L1307.82,1551.54L1308.1,1551.74L1308.38,1551.96L1308.65,1552.17L1308.93,1552.41L1309.19,1552.64L1309.44,1552.88L1309.7,1553.12L1309.94,1553.37L1310.18,1553.63L1310.41,1553.89L1310.64,1554.16L1310.86,1554.43L1311.07,1554.71L1311.28,1555L1311.48,1555.29L1311.67,1555.58L1311.86,1555.88L1312.05,1556.19L1312.22,1556.5L1312.38,1556.81L1312.54,1557.13L1312.69,1557.46L1312.84,1557.78L1312.97,1558.12L1313.1,1558.46L1313.22,1558.8L1313.33,1559.14L1313.44,1559.49L1313.53,1559.84L1313.62,1560.19L1313.7,1560.56L1313.77,1560.92L1313.83,1561.28L1313.88,1561.64L1313.92,1562.01L1313.95,1562.38L1313.98,1562.76L1313.99,1563.13L1314,1563.5L1313.99,1563.88L1313.98,1564.25L1313.95,1564.62L1313.92,1565L1313.88,1565.36L1313.83,1565.73L1313.77,1566.09L1313.7,1566.45L1313.62,1566.81L1313.53,1567.17L1313.44,1567.52L1313.33,1567.87L1313.22,1568.21L1313.1,1568.55L1312.98,1568.89L1312.84,1569.23L1312.69,1569.56L1312.54,1569.87L1312.38,1570.19L1312.22,1570.51L1312.04,1570.82L1311.86,1571.13L1311.68,1571.42L1311.48,1571.72L1311.28,1572.01L1311.07,1572.3L1310.86,1572.57L1310.64,1572.85L1310.41,1573.12L1310.18,1573.38L1309.94,1573.63L1309.69,1573.89L1309.45,1574.13L1309.19,1574.37L1308.92,1574.61L1308.66,1574.83L1308.38,1575.05L1308.1,1575.27L1307.82,1575.47L1307.53,1575.67L1307.24,1575.87L1306.93,1576.06L1306.62,1576.24L1306.32,1576.41L1306.01,1576.58L1305.69,1576.73L1305.36,1576.88L1305.04,1577.03L1304.7,1577.17L1304.36,1577.3L1304.03,1577.41L1303.67,1577.53L1303.33,1577.63L1302.98,1577.73L1302.62,1577.81L1302.26,1577.89L1301.9,1577.96L1301.54,1578.02L1301.17,1578.07L1300.8,1578.11L1300.44,1578.14L1300.06,1578.17L1299.69,1578.18L1299.31,1578.19L1298.94,1578.18L1298.56,1578.17L1298.19,1578.14L1297.83,1578.11L1297.46,1578.07L1297.09,1578.02L1296.72,1577.96L1296.36,1577.89L1296.01,1577.81L1295.65,1577.73L1295.29,1577.63L1294.95,1577.53L1294.6,1577.41L1294.27,1577.3L1293.93,1577.17L1293.59,1577.03L1293.26,1576.88L1292.94,1576.73L1292.62,1576.58L1292.31,1576.41L1292,1576.24L1291.69,1576.06L1291.39,1575.87L1291.1,1575.67L1290.8,1575.47L1290.52,1575.27L1290.24,1575.05L1289.96,1574.83L1289.7,1574.61L1289.44,1574.37L1289.18,1574.13L1288.93,1573.89L1288.68,1573.63L1288.44,1573.38L1288.22,1573.12L1287.99,1572.85L1287.77,1572.57L1287.55,1572.3L1287.34,1572.01L1287.14,1571.72L1286.95,1571.42L1286.76,1571.13L1286.58,1570.82L1286.41,1570.51L1286.24,1570.19L1286.08,1569.87L1285.93,1569.55L1285.79,1569.23L1285.65,1568.89L1285.52,1568.55L1285.4,1568.21L1285.29,1567.87L1285.19,1567.52L1285.09,1567.17L1285.01,1566.81L1284.93,1566.46L1284.86,1566.09L1284.8,1565.73L1284.75,1565.36L1284.7,1565L1284.67,1564.62L1284.65,1564.25L1284.63,1563.88L1284.63,1563.5L1284.63,1563.13L1284.65,1562.76L1284.67,1562.38L1284.7,1562.01L1284.75,1561.64L1284.8,1561.28L1284.86,1560.92L1284.93,1560.55L1285.01,1560.19L1285.09,1559.84L1285.19,1559.49L1285.29,1559.14L1285.4,1558.8L1285.52,1558.46L1285.65,1558.12L1285.79,1557.78L1285.93,1557.46L1286.08,1557.13L1286.24,1556.81L1286.41,1556.5L1286.58,1556.19L1286.76,1555.88L1286.95,1555.58L1287.14,1555.29L1287.34,1555L1287.55,1554.71L1287.77,1554.43L1287.99,1554.16L1288.21,1553.89L1288.45,1553.63L1288.68,1553.37L1288.93,1553.12L1289.18,1552.88L1289.44,1552.64L1289.7,1552.41L1289.97,1552.18L1290.24,1551.96L1290.52,1551.74L1290.8,1551.54L1291.09,1551.34L1291.39,1551.14L1291.69,1550.95L1291.99,1550.77L1292.31,1550.6L1292.62,1550.43L1292.94,1550.27L1293.26,1550.12L1293.59,1549.98L1293.93,1549.84L1294.26,1549.72L1294.61,1549.59L1294.95,1549.48L1295.29,1549.38L1295.65,1549.28L1296,1549.2L1296.36,1549.12L1296.72,1549.05L1297.1,1548.99L1297.46,1548.94L1297.82,1548.9L1298.19,1548.86L1298.56,1548.84L1298.94,1548.83L1299.31,1548.82L1299.69,1548.83ZM1299.18,1558.51L1299.06,1558.51L1298.93,1558.52L1298.8,1558.53L1298.68,1558.54L1298.55,1558.56L1298.43,1558.58L1298.31,1558.61L1298.18,1558.63L1298.06,1558.66L1297.94,1558.69L1297.83,1558.73L1297.71,1558.77L1297.59,1558.81L1297.48,1558.85L1297.37,1558.9L1297.26,1558.95L1297.15,1559L1297.04,1559.05L1296.93,1559.11L1296.83,1559.17L1296.72,1559.23L1296.62,1559.29L1296.52,1559.36L1296.42,1559.43L1296.32,1559.5L1296.23,1559.57L1296.13,1559.65L1296.04,1559.72L1295.95,1559.8L1295.86,1559.89L1295.78,1559.97L1295.69,1560.06L1295.61,1560.14L1295.53,1560.23L1295.45,1560.33L1295.38,1560.42L1295.31,1560.51L1295.24,1560.61L1295.17,1560.71L1295.1,1560.81L1295.04,1560.91L1294.98,1561.02L1294.92,1561.12L1294.86,1561.23L1294.81,1561.34L1294.75,1561.45L1294.71,1561.56L1294.66,1561.67L1294.62,1561.79L1294.58,1561.9L1294.54,1562.02L1294.5,1562.14L1294.47,1562.26L1294.44,1562.38L1294.41,1562.5L1294.39,1562.62L1294.37,1562.74L1294.35,1562.87L1294.34,1562.99L1294.33,1563.12L1294.32,1563.25L1294.31,1563.38L1294.31,1563.5L1294.31,1563.63L1294.32,1563.76L1294.33,1563.89L1294.34,1564.02L1294.35,1564.14L1294.37,1564.27L1294.39,1564.39L1294.41,1564.51L1294.44,1564.63L1294.47,1564.75L1294.5,1564.87L1294.54,1564.99L1294.58,1565.11L1294.62,1565.22L1294.66,1565.34L1294.71,1565.45L1294.75,1565.56L1294.81,1565.67L1294.86,1565.78L1294.92,1565.89L1294.98,1565.99L1295.04,1566.1L1295.1,1566.2L1295.17,1566.3L1295.24,1566.4L1295.31,1566.5L1295.38,1566.59L1295.45,1566.68L1295.53,1566.78L1295.61,1566.87L1295.69,1566.95L1295.78,1567.04L1295.86,1567.12L1295.95,1567.2L1296.04,1567.28L1296.13,1567.36L1296.23,1567.44L1296.32,1567.51L1296.42,1567.58L1296.52,1567.65L1296.62,1567.72L1296.72,1567.78L1296.83,1567.84L1296.93,1567.9L1297.04,1567.96L1297.15,1568.01L1297.26,1568.06L1297.37,1568.11L1297.48,1568.16L1297.59,1568.2L1297.71,1568.24L1297.83,1568.28L1297.94,1568.31L1298.06,1568.35L1298.18,1568.38L1298.31,1568.4L1298.43,1568.43L1298.55,1568.45L1298.68,1568.46L1298.8,1568.48L1298.93,1568.49L1299.06,1568.5L1299.18,1568.5L1299.31,1568.5L1299.44,1568.5L1299.57,1568.5L1299.7,1568.49L1299.82,1568.48L1299.95,1568.46L1300.07,1568.45L1300.2,1568.43L1300.32,1568.4L1300.44,1568.38L1300.56,1568.35L1300.68,1568.31L1300.8,1568.28L1300.91,1568.24L1301.03,1568.2L1301.14,1568.16L1301.26,1568.11L1301.37,1568.06L1301.48,1568.01L1301.59,1567.96L1301.69,1567.9L1301.8,1567.84L1301.9,1567.78L1302.01,1567.72L1302.11,1567.65L1302.21,1567.58L1302.3,1567.51L1302.4,1567.44L1302.49,1567.36L1302.58,1567.28L1302.67,1567.2L1302.76,1567.12L1302.85,1567.04L1302.93,1566.95L1303.01,1566.87L1303.09,1566.78L1303.17,1566.68L1303.25,1566.59L1303.32,1566.5L1303.39,1566.4L1303.46,1566.3L1303.52,1566.2L1303.59,1566.1L1303.65,1565.99L1303.71,1565.89L1303.77,1565.78L1303.82,1565.67L1303.87,1565.56L1303.92,1565.45L1303.96,1565.34L1304.01,1565.22L1304.05,1565.11L1304.09,1564.99L1304.12,1564.87L1304.15,1564.75L1304.18,1564.63L1304.21,1564.51L1304.23,1564.39L1304.26,1564.27L1304.27,1564.14L1304.29,1564.02L1304.3,1563.89L1304.31,1563.76L1304.31,1563.63L1304.31,1563.5L1304.31,1563.38L1304.31,1563.25L1304.3,1563.12L1304.29,1562.99L1304.27,1562.87L1304.26,1562.74L1304.23,1562.62L1304.21,1562.5L1304.18,1562.38L1304.15,1562.26L1304.12,1562.14L1304.09,1562.02L1304.05,1561.9L1304.01,1561.79L1303.96,1561.67L1303.92,1561.56L1303.87,1561.45L1303.82,1561.34L1303.77,1561.23L1303.71,1561.12L1303.65,1561.02L1303.59,1560.91L1303.52,1560.81L1303.46,1560.71L1303.39,1560.61L1303.32,1560.51L1303.25,1560.42L1303.17,1560.33L1303.09,1560.23L1303.01,1560.14L1302.93,1560.06L1302.85,1559.97L1302.76,1559.89L1302.67,1559.8L1302.58,1559.72L1302.49,1559.65L1302.4,1559.57L1302.3,1559.5L1302.21,1559.43L1302.11,1559.36L1302.01,1559.29L1301.9,1559.23L1301.8,1559.17L1301.69,1559.11L1301.59,1559.05L1301.48,1559L1301.37,1558.95L1301.26,1558.9L1301.14,1558.85L1301.03,1558.81L1300.91,1558.77L1300.8,1558.73L1300.68,1558.69L1300.56,1558.66L1300.44,1558.63L1300.32,1558.61L1300.2,1558.58L1300.07,1558.56L1299.95,1558.54L1299.82,1558.53L1299.7,1558.52L1299.57,1558.51L1299.44,1558.51L1299.31,1558.5L1299.18,1558.51Z" style="fill:rgb(109,61,215);"/>
                    </g>
                    <g transform="matrix(0.957152,-0.0833314,0.0833314,0.957152,-638.751,178.663)">
                        <path d="M1290.67,1610.36L1307.6,1638.71" style="fill:none;stroke:rgb(78,180,249);stroke-width:11.48px;"/>
                    </g>
                    <g transform="matrix(0.957152,-0.0833314,0.0833314,0.957152,-639.913,164.672)">
                        <path d="M1308.31,1604.5L1337.23,1615.11" style="fill:rgb(255,174,251);stroke:rgb(255,174,251);stroke-width:17.79px;"/>
                    </g>
                    <g transform="matrix(0.957152,-0.0833314,0.0833314,0.957152,-639.161,169.001)">
                        <path d="M1306.31,1574.5L1334.72,1568.88" style="fill:none;stroke:rgb(78,180,249);stroke-width:11.48px;"/>
                    </g>
                    <g transform="matrix(0.957152,-0.0833314,0.0833314,0.957152,-644.161,165.668)">
                        <path d="M1300.31,1550.5L1320.55,1529.74" style="fill:rgb(255,174,251);stroke:rgb(255,174,251);stroke-width:18.58px;"/>
                    </g>
                    <g transform="matrix(0.957152,-0.0833314,0.0833314,0.957152,-676.699,268.816)">
                        <path d="M1313.71,1565.42L1310.31,1534.5" style="fill:rgb(255,174,251);stroke:rgb(255,174,251);stroke-width:18.58px;"/>
                    </g>
                    <g transform="matrix(0.957152,-0.0833314,0.0833314,0.957152,-646.161,168.668)">
                        <path d="M1276.03,1520.73L1278.31,1544.5" style="fill:none;stroke:rgb(78,180,249);stroke-width:11.48px;"/>
                    </g>
                    <g transform="matrix(0.957152,-0.0833314,0.0833314,0.957152,-653.494,161.668)">
                        <path d="M1247.32,1527.98L1258.31,1552.5" style="fill:rgb(255,174,251);stroke:rgb(255,174,251);stroke-width:18.58px;"/>
                    </g>
                    <g transform="matrix(0.957152,-0.0833314,0.0833314,0.957152,-649.161,168.668)">
                        <path d="M1214.78,1556.02L1243.13,1568.05" style="fill:none;stroke:rgb(78,180,249);stroke-width:11.48px;"/>
                    </g>
                    <g transform="matrix(0.957152,-0.0833314,0.0833314,0.957152,-669.494,172.001)">
                        <path d="M1214.78,1596.02L1246.31,1592.5" style="fill:rgb(255,174,251);stroke:rgb(255,174,251);stroke-width:18.58px;"/>
                    </g>
                </g>
                <g transform="matrix(3.66873,3.77192,-0.716844,0.697233,-302.877,-1642.97)">
                    <path d="M574.394,1566.84C574.394,1564.9 574.096,1563.33 573.728,1563.33C573.36,1563.33 573.061,1564.9 573.061,1566.84L573.061,1694.49C573.061,1696.43 573.36,1698 573.728,1698C574.096,1698 574.394,1696.43 574.394,1694.49L574.394,1566.84Z" style="fill:rgb(109,61,215);"/>
                    <path d="M572.154,1558.56L572.192,1558.37L572.231,1558.18L572.271,1557.99L572.312,1557.81L572.354,1557.63L572.395,1557.47L572.438,1557.3L572.482,1557.14L572.527,1556.98L572.573,1556.83L572.619,1556.69L572.665,1556.55L572.713,1556.42L572.761,1556.29L572.811,1556.17L572.861,1556.06L572.911,1555.95L572.962,1555.85L573.014,1555.75L573.067,1555.66L573.119,1555.58L573.173,1555.5L573.226,1555.43L573.28,1555.37L573.336,1555.31L573.39,1555.27L573.446,1555.23L573.502,1555.19L573.557,1555.17L573.614,1555.15L573.671,1555.13L573.728,1555.13L573.784,1555.13L573.841,1555.15L573.898,1555.17L573.954,1555.19L574.009,1555.23L574.065,1555.27L574.12,1555.32L574.175,1555.37L574.229,1555.43L574.283,1555.5L574.336,1555.58L574.389,1555.66L574.442,1555.75L574.493,1555.85L574.544,1555.95L574.595,1556.06L574.645,1556.17L574.693,1556.29L574.741,1556.42L574.79,1556.55L574.837,1556.69L574.883,1556.83L574.928,1556.98L574.973,1557.14L575.017,1557.3L575.06,1557.47L575.103,1557.63L575.143,1557.81L575.184,1557.99L575.225,1558.18L575.264,1558.37L575.301,1558.56L575.338,1558.76L575.374,1558.97L575.41,1559.18L575.444,1559.39L575.477,1559.61L575.51,1559.83L575.542,1560.06L575.572,1560.29L575.601,1560.52L575.63,1560.76L575.657,1561L575.684,1561.26L575.709,1561.51L575.732,1561.76L575.755,1562.02L575.777,1562.28L575.798,1562.55L575.817,1562.81L575.836,1563.09L575.853,1563.36L575.868,1563.64L575.883,1563.92L575.896,1564.2L575.908,1564.49L575.918,1564.78L575.927,1565.07L575.935,1565.36L575.942,1565.65L575.947,1565.94L575.95,1566.25L575.952,1566.55L575.953,1566.79L575.953,1694.54L575.952,1694.79L575.95,1695.09L575.947,1695.39L575.942,1695.68L575.935,1695.97L575.927,1696.26L575.918,1696.55L575.908,1696.85L575.896,1697.13L575.883,1697.41L575.868,1697.69L575.852,1697.97L575.836,1698.25L575.817,1698.52L575.798,1698.79L575.778,1699.05L575.755,1699.32L575.732,1699.58L575.708,1699.83L575.683,1700.08L575.657,1700.33L575.629,1700.58L575.602,1700.81L575.572,1701.04L575.541,1701.28L575.51,1701.51L575.477,1701.73L575.444,1701.94L575.41,1702.16L575.375,1702.37L575.338,1702.57L575.301,1702.77L575.263,1702.97L575.224,1703.16L575.185,1703.34L575.143,1703.53L575.102,1703.7L575.06,1703.87L575.017,1704.03L574.973,1704.19L574.929,1704.35L574.882,1704.5L574.836,1704.65L574.79,1704.78L574.742,1704.91L574.694,1705.04L574.645,1705.16L574.595,1705.28L574.544,1705.39L574.493,1705.49L574.441,1705.58L574.389,1705.67L574.336,1705.76L574.284,1705.83L574.229,1705.9L574.174,1705.96L574.12,1706.02L574.065,1706.07L574.009,1706.11L573.953,1706.14L573.897,1706.17L573.842,1706.19L573.784,1706.2L573.727,1706.2L573.672,1706.2L573.614,1706.19L573.558,1706.17L573.502,1706.14L573.446,1706.11L573.391,1706.07L573.335,1706.02L573.28,1705.96L573.226,1705.9L573.172,1705.83L573.119,1705.76L573.066,1705.67L573.014,1705.58L572.962,1705.49L572.911,1705.39L572.861,1705.28L572.811,1705.16L572.762,1705.04L572.713,1704.91L572.666,1704.78L572.619,1704.64L572.572,1704.5L572.527,1704.35L572.482,1704.2L572.438,1704.04L572.395,1703.87L572.353,1703.7L572.311,1703.52L572.271,1703.34L572.231,1703.16L572.192,1702.97L572.154,1702.77L572.117,1702.57L572.081,1702.37L572.046,1702.16L572.011,1701.94L571.978,1701.72L571.946,1701.5L571.914,1701.28L571.883,1701.04L571.854,1700.81L571.826,1700.57L571.798,1700.33L571.772,1700.08L571.747,1699.83L571.723,1699.57L571.7,1699.32L571.678,1699.06L571.657,1698.79L571.638,1698.52L571.62,1698.25L571.603,1697.97L571.587,1697.69L571.573,1697.41L571.559,1697.13L571.548,1696.85L571.537,1696.56L571.528,1696.26L571.52,1695.97L571.514,1695.68L571.509,1695.39L571.505,1695.09L571.503,1694.79L571.502,1694.54L571.502,1566.79L571.503,1566.54L571.505,1566.24L571.509,1565.95L571.514,1565.65L571.52,1565.36L571.528,1565.07L571.537,1564.78L571.548,1564.49L571.56,1564.2L571.572,1563.92L571.587,1563.64L571.603,1563.36L571.62,1563.09L571.638,1562.81L571.657,1562.55L571.678,1562.28L571.7,1562.02L571.722,1561.76L571.747,1561.5L571.772,1561.25L571.798,1561.01L571.826,1560.76L571.854,1560.53L571.883,1560.29L571.914,1560.06L571.946,1559.83L571.978,1559.61L572.011,1559.39L572.046,1559.18L572.081,1558.97L572.117,1558.76L572.154,1558.56ZM573.234,1564.48L573.224,1564.55L573.213,1564.61L573.203,1564.68L573.194,1564.74L573.184,1564.81L573.175,1564.88L573.166,1564.95L573.158,1565.02L573.149,1565.1L573.142,1565.17L573.134,1565.25L573.127,1565.32L573.12,1565.4L573.113,1565.48L573.107,1565.56L573.101,1565.64L573.096,1565.72L573.091,1565.8L573.086,1565.88L573.082,1565.97L573.078,1566.05L573.075,1566.13L573.071,1566.22L573.069,1566.31L573.066,1566.39L573.064,1566.48L573.063,1566.57L573.062,1566.66L573.061,1566.75L573.061,1566.84L573.061,1694.49L573.061,1694.58L573.062,1694.67L573.063,1694.76L573.064,1694.85L573.066,1694.94L573.069,1695.03L573.071,1695.11L573.075,1695.2L573.078,1695.28L573.082,1695.37L573.086,1695.45L573.091,1695.54L573.096,1695.62L573.101,1695.7L573.107,1695.78L573.113,1695.86L573.12,1695.93L573.127,1696.01L573.134,1696.09L573.142,1696.16L573.149,1696.24L573.158,1696.31L573.166,1696.38L573.175,1696.45L573.184,1696.52L573.194,1696.59L573.203,1696.66L573.213,1696.72L573.224,1696.79L573.234,1696.85L573.245,1696.91L573.256,1696.97L573.268,1697.03L573.28,1697.09L573.291,1697.14L573.304,1697.2L573.316,1697.25L573.329,1697.3L573.342,1697.35L573.355,1697.4L573.368,1697.45L573.382,1697.49L573.396,1697.54L573.41,1697.58L573.424,1697.62L573.439,1697.65L573.453,1697.69L573.468,1697.72L573.483,1697.76L573.499,1697.79L573.514,1697.82L573.53,1697.84L573.545,1697.87L573.561,1697.89L573.577,1697.91L573.593,1697.93L573.61,1697.94L573.626,1697.96L573.643,1697.97L573.66,1697.98L573.676,1697.99L573.693,1698L573.71,1698L573.728,1698L573.745,1698L573.762,1698L573.779,1697.99L573.796,1697.98L573.813,1697.97L573.829,1697.96L573.846,1697.94L573.862,1697.93L573.878,1697.91L573.894,1697.89L573.91,1697.87L573.926,1697.84L573.941,1697.82L573.957,1697.79L573.972,1697.76L573.987,1697.72L574.002,1697.69L574.017,1697.65L574.031,1697.62L574.045,1697.58L574.059,1697.54L574.073,1697.49L574.087,1697.45L574.1,1697.4L574.113,1697.35L574.126,1697.3L574.139,1697.25L574.152,1697.2L574.164,1697.14L574.176,1697.09L574.188,1697.03L574.199,1696.97L574.21,1696.91L574.221,1696.85L574.232,1696.79L574.242,1696.72L574.252,1696.66L574.262,1696.59L574.271,1696.52L574.28,1696.45L574.289,1696.38L574.298,1696.31L574.306,1696.24L574.314,1696.16L574.321,1696.09L574.329,1696.01L574.335,1695.93L574.342,1695.86L574.348,1695.78L574.354,1695.7L574.359,1695.62L574.364,1695.54L574.369,1695.45L574.373,1695.37L574.377,1695.28L574.381,1695.2L574.384,1695.11L574.387,1695.03L574.389,1694.94L574.391,1694.85L574.392,1694.76L574.393,1694.67L574.394,1694.58L574.394,1694.49L574.394,1566.84L574.394,1566.75L574.393,1566.66L574.392,1566.57L574.391,1566.48L574.389,1566.39L574.387,1566.31L574.384,1566.22L574.381,1566.13L574.377,1566.05L574.373,1565.97L574.369,1565.88L574.364,1565.8L574.359,1565.72L574.354,1565.64L574.348,1565.56L574.342,1565.48L574.335,1565.4L574.329,1565.32L574.321,1565.25L574.314,1565.17L574.306,1565.1L574.298,1565.02L574.289,1564.95L574.28,1564.88L574.271,1564.81L574.262,1564.74L574.252,1564.68L574.242,1564.61L574.232,1564.55L574.221,1564.48L574.21,1564.42L574.199,1564.36L574.188,1564.3L574.176,1564.25L574.164,1564.19L574.152,1564.13L574.139,1564.08L574.126,1564.03L574.113,1563.98L574.1,1563.93L574.087,1563.89L574.073,1563.84L574.059,1563.8L574.045,1563.76L574.031,1563.72L574.017,1563.68L574.002,1563.64L573.987,1563.61L573.972,1563.58L573.957,1563.55L573.941,1563.52L573.926,1563.49L573.91,1563.47L573.894,1563.44L573.878,1563.42L573.862,1563.4L573.846,1563.39L573.829,1563.37L573.813,1563.36L573.796,1563.35L573.779,1563.34L573.762,1563.34L573.745,1563.33L573.728,1563.33L573.71,1563.33L573.693,1563.34L573.676,1563.34L573.66,1563.35L573.643,1563.36L573.626,1563.37L573.61,1563.39L573.593,1563.4L573.577,1563.42L573.561,1563.44L573.545,1563.47L573.53,1563.49L573.514,1563.52L573.499,1563.55L573.483,1563.58L573.468,1563.61L573.453,1563.64L573.439,1563.68L573.424,1563.72L573.41,1563.76L573.396,1563.8L573.382,1563.84L573.368,1563.89L573.355,1563.93L573.342,1563.98L573.329,1564.03L573.316,1564.08L573.304,1564.13L573.291,1564.19L573.28,1564.25L573.268,1564.3L573.256,1564.36L573.245,1564.42L573.234,1564.48Z" style="fill:rgb(49,50,61);"/>
                </g>
            </g>
        </g>
        <g transform="matrix(0.378788,0,0,0.340136,-143.273,964.699)">
            <rect x="1913.01" y="1615.15" width="528" height="588" style="fill:none;"/>
        </g>
    </g>
</svg>
