<?xml version="1.0" encoding="UTF-8" standalone="no"?>
<!DOCTYPE svg PUBLIC "-//W3C//DTD SVG 1.1//EN" "http://www.w3.org/Graphics/SVG/1.1/DTD/svg11.dtd">
<svg width="100%" height="100%" viewBox="0 0 200 200" version="1.1" xmlns="http://www.w3.org/2000/svg" xmlns:xlink="http://www.w3.org/1999/xlink" xml:space="preserve" xmlns:serif="http://www.serif.com/" style="fill-rule:evenodd;clip-rule:evenodd;stroke-linecap:round;stroke-linejoin:round;stroke-miterlimit:10;">
    <g transform="matrix(1,0,0,1,-359.352,-1496.07)">
        <g id="Weapon" transform="matrix(2.90838,0,0,2.90838,-3266.5,-2085.27)">
            <g>
                <path d="M1260.89,1259.75C1263.14,1258.7 1269.14,1260.27 1271.46,1259.75C1272.95,1259.42 1274.61,1258.15 1274.81,1256.64C1275.36,1252.31 1274.28,1237.02 1274.81,1233.76C1275.17,1231.5 1279.01,1235.69 1280.82,1237.09C1282.83,1238.65 1285.65,1241.02 1286.84,1243.09C1287.92,1244.98 1287.73,1247.61 1287.95,1249.53C1288.15,1251.23 1287.88,1253.2 1288.18,1254.64C1288.44,1255.91 1288.75,1257.36 1289.74,1258.2C1290.79,1259.1 1292.81,1259.9 1294.51,1260.04C1298.49,1260.37 1308.82,1260.15 1313.59,1260.16C1313.59,1260.16 1306.49,1269.23 1304,1271.31C1302.59,1272.48 1300.48,1272.43 1298.65,1272.64C1296.6,1272.87 1293.46,1272.23 1291.68,1272.67C1290.2,1273.04 1288.19,1273.8 1287.95,1275.3C1287.3,1279.52 1288.61,1295.8 1287.76,1297.96C1286.7,1300.67 1277.37,1291 1275.25,1287.3C1273.33,1283.95 1275.7,1278.19 1275.03,1275.75C1274.6,1274.17 1272.86,1272.84 1271.24,1272.64C1266.86,1272.08 1250.29,1274.08 1248.73,1272.41C1247.08,1270.66 1258.61,1260.83 1260.89,1259.75Z" style="fill:rgb(149,156,174);stroke:rgb(60,59,68);stroke-width:2.41px;"/>
                <path d="M1261.44,1260.12C1263.68,1259.06 1265.45,1260.81 1266.02,1259.75C1268.09,1255.87 1256.3,1269.71 1253.63,1271.73C1252.66,1272.46 1252.29,1272.81 1250,1271.87C1247.77,1270.96 1259.15,1261.19 1261.44,1260.12Z" style="fill:white;"/>
                <path d="M1275.59,1286.07C1274.53,1283.83 1275.15,1280.83 1275.57,1281.96C1276.1,1283.39 1284.75,1290.63 1286.68,1293.17C1287.5,1294.26 1287.76,1294.96 1287.16,1297.24C1286.55,1299.57 1276.67,1288.35 1275.59,1286.07Z" style="fill:white;"/>
                <path d="M1286.63,1244.07C1287.88,1246.2 1286.47,1249.2 1287.58,1249.66C1291.64,1251.38 1276.88,1241.08 1275.59,1238.07C1275.19,1237.14 1275.3,1236.84 1275.13,1234.49C1274.95,1232.09 1285.35,1241.89 1286.63,1244.07Z" style="fill:white;"/>
                <path d="M1303.06,1271.24C1300.85,1272.36 1297.14,1272.48 1298.18,1271.87C1300.39,1270.56 1305.64,1262.49 1308.29,1261.1C1309.38,1260.53 1310.28,1260.45 1312.05,1260.55C1313.49,1260.63 1305.32,1270.1 1303.06,1271.24Z" style="fill:white;"/>
                <path d="M1281.56,1262.81C1283.45,1262.81 1284.98,1264.3 1284.98,1266.14C1284.98,1267.98 1283.45,1269.47 1281.56,1269.47C1279.67,1269.47 1278.14,1267.98 1278.14,1266.14C1278.14,1264.3 1279.67,1262.81 1281.56,1262.81Z" style="fill:white;stroke:rgb(60,59,68);stroke-width:2.41px;"/>
                <path d="M1254.1,1272.49C1258.03,1268.26 1261.95,1264.03 1265.88,1259.8" style="fill:none;stroke:rgb(60,59,68);stroke-width:2.41px;"/>
                <path d="M1275.11,1238.69C1279.36,1242.45 1283.6,1246.2 1287.85,1249.96" style="fill:none;stroke:rgb(60,59,68);stroke-width:2.41px;"/>
                <path d="M1275.43,1281.53C1279.46,1285.45 1283.5,1289.36 1287.53,1293.28" style="fill:none;stroke:rgb(60,59,68);stroke-width:2.41px;"/>
                <path d="M1297.24,1272.17C1300.85,1268.15 1304.46,1264.13 1308.07,1260.11" style="fill:none;stroke:rgb(60,59,68);stroke-width:2.41px;"/>
            </g>
        </g>
        <g transform="matrix(0.378788,0,0,0.340136,-365.273,946.699)">
            <rect x="1913.01" y="1615.15" width="528" height="588" style="fill:none;"/>
        </g>
    </g>
</svg>
