<?xml version="1.0" encoding="UTF-8" standalone="no"?>
<!DOCTYPE svg PUBLIC "-//W3C//DTD SVG 1.1//EN" "http://www.w3.org/Graphics/SVG/1.1/DTD/svg11.dtd">
<svg width="100%" height="100%" viewBox="0 0 200 200" version="1.1" xmlns="http://www.w3.org/2000/svg" xmlns:xlink="http://www.w3.org/1999/xlink" xml:space="preserve" xmlns:serif="http://www.serif.com/" style="fill-rule:evenodd;clip-rule:evenodd;stroke-linecap:round;stroke-linejoin:round;stroke-miterlimit:1.5;">
    <g transform="matrix(1,0,0,1,-1286.1,-1525.5)">
        <g transform="matrix(0.949341,0,0,0.949341,1188.42,-324.719)">
            <g transform="matrix(0.5,0,0,0.421053,79.0724,1204.96)">
                <ellipse cx="379.478" cy="1821.5" rx="8" ry="9.5" style="fill:rgb(49,50,61);"/>
            </g>
            <g transform="matrix(0.5,0,0,0.421053,88.5009,1202.96)">
                <ellipse cx="379.478" cy="1821.5" rx="8" ry="9.5" style="fill:rgb(49,50,61);"/>
            </g>
            <g transform="matrix(0.5,0,0,0.421053,97.7866,1201.53)">
                <ellipse cx="379.478" cy="1821.5" rx="8" ry="9.5" style="fill:rgb(49,50,61);"/>
            </g>
            <g transform="matrix(0.5,0,0,0.421053,106.644,1199.81)">
                <ellipse cx="379.478" cy="1821.5" rx="8" ry="9.5" style="fill:rgb(49,50,61);"/>
            </g>
            <g transform="matrix(1,0,0,1,-18.6667,149.333)">
                <path d="M227.836,1892.25L286.836,1833.75L320.836,1827.25L324.336,1830.25L309.336,1844.25L295.836,1844.25L227.336,1914.75C230.322,1905.57 231.195,1897.4 227.836,1892.25Z" style="fill:rgb(209,218,223);"/>
                <path d="M321.13,1821.99L321.557,1822.03L321.98,1822.11L322.395,1822.22L322.8,1822.36L323.192,1822.54L323.568,1822.75L323.926,1822.99L324.263,1823.25L327.763,1826.25L328.087,1826.55L328.384,1826.88L328.653,1827.23L328.891,1827.61L329.097,1828L329.269,1828.41L329.407,1828.83L329.508,1829.26L329.573,1829.7L329.601,1830.14L329.592,1830.58L329.546,1831.02L329.462,1831.46L329.343,1831.88L329.188,1832.3L328.999,1832.7L328.777,1833.08L328.523,1833.44L328.24,1833.79L327.929,1834.1L312.929,1848.1L312.596,1848.39L312.24,1848.64L311.863,1848.87L311.47,1849.07L311.061,1849.23L310.64,1849.35L310.21,1849.44L309.775,1849.5L309.336,1849.52L298.062,1849.52L231.113,1918.42L230.793,1918.72L230.448,1919L230.081,1919.25L229.695,1919.46L229.293,1919.64L228.877,1919.79L228.45,1919.9L228.015,1919.97L227.575,1920.01L227.134,1920.01L226.694,1919.98L226.259,1919.9L225.831,1919.8L225.413,1919.65L225.01,1919.48L224.622,1919.26L224.254,1919.02L223.907,1918.75L223.585,1918.45L223.288,1918.12L223.02,1917.77L222.783,1917.4L222.577,1917.01L222.405,1916.6L222.267,1916.18L222.165,1915.75L222.099,1915.32L222.07,1914.88L222.078,1914.43L222.123,1914L222.205,1913.56L222.322,1913.14L222.456,1912.72L222.583,1912.32L222.706,1911.92L222.826,1911.53L222.942,1911.13L223.055,1910.74L223.165,1910.36L223.271,1909.97L223.374,1909.59L223.473,1909.21L223.568,1908.84L223.661,1908.46L223.75,1908.09L223.791,1907.91L223.834,1907.72L223.875,1907.54L223.915,1907.36L223.954,1907.18L223.992,1907L224.029,1906.82L224.066,1906.64L224.101,1906.47L224.135,1906.29L224.169,1906.11L224.201,1905.94L224.233,1905.77L224.264,1905.59L224.293,1905.42L224.322,1905.25L224.349,1905.08L224.376,1904.91L224.402,1904.74L224.427,1904.58L224.45,1904.41L224.473,1904.25L224.495,1904.08L224.516,1903.92L224.536,1903.76L224.554,1903.6L224.572,1903.44L224.589,1903.28L224.605,1903.12L224.62,1902.96L224.634,1902.81L224.647,1902.66L224.659,1902.5L224.67,1902.35L224.68,1902.2L224.689,1902.05L224.697,1901.9L224.704,1901.75L224.71,1901.61L224.715,1901.46L224.719,1901.32L224.723,1901.17L224.725,1901.03L224.726,1900.9L224.726,1900.76L224.726,1900.62L224.724,1900.48L224.721,1900.35L224.718,1900.22L224.714,1900.08L224.708,1899.95L224.702,1899.82L224.695,1899.7L224.687,1899.57L224.678,1899.44L224.668,1899.32L224.657,1899.19L224.646,1899.08L224.633,1898.96L224.619,1898.84L224.605,1898.72L224.59,1898.61L224.574,1898.49L224.558,1898.38L224.54,1898.27L224.522,1898.16L224.503,1898.05L224.483,1897.94L224.463,1897.84L224.441,1897.74L224.419,1897.63L224.396,1897.53L224.373,1897.43L224.348,1897.33L224.323,1897.24L224.298,1897.14L224.272,1897.05L224.244,1896.95L224.216,1896.86L224.188,1896.77L224.161,1896.69L224.131,1896.6L224.1,1896.51L224.07,1896.43L224.038,1896.35L224.007,1896.27L223.975,1896.19L223.942,1896.11L223.908,1896.03L223.873,1895.95L223.839,1895.88L223.804,1895.8L223.769,1895.73L223.732,1895.66L223.695,1895.59L223.658,1895.52L223.621,1895.45L223.582,1895.38L223.543,1895.32L223.503,1895.25L223.463,1895.19L223.403,1895.09L223.178,1894.71L222.986,1894.3L222.829,1893.88L222.708,1893.45L222.625,1893.01L222.579,1892.57L222.57,1892.12L222.6,1891.67L222.668,1891.23L222.773,1890.8L222.915,1890.37L223.092,1889.96L223.304,1889.57L223.548,1889.19L223.823,1888.84L224.127,1888.51L283.127,1830.01L283.457,1829.71L283.81,1829.44L284.185,1829.2L284.579,1828.99L284.99,1828.82L285.413,1828.68L285.847,1828.58L319.847,1822.08L320.272,1822.01L320.7,1821.99L321.13,1821.99ZM286.836,1833.75L227.836,1892.25L227.914,1892.37L227.99,1892.49L228.065,1892.62L228.138,1892.74L228.21,1892.87L228.28,1892.99L228.349,1893.12L228.417,1893.25L228.482,1893.38L228.547,1893.51L228.609,1893.64L228.671,1893.78L228.731,1893.91L228.789,1894.05L228.846,1894.18L228.901,1894.32L228.955,1894.46L229.008,1894.6L229.059,1894.74L229.109,1894.88L229.157,1895.02L229.204,1895.16L229.249,1895.31L229.293,1895.45L229.336,1895.6L229.377,1895.75L229.417,1895.89L229.455,1896.04L229.492,1896.19L229.528,1896.34L229.562,1896.5L229.595,1896.65L229.627,1896.8L229.657,1896.96L229.686,1897.11L229.713,1897.27L229.739,1897.43L229.764,1897.58L229.788,1897.74L229.81,1897.9L229.831,1898.06L229.851,1898.23L229.869,1898.39L229.886,1898.55L229.902,1898.72L229.916,1898.88L229.929,1899.05L229.941,1899.21L229.952,1899.38L229.962,1899.55L229.97,1899.72L229.977,1899.89L229.982,1900.06L229.987,1900.23L229.99,1900.4L229.992,1900.58L229.993,1900.75L229.993,1900.92L229.991,1901.1L229.988,1901.28L229.984,1901.45L229.979,1901.63L229.973,1901.81L229.966,1901.99L229.957,1902.17L229.947,1902.35L229.936,1902.53L229.924,1902.71L229.911,1902.9L229.897,1903.08L229.881,1903.26L229.865,1903.45L229.847,1903.63L229.828,1903.82L229.808,1904.01L229.787,1904.2L229.765,1904.38L229.742,1904.57L229.718,1904.76L229.692,1904.95L229.666,1905.14L229.638,1905.34L229.61,1905.53L229.58,1905.72L229.55,1905.91L229.518,1906.11L229.485,1906.3L229.452,1906.5L229.417,1906.7L229.381,1906.89L229.345,1907.09L229.307,1907.29L229.268,1907.49L229.229,1907.68L229.188,1907.88L229.146,1908.08L229.104,1908.29L229.06,1908.49L229.016,1908.69L228.97,1908.89L228.924,1909.09L228.876,1909.3L228.779,1909.7L228.678,1910.12L228.573,1910.53L228.464,1910.94L228.352,1911.36L228.237,1911.78L228.118,1912.19L227.996,1912.62L227.87,1913.04L227.742,1913.47L227.609,1913.89L227.474,1914.32L227.336,1914.75L295.836,1844.25L309.336,1844.25L324.336,1830.25L320.836,1827.25L286.836,1833.75Z" style="fill:rgb(49,50,61);"/>
            </g>
            <g transform="matrix(1,0,0,1,-18.6667,149.333)">
                <path d="M135.836,1925.75C140.961,1917.63 149.221,1912.07 158.804,1910.84C164.755,1910.09 172.466,1911.6 177.836,1907.75C182.039,1904.73 180.446,1898.42 181.135,1894.22C182.042,1888.7 183.492,1886.45 188.023,1883.31C194.184,1879.05 201.94,1876.06 209.336,1879.25C227.236,1886.96 209.554,1908.19 218.336,1920.75C221.905,1925.86 227.021,1931.19 233.679,1931.72C237.928,1932.06 237.781,1930.96 240.892,1928.58C241.516,1928.1 242.513,1926.53 242.836,1927.25C243.821,1929.44 242.55,1936.87 241.336,1938.75C236.493,1946.24 225.887,1942.97 219.836,1948.75C214.798,1953.56 216.513,1963.22 215.175,1968.94C212.194,1981.68 201.768,1993.42 188.51,1995.8C151.949,2002.38 114.12,1960.18 135.836,1925.75" style="fill:rgb(176,72,68);stroke:rgb(49,50,61);stroke-width:5.27px;"/>
            </g>
            <g transform="matrix(0.625225,-0.566214,0.639269,0.705894,-1177.13,822.951)">
                <rect x="182.336" y="1922.25" width="7" height="21.5" style="fill:white;"/>
                <path d="M192.668,1919.3L192.811,1919.43L192.946,1919.57L193.075,1919.71L193.196,1919.86L193.311,1920.01L193.417,1920.16L193.516,1920.32L193.607,1920.49L193.69,1920.65L193.765,1920.82L193.831,1921L193.888,1921.17L193.937,1921.35L193.977,1921.53L194.009,1921.7L194.031,1921.89L194.044,1922.07L194.049,1922.25L194.049,1943.75L194.044,1943.93L194.031,1944.11L194.008,1944.3L193.977,1944.48L193.937,1944.65L193.888,1944.83L193.831,1945.01L193.765,1945.18L193.69,1945.35L193.607,1945.51L193.516,1945.68L193.417,1945.84L193.311,1945.99L193.196,1946.14L193.075,1946.29L192.946,1946.43L192.81,1946.57L192.668,1946.7L192.52,1946.83L192.365,1946.95L192.205,1947.06L192.039,1947.17L191.868,1947.27L191.692,1947.37L191.512,1947.45L191.327,1947.53L191.139,1947.61L190.948,1947.67L190.753,1947.73L190.555,1947.78L190.356,1947.83L190.154,1947.86L189.951,1947.89L189.746,1947.91L189.541,1947.92L189.336,1947.92L182.336,1947.92L182.13,1947.92L181.925,1947.91L181.72,1947.89L181.517,1947.86L181.316,1947.83L181.116,1947.78L180.918,1947.73L180.724,1947.67L180.532,1947.61L180.344,1947.53L180.159,1947.45L179.979,1947.37L179.803,1947.27L179.632,1947.17L179.466,1947.06L179.306,1946.95L179.151,1946.83L179.003,1946.7L178.861,1946.57L178.725,1946.43L178.596,1946.29L178.475,1946.14L178.361,1945.99L178.254,1945.84L178.155,1945.68L178.064,1945.51L177.981,1945.35L177.907,1945.18L177.841,1945.01L177.783,1944.83L177.734,1944.65L177.694,1944.48L177.663,1944.3L177.64,1944.11L177.627,1943.93L177.622,1943.75L177.622,1922.25L177.627,1922.07L177.64,1921.89L177.663,1921.7L177.694,1921.53L177.734,1921.35L177.783,1921.17L177.841,1921L177.907,1920.82L177.981,1920.65L178.064,1920.49L178.155,1920.32L178.254,1920.16L178.361,1920.01L178.475,1919.86L178.596,1919.71L178.725,1919.57L178.861,1919.43L179.003,1919.3L179.151,1919.17L179.306,1919.05L179.466,1918.94L179.632,1918.83L179.803,1918.73L179.979,1918.63L180.159,1918.55L180.344,1918.47L180.532,1918.39L180.724,1918.33L180.918,1918.27L181.116,1918.22L181.316,1918.17L181.517,1918.14L181.72,1918.11L181.925,1918.09L182.13,1918.08L182.336,1918.08L189.336,1918.08L189.541,1918.08L189.746,1918.09L189.951,1918.11L190.154,1918.14L190.356,1918.17L190.556,1918.22L190.753,1918.27L190.948,1918.33L191.139,1918.39L191.328,1918.47L191.512,1918.55L191.692,1918.63L191.868,1918.73L192.039,1918.83L192.205,1918.94L192.365,1919.05L192.52,1919.17L192.668,1919.3ZM182.336,1922.25L182.336,1943.75L189.336,1943.75L189.336,1922.25L182.336,1922.25Z" style="fill:rgb(49,50,61);"/>
            </g>
            <g transform="matrix(0.625225,-0.566214,0.639269,0.705894,-1195.33,838.674)">
                <rect x="182.336" y="1922.25" width="7" height="21.5" style="fill:white;"/>
                <path d="M192.668,1919.3L192.811,1919.43L192.946,1919.57L193.075,1919.71L193.197,1919.86L193.311,1920.01L193.417,1920.16L193.516,1920.32L193.607,1920.49L193.69,1920.65L193.765,1920.82L193.831,1921L193.888,1921.17L193.937,1921.35L193.977,1921.53L194.009,1921.7L194.031,1921.89L194.044,1922.07L194.049,1922.25L194.049,1943.75L194.044,1943.93L194.031,1944.11L194.008,1944.3L193.977,1944.48L193.937,1944.65L193.888,1944.83L193.831,1945.01L193.765,1945.18L193.69,1945.35L193.607,1945.51L193.516,1945.68L193.417,1945.84L193.311,1945.99L193.196,1946.14L193.075,1946.29L192.946,1946.43L192.811,1946.57L192.668,1946.7L192.52,1946.83L192.365,1946.95L192.205,1947.06L192.039,1947.17L191.868,1947.27L191.692,1947.37L191.512,1947.45L191.327,1947.53L191.139,1947.61L190.948,1947.67L190.753,1947.73L190.555,1947.78L190.356,1947.83L190.154,1947.86L189.951,1947.89L189.746,1947.91L189.541,1947.92L189.336,1947.92L182.336,1947.92L182.13,1947.92L181.925,1947.91L181.72,1947.89L181.517,1947.86L181.316,1947.83L181.116,1947.78L180.918,1947.73L180.724,1947.67L180.532,1947.61L180.344,1947.53L180.159,1947.45L179.979,1947.37L179.803,1947.27L179.632,1947.17L179.466,1947.06L179.306,1946.95L179.152,1946.83L179.003,1946.7L178.861,1946.57L178.725,1946.43L178.596,1946.29L178.475,1946.14L178.361,1945.99L178.254,1945.84L178.155,1945.68L178.064,1945.51L177.981,1945.35L177.907,1945.18L177.841,1945.01L177.783,1944.83L177.734,1944.65L177.694,1944.48L177.663,1944.3L177.64,1944.11L177.627,1943.93L177.622,1943.75L177.622,1922.25L177.627,1922.07L177.64,1921.89L177.663,1921.7L177.694,1921.53L177.734,1921.35L177.783,1921.17L177.841,1921L177.907,1920.82L177.981,1920.65L178.064,1920.49L178.155,1920.32L178.254,1920.16L178.361,1920.01L178.475,1919.86L178.596,1919.71L178.725,1919.57L178.861,1919.43L179.003,1919.3L179.151,1919.17L179.306,1919.05L179.466,1918.94L179.632,1918.83L179.803,1918.73L179.979,1918.63L180.159,1918.55L180.344,1918.47L180.532,1918.39L180.724,1918.33L180.918,1918.27L181.116,1918.22L181.316,1918.17L181.517,1918.14L181.721,1918.11L181.925,1918.09L182.13,1918.08L182.336,1918.08L189.336,1918.08L189.541,1918.08L189.747,1918.09L189.951,1918.11L190.154,1918.14L190.356,1918.17L190.556,1918.22L190.753,1918.27L190.948,1918.33L191.139,1918.39L191.328,1918.47L191.512,1918.55L191.692,1918.63L191.868,1918.73L192.039,1918.83L192.205,1918.94L192.365,1919.05L192.52,1919.17L192.668,1919.3ZM182.336,1922.25L182.336,1943.75L189.336,1943.75L189.336,1922.25L182.336,1922.25Z" style="fill:rgb(49,50,61);"/>
            </g>
            <g transform="matrix(0.941176,0,0,0.888889,-7.85281,370.417)">
                <ellipse cx="179.586" cy="1980.75" rx="4.25" ry="4.5" style="fill:rgb(133,130,138);"/>
                <path d="M179.802,1971.78L180.019,1971.79L180.232,1971.8L180.449,1971.82L180.659,1971.85L180.868,1971.88L181.081,1971.92L181.29,1971.96L181.498,1972.01L181.702,1972.06L181.905,1972.12L182.103,1972.18L182.3,1972.25L182.502,1972.32L182.697,1972.4L182.887,1972.49L183.073,1972.57L183.26,1972.66L183.446,1972.76L183.628,1972.86L183.808,1972.97L183.982,1973.08L184.155,1973.19L184.329,1973.31L184.495,1973.44L184.658,1973.56L184.819,1973.69L184.976,1973.83L185.134,1973.97L185.284,1974.11L185.431,1974.25L185.577,1974.41L185.719,1974.56L185.857,1974.72L185.993,1974.88L186.123,1975.04L186.25,1975.21L186.373,1975.38L186.493,1975.55L186.609,1975.73L186.721,1975.91L186.831,1976.1L186.935,1976.28L187.034,1976.47L187.129,1976.66L187.221,1976.86L187.308,1977.05L187.391,1977.25L187.471,1977.46L187.544,1977.66L187.613,1977.87L187.678,1978.08L187.738,1978.3L187.793,1978.51L187.843,1978.73L187.888,1978.95L187.928,1979.17L187.962,1979.39L187.992,1979.61L188.017,1979.84L188.035,1980.06L188.049,1980.29L188.057,1980.52L188.06,1980.75L188.057,1980.98L188.049,1981.21L188.035,1981.44L188.017,1981.66L187.992,1981.89L187.962,1982.11L187.928,1982.33L187.888,1982.55L187.843,1982.77L187.793,1982.99L187.738,1983.2L187.678,1983.42L187.613,1983.63L187.544,1983.83L187.471,1984.04L187.391,1984.25L187.308,1984.45L187.222,1984.64L187.13,1984.84L187.034,1985.03L186.934,1985.22L186.83,1985.41L186.722,1985.59L186.609,1985.77L186.493,1985.95L186.373,1986.12L186.25,1986.29L186.123,1986.46L185.991,1986.62L185.859,1986.78L185.719,1986.94L185.575,1987.1L185.433,1987.24L185.284,1987.39L185.131,1987.53L184.979,1987.67L184.819,1987.81L184.658,1987.94L184.495,1988.06L184.326,1988.19L184.158,1988.3L183.982,1988.42L183.804,1988.53L183.628,1988.64L183.446,1988.74L183.263,1988.83L183.077,1988.93L182.887,1989.02L182.693,1989.1L182.498,1989.18L182.304,1989.25L182.107,1989.32L181.905,1989.38L181.698,1989.44L181.494,1989.49L181.29,1989.54L181.081,1989.58L180.872,1989.62L180.659,1989.65L180.445,1989.68L180.236,1989.7L180.019,1989.71L179.802,1989.72L179.586,1989.72L179.369,1989.72L179.152,1989.71L178.935,1989.7L178.726,1989.68L178.513,1989.65L178.299,1989.62L178.09,1989.58L177.881,1989.54L177.677,1989.49L177.473,1989.44L177.266,1989.38L177.064,1989.32L176.867,1989.25L176.674,1989.18L176.478,1989.1L176.284,1989.02L176.095,1988.93L175.907,1988.83L175.725,1988.74L175.544,1988.64L175.367,1988.53L175.189,1988.42L175.013,1988.3L174.846,1988.19L174.676,1988.06L174.513,1987.94L174.351,1987.81L174.193,1987.67L174.041,1987.54L173.887,1987.39L173.738,1987.24L173.595,1987.1L173.451,1986.94L173.314,1986.78L173.182,1986.63L173.048,1986.46L172.921,1986.29L172.798,1986.12L172.679,1985.95L172.562,1985.77L172.448,1985.59L172.342,1985.41L172.238,1985.22L172.137,1985.03L172.041,1984.84L171.949,1984.64L171.863,1984.44L171.779,1984.24L171.701,1984.04L171.628,1983.84L171.558,1983.63L171.493,1983.42L171.434,1983.21L171.379,1982.99L171.328,1982.77L171.284,1982.55L171.244,1982.33L171.209,1982.11L171.179,1981.89L171.155,1981.66L171.136,1981.44L171.122,1981.21L171.114,1980.98L171.111,1980.75L171.114,1980.52L171.122,1980.29L171.136,1980.06L171.155,1979.84L171.179,1979.61L171.209,1979.39L171.244,1979.17L171.284,1978.95L171.329,1978.73L171.379,1978.51L171.434,1978.3L171.493,1978.08L171.558,1977.87L171.628,1977.66L171.701,1977.46L171.779,1977.26L171.862,1977.06L171.95,1976.86L172.042,1976.66L172.137,1976.47L172.237,1976.28L172.341,1976.1L172.449,1975.91L172.562,1975.73L172.679,1975.55L172.798,1975.38L172.921,1975.21L173.048,1975.04L173.18,1974.88L173.316,1974.72L173.451,1974.56L173.593,1974.41L173.74,1974.25L173.887,1974.11L174.039,1973.97L174.195,1973.83L174.351,1973.69L174.513,1973.56L174.676,1973.44L174.843,1973.31L175.016,1973.19L175.189,1973.08L175.364,1972.97L175.544,1972.86L175.725,1972.76L175.91,1972.66L176.099,1972.57L176.284,1972.49L176.475,1972.4L176.671,1972.32L176.87,1972.25L177.068,1972.18L177.266,1972.12L177.469,1972.06L177.673,1972.01L177.881,1971.96L178.09,1971.92L178.304,1971.88L178.513,1971.85L178.722,1971.82L178.939,1971.8L179.152,1971.79L179.369,1971.78L179.586,1971.78L179.802,1971.78ZM179.476,1976.25L179.367,1976.26L179.259,1976.26L179.151,1976.27L179.045,1976.29L178.939,1976.3L178.834,1976.32L178.73,1976.34L178.626,1976.37L178.524,1976.39L178.423,1976.42L178.322,1976.45L178.223,1976.49L178.125,1976.52L178.028,1976.56L177.932,1976.6L177.837,1976.65L177.744,1976.69L177.652,1976.74L177.561,1976.79L177.471,1976.85L177.383,1976.9L177.296,1976.96L177.21,1977.02L177.126,1977.08L177.043,1977.14L176.962,1977.21L176.883,1977.28L176.805,1977.35L176.729,1977.42L176.654,1977.49L176.581,1977.57L176.51,1977.65L176.44,1977.73L176.373,1977.81L176.307,1977.89L176.243,1977.97L176.18,1978.06L176.12,1978.15L176.062,1978.24L176.006,1978.33L175.951,1978.42L175.899,1978.51L175.849,1978.61L175.801,1978.7L175.755,1978.8L175.711,1978.9L175.67,1979L175.631,1979.1L175.594,1979.2L175.559,1979.31L175.527,1979.41L175.497,1979.52L175.47,1979.63L175.445,1979.73L175.422,1979.84L175.402,1979.95L175.385,1980.07L175.37,1980.18L175.358,1980.29L175.348,1980.4L175.341,1980.52L175.337,1980.63L175.336,1980.75L175.337,1980.87L175.341,1980.98L175.348,1981.1L175.358,1981.21L175.37,1981.32L175.385,1981.43L175.402,1981.55L175.422,1981.66L175.445,1981.77L175.47,1981.87L175.497,1981.98L175.527,1982.09L175.559,1982.19L175.594,1982.3L175.631,1982.4L175.67,1982.5L175.711,1982.6L175.755,1982.7L175.801,1982.8L175.849,1982.89L175.899,1982.99L175.951,1983.08L176.006,1983.17L176.062,1983.27L176.12,1983.35L176.18,1983.44L176.243,1983.53L176.307,1983.61L176.373,1983.69L176.44,1983.78L176.51,1983.85L176.581,1983.93L176.654,1984.01L176.729,1984.08L176.805,1984.15L176.883,1984.22L176.962,1984.29L177.043,1984.36L177.126,1984.42L177.21,1984.48L177.296,1984.54L177.383,1984.6L177.471,1984.65L177.561,1984.71L177.652,1984.76L177.744,1984.81L177.837,1984.85L177.932,1984.9L178.028,1984.94L178.125,1984.98L178.223,1985.01L178.322,1985.05L178.423,1985.08L178.524,1985.11L178.626,1985.13L178.73,1985.16L178.834,1985.18L178.939,1985.2L179.045,1985.21L179.151,1985.23L179.259,1985.24L179.367,1985.24L179.476,1985.25L179.586,1985.25L179.695,1985.25L179.804,1985.24L179.912,1985.24L180.02,1985.23L180.127,1985.21L180.233,1985.2L180.338,1985.18L180.442,1985.16L180.545,1985.13L180.647,1985.11L180.749,1985.08L180.849,1985.05L180.948,1985.01L181.046,1984.98L181.143,1984.94L181.239,1984.9L181.334,1984.85L181.428,1984.81L181.52,1984.76L181.611,1984.71L181.7,1984.65L181.789,1984.6L181.876,1984.54L181.961,1984.48L182.045,1984.42L182.128,1984.36L182.209,1984.29L182.288,1984.22L182.366,1984.15L182.443,1984.08L182.517,1984.01L182.59,1983.93L182.662,1983.85L182.731,1983.78L182.799,1983.69L182.865,1983.61L182.929,1983.53L182.991,1983.44L183.051,1983.35L183.109,1983.27L183.166,1983.17L183.22,1983.08L183.272,1982.99L183.322,1982.89L183.37,1982.8L183.416,1982.7L183.46,1982.6L183.501,1982.5L183.541,1982.4L183.578,1982.3L183.612,1982.19L183.644,1982.09L183.674,1981.98L183.702,1981.87L183.727,1981.77L183.749,1981.66L183.769,1981.55L183.787,1981.43L183.801,1981.32L183.814,1981.21L183.823,1981.1L183.83,1980.98L183.834,1980.87L183.836,1980.75L183.834,1980.63L183.83,1980.52L183.823,1980.4L183.814,1980.29L183.801,1980.18L183.787,1980.07L183.769,1979.95L183.749,1979.84L183.727,1979.73L183.702,1979.63L183.674,1979.52L183.644,1979.41L183.612,1979.31L183.578,1979.2L183.541,1979.1L183.501,1979L183.46,1978.9L183.416,1978.8L183.37,1978.7L183.322,1978.61L183.272,1978.51L183.22,1978.42L183.166,1978.33L183.109,1978.24L183.051,1978.15L182.991,1978.06L182.929,1977.97L182.865,1977.89L182.799,1977.81L182.731,1977.73L182.662,1977.65L182.59,1977.57L182.517,1977.49L182.443,1977.42L182.366,1977.35L182.288,1977.28L182.209,1977.21L182.128,1977.14L182.045,1977.08L181.961,1977.02L181.876,1976.96L181.789,1976.9L181.7,1976.85L181.611,1976.79L181.52,1976.74L181.428,1976.69L181.334,1976.65L181.239,1976.6L181.143,1976.56L181.046,1976.52L180.948,1976.49L180.849,1976.45L180.749,1976.42L180.647,1976.39L180.545,1976.37L180.442,1976.34L180.338,1976.32L180.233,1976.3L180.127,1976.29L180.02,1976.27L179.912,1976.26L179.804,1976.26L179.695,1976.25L179.586,1976.25L179.476,1976.25Z" style="fill:rgb(49,50,61);"/>
            </g>
            <g transform="matrix(0.941176,0,0,0.888889,9.14719,364.417)">
                <ellipse cx="179.586" cy="1980.75" rx="4.25" ry="4.5" style="fill:rgb(133,130,138);"/>
                <path d="M179.802,1971.78L180.019,1971.79L180.232,1971.8L180.449,1971.82L180.659,1971.85L180.868,1971.88L181.081,1971.92L181.29,1971.96L181.498,1972.01L181.702,1972.06L181.905,1972.12L182.103,1972.18L182.3,1972.25L182.502,1972.32L182.697,1972.4L182.887,1972.49L183.073,1972.57L183.26,1972.66L183.446,1972.76L183.628,1972.86L183.808,1972.97L183.982,1973.08L184.155,1973.19L184.329,1973.31L184.495,1973.44L184.658,1973.56L184.819,1973.69L184.976,1973.83L185.134,1973.97L185.284,1974.11L185.431,1974.25L185.577,1974.41L185.719,1974.56L185.857,1974.72L185.993,1974.88L186.123,1975.04L186.25,1975.21L186.373,1975.38L186.493,1975.55L186.609,1975.73L186.721,1975.91L186.831,1976.1L186.935,1976.28L187.034,1976.47L187.129,1976.66L187.221,1976.86L187.308,1977.05L187.391,1977.25L187.471,1977.46L187.544,1977.66L187.613,1977.87L187.678,1978.08L187.738,1978.3L187.793,1978.51L187.843,1978.73L187.888,1978.95L187.928,1979.17L187.962,1979.39L187.992,1979.61L188.017,1979.84L188.035,1980.06L188.049,1980.29L188.057,1980.52L188.06,1980.75L188.057,1980.98L188.049,1981.21L188.035,1981.44L188.017,1981.66L187.992,1981.89L187.962,1982.11L187.928,1982.33L187.888,1982.55L187.843,1982.77L187.793,1982.99L187.738,1983.2L187.678,1983.42L187.613,1983.63L187.544,1983.83L187.471,1984.04L187.391,1984.25L187.308,1984.45L187.222,1984.64L187.13,1984.84L187.034,1985.03L186.934,1985.22L186.83,1985.41L186.722,1985.59L186.609,1985.77L186.493,1985.95L186.373,1986.12L186.25,1986.29L186.123,1986.46L185.991,1986.62L185.859,1986.78L185.719,1986.94L185.575,1987.1L185.433,1987.24L185.284,1987.39L185.131,1987.53L184.979,1987.67L184.819,1987.81L184.658,1987.94L184.495,1988.06L184.326,1988.19L184.158,1988.3L183.982,1988.42L183.804,1988.53L183.628,1988.64L183.446,1988.74L183.263,1988.83L183.077,1988.93L182.887,1989.02L182.693,1989.1L182.498,1989.18L182.304,1989.25L182.107,1989.32L181.905,1989.38L181.698,1989.44L181.494,1989.49L181.29,1989.54L181.081,1989.58L180.872,1989.62L180.659,1989.65L180.445,1989.68L180.236,1989.7L180.019,1989.71L179.802,1989.72L179.586,1989.72L179.369,1989.72L179.152,1989.71L178.935,1989.7L178.726,1989.68L178.513,1989.65L178.299,1989.62L178.09,1989.58L177.881,1989.54L177.677,1989.49L177.473,1989.44L177.266,1989.38L177.064,1989.32L176.867,1989.25L176.674,1989.18L176.478,1989.1L176.284,1989.02L176.095,1988.93L175.907,1988.83L175.725,1988.74L175.544,1988.64L175.367,1988.53L175.189,1988.42L175.013,1988.3L174.846,1988.19L174.676,1988.06L174.513,1987.94L174.351,1987.81L174.193,1987.67L174.041,1987.54L173.887,1987.39L173.738,1987.24L173.595,1987.1L173.451,1986.94L173.314,1986.78L173.182,1986.63L173.048,1986.46L172.921,1986.29L172.798,1986.12L172.679,1985.95L172.562,1985.77L172.448,1985.59L172.342,1985.41L172.238,1985.22L172.137,1985.03L172.041,1984.84L171.949,1984.64L171.863,1984.44L171.779,1984.24L171.701,1984.04L171.628,1983.84L171.558,1983.63L171.493,1983.42L171.434,1983.21L171.379,1982.99L171.328,1982.77L171.284,1982.55L171.244,1982.33L171.209,1982.11L171.179,1981.89L171.155,1981.66L171.136,1981.44L171.122,1981.21L171.114,1980.98L171.111,1980.75L171.114,1980.52L171.122,1980.29L171.136,1980.06L171.155,1979.84L171.179,1979.61L171.209,1979.39L171.244,1979.17L171.284,1978.95L171.329,1978.73L171.379,1978.51L171.434,1978.3L171.493,1978.08L171.558,1977.87L171.628,1977.66L171.701,1977.46L171.779,1977.26L171.862,1977.06L171.95,1976.86L172.042,1976.66L172.137,1976.47L172.237,1976.28L172.341,1976.1L172.449,1975.91L172.562,1975.73L172.679,1975.55L172.798,1975.38L172.921,1975.21L173.048,1975.04L173.18,1974.88L173.316,1974.72L173.451,1974.56L173.593,1974.41L173.74,1974.25L173.887,1974.11L174.039,1973.97L174.195,1973.83L174.351,1973.69L174.513,1973.56L174.676,1973.44L174.843,1973.31L175.016,1973.19L175.189,1973.08L175.364,1972.97L175.544,1972.86L175.725,1972.76L175.91,1972.66L176.099,1972.57L176.284,1972.49L176.475,1972.4L176.671,1972.32L176.87,1972.25L177.068,1972.18L177.266,1972.12L177.469,1972.06L177.673,1972.01L177.881,1971.96L178.09,1971.92L178.304,1971.88L178.513,1971.85L178.722,1971.82L178.939,1971.8L179.152,1971.79L179.369,1971.78L179.586,1971.78L179.802,1971.78ZM179.476,1976.25L179.367,1976.26L179.259,1976.26L179.151,1976.27L179.045,1976.29L178.939,1976.3L178.834,1976.32L178.73,1976.34L178.626,1976.37L178.524,1976.39L178.423,1976.42L178.322,1976.45L178.223,1976.49L178.125,1976.52L178.028,1976.56L177.932,1976.6L177.837,1976.65L177.744,1976.69L177.652,1976.74L177.561,1976.79L177.471,1976.85L177.383,1976.9L177.296,1976.96L177.21,1977.02L177.126,1977.08L177.043,1977.14L176.962,1977.21L176.883,1977.28L176.805,1977.35L176.729,1977.42L176.654,1977.49L176.581,1977.57L176.51,1977.65L176.44,1977.73L176.373,1977.81L176.307,1977.89L176.243,1977.97L176.18,1978.06L176.12,1978.15L176.062,1978.24L176.006,1978.33L175.951,1978.42L175.899,1978.51L175.849,1978.61L175.801,1978.7L175.755,1978.8L175.711,1978.9L175.67,1979L175.631,1979.1L175.594,1979.2L175.559,1979.31L175.527,1979.41L175.497,1979.52L175.47,1979.63L175.445,1979.73L175.422,1979.84L175.402,1979.95L175.385,1980.07L175.37,1980.18L175.358,1980.29L175.348,1980.4L175.341,1980.52L175.337,1980.63L175.336,1980.75L175.337,1980.87L175.341,1980.98L175.348,1981.1L175.358,1981.21L175.37,1981.32L175.385,1981.43L175.402,1981.55L175.422,1981.66L175.445,1981.77L175.47,1981.87L175.497,1981.98L175.527,1982.09L175.559,1982.19L175.594,1982.3L175.631,1982.4L175.67,1982.5L175.711,1982.6L175.755,1982.7L175.801,1982.8L175.849,1982.89L175.899,1982.99L175.951,1983.08L176.006,1983.17L176.062,1983.27L176.12,1983.35L176.18,1983.44L176.243,1983.53L176.307,1983.61L176.373,1983.69L176.44,1983.78L176.51,1983.85L176.581,1983.93L176.654,1984.01L176.729,1984.08L176.805,1984.15L176.883,1984.22L176.962,1984.29L177.043,1984.36L177.126,1984.42L177.21,1984.48L177.296,1984.54L177.383,1984.6L177.471,1984.65L177.561,1984.71L177.652,1984.76L177.744,1984.81L177.837,1984.85L177.932,1984.9L178.028,1984.94L178.125,1984.98L178.223,1985.01L178.322,1985.05L178.423,1985.08L178.524,1985.11L178.626,1985.13L178.73,1985.16L178.834,1985.18L178.939,1985.2L179.045,1985.21L179.151,1985.23L179.259,1985.24L179.367,1985.24L179.476,1985.25L179.586,1985.25L179.695,1985.25L179.804,1985.24L179.912,1985.24L180.02,1985.23L180.127,1985.21L180.233,1985.2L180.338,1985.18L180.442,1985.16L180.545,1985.13L180.647,1985.11L180.749,1985.08L180.849,1985.05L180.948,1985.01L181.046,1984.98L181.143,1984.94L181.239,1984.9L181.334,1984.85L181.428,1984.81L181.52,1984.76L181.611,1984.71L181.7,1984.65L181.789,1984.6L181.876,1984.54L181.961,1984.48L182.045,1984.42L182.128,1984.36L182.209,1984.29L182.288,1984.22L182.366,1984.15L182.443,1984.08L182.517,1984.01L182.59,1983.93L182.662,1983.85L182.731,1983.78L182.799,1983.69L182.865,1983.61L182.929,1983.53L182.991,1983.44L183.051,1983.35L183.109,1983.27L183.166,1983.17L183.22,1983.08L183.272,1982.99L183.322,1982.89L183.37,1982.8L183.416,1982.7L183.46,1982.6L183.501,1982.5L183.541,1982.4L183.578,1982.3L183.612,1982.19L183.644,1982.09L183.674,1981.98L183.702,1981.87L183.727,1981.77L183.749,1981.66L183.769,1981.55L183.787,1981.43L183.801,1981.32L183.814,1981.21L183.823,1981.1L183.83,1980.98L183.834,1980.87L183.836,1980.75L183.834,1980.63L183.83,1980.52L183.823,1980.4L183.814,1980.29L183.801,1980.18L183.787,1980.07L183.769,1979.95L183.749,1979.84L183.727,1979.73L183.702,1979.63L183.674,1979.52L183.644,1979.41L183.612,1979.31L183.578,1979.2L183.541,1979.1L183.501,1979L183.46,1978.9L183.416,1978.8L183.37,1978.7L183.322,1978.61L183.272,1978.51L183.22,1978.42L183.166,1978.33L183.109,1978.24L183.051,1978.15L182.991,1978.06L182.929,1977.97L182.865,1977.89L182.799,1977.81L182.731,1977.73L182.662,1977.65L182.59,1977.57L182.517,1977.49L182.443,1977.42L182.366,1977.35L182.288,1977.28L182.209,1977.21L182.128,1977.14L182.045,1977.08L181.961,1977.02L181.876,1976.96L181.789,1976.9L181.7,1976.85L181.611,1976.79L181.52,1976.74L181.428,1976.69L181.334,1976.65L181.239,1976.6L181.143,1976.56L181.046,1976.52L180.948,1976.49L180.849,1976.45L180.749,1976.42L180.647,1976.39L180.545,1976.37L180.442,1976.34L180.338,1976.32L180.233,1976.3L180.127,1976.29L180.02,1976.27L179.912,1976.26L179.804,1976.26L179.695,1976.25L179.586,1976.25L179.476,1976.25Z" style="fill:rgb(49,50,61);"/>
            </g>
        </g>
        <g transform="matrix(0.378788,0,0,0.340136,561.476,976.131)">
            <rect x="1913.01" y="1615.15" width="528" height="588" style="fill:none;"/>
        </g>
    </g>
</svg>
