<?xml version="1.0" encoding="UTF-8" standalone="no"?>
<!DOCTYPE svg PUBLIC "-//W3C//DTD SVG 1.1//EN" "http://www.w3.org/Graphics/SVG/1.1/DTD/svg11.dtd">
<svg width="100%" height="100%" viewBox="0 0 200 200" version="1.1" xmlns="http://www.w3.org/2000/svg" xmlns:xlink="http://www.w3.org/1999/xlink" xml:space="preserve" xmlns:serif="http://www.serif.com/" style="fill-rule:evenodd;clip-rule:evenodd;stroke-linejoin:round;stroke-miterlimit:1.41421;">
    <g transform="matrix(1,0,0,1,-803.352,-1525.5)">
        <g transform="matrix(0.936776,0,0,0.936776,617.099,-513.791)">
            <path d="M244.968,2212.93C245.523,2210.38 257.132,2209.16 262.301,2205.6C267.635,2201.93 271.857,2194.38 276.968,2190.93C281.691,2187.75 287.857,2184.93 292.968,2184.93C298.079,2184.93 304.022,2187.08 307.635,2190.93C312.635,2196.27 319.111,2207.64 322.968,2216.93C330.301,2234.6 344.19,2274.16 351.635,2296.93C357.732,2315.59 363.857,2343.49 367.635,2353.6C368.542,2356.03 373.746,2355.27 374.301,2357.6C374.857,2359.93 373.58,2365.25 370.968,2367.6C367.635,2370.6 360.182,2373.76 354.301,2375.6C346.857,2377.93 335.802,2380.68 326.301,2381.6C315.968,2382.6 303.573,2382.78 292.301,2381.6C280.635,2380.38 265.301,2377.21 256.301,2374.27C249.726,2372.12 241.134,2367.51 238.301,2363.93C236.543,2361.72 236.301,2357.66 237.301,2356.27C238.301,2354.88 243.653,2357.85 244.301,2355.6C250.246,2334.93 268.857,2253.82 272.968,2232.27C273.418,2229.91 269.635,2228.49 268.968,2226.27C268.301,2224.05 270.635,2219.82 268.968,2218.93C267.301,2218.05 262.266,2221.76 258.968,2220.93C254.968,2219.93 244.412,2215.49 244.968,2212.93Z" style="fill:rgb(73,73,129);"/>
            <path d="M293.296,2178.26L293.622,2178.26L293.95,2178.27L294.277,2178.29L294.604,2178.31L294.931,2178.33L295.258,2178.36L295.586,2178.39L295.911,2178.42L296.239,2178.46L296.567,2178.5L296.892,2178.55L297.218,2178.6L297.542,2178.66L297.868,2178.71L298.195,2178.78L298.519,2178.84L298.842,2178.91L299.167,2178.98L299.49,2179.06L299.813,2179.14L300.135,2179.22L300.457,2179.31L300.779,2179.41L301.1,2179.5L301.419,2179.6L301.737,2179.7L302.055,2179.81L302.372,2179.92L302.689,2180.04L303.005,2180.16L303.318,2180.28L303.632,2180.4L303.946,2180.53L304.255,2180.67L304.566,2180.8L304.875,2180.95L305.182,2181.09L305.488,2181.24L305.785,2181.39L305.946,2181.47L306.097,2181.55L306.249,2181.63L306.398,2181.71L306.548,2181.79L306.698,2181.88L306.849,2181.96L306.999,2182.05L307.145,2182.13L307.294,2182.22L307.443,2182.31L307.592,2182.4L307.736,2182.49L307.88,2182.58L308.031,2182.68L308.177,2182.77L308.32,2182.86L308.463,2182.96L308.605,2183.05L308.75,2183.15L308.894,2183.25L309.038,2183.35L309.181,2183.46L309.318,2183.55L309.46,2183.66L309.602,2183.77L309.74,2183.87L309.877,2183.98L310.017,2184.09L310.157,2184.2L310.29,2184.3L310.428,2184.42L310.565,2184.53L310.699,2184.64L310.833,2184.76L310.965,2184.87L311.098,2184.99L311.231,2185.11L311.362,2185.23L311.493,2185.35L311.624,2185.48L311.752,2185.6L311.88,2185.72L312.007,2185.85L312.135,2185.98L312.261,2186.11L312.383,2186.23L312.507,2186.36L312.655,2186.52L312.801,2186.68L312.947,2186.84L313.091,2187L313.238,2187.17L313.382,2187.33L313.526,2187.5L313.67,2187.67L313.813,2187.84L313.957,2188.01L314.1,2188.18L314.244,2188.35L314.387,2188.53L314.528,2188.7L314.671,2188.88L314.813,2189.06L314.955,2189.24L315.098,2189.43L315.239,2189.61L315.381,2189.79L315.522,2189.98L315.668,2190.17L315.946,2190.55L316.229,2190.93L316.511,2191.32L316.792,2191.71L317.073,2192.11L317.354,2192.52L317.635,2192.93L317.915,2193.34L318.194,2193.76L318.474,2194.18L318.752,2194.61L319.03,2195.04L319.308,2195.48L319.585,2195.92L319.861,2196.36L320.136,2196.8L320.411,2197.25L320.685,2197.71L320.957,2198.16L321.229,2198.62L321.5,2199.08L321.769,2199.55L322.037,2200.01L322.305,2200.48L322.57,2200.95L322.834,2201.43L323.097,2201.9L323.358,2202.38L323.617,2202.86L323.875,2203.34L324.131,2203.82L324.385,2204.3L324.637,2204.78L324.887,2205.26L325.135,2205.75L325.38,2206.23L325.624,2206.72L325.865,2207.2L326.103,2207.68L326.339,2208.17L326.572,2208.65L326.803,2209.14L327.03,2209.62L327.256,2210.1L327.478,2210.58L327.696,2211.06L327.912,2211.54L328.125,2212.01L328.335,2212.49L328.541,2212.97L328.743,2213.44L328.942,2213.91L329.136,2214.37L329.316,2214.8L329.497,2215.24L329.862,2216.14L330.236,2217.06L330.619,2218.01L331.009,2218.99L331.408,2220L331.813,2221.03L332.225,2222.09L332.645,2223.17L333.071,2224.27L333.503,2225.4L333.942,2226.55L334.386,2227.72L334.836,2228.91L335.291,2230.12L335.751,2231.34L336.216,2232.59L336.685,2233.85L337.158,2235.13L337.635,2236.42L338.116,2237.73L338.6,2239.05L339.086,2240.38L339.576,2241.72L340.068,2243.08L340.562,2244.44L341.057,2245.81L341.555,2247.19L342.053,2248.58L342.553,2249.97L343.053,2251.37L343.553,2252.78L344.054,2254.19L344.554,2255.6L345.053,2257.01L345.552,2258.42L346.05,2259.84L346.546,2261.25L347.041,2262.66L347.533,2264.07L348.024,2265.47L348.511,2266.88L348.996,2268.27L349.477,2269.66L349.955,2271.04L350.43,2272.42L350.9,2273.79L351.366,2275.14L351.827,2276.49L352.283,2277.83L352.734,2279.15L353.179,2280.46L353.619,2281.76L354.052,2283.04L354.479,2284.31L354.899,2285.56L355.312,2286.79L355.718,2288L356.117,2289.2L356.507,2290.37L356.89,2291.53L357.263,2292.66L357.628,2293.77L357.985,2294.86L358.132,2295.31L358.279,2295.77L358.426,2296.23L358.574,2296.69L358.72,2297.15L358.867,2297.62L359.014,2298.09L359.16,2298.56L359.306,2299.04L359.452,2299.51L359.598,2299.99L359.745,2300.48L360.035,2301.44L360.325,2302.42L360.614,2303.4L360.902,2304.39L361.19,2305.39L361.477,2306.4L361.763,2307.41L362.048,2308.42L362.332,2309.44L362.615,2310.46L362.897,2311.48L363.178,2312.51L363.458,2313.54L363.736,2314.57L364.013,2315.6L364.289,2316.63L364.564,2317.66L364.837,2318.68L365.109,2319.71L365.38,2320.73L365.915,2322.77L366.445,2324.79L366.967,2326.78L367.482,2328.75L367.989,2330.68L368.488,2332.58L368.978,2334.44L369.219,2335.35L369.457,2336.24L369.694,2337.13L369.928,2338L370.159,2338.85L370.387,2339.69L370.613,2340.51L370.836,2341.32L371.055,2342.11L371.272,2342.88L371.485,2343.63L371.696,2344.36L371.902,2345.07L372.105,2345.76L372.306,2346.43L372.403,2346.75L372.5,2347.07L372.597,2347.39L372.692,2347.69L372.786,2347.99L372.879,2348.29L372.971,2348.58L373.062,2348.86L373.151,2349.13L373.202,2349.29L373.474,2349.36L373.657,2349.41L373.844,2349.47L374.035,2349.53L374.236,2349.59L374.446,2349.66L374.662,2349.74L374.891,2349.82L375.13,2349.91L375.376,2350.01L375.614,2350.11L375.768,2350.18L375.898,2350.24L376.037,2350.31L376.184,2350.38L376.318,2350.45L376.468,2350.53L376.618,2350.61L376.769,2350.7L376.927,2350.8L377.079,2350.89L377.233,2350.99L377.397,2351.11L377.563,2351.23L377.725,2351.35L377.893,2351.48L378.059,2351.62L378.229,2351.76L378.396,2351.92L378.56,2352.08L378.733,2352.25L378.9,2352.43L379.065,2352.62L379.228,2352.82L379.389,2353.03L379.54,2353.24L379.69,2353.46L379.842,2353.71L379.978,2353.94L380.106,2354.18L380.234,2354.44L380.354,2354.7L380.461,2354.97L380.56,2355.23L380.649,2355.5L380.729,2355.77L380.794,2356.03L380.837,2356.21L380.87,2356.37L380.9,2356.52L380.928,2356.67L380.953,2356.82L380.979,2356.99L381.015,2357.26L381.047,2357.54L381.071,2357.82L381.089,2358.1L381.101,2358.37L381.108,2358.64L381.11,2358.9L381.107,2359.16L381.1,2359.42L381.089,2359.68L381.074,2359.94L381.055,2360.2L381.032,2360.45L381.006,2360.71L380.977,2360.96L380.944,2361.22L380.907,2361.47L380.868,2361.72L380.825,2361.98L380.779,2362.23L380.729,2362.49L380.677,2362.74L380.621,2362.99L380.562,2363.25L380.5,2363.5L380.435,2363.76L380.366,2364.01L380.294,2364.26L380.219,2364.52L380.14,2364.78L380.059,2365.03L379.973,2365.29L379.885,2365.54L379.793,2365.8L379.697,2366.05L379.596,2366.31L379.493,2366.57L379.386,2366.82L379.275,2367.08L379.159,2367.33L379.039,2367.59L378.915,2367.84L378.787,2368.1L378.654,2368.35L378.515,2368.61L378.372,2368.86L378.224,2369.12L378.07,2369.37L377.919,2369.61L377.829,2369.75L377.745,2369.87L377.661,2370L377.573,2370.13L377.485,2370.25L377.395,2370.38L377.303,2370.5L377.211,2370.62L377.116,2370.75L377.019,2370.87L376.918,2371L376.818,2371.12L376.716,2371.24L376.61,2371.37L376.502,2371.49L376.393,2371.61L376.282,2371.73L376.17,2371.85L376.054,2371.97L375.936,2372.09L375.813,2372.22L375.687,2372.34L375.565,2372.45L375.444,2372.56L375.312,2372.68L375.189,2372.79L375.066,2372.89L374.938,2373L374.81,2373.11L374.686,2373.21L374.557,2373.31L374.428,2373.41L374.302,2373.51L374.165,2373.62L373.914,2373.81L373.652,2374L373.389,2374.19L373.122,2374.38L372.853,2374.56L372.582,2374.74L372.308,2374.91L372.033,2375.09L371.755,2375.26L371.474,2375.43L371.191,2375.61L370.906,2375.77L370.62,2375.94L370.33,2376.1L370.038,2376.26L369.744,2376.42L369.449,2376.58L369.151,2376.74L368.852,2376.9L368.55,2377.05L368.247,2377.21L367.942,2377.36L367.635,2377.51L367.328,2377.66L367.018,2377.81L366.707,2377.95L366.393,2378.1L366.08,2378.24L365.766,2378.39L365.451,2378.53L365.135,2378.67L364.818,2378.8L364.499,2378.94L364.18,2379.08L363.861,2379.21L363.541,2379.35L363.221,2379.48L362.901,2379.61L362.579,2379.74L362.259,2379.86L361.941,2379.99L361.619,2380.11L361.299,2380.24L360.979,2380.36L360.66,2380.48L360.341,2380.6L360.024,2380.71L359.707,2380.83L359.39,2380.94L359.074,2381.05L358.762,2381.16L358.449,2381.27L358.137,2381.38L357.826,2381.48L357.518,2381.58L357.211,2381.68L356.905,2381.78L356.602,2381.88L356.301,2381.97L355.93,2382.09L355.556,2382.21L355.177,2382.32L354.794,2382.44L354.406,2382.55L354.012,2382.67L353.615,2382.79L353.215,2382.91L352.809,2383.02L352.398,2383.14L351.984,2383.26L351.566,2383.38L351.144,2383.49L350.718,2383.61L350.288,2383.73L349.857,2383.85L349.421,2383.96L348.98,2384.08L348.537,2384.19L348.091,2384.31L347.642,2384.43L347.19,2384.54L346.734,2384.66L346.278,2384.77L345.818,2384.88L345.354,2384.99L344.889,2385.11L344.422,2385.22L343.953,2385.33L343.481,2385.43L343.008,2385.54L342.533,2385.65L342.055,2385.76L341.576,2385.86L341.096,2385.97L340.615,2386.07L340.131,2386.17L339.647,2386.27L339.162,2386.37L338.675,2386.47L338.187,2386.56L337.699,2386.66L337.209,2386.75L336.721,2386.84L336.23,2386.93L335.739,2387.02L335.249,2387.11L334.758,2387.19L334.266,2387.27L333.776,2387.35L333.284,2387.43L332.793,2387.51L332.302,2387.58L331.811,2387.66L331.321,2387.73L330.832,2387.79L330.343,2387.86L329.855,2387.92L329.367,2387.98L328.881,2388.04L328.395,2388.1L327.911,2388.15L327.427,2388.2L326.949,2388.25L326.439,2388.3L325.93,2388.35L325.418,2388.39L324.904,2388.44L324.387,2388.48L323.867,2388.52L323.345,2388.56L322.821,2388.6L322.295,2388.64L321.766,2388.67L321.234,2388.71L320.702,2388.74L320.166,2388.77L319.628,2388.8L319.088,2388.83L318.547,2388.86L318.004,2388.89L317.458,2388.91L316.912,2388.94L316.364,2388.96L315.814,2388.98L315.262,2389L314.709,2389.01L314.155,2389.03L313.599,2389.04L313.043,2389.06L312.485,2389.07L311.926,2389.08L311.365,2389.09L310.804,2389.09L310.242,2389.1L309.68,2389.1L309.116,2389.1L308.551,2389.1L307.986,2389.1L307.42,2389.1L306.853,2389.09L306.287,2389.08L305.721,2389.07L305.153,2389.06L304.585,2389.05L304.017,2389.04L303.448,2389.02L302.882,2389L302.313,2388.98L301.744,2388.96L301.177,2388.94L300.61,2388.91L300.042,2388.89L299.475,2388.86L298.908,2388.83L298.342,2388.79L297.776,2388.76L297.211,2388.72L296.647,2388.68L296.083,2388.64L295.519,2388.6L294.957,2388.56L294.396,2388.51L293.836,2388.46L293.276,2388.41L292.718,2388.36L292.162,2388.3L291.605,2388.24L291.028,2388.18L290.448,2388.12L289.863,2388.05L289.274,2387.98L288.681,2387.91L288.084,2387.84L287.485,2387.76L286.882,2387.68L286.276,2387.59L285.667,2387.51L285.055,2387.42L284.442,2387.33L283.825,2387.24L283.207,2387.14L282.587,2387.05L281.965,2386.95L281.341,2386.85L280.717,2386.75L280.092,2386.64L279.466,2386.54L278.839,2386.43L278.212,2386.32L277.584,2386.21L276.956,2386.09L276.33,2385.98L275.703,2385.86L275.076,2385.74L274.451,2385.62L273.827,2385.5L273.205,2385.38L272.583,2385.25L271.962,2385.13L271.345,2385L270.728,2384.87L270.115,2384.74L269.504,2384.61L268.896,2384.48L268.291,2384.34L267.689,2384.21L267.089,2384.07L266.494,2383.94L265.903,2383.8L265.315,2383.66L264.732,2383.52L264.153,2383.38L263.578,2383.24L263.009,2383.1L262.444,2382.96L261.884,2382.82L261.33,2382.68L260.781,2382.53L260.237,2382.39L259.7,2382.24L259.169,2382.1L258.644,2381.95L258.126,2381.8L257.614,2381.66L257.108,2381.51L256.61,2381.36L256.119,2381.21L255.633,2381.07L255.155,2380.92L254.686,2380.77L254.222,2380.62L253.866,2380.5L253.506,2380.38L253.146,2380.25L252.786,2380.12L252.424,2379.99L252.06,2379.86L251.695,2379.72L251.33,2379.58L250.965,2379.43L250.599,2379.29L250.233,2379.14L249.865,2378.99L249.496,2378.83L249.13,2378.67L248.763,2378.51L248.395,2378.35L248.027,2378.19L247.66,2378.02L247.293,2377.85L246.927,2377.68L246.563,2377.5L246.197,2377.33L245.834,2377.15L245.472,2376.97L245.11,2376.79L244.75,2376.6L244.391,2376.41L244.034,2376.23L243.68,2376.04L243.326,2375.85L242.974,2375.65L242.626,2375.46L242.278,2375.26L241.933,2375.06L241.59,2374.86L241.25,2374.66L240.914,2374.46L240.579,2374.26L240.247,2374.05L239.919,2373.84L239.594,2373.63L239.271,2373.42L238.952,2373.21L238.636,2372.99L238.323,2372.78L238.015,2372.56L237.708,2372.34L237.406,2372.12L237.117,2371.9L236.961,2371.78L236.812,2371.67L236.668,2371.56L236.524,2371.45L236.379,2371.33L236.234,2371.21L236.094,2371.1L235.952,2370.98L235.811,2370.86L235.672,2370.74L235.532,2370.62L235.395,2370.5L235.259,2370.38L235.123,2370.26L234.986,2370.13L234.853,2370.01L234.721,2369.88L234.588,2369.76L234.455,2369.63L234.325,2369.49L234.194,2369.36L234.065,2369.23L233.94,2369.1L233.81,2368.96L233.683,2368.82L233.56,2368.68L233.436,2368.53L233.312,2368.39L233.189,2368.24L233.069,2368.09L232.971,2367.96L232.88,2367.84L232.793,2367.73L232.704,2367.6L232.622,2367.49L232.528,2367.35L232.377,2367.12L232.226,2366.88L232.08,2366.64L231.942,2366.4L231.812,2366.16L231.686,2365.91L231.567,2365.68L231.455,2365.44L231.347,2365.19L231.245,2364.95L231.148,2364.71L231.056,2364.48L230.969,2364.24L230.886,2364L230.809,2363.76L230.735,2363.53L230.665,2363.29L230.6,2363.05L230.539,2362.82L230.481,2362.59L230.427,2362.35L230.377,2362.12L230.331,2361.89L230.287,2361.65L230.248,2361.42L230.212,2361.19L230.179,2360.96L230.149,2360.72L230.123,2360.49L230.101,2360.26L230.081,2360.03L230.065,2359.8L230.052,2359.57L230.042,2359.34L230.036,2359.11L230.034,2358.88L230.034,2358.64L230.039,2358.41L230.047,2358.18L230.058,2357.95L230.074,2357.71L230.094,2357.48L230.118,2357.24L230.146,2357L230.18,2356.76L230.218,2356.52L230.262,2356.27L230.312,2356.02L230.368,2355.77L230.432,2355.51L230.502,2355.26L230.581,2354.99L230.67,2354.72L230.769,2354.45L230.879,2354.17L231.003,2353.89L231.128,2353.62L231.216,2353.45L231.297,2353.3L231.379,2353.15L231.466,2353L231.563,2352.84L231.662,2352.68L231.767,2352.53L231.91,2352.32L232.131,2352.03L232.395,2351.72L232.666,2351.44L232.959,2351.16L233.258,2350.91L233.563,2350.68L233.869,2350.47L234.162,2350.29L234.465,2350.12L234.769,2349.97L235.047,2349.85L235.32,2349.74L235.6,2349.64L235.874,2349.55L236.121,2349.48L236.353,2349.43L236.601,2349.37L236.832,2349.33L237.037,2349.3L237.247,2349.27L237.443,2349.25L237.635,2349.23L237.832,2349.22L238.006,2349.21L238.168,2349.2L238.336,2349.2L238.502,2349.2L238.677,2349.2L238.941,2349.22L239.129,2349.23L239.277,2348.67L239.454,2348L239.636,2347.31L239.821,2346.61L240.01,2345.88L240.203,2345.14L240.4,2344.37L240.6,2343.59L240.803,2342.8L241.01,2341.99L241.434,2340.31L241.871,2338.57L242.319,2336.78L242.779,2334.93L243.25,2333.02L243.73,2331.06L244.22,2329.06L244.718,2327.01L245.225,2324.92L245.739,2322.79L246.26,2320.62L246.787,2318.42L247.32,2316.19L247.857,2313.93L248.399,2311.64L248.944,2309.33L249.493,2307L250.044,2304.66L250.597,2302.3L251.151,2299.92L251.705,2297.54L252.26,2295.15L252.813,2292.76L253.366,2290.37L253.916,2287.98L254.464,2285.6L255.009,2283.22L255.549,2280.85L256.086,2278.5L256.617,2276.16L257.143,2273.84L257.662,2271.54L258.174,2269.27L258.679,2267.02L259.175,2264.8L259.663,2262.62L260.141,2260.47L260.609,2258.36L261.067,2256.29L261.513,2254.26L261.947,2252.28L262.368,2250.35L262.776,2248.47L263.17,2246.64L263.55,2244.88L263.915,2243.17L264.264,2241.53L264.596,2239.95L264.911,2238.44L265.209,2237.01L265.488,2235.64L265.62,2234.99L265.748,2234.36L265.871,2233.75L265.963,2233.29L265.826,2233.16L265.694,2233.03L265.565,2232.9L265.431,2232.76L265.295,2232.63L265.155,2232.48L265.009,2232.32L264.86,2232.16L264.708,2231.98L264.552,2231.8L264.395,2231.6L264.236,2231.4L264.073,2231.18L263.909,2230.95L263.759,2230.72L263.665,2230.58L263.585,2230.45L263.505,2230.32L263.424,2230.18L263.345,2230.03L263.264,2229.88L263.188,2229.74L263.112,2229.58L263.036,2229.42L262.962,2229.26L262.891,2229.09L262.822,2228.92L262.754,2228.74L262.689,2228.56L262.627,2228.37L262.569,2228.19L262.512,2227.99L262.46,2227.79L262.414,2227.6L262.395,2227.52L262.264,2227.54L262.106,2227.57L261.948,2227.59L261.783,2227.61L261.618,2227.63L261.453,2227.65L261.287,2227.67L261.115,2227.69L260.936,2227.7L260.757,2227.71L260.583,2227.72L260.402,2227.73L260.215,2227.73L260.027,2227.74L259.832,2227.73L259.643,2227.73L259.447,2227.72L259.244,2227.71L259.047,2227.7L258.844,2227.68L258.639,2227.65L258.427,2227.63L258.21,2227.59L258.005,2227.56L257.786,2227.52L257.562,2227.47L257.362,2227.42L257.075,2227.35L256.801,2227.27L256.525,2227.19L256.246,2227.11L255.962,2227.03L255.678,2226.94L255.388,2226.85L255.093,2226.75L254.795,2226.65L254.492,2226.55L254.188,2226.44L253.878,2226.33L253.564,2226.22L253.247,2226.1L252.928,2225.98L252.604,2225.85L252.277,2225.72L251.95,2225.6L251.618,2225.46L251.286,2225.33L250.952,2225.19L250.615,2225.04L250.279,2224.9L249.941,2224.75L249.602,2224.6L249.264,2224.45L248.926,2224.29L248.585,2224.13L248.248,2223.97L247.911,2223.81L247.574,2223.64L247.239,2223.48L246.906,2223.31L246.573,2223.13L246.244,2222.96L245.916,2222.78L245.589,2222.6L245.272,2222.41L245.103,2222.32L244.943,2222.22L244.785,2222.13L244.625,2222.03L244.467,2221.93L244.309,2221.84L244.15,2221.74L243.992,2221.64L243.838,2221.53L243.683,2221.43L243.525,2221.33L243.371,2221.22L243.215,2221.11L243.064,2221.01L242.911,2220.89L242.756,2220.78L242.6,2220.66L242.449,2220.55L242.299,2220.43L242.144,2220.31L241.992,2220.18L241.839,2220.05L241.685,2219.92L241.533,2219.78L241.382,2219.64L241.229,2219.5L241.073,2219.35L240.919,2219.19L240.765,2219.03L240.609,2218.86L240.453,2218.68L240.297,2218.5L240.141,2218.3L239.984,2218.1L239.827,2217.88L239.673,2217.66L239.517,2217.41L239.361,2217.15L239.212,2216.88L239.064,2216.59L238.92,2216.27L238.802,2215.98L238.726,2215.77L238.664,2215.59L238.604,2215.4L238.549,2215.21L238.497,2215.01L238.449,2214.81L238.407,2214.6L238.369,2214.39L238.335,2214.17L238.309,2213.95L238.287,2213.72L238.274,2213.48L238.266,2213.25L238.267,2213L238.275,2212.76L238.291,2212.51L238.315,2212.27L238.347,2212.02L238.39,2211.76L238.44,2211.51L238.496,2211.27L238.561,2211.03L238.629,2210.81L238.707,2210.58L238.793,2210.35L238.878,2210.14L238.972,2209.93L239.07,2209.72L239.168,2209.53L239.267,2209.35L239.376,2209.17L239.484,2208.99L239.591,2208.83L239.721,2208.64L239.921,2208.37L240.145,2208.1L240.369,2207.84L240.591,2207.61L240.808,2207.4L241.026,2207.2L241.241,2207.01L241.452,2206.84L241.655,2206.68L241.856,2206.54L242.057,2206.4L242.249,2206.27L242.437,2206.15L242.632,2206.03L242.816,2205.92L242.998,2205.82L243.18,2205.72L243.358,2205.63L243.535,2205.54L243.712,2205.45L243.888,2205.37L244.056,2205.29L244.23,2205.21L244.404,2205.13L244.571,2205.06L244.741,2204.99L244.911,2204.92L245.081,2204.85L245.248,2204.79L245.415,2204.72L245.586,2204.66L245.754,2204.6L245.931,2204.53L246.256,2204.42L246.593,2204.3L246.933,2204.18L247.271,2204.07L247.61,2203.97L247.951,2203.86L248.293,2203.75L248.635,2203.65L248.979,2203.54L249.324,2203.44L250.007,2203.24L250.695,2203.03L251.378,2202.83L252.06,2202.63L252.392,2202.53L252.725,2202.43L253.054,2202.32L253.381,2202.22L253.702,2202.12L254.02,2202.01L254.332,2201.91L254.638,2201.81L254.94,2201.7L255.234,2201.6L255.526,2201.49L255.659,2201.44L255.8,2201.39L255.937,2201.34L256.071,2201.29L256.202,2201.24L256.33,2201.18L256.46,2201.13L256.585,2201.08L256.705,2201.03L256.825,2200.98L256.943,2200.93L257.058,2200.88L257.168,2200.83L257.274,2200.78L257.381,2200.73L257.482,2200.68L257.579,2200.63L257.675,2200.58L257.767,2200.53L257.855,2200.49L257.938,2200.44L258.021,2200.4L258.095,2200.36L258.168,2200.32L258.238,2200.27L258.3,2200.24L258.362,2200.2L258.418,2200.16L258.469,2200.13L258.523,2200.09L258.592,2200.04L258.667,2199.99L258.744,2199.94L258.821,2199.88L258.899,2199.82L258.978,2199.76L259.059,2199.7L259.141,2199.63L259.223,2199.57L259.304,2199.5L259.389,2199.43L259.474,2199.36L259.558,2199.29L259.646,2199.22L259.732,2199.14L259.818,2199.06L259.907,2198.98L259.997,2198.9L260.084,2198.82L260.175,2198.74L260.267,2198.65L260.359,2198.57L260.451,2198.48L260.537,2198.39L260.73,2198.21L260.92,2198.02L261.11,2197.82L261.303,2197.62L261.499,2197.42L261.696,2197.21L261.894,2196.99L262.094,2196.77L262.297,2196.55L262.501,2196.32L262.706,2196.09L262.913,2195.86L263.122,2195.62L263.332,2195.37L263.544,2195.13L263.756,2194.88L264.19,2194.37L264.629,2193.86L265.075,2193.33L265.526,2192.8L265.757,2192.53L265.989,2192.26L266.223,2191.99L266.46,2191.72L266.698,2191.45L266.939,2191.18L267.183,2190.91L267.43,2190.63L267.68,2190.36L267.932,2190.09L268.188,2189.81L268.447,2189.54L268.71,2189.27L268.976,2189L269.241,2188.73L269.384,2188.59L269.522,2188.46L269.66,2188.33L269.8,2188.19L269.941,2188.06L270.085,2187.92L270.227,2187.79L270.372,2187.66L270.519,2187.53L270.665,2187.4L270.814,2187.27L270.967,2187.14L271.116,2187.01L271.268,2186.88L271.425,2186.75L271.581,2186.62L271.738,2186.5L271.895,2186.37L272.057,2186.24L272.221,2186.12L272.386,2186L272.552,2185.87L272.719,2185.75L272.889,2185.63L273.06,2185.51L273.23,2185.4L273.49,2185.22L273.749,2185.05L274.01,2184.88L274.273,2184.71L274.537,2184.55L274.803,2184.38L275.073,2184.21L275.343,2184.05L275.614,2183.89L275.89,2183.72L276.167,2183.56L276.445,2183.4L276.725,2183.24L277.006,2183.08L277.29,2182.93L277.575,2182.77L277.862,2182.62L278.151,2182.47L278.441,2182.32L278.734,2182.17L279.026,2182.02L279.322,2181.88L279.62,2181.73L279.916,2181.59L280.216,2181.45L280.516,2181.32L280.818,2181.18L281.124,2181.05L281.43,2180.91L281.736,2180.78L282.044,2180.66L282.354,2180.53L282.664,2180.41L282.975,2180.29L283.291,2180.17L283.606,2180.06L283.921,2179.95L284.238,2179.84L284.557,2179.73L284.878,2179.63L285.199,2179.53L285.521,2179.43L285.845,2179.34L286.171,2179.24L286.497,2179.16L286.825,2179.07L287.155,2178.99L287.484,2178.91L287.818,2178.84L288.151,2178.77L288.474,2178.7L288.652,2178.67L288.824,2178.64L288.991,2178.61L289.155,2178.58L289.327,2178.55L289.498,2178.53L289.666,2178.5L289.837,2178.48L290.009,2178.45L290.181,2178.43L290.352,2178.41L290.524,2178.39L290.696,2178.37L290.867,2178.36L291.039,2178.34L291.214,2178.33L291.386,2178.31L291.562,2178.3L291.738,2178.29L291.909,2178.28L292.085,2178.27L292.261,2178.27L292.441,2178.26L292.616,2178.26L292.788,2178.26L292.974,2178.25L293.296,2178.26ZM292.848,2184.93L292.728,2184.94L292.607,2184.94L292.486,2184.94L292.364,2184.95L292.242,2184.95L292.12,2184.96L291.998,2184.97L291.875,2184.98L291.752,2184.99L291.628,2185L291.505,2185.01L291.381,2185.02L291.256,2185.03L291.132,2185.05L291.007,2185.06L290.881,2185.08L290.756,2185.1L290.63,2185.11L290.504,2185.13L290.378,2185.15L290.252,2185.17L290.125,2185.19L289.998,2185.22L289.871,2185.24L289.744,2185.26L289.489,2185.31L289.233,2185.37L288.976,2185.43L288.719,2185.49L288.461,2185.55L288.202,2185.62L287.944,2185.68L287.684,2185.76L287.425,2185.83L287.165,2185.91L286.905,2185.99L286.644,2186.08L286.384,2186.16L286.124,2186.26L285.863,2186.35L285.603,2186.44L285.343,2186.54L285.082,2186.64L284.823,2186.74L284.563,2186.85L284.304,2186.95L284.045,2187.06L283.786,2187.17L283.529,2187.29L283.271,2187.4L283.015,2187.52L282.758,2187.64L282.503,2187.76L282.249,2187.88L281.995,2188.01L281.742,2188.13L281.491,2188.26L281.24,2188.39L280.99,2188.52L280.742,2188.65L280.495,2188.79L280.249,2188.92L280.004,2189.06L279.76,2189.2L279.519,2189.34L279.278,2189.48L279.039,2189.62L278.802,2189.76L278.566,2189.91L278.332,2190.05L278.1,2190.2L277.87,2190.34L277.641,2190.49L277.415,2190.64L277.19,2190.79L276.968,2190.93L276.848,2191.02L276.729,2191.1L276.61,2191.18L276.491,2191.27L276.373,2191.36L276.255,2191.45L276.137,2191.53L276.019,2191.63L275.902,2191.72L275.785,2191.81L275.669,2191.91L275.552,2192.01L275.436,2192.1L275.32,2192.2L275.204,2192.3L275.089,2192.4L274.974,2192.51L274.859,2192.61L274.744,2192.71L274.63,2192.82L274.515,2192.93L274.401,2193.03L274.287,2193.14L274.173,2193.25L274.06,2193.36L273.947,2193.47L273.72,2193.7L273.495,2193.93L273.27,2194.16L273.046,2194.4L272.822,2194.64L272.599,2194.88L272.376,2195.12L272.153,2195.37L271.931,2195.62L271.709,2195.87L271.487,2196.12L271.266,2196.38L271.045,2196.63L270.824,2196.89L270.602,2197.15L270.16,2197.66L269.718,2198.18L269.275,2198.71L268.831,2199.23L268.608,2199.49L268.385,2199.74L268.162,2200L267.938,2200.26L267.714,2200.51L267.489,2200.77L267.263,2201.02L267.037,2201.27L266.81,2201.52L266.582,2201.76L266.354,2202.01L266.124,2202.25L265.894,2202.49L265.663,2202.72L265.43,2202.95L265.197,2203.18L265.08,2203.3L264.963,2203.41L264.845,2203.52L264.727,2203.63L264.609,2203.74L264.491,2203.85L264.372,2203.95L264.253,2204.06L264.134,2204.16L264.014,2204.27L263.894,2204.37L263.774,2204.47L263.653,2204.58L263.532,2204.68L263.41,2204.77L263.289,2204.87L263.167,2204.97L263.044,2205.06L262.921,2205.15L262.798,2205.25L262.674,2205.34L262.55,2205.43L262.426,2205.51L262.301,2205.6L262.179,2205.68L262.054,2205.77L261.927,2205.85L261.798,2205.93L261.667,2206.01L261.534,2206.09L261.398,2206.16L261.261,2206.24L261.121,2206.32L260.98,2206.39L260.837,2206.47L260.692,2206.54L260.545,2206.62L260.397,2206.69L260.247,2206.76L260.095,2206.83L259.942,2206.9L259.787,2206.97L259.631,2207.04L259.473,2207.11L259.314,2207.18L259.154,2207.25L258.992,2207.31L258.83,2207.38L258.666,2207.44L258.501,2207.51L258.335,2207.57L258.167,2207.64L257.999,2207.7L257.83,2207.76L257.49,2207.89L257.147,2208.01L256.801,2208.13L256.452,2208.25L256.102,2208.36L255.751,2208.48L255.398,2208.59L255.045,2208.7L254.691,2208.81L254.338,2208.92L253.986,2209.03L253.284,2209.24L252.589,2209.44L251.904,2209.64L251.233,2209.84L250.904,2209.94L250.579,2210.04L250.259,2210.14L249.945,2210.23L249.636,2210.33L249.333,2210.43L249.037,2210.53L248.748,2210.62L248.467,2210.72L248.193,2210.82L248.059,2210.87L247.927,2210.91L247.798,2210.96L247.67,2211.01L247.545,2211.06L247.422,2211.11L247.302,2211.16L247.184,2211.21L247.068,2211.26L246.955,2211.31L246.844,2211.36L246.736,2211.41L246.631,2211.46L246.528,2211.51L246.428,2211.56L246.331,2211.61L246.236,2211.66L246.145,2211.72L246.057,2211.77L245.971,2211.82L245.889,2211.87L245.809,2211.93L245.733,2211.98L245.66,2212.03L245.59,2212.09L245.524,2212.14L245.461,2212.19L245.401,2212.25L245.345,2212.3L245.292,2212.36L245.243,2212.41L245.197,2212.47L245.155,2212.53L245.136,2212.55L245.117,2212.58L245.099,2212.61L245.083,2212.64L245.067,2212.67L245.052,2212.7L245.038,2212.73L245.025,2212.76L245.013,2212.79L245.002,2212.82L244.992,2212.85L244.983,2212.88L244.975,2212.91L244.968,2212.93L244.962,2212.97L244.957,2212.99L244.953,2213.03L244.95,2213.06L244.948,2213.09L244.947,2213.12L244.947,2213.15L244.948,2213.18L244.95,2213.21L244.953,2213.24L244.956,2213.27L244.961,2213.31L244.967,2213.34L244.974,2213.37L244.981,2213.4L244.99,2213.43L244.999,2213.47L245.009,2213.5L245.021,2213.53L245.033,2213.57L245.06,2213.63L245.09,2213.7L245.124,2213.77L245.161,2213.83L245.202,2213.9L245.246,2213.97L245.293,2214.04L245.344,2214.11L245.397,2214.18L245.454,2214.25L245.514,2214.32L245.576,2214.39L245.642,2214.46L245.711,2214.54L245.782,2214.61L245.857,2214.68L245.934,2214.75L246.013,2214.83L246.096,2214.9L246.181,2214.97L246.268,2215.05L246.359,2215.12L246.451,2215.2L246.546,2215.27L246.643,2215.35L246.743,2215.42L246.845,2215.49L246.949,2215.57L247.055,2215.65L247.163,2215.72L247.273,2215.8L247.386,2215.87L247.5,2215.95L247.616,2216.02L247.734,2216.1L247.854,2216.17L247.976,2216.25L248.099,2216.33L248.224,2216.4L248.35,2216.48L248.478,2216.55L248.608,2216.63L248.871,2216.78L249.14,2216.93L249.413,2217.08L249.691,2217.22L249.974,2217.37L250.26,2217.52L250.549,2217.66L250.841,2217.81L251.136,2217.95L251.433,2218.09L251.732,2218.23L252.032,2218.37L252.333,2218.5L252.634,2218.64L252.935,2218.77L253.237,2218.9L253.537,2219.03L253.836,2219.15L254.134,2219.27L254.43,2219.39L254.724,2219.51L255.015,2219.62L255.303,2219.73L255.587,2219.84L255.867,2219.94L256.143,2220.04L256.414,2220.14L256.68,2220.23L256.941,2220.32L257.195,2220.41L257.443,2220.49L257.685,2220.57L257.919,2220.64L258.145,2220.71L258.364,2220.77L258.574,2220.83L258.776,2220.89L258.968,2220.93L259.045,2220.95L259.124,2220.97L259.203,2220.99L259.282,2221L259.362,2221.01L259.443,2221.02L259.524,2221.03L259.605,2221.04L259.688,2221.04L259.77,2221.05L259.853,2221.05L259.937,2221.05L260.021,2221.05L260.106,2221.05L260.191,2221.05L260.276,2221.05L260.362,2221.04L260.448,2221.04L260.535,2221.03L260.622,2221.02L260.709,2221.01L260.796,2221L260.884,2220.99L260.973,2220.98L261.061,2220.97L261.15,2220.95L261.239,2220.94L261.328,2220.92L261.418,2220.9L261.507,2220.88L261.687,2220.85L261.868,2220.8L262.049,2220.76L262.231,2220.71L262.413,2220.66L262.595,2220.6L262.777,2220.55L262.96,2220.49L263.142,2220.43L263.324,2220.37L263.505,2220.31L263.686,2220.24L263.866,2220.18L264.046,2220.11L264.225,2220.04L264.58,2219.91L265.274,2219.64L265.611,2219.52L265.941,2219.39L266.103,2219.34L266.262,2219.28L266.42,2219.22L266.574,2219.17L266.726,2219.12L266.876,2219.07L267.022,2219.03L267.166,2218.99L267.307,2218.95L267.444,2218.92L267.578,2218.89L267.644,2218.87L267.709,2218.86L267.773,2218.85L267.836,2218.84L267.898,2218.83L267.959,2218.82L268.02,2218.81L268.079,2218.81L268.138,2218.8L268.195,2218.8L268.251,2218.8L268.307,2218.8L268.361,2218.8L268.415,2218.8L268.467,2218.8L268.518,2218.81L268.568,2218.81L268.617,2218.82L268.665,2218.83L268.712,2218.84L268.757,2218.85L268.802,2218.87L268.845,2218.88L268.887,2218.9L268.928,2218.91L268.968,2218.93L269.006,2218.96L269.043,2218.98L269.079,2219L269.113,2219.03L269.145,2219.05L269.177,2219.08L269.207,2219.11L269.235,2219.14L269.263,2219.17L269.289,2219.2L269.313,2219.23L269.337,2219.27L269.359,2219.3L269.38,2219.34L269.4,2219.38L269.419,2219.41L269.437,2219.45L269.453,2219.49L269.469,2219.53L269.483,2219.58L269.496,2219.62L269.508,2219.66L269.519,2219.71L269.53,2219.75L269.539,2219.8L269.547,2219.84L269.554,2219.89L269.561,2219.94L269.566,2219.99L269.571,2220.04L269.574,2220.09L269.577,2220.14L269.579,2220.2L269.581,2220.25L269.581,2220.36L269.578,2220.47L269.572,2220.58L269.564,2220.7L269.553,2220.82L269.54,2220.94L269.525,2221.06L269.507,2221.18L269.488,2221.31L269.467,2221.44L269.445,2221.57L269.421,2221.7L269.396,2221.83L269.343,2222.1L269.287,2222.37L269.229,2222.65L269.171,2222.93L269.114,2223.21L269.06,2223.48L269.033,2223.62L269.008,2223.76L268.984,2223.9L268.962,2224.04L268.94,2224.17L268.921,2224.31L268.903,2224.45L268.888,2224.58L268.874,2224.71L268.863,2224.84L268.854,2224.97L268.848,2225.1L268.845,2225.23L268.845,2225.35L268.846,2225.41L268.848,2225.47L268.85,2225.53L268.854,2225.6L268.858,2225.65L268.863,2225.71L268.869,2225.77L268.876,2225.83L268.884,2225.89L268.893,2225.94L268.903,2226L268.914,2226.05L268.926,2226.11L268.939,2226.16L268.953,2226.22L268.968,2226.27L268.984,2226.32L269.001,2226.37L269.02,2226.42L269.039,2226.47L269.06,2226.53L269.081,2226.58L269.104,2226.63L269.128,2226.68L269.152,2226.72L269.178,2226.78L269.204,2226.82L269.232,2226.87L269.26,2226.92L269.289,2226.97L269.319,2227.02L269.35,2227.07L269.414,2227.16L269.481,2227.26L269.551,2227.35L269.623,2227.45L269.698,2227.54L269.776,2227.63L269.856,2227.72L269.937,2227.81L270.021,2227.9L270.107,2227.99L270.193,2228.08L270.282,2228.17L270.371,2228.26L270.462,2228.35L270.645,2228.52L270.831,2228.7L271.017,2228.87L271.203,2229.04L271.387,2229.22L271.478,2229.3L271.567,2229.39L271.656,2229.48L271.743,2229.57L271.829,2229.65L271.913,2229.74L271.996,2229.83L272.076,2229.92L272.154,2230.01L272.23,2230.1L272.303,2230.19L272.374,2230.28L272.442,2230.37L272.507,2230.46L272.568,2230.55L272.598,2230.6L272.627,2230.65L272.654,2230.69L272.681,2230.74L272.707,2230.79L272.733,2230.84L272.757,2230.88L272.78,2230.93L272.802,2230.98L272.823,2231.03L272.843,2231.08L272.862,2231.13L272.88,2231.17L272.897,2231.22L272.913,2231.27L272.927,2231.32L272.94,2231.37L272.953,2231.42L272.964,2231.47L272.973,2231.53L272.982,2231.58L272.989,2231.63L272.995,2231.68L272.999,2231.73L273.003,2231.78L273.005,2231.84L273.005,2231.89L273.004,2231.94L273.002,2232L272.998,2232.05L272.993,2232.1L272.986,2232.16L272.978,2232.21L272.968,2232.27L272.869,2232.78L272.765,2233.32L272.655,2233.88L272.541,2234.46L272.421,2235.06L272.297,2235.68L272.168,2236.32L272.034,2236.98L271.752,2238.35L271.452,2239.8L271.134,2241.32L270.8,2242.91L270.449,2244.56L270.082,2246.28L269.701,2248.05L269.305,2249.88L268.896,2251.77L268.473,2253.71L268.037,2255.69L267.59,2257.73L267.132,2259.8L266.663,2261.92L266.183,2264.07L265.695,2266.26L265.197,2268.48L264.692,2270.74L264.178,2273.01L263.658,2275.32L263.132,2277.64L262.6,2279.98L262.062,2282.34L261.521,2284.71L260.975,2287.09L260.427,2289.48L259.875,2291.87L259.322,2294.27L258.767,2296.66L258.212,2299.05L257.657,2301.44L257.102,2303.82L256.548,2306.18L255.996,2308.53L255.446,2310.87L254.9,2313.18L254.357,2315.47L253.818,2317.74L253.284,2319.97L252.756,2322.18L252.234,2324.35L251.718,2326.49L251.21,2328.59L250.71,2330.64L250.219,2332.65L249.736,2334.62L249.264,2336.53L248.802,2338.39L248.351,2340.2L247.912,2341.95L247.485,2343.63L247.276,2344.45L247.071,2345.25L246.869,2346.04L246.671,2346.81L246.476,2347.56L246.285,2348.29L246.097,2349.01L245.913,2349.71L245.734,2350.39L245.558,2351.05L245.386,2351.69L245.218,2352.31L245.054,2352.91L244.895,2353.49L244.74,2354.05L244.589,2354.59L244.443,2355.11L244.301,2355.6L244.285,2355.65L244.267,2355.7L244.248,2355.75L244.227,2355.8L244.204,2355.84L244.18,2355.89L244.154,2355.93L244.127,2355.97L244.098,2356L244.068,2356.04L244.036,2356.07L244.002,2356.11L243.968,2356.14L243.932,2356.16L243.894,2356.19L243.855,2356.22L243.815,2356.24L243.774,2356.27L243.731,2356.29L243.688,2356.31L243.642,2356.33L243.596,2356.35L243.549,2356.37L243.5,2356.38L243.451,2356.39L243.4,2356.41L243.348,2356.42L243.296,2356.43L243.242,2356.44L243.187,2356.45L243.131,2356.45L243.075,2356.46L243.017,2356.47L242.959,2356.47L242.9,2356.47L242.84,2356.47L242.779,2356.48L242.717,2356.48L242.655,2356.48L242.592,2356.47L242.464,2356.47L242.333,2356.46L242.2,2356.45L242.065,2356.44L241.928,2356.42L241.79,2356.4L241.649,2356.38L241.508,2356.36L241.365,2356.34L241.222,2356.31L241.078,2356.28L240.933,2356.26L240.644,2356.2L240.354,2356.15L240.068,2356.09L239.785,2356.04L239.645,2356.02L239.507,2355.99L239.371,2355.97L239.237,2355.95L239.106,2355.93L238.976,2355.92L238.85,2355.91L238.726,2355.89L238.605,2355.89L238.487,2355.88L238.43,2355.88L238.373,2355.88L238.318,2355.88L238.263,2355.88L238.209,2355.89L238.157,2355.89L238.105,2355.89L238.054,2355.9L238.005,2355.91L237.956,2355.91L237.909,2355.92L237.863,2355.93L237.818,2355.94L237.774,2355.96L237.731,2355.97L237.69,2355.99L237.65,2356L237.611,2356.02L237.574,2356.04L237.538,2356.06L237.503,2356.08L237.47,2356.1L237.438,2356.13L237.407,2356.15L237.379,2356.18L237.351,2356.21L237.325,2356.24L237.301,2356.27L237.278,2356.3L237.255,2356.34L237.233,2356.37L237.211,2356.41L237.19,2356.44L237.169,2356.48L237.148,2356.52L237.128,2356.56L237.09,2356.64L237.053,2356.72L237.018,2356.81L236.985,2356.91L236.954,2357L236.924,2357.1L236.897,2357.2L236.871,2357.3L236.848,2357.41L236.826,2357.52L236.806,2357.63L236.788,2357.74L236.772,2357.86L236.758,2357.97L236.746,2358.09L236.736,2358.22L236.728,2358.34L236.721,2358.46L236.717,2358.59L236.715,2358.72L236.714,2358.85L236.716,2358.98L236.719,2359.11L236.725,2359.25L236.732,2359.38L236.742,2359.52L236.753,2359.65L236.767,2359.79L236.782,2359.93L236.8,2360.07L236.82,2360.2L236.841,2360.34L236.865,2360.48L236.891,2360.62L236.918,2360.76L236.948,2360.9L236.98,2361.04L237.014,2361.18L237.05,2361.32L237.089,2361.45L237.129,2361.59L237.171,2361.73L237.216,2361.86L237.262,2362L237.311,2362.13L237.362,2362.26L237.415,2362.39L237.47,2362.52L237.528,2362.65L237.587,2362.78L237.649,2362.9L237.712,2363.03L237.778,2363.15L237.846,2363.27L237.917,2363.38L237.989,2363.5L238.064,2363.61L238.102,2363.67L238.141,2363.72L238.18,2363.78L238.22,2363.83L238.26,2363.88L238.301,2363.93L238.369,2364.02L238.438,2364.1L238.51,2364.19L238.583,2364.27L238.659,2364.36L238.737,2364.44L238.816,2364.53L238.898,2364.62L238.982,2364.7L239.067,2364.79L239.154,2364.88L239.243,2364.96L239.334,2365.05L239.427,2365.14L239.522,2365.23L239.618,2365.32L239.717,2365.41L239.816,2365.49L239.918,2365.58L240.021,2365.67L240.126,2365.76L240.233,2365.85L240.341,2365.94L240.451,2366.03L240.562,2366.12L240.675,2366.21L240.79,2366.3L240.906,2366.39L241.023,2366.48L241.142,2366.57L241.384,2366.75L241.632,2366.94L241.885,2367.12L242.144,2367.3L242.407,2367.48L242.675,2367.66L242.948,2367.85L243.226,2368.03L243.508,2368.21L243.794,2368.39L244.084,2368.57L244.378,2368.75L244.675,2368.93L244.976,2369.11L245.28,2369.28L245.588,2369.46L245.898,2369.63L246.211,2369.81L246.526,2369.98L246.844,2370.16L247.164,2370.33L247.487,2370.49L247.811,2370.66L248.136,2370.83L248.463,2370.99L248.792,2371.16L249.121,2371.32L249.452,2371.48L249.783,2371.64L250.115,2371.79L250.448,2371.95L250.78,2372.1L251.113,2372.25L251.446,2372.39L251.778,2372.54L252.11,2372.68L252.441,2372.82L252.772,2372.96L253.101,2373.09L253.429,2373.22L253.756,2373.35L254.081,2373.48L254.405,2373.6L254.727,2373.72L255.047,2373.84L255.364,2373.95L255.679,2374.06L255.992,2374.16L256.301,2374.27L256.728,2374.41L257.163,2374.55L257.608,2374.68L258.06,2374.82L258.522,2374.96L258.991,2375.1L259.469,2375.24L259.954,2375.38L260.446,2375.52L260.946,2375.66L261.452,2375.8L261.966,2375.93L262.486,2376.07L263.012,2376.21L263.544,2376.35L264.082,2376.48L264.626,2376.62L265.175,2376.76L265.73,2376.89L266.289,2377.03L266.853,2377.16L267.421,2377.3L267.994,2377.43L268.571,2377.56L269.151,2377.69L269.735,2377.82L270.323,2377.95L270.913,2378.08L271.506,2378.21L272.102,2378.33L272.701,2378.46L273.301,2378.58L273.904,2378.7L274.508,2378.82L275.114,2378.94L275.721,2379.06L276.329,2379.18L276.938,2379.29L277.547,2379.41L278.157,2379.52L278.767,2379.63L279.376,2379.74L279.986,2379.85L280.595,2379.95L281.203,2380.05L281.81,2380.16L282.416,2380.26L283.02,2380.35L283.623,2380.45L284.223,2380.54L284.822,2380.63L285.418,2380.72L286.011,2380.81L286.602,2380.89L287.19,2380.98L287.774,2381.06L288.355,2381.13L288.932,2381.21L289.504,2381.28L290.073,2381.35L290.637,2381.42L291.197,2381.48L291.752,2381.54L292.301,2381.6L292.83,2381.66L293.361,2381.71L293.893,2381.76L294.427,2381.81L294.962,2381.85L295.498,2381.9L296.036,2381.94L296.575,2381.98L297.114,2382.02L297.655,2382.06L298.197,2382.09L298.739,2382.13L299.282,2382.16L299.826,2382.19L300.371,2382.21L300.916,2382.24L301.461,2382.26L302.007,2382.29L302.554,2382.31L303.1,2382.33L303.647,2382.34L304.194,2382.36L304.741,2382.37L305.288,2382.38L305.835,2382.39L306.381,2382.4L306.928,2382.41L307.474,2382.41L308.019,2382.42L308.564,2382.42L309.109,2382.42L309.653,2382.42L310.196,2382.42L310.739,2382.41L311.281,2382.41L311.822,2382.4L312.361,2382.39L312.9,2382.38L313.438,2382.37L313.974,2382.35L314.51,2382.34L315.043,2382.32L315.576,2382.3L316.107,2382.28L316.636,2382.26L317.164,2382.24L317.69,2382.22L318.214,2382.19L318.737,2382.16L319.257,2382.13L319.776,2382.11L320.292,2382.07L320.807,2382.04L321.319,2382.01L321.828,2381.97L322.336,2381.94L322.841,2381.9L323.343,2381.86L323.843,2381.82L324.34,2381.78L324.835,2381.74L325.327,2381.69L325.815,2381.65L326.301,2381.6L326.748,2381.56L327.196,2381.51L327.647,2381.46L328.1,2381.41L328.554,2381.35L329.01,2381.3L329.468,2381.24L329.927,2381.18L330.387,2381.11L330.849,2381.05L331.312,2380.98L331.775,2380.91L332.24,2380.83L332.705,2380.76L333.171,2380.68L333.638,2380.6L334.104,2380.52L334.571,2380.44L335.039,2380.36L335.506,2380.27L335.973,2380.18L336.44,2380.1L336.907,2380.01L337.373,2379.91L337.839,2379.82L338.303,2379.73L338.768,2379.63L339.231,2379.53L339.693,2379.43L340.154,2379.33L340.614,2379.23L341.072,2379.13L341.529,2379.03L341.985,2378.93L342.438,2378.82L342.89,2378.71L343.339,2378.61L343.787,2378.5L344.232,2378.39L344.675,2378.28L345.116,2378.17L345.554,2378.06L345.989,2377.95L346.422,2377.84L346.852,2377.73L347.278,2377.62L347.702,2377.51L348.122,2377.39L348.538,2377.28L348.952,2377.17L349.361,2377.06L349.767,2376.94L350.169,2376.83L350.567,2376.72L350.961,2376.6L351.35,2376.49L351.736,2376.38L352.117,2376.27L352.493,2376.16L352.864,2376.04L353.231,2375.93L353.593,2375.82L353.95,2375.71L354.301,2375.6L354.578,2375.51L354.857,2375.43L355.138,2375.33L355.421,2375.24L355.706,2375.15L355.992,2375.05L356.28,2374.95L356.569,2374.85L356.859,2374.75L357.151,2374.65L357.444,2374.54L357.737,2374.44L358.032,2374.33L358.326,2374.22L358.622,2374.11L358.917,2374L359.213,2373.88L359.509,2373.77L359.805,2373.65L360.101,2373.53L360.397,2373.41L360.692,2373.3L360.986,2373.17L361.28,2373.05L361.573,2372.93L361.865,2372.8L362.156,2372.68L362.446,2372.55L362.734,2372.42L363.021,2372.3L363.306,2372.16L363.59,2372.03L363.871,2371.9L364.151,2371.77L364.429,2371.64L364.704,2371.51L364.977,2371.37L365.247,2371.24L365.515,2371.1L365.78,2370.97L366.042,2370.83L366.301,2370.69L366.557,2370.55L366.81,2370.41L367.059,2370.28L367.304,2370.14L367.546,2370L367.784,2369.86L368.019,2369.72L368.249,2369.58L368.474,2369.44L368.696,2369.3L368.913,2369.16L369.125,2369.01L369.333,2368.87L369.536,2368.73L369.734,2368.59L369.926,2368.45L370.114,2368.31L370.206,2368.24L370.296,2368.16L370.385,2368.1L370.473,2368.02L370.559,2367.95L370.643,2367.88L370.727,2367.81L370.809,2367.74L370.889,2367.67L370.968,2367.6L371.029,2367.55L371.089,2367.49L371.149,2367.43L371.209,2367.37L371.268,2367.31L371.326,2367.25L371.384,2367.19L371.442,2367.13L371.499,2367.06L371.555,2367L371.611,2366.93L371.667,2366.87L371.722,2366.8L371.776,2366.73L371.83,2366.66L371.884,2366.59L371.937,2366.52L371.989,2366.45L372.041,2366.38L372.092,2366.3L372.143,2366.23L372.194,2366.16L372.244,2366.08L372.293,2366.01L372.39,2365.85L372.485,2365.7L372.578,2365.54L372.669,2365.38L372.757,2365.21L372.844,2365.05L372.928,2364.88L373.01,2364.71L373.09,2364.54L373.168,2364.37L373.243,2364.19L373.317,2364.02L373.388,2363.84L373.457,2363.67L373.523,2363.49L373.588,2363.31L373.65,2363.13L373.71,2362.95L373.767,2362.77L373.822,2362.6L373.875,2362.41L373.926,2362.24L373.974,2362.06L374.02,2361.88L374.063,2361.7L374.104,2361.52L374.143,2361.35L374.179,2361.17L374.213,2361L374.245,2360.82L374.274,2360.65L374.3,2360.48L374.324,2360.31L374.346,2360.15L374.365,2359.98L374.382,2359.82L374.396,2359.66L374.408,2359.5L374.417,2359.34L374.424,2359.19L374.428,2359.04L374.429,2358.89L374.428,2358.75L374.425,2358.61L374.418,2358.47L374.41,2358.33L374.398,2358.2L374.384,2358.07L374.367,2357.95L374.358,2357.89L374.348,2357.83L374.337,2357.77L374.326,2357.71L374.314,2357.66L374.301,2357.6L374.287,2357.55L374.272,2357.49L374.255,2357.44L374.236,2357.39L374.215,2357.34L374.193,2357.29L374.17,2357.24L374.145,2357.2L374.118,2357.15L374.09,2357.11L374.061,2357.06L374.03,2357.02L373.997,2356.98L373.964,2356.94L373.929,2356.9L373.892,2356.86L373.855,2356.82L373.816,2356.78L373.776,2356.75L373.734,2356.71L373.692,2356.68L373.648,2356.64L373.603,2356.61L373.557,2356.57L373.51,2356.54L373.462,2356.51L373.413,2356.48L373.363,2356.45L373.312,2356.42L373.26,2356.39L373.207,2356.36L373.153,2356.33L373.098,2356.31L373.042,2356.28L372.986,2356.25L372.928,2356.23L372.811,2356.18L372.692,2356.13L372.569,2356.08L372.444,2356.04L372.316,2355.99L372.187,2355.95L372.055,2355.91L371.922,2355.87L371.788,2355.83L371.652,2355.79L371.377,2355.71L371.1,2355.64L370.821,2355.56L370.543,2355.48L370.405,2355.44L370.268,2355.4L370.131,2355.36L369.996,2355.32L369.862,2355.28L369.73,2355.23L369.599,2355.18L369.471,2355.14L369.344,2355.09L369.221,2355.03L369.099,2354.98L369.04,2354.95L368.981,2354.92L368.923,2354.89L368.865,2354.86L368.809,2354.83L368.753,2354.8L368.698,2354.77L368.644,2354.74L368.591,2354.71L368.539,2354.67L368.488,2354.64L368.438,2354.6L368.388,2354.57L368.34,2354.53L368.293,2354.49L368.247,2354.45L368.202,2354.41L368.159,2354.38L368.116,2354.33L368.075,2354.29L368.035,2354.25L367.996,2354.2L367.958,2354.16L367.922,2354.12L367.887,2354.07L367.853,2354.02L367.82,2353.97L367.79,2353.92L367.76,2353.87L367.732,2353.82L367.705,2353.77L367.68,2353.71L367.657,2353.66L367.635,2353.6L367.546,2353.36L367.456,2353.11L367.365,2352.86L367.274,2352.6L367.181,2352.34L367.088,2352.07L366.994,2351.79L366.899,2351.5L366.804,2351.21L366.707,2350.92L366.61,2350.62L366.512,2350.31L366.413,2350L366.314,2349.68L366.214,2349.36L366.113,2349.03L366.011,2348.7L365.908,2348.36L365.701,2347.66L365.491,2346.95L365.278,2346.22L365.062,2345.47L364.843,2344.7L364.622,2343.91L364.398,2343.11L364.172,2342.28L363.943,2341.45L363.712,2340.6L363.478,2339.74L363.242,2338.86L363.003,2337.97L362.762,2337.06L362.52,2336.15L362.028,2334.28L361.527,2332.38L361.019,2330.44L360.504,2328.47L359.983,2326.48L359.454,2324.47L358.92,2322.44L358.651,2321.42L358.38,2320.4L358.109,2319.38L357.836,2318.35L357.562,2317.33L357.286,2316.31L357.01,2315.29L356.733,2314.27L356.455,2313.25L356.176,2312.24L355.896,2311.23L355.615,2310.22L355.334,2309.22L355.052,2308.22L354.769,2307.24L354.486,2306.25L354.202,2305.28L353.918,2304.31L353.633,2303.35L353.348,2302.4L353.206,2301.93L353.063,2301.46L352.92,2301L352.778,2300.53L352.635,2300.07L352.492,2299.62L352.349,2299.16L352.206,2298.71L352.063,2298.26L351.92,2297.82L351.777,2297.37L351.635,2296.93L351.281,2295.86L350.918,2294.75L350.547,2293.63L350.166,2292.48L349.778,2291.31L349.382,2290.12L348.978,2288.91L348.566,2287.68L348.148,2286.44L347.723,2285.18L347.291,2283.9L346.853,2282.61L346.409,2281.3L345.96,2279.98L345.506,2278.65L345.046,2277.31L344.582,2275.96L344.113,2274.6L343.641,2273.22L343.164,2271.85L342.684,2270.46L342.201,2269.07L341.715,2267.67L341.226,2266.27L340.735,2264.87L340.242,2263.46L339.748,2262.05L339.252,2260.64L338.755,2259.23L338.257,2257.83L337.758,2256.42L337.26,2255.02L336.761,2253.62L336.263,2252.22L335.765,2250.84L335.269,2249.45L334.773,2248.08L334.28,2246.71L333.788,2245.35L333.298,2244.01L332.811,2242.67L332.326,2241.34L331.845,2240.03L331.367,2238.73L330.892,2237.45L330.422,2236.18L329.956,2234.92L329.494,2233.68L329.037,2232.47L328.585,2231.27L328.139,2230.09L327.699,2228.93L327.264,2227.79L326.836,2226.67L326.414,2225.58L326,2224.51L325.592,2223.47L325.193,2222.45L324.8,2221.46L324.417,2220.49L324.041,2219.56L323.674,2218.65L323.316,2217.78L323.141,2217.35L322.968,2216.93L322.785,2216.5L322.599,2216.06L322.409,2215.62L322.215,2215.17L322.018,2214.72L321.817,2214.27L321.614,2213.82L321.407,2213.37L321.197,2212.91L320.984,2212.46L320.768,2212L320.549,2211.54L320.327,2211.08L320.103,2210.62L319.877,2210.16L319.648,2209.7L319.417,2209.24L319.183,2208.78L318.947,2208.32L318.709,2207.86L318.47,2207.4L318.228,2206.94L317.985,2206.49L317.74,2206.03L317.493,2205.58L317.245,2205.12L316.995,2204.67L316.744,2204.22L316.492,2203.78L316.239,2203.33L315.985,2202.89L315.73,2202.45L315.474,2202.01L315.217,2201.58L314.96,2201.15L314.702,2200.72L314.443,2200.3L314.185,2199.88L313.926,2199.47L313.666,2199.05L313.407,2198.65L313.148,2198.25L312.889,2197.85L312.63,2197.46L312.371,2197.07L312.112,2196.69L311.855,2196.31L311.597,2195.94L311.341,2195.58L311.085,2195.22L310.83,2194.86L310.576,2194.52L310.323,2194.18L310.197,2194.01L310.071,2193.85L309.945,2193.68L309.82,2193.52L309.695,2193.36L309.571,2193.2L309.447,2193.05L309.323,2192.89L309.199,2192.74L309.076,2192.59L308.954,2192.44L308.832,2192.29L308.71,2192.15L308.588,2192L308.467,2191.86L308.347,2191.72L308.227,2191.59L308.108,2191.45L307.988,2191.32L307.87,2191.19L307.752,2191.06L307.635,2190.93L307.549,2190.85L307.464,2190.76L307.377,2190.67L307.289,2190.58L307.201,2190.49L307.111,2190.4L307.021,2190.32L306.931,2190.23L306.839,2190.15L306.747,2190.06L306.654,2189.98L306.56,2189.9L306.465,2189.81L306.37,2189.73L306.274,2189.65L306.177,2189.57L306.079,2189.49L305.981,2189.41L305.882,2189.33L305.783,2189.26L305.682,2189.18L305.581,2189.1L305.48,2189.03L305.377,2188.95L305.275,2188.88L305.171,2188.8L305.067,2188.73L304.962,2188.66L304.857,2188.58L304.751,2188.51L304.645,2188.44L304.538,2188.37L304.43,2188.3L304.322,2188.23L304.213,2188.16L304.104,2188.1L303.994,2188.03L303.884,2187.97L303.773,2187.9L303.661,2187.84L303.55,2187.77L303.437,2187.71L303.325,2187.65L303.211,2187.58L303.098,2187.52L302.984,2187.46L302.869,2187.4L302.754,2187.34L302.523,2187.23L302.29,2187.11L302.055,2187L301.82,2186.89L301.582,2186.79L301.344,2186.69L301.104,2186.59L300.863,2186.49L300.621,2186.4L300.378,2186.3L300.134,2186.22L299.889,2186.13L299.643,2186.05L299.397,2185.97L299.15,2185.89L298.902,2185.82L298.654,2185.75L298.405,2185.68L298.156,2185.61L297.907,2185.55L297.657,2185.49L297.407,2185.43L297.158,2185.38L296.908,2185.33L296.658,2185.28L296.408,2185.24L296.159,2185.2L295.91,2185.16L295.661,2185.12L295.413,2185.09L295.165,2185.06L294.917,2185.03L294.671,2185.01L294.425,2184.99L294.18,2184.97L293.935,2184.96L293.692,2184.95L293.449,2184.94L293.208,2184.94L292.968,2184.93L292.848,2184.93Z" style="fill:rgb(49,50,61);"/>
            <g transform="matrix(1.07216,0,0,1.04348,-26.2814,-129.844)">
                <path d="M301.828,2281.09L305.458,2291.68L317.204,2291.68L307.701,2298.23L311.331,2308.82L301.828,2302.28L292.326,2308.82L295.956,2298.23L286.453,2291.68L298.199,2291.68L301.828,2281.09Z" style="fill:rgb(255,239,133);"/>
                <path d="M302.117,2277.96L302.308,2277.99L302.498,2278.03L302.684,2278.08L302.868,2278.14L303.047,2278.21L303.221,2278.3L303.39,2278.39L303.552,2278.5L303.708,2278.62L303.856,2278.74L303.996,2278.88L304.127,2279.02L304.249,2279.18L304.362,2279.34L304.464,2279.51L304.556,2279.68L304.637,2279.86L304.706,2280.04L307.619,2288.55L317.204,2288.55L317.394,2288.55L317.583,2288.57L317.77,2288.6L317.955,2288.64L318.138,2288.7L318.317,2288.76L318.491,2288.84L318.661,2288.93L318.824,2289.02L318.982,2289.13L319.133,2289.25L319.276,2289.38L319.411,2289.52L319.538,2289.66L319.656,2289.81L319.764,2289.97L319.862,2290.14L319.95,2290.31L320.027,2290.49L320.094,2290.68L320.149,2290.86L320.193,2291.05L320.225,2291.24L320.246,2291.44L320.255,2291.63L320.252,2291.83L320.237,2292.02L320.21,2292.21L320.172,2292.41L320.123,2292.59L320.062,2292.78L319.99,2292.96L319.907,2293.13L319.814,2293.3L319.71,2293.47L319.597,2293.62L319.475,2293.77L319.344,2293.91L319.205,2294.05L319.058,2294.17L318.903,2294.28L311.364,2299.48L314.209,2307.78L314.267,2307.97L314.313,2308.16L314.347,2308.35L314.37,2308.55L314.381,2308.74L314.38,2308.94L314.367,2309.13L314.342,2309.33L314.306,2309.52L314.258,2309.71L314.198,2309.89L314.127,2310.08L314.046,2310.25L313.953,2310.43L313.851,2310.59L313.738,2310.75L313.617,2310.9L313.486,2311.04L313.347,2311.18L313.2,2311.3L313.046,2311.42L312.885,2311.52L312.718,2311.62L312.545,2311.7L312.368,2311.77L312.187,2311.83L312.002,2311.88L311.815,2311.92L311.626,2311.94L311.435,2311.96L311.245,2311.96L311.054,2311.95L310.865,2311.92L310.678,2311.89L310.493,2311.84L310.311,2311.78L310.134,2311.71L309.961,2311.62L309.793,2311.53L309.632,2311.43L301.828,2306.05L294.025,2311.43L293.864,2311.53L293.696,2311.62L293.523,2311.71L293.346,2311.78L293.164,2311.84L292.979,2311.89L292.792,2311.92L292.602,2311.95L292.412,2311.96L292.221,2311.96L292.031,2311.94L291.842,2311.92L291.655,2311.88L291.47,2311.83L291.289,2311.77L291.112,2311.7L290.939,2311.62L290.772,2311.52L290.611,2311.42L290.457,2311.3L290.31,2311.18L290.171,2311.04L290.04,2310.9L289.918,2310.75L289.806,2310.59L289.704,2310.43L289.611,2310.25L289.53,2310.08L289.459,2309.89L289.399,2309.71L289.351,2309.52L289.314,2309.33L289.29,2309.13L289.277,2308.94L289.276,2308.74L289.287,2308.55L289.309,2308.35L289.344,2308.16L289.39,2307.97L289.448,2307.78L292.292,2299.48L284.754,2294.28L284.599,2294.17L284.452,2294.05L284.313,2293.91L284.182,2293.77L284.059,2293.62L283.946,2293.47L283.843,2293.3L283.75,2293.13L283.667,2292.96L283.595,2292.78L283.534,2292.59L283.485,2292.41L283.446,2292.21L283.42,2292.02L283.405,2291.83L283.402,2291.63L283.411,2291.44L283.432,2291.24L283.464,2291.05L283.508,2290.86L283.563,2290.68L283.629,2290.49L283.707,2290.31L283.795,2290.14L283.893,2289.97L284.001,2289.81L284.119,2289.66L284.246,2289.52L284.381,2289.38L284.524,2289.25L284.675,2289.13L284.832,2289.02L284.996,2288.93L285.166,2288.84L285.34,2288.76L285.519,2288.7L285.701,2288.64L285.887,2288.6L286.074,2288.57L286.263,2288.55L286.453,2288.55L296.038,2288.55L298.95,2280.04L299.02,2279.86L299.101,2279.68L299.193,2279.51L299.295,2279.34L299.408,2279.18L299.53,2279.02L299.661,2278.88L299.801,2278.74L299.949,2278.62L300.105,2278.5L300.267,2278.39L300.436,2278.3L300.61,2278.21L300.789,2278.14L300.972,2278.08L301.159,2278.03L301.348,2277.99L301.54,2277.96L301.732,2277.95L301.925,2277.95L302.117,2277.96ZM298.199,2291.68L286.453,2291.68L295.956,2298.23L292.326,2308.82L301.828,2302.28L311.331,2308.82L307.701,2298.23L317.204,2291.68L305.458,2291.68L301.828,2281.09L298.199,2291.68Z" style="fill:rgb(252,223,53);"/>
            </g>
            <g transform="matrix(1.3299,0,0,1.26087,-123.239,-582.732)">
                <path d="M301.828,2281.09L305.458,2291.68L317.204,2291.68L307.701,2298.23L311.331,2308.82L301.828,2302.28L292.326,2308.82L295.956,2298.23L286.453,2291.68L298.199,2291.68L301.828,2281.09Z" style="fill:rgb(255,239,133);"/>
                <path d="M302.086,2278.51L302.256,2278.53L302.425,2278.57L302.59,2278.62L302.752,2278.68L302.909,2278.75L303.06,2278.84L303.206,2278.94L303.345,2279.04L303.477,2279.16L303.6,2279.29L303.715,2279.42L303.821,2279.56L303.917,2279.71L304.003,2279.87L304.078,2280.03L304.142,2280.2L307.185,2289.09L317.204,2289.09L317.374,2289.09L317.544,2289.11L317.711,2289.14L317.877,2289.18L318.039,2289.24L318.197,2289.31L318.35,2289.39L318.498,2289.47L318.64,2289.57L318.775,2289.68L318.902,2289.8L319.021,2289.93L319.131,2290.07L319.233,2290.21L319.324,2290.37L319.405,2290.52L319.476,2290.69L319.536,2290.85L319.584,2291.03L319.621,2291.2L319.647,2291.38L319.661,2291.56L319.663,2291.74L319.653,2291.92L319.632,2292.1L319.599,2292.27L319.554,2292.45L319.498,2292.62L319.432,2292.78L319.354,2292.94L319.266,2293.09L319.168,2293.24L319.061,2293.38L318.945,2293.51L318.821,2293.64L318.689,2293.75L318.549,2293.85L310.676,2299.28L313.644,2307.94L313.697,2308.11L313.738,2308.29L313.767,2308.47L313.785,2308.64L313.791,2308.82L313.785,2309L313.767,2309.18L313.738,2309.36L313.697,2309.53L313.644,2309.7L313.581,2309.87L313.507,2310.03L313.422,2310.19L313.327,2310.34L313.223,2310.48L313.109,2310.62L312.987,2310.74L312.857,2310.86L312.72,2310.97L312.576,2311.06L312.426,2311.15L312.271,2311.22L312.111,2311.28L311.948,2311.34L311.781,2311.37L311.612,2311.4L311.442,2311.41L311.272,2311.42L311.102,2311.41L310.933,2311.38L310.765,2311.35L310.601,2311.3L310.44,2311.24L310.283,2311.17L310.131,2311.09L309.986,2310.99L301.828,2305.37L293.671,2310.99L293.525,2311.09L293.374,2311.17L293.217,2311.24L293.056,2311.3L292.891,2311.35L292.724,2311.38L292.555,2311.41L292.385,2311.42L292.214,2311.41L292.044,2311.4L291.876,2311.37L291.709,2311.34L291.546,2311.28L291.386,2311.22L291.231,2311.15L291.081,2311.06L290.937,2310.97L290.799,2310.86L290.67,2310.74L290.547,2310.62L290.434,2310.48L290.33,2310.34L290.235,2310.19L290.15,2310.03L290.076,2309.87L290.012,2309.7L289.96,2309.53L289.919,2309.36L289.89,2309.18L289.872,2309L289.866,2308.82L289.872,2308.64L289.89,2308.47L289.919,2308.29L289.96,2308.11L290.012,2307.94L292.981,2299.28L285.108,2293.85L284.968,2293.75L284.836,2293.64L284.712,2293.51L284.596,2293.38L284.488,2293.24L284.391,2293.09L284.303,2292.94L284.225,2292.78L284.158,2292.62L284.103,2292.45L284.058,2292.27L284.025,2292.1L284.003,2291.92L283.994,2291.74L283.996,2291.56L284.01,2291.38L284.035,2291.2L284.073,2291.03L284.121,2290.85L284.181,2290.69L284.252,2290.52L284.333,2290.37L284.424,2290.21L284.525,2290.07L284.636,2289.93L284.755,2289.8L284.882,2289.68L285.017,2289.57L285.159,2289.47L285.306,2289.39L285.46,2289.31L285.618,2289.24L285.78,2289.18L285.946,2289.14L286.113,2289.11L286.283,2289.09L286.453,2289.09L296.472,2289.09L299.515,2280.2L299.579,2280.03L299.654,2279.87L299.74,2279.71L299.836,2279.56L299.941,2279.42L300.056,2279.29L300.18,2279.16L300.312,2279.04L300.451,2278.94L300.596,2278.84L300.748,2278.75L300.905,2278.68L301.067,2278.62L301.232,2278.57L301.4,2278.53L301.571,2278.51L301.742,2278.49L301.914,2278.49L302.086,2278.51ZM298.199,2291.68L286.453,2291.68L295.956,2298.23L292.326,2308.82L301.828,2302.28L311.331,2308.82L307.701,2298.23L317.204,2291.68L305.458,2291.68L301.828,2281.09L298.199,2291.68Z" style="fill:rgb(252,223,53);"/>
            </g>
            <g transform="matrix(1.45361,0,0,1.34783,-115.912,-757.088)">
                <path d="M301.828,2281.09L305.458,2291.68L317.204,2291.68L307.701,2298.23L311.331,2308.82L301.828,2302.28L292.326,2308.82L295.956,2298.23L286.453,2291.68L298.199,2291.68L301.828,2281.09Z" style="fill:rgb(255,239,133);"/>
                <path d="M301.911,2278.66L302.077,2278.67L302.241,2278.7L302.403,2278.74L302.562,2278.79L302.716,2278.86L302.866,2278.93L303.011,2279.02L303.149,2279.12L303.279,2279.23L303.402,2279.35L303.516,2279.48L303.622,2279.62L303.717,2279.76L303.802,2279.92L303.876,2280.08L303.939,2280.24L307.026,2289.25L317.204,2289.25L317.369,2289.26L317.534,2289.28L317.696,2289.31L317.856,2289.36L318.013,2289.41L318.165,2289.49L318.312,2289.57L318.452,2289.66L318.587,2289.76L318.713,2289.88L318.832,2290L318.942,2290.14L319.042,2290.28L319.132,2290.43L319.212,2290.59L319.281,2290.75L319.339,2290.91L319.386,2291.09L319.42,2291.26L319.443,2291.44L319.454,2291.62L319.452,2291.79L319.438,2291.97L319.412,2292.15L319.375,2292.32L319.325,2292.49L319.264,2292.66L319.192,2292.82L319.109,2292.97L319.016,2293.12L318.913,2293.26L318.801,2293.39L318.68,2293.51L318.552,2293.62L318.416,2293.72L310.441,2299.22L313.442,2307.98L313.493,2308.15L313.533,2308.32L313.561,2308.5L313.577,2308.68L313.581,2308.85L313.573,2309.03L313.553,2309.21L313.521,2309.38L313.477,2309.55L313.421,2309.72L313.355,2309.89L313.277,2310.04L313.189,2310.19L313.091,2310.34L312.984,2310.47L312.867,2310.6L312.743,2310.71L312.61,2310.82L312.471,2310.92L312.326,2311L312.176,2311.07L312.021,2311.13L311.862,2311.18L311.7,2311.22L311.536,2311.24L311.372,2311.25L311.207,2311.25L311.042,2311.23L310.88,2311.2L310.719,2311.16L310.562,2311.1L310.409,2311.04L310.261,2310.96L310.119,2310.87L301.828,2305.16L293.538,2310.87L293.395,2310.96L293.247,2311.04L293.095,2311.1L292.938,2311.16L292.777,2311.2L292.614,2311.23L292.45,2311.25L292.285,2311.25L292.12,2311.24L291.957,2311.22L291.795,2311.18L291.636,2311.13L291.481,2311.07L291.331,2311L291.185,2310.92L291.046,2310.82L290.914,2310.71L290.79,2310.6L290.673,2310.47L290.566,2310.34L290.468,2310.19L290.38,2310.04L290.302,2309.89L290.235,2309.72L290.18,2309.55L290.136,2309.38L290.104,2309.21L290.084,2309.03L290.076,2308.85L290.08,2308.68L290.096,2308.5L290.124,2308.32L290.163,2308.15L290.215,2307.98L293.216,2299.22L285.241,2293.72L285.105,2293.62L284.977,2293.51L284.856,2293.39L284.744,2293.26L284.641,2293.12L284.548,2292.97L284.465,2292.82L284.393,2292.66L284.332,2292.49L284.282,2292.32L284.245,2292.15L284.219,2291.97L284.205,2291.79L284.203,2291.62L284.214,2291.44L284.237,2291.26L284.271,2291.09L284.318,2290.91L284.375,2290.75L284.445,2290.59L284.525,2290.43L284.615,2290.28L284.715,2290.14L284.825,2290L284.944,2289.88L285.07,2289.76L285.204,2289.66L285.345,2289.57L285.492,2289.49L285.644,2289.41L285.801,2289.36L285.961,2289.31L286.123,2289.28L286.288,2289.26L286.453,2289.25L296.631,2289.25L299.717,2280.24L299.781,2280.08L299.855,2279.92L299.94,2279.76L300.035,2279.62L300.14,2279.48L300.255,2279.35L300.378,2279.23L300.508,2279.12L300.646,2279.02L300.79,2278.93L300.94,2278.86L301.095,2278.79L301.254,2278.74L301.416,2278.7L301.58,2278.67L301.745,2278.66L301.911,2278.66ZM298.199,2291.68L286.453,2291.68L295.956,2298.23L292.326,2308.82L301.828,2302.28L311.331,2308.82L307.701,2298.23L317.204,2291.68L305.458,2291.68L301.828,2281.09L298.199,2291.68Z" style="fill:rgb(252,223,53);"/>
            </g>
        </g>
        <g transform="matrix(0.378788,0,0,0.340136,78.7266,976.131)">
            <rect x="1913.01" y="1615.15" width="528" height="588" style="fill:none;"/>
        </g>
    </g>
</svg>
