<svg id="Layer_1" data-name="Layer 1" xmlns="http://www.w3.org/2000/svg" viewBox="0 0 36.05 34.47"><defs><style>.cls-1,.cls-2{fill:none;}.cls-1,.cls-2,.cls-3{stroke:#363636;stroke-miterlimit:10;}.cls-1{stroke-width:3px;}.cls-3{fill:#363636;}</style></defs><title>sword</title><path class="cls-1" d="M13.75,20l13-14.94,10.19-1-.5,9S20.5,26.56,20.75,26.56s-7.31-6.87-7.31-6.87" transform="translate(-2.48 -2.4)"/><path class="cls-2" d="M36.38,22.13" transform="translate(-2.48 -2.4)"/><line class="cls-1" x1="15.58" y1="19.73" x2="26.58" y2="9.66"/><path class="cls-3" d="M9.44,18.06,22.38,30l-.88,3.44-3.12.81L5.56,22.13l.75-3.63Z" transform="translate(-2.48 -2.4)"/><polygon class="cls-1" points="6.34 23.03 4.52 25.79 9.03 30.18 11.9 27.83 6.34 23.03"/><path class="cls-3" d="M5.6,28.81l-2.32.72L3,34l2,2,5,.32,1-2.13Z" transform="translate(-2.48 -2.4)"/></svg>