<svg id="Layer_1" data-name="Layer 1" xmlns="http://www.w3.org/2000/svg" viewBox="0 0 37.67 39.18"><defs><style>.cls-1{fill:none;stroke:#363636;stroke-miterlimit:10;stroke-width:3px;}.cls-2{fill:#363636;}</style></defs><title>shield</title><path class="cls-1" d="M20.5,2.33a26.64,26.64,0,0,1-5.86,3.34,27.52,27.52,0,0,1-11.72,2A30.38,30.38,0,0,0,4.79,21.19C8.93,31.88,18,36.69,20.5,37.92A37.86,37.86,0,0,0,34.67,21,36.82,36.82,0,0,0,37.42,8.18,29.24,29.24,0,0,1,26.55,5.83,28.45,28.45,0,0,1,20.5,2.33Z" transform="translate(-1.3 -0.46)"/><path class="cls-2" d="M20.28,7.13a18.92,18.92,0,0,1-4.23,2.41A19.68,19.68,0,0,1,7.57,11a21.84,21.84,0,0,0,1.36,9.78,23.15,23.15,0,0,0,11.35,12.1A27.4,27.4,0,0,0,30.53,20.63a26.52,26.52,0,0,0,2-9.27,21,21,0,0,1-7.87-1.7A20.77,20.77,0,0,1,20.28,7.13Z" transform="translate(-1.3 -0.46)"/></svg>