<svg id="Layer_1" data-name="Layer 1" xmlns="http://www.w3.org/2000/svg" viewBox="0 0 38.69 37.31"><defs><style>.cls-1{fill:none;stroke:#363636;stroke-miterlimit:10;stroke-width:3px;}</style></defs><title>health</title><path class="cls-1" d="M19.41,9.62A8.64,8.64,0,0,0,16.53,5.5a9.3,9.3,0,0,0-8-1.37A9,9,0,0,0,3.87,7.27,8.54,8.54,0,0,0,2.15,11.5a9.82,9.82,0,0,0,.79,4.41c1.43,3.35,7.82,11.45,17.38,21.46,8.89-10,15-18,16.62-21.46a8.4,8.4,0,0,0,.84-4.58,8.45,8.45,0,0,0-2.4-4.83A9.36,9.36,0,0,0,29.5,3.88a9.79,9.79,0,0,0-7.38,1.94A9.22,9.22,0,0,0,19.41,9.62Z" transform="translate(-0.63 -2.27)"/></svg>