<?xml version="1.0" encoding="UTF-8" standalone="no"?>
<!DOCTYPE svg PUBLIC "-//W3C//DTD SVG 1.1//EN" "http://www.w3.org/Graphics/SVG/1.1/DTD/svg11.dtd">
<svg width="100%" height="100%" viewBox="0 0 232 232" version="1.1" xmlns="http://www.w3.org/2000/svg" xmlns:xlink="http://www.w3.org/1999/xlink" xml:space="preserve" xmlns:serif="http://www.serif.com/" style="fill-rule:evenodd;clip-rule:evenodd;stroke-linecap:round;stroke-linejoin:round;stroke-miterlimit:1.5;">
    <g transform="matrix(1,0,0,1,-2087.97,-1441.72)">
        <g transform="matrix(1.00746,-1.82959e-18,0,1.05469,1617.62,1246.67)">
            <ellipse cx="582.001" cy="294.917" rx="111.667" ry="106.667" style="fill:white;stroke:url(#_Linear1);stroke-width:6.79px;"/>
        </g>
        <g transform="matrix(1.30769,0,0,1.30769,256.689,456.868)">
            <g transform="matrix(1.18048,0,0,1.18048,-259.609,-142.444)">
                <path d="M1427.38,855.684C1430.79,854.916 1434.88,851.21 1437.51,848.559L1448.51,864.309L1435.76,865.559C1432.81,859.493 1429.68,857.431 1427.38,855.684Z" style="fill:rgb(209,218,223);stroke:rgb(49,50,61);stroke-width:3.24px;"/>
            </g>
            <g transform="matrix(-1.18048,0,0,1.18048,3240.52,-141.854)">
                <path d="M1427.51,855.434C1430.91,854.666 1434.88,851.21 1437.51,848.559L1448.51,864.309L1435.88,865.184C1432.89,859.433 1430.58,857.797 1427.51,855.434Z" style="fill:rgb(209,218,223);stroke:rgb(49,50,61);stroke-width:3.24px;"/>
            </g>
            <g transform="matrix(1.18048,0,0,1.18048,-257.248,-143.625)">
                <path d="M1443.51,798.059C1465.58,809.727 1488.45,810.778 1512.51,795.809L1523.26,814.309L1518.01,816.309C1545.68,870.168 1494.41,869.04 1478.01,868.559C1460.66,868.05 1419.99,869.971 1439.26,819.059L1433.76,817.559L1443.51,798.059" style="fill:rgb(209,218,223);stroke:rgb(49,50,61);stroke-width:3.24px;"/>
            </g>
            <g transform="matrix(1.32731,0.188905,-0.188905,1.32731,-299.51,-541.818)">
                <g transform="matrix(1,0,0,1,-0.75,7.25)">
                    <path d="M1456.7,852.371L1458.95,860.371C1451.94,864.304 1447.32,864.09 1442.95,860.371L1446.45,852.746" style="fill:rgb(209,218,223);stroke:rgb(49,50,61);stroke-width:2.85px;"/>
                </g>
                <path d="M1456.7,852.371L1458.95,861.121C1451.94,865.054 1446.32,864.84 1441.95,861.121L1444.95,852.246" style="fill:rgb(209,218,223);stroke:rgb(49,50,61);stroke-width:2.85px;"/>
                <path d="M1440.57,847.246C1443.59,847.532 1446.29,846.438 1448.57,843.621C1452.37,846.622 1456.07,847.891 1459.45,846.871L1460.2,854.621C1454.39,858.192 1447.44,858.557 1441.57,855.246L1440.57,847.246Z" style="fill:rgb(209,218,223);stroke:rgb(49,50,61);stroke-width:2.85px;"/>
            </g>
            <g transform="matrix(-1.31171,0.277192,0.277192,1.31171,3181.64,-656.624)">
                <g transform="matrix(1,0,0,1,-0.75,7.25)">
                    <path d="M1456.7,852.371L1458.95,860.371C1451.94,864.304 1447.32,864.09 1442.95,860.371L1446.45,852.746" style="fill:rgb(209,218,223);stroke:rgb(49,50,61);stroke-width:2.85px;"/>
                </g>
                <path d="M1456.7,852.371L1458.95,861.121C1451.94,865.054 1446.32,864.84 1441.95,861.121L1444.95,852.246" style="fill:rgb(209,218,223);stroke:rgb(49,50,61);stroke-width:2.85px;"/>
                <path d="M1440.57,847.246C1443.59,847.532 1446.29,846.438 1448.57,843.621C1452.37,846.622 1456.07,847.891 1459.45,846.871L1460.2,854.621C1454.39,858.192 1447.44,858.557 1441.57,855.246L1440.57,847.246Z" style="fill:rgb(209,218,223);stroke:rgb(49,50,61);stroke-width:2.85px;"/>
            </g>
            <g transform="matrix(1.18048,2.35643e-33,-2.35643e-33,1.18048,-257.248,-143.625)">
                <path d="M1439.07,818.996L1479.2,831.371L1517.7,816.371" style="fill:none;stroke:rgb(49,50,61);stroke-width:3.24px;"/>
            </g>
        </g>
        <g transform="matrix(1.08173,1.83677e-17,-1.86062e-17,1.09578,370.001,1068.35)">
            <ellipse cx="1696.63" cy="439.49" rx="26" ry="25.667" style="fill:white;stroke:rgb(49,50,61);stroke-width:3.79px;"/>
        </g>
        <g id="Badges-08" transform="matrix(0.625,1.06124e-17,-1.06124e-17,0.625,2205.13,1550.14)">
            <g transform="matrix(1,0,0,1,-52,-50)">
                <path d="M46.301,64.95L35.75,78.95L50.551,83L41.976,87.3C45.143,88.103 48.485,88.502 52,88.5C53.697,88.503 55.348,88.411 56.95,88.225C57.802,88.124 58.643,87.999 59.475,87.85L66.15,79.25L40.95,78.1L49.051,64.3L68.75,57L65.5,55.2L71.351,51.45L59.951,48.2L62.101,44.65L90.375,46.849C89.708,37.56 85.991,29.536 79.226,22.775C71.716,15.26 62.641,11.502 52,11.5C41.36,11.502 32.285,15.26 24.775,22.775C17.261,30.285 13.502,39.36 13.5,50C13.501,50.584 13.51,51.159 13.525,51.725L62.25,39.45L55.101,49.05L64.351,51.651L31.2,70.3L46.301,64.95ZM8.551,52.45C8.517,51.65 8.5,50.834 8.5,50C8.498,37.974 12.74,27.715 21.226,19.225C29.716,10.739 39.974,6.498 52,6.5C64.026,6.498 74.285,10.739 82.775,19.225C90.519,26.975 94.727,36.191 95.4,46.875C95.468,47.899 95.502,48.94 95.5,50C95.502,62.026 91.261,72.285 82.775,80.775C75.625,87.921 67.216,92.053 57.55,93.174C55.753,93.389 53.903,93.497 52,93.5C46.991,93.497 42.3,92.771 37.926,91.325L37.9,91.325C31.739,89.243 26.18,85.726 21.225,80.775C13.337,72.882 9.112,63.448 8.551,52.475L8.551,52.45Z" style="fill:rgb(131,213,255);"/>
            </g>
        </g>
    </g>
    <defs>
        <linearGradient id="_Linear1" x1="0" y1="0" x2="1" y2="0" gradientUnits="userSpaceOnUse" gradientTransform="matrix(223.333,0,0,213.333,470.335,294.917)"><stop offset="0" style="stop-color:rgb(125,175,255);stop-opacity:1"/><stop offset="1" style="stop-color:rgb(27,255,244);stop-opacity:1"/></linearGradient>
    </defs>
</svg>
