<?xml version="1.0" encoding="UTF-8" standalone="no"?>
<!DOCTYPE svg PUBLIC "-//W3C//DTD SVG 1.1//EN" "http://www.w3.org/Graphics/SVG/1.1/DTD/svg11.dtd">
<svg width="100%" height="100%" viewBox="0 0 232 232" version="1.1" xmlns="http://www.w3.org/2000/svg" xmlns:xlink="http://www.w3.org/1999/xlink" xml:space="preserve" xmlns:serif="http://www.serif.com/" style="fill-rule:evenodd;clip-rule:evenodd;stroke-linecap:round;stroke-linejoin:round;stroke-miterlimit:1.5;">
    <g transform="matrix(1,0,0,1,-2084.69,-923.377)">
        <g transform="matrix(1.00746,-1.82959e-18,0,1.05469,1614.35,728.332)">
            <ellipse cx="582.001" cy="294.917" rx="111.667" ry="106.667" style="fill:white;stroke:url(#_Linear1);stroke-width:6.79px;"/>
        </g>
        <g transform="matrix(1.30769,0,0,1.30769,253.415,-61.4711)">
            <g transform="matrix(1.18048,0,0,1.18048,-259.609,-142.444)">
                <path d="M1427.38,855.684C1430.79,854.916 1434.88,851.21 1437.51,848.559L1448.51,864.309L1435.76,865.559C1432.81,859.493 1429.68,857.431 1427.38,855.684Z" style="fill:rgb(209,218,223);stroke:rgb(49,50,61);stroke-width:3.24px;"/>
            </g>
            <g transform="matrix(-1.18048,0,0,1.18048,3240.52,-141.854)">
                <path d="M1427.51,855.434C1430.91,854.666 1434.88,851.21 1437.51,848.559L1448.51,864.309L1435.88,865.184C1432.89,859.433 1430.58,857.797 1427.51,855.434Z" style="fill:rgb(209,218,223);stroke:rgb(49,50,61);stroke-width:3.24px;"/>
            </g>
            <g transform="matrix(1.18048,0,0,1.18048,-257.248,-143.625)">
                <path d="M1443.51,798.059C1465.58,809.727 1488.45,810.778 1512.51,795.809L1523.26,814.309L1518.01,816.309C1545.68,870.168 1494.41,869.04 1478.01,868.559C1460.66,868.05 1419.99,869.971 1439.26,819.059L1433.76,817.559L1443.51,798.059" style="fill:rgb(209,218,223);stroke:rgb(49,50,61);stroke-width:3.24px;"/>
            </g>
            <g transform="matrix(1.32731,0.188905,-0.188905,1.32731,-299.51,-541.818)">
                <g transform="matrix(1,0,0,1,-0.75,7.25)">
                    <path d="M1456.7,852.371L1458.95,860.371C1451.94,864.304 1447.32,864.09 1442.95,860.371L1446.45,852.746" style="fill:rgb(209,218,223);stroke:rgb(49,50,61);stroke-width:2.85px;"/>
                </g>
                <path d="M1456.7,852.371L1458.95,861.121C1451.94,865.054 1446.32,864.84 1441.95,861.121L1444.95,852.246" style="fill:rgb(209,218,223);stroke:rgb(49,50,61);stroke-width:2.85px;"/>
                <path d="M1440.57,847.246C1443.59,847.532 1446.29,846.438 1448.57,843.621C1452.37,846.622 1456.07,847.891 1459.45,846.871L1460.2,854.621C1454.39,858.192 1447.44,858.557 1441.57,855.246L1440.57,847.246Z" style="fill:rgb(209,218,223);stroke:rgb(49,50,61);stroke-width:2.85px;"/>
            </g>
            <g transform="matrix(-1.31171,0.277192,0.277192,1.31171,3181.64,-656.624)">
                <g transform="matrix(1,0,0,1,-0.75,7.25)">
                    <path d="M1456.7,852.371L1458.95,860.371C1451.94,864.304 1447.32,864.09 1442.95,860.371L1446.45,852.746" style="fill:rgb(209,218,223);stroke:rgb(49,50,61);stroke-width:2.85px;"/>
                </g>
                <path d="M1456.7,852.371L1458.95,861.121C1451.94,865.054 1446.32,864.84 1441.95,861.121L1444.95,852.246" style="fill:rgb(209,218,223);stroke:rgb(49,50,61);stroke-width:2.85px;"/>
                <path d="M1440.57,847.246C1443.59,847.532 1446.29,846.438 1448.57,843.621C1452.37,846.622 1456.07,847.891 1459.45,846.871L1460.2,854.621C1454.39,858.192 1447.44,858.557 1441.57,855.246L1440.57,847.246Z" style="fill:rgb(209,218,223);stroke:rgb(49,50,61);stroke-width:2.85px;"/>
            </g>
            <g transform="matrix(1.18048,2.35643e-33,-2.35643e-33,1.18048,-257.248,-143.625)">
                <path d="M1439.07,818.996L1479.2,831.371L1517.7,816.371" style="fill:none;stroke:rgb(49,50,61);stroke-width:3.24px;"/>
            </g>
        </g>
        <g transform="matrix(1.08173,1.83677e-17,-1.86062e-17,1.09578,366.727,550.008)">
            <ellipse cx="1696.63" cy="439.49" rx="26" ry="25.667" style="fill:white;stroke:rgb(49,50,61);stroke-width:3.79px;"/>
        </g>
        <g id="Badges-07" transform="matrix(0.625,1.06124e-17,-1.06124e-17,0.625,2201.86,1031.8)">
            <g transform="matrix(1,0,0,1,-52,-50)">
                <path d="M89.95,43.05C88.611,35.342 85.036,28.583 79.224,22.776C71.715,15.26 62.64,11.502 52,11.5C41.359,11.502 32.285,15.26 24.774,22.775C17.26,30.285 13.502,39.36 13.5,50C13.499,52.794 13.766,55.494 14.3,58.1C14.333,58.268 14.367,58.434 14.4,58.6L15.751,58.6L15.751,39L24.551,39L24.551,50.85L35.251,50.85L35.251,45L40.451,45L40.451,31.85L41.701,31.85C41.834,30.817 42.284,29.901 43.051,29.1C43.951,28.201 45.034,27.717 46.301,27.651C47.568,27.717 48.651,28.201 49.551,29.1C50.318,29.901 50.768,30.817 50.901,31.85L52.151,31.85L52.151,42.55L54.601,42.55L54.601,19.35L64.851,19.35L64.851,52L70.2,52L70.2,43.05L89.95,43.05ZM94.975,42.65L94.975,42.674C95.326,45.028 95.501,47.47 95.5,49.999C95.502,62.025 91.26,72.284 82.774,80.774C74.284,89.261 64.026,93.502 52,93.5C39.974,93.502 29.715,89.261 21.225,80.775C14.96,74.508 11.018,67.283 9.399,59.1C8.801,56.173 8.5,53.14 8.5,50C8.498,37.974 12.739,27.715 21.225,19.225C29.715,10.739 39.974,6.498 52,6.5C64.026,6.498 74.284,10.739 82.774,19.225C89.464,25.917 93.53,33.725 94.975,42.65Z" style="fill:rgb(133,130,138);"/>
            </g>
        </g>
    </g>
    <defs>
        <linearGradient id="_Linear1" x1="0" y1="0" x2="1" y2="0" gradientUnits="userSpaceOnUse" gradientTransform="matrix(223.333,0,0,213.333,470.335,294.917)"><stop offset="0" style="stop-color:rgb(192,189,192);stop-opacity:1"/><stop offset="1" style="stop-color:rgb(57,54,53);stop-opacity:1"/></linearGradient>
    </defs>
</svg>
