<?xml version="1.0" encoding="UTF-8" standalone="no"?>
<!DOCTYPE svg PUBLIC "-//W3C//DTD SVG 1.1//EN" "http://www.w3.org/Graphics/SVG/1.1/DTD/svg11.dtd">
<svg width="100%" height="100%" viewBox="0 0 232 232" version="1.1" xmlns="http://www.w3.org/2000/svg" xmlns:xlink="http://www.w3.org/1999/xlink" xml:space="preserve" xmlns:serif="http://www.serif.com/" style="fill-rule:evenodd;clip-rule:evenodd;stroke-linecap:round;stroke-linejoin:round;stroke-miterlimit:1.5;">
    <g transform="matrix(1,0,0,1,-4065.36,-377.805)">
        <g transform="matrix(1.00746,-1.82959e-18,0,1.05469,3595.02,182.76)">
            <ellipse cx="582.001" cy="294.917" rx="111.667" ry="106.667" style="fill:rgb(248,160,75);stroke:url(#_Linear1);stroke-width:6.79px;"/>
        </g>
        <g transform="matrix(1.30769,0,0,1.30769,2234.08,-607.043)">
            <g transform="matrix(1.18048,0,0,1.18048,-259.609,-142.444)">
                <path d="M1427.38,855.684C1430.79,854.916 1434.88,851.21 1437.51,848.559L1448.51,864.309L1435.76,865.559C1432.81,859.493 1429.68,857.431 1427.38,855.684Z" style="fill:rgb(209,218,223);stroke:rgb(49,50,61);stroke-width:3.24px;"/>
            </g>
            <g transform="matrix(-1.18048,0,0,1.18048,3240.52,-141.854)">
                <path d="M1427.51,855.434C1430.91,854.666 1434.88,851.21 1437.51,848.559L1448.51,864.309L1435.88,865.184C1432.89,859.433 1430.58,857.797 1427.51,855.434Z" style="fill:rgb(209,218,223);stroke:rgb(49,50,61);stroke-width:3.24px;"/>
            </g>
            <g transform="matrix(1.18048,0,0,1.18048,-257.248,-143.625)">
                <path d="M1443.51,798.059C1465.58,809.727 1488.45,810.778 1512.51,795.809L1523.26,814.309L1518.01,816.309C1545.68,870.168 1494.41,869.04 1478.01,868.559C1460.66,868.05 1419.99,869.971 1439.26,819.059L1433.76,817.559L1443.51,798.059" style="fill:rgb(209,218,223);stroke:rgb(49,50,61);stroke-width:3.24px;"/>
            </g>
            <g transform="matrix(1.32731,0.188905,-0.188905,1.32731,-299.51,-541.818)">
                <g transform="matrix(1,0,0,1,-0.75,7.25)">
                    <path d="M1456.7,852.371L1458.95,860.371C1451.94,864.304 1447.32,864.09 1442.95,860.371L1446.45,852.746" style="fill:rgb(209,218,223);stroke:rgb(49,50,61);stroke-width:2.85px;"/>
                </g>
                <path d="M1456.7,852.371L1458.95,861.121C1451.94,865.054 1446.32,864.84 1441.95,861.121L1444.95,852.246" style="fill:rgb(209,218,223);stroke:rgb(49,50,61);stroke-width:2.85px;"/>
                <path d="M1440.57,847.246C1443.59,847.532 1446.29,846.438 1448.57,843.621C1452.37,846.622 1456.07,847.891 1459.45,846.871L1460.2,854.621C1454.39,858.192 1447.44,858.557 1441.57,855.246L1440.57,847.246Z" style="fill:rgb(209,218,223);stroke:rgb(49,50,61);stroke-width:2.85px;"/>
            </g>
            <g transform="matrix(-1.31171,0.277192,0.277192,1.31171,3181.64,-656.624)">
                <g transform="matrix(1,0,0,1,-0.75,7.25)">
                    <path d="M1456.7,852.371L1458.95,860.371C1451.94,864.304 1447.32,864.09 1442.95,860.371L1446.45,852.746" style="fill:rgb(209,218,223);stroke:rgb(49,50,61);stroke-width:2.85px;"/>
                </g>
                <path d="M1456.7,852.371L1458.95,861.121C1451.94,865.054 1446.32,864.84 1441.95,861.121L1444.95,852.246" style="fill:rgb(209,218,223);stroke:rgb(49,50,61);stroke-width:2.85px;"/>
                <path d="M1440.57,847.246C1443.59,847.532 1446.29,846.438 1448.57,843.621C1452.37,846.622 1456.07,847.891 1459.45,846.871L1460.2,854.621C1454.39,858.192 1447.44,858.557 1441.57,855.246L1440.57,847.246Z" style="fill:rgb(209,218,223);stroke:rgb(49,50,61);stroke-width:2.85px;"/>
            </g>
            <g transform="matrix(1.18048,2.35643e-33,-2.35643e-33,1.18048,-257.248,-143.625)">
                <path d="M1439.07,818.996L1479.2,831.371L1517.7,816.371" style="fill:none;stroke:rgb(49,50,61);stroke-width:3.24px;"/>
            </g>
        </g>
        <g transform="matrix(1.08173,1.83677e-17,-1.86062e-17,1.09578,2347.39,4.43527)">
            <ellipse cx="1696.63" cy="439.49" rx="26" ry="25.667" style="fill:white;stroke:rgb(49,50,61);stroke-width:3.79px;"/>
        </g>
        <g id="Badges-04" transform="matrix(0.625,1.06124e-17,-1.06124e-17,0.625,4182.53,486.227)">
            <g transform="matrix(1,0,0,1,-52,-50)">
                <path d="M36.9,17.75L33.8,27L24.55,30.05L33.8,33.15L36.9,42.4L39.95,33.15L49.25,30.05L39.95,27L36.9,17.75ZM54.601,52.5C59.467,47.9 62.834,43.75 64.701,40.05C55.267,41.417 47,45.633 39.9,52.7C38.266,54.333 36.8,56.033 35.5,57.8C43.334,58.867 49.7,57.1 54.601,52.5ZM52,88.5C62.641,88.498 71.716,84.74 79.226,77.225C85.577,70.884 89.244,63.451 90.226,54.925L90.226,54.9C90.242,54.764 90.258,54.63 90.276,54.5C86.734,53.958 82.425,55.259 77.351,58.4C71.051,62.267 65.934,68.6 62,77.4C58.849,84.479 51.648,87.629 40.4,86.85C44.036,87.955 47.902,88.505 52,88.5ZM51.351,36.55L50,32.25L48.5,36.55L44.25,37.95L48.5,39.4L50,43.65L51.351,39.4L55.651,37.95L51.351,36.55ZM95.5,49.7C95.5,49.8 95.5,49.9 95.5,50C95.497,51.86 95.39,53.685 95.176,55.475C94.091,65.149 89.957,73.582 82.776,80.775C74.285,89.26 64.026,93.502 52,93.5C43.862,93.491 36.537,91.558 30.025,87.7L30,87.675C28.382,86.69 26.799,85.582 25.25,84.35C23.873,83.264 22.532,82.072 21.226,80.775C12.74,72.285 8.498,62.026 8.5,50C8.498,37.974 12.74,27.715 21.226,19.225C29.716,10.74 39.974,6.498 52,6.5C64.026,6.498 74.285,10.74 82.775,19.225C89.884,26.342 94.018,34.717 95.175,44.35C95.39,46.081 95.498,47.864 95.5,49.7ZM90.226,44.95C90.159,44.399 90.083,43.849 90,43.3C84.413,40.8 78.312,39.55 71.7,39.55C70.2,39.55 68.75,39.617 67.35,39.75C65.183,45.817 61.083,51.55 55.05,56.95C46.384,64.683 38.45,67.233 31.25,64.6C30.284,66.533 29.483,68.533 28.851,70.6C39.318,73.933 47.917,72.35 54.651,65.85C61.384,59.317 68.234,54.483 75.201,51.35C80.998,48.703 86.097,47.886 90.501,48.9C90.472,47.549 90.381,46.232 90.226,44.95Z" style="fill:rgb(182,81,204);"/>
            </g>
        </g>
    </g>
    <defs>
        <linearGradient id="_Linear1" x1="0" y1="0" x2="1" y2="0" gradientUnits="userSpaceOnUse" gradientTransform="matrix(223.333,0,0,213.333,470.335,294.917)"><stop offset="0" style="stop-color:rgb(0,129,213);stop-opacity:1"/><stop offset="1" style="stop-color:rgb(161,51,213);stop-opacity:1"/></linearGradient>
    </defs>
</svg>
