<?xml version="1.0" encoding="UTF-8" standalone="no"?>
<!DOCTYPE svg PUBLIC "-//W3C//DTD SVG 1.1//EN" "http://www.w3.org/Graphics/SVG/1.1/DTD/svg11.dtd">
<svg width="100%" height="100%" viewBox="0 0 232 232" version="1.1" xmlns="http://www.w3.org/2000/svg" xmlns:xlink="http://www.w3.org/1999/xlink" xml:space="preserve" xmlns:serif="http://www.serif.com/" style="fill-rule:evenodd;clip-rule:evenodd;stroke-linecap:round;stroke-linejoin:round;stroke-miterlimit:1.5;">
    <g transform="matrix(1,0,0,1,-3083.54,-2187.26)">
        <g transform="matrix(1.00746,-1.82959e-18,0,1.05469,2613.2,1992.22)">
            <ellipse cx="582.001" cy="294.917" rx="111.667" ry="106.667" style="fill:rgb(143,172,233);stroke:url(#_Linear1);stroke-width:6.79px;"/>
        </g>
        <g transform="matrix(1.30769,0,0,1.30769,1252.26,1202.41)">
            <g transform="matrix(1.18048,0,0,1.18048,-259.609,-142.444)">
                <path d="M1427.38,855.684C1430.79,854.916 1434.88,851.21 1437.51,848.559L1448.51,864.309L1435.76,865.559C1432.81,859.493 1429.68,857.431 1427.38,855.684Z" style="fill:rgb(209,218,223);stroke:rgb(49,50,61);stroke-width:3.24px;"/>
            </g>
            <g transform="matrix(-1.18048,0,0,1.18048,3240.52,-141.854)">
                <path d="M1427.51,855.434C1430.91,854.666 1434.88,851.21 1437.51,848.559L1448.51,864.309L1435.88,865.184C1432.89,859.433 1430.58,857.797 1427.51,855.434Z" style="fill:rgb(209,218,223);stroke:rgb(49,50,61);stroke-width:3.24px;"/>
            </g>
            <g transform="matrix(1.18048,0,0,1.18048,-257.248,-143.625)">
                <path d="M1443.51,798.059C1465.58,809.727 1488.45,810.778 1512.51,795.809L1523.26,814.309L1518.01,816.309C1545.68,870.168 1494.41,869.04 1478.01,868.559C1460.66,868.05 1419.99,869.971 1439.26,819.059L1433.76,817.559L1443.51,798.059" style="fill:rgb(209,218,223);stroke:rgb(49,50,61);stroke-width:3.24px;"/>
            </g>
            <g transform="matrix(1.32731,0.188905,-0.188905,1.32731,-299.51,-541.818)">
                <g transform="matrix(1,0,0,1,-0.75,7.25)">
                    <path d="M1456.7,852.371L1458.95,860.371C1451.94,864.304 1447.32,864.09 1442.95,860.371L1446.45,852.746" style="fill:rgb(209,218,223);stroke:rgb(49,50,61);stroke-width:2.85px;"/>
                </g>
                <path d="M1456.7,852.371L1458.95,861.121C1451.94,865.054 1446.32,864.84 1441.95,861.121L1444.95,852.246" style="fill:rgb(209,218,223);stroke:rgb(49,50,61);stroke-width:2.85px;"/>
                <path d="M1440.57,847.246C1443.59,847.532 1446.29,846.438 1448.57,843.621C1452.37,846.622 1456.07,847.891 1459.45,846.871L1460.2,854.621C1454.39,858.192 1447.44,858.557 1441.57,855.246L1440.57,847.246Z" style="fill:rgb(209,218,223);stroke:rgb(49,50,61);stroke-width:2.85px;"/>
            </g>
            <g transform="matrix(-1.31171,0.277192,0.277192,1.31171,3181.64,-656.624)">
                <g transform="matrix(1,0,0,1,-0.75,7.25)">
                    <path d="M1456.7,852.371L1458.95,860.371C1451.94,864.304 1447.32,864.09 1442.95,860.371L1446.45,852.746" style="fill:rgb(209,218,223);stroke:rgb(49,50,61);stroke-width:2.85px;"/>
                </g>
                <path d="M1456.7,852.371L1458.95,861.121C1451.94,865.054 1446.32,864.84 1441.95,861.121L1444.95,852.246" style="fill:rgb(209,218,223);stroke:rgb(49,50,61);stroke-width:2.85px;"/>
                <path d="M1440.57,847.246C1443.59,847.532 1446.29,846.438 1448.57,843.621C1452.37,846.622 1456.07,847.891 1459.45,846.871L1460.2,854.621C1454.39,858.192 1447.44,858.557 1441.57,855.246L1440.57,847.246Z" style="fill:rgb(209,218,223);stroke:rgb(49,50,61);stroke-width:2.85px;"/>
            </g>
            <g transform="matrix(1.18048,2.35643e-33,-2.35643e-33,1.18048,-257.248,-143.625)">
                <path d="M1439.07,818.996L1479.2,831.371L1517.7,816.371" style="fill:none;stroke:rgb(49,50,61);stroke-width:3.24px;"/>
            </g>
        </g>
        <g transform="matrix(1.08173,1.83677e-17,-1.86062e-17,1.09578,1365.58,1813.89)">
            <ellipse cx="1696.63" cy="439.49" rx="26" ry="25.667" style="fill:white;stroke:rgb(49,50,61);stroke-width:3.79px;"/>
        </g>
        <g id="Medals-01" transform="matrix(0.275,4.66947e-18,-4.66947e-18,0.275,3200.96,2295.43)">
            <g transform="matrix(1,0,0,1,-100,-100)">
                <path d="M162.649,37.45C145.35,20.15 124.467,11.5 100,11.5C75.566,11.5 54.733,20.15 37.5,37.45C20.166,54.717 11.5,75.567 11.5,100C11.5,119.767 17.133,137.167 28.399,152.2L28.399,126.801L26,126.801L26,113.351L28.399,113.351L28.399,107.351L15.2,107.351L15.2,100.801C29.467,95.667 37.666,87.051 39.8,74.95L66.1,74.95L66.1,67.35L63.25,67.35L63.25,56.8L66.1,56.8L66.1,51.5L48.75,51.5L48.75,48.15C61.483,42.083 68.883,33.533 70.95,22.5L129.1,22.5C130.447,29.687 134.055,35.82 139.925,40.9C143.07,43.619 146.862,46.035 151.3,48.15L151.3,51.5L133.95,51.5L133.95,56.8L136.8,56.8L136.8,67.35L133.95,67.35L133.95,74.95L160.25,74.95C162.383,87.05 170.583,95.667 184.85,100.801L184.85,107.351L171.65,107.351L171.65,113.351L174.05,113.351L174.05,126.801L171.65,126.801L171.65,152.2C182.917,137.167 188.55,119.766 188.55,100C188.55,77.172 181.017,57.472 165.95,40.9C164.885,39.735 163.784,38.585 162.649,37.45ZM170.85,29.3C174.561,33.017 177.919,36.884 180.925,40.9C193.642,57.917 200,77.617 200,100C200,127.667 190.283,151.267 170.85,170.801C153.319,188.242 132.536,197.867 108.5,199.676C105.711,199.892 102.877,200 100,200C72.366,200 48.816,190.267 29.35,170.801C9.783,151.267 0,127.667 0,100C0,72.333 9.783,48.767 29.35,29.3C48.816,9.767 72.366,0 100,0C127.666,0 151.283,9.767 170.85,29.3ZM153.25,97.7L46.8,97.7L46.8,100.35L53.35,111.15L62.3,111.15L62.3,180.45C66,182.15 69.833,183.6 73.8,184.801L73.8,134.801L126.25,134.801L126.25,184.801C130.217,183.601 134.033,182.151 137.7,180.45L137.7,111.15L146.7,111.15L153.25,100.35L153.25,97.7ZM126.25,121.051L73.8,121.051L73.8,111.151L126.25,111.151L126.25,121.051Z" style="fill:rgb(102,0,0);"/>
            </g>
        </g>
    </g>
    <defs>
        <linearGradient id="_Linear1" x1="0" y1="0" x2="1" y2="0" gradientUnits="userSpaceOnUse" gradientTransform="matrix(223.333,0,0,213.333,470.335,294.917)"><stop offset="0" style="stop-color:rgb(161,51,213);stop-opacity:1"/><stop offset="1" style="stop-color:rgb(215,63,89);stop-opacity:1"/></linearGradient>
    </defs>
</svg>
