<?xml version="1.0" encoding="UTF-8" standalone="no"?>
<!DOCTYPE svg PUBLIC "-//W3C//DTD SVG 1.1//EN" "http://www.w3.org/Graphics/SVG/1.1/DTD/svg11.dtd">
<svg width="100%" height="100%" viewBox="0 0 232 232" version="1.1" xmlns="http://www.w3.org/2000/svg" xmlns:xlink="http://www.w3.org/1999/xlink" xml:space="preserve" xmlns:serif="http://www.serif.com/" style="fill-rule:evenodd;clip-rule:evenodd;stroke-linecap:round;stroke-linejoin:round;stroke-miterlimit:1.5;">
    <g transform="matrix(1,0,0,1,-4071.97,-4352.5)">
        <g transform="matrix(1.00746,-1.82959e-18,0,1.05469,3601.62,4157.46)">
            <ellipse cx="582.001" cy="294.917" rx="111.667" ry="106.667" style="fill:rgb(252,118,229);stroke:url(#_Linear1);stroke-width:6.79px;"/>
        </g>
        <g transform="matrix(1.30769,0,0,1.30769,2240.69,3367.66)">
            <g transform="matrix(1.18048,0,0,1.18048,-259.609,-142.444)">
                <path d="M1427.38,855.684C1430.79,854.916 1434.88,851.21 1437.51,848.559L1448.51,864.309L1435.76,865.559C1432.81,859.493 1429.68,857.431 1427.38,855.684Z" style="fill:rgb(209,218,223);stroke:rgb(49,50,61);stroke-width:3.24px;"/>
            </g>
            <g transform="matrix(-1.18048,0,0,1.18048,3240.52,-141.854)">
                <path d="M1427.51,855.434C1430.91,854.666 1434.88,851.21 1437.51,848.559L1448.51,864.309L1435.88,865.184C1432.89,859.433 1430.58,857.797 1427.51,855.434Z" style="fill:rgb(209,218,223);stroke:rgb(49,50,61);stroke-width:3.24px;"/>
            </g>
            <g transform="matrix(1.18048,0,0,1.18048,-257.248,-143.625)">
                <path d="M1443.51,798.059C1465.58,809.727 1488.45,810.778 1512.51,795.809L1523.26,814.309L1518.01,816.309C1545.68,870.168 1494.41,869.04 1478.01,868.559C1460.66,868.05 1419.99,869.971 1439.26,819.059L1433.76,817.559L1443.51,798.059" style="fill:rgb(209,218,223);stroke:rgb(49,50,61);stroke-width:3.24px;"/>
            </g>
            <g transform="matrix(1.32731,0.188905,-0.188905,1.32731,-299.51,-541.818)">
                <g transform="matrix(1,0,0,1,-0.75,7.25)">
                    <path d="M1456.7,852.371L1458.95,860.371C1451.94,864.304 1447.32,864.09 1442.95,860.371L1446.45,852.746" style="fill:rgb(209,218,223);stroke:rgb(49,50,61);stroke-width:2.85px;"/>
                </g>
                <path d="M1456.7,852.371L1458.95,861.121C1451.94,865.054 1446.32,864.84 1441.95,861.121L1444.95,852.246" style="fill:rgb(209,218,223);stroke:rgb(49,50,61);stroke-width:2.85px;"/>
                <path d="M1440.57,847.246C1443.59,847.532 1446.29,846.438 1448.57,843.621C1452.37,846.622 1456.07,847.891 1459.45,846.871L1460.2,854.621C1454.39,858.192 1447.44,858.557 1441.57,855.246L1440.57,847.246Z" style="fill:rgb(209,218,223);stroke:rgb(49,50,61);stroke-width:2.85px;"/>
            </g>
            <g transform="matrix(-1.31171,0.277192,0.277192,1.31171,3181.64,-656.624)">
                <g transform="matrix(1,0,0,1,-0.75,7.25)">
                    <path d="M1456.7,852.371L1458.95,860.371C1451.94,864.304 1447.32,864.09 1442.95,860.371L1446.45,852.746" style="fill:rgb(209,218,223);stroke:rgb(49,50,61);stroke-width:2.85px;"/>
                </g>
                <path d="M1456.7,852.371L1458.95,861.121C1451.94,865.054 1446.32,864.84 1441.95,861.121L1444.95,852.246" style="fill:rgb(209,218,223);stroke:rgb(49,50,61);stroke-width:2.85px;"/>
                <path d="M1440.57,847.246C1443.59,847.532 1446.29,846.438 1448.57,843.621C1452.37,846.622 1456.07,847.891 1459.45,846.871L1460.2,854.621C1454.39,858.192 1447.44,858.557 1441.57,855.246L1440.57,847.246Z" style="fill:rgb(209,218,223);stroke:rgb(49,50,61);stroke-width:2.85px;"/>
            </g>
            <g transform="matrix(1.18048,2.35643e-33,-2.35643e-33,1.18048,-257.248,-143.625)">
                <path d="M1439.07,818.996L1479.2,831.371L1517.7,816.371" style="fill:none;stroke:rgb(49,50,61);stroke-width:3.24px;"/>
            </g>
        </g>
        <g transform="matrix(1.08173,1.83677e-17,-1.86062e-17,1.09578,2354,3979.13)">
            <ellipse cx="1696.63" cy="439.49" rx="26" ry="25.667" style="fill:white;stroke:rgb(49,50,61);stroke-width:3.79px;"/>
        </g>
        <g id="Badges-06" transform="matrix(0.625,1.06124e-17,-1.06124e-17,0.625,4189.13,4460.93)">
            <g transform="matrix(1,0,0,1,-52,-50)">
                <path d="M88.65,37.9C86.846,32.297 83.705,27.256 79.225,22.775C71.715,15.26 62.64,11.502 52,11.5C41.36,11.502 32.285,15.26 24.775,22.775C18.252,29.292 14.56,36.992 13.7,45.875C20.155,37.609 27.988,29.817 37.2,22.5C45.567,32.267 51.65,40.467 55.45,47.1C59.217,53.734 56.3,59.434 46.7,64.201C37.1,68.934 36.65,73.85 45.35,78.951C51.99,82.833 53.532,85.999 49.975,88.451C50.645,88.484 51.32,88.501 52,88.501C55.988,88.504 59.771,87.987 63.35,86.951L63.325,86.951C65.955,86.154 68.463,85.071 70.85,83.701C73.459,79.805 70.16,76.873 60.95,74.901C47.717,72.067 43.467,69.184 48.2,66.251C52.9,63.284 56.1,60.218 57.8,57.051C59.467,53.885 58.933,50.168 56.2,45.902C59.7,39.3 63.867,34.033 68.7,30.1C73.633,32.734 77.333,35.567 79.8,38.6C80.333,37.167 81.3,35.917 82.7,34.85C84.685,35.469 86.668,36.485 88.65,37.9ZM82.775,19.225C88.83,25.279 92.722,32.237 94.45,40.1C95.152,43.242 95.502,46.541 95.5,50C95.502,62.026 91.26,72.285 82.775,80.775C77.466,86.081 71.466,89.74 64.775,91.75L64.75,91.75C60.729,92.914 56.479,93.497 52,93.5C49.571,93.501 47.213,93.326 44.925,92.975C35.89,91.603 27.99,87.537 21.225,80.776C12.74,72.285 8.498,62.026 8.5,50C8.5,49.8 8.5,49.616 8.5,49.45L8.5,49.425C8.639,37.643 12.88,27.576 21.225,19.225C29.715,10.739 39.974,6.498 52,6.5C64.027,6.498 74.285,10.739 82.775,19.225Z" style="fill:rgb(207,85,81);"/>
            </g>
        </g>
    </g>
    <defs>
        <linearGradient id="_Linear1" x1="0" y1="0" x2="1" y2="0" gradientUnits="userSpaceOnUse" gradientTransform="matrix(223.333,0,0,213.333,470.335,294.917)"><stop offset="0" style="stop-color:rgb(202,48,88);stop-opacity:1"/><stop offset="1" style="stop-color:rgb(255,153,72);stop-opacity:1"/></linearGradient>
    </defs>
</svg>
