<?xml version="1.0" encoding="UTF-8" standalone="no"?>
<!DOCTYPE svg PUBLIC "-//W3C//DTD SVG 1.1//EN" "http://www.w3.org/Graphics/SVG/1.1/DTD/svg11.dtd">
<svg width="100%" height="100%" viewBox="0 0 232 232" version="1.1" xmlns="http://www.w3.org/2000/svg" xmlns:xlink="http://www.w3.org/1999/xlink" xml:space="preserve" xmlns:serif="http://www.serif.com/" style="fill-rule:evenodd;clip-rule:evenodd;stroke-linecap:round;stroke-linejoin:round;stroke-miterlimit:1.5;">
    <g transform="matrix(1,0,0,1,-4069.03,-3059.38)">
        <g transform="matrix(1.00746,-1.82959e-18,0,1.05469,3598.68,2864.33)">
            <ellipse cx="582.001" cy="294.917" rx="111.667" ry="106.667" style="fill:rgb(252,118,229);stroke:url(#_Linear1);stroke-width:6.79px;"/>
        </g>
        <g transform="matrix(1.30769,0,0,1.30769,2237.75,2074.53)">
            <g transform="matrix(1.18048,0,0,1.18048,-259.609,-142.444)">
                <path d="M1427.38,855.684C1430.79,854.916 1434.88,851.21 1437.51,848.559L1448.51,864.309L1435.76,865.559C1432.81,859.493 1429.68,857.431 1427.38,855.684Z" style="fill:rgb(209,218,223);stroke:rgb(49,50,61);stroke-width:3.24px;"/>
            </g>
            <g transform="matrix(-1.18048,0,0,1.18048,3240.52,-141.854)">
                <path d="M1427.51,855.434C1430.91,854.666 1434.88,851.21 1437.51,848.559L1448.51,864.309L1435.88,865.184C1432.89,859.433 1430.58,857.797 1427.51,855.434Z" style="fill:rgb(209,218,223);stroke:rgb(49,50,61);stroke-width:3.24px;"/>
            </g>
            <g transform="matrix(1.18048,0,0,1.18048,-257.248,-143.625)">
                <path d="M1443.51,798.059C1465.58,809.727 1488.45,810.778 1512.51,795.809L1523.26,814.309L1518.01,816.309C1545.68,870.168 1494.41,869.04 1478.01,868.559C1460.66,868.05 1419.99,869.971 1439.26,819.059L1433.76,817.559L1443.51,798.059" style="fill:rgb(209,218,223);stroke:rgb(49,50,61);stroke-width:3.24px;"/>
            </g>
            <g transform="matrix(1.32731,0.188905,-0.188905,1.32731,-299.51,-541.818)">
                <g transform="matrix(1,0,0,1,-0.75,7.25)">
                    <path d="M1456.7,852.371L1458.95,860.371C1451.94,864.304 1447.32,864.09 1442.95,860.371L1446.45,852.746" style="fill:rgb(209,218,223);stroke:rgb(49,50,61);stroke-width:2.85px;"/>
                </g>
                <path d="M1456.7,852.371L1458.95,861.121C1451.94,865.054 1446.32,864.84 1441.95,861.121L1444.95,852.246" style="fill:rgb(209,218,223);stroke:rgb(49,50,61);stroke-width:2.85px;"/>
                <path d="M1440.57,847.246C1443.59,847.532 1446.29,846.438 1448.57,843.621C1452.37,846.622 1456.07,847.891 1459.45,846.871L1460.2,854.621C1454.39,858.192 1447.44,858.557 1441.57,855.246L1440.57,847.246Z" style="fill:rgb(209,218,223);stroke:rgb(49,50,61);stroke-width:2.85px;"/>
            </g>
            <g transform="matrix(-1.31171,0.277192,0.277192,1.31171,3181.64,-656.624)">
                <g transform="matrix(1,0,0,1,-0.75,7.25)">
                    <path d="M1456.7,852.371L1458.95,860.371C1451.94,864.304 1447.32,864.09 1442.95,860.371L1446.45,852.746" style="fill:rgb(209,218,223);stroke:rgb(49,50,61);stroke-width:2.85px;"/>
                </g>
                <path d="M1456.7,852.371L1458.95,861.121C1451.94,865.054 1446.32,864.84 1441.95,861.121L1444.95,852.246" style="fill:rgb(209,218,223);stroke:rgb(49,50,61);stroke-width:2.85px;"/>
                <path d="M1440.57,847.246C1443.59,847.532 1446.29,846.438 1448.57,843.621C1452.37,846.622 1456.07,847.891 1459.45,846.871L1460.2,854.621C1454.39,858.192 1447.44,858.557 1441.57,855.246L1440.57,847.246Z" style="fill:rgb(209,218,223);stroke:rgb(49,50,61);stroke-width:2.85px;"/>
            </g>
            <g transform="matrix(1.18048,2.35643e-33,-2.35643e-33,1.18048,-257.248,-143.625)">
                <path d="M1439.07,818.996L1479.2,831.371L1517.7,816.371" style="fill:none;stroke:rgb(49,50,61);stroke-width:3.24px;"/>
            </g>
        </g>
        <g transform="matrix(0.625,1.06124e-17,-1.06124e-17,0.625,3016.17,2888.54)">
            <g transform="matrix(1.73077,0,0,1.75325,-1064.18,-324.044)">
                <ellipse cx="1696.63" cy="439.49" rx="26" ry="25.667" style="fill:white;stroke:rgb(49,50,61);stroke-width:3.79px;"/>
            </g>
            <g id="Badges-01" transform="matrix(1,0,0,1,1872.03,446.823)">
                <g transform="matrix(1,0,0,1,-52,-50)">
                    <path d="M16.225,64.525C16.83,66.043 17.547,67.518 18.375,68.95C19.86,57.583 29.802,49.099 48.2,43.5C32.356,45.846 21.44,52.163 15.45,62.45C15.69,63.14 15.948,63.824 16.225,64.5L16.225,64.525ZM95.5,50C95.5,50.033 95.5,50.067 95.5,50.1C95.466,62.093 91.225,72.318 82.775,80.775C74.285,89.26 64.026,93.502 52,93.5C39.974,93.502 29.715,89.26 21.225,80.775C19.33,78.872 17.647,76.88 16.175,74.8L16.15,74.8C14.27,72.134 12.745,69.326 11.575,66.375L11.575,66.4C9.527,61.375 8.502,55.908 8.5,50C8.498,49.065 8.531,48.149 8.6,47.25C9.179,36.41 13.387,27.068 21.225,19.225C28.554,11.896 37.229,7.737 47.25,6.75L47.225,6.775C48.781,6.595 50.373,6.503 52,6.5C59.716,6.51 66.708,8.268 72.975,11.775C74.025,12.373 75.075,13.023 76.125,13.725L76.175,13.75C77.642,14.762 79.092,15.878 80.525,17.1C80.541,17.119 80.558,17.136 80.575,17.15C81.308,17.807 82.042,18.499 82.775,19.225C88.968,25.418 92.91,32.552 94.6,40.625L94.6,40.675C95.128,43.378 95.428,46.202 95.5,49.15L95.5,50ZM90.5,49.25C90.497,49.097 90.488,48.947 90.475,48.8C82.584,47.455 75.126,45.622 68.1,43.3C71.633,41.734 74.25,39.683 75.95,37.15C80.513,37.068 84.947,37.935 89.25,39.75C87.545,33.412 84.204,27.753 79.225,22.775C78.576,22.119 77.926,21.494 77.275,20.9C77.257,20.885 77.241,20.868 77.225,20.85C75.939,19.759 74.639,18.759 73.325,17.85L73.375,17.875C72.828,17.512 72.278,17.162 71.725,16.825C71.441,19.809 70.2,22.4 68,24.6C65.467,27.133 62.417,28.4 58.85,28.4C55.283,28.4 52.233,27.133 49.7,24.6C47.167,22.067 45.9,19.017 45.9,15.45C45.9,14.201 46.059,13.018 46.375,11.9C38.108,13.018 30.908,16.643 24.775,22.775C18.488,29.057 14.838,36.423 13.825,44.875C25.982,34.177 38.974,32.052 52.8,38.5C57.133,40.533 61.683,42.35 66.45,43.95C73.954,46.441 81.971,48.366 90.5,49.725C90.5,49.565 90.5,49.407 90.5,49.25Z" style="fill:rgb(244,230,94);"/>
                </g>
            </g>
        </g>
    </g>
    <defs>
        <linearGradient id="_Linear1" x1="0" y1="0" x2="1" y2="0" gradientUnits="userSpaceOnUse" gradientTransform="matrix(223.333,0,0,213.333,470.335,294.917)"><stop offset="0" style="stop-color:rgb(255,217,45);stop-opacity:1"/><stop offset="1" style="stop-color:rgb(43,214,99);stop-opacity:1"/></linearGradient>
    </defs>
</svg>
