<?xml version="1.0" encoding="UTF-8" standalone="no"?>
<!DOCTYPE svg PUBLIC "-//W3C//DTD SVG 1.1//EN" "http://www.w3.org/Graphics/SVG/1.1/DTD/svg11.dtd">
<svg width="100%" height="100%" viewBox="0 0 232 232" version="1.1" xmlns="http://www.w3.org/2000/svg" xmlns:xlink="http://www.w3.org/1999/xlink" xml:space="preserve" xmlns:serif="http://www.serif.com/" style="fill-rule:evenodd;clip-rule:evenodd;stroke-linecap:round;stroke-linejoin:round;stroke-miterlimit:1.5;">
    <g transform="matrix(1,0,0,1,-4074.69,-4108.44)">
        <g transform="matrix(1.00746,-1.82959e-18,0,1.05469,3604.35,3913.39)">
            <ellipse cx="582.001" cy="294.917" rx="111.667" ry="106.667" style="fill:rgb(252,118,229);stroke:url(#_Linear1);stroke-width:6.79px;"/>
        </g>
        <g transform="matrix(1.30769,0,0,1.30769,2243.41,3123.59)">
            <g transform="matrix(1.18048,0,0,1.18048,-259.609,-142.444)">
                <path d="M1427.38,855.684C1430.79,854.916 1434.88,851.21 1437.51,848.559L1448.51,864.309L1435.76,865.559C1432.81,859.493 1429.68,857.431 1427.38,855.684Z" style="fill:rgb(209,218,223);stroke:rgb(49,50,61);stroke-width:3.24px;"/>
            </g>
            <g transform="matrix(-1.18048,0,0,1.18048,3240.52,-141.854)">
                <path d="M1427.51,855.434C1430.91,854.666 1434.88,851.21 1437.51,848.559L1448.51,864.309L1435.88,865.184C1432.89,859.433 1430.58,857.797 1427.51,855.434Z" style="fill:rgb(209,218,223);stroke:rgb(49,50,61);stroke-width:3.24px;"/>
            </g>
            <g transform="matrix(1.18048,0,0,1.18048,-257.248,-143.625)">
                <path d="M1443.51,798.059C1465.58,809.727 1488.45,810.778 1512.51,795.809L1523.26,814.309L1518.01,816.309C1545.68,870.168 1494.41,869.04 1478.01,868.559C1460.66,868.05 1419.99,869.971 1439.26,819.059L1433.76,817.559L1443.51,798.059" style="fill:rgb(209,218,223);stroke:rgb(49,50,61);stroke-width:3.24px;"/>
            </g>
            <g transform="matrix(1.32731,0.188905,-0.188905,1.32731,-299.51,-541.818)">
                <g transform="matrix(1,0,0,1,-0.75,7.25)">
                    <path d="M1456.7,852.371L1458.95,860.371C1451.94,864.304 1447.32,864.09 1442.95,860.371L1446.45,852.746" style="fill:rgb(209,218,223);stroke:rgb(49,50,61);stroke-width:2.85px;"/>
                </g>
                <path d="M1456.7,852.371L1458.95,861.121C1451.94,865.054 1446.32,864.84 1441.95,861.121L1444.95,852.246" style="fill:rgb(209,218,223);stroke:rgb(49,50,61);stroke-width:2.85px;"/>
                <path d="M1440.57,847.246C1443.59,847.532 1446.29,846.438 1448.57,843.621C1452.37,846.622 1456.07,847.891 1459.45,846.871L1460.2,854.621C1454.39,858.192 1447.44,858.557 1441.57,855.246L1440.57,847.246Z" style="fill:rgb(209,218,223);stroke:rgb(49,50,61);stroke-width:2.85px;"/>
            </g>
            <g transform="matrix(-1.31171,0.277192,0.277192,1.31171,3181.64,-656.624)">
                <g transform="matrix(1,0,0,1,-0.75,7.25)">
                    <path d="M1456.7,852.371L1458.95,860.371C1451.94,864.304 1447.32,864.09 1442.95,860.371L1446.45,852.746" style="fill:rgb(209,218,223);stroke:rgb(49,50,61);stroke-width:2.85px;"/>
                </g>
                <path d="M1456.7,852.371L1458.95,861.121C1451.94,865.054 1446.32,864.84 1441.95,861.121L1444.95,852.246" style="fill:rgb(209,218,223);stroke:rgb(49,50,61);stroke-width:2.85px;"/>
                <path d="M1440.57,847.246C1443.59,847.532 1446.29,846.438 1448.57,843.621C1452.37,846.622 1456.07,847.891 1459.45,846.871L1460.2,854.621C1454.39,858.192 1447.44,858.557 1441.57,855.246L1440.57,847.246Z" style="fill:rgb(209,218,223);stroke:rgb(49,50,61);stroke-width:2.85px;"/>
            </g>
            <g transform="matrix(1.18048,2.35643e-33,-2.35643e-33,1.18048,-257.248,-143.625)">
                <path d="M1439.07,818.996L1479.2,831.371L1517.7,816.371" style="fill:none;stroke:rgb(49,50,61);stroke-width:3.24px;"/>
            </g>
        </g>
        <g transform="matrix(1.08173,1.83677e-17,-1.86062e-17,1.09578,2356.73,3735.07)">
            <ellipse cx="1696.63" cy="439.49" rx="26" ry="25.667" style="fill:white;stroke:rgb(49,50,61);stroke-width:3.79px;"/>
        </g>
        <g id="Badges-02" transform="matrix(0.625,1.06124e-17,-1.06124e-17,0.625,4191.86,4216.86)">
            <g transform="matrix(1,0,0,1,-52,-50)">
                <path d="M90.5,50C90.498,39.36 86.74,30.285 79.225,22.775C71.715,15.26 62.64,11.502 52,11.5C41.36,11.502 32.285,15.26 24.775,22.775C17.26,30.285 13.502,39.36 13.5,50C13.493,56.94 15.084,63.207 18.275,68.8C18.516,69.221 18.766,69.638 19.025,70.05L42.6,70.05L42.6,64.9C36.2,65.667 29.967,64.633 23.9,61.8C31.366,58.433 35.966,55.65 37.7,53.45C32.867,52.85 29.733,51.666 28.3,49.9C36.567,45.533 41.633,42.45 43.5,40.65C39.233,41.35 35.95,40.933 33.65,39.4C39.25,35.067 43.783,31.017 47.25,27.25C45.917,27.15 44.667,26.75 43.5,26.05C47.7,23.75 50.534,21.033 52,17.9C54.967,25.1 61.233,31.35 70.8,36.65C67.267,37.65 63.983,37.85 60.95,37.25C62.517,41.317 67.267,44.667 75.2,47.3C72.167,50.4 68.283,51.683 63.55,51.15C67.116,54.883 72.25,57.633 78.95,59.4C72.183,63.4 66.333,65.233 61.4,64.9L61.4,70.05L84.975,70.05C85.234,69.637 85.484,69.221 85.725,68.8C88.916,63.207 90.507,56.94 90.5,50ZM82.775,19.225C91.26,27.715 95.502,37.974 95.5,50C95.493,57.86 93.685,64.96 90.075,71.3C88.137,74.688 85.703,77.847 82.775,80.775C74.285,89.26 64.027,93.502 52,93.5C39.974,93.502 29.715,89.26 21.225,80.775C18.297,77.847 15.864,74.688 13.925,71.3C10.316,64.96 8.507,57.86 8.5,50C8.498,37.974 12.74,27.715 21.225,19.225C29.715,10.74 39.974,6.498 52,6.5C64.027,6.498 74.285,10.74 82.775,19.225Z" style="fill:rgb(69,164,82);"/>
            </g>
        </g>
    </g>
    <defs>
        <linearGradient id="_Linear1" x1="0" y1="0" x2="1" y2="0" gradientUnits="userSpaceOnUse" gradientTransform="matrix(223.333,0,0,213.333,470.335,294.917)"><stop offset="0" style="stop-color:rgb(38,109,0);stop-opacity:1"/><stop offset="1" style="stop-color:rgb(43,214,99);stop-opacity:1"/></linearGradient>
    </defs>
</svg>
