<?xml version="1.0" encoding="UTF-8" standalone="no"?>
<!DOCTYPE svg PUBLIC "-//W3C//DTD SVG 1.1//EN" "http://www.w3.org/Graphics/SVG/1.1/DTD/svg11.dtd">
<svg width="100%" height="100%" viewBox="0 0 232 232" version="1.1" xmlns="http://www.w3.org/2000/svg" xmlns:xlink="http://www.w3.org/1999/xlink" xml:space="preserve" xmlns:serif="http://www.serif.com/" style="fill-rule:evenodd;clip-rule:evenodd;stroke-linecap:round;stroke-linejoin:round;stroke-miterlimit:1.5;">
    <g transform="matrix(1,0,0,1,-4072.45,-3581.83)">
        <g transform="matrix(1.00746,-1.82959e-18,0,1.05469,3602.11,3386.79)">
            <ellipse cx="582.001" cy="294.917" rx="111.667" ry="106.667" style="fill:rgb(252,118,229);stroke:url(#_Linear1);stroke-width:6.79px;"/>
        </g>
        <g transform="matrix(1.30769,0,0,1.30769,2241.17,2596.99)">
            <g transform="matrix(1.18048,0,0,1.18048,-259.609,-142.444)">
                <path d="M1427.38,855.684C1430.79,854.916 1434.88,851.21 1437.51,848.559L1448.51,864.309L1435.76,865.559C1432.81,859.493 1429.68,857.431 1427.38,855.684Z" style="fill:rgb(209,218,223);stroke:rgb(49,50,61);stroke-width:3.24px;"/>
            </g>
            <g transform="matrix(-1.18048,0,0,1.18048,3240.52,-141.854)">
                <path d="M1427.51,855.434C1430.91,854.666 1434.88,851.21 1437.51,848.559L1448.51,864.309L1435.88,865.184C1432.89,859.433 1430.58,857.797 1427.51,855.434Z" style="fill:rgb(209,218,223);stroke:rgb(49,50,61);stroke-width:3.24px;"/>
            </g>
            <g transform="matrix(1.18048,0,0,1.18048,-257.248,-143.625)">
                <path d="M1443.51,798.059C1465.58,809.727 1488.45,810.778 1512.51,795.809L1523.26,814.309L1518.01,816.309C1545.68,870.168 1494.41,869.04 1478.01,868.559C1460.66,868.05 1419.99,869.971 1439.26,819.059L1433.76,817.559L1443.51,798.059" style="fill:rgb(209,218,223);stroke:rgb(49,50,61);stroke-width:3.24px;"/>
            </g>
            <g transform="matrix(1.32731,0.188905,-0.188905,1.32731,-299.51,-541.818)">
                <g transform="matrix(1,0,0,1,-0.75,7.25)">
                    <path d="M1456.7,852.371L1458.95,860.371C1451.94,864.304 1447.32,864.09 1442.95,860.371L1446.45,852.746" style="fill:rgb(209,218,223);stroke:rgb(49,50,61);stroke-width:2.85px;"/>
                </g>
                <path d="M1456.7,852.371L1458.95,861.121C1451.94,865.054 1446.32,864.84 1441.95,861.121L1444.95,852.246" style="fill:rgb(209,218,223);stroke:rgb(49,50,61);stroke-width:2.85px;"/>
                <path d="M1440.57,847.246C1443.59,847.532 1446.29,846.438 1448.57,843.621C1452.37,846.622 1456.07,847.891 1459.45,846.871L1460.2,854.621C1454.39,858.192 1447.44,858.557 1441.57,855.246L1440.57,847.246Z" style="fill:rgb(209,218,223);stroke:rgb(49,50,61);stroke-width:2.85px;"/>
            </g>
            <g transform="matrix(-1.31171,0.277192,0.277192,1.31171,3181.64,-656.624)">
                <g transform="matrix(1,0,0,1,-0.75,7.25)">
                    <path d="M1456.7,852.371L1458.95,860.371C1451.94,864.304 1447.32,864.09 1442.95,860.371L1446.45,852.746" style="fill:rgb(209,218,223);stroke:rgb(49,50,61);stroke-width:2.85px;"/>
                </g>
                <path d="M1456.7,852.371L1458.95,861.121C1451.94,865.054 1446.32,864.84 1441.95,861.121L1444.95,852.246" style="fill:rgb(209,218,223);stroke:rgb(49,50,61);stroke-width:2.85px;"/>
                <path d="M1440.57,847.246C1443.59,847.532 1446.29,846.438 1448.57,843.621C1452.37,846.622 1456.07,847.891 1459.45,846.871L1460.2,854.621C1454.39,858.192 1447.44,858.557 1441.57,855.246L1440.57,847.246Z" style="fill:rgb(209,218,223);stroke:rgb(49,50,61);stroke-width:2.85px;"/>
            </g>
            <g transform="matrix(1.18048,2.35643e-33,-2.35643e-33,1.18048,-257.248,-143.625)">
                <path d="M1439.07,818.996L1479.2,831.371L1517.7,816.371" style="fill:none;stroke:rgb(49,50,61);stroke-width:3.24px;"/>
            </g>
        </g>
        <g transform="matrix(1.08173,1.83677e-17,-1.86062e-17,1.09578,2354.49,3208.46)">
            <ellipse cx="1696.63" cy="439.49" rx="26" ry="25.667" style="fill:white;stroke:rgb(49,50,61);stroke-width:3.79px;"/>
        </g>
        <g id="Badges-03" transform="matrix(0.625,1.06124e-17,-1.06124e-17,0.625,4189.62,3690.26)">
            <g transform="matrix(1,0,0,1,-52,-50)">
                <path d="M14.125,42.725C13.966,43.647 13.832,44.58 13.725,45.525C13.683,45.933 13.65,46.341 13.625,46.75C17.51,48.771 22.001,49.038 27.1,47.55C31.333,51.85 36.4,53.667 42.3,53C36.3,52.967 31.533,50.2 28,44.7C22.472,46.027 17.847,45.369 14.125,42.725ZM88.45,62.9L88.425,62.95C88.571,62.524 88.712,62.098 88.85,61.675C83.428,65.72 76.711,66.878 68.7,65.15C64.6,74.55 58.483,79.067 50.35,78.7C59.15,79.567 65.784,76.4 70.25,69.2C76.819,70.299 82.311,69.557 86.725,66.975C87.375,65.651 87.95,64.292 88.45,62.9ZM75.2,40.45C75.175,40.387 75.158,40.321 75.149,40.25C74.608,34.882 72.375,30.231 68.45,26.3C63.909,21.764 58.426,19.498 52,19.5C45.573,19.498 40.09,21.764 35.55,26.3C31.658,30.197 29.442,34.781 28.9,40.05C28.892,40.12 28.876,40.187 28.85,40.25C44.562,45.083 60.012,45.149 75.2,40.45ZM92.35,33.325L92.375,33.375C93.115,35.212 93.732,37.121 94.225,39.1C95.073,42.557 95.497,46.19 95.5,50C95.499,52.245 95.357,54.42 95.075,56.525C95.074,56.548 95.074,56.573 95.075,56.6C94.935,57.459 94.777,58.301 94.599,59.125C94.248,60.969 93.774,62.777 93.174,64.55C93.164,64.566 93.156,64.583 93.149,64.6C92.513,66.361 91.772,68.069 90.924,69.725L90.924,69.75C88.879,73.708 86.162,77.383 82.774,80.775C74.284,89.26 64.026,93.502 52,93.5C39.974,93.502 29.715,89.26 21.225,80.775C17.849,77.39 15.157,73.723 13.15,69.775C13.141,69.759 13.133,69.742 13.126,69.725C11.776,67.173 10.727,64.498 9.976,61.7C8.99,57.994 8.498,54.094 8.5,50C8.504,48.308 8.596,46.632 8.774,44.975C8.942,43.433 9.175,41.925 9.474,40.45C9.562,39.963 9.67,39.496 9.799,39.05L9.774,39.1C10.273,37.103 10.916,35.179 11.7,33.325L11.7,33.35C13.811,28.181 16.986,23.472 21.224,19.225C29.715,10.74 39.974,6.498 52,6.5C64.026,6.498 74.284,10.74 82.774,19.225C87.011,23.464 90.202,28.165 92.35,33.325ZM87.75,35.275C87.742,35.258 87.734,35.241 87.725,35.225C85.809,30.671 82.975,26.521 79.225,22.775C71.715,15.26 62.64,11.502 52,11.5C41.359,11.502 32.285,15.26 24.774,22.775C21.012,26.528 18.187,30.686 16.299,35.25L16.299,35.275C16.283,35.312 16.267,35.345 16.249,35.375C19.808,37.043 23.366,38.46 26.924,39.625C27.553,33.991 29.961,29.083 34.149,24.9C39.076,19.969 45.026,17.503 52,17.5C58.974,17.502 64.924,19.969 69.85,24.9C74.07,29.114 76.496,34.089 77.125,39.825C80.687,38.625 84.244,37.158 87.8,35.425C87.786,35.375 87.77,35.325 87.75,35.275Z" style="fill:rgb(83,99,219);"/>
            </g>
        </g>
    </g>
    <defs>
        <linearGradient id="_Linear1" x1="0" y1="0" x2="1" y2="0" gradientUnits="userSpaceOnUse" gradientTransform="matrix(223.333,0,0,213.333,470.335,294.917)"><stop offset="0" style="stop-color:rgb(43,213,99);stop-opacity:1"/><stop offset="1" style="stop-color:rgb(0,130,213);stop-opacity:1"/></linearGradient>
    </defs>
</svg>
