<?xml version="1.0" encoding="utf-8"?>
<!-- Generator: Adobe Illustrator 16.0.0, SVG Export Plug-In . SVG Version: 6.00 Build 0)  -->
<!DOCTYPE svg PUBLIC "-//W3C//DTD SVG 1.1//EN" "http://www.w3.org/Graphics/SVG/1.1/DTD/svg11.dtd">
<svg version="1.1" id="Layer_1" xmlns="http://www.w3.org/2000/svg" xmlns:xlink="http://www.w3.org/1999/xlink" x="0px" y="0px"
	 width="104px" height="100px" viewBox="0 0 104 100" enable-background="new 0 0 104 100" xml:space="preserve">
<g>
	<path fill-rule="evenodd" clip-rule="evenodd" fill="#83D5FF" d="M46.301,64.95l-10.551,14L50.551,83l-8.575,4.3
		c3.167,0.803,6.509,1.202,10.024,1.2c1.697,0.003,3.348-0.089,4.95-0.275c0.852-0.101,1.693-0.226,2.525-0.375l6.675-8.6
		l-25.2-1.15l8.101-13.8L68.75,57l-3.25-1.8l5.851-3.75l-11.4-3.25l2.15-3.55l28.274,2.199c-0.667-9.289-4.384-17.313-11.149-24.074
		C71.716,15.26,62.641,11.502,52,11.5c-10.64,0.002-19.715,3.76-27.225,11.275C17.261,30.285,13.502,39.36,13.5,50
		c0.001,0.584,0.01,1.159,0.025,1.725L62.25,39.45l-7.149,9.6l9.25,2.601L31.2,70.3L46.301,64.95z M8.551,52.45
		C8.517,51.65,8.5,50.834,8.5,50c-0.002-12.026,4.24-22.285,12.726-30.775C29.716,10.739,39.974,6.498,52,6.5
		c12.026-0.002,22.285,4.239,30.775,12.725c7.744,7.75,11.952,16.966,12.625,27.65c0.068,1.024,0.102,2.065,0.1,3.125
		c0.002,12.026-4.239,22.285-12.725,30.775c-7.15,7.146-15.559,11.278-25.225,12.399C55.753,93.389,53.903,93.497,52,93.5
		c-5.009-0.003-9.7-0.729-14.074-2.175H37.9c-6.161-2.082-11.72-5.599-16.675-10.55C13.337,72.882,9.112,63.448,8.551,52.475V52.45z
		"/>
</g>
</svg>
