<?xml version="1.0" encoding="utf-8"?>
<!-- Generator: Adobe Illustrator 16.0.0, SVG Export Plug-In . SVG Version: 6.00 Build 0)  -->
<!DOCTYPE svg PUBLIC "-//W3C//DTD SVG 1.1//EN" "http://www.w3.org/Graphics/SVG/1.1/DTD/svg11.dtd">
<svg version="1.1" id="Selected_Items" xmlns="http://www.w3.org/2000/svg" xmlns:xlink="http://www.w3.org/1999/xlink" x="0px"
	 y="0px" width="1024px" height="768px" viewBox="0 0 1024 768" enable-background="new 0 0 1024 768" xml:space="preserve">
<g>
	<g>
		<path fill-rule="evenodd" clip-rule="evenodd" fill="#96C7E0" d="M0,94.2V0h1024v178l-218.7,40.95l20.8,103.75h-531.95
			l17.15-180.9L0,151.2v-49.45h0.05c1.033,0,1.917-0.367,2.65-1.1c0.732-0.733,1.1-1.6,1.1-2.6c0-1.033-0.367-1.95-1.1-2.75
			c-0.733-0.733-1.617-1.1-2.65-1.1H0z M374.351,173.4c-0.801,0.867-1.201,1.917-1.201,3.15c0,1.167,0.4,2.15,1.201,2.95
			c0.866,0.867,1.899,1.3,3.1,1.3c1.199,0,2.217-0.433,3.05-1.3c0.866-0.8,1.3-1.783,1.3-2.95c0-1.233-0.434-2.283-1.3-3.15
			c-0.833-0.833-1.851-1.25-3.05-1.25C376.25,172.15,375.217,172.566,374.351,173.4z M946.2,103c0,0.833,0.3,1.583,0.899,2.25
			c0.601,0.6,1.334,0.9,2.2,0.9c0.833,0,1.55-0.3,2.15-0.9c0.633-0.667,0.95-1.417,0.95-2.25c0-0.867-0.317-1.6-0.95-2.2
			c-0.601-0.6-1.317-0.9-2.15-0.9c-0.866,0-1.6,0.3-2.2,0.9C946.5,101.4,946.2,102.133,946.2,103z M975.25,69.8
			c1.033,1.034,2.283,1.55,3.75,1.55s2.684-0.517,3.65-1.55c1.033-1.033,1.55-2.267,1.55-3.7c0-1.434-0.517-2.667-1.55-3.7
			c-0.967-1-2.184-1.5-3.65-1.5s-2.717,0.5-3.75,1.5c-1,1.034-1.5,2.267-1.5,3.7C973.75,67.533,974.25,68.767,975.25,69.8z
			 M458.8,279.35c0-1.2-0.434-2.233-1.3-3.1c-0.8-0.8-1.8-1.2-3-1.2c-1.167,0-2.167,0.4-3,1.2c-0.833,0.867-1.25,1.9-1.25,3.1
			c0,1.167,0.417,2.15,1.25,2.95c0.833,0.833,1.833,1.25,3,1.25c1.2,0,2.2-0.417,3-1.25C458.366,281.5,458.8,280.517,458.8,279.35z
			 M556.85,121.3c0,0.934,0.334,1.733,1,2.4c0.667,0.667,1.467,1,2.4,1c0.9,0,1.667-0.333,2.3-1c0.7-0.667,1.05-1.467,1.05-2.4
			c0-0.933-0.35-1.733-1.05-2.4c-0.633-0.667-1.399-1-2.3-1c-0.934,0-1.733,0.333-2.4,1
			C557.184,119.566,556.85,120.367,556.85,121.3z"/>
		<path fill-rule="evenodd" clip-rule="evenodd" fill="#FFFFFF" d="M0,101.75V94.2h0.05c1.033,0,1.917,0.366,2.65,1.1
			c0.732,0.8,1.1,1.717,1.1,2.75c0,1-0.367,1.867-1.1,2.6c-0.733,0.733-1.617,1.1-2.65,1.1H0z M374.351,173.4
			c0.866-0.833,1.899-1.25,3.1-1.25c1.199,0,2.217,0.417,3.05,1.25c0.866,0.867,1.3,1.917,1.3,3.15c0,1.167-0.434,2.15-1.3,2.95
			c-0.833,0.867-1.851,1.3-3.05,1.3c-1.2,0-2.233-0.433-3.1-1.3c-0.801-0.8-1.201-1.783-1.201-2.95
			C373.149,175.316,373.55,174.267,374.351,173.4z M419.8,360.25c0-1.133,0.417-2.133,1.25-3c0.834-0.833,1.834-1.25,3-1.25
			c1.2,0,2.2,0.417,3,1.25c0.867,0.867,1.301,1.867,1.301,3c0,1.2-0.434,2.2-1.301,3c-0.8,0.867-1.8,1.3-3,1.3
			c-1.166,0-2.166-0.433-3-1.3C420.217,362.45,419.8,361.45,419.8,360.25z M167.101,505.449c-0.668,0-1.234-0.232-1.701-0.699
			s-0.699-1.033-0.699-1.701c0-0.666,0.232-1.232,0.699-1.699s1.033-0.699,1.701-0.699c0.699,0,1.283,0.232,1.75,0.699
			c0.433,0.467,0.649,1.033,0.649,1.699c0,0.668-0.217,1.234-0.649,1.701C168.384,505.217,167.8,505.449,167.101,505.449z
			 M116.649,536.799c2.268,0,4.167,0.783,5.701,2.352c1.6,1.633,2.399,3.549,2.399,5.75c0,2.232-0.8,4.148-2.399,5.75
			c-1.534,1.566-3.434,2.35-5.701,2.35c-2.232,0-4.149-0.783-5.75-2.35c-1.566-1.602-2.35-3.518-2.35-5.75
			c0-2.201,0.783-4.117,2.35-5.75C112.5,537.582,114.417,536.799,116.649,536.799z M101.7,689.699c0.4,0.434,0.6,0.951,0.6,1.551
			s-0.199,1.1-0.6,1.5c-0.4,0.434-0.9,0.65-1.5,0.65s-1.117-0.217-1.551-0.65c-0.399-0.4-0.6-0.9-0.6-1.5s0.2-1.117,0.6-1.551
			c0.434-0.367,0.951-0.549,1.551-0.549S101.3,689.332,101.7,689.699z M318.899,523.5c0.667-0.668,1.467-1,2.4-1s1.717,0.332,2.35,1
			c0.667,0.699,1,1.482,1,2.35c0,0.934-0.333,1.717-1,2.35c-0.633,0.701-1.416,1.051-2.35,1.051s-1.733-0.35-2.4-1.051
			c-0.633-0.633-0.949-1.416-0.949-2.35C317.95,524.982,318.267,524.199,318.899,523.5z M64.3,337.35c1-0.967,2.184-1.45,3.551-1.45
			c1.399,0,2.582,0.483,3.549,1.45c1,1,1.5,2.2,1.5,3.6c0,1.366-0.5,2.533-1.5,3.5c-0.967,0.966-2.149,1.45-3.549,1.45
			c-1.367,0-2.551-0.483-3.551-1.45c-0.967-0.967-1.449-2.134-1.449-3.5C62.851,339.55,63.333,338.35,64.3,337.35z M0,616.549
			V605.65c1.134-0.801,2.417-1.201,3.851-1.201c1.866,0,3.433,0.633,4.699,1.9c1.334,1.301,2,2.9,2,4.801
			c0,1.799-0.666,3.35-2,4.648c-1.267,1.301-2.833,1.951-4.699,1.951C2.417,617.75,1.134,617.35,0,616.549z M556.85,121.3
			c0-0.933,0.334-1.733,1-2.4c0.667-0.667,1.467-1,2.4-1c0.9,0,1.667,0.333,2.3,1c0.7,0.667,1.05,1.467,1.05,2.4
			c0,0.934-0.35,1.733-1.05,2.4c-0.633,0.667-1.399,1-2.3,1c-0.934,0-1.733-0.333-2.4-1
			C557.184,123.033,556.85,122.233,556.85,121.3z M458.8,279.35c0,1.167-0.434,2.15-1.3,2.95c-0.8,0.833-1.8,1.25-3,1.25
			c-1.167,0-2.167-0.417-3-1.25c-0.833-0.8-1.25-1.783-1.25-2.95c0-1.2,0.417-2.233,1.25-3.1c0.833-0.8,1.833-1.2,3-1.2
			c1.2,0,2.2,0.4,3,1.2C458.366,277.117,458.8,278.15,458.8,279.35z M975.25,69.8c-1-1.033-1.5-2.267-1.5-3.7
			c0-1.434,0.5-2.667,1.5-3.7c1.033-1,2.283-1.5,3.75-1.5s2.684,0.5,3.65,1.5c1.033,1.034,1.55,2.267,1.55,3.7
			c0,1.433-0.517,2.667-1.55,3.7c-0.967,1.034-2.184,1.55-3.65,1.55S976.283,70.833,975.25,69.8z M946.2,103
			c0-0.867,0.3-1.6,0.899-2.2c0.601-0.6,1.334-0.9,2.2-0.9c0.833,0,1.55,0.3,2.15,0.9c0.633,0.6,0.95,1.333,0.95,2.2
			c0,0.833-0.317,1.583-0.95,2.25c-0.601,0.6-1.317,0.9-2.15,0.9c-0.866,0-1.6-0.3-2.2-0.9C946.5,104.583,946.2,103.833,946.2,103z
			 M895.4,294.85c-1.067-1.067-1.601-2.367-1.601-3.9c0-1.5,0.533-2.8,1.601-3.9c1.066-1.066,2.366-1.6,3.899-1.6
			s2.833,0.533,3.9,1.6c1.066,1.1,1.6,2.4,1.6,3.9c0,1.533-0.533,2.833-1.6,3.9c-1.067,1.1-2.367,1.65-3.9,1.65
			S896.467,295.95,895.4,294.85z M1024,208.45c-1.233,1.267-2.75,1.9-4.55,1.9c-1.834,0-3.417-0.684-4.75-2.05
			c-1.267-1.267-1.9-2.8-1.9-4.6c0-1.867,0.634-3.467,1.9-4.8c1.333-1.3,2.916-1.95,4.75-1.95c1.8,0,3.316,0.6,4.55,1.8V208.45z
			 M985.7,285.5c-0.934,0-1.733-0.333-2.4-1c-0.633-0.667-0.95-1.45-0.95-2.35s0.317-1.683,0.95-2.35c0.667-0.7,1.467-1.05,2.4-1.05
			c0.933,0,1.717,0.35,2.35,1.05c0.667,0.667,1,1.45,1,2.35s-0.333,1.684-1,2.35C987.417,285.167,986.633,285.5,985.7,285.5z
			 M780.45,489.4c-1.233-1.268-1.851-2.75-1.851-4.451c0-1.699,0.617-3.133,1.851-4.299c1.2-1.268,2.649-1.9,4.35-1.9
			s3.167,0.633,4.4,1.9c1.2,1.166,1.8,2.6,1.8,4.299c0,1.701-0.6,3.184-1.8,4.451c-1.233,1.166-2.7,1.75-4.4,1.75
			S781.65,490.566,780.45,489.4z M826.1,517.6c1.167-1.133,2.567-1.699,4.2-1.699c1.634,0,3.033,0.566,4.2,1.699
			c1.167,1.166,1.75,2.566,1.75,4.199c0,1.668-0.583,3.084-1.75,4.25c-1.167,1.168-2.566,1.75-4.2,1.75
			c-1.633,0-3.033-0.582-4.2-1.75c-1.166-1.166-1.75-2.582-1.75-4.25C824.35,520.166,824.934,518.766,826.1,517.6z M871,590.15
			c-0.8,0-1.483-0.283-2.05-0.852c-0.567-0.566-0.851-1.25-0.851-2.049c0-0.768,0.283-1.418,0.851-1.951
			c0.566-0.566,1.25-0.85,2.05-0.85c0.767,0,1.434,0.283,2,0.85c0.566,0.533,0.85,1.184,0.85,1.951c0,0.799-0.283,1.482-0.85,2.049
			C872.434,589.867,871.767,590.15,871,590.15z"/>
		<path fill-rule="evenodd" clip-rule="evenodd" fill="#D4F0FF" d="M0,263.85V151.2l311.3-9.4l-133.25,46.65l32.301,13.3
			L24.45,245.6L0,263.85z M1024,324.1l-93.05-43.3l31.399-23.85l-157.05-38L1024,178v20.75c-1.233-1.2-2.75-1.8-4.55-1.8
			c-1.834,0-3.417,0.65-4.75,1.95c-1.267,1.333-1.9,2.934-1.9,4.8c0,1.8,0.634,3.333,1.9,4.6c1.333,1.367,2.916,2.05,4.75,2.05
			c1.8,0,3.316-0.633,4.55-1.9V324.1z M985.7,285.5c0.933,0,1.717-0.333,2.35-1c0.667-0.667,1-1.45,1-2.35s-0.333-1.683-1-2.35
			c-0.633-0.7-1.417-1.05-2.35-1.05c-0.934,0-1.733,0.35-2.4,1.05c-0.633,0.667-0.95,1.45-0.95,2.35s0.317,1.684,0.95,2.35
			C983.967,285.167,984.767,285.5,985.7,285.5z"/>
		<path fill-rule="evenodd" clip-rule="evenodd" fill="#5E9AB8" d="M195.95,433.85l14.4-232.1l-32.301-13.3L311.3,141.8
			l-17.15,180.9l-4.75,32.35l-8.6,5.7l7.65,39.05L195.95,433.85z M930.95,280.8l19.5,108.05L836.7,381.7l-10.601-59l-20.8-103.75
			l157.05,38L930.95,280.8z M0,508.15v-244.3l24.45-18.25L8.3,506.549L0,508.15z M592.8,768l7.5-72.201l-66-18.1l-4.35-17.799
			l184.55,8.398L636.75,768H592.8z M687.85,496.15l45.75,9.199l-40.699,15.1L687.85,496.15z M674.2,458.5l-5.05-17.65l83.5,23.801
			l-53.301,25.898l2-24.398L674.2,458.5z M895.4,294.85c1.066,1.1,2.366,1.65,3.899,1.65s2.833-0.55,3.9-1.65
			c1.066-1.067,1.6-2.367,1.6-3.9c0-1.5-0.533-2.8-1.6-3.9c-1.067-1.066-2.367-1.6-3.9-1.6s-2.833,0.533-3.899,1.6
			c-1.067,1.1-1.601,2.4-1.601,3.9C893.8,292.483,894.333,293.783,895.4,294.85z"/>
		<path fill-rule="evenodd" clip-rule="evenodd" fill="#00CCFF" d="M826.1,322.7l10.601,59l113.75,7.149l3.3,18.551l70.25,9.398V448
			l-339.15-33.15L677,427.9l9-51.101l-493.25,94.45l3.2-37.4l92.5-34.05l-7.65-39.05l8.6-5.7l4.75-32.35H826.1z M419.8,360.25
			c0,1.2,0.417,2.2,1.25,3c0.834,0.867,1.834,1.3,3,1.3c1.2,0,2.2-0.433,3-1.3c0.867-0.8,1.301-1.8,1.301-3
			c0-1.133-0.434-2.133-1.301-3c-0.8-0.833-1.8-1.25-3-1.25c-1.166,0-2.166,0.417-3,1.25
			C420.217,358.117,419.8,359.117,419.8,360.25z"/>
		<path fill-rule="evenodd" clip-rule="evenodd" fill="#70B7DB" d="M210.351,201.75l-14.4,232.1l-3.2,37.4L8.3,506.549L24.45,245.6
			L210.351,201.75z M674.2,458.5L633.6,447.1l52.4-70.3l-9,51.101l-7.85,12.949L674.2,458.5z M687.85,496.15l5.051,24.299
			L589.3,558.85L529.95,659.9l4.35,17.799l-42.449-11.6l77.3-102.551L458.5,602.75l242.85-136.6l-2,24.398L687.85,496.15z
			 M950.45,388.85l-19.5-108.05l93.05,43.3v92.699l-70.25-9.398L950.45,388.85z M64.3,337.35c-0.967,1-1.449,2.2-1.449,3.6
			c0,1.366,0.482,2.533,1.449,3.5c1,0.966,2.184,1.45,3.551,1.45c1.399,0,2.582-0.483,3.549-1.45c1-0.967,1.5-2.134,1.5-3.5
			c0-1.4-0.5-2.6-1.5-3.6c-0.967-0.967-2.149-1.45-3.549-1.45C66.483,335.9,65.3,336.383,64.3,337.35z M600.3,695.799L592.8,768
			H480.55L600.3,695.799z"/>
		<path fill-rule="evenodd" clip-rule="evenodd" fill="#B8E7FF" d="M8.3,506.549l184.45-35.299L686,376.8l-52.4,70.3l40.601,11.4
			l27.149,7.65L458.5,602.75l110.65-39.201l-77.3,102.551l42.449,11.6l66,18.1L480.55,768H0V616.549
			c1.134,0.801,2.417,1.201,3.851,1.201c1.866,0,3.433-0.65,4.699-1.951c1.334-1.299,2-2.85,2-4.648c0-1.9-0.666-3.5-2-4.801
			c-1.267-1.268-2.833-1.9-4.699-1.9c-1.434,0-2.717,0.4-3.851,1.201v-97.5L8.3,506.549z M1024,448v320H636.75l77.75-99.701
			L529.95,659.9L589.3,558.85l103.601-38.4l40.699-15.1l-45.75-9.199l11.5-5.602l53.301-25.898l-83.5-23.801L677,427.9l7.85-13.051
			L1024,448z M318.899,523.5c-0.633,0.699-0.949,1.482-0.949,2.35c0,0.934,0.316,1.717,0.949,2.35
			c0.667,0.701,1.467,1.051,2.4,1.051s1.717-0.35,2.35-1.051c0.667-0.633,1-1.416,1-2.35c0-0.867-0.333-1.65-1-2.35
			c-0.633-0.668-1.416-1-2.35-1S319.566,522.832,318.899,523.5z M101.7,689.699c-0.4-0.367-0.9-0.549-1.5-0.549
			s-1.117,0.182-1.551,0.549c-0.399,0.434-0.6,0.951-0.6,1.551s0.2,1.1,0.6,1.5c0.434,0.434,0.951,0.65,1.551,0.65
			s1.1-0.217,1.5-0.65c0.4-0.4,0.6-0.9,0.6-1.5S102.101,690.133,101.7,689.699z M116.649,536.799c-2.232,0-4.149,0.783-5.75,2.352
			c-1.566,1.633-2.35,3.549-2.35,5.75c0,2.232,0.783,4.148,2.35,5.75c1.601,1.566,3.518,2.35,5.75,2.35
			c2.268,0,4.167-0.783,5.701-2.35c1.6-1.602,2.399-3.518,2.399-5.75c0-2.201-0.8-4.117-2.399-5.75
			C120.816,537.582,118.917,536.799,116.649,536.799z M167.101,505.449c0.699,0,1.283-0.232,1.75-0.699
			c0.433-0.467,0.649-1.033,0.649-1.701c0-0.666-0.217-1.232-0.649-1.699c-0.467-0.467-1.051-0.699-1.75-0.699
			c-0.668,0-1.234,0.232-1.701,0.699s-0.699,1.033-0.699,1.699c0,0.668,0.232,1.234,0.699,1.701S166.433,505.449,167.101,505.449z
			 M871,590.15c0.767,0,1.434-0.283,2-0.852c0.566-0.566,0.85-1.25,0.85-2.049c0-0.768-0.283-1.418-0.85-1.951
			c-0.566-0.566-1.233-0.85-2-0.85c-0.8,0-1.483,0.283-2.05,0.85c-0.567,0.533-0.851,1.184-0.851,1.951
			c0,0.799,0.283,1.482,0.851,2.049C869.517,589.867,870.2,590.15,871,590.15z M826.1,517.6c-1.166,1.166-1.75,2.566-1.75,4.199
			c0,1.668,0.584,3.084,1.75,4.25c1.167,1.168,2.567,1.75,4.2,1.75c1.634,0,3.033-0.582,4.2-1.75c1.167-1.166,1.75-2.582,1.75-4.25
			c0-1.633-0.583-3.033-1.75-4.199c-1.167-1.133-2.566-1.699-4.2-1.699C828.667,515.9,827.267,516.467,826.1,517.6z M780.45,489.4
			c1.2,1.166,2.649,1.75,4.35,1.75s3.167-0.584,4.4-1.75c1.2-1.268,1.8-2.75,1.8-4.451c0-1.699-0.6-3.133-1.8-4.299
			c-1.233-1.268-2.7-1.9-4.4-1.9s-3.149,0.633-4.35,1.9c-1.233,1.166-1.851,2.6-1.851,4.299
			C778.6,486.65,779.217,488.133,780.45,489.4z"/>
	</g>
</g>
</svg>
