<?xml version="1.0" encoding="utf-8"?>
<!-- Generator: Adobe Illustrator 16.0.0, SVG Export Plug-In . SVG Version: 6.00 Build 0)  -->
<!DOCTYPE svg PUBLIC "-//W3C//DTD SVG 1.1//EN" "http://www.w3.org/Graphics/SVG/1.1/DTD/svg11.dtd">
<svg version="1.1" id="Layer_1" xmlns="http://www.w3.org/2000/svg" xmlns:xlink="http://www.w3.org/1999/xlink" x="0px" y="0px"
	 width="104px" height="100px" viewBox="0 0 104 100" enable-background="new 0 0 104 100" xml:space="preserve">
<g>
	<path fill-rule="evenodd" clip-rule="evenodd" fill="#85828A" d="M89.95,43.05c-1.339-7.708-4.914-14.467-10.726-20.274
		C71.715,15.26,62.64,11.502,52,11.5c-10.641,0.002-19.715,3.76-27.226,11.275C17.26,30.285,13.502,39.36,13.5,50
		c-0.001,2.794,0.266,5.494,0.8,8.1c0.033,0.168,0.067,0.334,0.1,0.5h1.351V39h8.8v11.85h10.7V45h5.2V31.85h1.25
		c0.133-1.033,0.583-1.949,1.35-2.75c0.9-0.899,1.983-1.383,3.25-1.449c1.267,0.066,2.35,0.55,3.25,1.449
		c0.767,0.801,1.217,1.717,1.35,2.75h1.25v10.7h2.45v-23.2h10.25V52H70.2v-8.95H89.95z M94.975,42.65v0.024
		c0.351,2.354,0.526,4.796,0.525,7.325c0.002,12.026-4.24,22.285-12.726,30.775C74.284,89.261,64.026,93.502,52,93.5
		c-12.026,0.002-22.285-4.239-30.775-12.725C14.96,74.508,11.018,67.283,9.399,59.1C8.801,56.173,8.5,53.14,8.5,50
		c-0.002-12.026,4.239-22.285,12.725-30.775C29.715,10.739,39.974,6.498,52,6.5c12.026-0.002,22.284,4.239,30.774,12.725
		C89.464,25.917,93.53,33.725,94.975,42.65z"/>
</g>
</svg>
