<?xml version="1.0" encoding="utf-8"?>
<!-- Generator: Adobe Illustrator 16.0.0, SVG Export Plug-In . SVG Version: 6.00 Build 0)  -->
<!DOCTYPE svg PUBLIC "-//W3C//DTD SVG 1.1//EN" "http://www.w3.org/Graphics/SVG/1.1/DTD/svg11.dtd">
<svg version="1.1" id="Selected_Items" xmlns="http://www.w3.org/2000/svg" xmlns:xlink="http://www.w3.org/1999/xlink" x="0px"
	 y="0px" width="1024px" height="768px" viewBox="0 0 1024 768" enable-background="new 0 0 1024 768" xml:space="preserve">
<g>
	<g>
		<path fill-rule="evenodd" clip-rule="evenodd" fill="#232354" d="M897.8,193c9.867-9.867,16.917-20.9,21.15-33.1
			c3.167-9.167,4.75-19,4.75-29.5c0-24.467-8.634-45.334-25.9-62.601c-17.3-17.3-38.183-25.95-62.649-25.95
			S789.816,50.5,772.55,67.8c-17.267,17.267-25.899,38.134-25.899,62.601c0,10.5,1.6,20.333,4.8,29.5
			c4.2,12.199,11.233,23.232,21.1,33.1c17.267,17.3,38.134,25.95,62.601,25.95S880.5,210.3,897.8,193z M89.851,405.5H0V0h1024v405.5
			H775.85V259.25h-192.5v77.3H537.15v-282h-88.55v200.4H427.5V162.5h-10.899c-0.101-0.9-0.234-1.767-0.4-2.6
			c-1.5-7.867-5.25-14.884-11.25-21.051c-7.733-7.833-17.066-12.033-28-12.6c-10.967,0.566-20.316,4.767-28.051,12.6
			c-6.033,6.167-9.783,13.184-11.25,21.051c-0.199,0.833-0.35,1.699-0.449,2.6h-10.801v113.55h-44.85v50.55h-92.449V224.25h-75.951
			V393.5H89.851V405.5z"/>
		<path fill-rule="evenodd" clip-rule="evenodd" fill="#FFE48A" d="M897.8,193c-17.3,17.3-38.183,25.95-62.649,25.95
			S789.816,210.3,772.55,193c-9.866-9.867-16.899-20.9-21.1-33.1c-3.2-9.167-4.8-19-4.8-29.5c0-24.467,8.633-45.334,25.899-62.601
			c17.267-17.3,38.134-25.95,62.601-25.95S880.5,50.5,897.8,67.8c17.267,17.267,25.9,38.134,25.9,62.601
			c0,10.5-1.583,20.333-4.75,29.5C914.717,172.1,907.667,183.133,897.8,193z M763.45,566.45c11.899-3.634,21.5-6.834,28.8-9.601
			c12.8-5.133,31.617-8.05,56.45-8.75c24.833-0.699,34.649,2.217,29.45,8.75c-1.533,3.534-0.283,7.483,3.75,11.851
			c3.933,4.366,14.017,8.35,30.25,11.95c15.666,5.8,19.166,12.767,10.5,20.899c-2.268,2.533-5.65,5.834-10.15,9.9
			c-4.533,4.1-2.267,10.967,6.8,20.6c7.134,3.267,1,11.2-18.399,23.8c-19.367,12.534-41.283,18.801-65.75,18.801
			s-40.617-4.967-48.45-14.9c-7.9-9.967-19.783-19.2-35.65-27.7c-11.066-6.267-15.217-12.083-12.45-17.45
			c2.733-5.366,5.783-9.716,9.15-13.05c15.367-10.399,18.833-17.366,10.4-20.899C749.717,574.816,751.483,570.083,763.45,566.45z"/>
		<path fill-rule="evenodd" clip-rule="evenodd" fill="#85828A" d="M775.85,405.5H89.851v-12h23.299V224.25h75.951V326.6h92.449
			v-50.55h44.85V162.5H337.2c0.1-0.9,0.25-1.767,0.449-2.6c1.467-7.867,5.217-14.884,11.25-21.051
			c7.734-7.833,17.084-12.033,28.051-12.6c10.934,0.566,20.267,4.767,28,12.6c6,6.167,9.75,13.184,11.25,21.051
			c0.166,0.833,0.3,1.699,0.4,2.6H427.5v92.45h21.101V54.55h88.55v282h46.199v-77.3h192.5V405.5z"/>
		<path fill-rule="evenodd" clip-rule="evenodd" fill="#11132C" d="M1024,405.5V768H0V405.5h89.851v19.9h23.299
			c-5.866,2.633-5.866,5.833,0,9.6c10.634,7.934,10.634,15.85,0,23.75c-11.066,10.467-11.066,20,0,28.6
			c12.367,6,12.367,13.617,0,22.851c-8.399,7.3-8.399,14.6,0,21.899c10.067,4.434,10.067,8.867,0,13.301h75.951
			c5.1-4.434,5.1-8.867,0-13.301c-15.367-6.166-15.367-13.466,0-21.899c7.066-8.066,7.066-15.684,0-22.851
			c-8.634-4.3-8.634-9.149,0-14.55h92.449c-4.5,4.867-4.5,9.717,0,14.55c7.066,7.134,7.066,14.233,0,21.301h44.85v1.55
			c-6.299,6.733-6.299,14.033,0,21.899c9.067,6.101,9.067,14.351,0,24.75c-7.433,6.867-7.433,14.801,0,23.801
			c4.067,2.833,4.067,5.666,0,8.5H337.2c0.833,4.5,3.033,8.633,6.6,12.399c1.467,1.533,3.167,3,5.1,4.4
			c7.734,5.533,17.084,8.517,28.051,8.95c10.934-0.434,20.267-3.417,28-8.95c1.9-1.4,3.6-2.867,5.1-4.4
			c4.733-3.767,6.917-7.899,6.551-12.399H427.5c2.899-2.834,2.899-5.667,0-8.5c-7.5-8.434-7.5-16.367,0-23.801
			c7.5-8.233,7.5-16.483,0-24.75c-3.366-2.8-3.366-5.616,0-8.449h21.101c-3.967,2.333-3.967,5.149,0,8.449
			c13.133,7.7,13.133,15.95,0,24.75c-9.101,7.934-9.101,15.867,0,23.801c9.6,6.966,9.6,13.933,0,20.899
			c-13.067,9.634-13.067,19.8,0,30.5c15.1,11.834,15.1,23.05,0,33.65h88.55c11.666-11.2,11.666-22.417,0-33.65
			c-15.601-12.5-15.601-22.666,0-30.5c12.366-8.066,12.366-15.033,0-20.899c-11-7.934-11-15.867,0-23.801
			c10.533-8.233,10.533-16.483,0-24.75c-8.067-6.233-8.067-13.533,0-21.899c8.6-7.033,8.6-14.65,0-22.851
			c-9.167-6.633-9.167-13.833,0-21.6h46.199c-7.633,9.267-7.633,16.467,0,21.6c8.601,6.5,8.601,14.117,0,22.851
			c-4.199,3.467-4.199,6.934,0,10.399h192.5c-7.633-3.466-7.633-6.933,0-10.399c10.434-8.233,10.434-15.851,0-22.851
			c-10.699-10.6-10.699-20.133,0-28.6c11.867-8.434,11.867-16.35,0-23.75c-8.967-7.634-8.967-15.25,0-22.85v-6.65H1024z
			 M763.45,566.45c-11.967,3.633-13.733,8.366-5.3,14.2c8.433,3.533,4.967,10.5-10.4,20.899c-3.367,3.334-6.417,7.684-9.15,13.05
			c-2.767,5.367,1.384,11.184,12.45,17.45c15.867,8.5,27.75,17.733,35.65,27.7c7.833,9.934,23.983,14.9,48.45,14.9
			s46.383-6.267,65.75-18.801c19.399-12.6,25.533-20.533,18.399-23.8c-9.066-9.633-11.333-16.5-6.8-20.6
			c4.5-4.066,7.883-7.367,10.15-9.9c8.666-8.133,5.166-15.1-10.5-20.899c-16.233-3.601-26.317-7.584-30.25-11.95
			c-4.033-4.367-5.283-8.316-3.75-11.851c5.199-6.533-4.617-9.449-29.45-8.75c-24.833,0.7-43.65,3.617-56.45,8.75
			C784.95,559.616,775.35,562.816,763.45,566.45z"/>
		<path fill-rule="evenodd" clip-rule="evenodd" d="M89.851,405.5H775.85v6.65c-8.967,7.6-8.967,15.216,0,22.85
			c11.867,7.4,11.867,15.316,0,23.75c-10.699,8.467-10.699,18,0,28.6c10.434,7,10.434,14.617,0,22.851
			c-7.633,3.467-7.633,6.934,0,10.399h-192.5c-4.199-3.466-4.199-6.933,0-10.399c8.601-8.733,8.601-16.351,0-22.851
			c-7.633-5.133-7.633-12.333,0-21.6H537.15c-9.167,7.767-9.167,14.967,0,21.6c8.6,8.2,8.6,15.817,0,22.851
			c-8.067,8.366-8.067,15.666,0,21.899c10.533,8.267,10.533,16.517,0,24.75c-11,7.934-11,15.867,0,23.801
			c12.366,5.866,12.366,12.833,0,20.899c-15.601,7.834-15.601,18,0,30.5c11.666,11.233,11.666,22.45,0,33.65h-88.55
			c15.1-10.601,15.1-21.816,0-33.65c-13.067-10.7-13.067-20.866,0-30.5c9.6-6.967,9.6-13.934,0-20.899
			c-9.101-7.934-9.101-15.867,0-23.801c13.133-8.8,13.133-17.05,0-24.75c-3.967-3.3-3.967-6.116,0-8.449H427.5
			c-3.366,2.833-3.366,5.649,0,8.449c7.5,8.267,7.5,16.517,0,24.75c-7.5,7.434-7.5,15.367,0,23.801c2.899,2.833,2.899,5.666,0,8.5
			h-10.899c0.366,4.5-1.817,8.633-6.551,12.399c-1.5,1.533-3.199,3-5.1,4.4c-7.733,5.533-17.066,8.517-28,8.95
			c-10.967-0.434-20.316-3.417-28.051-8.95c-1.933-1.4-3.633-2.867-5.1-4.4c-3.566-3.767-5.767-7.899-6.6-12.399h-10.801
			c4.067-2.834,4.067-5.667,0-8.5c-7.433-9-7.433-16.934,0-23.801c9.067-10.399,9.067-18.649,0-24.75
			c-6.299-7.866-6.299-15.166,0-21.899v-1.55h-44.85c7.066-7.067,7.066-14.167,0-21.301c-4.5-4.833-4.5-9.683,0-14.55h-92.449
			c-8.634,5.4-8.634,10.25,0,14.55c7.066,7.167,7.066,14.784,0,22.851c-15.367,8.434-15.367,15.733,0,21.899
			c5.1,4.434,5.1,8.867,0,13.301h-75.951c10.067-4.434,10.067-8.867,0-13.301c-8.399-7.3-8.399-14.6,0-21.899
			c12.367-9.233,12.367-16.851,0-22.851c-11.066-8.6-11.066-18.133,0-28.6c10.634-7.9,10.634-15.816,0-23.75
			c-5.866-3.767-5.866-6.967,0-9.6H89.851V405.5z"/>
	</g>
</g>
</svg>
