<?xml version="1.0" encoding="utf-8"?>
<!-- Generator: Adobe Illustrator 16.0.0, SVG Export Plug-In . SVG Version: 6.00 Build 0)  -->
<!DOCTYPE svg PUBLIC "-//W3C//DTD SVG 1.1//EN" "http://www.w3.org/Graphics/SVG/1.1/DTD/svg11.dtd">
<svg version="1.1" id="Layer_1" xmlns="http://www.w3.org/2000/svg" xmlns:xlink="http://www.w3.org/1999/xlink" x="0px" y="0px"
	 width="104px" height="100px" viewBox="0 0 104 100" enable-background="new 0 0 104 100" xml:space="preserve">
<g>
	<path fill-rule="evenodd" clip-rule="evenodd" fill="#F4E65E" d="M16.225,64.525c0.605,1.518,1.322,2.993,2.15,4.425
		C19.86,57.583,29.802,49.099,48.2,43.5c-15.844,2.346-26.76,8.663-32.75,18.95c0.24,0.69,0.498,1.374,0.775,2.05V64.525z M95.5,50
		c0,0.033,0,0.067,0,0.1c-0.034,11.993-4.275,22.218-12.725,30.675C74.285,89.26,64.026,93.502,52,93.5
		c-12.026,0.002-22.285-4.24-30.775-12.725c-1.895-1.903-3.578-3.895-5.05-5.975H16.15c-1.88-2.666-3.405-5.474-4.575-8.425V66.4
		C9.527,61.375,8.502,55.908,8.5,50c-0.002-0.935,0.031-1.851,0.1-2.75c0.579-10.84,4.787-20.182,12.625-28.025
		C28.554,11.896,37.229,7.737,47.25,6.75l-0.025,0.025C48.781,6.595,50.373,6.503,52,6.5c7.716,0.01,14.708,1.768,20.975,5.275
		c1.05,0.598,2.1,1.248,3.15,1.95l0.05,0.025c1.467,1.012,2.917,2.128,4.35,3.35c0.016,0.019,0.033,0.036,0.05,0.05
		c0.733,0.657,1.467,1.349,2.2,2.075c6.193,6.193,10.135,13.327,11.825,21.4v0.05c0.528,2.703,0.828,5.527,0.9,8.475v0.05
		C95.5,49.467,95.5,49.733,95.5,50z M90.5,49.25c-0.003-0.153-0.012-0.303-0.025-0.45c-7.891-1.345-15.349-3.178-22.375-5.5
		c3.533-1.566,6.15-3.617,7.85-6.15c4.563-0.082,8.997,0.785,13.3,2.6c-1.705-6.338-5.046-11.997-10.025-16.975
		c-0.649-0.656-1.299-1.281-1.95-1.875c-0.018-0.015-0.034-0.032-0.05-0.05c-1.286-1.091-2.586-2.091-3.9-3l0.05,0.025
		c-0.547-0.363-1.097-0.713-1.65-1.05C71.441,19.809,70.2,22.4,68,24.6c-2.533,2.533-5.583,3.8-9.15,3.8s-6.617-1.267-9.15-3.8
		s-3.8-5.583-3.8-9.15c0-1.249,0.159-2.432,0.475-3.55c-8.267,1.118-15.467,4.743-21.6,10.875c-6.287,6.282-9.937,13.648-10.95,22.1
		C25.982,34.177,38.974,32.052,52.8,38.5c4.333,2.033,8.883,3.85,13.65,5.45c7.504,2.491,15.521,4.416,24.05,5.775
		C90.5,49.565,90.5,49.407,90.5,49.25z"/>
</g>
</svg>
