<?xml version="1.0" encoding="utf-8"?>
<!-- Generator: Adobe Illustrator 16.0.0, SVG Export Plug-In . SVG Version: 6.00 Build 0)  -->
<!DOCTYPE svg PUBLIC "-//W3C//DTD SVG 1.1//EN" "http://www.w3.org/Graphics/SVG/1.1/DTD/svg11.dtd">
<svg version="1.1" id="Selected_Items" xmlns="http://www.w3.org/2000/svg" xmlns:xlink="http://www.w3.org/1999/xlink" x="0px"
	 y="0px" width="1024px" height="768px" viewBox="0 0 1024 768" enable-background="new 0 0 1024 768" xml:space="preserve">
<g>
	<g>
		<path fill-rule="evenodd" clip-rule="evenodd" fill="#FF9900" d="M535.65,184.65C501.836,158.914,323.286,211.53,0,342.5V0h1024
			v330.95c-13.17-0.868-26.52-2.034-40.05-3.5C818.65,309.983,669.217,262.383,535.65,184.65z"/>
		<path fill-rule="evenodd" clip-rule="evenodd" fill="#B17140" d="M1007.7,385.45c-28.834-4.567-134,26.267-315.5,92.5
			c-23.467-20.134-49.25-36.45-77.351-48.95l-111.3-79.05c-71.933-50.534-61.233-105.634,32.101-165.3
			c133.566,77.732,283,125.333,448.3,142.8c13.53,1.466,26.88,2.632,40.05,3.5v56.5C1018.61,386.736,1013.177,386.07,1007.7,385.45z
			"/>
		<path fill-rule="evenodd" clip-rule="evenodd" fill="#BD7C42" d="M1024,387.45v101.175c-6.377-0.64-12.894-1.048-19.55-1.225
			c-51.367-1.334-50.283-35.317,3.25-101.95C1013.177,386.07,1018.61,386.736,1024,387.45z M692.2,477.95
			c-49.434,21.733-97.601,46.684-144.5,74.85c-24.334-11.733-48.917-23.05-73.75-33.95C609.383,488.384,656.35,458.434,614.85,429
			C642.95,441.5,668.733,457.816,692.2,477.95z"/>
		<path fill-rule="evenodd" clip-rule="evenodd" fill="#C6A76F" d="M1024,608.8V768H0V474.325
			c94.082-53.105,151.099-74.48,171.05-64.125c-69.633,31-121.35,85.366-155.15,163.1c-33.8,77.667,65.35,110.05,297.45,97.15
			c232.067-12.9,369.983-22.733,413.75-29.5C833.376,624.497,932.343,613.78,1024,608.8z"/>
		<path fill-rule="evenodd" clip-rule="evenodd" fill="#C99158" d="M0,342.5c323.286-130.97,501.836-183.586,535.65-157.85
			c-93.334,59.666-104.034,114.766-32.101,165.3L614.85,429c41.5,29.434-5.467,59.384-140.899,89.85
			c-96.733-42.466-197.7-78.683-302.9-108.649C151.099,399.845,94.082,421.22,0,474.325V342.5z M1024,608.8
			c-91.657,4.98-190.624,15.697-296.9,32.15C660.633,607.85,600.833,578.467,547.7,552.8c46.899-28.166,95.066-53.116,144.5-74.85
			c181.5-66.233,286.666-97.067,315.5-92.5c-53.533,66.633-54.617,100.616-3.25,101.95c6.656,0.177,13.173,0.585,19.55,1.225V608.8z
			"/>
		<path fill-rule="evenodd" clip-rule="evenodd" fill="#BF864A" d="M473.95,518.85c24.833,10.9,49.416,22.217,73.75,33.95
			c53.133,25.667,112.933,55.05,179.399,88.15c-43.767,6.767-181.683,16.6-413.75,29.5C81.25,683.35-17.9,650.967,15.9,573.3
			c33.8-77.733,85.517-132.1,155.15-163.1C276.25,440.167,377.217,476.384,473.95,518.85z"/>
	</g>
</g>
</svg>
