<?xml version="1.0" encoding="utf-8"?>
<!-- Generator: Adobe Illustrator 16.0.0, SVG Export Plug-In . SVG Version: 6.00 Build 0)  -->
<!DOCTYPE svg PUBLIC "-//W3C//DTD SVG 1.1//EN" "http://www.w3.org/Graphics/SVG/1.1/DTD/svg11.dtd">
<svg version="1.1" id="Layer_1" xmlns="http://www.w3.org/2000/svg" xmlns:xlink="http://www.w3.org/1999/xlink" x="0px" y="0px"
	 width="104px" height="100px" viewBox="0 0 104 100" enable-background="new 0 0 104 100" xml:space="preserve">
<g>
	<path fill-rule="evenodd" clip-rule="evenodd" fill="#45A452" d="M90.5,50c-0.002-10.64-3.76-19.715-11.275-27.225
		C71.715,15.26,62.64,11.502,52,11.5c-10.64,0.002-19.715,3.76-27.225,11.275C17.26,30.285,13.502,39.36,13.5,50
		c-0.007,6.94,1.584,13.207,4.775,18.8c0.241,0.421,0.491,0.838,0.75,1.25H42.6V64.9c-6.4,0.767-12.633-0.267-18.7-3.1
		c7.466-3.367,12.066-6.15,13.8-8.35c-4.833-0.6-7.967-1.784-9.4-3.55c8.267-4.367,13.333-7.45,15.2-9.25
		c-4.267,0.7-7.55,0.283-9.85-1.25c5.6-4.333,10.133-8.383,13.6-12.15c-1.333-0.1-2.583-0.5-3.75-1.2c4.2-2.3,7.034-5.017,8.5-8.15
		c2.967,7.2,9.233,13.45,18.8,18.75c-3.533,1-6.817,1.2-9.85,0.6c1.567,4.067,6.317,7.417,14.25,10.05
		c-3.033,3.1-6.917,4.383-11.65,3.85c3.566,3.733,8.7,6.483,15.4,8.25c-6.767,4-12.617,5.833-17.55,5.5v5.15h23.575
		c0.259-0.413,0.509-0.829,0.75-1.25C88.916,63.207,90.507,56.94,90.5,50z M82.775,19.225C91.26,27.715,95.502,37.974,95.5,50
		c-0.007,7.86-1.815,14.96-5.425,21.3c-1.938,3.388-4.372,6.547-7.3,9.475C74.285,89.26,64.027,93.502,52,93.5
		c-12.026,0.002-22.285-4.24-30.775-12.725c-2.928-2.928-5.361-6.087-7.3-9.475C10.316,64.96,8.507,57.86,8.5,50
		c-0.002-12.026,4.24-22.285,12.725-30.775C29.715,10.74,39.974,6.498,52,6.5C64.027,6.498,74.285,10.74,82.775,19.225z"/>
</g>
</svg>
