<?xml version="1.0" encoding="utf-8"?>
<!-- Generator: Adobe Illustrator 16.0.0, SVG Export Plug-In . SVG Version: 6.00 Build 0)  -->
<!DOCTYPE svg PUBLIC "-//W3C//DTD SVG 1.1//EN" "http://www.w3.org/Graphics/SVG/1.1/DTD/svg11.dtd">
<svg version="1.1" id="Selected_Items" xmlns="http://www.w3.org/2000/svg" xmlns:xlink="http://www.w3.org/1999/xlink" x="0px"
	 y="0px" width="1024px" height="768px" viewBox="0 0 1024 768" enable-background="new 0 0 1024 768" xml:space="preserve">
<g>
	<g>
		<linearGradient id="SVGID_1_" gradientUnits="userSpaceOnUse" x1="511.9624" y1="46.5127" x2="511.9624" y2="350.7877">
			<stop  offset="0" style="stop-color:#38CCB7"/>
			<stop  offset="1" style="stop-color:#00CCFF"/>
		</linearGradient>
		<path fill-rule="evenodd" clip-rule="evenodd" fill="url(#SVGID_1_)" d="M834.1,219.85c6.191,1.1,12.608,1.65,19.25,1.65
			c28.5,0,52.834-10.1,73-30.3c20.2-20.167,30.301-44.5,30.301-73c0-28.534-10.101-52.9-30.301-73.1
			c-20.166-20.133-44.5-30.2-73-30.2c-28.533,0-52.899,10.067-73.1,30.2C760.083,65.3,750,89.667,750,118.2
			c0,28.5,10.083,52.833,30.25,73c12.74,12.74,27.141,21.465,43.2,26.175c-2.01,2.492-4.71,5.851-8.101,10.075
			c-5.366,6.733-8.933,10.716-10.699,11.95c-0.9,0.633,0.25,0.934,3.449,0.9c1.601-0.033,3.283-0.117,5.051-0.25l-1,2.15
			c-0.5,1.4-0.2,2.15,0.899,2.25c1.767,0.133,3.583,0.133,5.45,0c-2.6,4.333-6.333,9.267-11.2,14.8
			c-2.399,2.767-5.717,5.617-9.95,8.55c-0.533,0.333-0.982,0.667-1.35,1l-1.05-1.3c-7.067-6.367-13.217-13.567-18.45-21.6
			c-3.5-5.3-6.316-10.5-8.45-15.6l0.05,0.05l-0.699-1.5l-0.301,0.5c-0.199-0.233-0.333-0.4-0.399-0.5l-0.601,1.5l0.051-0.05
			c-2.233,5.2-5.067,10.4-8.5,15.6c-5.268,8.1-11.4,15.3-18.4,21.6l-3.85,4.65v0.05c-1.101-1.4-2.167-2.817-3.2-4.25l-2.851-4.3
			l1.75,0.1c1.334,0.033,2.551,0,3.65-0.1s1.417-0.85,0.95-2.25l-1.05-2.15l5.1,0.25c3.2,0.033,4.35-0.267,3.45-0.9
			c-1.767-1.233-5.333-5.217-10.7-11.95c-8.133-10.167-12.267-15.333-12.4-15.5c-0.033,0.033-4.166,5.2-12.399,15.5
			c-5.367,6.733-8.95,10.717-10.75,11.95c-0.867,0.633,0.3,0.933,3.5,0.9c1.6-0.033,3.283-0.117,5.05-0.25l-1,2.15
			c-0.5,1.4-0.2,2.15,0.9,2.25c1.732,0.133,3.55,0.133,5.449,0c-2.6,4.333-6.333,9.267-11.199,14.8
			c-0.733,0.833-1.533,1.683-2.4,2.55c-1.233-2.433-2.35-4.85-3.35-7.25l-0.95-2.05l-0.4,0.65c-0.3-0.3-0.5-0.517-0.6-0.65
			l-0.9,2.15l0.05-0.1c-1.1,2.567-2.3,5.15-3.6,7.75c-3.467-2.9-7.1-6.3-10.9-10.2l-7.199-7.9c5.033,1.233,7.35,0.483,6.949-2.25
			c-0.1-0.833-0.466-1.816-1.1-2.95l-0.95-1.45c6.533,1.833,9.033,1.333,7.5-1.5l-4.25-4.8c-3.133-2.467-6.8-6.233-11-11.3
			l-5.3-6.85c5,2,7.366,1.934,7.1-0.2l-1.899-3.85c5.733,1.867,7.883,1.45,6.45-1.25l-3.851-4.65
			c-7.033-6.367-13.184-13.567-18.45-21.6c-3.466-5.3-6.267-10.517-8.399-15.65l0.05,0.05l-0.7-1.45l-0.3,0.45
			c-0.2-0.2-0.333-0.35-0.4-0.45l-0.649,1.45l0.05-0.05c-2.2,5.2-5.017,10.417-8.45,15.65c-5.267,8.067-11.399,15.267-18.399,21.6
			L609.55,227c-1.467,2.7,0.667,3.117,6.4,1.25l-1.9,3.85c-0.267,2.133,2.101,2.2,7.101,0.2c-1.434,2.034-3.2,4.317-5.301,6.85
			c-4.199,5.067-7.866,8.833-11,11.3l-4.199,4.8c-1.534,2.833,0.949,3.333,7.449,1.5c-0.267,0.4-0.566,0.883-0.899,1.45
			c-0.634,1.133-1.017,2.117-1.15,2.95c-0.366,2.733,1.95,3.483,6.95,2.25c-1.634,2-3.667,4.283-6.1,6.85
			c-0.334-0.3-0.717-0.583-1.15-0.85c-4.233-2.933-7.55-5.783-9.95-8.55c-3.033-3.434-5.816-6.934-8.35-10.5l-2.851-4.3l1.75,0.1
			c1.367,0.033,2.601,0,3.7-0.1c1.101-0.1,1.4-0.85,0.9-2.25l-1.05-2.15l5.1,0.25c3.2,0.033,4.35-0.267,3.45-0.9
			c-1.767-1.233-5.334-5.217-10.7-11.95c-8.1-10.167-12.233-15.333-12.4-15.5c-0.033,0.034-4.166,5.2-12.399,15.5
			c-5.367,6.733-8.95,10.717-10.75,11.95c-0.867,0.633,0.3,0.933,3.5,0.9c1.6-0.033,3.283-0.117,5.05-0.25l-1,2.15
			c-0.5,1.4-0.2,2.15,0.9,2.25c1.733,0.133,3.55,0.133,5.449,0c-2.6,4.333-6.333,9.267-11.199,14.8
			c-2.434,2.767-5.767,5.617-10,8.55c-2.634,1.8-3.551,2.983-2.75,3.55c0.866,0.6,3.183,0.633,6.949,0.1
			c3.5-0.5,5.25-0.617,5.25-0.35c0,0.367-0.533,1.25-1.6,2.65c-0.7,1.333-0.333,2.2,1.1,2.6c1.534,0.433,3.301,0.566,5.301,0.4
			c0.133,0,0.283,0,0.449,0c-1.8,2.167-3.767,4.6-5.899,7.3c-7.8,9.767-13,15.567-15.601,17.4c-0.533,0.4-0.55,0.7-0.05,0.9
			c-0.2,0.066-0.366,0.15-0.5,0.25c-2-2.034-4.85-5.35-8.55-9.95c-8.1-10.167-12.217-15.35-12.35-15.55
			c-0.034,0.033-4.184,5.216-12.45,15.55c-5.367,6.7-8.934,10.683-10.7,11.95c-0.9,0.633,0.25,0.933,3.45,0.9
			c1.6-0.033,3.3-0.117,5.1-0.25l-1.05,2.1c-0.5,1.433-0.184,2.183,0.95,2.25c1.733,0.133,3.533,0.133,5.4,0
			c-2.6,4.333-6.333,9.283-11.2,14.85c-1.867,2.167-4.3,4.383-7.3,6.65c-3.767-2.633-6.717-5.067-8.85-7.3
			c-3.8-4-6.65-7.816-8.55-11.45l-1.65-4.2l2.6,0.4c1.967,0.167,3.7,0.033,5.2-0.4c1.466-0.433,1.85-1.3,1.15-2.6
			c-1.066-1.433-1.6-2.316-1.6-2.65c0-0.267,1.733-0.15,5.2,0.35c3.767,0.533,6.1,0.5,7-0.1c0.767-0.567-0.167-1.767-2.8-3.6
			c-4.233-2.9-7.55-5.733-9.95-8.5c-3.034-3.467-5.817-6.967-8.35-10.5l-2.85-4.35l1.75,0.1c1.367,0.033,2.6,0,3.7-0.1
			c1.1-0.066,1.4-0.816,0.9-2.25l-1-2.1l5.05,0.25c3.2,0.033,4.35-0.267,3.45-0.9c-1.767-1.233-5.333-5.216-10.7-11.95
			c-8.1-10.167-12.233-15.333-12.4-15.5c-0.033,0.033-4.167,5.2-12.4,15.5c-5.367,6.733-8.95,10.717-10.75,11.95
			c-0.867,0.633,0.3,0.934,3.5,0.9c1.6-0.034,3.283-0.117,5.05-0.25l-1,2.1c-0.5,1.434-0.2,2.184,0.9,2.25
			c1.733,0.167,3.55,0.167,5.45,0c-2.6,4.333-6.333,9.284-11.2,14.85c-2.434,2.767-5.767,5.6-10,8.5
			c-2.634,1.833-3.55,3.033-2.75,3.6c0.866,0.6,3.2,0.633,7,0.1c3.466-0.5,5.2-0.617,5.2-0.35c0,0.333-0.533,1.217-1.6,2.65
			c-0.7,1.3-0.333,2.167,1.1,2.6c1.534,0.433,3.3,0.567,5.3,0.4c1-0.066,1.833-0.2,2.5-0.4c-0.167,1-0.717,2.4-1.65,4.2
			c-1.866,3.633-4.683,7.45-8.45,11.45c-3.3,3.4-8.45,7.217-15.45,11.45c-2.667,1.633-4.633,2.95-5.9,3.95
			c-0.767-0.733-1.517-1.483-2.25-2.25l-7.2-7.9c5.067,1.233,7.4,0.5,7-2.2c-0.1-0.867-0.483-1.867-1.15-3l-0.95-1.45
			c6.533,1.833,9.05,1.333,7.55-1.5l-4.3-4.8c-3.134-2.434-6.784-6.2-10.95-11.3l-5.35-6.85c5,2,7.383,1.934,7.15-0.2l-1.95-3.85
			c5.733,1.867,7.883,1.45,6.45-1.25l-3.8-4.65c-7.033-6.367-13.184-13.567-18.45-21.6c-3.5-5.3-6.316-10.517-8.45-15.65l-0.65-1.4
			l-0.3,0.45c-0.167-0.2-0.3-0.35-0.4-0.45l-0.6,1.5l0.05-0.1c-2.2,5.2-5.034,10.417-8.5,15.65c-5.267,8.067-11.4,15.267-18.4,21.6
			l-3.85,4.65c-1.434,2.7,0.7,3.117,6.4,1.25l-1.9,3.85c-0.267,2.133,2.116,2.2,7.15,0.2c-1.467,2.034-3.25,4.317-5.35,6.85
			c-4.2,5.1-7.867,8.867-11,11.3l-4.15,4.75c-1.267-1.2-2.55-2.467-3.85-3.8l-7.2-7.9c5.067,1.233,7.4,0.5,7-2.2
			c-0.1-0.867-0.466-1.867-1.1-3l-0.95-1.45c6.533,1.867,9.033,1.367,7.5-1.5l-4.25-4.8c-3.133-2.433-6.8-6.2-11-11.3l-5.35-6.8
			c5.034,1.966,7.417,1.883,7.15-0.25l-1.9-3.8c5.733,1.833,7.883,1.4,6.45-1.3l-3.85-4.65c-7.033-6.367-13.184-13.567-18.45-21.6
			c-3.5-5.3-6.316-10.5-8.45-15.6l0.1,0.05l-0.7-1.5l-0.35,0.45c-0.167-0.2-0.283-0.35-0.35-0.45l-0.65,1.5l0.05-0.05
			c-2.2,5.167-5.034,10.367-8.5,15.6c-5.2,8-11.267,15.167-18.2,21.5c-2.133-2.6-3.833-5.1-5.1-7.5l-1.65-4.25l2.6,0.4
			c1.966,0.167,3.7,0.033,5.2-0.4c1.467-0.4,1.833-1.267,1.1-2.6c-1.066-1.433-1.6-2.317-1.6-2.65c0-0.267,1.75-0.15,5.25,0.35
			c3.767,0.533,6.1,0.5,7-0.1c0.767-0.567-0.167-1.75-2.8-3.55c-4.233-2.933-7.55-5.783-9.95-8.55
			c-3.033-3.467-5.816-6.967-8.35-10.5l-2.85-4.35l1.75,0.15c1.367,0.034,2.6-0.017,3.7-0.15c1.1-0.066,1.4-0.8,0.9-2.2l-1.05-2.15
			l5.1,0.25c3.2,0.034,4.35-0.267,3.45-0.9c-1.767-1.233-5.333-5.217-10.7-11.95c-8.1-10.167-12.233-15.333-12.4-15.5
			c-0.034,0.033-4.167,5.2-12.4,15.5c-5.367,6.733-8.95,10.716-10.75,11.95c-0.867,0.633,0.3,0.934,3.5,0.9
			c1.6-0.033,3.283-0.117,5.05-0.25l-1,2.15c-0.5,1.4-0.2,2.133,0.9,2.2c1.733,0.167,3.55,0.167,5.45,0
			c-2.6,4.367-6.333,9.317-11.2,14.85c-2.133,2.467-4.966,4.967-8.5,7.5c-6-5.8-11.316-12.217-15.95-19.25
			c-3.467-5.3-6.267-10.5-8.4-15.6l0.05,0.05l-0.7-1.5l-0.35,0.5c-0.167-0.233-0.283-0.4-0.35-0.5l-0.65,1.5l0.05-0.05
			c-2.2,5.167-5.017,10.367-8.45,15.6c-5.267,8.067-11.4,15.267-18.4,21.6l-2.45,3c-6.2-7.767-9.35-11.717-9.45-11.85
			c-0.033,0.033-3.3,4.133-9.8,12.3c-1.9-1.533-3.883-3.25-5.95-5.15c6.267,1.5,9,0.217,8.2-3.85c-0.233-1.267-0.816-2.733-1.75-4.4
			l-1.25-2.15c7.333,0.333,10.35-1.183,9.05-4.55c-0.4-1-1.217-2.15-2.45-3.45l-1.7-1.6c-5.067-3.566-10.517-8.333-16.35-14.3
			l-7.2-7.9c5.067,1.233,7.4,0.5,7-2.2c-0.1-0.867-0.467-1.867-1.1-3l-1-1.45c6.567,1.867,9.083,1.367,7.55-1.5l-4.25-4.8
			c-3.133-2.433-6.8-6.2-11-11.3l-5.35-6.8c5.033,1.967,7.417,1.883,7.15-0.25l-1.9-3.85c5.7,1.867,7.85,1.45,6.45-1.25l-3.85-4.65
			c-7.033-6.367-13.184-13.566-18.45-21.6c-3.5-5.3-6.316-10.5-8.45-15.6l0.05,0.05L94.6,127l-0.35,0.45
			c-0.167-0.2-0.283-0.35-0.35-0.45l-0.65,1.5l0.05-0.05c-2.2,5.167-5.033,10.367-8.5,15.6c-5.267,8.067-11.4,15.267-18.4,21.6
			l-3.8,4.65c-1.467,2.7,0.667,3.117,6.4,1.25l-1.95,3.85c-0.233,2.133,2.15,2.217,7.15,0.25c-1.467,2-3.25,4.267-5.35,6.8
			c-4.167,5.1-7.817,8.867-10.95,11.3l-4.25,4.8c-1.5,2.867,1,3.367,7.5,1.5c-0.3,0.4-0.6,0.883-0.9,1.45
			c-0.667,1.133-1.067,2.133-1.2,3c-0.367,2.7,1.967,3.433,7,2.2c-1.9,2.3-4.3,4.933-7.2,7.9c-5.833,5.967-11.267,10.733-16.3,14.3
			c-0.533,0.434-1.117,0.967-1.75,1.6c-0.767,0.833-1.367,1.6-1.8,2.3c-6.433-6.033-12.1-12.783-17-20.25
			c-3.5-5.3-6.317-10.517-8.45-15.65l0.05,0.05l-0.65-1.5l-0.35,0.5c-0.167-0.2-0.283-0.367-0.35-0.5l-0.65,1.5l0.05-0.05
			c-2.2,5.2-5.033,10.417-8.5,15.65c-1.033,1.583-2.1,3.133-3.2,4.65V0h1024c0.004,80.987,0.004,161.97,0,242.95
			c0.001,0.16,0.001,0.318,0,0.475c0.001,0.121,0.001,0.246,0,0.375l0.024,1.1l-0.024-0.025c-1.795-2.327-3.512-4.735-5.15-7.225
			c-3.467-5.3-6.267-10.5-8.399-15.6l0.05,0.05l-0.7-1.5l-0.3,0.45c-0.2-0.2-0.333-0.35-0.4-0.45l-0.649,1.5l0.05-0.05
			c-2.2,5.167-5.017,10.367-8.45,15.6c-5.267,8.067-11.4,15.267-18.4,21.6l-3.85,4.65c-1.467,2.7,0.667,3.117,6.4,1.25l-1.9,3.85
			c-0.267,2.133,2.117,2.217,7.15,0.25c-1.467,2-3.25,4.267-5.351,6.8c-4.2,5.1-7.866,8.867-11,11.3l-4.2,4.8
			c-1.533,2.867,0.95,3.367,7.45,1.5c-0.267,0.4-0.566,0.883-0.899,1.45c-0.634,1.133-1.018,2.133-1.15,3
			c-0.367,2.7,1.95,3.433,6.95,2.2c-1.867,2.3-4.267,4.934-7.2,7.9c-5.833,5.966-11.267,10.733-16.3,14.3
			c-0.533,0.433-1.101,0.967-1.7,1.6c-0.066,0.066-0.133,0.15-0.2,0.25c-3.833-2.6-6.816-5.033-8.95-7.3
			c-3.8-3.966-6.633-7.767-8.5-11.4l-1.649-4.2l2.55,0.35c2,0.2,3.733,0.083,5.2-0.35c1.467-0.434,1.85-1.3,1.149-2.6
			c-1.066-1.434-1.6-2.333-1.6-2.7c0-0.233,1.733-0.1,5.2,0.4c3.767,0.534,6.1,0.5,7-0.1c0.8-0.6-0.117-1.8-2.75-3.6
			c-4.233-2.9-7.567-5.75-10-8.55c-3-3.433-5.767-6.933-8.3-10.5l-2.9-4.3l1.75,0.1c1.367,0.033,2.6,0,3.7-0.1
			c1.1-0.067,1.399-0.817,0.899-2.25l-1-2.15l5.051,0.3c3.199,0.033,4.366-0.267,3.5-0.9c-1.801-1.267-5.384-5.25-10.75-11.95
			C927.3,242.383,923.184,237.2,923.05,237c-0.033,0.033-4.183,5.217-12.45,15.55c-5.366,6.7-8.933,10.684-10.699,11.95
			c-0.9,0.633,0.25,0.933,3.449,0.9c1.601-0.033,3.283-0.133,5.051-0.3l-1,2.15c-0.5,1.433-0.2,2.183,0.899,2.25
			c1.767,0.133,3.583,0.133,5.45,0c-2.6,4.333-6.333,9.267-11.2,14.8c-2.399,2.8-5.717,5.65-9.95,8.55c-2.633,1.8-3.566,3-2.8,3.6
			c0.9,0.6,3.233,0.633,7,0.1c3.467-0.5,5.2-0.633,5.2-0.4c0,0.367-0.533,1.267-1.6,2.7c-0.7,1.3-0.317,2.167,1.149,2.6
			c1.533,0.433,3.283,0.55,5.25,0.35c1-0.066,1.851-0.183,2.55-0.35c-0.199,1-0.767,2.4-1.699,4.2
			c-1.867,3.633-4.684,7.434-8.45,11.4c-1.067,1.1-2.317,2.267-3.75,3.5c-5.267-5.333-9.967-11.167-14.101-17.5
			c-3.5-5.3-6.316-10.517-8.449-15.65l0.05,0.05l-0.7-1.5l-0.3,0.5c-0.2-0.2-0.333-0.367-0.4-0.5l-0.6,1.5l0.05-0.05
			c-1.967,4.633-4.434,9.3-7.4,14c-5.3-3.433-9.3-6.566-12-9.4c-3.8-3.967-6.633-7.767-8.5-11.4l-1.649-4.25l2.55,0.4
			c2,0.167,3.733,0.033,5.2-0.4c1.467-0.4,1.85-1.267,1.149-2.6c-1.066-1.4-1.6-2.283-1.6-2.65c0-0.267,1.733-0.15,5.2,0.35
			c3.767,0.533,6.1,0.5,7-0.1c0.8-0.567-0.117-1.75-2.75-3.55c-4.233-2.933-7.567-5.783-10-8.55c-3.033-3.433-5.8-6.933-8.3-10.5
			l-2.9-4.3l1.75,0.1c1.367,0.034,2.6,0,3.7-0.1c1.1-0.1,1.399-0.85,0.899-2.25l-1-2.15l5.051,0.25
			c3.199,0.034,4.35-0.267,3.449-0.9c-1.767-1.233-5.333-5.217-10.699-11.95C837.799,224.499,835.782,221.966,834.1,219.85z
			 M706.2,296.55c-0.2-0.3-0.384-0.566-0.55-0.8c0.3-0.033,0.55-0.1,0.75-0.2C706.367,295.85,706.3,296.183,706.2,296.55z
			 M958,336.65c-0.033-0.033,0.717-0.1,2.25-0.2c-0.3,0.8-0.533,1.533-0.7,2.2c-0.033,0.133-0.05,0.25-0.05,0.35
			C958.633,337.6,958.133,336.817,958,336.65z M39.75,243.9l-1.9-3.85c5.7,1.867,7.85,1.434,6.45-1.3l-0.25-0.25
			c1,0.067,2.133,0.067,3.4,0c-0.4,0.567-0.833,1.283-1.3,2.15c-0.933,1.667-1.517,3.133-1.75,4.4c-0.8,4.067,1.934,5.35,8.2,3.85
			c-3.4,3.133-6.583,5.75-9.55,7.85c-1.6-1.7-3.3-3.633-5.1-5.8l-5.35-6.85C37.633,246.1,40.017,246.033,39.75,243.9z M46.25,268.7
			c-0.067,0.1-0.133,0.216-0.2,0.35l-0.4-0.5C45.85,268.617,46.05,268.667,46.25,268.7z M542.6,331.25
			c-2.199-1.767-4.05-3.5-5.55-5.2c-3-3.466-5.767-6.983-8.3-10.55l-2.9-4.3l1.801,0.1c0.3,0,0.6,0,0.899,0
			c0.634,0.8,2.733,1.3,6.3,1.5c3.7,0.167,5.517,0.284,5.45,0.35c-0.066,0.233-0.717,1.25-1.95,3.05
			c-0.966,1.8-0.916,2.816,0.15,3.05c1,0.267,3.733-0.283,8.2-1.65c4.033-1.167,5.983-1.667,5.85-1.5
			c-0.833,1.133-1.517,2.117-2.05,2.95c-1.033,1.567-1.384,2.45-1.05,2.65c0.2,0.133,0.45,0.267,0.75,0.4
			C547.934,325,545.4,328.05,542.6,331.25z M614.7,343.4c-1-0.733-1.967-1.433-2.9-2.1c1.267-0.367,2.65-0.8,4.15-1.3l-0.851,1.9
			C614.934,342.433,614.8,342.933,614.7,343.4z M603.05,333.55c-0.166-0.167-0.35-0.35-0.55-0.55c0.366-0.133,0.733-0.25,1.1-0.35
			L603.05,333.55z M482.8,366.85c-0.015-0.035-0.031-0.068-0.05-0.1c-2.467-4.3-4.6-8.567-6.4-12.8
			c2.767,0.433,4.667,0.283,5.7-0.45c0.3-0.233-0.066-1.117-1.1-2.65c-1.167-1.7-1.833-2.684-2-2.95c-0.1-0.167,1.833,0.333,5.8,1.5
			c4.467,1.333,7.2,1.883,8.2,1.65c1.066-0.267,1.133-1.283,0.2-3.05c-1.233-1.8-1.9-2.817-2-3.05c-0.033-0.067,1.8-0.184,5.5-0.35
			c3.467-0.233,5.567-0.717,6.3-1.45c-0.2,1-0.75,2.4-1.65,4.2c-1.9,3.633-4.733,7.433-8.5,11.4
			C490.434,361.25,487.1,363.95,482.8,366.85z M472.7,353.15c-0.034,0.1-0.067,0.184-0.1,0.25l-0.15-0.3L472.7,353.15z
			 M231.9,257.85c-0.167,1-0.716,2.417-1.65,4.25c-1.833,3.566-4.617,7.333-8.35,11.3c-1.633-1.767-3.383-3.767-5.25-6l-5.35-6.8
			c5.034,1.967,7.417,1.883,7.15-0.25l-1.9-3.8c3.567,1.133,5.75,1.4,6.55,0.8c0.233,0.2,0.566,0.367,1,0.5
			c1.533,0.433,3.3,0.566,5.3,0.4C230.4,258.183,231.233,258.05,231.9,257.85z M163.95,257.3c-0.034-0.033-0.05-0.083-0.05-0.15
			c0.633-0.167,1.35-0.367,2.15-0.6l-1,2.05C164.683,258.167,164.317,257.733,163.95,257.3z M169.1,263.5
			c-0.467-0.567-0.95-1.133-1.45-1.7c1-0.233,2.2-0.633,3.6-1.2C170.583,261.5,169.867,262.467,169.1,263.5z M220.9,252.75
			c2.467-0.333,3.7-0.383,3.7-0.15c0,0.333-0.534,1.217-1.6,2.65L220.9,252.75z M228.95,301.9c-0.134-0.167-0.267-0.316-0.4-0.45
			c0.233-0.067,0.483-0.133,0.75-0.2C229.2,301.45,229.083,301.667,228.95,301.9z M741.8,273.45l-1.899,3.85c0,0.133,0,0.267,0,0.4
			c-0.934-1.067-1.834-2.117-2.7-3.15C738.333,274.45,739.867,274.083,741.8,273.45z M740.9,278.9c1.1,0.233,3.149-0.233,6.149-1.4
			c-0.967,1.3-2.05,2.717-3.25,4.25C742.733,280.75,741.767,279.8,740.9,278.9z M787.1,277.5c5,2,7.384,1.933,7.15-0.2l-1.95-3.85
			c5.733,1.833,7.884,1.4,6.45-1.3l-0.25-0.35c0.867-0.033,1.883-0.15,3.05-0.35c3.467-0.5,5.2-0.617,5.2-0.35
			c0,0.367-0.533,1.25-1.6,2.65c-0.7,1.333-0.317,2.2,1.149,2.6c1.533,0.433,3.283,0.566,5.25,0.4c1-0.067,1.851-0.2,2.55-0.4
			c-0.199,1-0.767,2.417-1.699,4.25c-1.867,3.633-4.684,7.433-8.45,11.4c-0.667,0.7-1.417,1.433-2.25,2.2
			c-2.733-2.434-5.833-5.733-9.3-9.9L787.1,277.5z M335.6,325c1.2-0.133,2.767-0.467,4.7-1c-0.3,0.4-0.616,0.883-0.95,1.45
			c-0.4,0.733-0.717,1.417-0.95,2.05C337.467,326.733,336.533,325.9,335.6,325z M415.65,344.6c3.7,0.167,5.534,0.283,5.5,0.35
			c-0.1,0.233-0.767,1.25-2,3.05c-0.033,0.067-0.066,0.133-0.1,0.2c-1.366-1.167-2.75-2.383-4.15-3.65
			C415.133,344.583,415.383,344.6,415.65,344.6z M422.3,350.75c1.3-0.267,3.05-0.717,5.25-1.35c4-1.167,5.934-1.667,5.8-1.5
			c-0.833,1.133-1.517,2.117-2.05,2.95c-1.033,1.533-1.383,2.417-1.05,2.65c1.033,0.733,2.95,0.883,5.75,0.45
			c1.4-0.2,2.684-0.483,3.85-0.85c-0.667,1.6-1.934,3.65-3.8,6.15c-3.633,4.967-8.25,9.667-13.85,14.1c-1.1,0.833-2.3,1.733-3.6,2.7
			c-1.167-1-2.367-2.066-3.6-3.2c6.267,1.5,9,0.217,8.2-3.85c-0.233-1.267-0.817-2.733-1.75-4.4l-1.3-2.15
			c7.367,0.333,10.4-1.184,9.1-4.55c-0.4-1.033-1.217-2.183-2.45-3.45l-1.75-1.6C424.15,352.217,423.233,351.517,422.3,350.75z
			 M591.7,284c-0.367-0.6-0.717-1.2-1.05-1.8l-1.65-4.25l2.6,0.4c1.967,0.167,3.7,0.033,5.2-0.4c1.467-0.4,1.834-1.267,1.101-2.6
			c-1.067-1.4-1.601-2.283-1.601-2.65c0-0.267,1.75-0.15,5.25,0.35c0.834,0.133,1.601,0.233,2.3,0.3
			C599.583,277.583,595.533,281.133,591.7,284z M533.2,306.95c-0.533,0.333-1.017,0.65-1.45,0.95l-0.55-1.05L533.2,306.95z"/>
		<path fill-rule="evenodd" clip-rule="evenodd" fill="#FFEB58" d="M823.45,217.375c-16.06-4.71-30.46-13.435-43.2-26.175
			c-20.167-20.167-30.25-44.5-30.25-73c0-28.534,10.083-52.9,30.25-73.1c20.2-20.133,44.566-30.2,73.1-30.2
			c28.5,0,52.834,10.067,73,30.2c20.2,20.2,30.301,44.566,30.301,73.1c0,28.5-10.101,52.833-30.301,73
			c-20.166,20.2-44.5,30.3-73,30.3c-6.642,0-13.059-0.55-19.25-1.65c-4.105-5.148-6.205-7.782-6.3-7.9
			C827.78,211.97,826.33,213.778,823.45,217.375z"/>
		<path fill-rule="evenodd" clip-rule="evenodd" fill="#6AFF7E" d="M1023.975,244.9c0.027,0.037,0.053,0.07,0.075,0.1v139l-0.1-0.1
			l-2.5-3.05c-10.267-9.267-19.233-19.767-26.9-31.5c-5.1-7.733-9.183-15.333-12.25-22.8l-1-2.05l-0.399,0.65
			c-0.301-0.3-0.5-0.517-0.601-0.65l-0.899,2.15l0.05-0.1c-3.2,7.567-7.3,15.167-12.3,22.8c-1.301,1.967-2.634,3.917-4,5.85
			l-4.25-5.05c-10.233-9.3-19.184-19.816-26.851-31.55c-5.1-7.7-9.183-15.283-12.25-22.75l-1-2.1l-0.399,0.7
			c-0.301-0.333-0.5-0.567-0.601-0.7l-0.899,2.2l0.05-0.1c-3.2,7.566-7.3,15.15-12.3,22.75c-7.7,11.767-16.65,22.283-26.851,31.55
			l-5.6,6.7c-2.134,3.933,0.983,4.55,9.35,1.85l-2.85,5.6c-0.333,3.133,3.149,3.25,10.45,0.35c-2.134,2.934-4.717,6.25-7.75,9.95
			c-6.134,7.4-11.467,12.9-16,16.5l-6.15,7c-2.233,4.101,1.4,4.801,10.9,2.101c-0.434,0.6-0.884,1.316-1.351,2.149
			c-0.933,1.634-1.5,3.067-1.7,4.301c-0.533,3.966,2.851,5.066,10.15,3.3c-2.733,3.333-6.233,7.166-10.5,11.5
			c-0.167,0.2-0.35,0.399-0.55,0.6c-7.667,7.8-14.851,14.15-21.55,19.05c-0.567-0.399-1.101-0.8-1.601-1.199
			c-2.3-1.9-4.267-3.7-5.899-5.4c-4.101-4.3-7.434-8.45-10-12.45c-0.9-1.399-1.7-2.8-2.4-4.2l-2.4-6.1l3.75,0.5
			c2.867,0.267,5.384,0.1,7.551-0.5c2.133-0.667,2.683-1.934,1.649-3.8c-1.566-2.101-2.35-3.4-2.35-3.9
			c0-0.399,2.55-0.217,7.649,0.55c0.834,0.101,1.65,0.2,2.45,0.301c4.033,0.433,6.601,0.283,7.7-0.45
			c1.133-0.834-0.217-2.584-4.05-5.25c-1.267-0.9-2.483-1.767-3.65-2.601c-4.467-3.366-8.083-6.649-10.85-9.85
			c-4.4-5-8.45-10.1-12.15-15.3l-4.149-6.3l2.55,0.2c1.967,0.033,3.75-0.033,5.35-0.2c1.601-0.1,2.033-1.183,1.3-3.25l-1.5-3.05
			l7.45,0.35c4.634,0.033,6.3-0.417,5-1.35c-2.566-1.8-7.75-7.583-15.55-17.35c-11.867-14.833-17.883-22.383-18.05-22.65
			c-0.067,0.033-6.117,7.583-18.15,22.65c-7.8,9.767-13,15.55-15.6,17.35c-1.3,0.933,0.383,1.383,5.05,1.35
			c2.3-0.067,4.75-0.184,7.35-0.35l-1.399,3.05c-0.767,2.067-0.351,3.15,1.25,3.25c2.566,0.233,5.217,0.233,7.95,0
			c-3.768,6.333-9.2,13.533-16.301,21.6c-3.533,4.066-8.399,8.217-14.6,12.45c-3.8,2.666-5.133,4.416-4,5.25
			c1.3,0.866,4.7,0.916,10.2,0.149c5.066-0.767,7.6-0.949,7.6-0.55c0,0.5-0.767,1.8-2.3,3.9c-1.066,1.866-0.533,3.133,1.6,3.8
			c2.233,0.6,4.783,0.767,7.65,0.5c1.467-0.1,2.7-0.267,3.7-0.5c-0.233,1.434-1.033,3.467-2.4,6.1c-0.7,1.4-1.5,2.801-2.399,4.2
			c-1.134,1.767-2.417,3.566-3.851,5.4c-0.6-1.467-1.767-3.101-3.5-4.9l-2.45-2.35c-7.366-5.167-15.3-12.117-23.8-20.851
			l-10.5-11.449c7.367,1.733,10.767,0.633,10.2-3.301c-0.167-1.266-0.717-2.716-1.65-4.35l-1.399-2.1c9.533,2.7,13.2,1.983,11-2.15
			l-6.25-7c-4.567-3.567-9.9-9.05-16-16.45l-7.8-10c7.333,2.934,10.8,2.833,10.399-0.3l-2.75-5.6c8.333,2.7,11.45,2.067,9.351-1.9
			l-5.601-6.7c-10.233-9.267-19.183-19.767-26.85-31.5c0.1-0.367,0.167-0.7,0.2-1c-0.2,0.1-0.45,0.167-0.75,0.2
			c-3.233-5-6.033-9.917-8.4-14.75c0.867-0.867,1.667-1.717,2.4-2.55c4.866-5.534,8.6-10.467,11.199-14.8
			c-1.899,0.133-3.717,0.133-5.449,0c-1.101-0.1-1.4-0.85-0.9-2.25l1-2.15c-1.767,0.133-3.45,0.217-5.05,0.25
			c-3.2,0.033-4.367-0.267-3.5-0.9c1.8-1.233,5.383-5.217,10.75-11.95c8.233-10.3,12.366-15.467,12.399-15.5
			c0.134,0.167,4.268,5.333,12.4,15.5c5.367,6.733,8.934,10.717,10.7,11.95c0.899,0.633-0.25,0.933-3.45,0.9l-5.1-0.25l1.05,2.15
			c0.467,1.4,0.149,2.15-0.95,2.25s-2.316,0.133-3.65,0.1l-1.75-0.1l2.851,4.3c1.033,1.433,2.1,2.85,3.2,4.25v-0.05l3.85-4.65
			c7-6.3,13.133-13.5,18.4-21.6c3.433-5.2,6.267-10.4,8.5-15.6l-0.051,0.05l0.601-1.5c0.066,0.1,0.2,0.267,0.399,0.5l0.301-0.5
			l0.699,1.5l-0.05-0.05c2.134,5.1,4.95,10.3,8.45,15.6c5.233,8.033,11.383,15.233,18.45,21.6l1.05,1.3
			c0.367-0.333,0.816-0.667,1.35-1c4.233-2.933,7.551-5.783,9.95-8.55c4.867-5.533,8.601-10.467,11.2-14.8
			c-1.867,0.133-3.684,0.133-5.45,0c-1.1-0.1-1.399-0.85-0.899-2.25l1-2.15c-1.768,0.133-3.45,0.217-5.051,0.25
			c-3.199,0.034-4.35-0.267-3.449-0.9c1.767-1.233,5.333-5.217,10.699-11.95c3.391-4.225,6.091-7.583,8.101-10.075
			c2.88-3.597,4.33-5.405,4.35-5.425c0.095,0.118,2.194,2.751,6.3,7.9c1.683,2.116,3.699,4.649,6.051,7.6
			c5.366,6.733,8.933,10.716,10.699,11.95c0.9,0.633-0.25,0.934-3.449,0.9l-5.051-0.25l1,2.15c0.5,1.4,0.2,2.15-0.899,2.25
			c-1.101,0.1-2.333,0.133-3.7,0.1l-1.75-0.1l2.9,4.3c2.5,3.567,5.267,7.067,8.3,10.5c2.433,2.767,5.767,5.617,10,8.55
			c2.633,1.8,3.55,2.983,2.75,3.55c-0.9,0.6-3.233,0.633-7,0.1c-3.467-0.5-5.2-0.617-5.2-0.35c0,0.367,0.533,1.25,1.6,2.65
			c0.7,1.333,0.317,2.2-1.149,2.6c-1.467,0.433-3.2,0.566-5.2,0.4l-2.55-0.4l1.649,4.25c1.867,3.633,4.7,7.433,8.5,11.4
			c2.7,2.833,6.7,5.967,12,9.4c2.967-4.7,5.434-9.367,7.4-14l-0.05,0.05l0.6-1.5c0.067,0.133,0.2,0.3,0.4,0.5l0.3-0.5l0.7,1.5
			l-0.05-0.05c2.133,5.133,4.949,10.35,8.449,15.65c4.134,6.333,8.834,12.167,14.101,17.5c1.433-1.233,2.683-2.4,3.75-3.5
			c3.767-3.966,6.583-7.767,8.45-11.4c0.933-1.8,1.5-3.2,1.699-4.2c-0.699,0.167-1.55,0.283-2.55,0.35
			c-1.967,0.2-3.717,0.083-5.25-0.35c-1.467-0.434-1.85-1.3-1.149-2.6c1.066-1.434,1.6-2.333,1.6-2.7c0-0.233-1.733-0.1-5.2,0.4
			c-3.767,0.534-6.1,0.5-7-0.1c-0.767-0.6,0.167-1.8,2.8-3.6c4.233-2.9,7.551-5.75,9.95-8.55c4.867-5.533,8.601-10.466,11.2-14.8
			c-1.867,0.133-3.684,0.133-5.45,0c-1.1-0.067-1.399-0.817-0.899-2.25l1-2.15c-1.768,0.167-3.45,0.267-5.051,0.3
			c-3.199,0.033-4.35-0.267-3.449-0.9c1.767-1.267,5.333-5.25,10.699-11.95c8.268-10.333,12.417-15.517,12.45-15.55
			c0.134,0.2,4.25,5.383,12.351,15.55c5.366,6.7,8.949,10.684,10.75,11.95c0.866,0.633-0.301,0.933-3.5,0.9l-5.051-0.3l1,2.15
			c0.5,1.433,0.2,2.183-0.899,2.25c-1.101,0.1-2.333,0.133-3.7,0.1l-1.75-0.1l2.9,4.3c2.533,3.567,5.3,7.067,8.3,10.5
			c2.433,2.8,5.767,5.65,10,8.55c2.633,1.8,3.55,3,2.75,3.6c-0.9,0.6-3.233,0.633-7,0.1c-3.467-0.5-5.2-0.633-5.2-0.4
			c0,0.367,0.533,1.267,1.6,2.7c0.7,1.3,0.317,2.167-1.149,2.6c-1.467,0.433-3.2,0.55-5.2,0.35l-2.55-0.35l1.649,4.2
			c1.867,3.633,4.7,7.434,8.5,11.4c2.134,2.267,5.117,4.7,8.95,7.3c0.067-0.1,0.134-0.184,0.2-0.25c0.6-0.633,1.167-1.167,1.7-1.6
			c5.033-3.567,10.467-8.333,16.3-14.3c2.934-2.967,5.333-5.6,7.2-7.9c-5,1.233-7.317,0.5-6.95-2.2c0.133-0.867,0.517-1.867,1.15-3
			c0.333-0.567,0.633-1.05,0.899-1.45c-6.5,1.867-8.983,1.367-7.45-1.5l4.2-4.8c3.134-2.434,6.8-6.2,11-11.3
			c2.101-2.533,3.884-4.8,5.351-6.8c-5.033,1.967-7.417,1.883-7.15-0.25l1.9-3.85c-5.733,1.867-7.867,1.45-6.4-1.25l3.85-4.65
			c7-6.333,13.134-13.533,18.4-21.6c3.434-5.233,6.25-10.433,8.45-15.6l-0.05,0.05l0.649-1.5c0.067,0.1,0.2,0.25,0.4,0.45l0.3-0.45
			l0.7,1.5l-0.05-0.05c2.133,5.1,4.933,10.3,8.399,15.6c1.639,2.49,3.355,4.898,5.15,7.225L1023.975,244.9z M958,336.65
			c0.133,0.167,0.633,0.95,1.5,2.35c0-0.1,0.017-0.217,0.05-0.35c0.167-0.667,0.4-1.4,0.7-2.2
			C958.717,336.55,957.967,336.617,958,336.65z M955.15,358.7c1.699,0.566,3.183,1,4.449,1.3c-0.767,1-1.55,2-2.35,3L955.15,358.7z
			 M1024.05,391.05v17.45c-0.016-0.021-0.032-0.037-0.05-0.05c-0.017-0.021-0.033-0.046-0.05-0.075
			c-3.655-4.61-6.671-8.401-9.05-11.375c3.967,1,5.8,0.35,5.5-1.95l-2.75-5.6c2.609,0.815,4.709,1.349,6.3,1.6H1024.05z
			 M853.15,475.45c-1.367-1.733-2.084-2.65-2.15-2.75c-0.1,0.033-3.55,4.316-10.35,12.85c-0.067,0.066-0.117,0.117-0.15,0.15
			c-1.066,1.133-1.934,2.217-2.6,3.25c-0.334,0.434-0.684,0.883-1.051,1.35c-1.899-2.1-3.649-4.25-5.25-6.45l-5.449-8.899l5.6,1.2
			c4.066,0.633,6.85,0.399,8.35-0.7c0.467-0.3-0.05-1.601-1.55-3.9c-1.7-2.399-2.683-3.816-2.95-4.25
			c-0.166-0.233,2.317,0.384,7.45,1.851c0.333,0.133,0.684,0.25,1.05,0.35c0.667,0.2,1.317,0.4,1.95,0.6c1.2,2.034,4.2,2.667,9,1.9
			c0.4,0,0.733-0.033,1-0.1c0.233-0.067,0.45-0.134,0.65-0.2c0.3-0.134,0.633-0.233,1-0.3
			C856.133,472.833,854.617,474.184,853.15,475.45z M762.55,437.3l-1.85-3.1c2.967,0.133,5.467,0.05,7.5-0.25
			c-0.167,0.2-0.333,0.383-0.5,0.55c-1.3,1.333-2.767,2.717-4.4,4.15C763.066,438.184,762.816,437.733,762.55,437.3z M-0.05,217.2
			c1.1-1.518,2.167-3.068,3.2-4.65c3.467-5.233,6.3-10.45,8.5-15.65l-0.05,0.05l0.65-1.5c0.067,0.133,0.183,0.3,0.35,0.5l0.35-0.5
			l0.65,1.5l-0.05-0.05c2.133,5.133,4.95,10.35,8.45,15.65c4.9,7.467,10.567,14.217,17,20.25c0.433-0.7,1.033-1.466,1.8-2.3
			c0.633-0.633,1.217-1.167,1.75-1.6c5.034-3.566,10.467-8.333,16.3-14.3c2.9-2.967,5.3-5.6,7.2-7.9c-5.033,1.233-7.367,0.5-7-2.2
			c0.133-0.867,0.534-1.867,1.2-3c0.3-0.567,0.6-1.05,0.9-1.45c-6.5,1.867-9,1.367-7.5-1.5l4.25-4.8
			c3.133-2.433,6.783-6.2,10.95-11.3c2.1-2.534,3.883-4.8,5.35-6.8c-5,1.967-7.383,1.883-7.15-0.25l1.95-3.85
			c-5.733,1.867-7.867,1.45-6.4-1.25l3.8-4.65c7-6.333,13.133-13.533,18.4-21.6c3.467-5.233,6.3-10.433,8.5-15.6l-0.05,0.05
			l0.65-1.5c0.067,0.1,0.184,0.25,0.35,0.45L94.6,127l0.65,1.5l-0.05-0.05c2.133,5.1,4.95,10.3,8.45,15.6
			c5.267,8.034,11.417,15.233,18.45,21.6l3.85,4.65c1.4,2.7-0.75,3.117-6.45,1.25l1.9,3.85c0.267,2.133-2.117,2.217-7.15,0.25
			l5.35,6.8c4.2,5.1,7.867,8.867,11,11.3l4.25,4.8c1.533,2.867-0.983,3.367-7.55,1.5l1,1.45c0.633,1.133,1,2.133,1.1,3
			c0.4,2.7-1.933,3.433-7,2.2l7.2,7.9c5.833,5.967,11.283,10.733,16.35,14.3l1.7,1.6c1.233,1.3,2.05,2.45,2.45,3.45
			c1.3,3.367-1.717,4.883-9.05,4.55l1.25,2.15c0.934,1.667,1.517,3.133,1.75,4.4c0.8,4.067-1.933,5.35-8.2,3.85
			c2.066,1.9,4.05,3.617,5.95,5.15c6.5-8.167,9.767-12.267,9.8-12.3c0.1,0.133,3.25,4.083,9.45,11.85l2.45-3
			c7-6.333,13.133-13.533,18.4-21.6c3.434-5.233,6.25-10.433,8.45-15.6l-0.05,0.05l0.65-1.5c0.066,0.1,0.183,0.267,0.35,0.5
			l0.35-0.5l0.7,1.5l-0.05-0.05c2.134,5.1,4.934,10.3,8.4,15.6c4.633,7.033,9.95,13.45,15.95,19.25c3.534-2.533,6.367-5.033,8.5-7.5
			c4.867-5.533,8.6-10.483,11.2-14.85c-1.9,0.167-3.717,0.167-5.45,0c-1.1-0.066-1.4-0.8-0.9-2.2l1-2.15
			c-1.767,0.133-3.45,0.217-5.05,0.25c-3.2,0.034-4.367-0.267-3.5-0.9c1.8-1.233,5.383-5.217,10.75-11.95
			c8.233-10.3,12.366-15.467,12.4-15.5c0.167,0.167,4.3,5.333,12.4,15.5c5.367,6.733,8.934,10.716,10.7,11.95
			c0.9,0.633-0.25,0.934-3.45,0.9l-5.1-0.25l1.05,2.15c0.5,1.4,0.2,2.133-0.9,2.2c-1.1,0.133-2.333,0.184-3.7,0.15l-1.75-0.15
			l2.85,4.35c2.533,3.533,5.316,7.033,8.35,10.5c2.4,2.767,5.717,5.617,9.95,8.55c2.633,1.8,3.566,2.983,2.8,3.55
			c-0.9,0.6-3.233,0.633-7,0.1c-3.5-0.5-5.25-0.617-5.25-0.35c0,0.333,0.534,1.217,1.6,2.65c0.733,1.333,0.367,2.2-1.1,2.6
			c-1.5,0.433-3.233,0.566-5.2,0.4l-2.6-0.4l1.65,4.25c1.267,2.4,2.967,4.9,5.1,7.5c6.934-6.333,13-13.5,18.2-21.5
			c3.466-5.233,6.3-10.434,8.5-15.6l-0.05,0.05l0.65-1.5c0.067,0.1,0.184,0.25,0.35,0.45l0.35-0.45l0.7,1.5l-0.1-0.05
			c2.133,5.1,4.95,10.3,8.45,15.6c5.267,8.033,11.417,15.233,18.45,21.6l3.85,4.65c1.433,2.7-0.717,3.133-6.45,1.3l1.9,3.8
			c0.267,2.133-2.116,2.216-7.15,0.25l5.35,6.8c4.2,5.1,7.867,8.867,11,11.3l4.25,4.8c1.533,2.867-0.967,3.367-7.5,1.5l0.95,1.45
			c0.633,1.133,1,2.133,1.1,3c0.4,2.7-1.933,3.434-7,2.2l7.2,7.9c1.3,1.333,2.583,2.6,3.85,3.8l4.15-4.75
			c3.133-2.434,6.8-6.2,11-11.3c2.1-2.533,3.883-4.816,5.35-6.85c-5.034,2-7.417,1.934-7.15-0.2l1.9-3.85
			c-5.7,1.867-7.833,1.45-6.4-1.25l3.85-4.65c7-6.333,13.134-13.533,18.4-21.6c3.466-5.233,6.3-10.45,8.5-15.65l-0.05,0.1l0.6-1.5
			c0.1,0.1,0.233,0.25,0.4,0.45l0.3-0.45l0.65,1.4c2.133,5.133,4.95,10.35,8.45,15.65c5.267,8.033,11.417,15.233,18.45,21.6
			l3.8,4.65c1.434,2.7-0.716,3.117-6.45,1.25l1.95,3.85c0.233,2.133-2.15,2.2-7.15,0.2l5.35,6.85c4.167,5.1,7.816,8.867,10.95,11.3
			l4.3,4.8c1.5,2.833-1.017,3.333-7.55,1.5l0.95,1.45c0.667,1.133,1.05,2.133,1.15,3c0.4,2.7-1.933,3.433-7,2.2l7.2,7.9
			c0.733,0.767,1.483,1.517,2.25,2.25c1.267-1,3.233-2.316,5.9-3.95c7-4.233,12.15-8.05,15.45-11.45c3.767-4,6.583-7.816,8.45-11.45
			c0.934-1.8,1.483-3.2,1.65-4.2c-0.667,0.2-1.5,0.333-2.5,0.4c-2,0.167-3.767,0.033-5.3-0.4c-1.433-0.433-1.8-1.3-1.1-2.6
			c1.067-1.433,1.6-2.316,1.6-2.65c0-0.267-1.733-0.15-5.2,0.35c-3.8,0.533-6.134,0.5-7-0.1c-0.8-0.567,0.116-1.767,2.75-3.6
			c4.233-2.9,7.566-5.733,10-8.5c4.866-5.566,8.6-10.517,11.2-14.85c-1.9,0.167-3.716,0.167-5.45,0c-1.1-0.066-1.4-0.816-0.9-2.25
			l1-2.1c-1.767,0.133-3.45,0.216-5.05,0.25c-3.2,0.033-4.367-0.267-3.5-0.9c1.8-1.233,5.383-5.216,10.75-11.95
			c8.233-10.3,12.367-15.467,12.4-15.5c0.167,0.167,4.3,5.333,12.4,15.5c5.367,6.733,8.934,10.717,10.7,11.95
			c0.9,0.633-0.25,0.934-3.45,0.9l-5.05-0.25l1,2.1c0.5,1.434,0.2,2.184-0.9,2.25c-1.1,0.1-2.333,0.133-3.7,0.1l-1.75-0.1l2.85,4.35
			c2.533,3.533,5.316,7.033,8.35,10.5c2.4,2.767,5.716,5.6,9.95,8.5c2.634,1.833,3.567,3.033,2.8,3.6c-0.9,0.6-3.233,0.633-7,0.1
			c-3.467-0.5-5.2-0.617-5.2-0.35c0,0.333,0.534,1.217,1.6,2.65c0.7,1.3,0.316,2.167-1.15,2.6c-1.5,0.433-3.233,0.567-5.2,0.4
			l-2.6-0.4l1.65,4.2c1.9,3.633,4.75,7.45,8.55,11.45c2.133,2.233,5.083,4.667,8.85,7.3c3-2.267,5.433-4.483,7.3-6.65
			c4.867-5.566,8.6-10.517,11.2-14.85c-1.867,0.133-3.667,0.133-5.4,0c-1.134-0.067-1.45-0.817-0.95-2.25l1.05-2.1
			c-1.8,0.133-3.5,0.217-5.1,0.25c-3.2,0.033-4.35-0.267-3.45-0.9c1.767-1.267,5.333-5.25,10.7-11.95
			c8.267-10.333,12.416-15.517,12.45-15.55c0.133,0.2,4.25,5.383,12.35,15.55c3.7,4.6,6.55,7.917,8.55,9.95
			c0.134-0.1,0.3-0.184,0.5-0.25c0.634,0.333,2.334,0.466,5.101,0.4c2.3-0.067,4.75-0.184,7.35-0.35l-1.45,3.1
			c-0.733,2.066-0.3,3.15,1.3,3.25c2.567,0.2,5.217,0.2,7.95,0c-2.166,3.633-4.866,7.55-8.1,11.75c-0.3-0.133-0.55-0.267-0.75-0.4
			c-0.334-0.2,0.017-1.083,1.05-2.65c0.533-0.833,1.217-1.816,2.05-2.95c0.134-0.167-1.816,0.333-5.85,1.5
			c-4.467,1.367-7.2,1.917-8.2,1.65c-1.066-0.233-1.116-1.25-0.15-3.05c1.233-1.8,1.884-2.817,1.95-3.05
			c0.066-0.066-1.75-0.183-5.45-0.35c-3.566-0.2-5.666-0.7-6.3-1.5c-0.3,0-0.6,0-0.899,0l-1.801-0.1l2.9,4.3
			c2.533,3.567,5.3,7.083,8.3,10.55c1.5,1.7,3.351,3.434,5.55,5.2c-0.199,0.2-0.399,0.433-0.6,0.7c-3.533,4.066-8.4,8.2-14.6,12.4
			c-3.801,2.667-5.134,4.417-4,5.25c1.3,0.9,4.699,0.95,10.199,0.15c5.067-0.733,7.601-0.9,7.601-0.5c0,0.467-0.767,1.75-2.3,3.85
			c-1.067,1.9-0.534,3.167,1.6,3.8c2.233,0.6,4.783,0.783,7.65,0.55c1.466-0.1,2.699-0.284,3.699-0.55
			c-0.267,1.467-1.066,3.517-2.399,6.15c-2.733,5.3-6.867,10.85-12.4,16.65c-4.767,4.967-12.25,10.517-22.45,16.649
			c-2.533,1.567-4.666,2.95-6.399,4.15c-7.5-7.667-14.233-16.05-20.2-25.15c-1.846-2.834-3.579-5.668-5.2-8.5
			c4.3-2.9,7.634-5.6,10-8.1c3.767-3.967,6.6-7.767,8.5-11.4c0.9-1.8,1.45-3.2,1.65-4.2c-0.733,0.733-2.833,1.217-6.3,1.45
			c-3.7,0.167-5.533,0.283-5.5,0.35c0.1,0.233,0.767,1.25,2,3.05c0.934,1.767,0.867,2.783-0.2,3.05c-1,0.233-3.733-0.316-8.2-1.65
			c-3.967-1.167-5.9-1.667-5.8-1.5c0.167,0.267,0.833,1.25,2,2.95c1.033,1.533,1.4,2.417,1.1,2.65
			c-1.033,0.733-2.933,0.883-5.7,0.45c-0.233-0.434-0.434-0.883-0.6-1.35l-0.95-2.1l-0.45,0.7c-0.267-0.333-0.467-0.567-0.6-0.7
			l-0.9,2.2l0.05-0.1c-0.066,0.167-0.133,0.35-0.2,0.55l-0.25-0.05l0.15,0.3c-3.167,7.267-7.167,14.583-12,21.95
			c-7.7,11.766-16.65,22.284-26.85,31.55l-5.6,6.699c-2.133,3.934,0.983,4.551,9.35,1.851l-2.85,5.6c-0.033,0.367,0,0.7,0.1,1
			c0.4,1.934,3.3,1.934,8.7,0c0.533-0.2,1.1-0.416,1.7-0.649c-0.167,0.199-0.316,0.416-0.45,0.649
			c-2.067,2.767-4.517,5.867-7.35,9.3c-6.133,7.4-11.467,12.9-16,16.5l-4,4.601c-4.667-3.934-9.5-8.467-14.5-13.601l-10.5-11.5
			c7.333,1.733,10.716,0.634,10.15-3.3c-0.066-0.633-0.233-1.3-0.5-2c-0.3-0.733-0.684-1.5-1.15-2.3l-1.4-2.15
			c9.533,2.7,13.2,1.983,11-2.149l-6.25-6.95c-4.534-3.6-9.867-9.1-16-16.5l-7.75-9.95c7.3,2.9,10.767,2.783,10.4-0.35l-2.8-5.6
			c8.367,2.7,11.5,2.083,9.4-1.85l-5.6-6.75c-10.233-9.267-19.2-19.767-26.9-31.5c-5.067-7.7-9.15-15.283-12.25-22.75l-0.95-2.1
			l-0.45,0.7c-0.267-0.333-0.45-0.567-0.55-0.7l-0.95,2.2l0.1-0.1c-3.2,7.567-7.316,15.15-12.35,22.75
			c-7.667,11.767-16.6,22.267-26.8,31.5l-5.6,6.75c-2.133,3.933,0.967,4.55,9.3,1.85l-2.8,5.6c-0.367,3.133,3.117,3.25,10.45,0.35
			c-2.133,2.934-4.733,6.25-7.8,9.95c-6.1,7.4-11.433,12.9-16,16.5l-0.1,0.15c-5.4-3.834-9.7-7.601-12.9-11.301
			c-4.4-5.033-8.45-10.133-12.15-15.3l-4.2-6.3l2.6,0.15c1.934,0.033,3.7-0.017,5.3-0.15s2.05-1.217,1.35-3.25l-1.5-3.1l7.4,0.35
			c4.667,0.033,6.35-0.4,5.05-1.3c-2.566-1.833-7.767-7.633-15.6-17.4c-11.833-14.833-17.833-22.367-18-22.6
			c-0.066,0.033-6.116,7.566-18.15,22.6c-7.833,9.767-13.05,15.567-15.65,17.4c-1.267,0.9,0.434,1.333,5.1,1.3
			c2.3-0.067,4.75-0.183,7.35-0.35l-1.45,3.1c-0.733,2.033-0.3,3.117,1.3,3.25c2.567,0.2,5.217,0.2,7.95,0
			c-3.767,6.333-9.217,13.533-16.35,21.6c-2.1,2.4-4.667,4.851-7.7,7.351c-0.967-1.134-1.967-2.367-3-3.7
			c-11.833-14.833-17.85-22.367-18.05-22.6c-0.066,0.033-6.1,7.567-18.1,22.6c-7.833,9.8-13.05,15.6-15.65,17.4
			c-1.267,0.933,0.434,1.383,5.1,1.35c2.3-0.066,4.75-0.2,7.35-0.4l-1.45,3.101c-0.733,2.066-0.3,3.149,1.3,3.25
			c2.533,0.233,5.167,0.233,7.9,0c-3.767,6.333-9.2,13.533-16.3,21.6c-1.233,1.434-2.633,2.9-4.2,4.4
			c-4.267-4.9-8.2-9.867-11.8-14.9l-4.15-6.3l2.55,0.15c1.966,0.033,3.75-0.017,5.35-0.15c1.6-0.1,2.034-1.184,1.3-3.25l-1.45-3.1
			l7.4,0.399c4.667,0.033,6.333-0.416,5-1.35c-0.4-0.3-0.883-0.684-1.45-1.15c-2.833-2.6-7.533-8.017-14.1-16.25
			c-11.867-14.833-17.883-22.367-18.05-22.6c-0.067,0.033-5.367,6.649-15.9,19.85c-4.433-7-8.05-13.883-10.85-20.65l-1-2.1l-0.4,0.7
			c-0.3-0.3-0.5-0.533-0.6-0.7l-0.9,2.2l0.05-0.1c-3.2,7.567-7.3,15.15-12.3,22.75c-2.566,3.933-5.267,7.733-8.1,11.399
			c-4.3-3.267-7.833-6.467-10.6-9.6c-4.4-5.033-8.45-10.134-12.15-15.3l-4.15-6.301l2.55,0.15c1.967,0.033,3.75-0.017,5.35-0.15
			c1.6-0.133,2.05-1.216,1.35-3.25l-1.5-3.1l7.4,0.35c4.667,0.033,6.333-0.4,5-1.3c-2.567-1.833-7.75-7.633-15.55-17.4
			c-11.833-14.833-17.85-22.367-18.05-22.6c-0.067,0.034-6.1,7.567-18.1,22.6c-7.833,9.767-13.05,15.567-15.65,17.4
			c-1.267,0.9,0.417,1.333,5.05,1.3c2.333-0.067,4.8-0.184,7.4-0.35l-1.45,3.1c-0.767,2.034-0.35,3.117,1.25,3.25
			c2.566,0.2,5.217,0.2,7.95,0c-3.767,6.334-9.2,13.534-16.3,21.601c-3.291,3.757-7.724,7.598-13.3,11.524v-10
			c2.152-0.109,2.636-1.284,1.45-3.524l-1.45-1.726V217.2z M-0.05,431.525v-6.275c1.386-0.071,3.019-0.238,4.9-0.5
			c5.066-0.733,7.6-0.917,7.6-0.55c0,0.5-0.767,1.8-2.3,3.899c-1.066,1.9-0.533,3.167,1.6,3.801c2.233,0.6,4.8,0.783,7.7,0.55
			c1.433-0.134,2.65-0.316,3.65-0.55c-0.233,1.466-1.033,3.517-2.4,6.149c-1.534,2.934-3.483,5.967-5.85,9.101
			c-0.1-0.334-0.25-0.65-0.45-0.95l-6.2-7C5.683,437.216,2.933,434.657-0.05,431.525z M533.2,306.95l-2-0.1l0.55,1.05
			C532.184,307.6,532.667,307.283,533.2,306.95z M591.7,284c3.833-2.867,7.883-6.417,12.149-10.65c-0.699-0.067-1.466-0.167-2.3-0.3
			c-3.5-0.5-5.25-0.617-5.25-0.35c0,0.367,0.533,1.25,1.601,2.65c0.733,1.333,0.366,2.2-1.101,2.6c-1.5,0.433-3.233,0.566-5.2,0.4
			l-2.6-0.4l1.65,4.25C590.983,282.8,591.333,283.4,591.7,284z M614.7,343.4c0.1-0.467,0.233-0.967,0.399-1.5l0.851-1.9
			c-1.5,0.5-2.884,0.933-4.15,1.3c-3.434-2.633-6.35-5.216-8.75-7.75l0.55-0.9c-0.366,0.1-0.733,0.217-1.1,0.35
			c-0.3-0.333-0.6-0.683-0.9-1.05c-0.199-0.267-0.416-0.5-0.649-0.7c-4.167-4.8-8-9.667-11.5-14.6l-4.15-6.3l2.55,0.15
			c1.967,0.033,3.75-0.017,5.351-0.15c1.6-0.1,2.033-1.184,1.3-3.25L593,304l7.45,0.35c0.166,0,0.333,0,0.5,0
			c4.267,0,5.767-0.434,4.5-1.3c-1.066-0.767-2.566-2.167-4.5-4.2c-2.767-3.033-6.467-7.434-11.101-13.2
			c-11.833-14.833-17.833-22.367-18-22.6c-0.066,0.034-4.149,5.133-12.25,15.3c-0.166,0-0.316,0-0.449,0
			c-2,0.167-3.767,0.033-5.301-0.4c-1.433-0.4-1.8-1.267-1.1-2.6c1.066-1.4,1.6-2.283,1.6-2.65c0-0.267-1.75-0.15-5.25,0.35
			c-3.767,0.534-6.083,0.5-6.949-0.1c-0.801-0.567,0.116-1.75,2.75-3.55c4.233-2.933,7.566-5.783,10-8.55
			c4.866-5.533,8.6-10.467,11.199-14.8c-1.899,0.133-3.716,0.133-5.449,0c-1.101-0.1-1.4-0.85-0.9-2.25l1-2.15
			c-1.767,0.133-3.45,0.217-5.05,0.25c-3.2,0.033-4.367-0.267-3.5-0.9c1.8-1.233,5.383-5.217,10.75-11.95
			c8.233-10.3,12.366-15.466,12.399-15.5c0.167,0.167,4.301,5.333,12.4,15.5c5.366,6.733,8.934,10.717,10.7,11.95
			c0.899,0.633-0.25,0.933-3.45,0.9l-5.1-0.25l1.05,2.15c0.5,1.4,0.2,2.15-0.9,2.25c-1.1,0.1-2.333,0.133-3.7,0.1l-1.75-0.1
			l2.851,4.3c2.533,3.566,5.316,7.066,8.35,10.5c2.4,2.767,5.717,5.617,9.95,8.55c0.434,0.267,0.816,0.55,1.15,0.85
			c2.433-2.567,4.466-4.85,6.1-6.85c-5,1.233-7.316,0.483-6.95-2.25c0.134-0.833,0.517-1.816,1.15-2.95
			c0.333-0.567,0.633-1.05,0.899-1.45c-6.5,1.833-8.983,1.333-7.449-1.5l4.199-4.8c3.134-2.467,6.801-6.233,11-11.3
			c2.101-2.533,3.867-4.816,5.301-6.85c-5,2-7.367,1.934-7.101-0.2l1.9-3.85c-5.733,1.867-7.867,1.45-6.4-1.25l3.851-4.65
			c7-6.333,13.133-13.533,18.399-21.6c3.434-5.233,6.25-10.45,8.45-15.65l-0.05,0.05l0.649-1.45c0.067,0.1,0.2,0.25,0.4,0.45
			l0.3-0.45l0.7,1.45l-0.05-0.05c2.133,5.133,4.934,10.35,8.399,15.65c5.267,8.033,11.417,15.233,18.45,21.6L672.9,227
			c1.433,2.7-0.717,3.117-6.45,1.25l1.899,3.85c0.267,2.133-2.1,2.2-7.1,0.2l5.3,6.85c4.2,5.067,7.867,8.833,11,11.3l4.25,4.8
			c1.533,2.833-0.967,3.333-7.5,1.5l0.95,1.45c0.634,1.133,1,2.117,1.1,2.95c0.4,2.733-1.916,3.483-6.949,2.25l7.199,7.9
			c3.801,3.9,7.434,7.3,10.9,10.2c-2.5,5-5.417,10.017-8.75,15.05c-7.667,11.767-16.6,22.267-26.8,31.5l-5.601,6.7
			c-2.133,3.967,0.983,4.6,9.351,1.9l-2.851,5.6c-0.366,3.133,3.117,3.233,10.45,0.3c-2.133,2.967-4.733,6.3-7.8,10
			c-6.1,7.4-11.434,12.883-16,16.45l-6.1,7c-2.233,4.133,1.383,4.85,10.85,2.15c-0.4,0.6-0.833,1.3-1.3,2.1
			c-0.934,1.633-1.5,3.083-1.7,4.35c-0.533,3.934,2.85,5.034,10.15,3.301c-2.733,3.3-6.233,7.116-10.5,11.449
			c-1,1.034-2,2.051-3,3.051c-1.834-1.5-4.817-3.517-8.95-6.051c-10.233-6.133-17.7-11.683-22.4-16.649
			c-2.066-2.167-3.934-4.284-5.6-6.35c-2.834-3.533-5.101-6.967-6.8-10.3l-2.4-6.15l3.7,0.55c2,0.167,3.833,0.133,5.5-0.1
			c0.733-0.133,1.434-0.283,2.1-0.45c2.134-0.633,2.684-1.9,1.65-3.8c-1.566-2.1-2.351-3.383-2.351-3.85c0-0.4,2.551-0.233,7.65,0.5
			c5.467,0.8,8.85,0.75,10.15-0.15c1.133-0.833-0.217-2.583-4.051-5.25C615.634,344.05,615.167,343.733,614.7,343.4z M46.25,268.7
			c-0.2-0.034-0.4-0.083-0.6-0.15l0.4,0.5C46.117,268.917,46.183,268.8,46.25,268.7z M39.75,243.9c0.267,2.133-2.117,2.2-7.15,0.2
			l5.35,6.85c1.8,2.167,3.5,4.1,5.1,5.8c2.967-2.1,6.15-4.717,9.55-7.85c-6.267,1.5-9,0.217-8.2-3.85
			c0.233-1.267,0.817-2.733,1.75-4.4c0.467-0.867,0.9-1.583,1.3-2.15c-1.267,0.067-2.4,0.067-3.4,0l0.25,0.25
			c1.4,2.733-0.75,3.167-6.45,1.3L39.75,243.9z M228.95,301.9c0.133-0.233,0.25-0.45,0.35-0.65c-0.267,0.067-0.517,0.133-0.75,0.2
			C228.684,301.583,228.816,301.733,228.95,301.9z M220.9,252.75l2.1,2.5c1.066-1.433,1.6-2.317,1.6-2.65
			C224.6,252.367,223.367,252.417,220.9,252.75z M169.1,263.5c0.767-1.033,1.483-2,2.15-2.9c-1.4,0.566-2.6,0.967-3.6,1.2
			C168.15,262.367,168.633,262.933,169.1,263.5z M163.95,257.3c0.367,0.434,0.733,0.867,1.1,1.3l1-2.05
			c-0.8,0.233-1.517,0.434-2.15,0.6C163.9,257.217,163.917,257.267,163.95,257.3z M231.9,257.85c-0.667,0.2-1.5,0.333-2.5,0.4
			c-2,0.167-3.767,0.033-5.3-0.4c-0.434-0.133-0.767-0.3-1-0.5c-0.8,0.6-2.983,0.333-6.55-0.8l1.9,3.8
			c0.267,2.133-2.117,2.217-7.15,0.25l5.35,6.8c1.867,2.233,3.617,4.233,5.25,6c3.733-3.967,6.517-7.733,8.35-11.3
			C231.184,260.267,231.733,258.85,231.9,257.85z M292.15,415.45c-2.233,4.133,1.4,4.85,10.9,2.149
			c-0.433,0.601-0.883,1.317-1.35,2.15c-0.467,0.8-0.833,1.566-1.1,2.3c-0.3,0.7-0.5,1.367-0.6,2c-0.533,3.934,2.867,5.033,10.2,3.3
			c-2.733,3.301-6.233,7.134-10.5,11.5c-2.7,2.767-5.333,5.351-7.9,7.75c-0.566-0.533-1.083-1.05-1.55-1.55
			c-5.533-5.8-9.667-11.333-12.4-16.6l-2.4-6.15l3.7,0.55c2.9,0.233,5.434,0.051,7.6-0.55c0.233-0.066,0.483-0.149,0.75-0.25
			c1.467-0.733,1.767-1.916,0.9-3.55c-1.566-2.1-2.35-3.4-2.35-3.9c0-0.333,2.184-0.199,6.55,0.4L292.15,415.45z M233.15,428.45
			c-2.4,4.6-5.833,9.399-10.3,14.399c-2.967-3.566-5.75-7.183-8.35-10.85l-4.15-6.3l2.55,0.149c1.967,0.034,3.75-0.017,5.35-0.149
			c1.6-0.101,2.05-1.184,1.35-3.25l-1.5-3.101l4.05,0.2c-0.333,1.134,0.117,1.967,1.35,2.5c0.2,0.101,0.417,0.184,0.65,0.25
			c2.267,0.601,4.833,0.783,7.7,0.55c1.466-0.133,2.7-0.316,3.7-0.55C235.283,423.767,234.483,425.816,233.15,428.45z M228.35,491.4
			c-1.333-1.534-2.567-3.017-3.7-4.45c0.5-0.066,1-0.15,1.5-0.25c2-0.3,3.867-0.7,5.6-1.2
			C231.05,487.134,229.917,489.1,228.35,491.4z M164.65,477.05c2.133-0.633,2.684-1.883,1.65-3.75
			c-0.267-0.366-0.517-0.717-0.75-1.05c2.233,0.6,4.8,0.783,7.7,0.55c1.467-0.1,2.684-0.283,3.65-0.55
			c-0.233,1.467-1.033,3.517-2.4,6.15c-2.566,5-6.383,10.233-11.45,15.699c-1.667-2.066-3.15-4.1-4.45-6.1
			c5.633,1.033,7.583-0.083,5.85-3.35l-6.2-6.95C160.65,477.8,162.783,477.583,164.65,477.05z M222.25,477.85
			c-0.7,0.967-1.316,1.867-1.85,2.7c-0.4-0.7-0.783-1.383-1.15-2.05C221.383,477.934,222.383,477.717,222.25,477.85z M64.85,436.6
			L63,431.9l3.75,0.55c0.8,0.066,1.6,0.1,2.4,0.1C67.717,433.917,66.283,435.267,64.85,436.6z M73.6,424.2
			c0-0.233,1.167-0.233,3.5,0c-0.767,0.8-1.5,1.6-2.2,2.399C74.033,425.366,73.6,424.566,73.6,424.2z M76.05,451.2
			c-0.2,0.3-0.4,0.6-0.6,0.899c-0.167-0.166-0.317-0.316-0.45-0.449C75.367,451.483,75.717,451.333,76.05,451.2z M12.6,449.9
			c-1.3,1.566-2.717,3.149-4.25,4.75c-0.6,0.666-1.25,1.316-1.95,1.949c0.167-0.533,0.184-1.149,0.05-1.85
			c-0.133-1.233-0.684-2.667-1.65-4.3l-1.35-2.15C7.65,449.5,10.7,450.033,12.6,449.9z M-0.05,458.75c1.734,0.2,3.134,0.167,4.2-0.1
			c-1.286,1.055-2.686,2.171-4.2,3.35V458.75z M787.1,277.5l5.301,6.8c3.467,4.167,6.566,7.467,9.3,9.9
			c0.833-0.767,1.583-1.5,2.25-2.2c3.767-3.967,6.583-7.767,8.45-11.4c0.933-1.833,1.5-3.25,1.699-4.25
			c-0.699,0.2-1.55,0.333-2.55,0.4c-1.967,0.167-3.717,0.033-5.25-0.4c-1.467-0.4-1.85-1.267-1.149-2.6
			c1.066-1.4,1.6-2.283,1.6-2.65c0-0.267-1.733-0.15-5.2,0.35c-1.167,0.2-2.183,0.316-3.05,0.35l0.25,0.35
			c1.434,2.7-0.717,3.133-6.45,1.3l1.95,3.85C794.483,279.433,792.1,279.5,787.1,277.5z M740.9,278.9
			c0.866,0.9,1.833,1.85,2.899,2.85c1.2-1.533,2.283-2.95,3.25-4.25C744.05,278.667,742,279.133,740.9,278.9z M741.8,273.45
			c-1.933,0.633-3.467,1-4.6,1.1c0.866,1.034,1.767,2.083,2.7,3.15c0-0.133,0-0.267,0-0.4L741.8,273.45z M947.5,364.65
			c2.767,1.1,5,1.767,6.7,2c-0.9,1.033-1.817,2.05-2.75,3.05L947.5,364.65z M422.3,350.75c0.934,0.767,1.85,1.467,2.75,2.1l1.75,1.6
			c1.233,1.267,2.05,2.417,2.45,3.45c1.3,3.367-1.733,4.883-9.1,4.55l1.3,2.15c0.933,1.667,1.517,3.133,1.75,4.4
			c0.8,4.067-1.934,5.35-8.2,3.85c1.233,1.133,2.434,2.2,3.6,3.2c1.3-0.966,2.5-1.867,3.6-2.7c5.6-4.434,10.216-9.133,13.85-14.1
			c1.867-2.5,3.134-4.55,3.8-6.15c-1.167,0.367-2.45,0.65-3.85,0.85c-2.8,0.433-4.717,0.283-5.75-0.45
			c-0.333-0.233,0.017-1.117,1.05-2.65c0.534-0.833,1.217-1.817,2.05-2.95c0.133-0.167-1.8,0.333-5.8,1.5
			C425.35,350.033,423.6,350.483,422.3,350.75z M415.65,344.6c-0.267,0-0.517-0.017-0.75-0.05c1.4,1.267,2.784,2.483,4.15,3.65
			c0.034-0.067,0.067-0.133,0.1-0.2c1.233-1.8,1.9-2.817,2-3.05C421.184,344.883,419.35,344.767,415.65,344.6z M335.6,325
			c0.933,0.9,1.867,1.733,2.8,2.5c0.233-0.633,0.55-1.317,0.95-2.05c0.333-0.567,0.65-1.05,0.95-1.45
			C338.367,324.533,336.8,324.867,335.6,325z M625.65,412.65c-1.733-2.667-2.7-4.15-2.9-4.45c-0.033-0.101,2.667-0.267,8.1-0.5
			c0.601-0.033,1.167-0.084,1.7-0.15c-2.2,2.033-4.366,3.967-6.5,5.8C625.917,413.116,625.783,412.884,625.65,412.65z M617.1,420.2
			c-0.633,0.5-1.283,1.116-1.949,1.85c-0.167,0.167-0.351,0.334-0.551,0.5c-1.733,1.867-2.916,3.533-3.55,5
			c-1.866,4.9,2.533,7.117,13.2,6.65c-0.566,0.8-1.184,1.833-1.85,3.1c-1.367,2.434-2.217,4.584-2.551,6.45
			c-1.133,5.934,2.867,7.8,12,5.6c-1.699,1.534-3.35,2.983-4.949,4.351c-2.034-1.434-3.884-2.816-5.551-4.15
			c-8.267-6.434-15.05-13.283-20.35-20.55l-5.5-8.9l5.6,1.25c4.101,0.634,6.9,0.4,8.4-0.699c0.467-0.334-0.05-1.634-1.55-3.9
			c-1.7-2.434-2.684-3.85-2.95-4.25c-0.167-0.267,2.667,0.45,8.5,2.15c3.434,1.033,6.167,1.75,8.2,2.149
			C620.134,418,618.6,419.134,617.1,420.2z M534.05,420.65c1.5,1.1,4.3,1.333,8.4,0.699c2-0.333,3.866-0.75,5.6-1.25
			c-0.233,0.601-0.533,1.25-0.899,1.95c-1.101,1.934-2.65,4.25-4.65,6.95c-4.5,6.2-10.066,12.083-16.7,17.65
			c-4.233-3.534-9.083-8.634-14.55-15.301l-7.8-9.949c0.6,0.233,1.183,0.449,1.75,0.649c5.366,1.934,8.25,1.934,8.649,0
			c0.034-0.3,0.034-0.633,0-1l-2.75-5.6c3.167,1.033,5.567,1.583,7.2,1.649h0.05c1.567,0.267,5.483-0.55,11.75-2.449
			c5.867-1.7,8.684-2.417,8.45-2.15c-1.2,1.667-2.184,3.083-2.95,4.25C534.1,419.017,533.583,420.316,534.05,420.65z M520.75,408.2
			c-0.1,0.267-0.8,1.35-2.1,3.25l-2.95-3.601C519.134,408.017,520.816,408.134,520.75,408.2z M425.05,458.55
			c-0.4-0.3-0.816-0.616-1.25-0.95c0.7-0.166,1.467-0.383,2.3-0.649C425.767,457.417,425.417,457.95,425.05,458.55z M432.65,467.05
			c-0.033-0.066-0.05-0.116-0.05-0.149c0.2-0.101,0.417-0.167,0.65-0.2c-0.167,0.2-0.333,0.399-0.5,0.6
			C432.717,467.233,432.684,467.15,432.65,467.05z"/>
		<path fill-rule="evenodd" clip-rule="evenodd" fill="#5BD96C" d="M614.7,343.4c0.467,0.333,0.934,0.65,1.399,0.95
			c3.834,2.667,5.184,4.417,4.051,5.25c-1.301,0.9-4.684,0.95-10.15,0.15c-5.1-0.733-7.65-0.9-7.65-0.5
			c0,0.467,0.784,1.75,2.351,3.85c1.033,1.9,0.483,3.167-1.65,3.8c-0.666,0.167-1.366,0.317-2.1,0.45
			c-1.667,0.233-3.5,0.267-5.5,0.1l-3.7-0.55l2.4,6.15c1.699,3.333,3.966,6.767,6.8,10.3c1.666,2.066,3.533,4.183,5.6,6.35
			c4.7,4.967,12.167,10.517,22.4,16.649c4.133,2.534,7.116,4.551,8.95,6.051c1-1,2-2.017,3-3.051
			c4.267-4.333,7.767-8.149,10.5-11.449c-7.301,1.733-10.684,0.633-10.15-3.301c0.2-1.266,0.767-2.716,1.7-4.35
			c0.467-0.8,0.899-1.5,1.3-2.1c-9.467,2.7-13.083,1.983-10.85-2.15l6.1-7c4.566-3.567,9.9-9.05,16-16.45
			c3.066-3.7,5.667-7.033,7.8-10c-7.333,2.934-10.816,2.833-10.45-0.3l2.851-5.6c-8.367,2.7-11.483,2.067-9.351-1.9l5.601-6.7
			c10.2-9.233,19.133-19.733,26.8-31.5c3.333-5.033,6.25-10.05,8.75-15.05c1.3-2.6,2.5-5.183,3.6-7.75l-0.05,0.1l0.9-2.15
			c0.1,0.133,0.3,0.35,0.6,0.65l0.4-0.65l0.95,2.05c1,2.4,2.116,4.817,3.35,7.25c2.367,4.833,5.167,9.75,8.4,14.75
			c0.166,0.233,0.35,0.5,0.55,0.8c7.667,11.733,16.616,22.233,26.85,31.5l5.601,6.7c2.1,3.967-1.018,4.6-9.351,1.9l2.75,5.6
			c0.4,3.133-3.066,3.233-10.399,0.3l7.8,10c6.1,7.4,11.433,12.883,16,16.45l6.25,7c2.2,4.133-1.467,4.85-11,2.15l1.399,2.1
			c0.934,1.633,1.483,3.083,1.65,4.35c0.566,3.934-2.833,5.034-10.2,3.301l10.5,11.449c8.5,8.733,16.434,15.684,23.8,20.851
			l2.45,2.35c1.733,1.8,2.9,3.434,3.5,4.9c1.434-1.834,2.717-3.634,3.851-5.4c0.899-1.399,1.699-2.8,2.399-4.2
			c1.367-2.633,2.167-4.666,2.4-6.1c-1,0.233-2.233,0.4-3.7,0.5c-2.867,0.267-5.417,0.1-7.65-0.5c-2.133-0.667-2.666-1.934-1.6-3.8
			c1.533-2.101,2.3-3.4,2.3-3.9c0-0.399-2.533-0.217-7.6,0.55c-5.5,0.767-8.9,0.717-10.2-0.149c-1.133-0.834,0.2-2.584,4-5.25
			c6.2-4.233,11.066-8.384,14.6-12.45c7.101-8.067,12.533-15.267,16.301-21.6c-2.733,0.233-5.384,0.233-7.95,0
			c-1.601-0.1-2.017-1.183-1.25-3.25l1.399-3.05c-2.6,0.167-5.05,0.283-7.35,0.35c-4.667,0.033-6.35-0.417-5.05-1.35
			c2.6-1.8,7.8-7.583,15.6-17.35c12.033-15.067,18.083-22.617,18.15-22.65c0.167,0.267,6.183,7.816,18.05,22.65
			c7.8,9.767,12.983,15.55,15.55,17.35c1.3,0.933-0.366,1.383-5,1.35l-7.45-0.35l1.5,3.05c0.733,2.067,0.301,3.15-1.3,3.25
			c-1.6,0.167-3.383,0.233-5.35,0.2l-2.55-0.2l4.149,6.3c3.7,5.2,7.75,10.3,12.15,15.3c2.767,3.2,6.383,6.483,10.85,9.85
			c1.167,0.834,2.384,1.7,3.65,2.601c3.833,2.666,5.183,4.416,4.05,5.25c-1.1,0.733-3.667,0.883-7.7,0.45
			c-0.8-0.101-1.616-0.2-2.45-0.301c-5.1-0.767-7.649-0.949-7.649-0.55c0,0.5,0.783,1.8,2.35,3.9c1.033,1.866,0.483,3.133-1.649,3.8
			c-2.167,0.6-4.684,0.767-7.551,0.5l-3.75-0.5l2.4,6.1c0.7,1.4,1.5,2.801,2.4,4.2c2.566,4,5.899,8.15,10,12.45
			c1.633,1.7,3.6,3.5,5.899,5.4c0.5,0.399,1.033,0.8,1.601,1.199c6.699-4.899,13.883-11.25,21.55-19.05
			c0.2-0.2,0.383-0.399,0.55-0.6c4.267-4.334,7.767-8.167,10.5-11.5c-7.3,1.767-10.684,0.666-10.15-3.3
			c0.2-1.233,0.768-2.667,1.7-4.301c0.467-0.833,0.917-1.55,1.351-2.149c-9.5,2.7-13.134,2-10.9-2.101l6.15-7
			c4.533-3.6,9.866-9.1,16-16.5c3.033-3.7,5.616-7.017,7.75-9.95c-7.301,2.9-10.783,2.783-10.45-0.35l2.85-5.6
			c-8.366,2.7-11.483,2.083-9.35-1.85l5.6-6.7c10.2-9.267,19.15-19.783,26.851-31.55c5-7.6,9.1-15.184,12.3-22.75l-0.05,0.1
			l0.899-2.2c0.101,0.133,0.3,0.367,0.601,0.7l0.399-0.7l1,2.1c3.067,7.467,7.15,15.05,12.25,22.75
			c7.667,11.733,16.617,22.25,26.851,31.55l4.25,5.05c1.366-1.934,2.699-3.883,4-5.85c5-7.633,9.1-15.233,12.3-22.8l-0.05,0.1
			l0.899-2.15c0.101,0.133,0.3,0.35,0.601,0.65l0.399-0.65l1,2.05c3.067,7.467,7.15,15.067,12.25,22.8
			c7.667,11.733,16.634,22.233,26.9,31.5l2.5,3.05l0.1,0.1v7.05h-0.1c-1.591-0.251-3.69-0.784-6.3-1.6l2.75,5.6
			c0.3,2.3-1.533,2.95-5.5,1.95c-4.067-5.1-6.15-7.75-6.25-7.95c-0.134,0.066-9.467,11.7-28,34.9
			c-12.067,15.1-20.117,24.033-24.15,26.8c-1.967,1.467,0.65,2.167,7.85,2.1c3.567-0.1,7.351-0.3,11.351-0.6l-2.2,4.8
			c-1.2,3.167-0.55,4.851,1.95,5.05c3.967,0.301,8.05,0.301,12.25,0c-5.8,9.767-14.184,20.867-25.15,33.301
			c-5.433,6.267-12.933,12.649-22.5,19.149c-5.866,4.134-7.917,6.834-6.149,8.101c1.967,1.366,7.199,1.449,15.699,0.25
			c7.801-1.167,11.7-1.434,11.7-0.801c0,0.733-1.183,2.717-3.55,5.95c-1.633,2.934-0.816,4.884,2.45,5.851
			c3.5,0.933,7.467,1.199,11.899,0.8c2.233-0.134,4.117-0.4,5.65-0.8c-0.4,2.267-1.633,5.416-3.7,9.449
			c-2.3,4.5-5.25,9.101-8.85,13.801C949.5,542.917,935.767,526.8,924,508.8c-7.867-11.899-14.184-23.616-18.95-35.149l-1.5-3.2
			l-0.6,1.05c-0.467-0.5-0.783-0.85-0.95-1.05l-1.35,3.35l0.05-0.149c-4.967,11.699-11.3,23.416-19,35.149
			c-0.3,0.467-0.583,0.917-0.851,1.351c-0.666-0.834-1.366-1.7-2.1-2.601c-13.367-16.7-21.9-27.399-25.6-32.1
			c1.467-1.267,2.982-2.617,4.55-4.05c-0.367,0.066-0.7,0.166-1,0.3c-0.2,0.066-0.417,0.133-0.65,0.2c-0.267,0.066-0.6,0.1-1,0.1
			c-4.8,0.767-7.8,0.134-9-1.9c-0.633-0.199-1.283-0.399-1.95-0.6c-0.366-0.1-0.717-0.217-1.05-0.35
			c-5.133-1.467-7.616-2.084-7.45-1.851c0.268,0.434,1.25,1.851,2.95,4.25c1.5,2.3,2.017,3.601,1.55,3.9
			c-1.5,1.1-4.283,1.333-8.35,0.7l-5.6-1.2l5.449,8.899c1.601,2.2,3.351,4.351,5.25,6.45c-3.833,4.8-8.449,10.55-13.85,17.25
			c-12.066,15.134-20.1,24.084-24.1,26.851c-2,1.466,0.6,2.166,7.8,2.1c3.566-0.134,7.366-0.333,11.399-0.6l-2.25,4.8
			c-1.166,3.166-0.517,4.833,1.95,5c3.967,0.333,8.067,0.333,12.3,0c-5.833,9.767-14.232,20.883-25.199,33.35
			c-0.667,0.767-1.4,1.566-2.2,2.4c-4.533-3.733-8.384-7.434-11.55-11.101c-6.834-7.767-13.101-15.649-18.801-23.649l-6.399-9.7
			l3.95,0.3c3.033,0.033,5.783-0.066,8.25-0.3c2.433-0.167,3.116-1.833,2.05-5l-2.351-4.8l11.5,0.6c7.167,0.066,9.733-0.633,7.7-2.1
			c-3.933-2.767-11.95-11.7-24.05-26.8c-18.267-22.867-27.533-34.5-27.8-34.9c-0.101,0.066-9.417,11.7-27.95,34.9
			c-12.066,15.1-20.117,24.033-24.15,26.8c-1.967,1.467,0.65,2.166,7.851,2.1c3.566-0.1,7.35-0.3,11.35-0.6l-2.2,4.8
			c-1.199,3.167-0.55,4.833,1.95,5c3.934,0.333,8.017,0.333,12.25,0c-5.833,9.8-14.217,20.917-25.149,33.35
			c-4.334,4.967-9.983,10.051-16.95,15.25c-5.867-9.566-10.717-19-14.55-28.3l-1.5-3.2l-0.65,1.051
			c-0.467-0.5-0.767-0.851-0.9-1.051l-1.399,3.351l0.05-0.15c-4.066,9.566-9.033,19.15-14.9,28.75
			c-4.466-4.133-11.6-12.35-21.399-24.649c-18.3-22.867-27.566-34.5-27.8-34.9c-0.101,0.066-9.434,11.7-28,34.9
			c-12.067,15.1-20.101,24.033-24.101,26.8c-2,1.467,0.617,2.166,7.851,2.1c3.533-0.1,7.316-0.3,11.35-0.6l-2.25,4.8
			c-1.167,3.167-0.5,4.833,2,5c3.934,0.333,8.017,0.333,12.25,0c-5.833,9.8-14.233,20.917-25.2,33.35
			c-5.434,6.267-12.934,12.65-22.5,19.15c-5.866,4.134-7.899,6.833-6.1,8.1c1.934,1.367,7.149,1.434,15.649,0.2
			c7.834-1.133,11.75-1.399,11.75-0.8c0,0.767-1.199,2.767-3.6,6c-1.634,2.9-0.816,4.85,2.45,5.85c3.5,0.934,7.467,1.2,11.899,0.801
			c2.267-0.134,4.15-0.4,5.65-0.801c-0.366,2.233-1.583,5.384-3.65,9.45c-3.199,6.233-7.649,12.684-13.35,19.351
			c-12.667-12.467-23.934-26.267-33.8-41.4c-7.867-11.9-14.184-23.6-18.95-35.1l-1.5-3.2l-0.6,1.05c-0.466-0.5-0.783-0.85-0.95-1.05
			l-1.35,3.35l0.05-0.149c-4.933,11.666-11.267,23.366-19,35.1c-8.466,12.967-17.883,24.917-28.25,35.85
			c-1.966-2.233-3.983-4.6-6.05-7.1l-12.05-15.35c11.3,4.5,16.65,4.333,16.05-0.5L440.6,663c12.9,4.2,17.733,3.233,14.5-2.9
			l-8.65-10.35c-15.8-14.333-29.634-30.55-41.5-48.65c-7.833-11.899-14.134-23.616-18.9-35.149l-1.5-3.2l-0.65,1.1
			c-0.466-0.5-0.767-0.866-0.9-1.1l-1.4,3.4l0.05-0.2c-4.933,11.7-11.25,23.416-18.95,35.149c-8.7,13.267-18.417,25.5-29.15,36.7
			c-5.033-3.833-9.183-7.483-12.45-10.95c-8.534-8.966-14.917-17.55-19.15-25.75l-3.75-9.399l5.75,0.8
			c4.433,0.366,8.333,0.1,11.7-0.8c3.3-1,4.15-2.967,2.55-5.9c-2.434-3.233-3.65-5.217-3.65-5.95c0-0.6,3.934-0.333,11.8,0.801
			c8.466,1.199,13.716,1.133,15.75-0.2c1.733-1.3-0.367-4.017-6.3-8.15c-9.466-6.5-16.917-12.883-22.35-19.149
			c-6.833-7.733-13.083-15.601-18.75-23.601l-6.4-9.7l3.9,0.25c3.033,0.034,5.783-0.05,8.25-0.25c2.433-0.199,3.116-1.866,2.05-5
			l-2.35-4.8l11.5,0.55c7.167,0.067,9.733-0.616,7.7-2.05c-3.934-2.8-11.95-11.75-24.05-26.85
			c-18.267-22.867-27.517-34.483-27.75-34.851c-0.133,0.067-9.466,11.684-28,34.851c-12.066,15.1-20.1,24.05-24.1,26.85
			c-2,1.434,0.6,2.117,7.8,2.05c3.566-0.1,7.367-0.283,11.4-0.55l-2.25,4.8c-1.167,3.134-0.517,4.801,1.95,5
			c3.966,0.301,8.066,0.301,12.3,0c-5.833,9.767-14.233,20.867-25.2,33.301c-1.1,1.3-2.284,2.583-3.55,3.85
			c-17.933-22.4-27.017-33.783-27.25-34.15c-0.133,0.067-9.466,11.684-28,34.851c-12.066,15.1-20.117,24.05-24.15,26.85
			c-0.1,0.066-0.183,0.15-0.25,0.25c-2.067-1.967-3.917-3.883-5.55-5.75c-6.833-7.767-13.083-15.649-18.75-23.649l-6.4-9.7
			l3.95,0.25c3,0.066,5.733-0.017,8.2-0.25c2.466-0.167,3.167-1.834,2.1-5l-2.35-4.8l11.45,0.6c7.167,0.066,9.75-0.634,7.75-2.1
			c-3.967-2.767-11.983-11.717-24.05-26.851c-18.3-22.833-27.567-34.45-27.8-34.85c-0.1,0.066-9.433,11.684-28,34.85
			c-12.066,15.134-20.1,24.084-24.1,26.851c-2,1.466,0.617,2.166,7.85,2.1c3.534-0.134,7.317-0.333,11.35-0.6l-2.25,4.8
			c-1.167,3.166-0.517,4.833,1.95,5c3.967,0.333,8.066,0.333,12.3,0c-3.767,6.366-8.617,13.283-14.55,20.75
			C40.25,555.017,30.267,542.533,21.4,529c-7.867-11.9-14.183-23.616-18.95-35.15L1,490.65l-0.65,1.1
			c-0.151-0.161-0.284-0.312-0.4-0.45V462c1.514-1.179,2.914-2.295,4.2-3.35c-1.066,0.267-2.466,0.3-4.2,0.1v-27.225
			c2.983,3.132,5.733,5.69,8.25,7.675l6.2,7c0.2,0.3,0.35,0.616,0.45,0.95c2.367-3.134,4.316-6.167,5.85-9.101
			c1.367-2.633,2.167-4.684,2.4-6.149c-1,0.233-2.217,0.416-3.65,0.55c-2.9,0.233-5.467,0.05-7.7-0.55
			c-2.133-0.634-2.667-1.9-1.6-3.801c1.533-2.1,2.3-3.399,2.3-3.899c0-0.367-2.534-0.184-7.6,0.55c-1.881,0.262-3.514,0.429-4.9,0.5
			v-6.775c5.576-3.927,10.009-7.768,13.3-11.524c7.1-8.066,12.533-15.267,16.3-21.601c-2.733,0.2-5.383,0.2-7.95,0
			c-1.6-0.133-2.017-1.216-1.25-3.25l1.45-3.1c-2.6,0.167-5.066,0.283-7.4,0.35c-4.633,0.033-6.316-0.4-5.05-1.3
			c2.6-1.833,7.816-7.633,15.65-17.4c12-15.033,18.033-22.566,18.1-22.6c0.2,0.233,6.217,7.767,18.05,22.6
			c7.8,9.767,12.983,15.567,15.55,17.4c1.333,0.9-0.333,1.333-5,1.3L64.3,379l1.5,3.1c0.7,2.034,0.25,3.117-1.35,3.25
			c-1.6,0.134-3.383,0.184-5.35,0.15l-2.55-0.15l4.15,6.301c3.7,5.166,7.75,10.267,12.15,15.3c2.767,3.133,6.3,6.333,10.6,9.6
			c2.833-3.666,5.533-7.467,8.1-11.399c5-7.601,9.1-15.184,12.3-22.75l-0.05,0.1l0.9-2.2c0.1,0.167,0.3,0.4,0.6,0.7l0.4-0.7l1,2.1
			c2.8,6.767,6.417,13.65,10.85,20.65c10.534-13.2,15.833-19.816,15.9-19.85c0.167,0.233,6.183,7.767,18.05,22.6
			c6.567,8.233,11.267,13.65,14.1,16.25c0.566,0.467,1.05,0.851,1.45,1.15c1.333,0.934-0.333,1.383-5,1.35l-7.4-0.399l1.45,3.1
			c0.733,2.066,0.3,3.15-1.3,3.25c-1.6,0.134-3.383,0.184-5.35,0.15l-2.55-0.15l4.15,6.3c3.6,5.033,7.534,10,11.8,14.9
			c1.566-1.5,2.967-2.967,4.2-4.4c7.1-8.066,12.534-15.267,16.3-21.6c-2.733,0.233-5.367,0.233-7.9,0
			c-1.6-0.101-2.034-1.184-1.3-3.25l1.45-3.101c-2.6,0.2-5.05,0.334-7.35,0.4c-4.667,0.033-6.367-0.417-5.1-1.35
			c2.6-1.801,7.817-7.601,15.65-17.4c12-15.033,18.034-22.567,18.1-22.6c0.2,0.233,6.217,7.767,18.05,22.6
			c1.033,1.333,2.033,2.566,3,3.7c3.033-2.5,5.6-4.95,7.7-7.351c7.133-8.066,12.583-15.266,16.35-21.6c-2.733,0.2-5.383,0.2-7.95,0
			c-1.6-0.133-2.033-1.217-1.3-3.25l1.45-3.1c-2.6,0.167-5.05,0.283-7.35,0.35c-4.667,0.033-6.367-0.4-5.1-1.3
			c2.6-1.833,7.816-7.633,15.65-17.4c12.034-15.033,18.083-22.566,18.15-22.6c0.167,0.233,6.167,7.767,18,22.6
			c7.833,9.767,13.034,15.567,15.6,17.4c1.3,0.9-0.383,1.333-5.05,1.3l-7.4-0.35l1.5,3.1c0.7,2.033,0.25,3.117-1.35,3.25
			s-3.367,0.183-5.3,0.15l-2.6-0.15l4.2,6.3c3.7,5.167,7.75,10.267,12.15,15.3c3.2,3.7,7.5,7.467,12.9,11.301l0.1-0.15
			c4.567-3.6,9.9-9.1,16-16.5c3.067-3.7,5.667-7.017,7.8-9.95c-7.333,2.9-10.817,2.783-10.45-0.35l2.8-5.6
			c-8.333,2.7-11.434,2.083-9.3-1.85l5.6-6.75c10.2-9.233,19.133-19.733,26.8-31.5c5.034-7.6,9.15-15.183,12.35-22.75l-0.1,0.1
			l0.95-2.2c0.1,0.133,0.283,0.367,0.55,0.7l0.45-0.7l0.95,2.1c3.1,7.467,7.183,15.05,12.25,22.75
			c7.7,11.733,16.667,22.233,26.9,31.5l5.6,6.75c2.1,3.933-1.034,4.55-9.4,1.85l2.8,5.6c0.367,3.133-3.1,3.25-10.4,0.35l7.75,9.95
			c6.133,7.4,11.466,12.9,16,16.5l6.25,6.95c2.2,4.133-1.467,4.85-11,2.149l1.4,2.15c0.466,0.8,0.85,1.566,1.15,2.3
			c0.267,0.7,0.434,1.367,0.5,2c0.566,3.934-2.816,5.033-10.15,3.3l10.5,11.5c5,5.134,9.833,9.667,14.5,13.601l4-4.601
			c4.533-3.6,9.867-9.1,16-16.5c2.833-3.433,5.283-6.533,7.35-9.3c0.133-0.233,0.283-0.45,0.45-0.649
			c-0.6,0.233-1.167,0.449-1.7,0.649c-5.4,1.934-8.3,1.934-8.7,0c-0.1-0.3-0.133-0.633-0.1-1l2.85-5.6
			c-8.367,2.7-11.483,2.083-9.35-1.851l5.6-6.699c10.2-9.267,19.15-19.784,26.85-31.55c4.833-7.367,8.833-14.684,12-21.95
			c0.033-0.066,0.066-0.15,0.1-0.25c0.066-0.2,0.133-0.383,0.2-0.55l-0.05,0.1l0.9-2.2c0.133,0.133,0.333,0.367,0.6,0.7l0.45-0.7
			l0.95,2.1c0.167,0.467,0.367,0.917,0.6,1.35c1.8,4.233,3.933,8.5,6.4,12.8c0.019,0.032,0.035,0.065,0.05,0.1
			c1.621,2.832,3.354,5.666,5.2,8.5c5.967,9.1,12.7,17.483,20.2,25.15c1.733-1.2,3.866-2.583,6.399-4.15
			c10.2-6.133,17.684-11.683,22.45-16.649c5.533-5.8,9.667-11.35,12.4-16.65c1.333-2.633,2.133-4.683,2.399-6.15
			c-1,0.267-2.233,0.45-3.699,0.55c-2.867,0.233-5.417,0.05-7.65-0.55c-2.134-0.633-2.667-1.9-1.6-3.8c1.533-2.1,2.3-3.383,2.3-3.85
			c0-0.4-2.533-0.233-7.601,0.5c-5.5,0.8-8.899,0.75-10.199-0.15c-1.134-0.833,0.199-2.583,4-5.25c6.199-4.2,11.066-8.333,14.6-12.4
			c0.2-0.267,0.4-0.5,0.6-0.7c2.801-3.2,5.334-6.25,7.601-9.15c3.233-4.2,5.934-8.117,8.1-11.75c-2.733,0.2-5.383,0.2-7.95,0
			c-1.6-0.1-2.033-1.184-1.3-3.25l1.45-3.1c-2.6,0.167-5.05,0.283-7.35,0.35c-2.767,0.066-4.467-0.067-5.101-0.4
			c-0.5-0.2-0.483-0.5,0.05-0.9c2.601-1.833,7.801-7.633,15.601-17.4c2.133-2.7,4.1-5.133,5.899-7.3
			c8.101-10.167,12.184-15.267,12.25-15.3c0.167,0.233,6.167,7.767,18,22.6c4.634,5.767,8.334,10.167,11.101,13.2
			c1.934,2.033,3.434,3.433,4.5,4.2c1.267,0.867-0.233,1.3-4.5,1.3c-0.167,0-0.334,0-0.5,0L593,304l1.5,3.1
			c0.733,2.066,0.3,3.15-1.3,3.25c-1.601,0.133-3.384,0.183-5.351,0.15l-2.55-0.15l4.15,6.3c3.5,4.934,7.333,9.8,11.5,14.6
			c0.233,0.2,0.45,0.433,0.649,0.7c0.301,0.367,0.601,0.716,0.9,1.05c0.2,0.2,0.384,0.383,0.55,0.55
			c2.4,2.534,5.316,5.117,8.75,7.75C612.733,341.967,613.7,342.667,614.7,343.4z M955.15,358.7l2.1,4.3c0.8-1,1.583-2,2.35-3
			C958.333,359.7,956.85,359.267,955.15,358.7z M762.55,437.3c0.267,0.434,0.517,0.884,0.75,1.351c1.634-1.434,3.101-2.817,4.4-4.15
			c0.167-0.167,0.333-0.35,0.5-0.55c-2.033,0.3-4.533,0.383-7.5,0.25L762.55,437.3z M222.25,477.85c0.133-0.133-0.867,0.084-3,0.65
			c0.367,0.667,0.75,1.35,1.15,2.05C220.934,479.717,221.55,478.816,222.25,477.85z M164.65,477.05c-1.867,0.533-4,0.75-6.4,0.65
			l6.2,6.95c1.733,3.267-0.217,4.383-5.85,3.35c1.3,2,2.783,4.033,4.45,6.1c5.067-5.466,8.884-10.699,11.45-15.699
			c1.367-2.634,2.167-4.684,2.4-6.15c-0.966,0.267-2.183,0.45-3.65,0.55c-2.9,0.233-5.467,0.05-7.7-0.55
			c0.233,0.333,0.483,0.684,0.75,1.05C167.333,475.167,166.783,476.417,164.65,477.05z M228.35,491.4c1.566-2.301,2.7-4.267,3.4-5.9
			c-1.733,0.5-3.6,0.9-5.6,1.2c-0.5,0.1-1,0.184-1.5,0.25C225.783,488.384,227.017,489.866,228.35,491.4z M233.15,428.45
			c1.333-2.634,2.133-4.684,2.4-6.15c-1,0.233-2.233,0.417-3.7,0.55c-2.867,0.233-5.434,0.051-7.7-0.55
			c-0.233-0.066-0.45-0.149-0.65-0.25c-1.233-0.533-1.684-1.366-1.35-2.5l-4.05-0.2l1.5,3.101c0.7,2.066,0.25,3.149-1.35,3.25
			c-1.6,0.133-3.383,0.184-5.35,0.149l-2.55-0.149l4.15,6.3c2.6,3.667,5.383,7.283,8.35,10.85
			C227.316,437.85,230.75,433.05,233.15,428.45z M292.15,415.45l0.45-0.45c-4.367-0.6-6.55-0.733-6.55-0.4
			c0,0.5,0.784,1.801,2.35,3.9c0.867,1.634,0.567,2.816-0.9,3.55c-0.267,0.101-0.517,0.184-0.75,0.25
			c-2.167,0.601-4.7,0.783-7.6,0.55l-3.7-0.55l2.4,6.15c2.733,5.267,6.867,10.8,12.4,16.6c0.467,0.5,0.983,1.017,1.55,1.55
			c2.567-2.399,5.2-4.983,7.9-7.75c4.267-4.366,7.767-8.199,10.5-11.5c-7.333,1.733-10.733,0.634-10.2-3.3c0.1-0.633,0.3-1.3,0.6-2
			c0.267-0.733,0.633-1.5,1.1-2.3c0.466-0.833,0.917-1.55,1.35-2.15C293.55,420.3,289.917,419.583,292.15,415.45z M157.7,586.05
			l-2.2,4.8c-1.2,3.134-0.55,4.801,1.95,5c3.966,0.301,8.05,0.301,12.25,0c-5.8,9.767-14.184,20.867-25.15,33.301
			c-3.633,4.166-8.167,8.399-13.6,12.699c-4.034-5.066-7.284-10.017-9.75-14.85l-3.75-9.45l5.75,0.8c4.466,0.4,8.367,0.134,11.7-0.8
			c3.3-1,4.15-2.95,2.55-5.85c-2.4-3.233-3.6-5.233-3.6-6c0-0.601,3.917-0.334,11.75,0.8c8.467,1.2,13.717,1.134,15.75-0.2
			c1.733-1.3-0.367-4-6.3-8.1c-5.8-4-10.85-7.95-15.15-11.851c1.434,0.2,3.583,0.284,6.45,0.25
			C149.917,586.5,153.7,586.316,157.7,586.05z M236.65,591.7c-0.4,2.233-1.633,5.366-3.7,9.399c-2.233,4.367-5.067,8.834-8.5,13.4
			c-2.333-2.967-4.567-5.95-6.7-8.95l-6.4-9.7l3.95,0.25c3.034,0.034,5.784-0.05,8.25-0.25c1.9-0.133,2.75-1.199,2.55-3.199
			c1.566,0.033,3.2-0.017,4.9-0.15C233.233,592.333,235.117,592.066,236.65,591.7z M76.05,451.2c-0.333,0.133-0.683,0.283-1.05,0.45
			c0.133,0.133,0.283,0.283,0.45,0.449C75.65,451.8,75.85,451.5,76.05,451.2z M73.6,424.2c0,0.366,0.433,1.166,1.3,2.399
			c0.7-0.8,1.434-1.6,2.2-2.399C74.767,423.967,73.6,423.967,73.6,424.2z M64.85,436.6c1.433-1.333,2.867-2.683,4.3-4.05
			c-0.8,0-1.6-0.033-2.4-0.1L63,431.9L64.85,436.6z M-0.05,408.475v-5.25l1.45,1.726C2.586,407.19,2.103,408.365-0.05,408.475z
			 M12.6,449.9c-1.9,0.133-4.95-0.4-9.15-1.601l1.35,2.15c0.967,1.633,1.517,3.066,1.65,4.3c0.133,0.7,0.117,1.316-0.05,1.85
			c0.7-0.633,1.35-1.283,1.95-1.949C9.883,453.05,11.3,451.467,12.6,449.9z M158.65,667.95c0.367-0.066,0.733-0.15,1.1-0.25
			c-0.033,0.267-0.083,0.566-0.15,0.899C159.267,668.366,158.95,668.15,158.65,667.95z M947.5,364.65l3.95,5.05
			c0.933-1,1.85-2.017,2.75-3.05C952.5,366.417,950.267,365.75,947.5,364.65z M432.65,467.05c0.034,0.101,0.067,0.184,0.1,0.25
			c0.167-0.2,0.333-0.399,0.5-0.6c-0.233,0.033-0.45,0.1-0.65,0.2C432.6,466.934,432.617,466.983,432.65,467.05z M425.05,458.55
			c0.367-0.6,0.717-1.133,1.05-1.6c-0.833,0.267-1.6,0.483-2.3,0.649C424.233,457.934,424.65,458.25,425.05,458.55z M520.75,408.2
			c0.066-0.066-1.616-0.184-5.05-0.351l2.95,3.601C519.95,409.55,520.65,408.467,520.75,408.2z M534.05,420.65
			c-0.467-0.334,0.05-1.634,1.55-3.9c0.767-1.167,1.75-2.583,2.95-4.25c0.233-0.267-2.583,0.45-8.45,2.15
			c-6.267,1.899-10.183,2.716-11.75,2.449h-0.05c-1.633-0.066-4.033-0.616-7.2-1.649l2.75,5.6c0.034,0.367,0.034,0.7,0,1
			c-0.399,1.934-3.283,1.934-8.649,0c-0.567-0.2-1.15-0.416-1.75-0.649l7.8,9.949c5.467,6.667,10.316,11.767,14.55,15.301
			c6.634-5.567,12.2-11.45,16.7-17.65c2-2.7,3.55-5.017,4.65-6.95c0.366-0.7,0.666-1.35,0.899-1.95c-1.733,0.5-3.6,0.917-5.6,1.25
			C538.35,421.983,535.55,421.75,534.05,420.65z M617.1,420.2c1.5-1.066,3.034-2.2,4.601-3.4c-2.033-0.399-4.767-1.116-8.2-2.149
			c-5.833-1.7-8.667-2.417-8.5-2.15c0.267,0.4,1.25,1.816,2.95,4.25c1.5,2.267,2.017,3.566,1.55,3.9c-1.5,1.1-4.3,1.333-8.4,0.699
			l-5.6-1.25l5.5,8.9c5.3,7.267,12.083,14.116,20.35,20.55c1.667,1.334,3.517,2.717,5.551,4.15c1.6-1.367,3.25-2.816,4.949-4.351
			c-9.133,2.2-13.133,0.334-12-5.6c0.334-1.866,1.184-4.017,2.551-6.45c0.666-1.267,1.283-2.3,1.85-3.1
			c-10.667,0.467-15.066-1.75-13.2-6.65c0.634-1.467,1.816-3.133,3.55-5c0.2-0.166,0.384-0.333,0.551-0.5
			C615.816,421.316,616.467,420.7,617.1,420.2z M625.65,412.65c0.133,0.233,0.267,0.466,0.399,0.699c2.134-1.833,4.3-3.767,6.5-5.8
			c-0.533,0.066-1.1,0.117-1.7,0.15c-5.433,0.233-8.133,0.399-8.1,0.5C622.95,408.5,623.917,409.983,625.65,412.65z M619.9,599.5
			l3.949,0.3c3,0.033,5.733-0.066,8.2-0.3c2.467-0.167,3.167-1.833,2.101-5l-2.351-4.8l11.45,0.6c0.866,0,1.667,0,2.4,0
			c-0.467,0.7-0.934,1.417-1.4,2.15c-4.733,7.2-9.767,14.133-15.1,20.8c-0.934-1.366-1.884-2.7-2.851-4L619.9,599.5z M775.9,608.85
			l5.75,0.801c4.433,0.399,8.333,0.133,11.699-0.801c2.033-0.6,3.15-1.6,3.351-3c4.667-0.566,7-0.616,7-0.149
			c0,0.767-1.2,2.767-3.601,6c-1.633,2.899-0.816,4.85,2.45,5.85c3.5,0.934,7.467,1.2,11.9,0.8c2.233-0.133,4.116-0.399,5.649-0.8
			c-0.333,1.8-1.183,4.2-2.55,7.2l-5.85,6.65c-1.134,2.033-1.333,3.533-0.601,4.5c-2.566,3.733-5.533,7.55-8.899,11.449
			c-1.267-1.133-2.417-2.25-3.45-3.35c-8.533-8.967-14.917-17.533-19.15-25.7L775.9,608.85z M694.35,603
			c-0.066,0.134-0.133,0.267-0.199,0.4c-1.467-2.034-2.9-4.051-4.301-6.051c5.367-0.733,8.051-0.85,8.051-0.35
			C697.9,597.767,696.717,599.767,694.35,603z M698.55,609.3c3.067,0.566,6.45,0.684,10.15,0.351c2.233-0.134,4.116-0.4,5.649-0.801
			c-0.399,2.233-1.633,5.384-3.699,9.45c-0.567,1.101-1.167,2.217-1.801,3.351C705.283,617.65,701.85,613.533,698.55,609.3z"/>
		<path fill-rule="evenodd" clip-rule="evenodd" fill="#45A452" d="M1024.05,408.5V768H-0.05V491.3
			c0.116,0.139,0.249,0.289,0.4,0.45l0.65-1.1l1.45,3.199C7.217,505.384,13.533,517.1,21.4,529
			c8.867,13.533,18.85,26.017,29.95,37.45c5.933-7.467,10.783-14.384,14.55-20.75c-4.233,0.333-8.333,0.333-12.3,0
			c-2.467-0.167-3.117-1.834-1.95-5l2.25-4.8c-4.033,0.267-7.816,0.466-11.35,0.6c-7.233,0.066-9.85-0.634-7.85-2.1
			c4-2.767,12.033-11.717,24.1-26.851c18.567-23.166,27.9-34.783,28-34.85c0.233,0.399,9.5,12.017,27.8,34.85
			c12.066,15.134,20.083,24.084,24.05,26.851c2,1.466-0.583,2.166-7.75,2.1l-11.45-0.6l2.35,4.8c1.067,3.166,0.367,4.833-2.1,5
			c-2.467,0.233-5.2,0.316-8.2,0.25l-3.95-0.25l6.4,9.7c5.667,8,11.917,15.883,18.75,23.649c1.633,1.867,3.483,3.783,5.55,5.75
			c0.067-0.1,0.15-0.184,0.25-0.25c4.033-2.8,12.083-11.75,24.15-26.85c18.534-23.167,27.867-34.783,28-34.851
			c0.233,0.367,9.317,11.75,27.25,34.15c1.267-1.267,2.45-2.55,3.55-3.85c10.966-12.434,19.366-23.534,25.2-33.301
			c-4.233,0.301-8.333,0.301-12.3,0c-2.467-0.199-3.117-1.866-1.95-5l2.25-4.8c-4.033,0.267-7.833,0.45-11.4,0.55
			c-7.2,0.067-9.8-0.616-7.8-2.05c4-2.8,12.033-11.75,24.1-26.85c18.534-23.167,27.867-34.783,28-34.851
			c0.233,0.367,9.483,11.983,27.75,34.851c12.1,15.1,20.117,24.05,24.05,26.85c2.033,1.434-0.534,2.117-7.7,2.05l-11.5-0.55
			l2.35,4.8c1.066,3.134,0.383,4.801-2.05,5c-2.467,0.2-5.217,0.284-8.25,0.25l-3.9-0.25l6.4,9.7
			c5.667,8,11.917,15.867,18.75,23.601c5.433,6.267,12.883,12.649,22.35,19.149c5.934,4.134,8.034,6.851,6.3,8.15
			c-2.034,1.333-7.284,1.399-15.75,0.2c-7.867-1.134-11.8-1.4-11.8-0.801c0,0.733,1.217,2.717,3.65,5.95
			c1.6,2.934,0.75,4.9-2.55,5.9c-3.367,0.899-7.267,1.166-11.7,0.8l-5.75-0.8l3.75,9.399c4.233,8.2,10.616,16.784,19.15,25.75
			c3.267,3.467,7.417,7.117,12.45,10.95c10.733-11.2,20.45-23.434,29.15-36.7c7.7-11.733,14.017-23.449,18.95-35.149l-0.05,0.2
			l1.4-3.4c0.133,0.233,0.434,0.6,0.9,1.1l0.65-1.1l1.5,3.2c4.767,11.533,11.067,23.25,18.9,35.149
			c11.866,18.101,25.7,34.317,41.5,48.65l8.65,10.35c3.233,6.134-1.6,7.101-14.5,2.9l4.25,8.65c0.6,4.833-4.75,5-16.05,0.5
			l12.05,15.35c2.066,2.5,4.083,4.866,6.05,7.1c10.367-10.933,19.784-22.883,28.25-35.85c7.733-11.733,14.067-23.434,19-35.1
			l-0.05,0.149l1.35-3.35c0.167,0.2,0.483,0.55,0.95,1.05l0.6-1.05l1.5,3.2c4.767,11.5,11.083,23.199,18.95,35.1
			c9.866,15.134,21.133,28.934,33.8,41.4c5.7-6.667,10.15-13.117,13.35-19.351c2.067-4.066,3.284-7.217,3.65-9.45
			c-1.5,0.4-3.384,0.667-5.65,0.801c-4.433,0.399-8.399,0.133-11.899-0.801c-3.267-1-4.084-2.949-2.45-5.85
			c2.4-3.233,3.6-5.233,3.6-6c0-0.6-3.916-0.333-11.75,0.8c-8.5,1.233-13.716,1.167-15.649-0.2c-1.8-1.267,0.233-3.966,6.1-8.1
			c9.566-6.5,17.066-12.884,22.5-19.15c10.967-12.433,19.367-23.55,25.2-33.35c-4.233,0.333-8.316,0.333-12.25,0
			c-2.5-0.167-3.167-1.833-2-5l2.25-4.8c-4.033,0.3-7.816,0.5-11.35,0.6c-7.233,0.066-9.851-0.633-7.851-2.1
			c4-2.767,12.033-11.7,24.101-26.8c18.566-23.2,27.899-34.834,28-34.9c0.233,0.4,9.5,12.033,27.8,34.9
			c9.8,12.3,16.934,20.517,21.399,24.649c5.867-9.6,10.834-19.184,14.9-28.75l-0.05,0.15l1.399-3.351
			c0.134,0.2,0.434,0.551,0.9,1.051l0.65-1.051l1.5,3.2c3.833,9.3,8.683,18.733,14.55,28.3c6.967-5.199,12.616-10.283,16.95-15.25
			c10.933-12.433,19.316-23.55,25.149-33.35c-4.233,0.333-8.316,0.333-12.25,0c-2.5-0.167-3.149-1.833-1.95-5l2.2-4.8
			c-4,0.3-7.783,0.5-11.35,0.6c-7.2,0.066-9.817-0.633-7.851-2.1c4.033-2.767,12.084-11.7,24.15-26.8
			c18.533-23.2,27.85-34.834,27.95-34.9c0.267,0.4,9.533,12.033,27.8,34.9c12.1,15.1,20.117,24.033,24.05,26.8
			c2.033,1.467-0.533,2.166-7.7,2.1l-11.5-0.6l2.351,4.8c1.066,3.167,0.383,4.833-2.05,5c-2.467,0.233-5.217,0.333-8.25,0.3
			l-3.95-0.3l6.399,9.7c5.7,8,11.967,15.883,18.801,23.649c3.166,3.667,7.017,7.367,11.55,11.101c0.8-0.834,1.533-1.634,2.2-2.4
			c10.967-12.467,19.366-23.583,25.199-33.35c-4.232,0.333-8.333,0.333-12.3,0c-2.467-0.167-3.116-1.834-1.95-5l2.25-4.8
			c-4.033,0.267-7.833,0.466-11.399,0.6c-7.2,0.066-9.8-0.634-7.8-2.1c4-2.767,12.033-11.717,24.1-26.851
			c5.4-6.7,10.017-12.45,13.85-17.25c0.367-0.467,0.717-0.916,1.051-1.35c0.666-1.033,1.533-2.117,2.6-3.25
			c0.033-0.033,0.083-0.084,0.15-0.15c6.8-8.533,10.25-12.816,10.35-12.85c0.066,0.1,0.783,1.017,2.15,2.75
			c3.699,4.7,12.232,15.399,25.6,32.1c0.733,0.9,1.434,1.767,2.1,2.601c0.268-0.434,0.551-0.884,0.851-1.351
			c7.7-11.733,14.033-23.45,19-35.149l-0.05,0.149l1.35-3.35c0.167,0.2,0.483,0.55,0.95,1.05l0.6-1.05l1.5,3.2
			c4.767,11.533,11.083,23.25,18.95,35.149c11.767,18,25.5,34.117,41.2,48.351c3.6-4.7,6.55-9.301,8.85-13.801
			c2.067-4.033,3.3-7.183,3.7-9.449c-1.533,0.399-3.417,0.666-5.65,0.8c-4.433,0.399-8.399,0.133-11.899-0.8
			c-3.267-0.967-4.083-2.917-2.45-5.851c2.367-3.233,3.55-5.217,3.55-5.95c0-0.633-3.899-0.366-11.7,0.801
			c-8.5,1.199-13.732,1.116-15.699-0.25c-1.768-1.267,0.283-3.967,6.149-8.101c9.567-6.5,17.067-12.883,22.5-19.149
			c10.967-12.434,19.351-23.534,25.15-33.301c-4.2,0.301-8.283,0.301-12.25,0c-2.5-0.199-3.15-1.883-1.95-5.05l2.2-4.8
			c-4,0.3-7.783,0.5-11.351,0.6c-7.199,0.067-9.816-0.633-7.85-2.1c4.033-2.767,12.083-11.7,24.15-26.8
			c18.533-23.2,27.866-34.834,28-34.9c0.1,0.2,2.183,2.851,6.25,7.95c2.379,2.974,5.395,6.765,9.05,11.375
			c0.017,0.029,0.033,0.054,0.05,0.075C1024.018,408.463,1024.034,408.479,1024.05,408.5z M236.65,591.7
			c-1.533,0.366-3.417,0.633-5.65,0.8c-1.7,0.134-3.333,0.184-4.9,0.15c0.2,2-0.65,3.066-2.55,3.199
			c-2.466,0.2-5.216,0.284-8.25,0.25l-3.95-0.25l6.4,9.7c2.133,3,4.367,5.983,6.7,8.95c3.433-4.566,6.267-9.033,8.5-13.4
			C235.017,597.066,236.25,593.934,236.65,591.7z M157.7,586.05c-4,0.267-7.784,0.45-11.35,0.55c-2.867,0.034-5.017-0.05-6.45-0.25
			c4.3,3.9,9.35,7.851,15.15,11.851c5.934,4.1,8.034,6.8,6.3,8.1c-2.033,1.334-7.283,1.4-15.75,0.2
			c-7.833-1.134-11.75-1.4-11.75-0.8c0,0.767,1.2,2.767,3.6,6c1.6,2.899,0.75,4.85-2.55,5.85c-3.333,0.934-7.233,1.2-11.7,0.8
			l-5.75-0.8l3.75,9.45c2.466,4.833,5.716,9.783,9.75,14.85c5.433-4.3,9.966-8.533,13.6-12.699
			c10.967-12.434,19.35-23.534,25.15-33.301c-4.2,0.301-8.284,0.301-12.25,0c-2.5-0.199-3.15-1.866-1.95-5L157.7,586.05z
			 M158.65,667.95c0.3,0.2,0.617,0.416,0.95,0.649c0.066-0.333,0.117-0.633,0.15-0.899C159.383,667.8,159.017,667.884,158.65,667.95
			z M619.9,599.5l6.399,9.75c0.967,1.3,1.917,2.634,2.851,4c5.333-6.667,10.366-13.6,15.1-20.8c0.467-0.733,0.934-1.45,1.4-2.15
			c-0.733,0-1.534,0-2.4,0l-11.45-0.6l2.351,4.8c1.066,3.167,0.366,4.833-2.101,5c-2.467,0.233-5.2,0.333-8.2,0.3L619.9,599.5z
			 M698.55,609.3c3.3,4.233,6.733,8.351,10.3,12.351c0.634-1.134,1.233-2.25,1.801-3.351c2.066-4.066,3.3-7.217,3.699-9.45
			c-1.533,0.4-3.416,0.667-5.649,0.801C705,609.983,701.617,609.866,698.55,609.3z M694.35,603c2.367-3.233,3.551-5.233,3.551-6
			c0-0.5-2.684-0.384-8.051,0.35c1.4,2,2.834,4.017,4.301,6.051C694.217,603.267,694.283,603.134,694.35,603z M775.9,608.85
			l3.699,9.45c4.233,8.167,10.617,16.733,19.15,25.7c1.033,1.1,2.184,2.217,3.45,3.35c3.366-3.899,6.333-7.716,8.899-11.449
			c-0.732-0.967-0.533-2.467,0.601-4.5l5.85-6.65c1.367-3,2.217-5.4,2.55-7.2c-1.533,0.4-3.416,0.667-5.649,0.8
			c-4.434,0.4-8.4,0.134-11.9-0.8c-3.267-1-4.083-2.95-2.45-5.85c2.4-3.233,3.601-5.233,3.601-6c0-0.467-2.333-0.417-7,0.149
			c-0.2,1.4-1.317,2.4-3.351,3c-3.366,0.934-7.267,1.2-11.699,0.801L775.9,608.85z"/>
	</g>
</g>
</svg>
