<svg xmlns="http://www.w3.org/2000/svg" viewBox="0 0 3000 3000" xmlns:xlink="http://www.w3.org/1999/xlink"><g clip-path="url(#kittyClipPath)"><g id="tailFur"><clipPath id="tailFurClipPath"><path d="M2843.8 1635s-3.6 27-26.7 75.5c-31.4-98.7-91-197.3-168.6-256-1.8-1.3-4.6-3.2-8.3-5.6-161.3-100.9-374.7-31.8-447.1 144.2l-6.7 16c40.7-31.8 96.3-51.8 96.3-51.8s-19.9 27.2-35.1 47.6c-47.1 63-78 149.5-54.1 228.9 7.5 24.9 26.4 49 50.3 71-121.3 19.7-207.2 143.9-207.2 143.9l-116 136.8 169.4 35.3 96.5 3.5c51.6 15.5 117.1 26.6 199.1 26.6 242.5 0 413.1-159 449.1-329.9 2.8-13.4 5.7-26.8 8.8-40.1 11.3-49.6 34.4-173.2.3-245.9z" fill="none"></path></clipPath><defs><clipPath id="tailClipPath2"><path d="M2282.7,1557.4s-19.9,27.2-35.1,47.6c-47.1,63-78,149.5-54.1,228.9,19.3,64.1,114.8,123.2,174.2,153q9.4,1.1,19.1,1.5a5,5,0,0,0-.4-1.4c-9.7-21.4,6.3-60.3,19-78,15.9-22.3,42.2-34.2,66.2-47.4s48.6-30.9,55.7-57.3l-5,57.7c37.9-18.6,69.3-49.7,89.3-86.9a198.4,198.4,0,0,0,18.5-49.1c-17.9-126-127-217.2-252.6-205.4-44.4,4.2-83.5,20.3-115.2,45.1C2274.6,1560.3,2282.7,1557.4,2282.7,1557.4Z" fill="#Ec79f2"></path></clipPath></defs><g clip-path="url(#tailFurClipPath)"><path fill="#Ec79f2" d="M2842.9 2245.9L1904 2245.9 1904 1357.2 2894.6 1357.2 2842.9 2245.9z"></path><path d="M2561.6 1444c-.2 4.3-.2 8.8 1.9 12.6s7 6.8 10.3 10.5 5.6 9.5 9.8 12.9c5.7 4.7 14.4 4.3 20.9.9s11.6-9.1 16.1-15 7.5-9.9 9.6-15.6 2.3-12.5-.6-17.8c-1.8-3.3-4.6-5.8-7.5-8.2-9.2-7.6-32.7-24.5-45.7-21.8S2562.2 1432.4 2561.6 1444zM2625.8 1541.4c-2.3 6.7-.5 13.7 5.3 16.5s13.7-.3 16.2-6.2-.3-13.6-6.1-16.6-12.5-1.4-15.1 5.6M2684.5 1546.5c-12 5.1-20.8 16-25.7 28.1s-6.2 25.3-6.5 38.3c-.4 16.4 1.7 34.9 14.4 45.3 8.4 6.8 19.8 8.6 30.6 8.5 8.7-.1 18.4-1.7 23.3-8.9s3.5-14.5 6-21.6c3.8-10.8 14.5-17.4 24.2-23.5s19.9-14.1 21.6-25.4C2777.4 1554 2707.2 1537 2684.5 1546.5zM2669.6 1732.1a30.4 30.4 0 0 0-3.8 33.9 16.4 16.4 0 0 0 5.8 6.5c6.8 3.9 15.4.1 23.1 1.4 9.3 1.6 16.4 10.7 25.9 11.2 6.4.3 12.4-3.6 16.2-8.7s5.9-11.3 7.9-17.4c1.4-4.5 2.9-9 3-13.7a26.2 26.2 0 0 0-14.8-24c-11.1-5.1-20.2 1.2-31 2.1C2689.3 1724.6 2679.5 1721 2669.6 1732.1zM2784.2 1788.9c-8.6 3.4-16 9.5-22.5 16.2-8.7 8.9-16.3 19.4-19.1 31.5s-.2 26.1 9 34.4c6.1 5.5 14.1 8 22 10.1 17.3 4.6 35.4 7.9 53 4.6 37.9-7.2 51.5-43.1 37-76.9C2852 1781.4 2808.3 1779.3 2784.2 1788.9zM2873.6 1953.5c-6.7-12.4-13.9-25.3-25.3-33.6-16.7-12.1-41.6-11.4-57.6 1.6-6.7 5.4-11.7 12.5-16.1 19.8-8.6 14.3-15 30.4-15.1 47a29.5 29.5 0 0 0 1.8 11.4c2.3 5.6 7.1 9.8 11.2 14.3 8.2 9.2 13.8 20.7 22.8 29.1s23.9 12.9 33.5 5.2c3-2.4 5.2-5.7 7.2-9a186.1 186.1 0 0 0 19-43M2590.2 2144.3c9.6 5.2 22.3 2.5 29.9-5.3 17.4-17.9 3.1-64.9-25.8-52.8C2574.1 2094.7 2570.6 2133.7 2590.2 2144.3zM2443.9 1975.1a19.6 19.6 0 0 0 25.6 27.8 30.9 30.9 0 0 0 7.9-6.2c3.6-3.7 6.9-7.9 8-12.9a17.7 17.7 0 0 0-6.9-17.9C2467.7 1958.2 2450.4 1964.5 2443.9 1975.1zM2224.3 2019.1a29.8 29.8 0 0 0 6.9 32.8c7.2 6.6 17.4 9.4 24 16.7s8.6 19.7 14.6 28.6c10.3 15.3 34.9 18 48.2 5.3s13.4-31.6 13.2-49c-.1-10.4-.4-21.5-6.6-29.8-10.2-13.7-36.5-20.5-52.5-24.2C2254.5 1995.3 2232 2001.2 2224.3 2019.1zM2420.5 1852.8a19 19 0 0 0-10.9 18.3c.5 6.2 4.1 11.9 4 18.1s-4.5 12.9-5.5 19.7c-1.8 11.6 8.6 23.4 20.3 23.3s19.9-9 27.3-17.2c4.4-4.9 9.1-10.3 9.8-16.8 1.1-10.8-8.2-25.3-14.1-33.9S2431.8 1847.8 2420.5 1852.8zM2144.4 2129.9c.2 9.2 2.4 18.9 9.3 25.1s19.7 7.4 30.4 7.4h8.1c10.5-.1 21.4-.2 31.1-4.5s17.8-13.7 17.2-24.2-7.8-17-15.6-22.2-16.7-8.8-23.9-14.8c-2.8-2.3-5.2-5-8.3-7C2170 2075 2144 2110.5 2144.4 2129.9zM2102.2 2225.1c3 4.8 6.9 8.9 9.6 13.9s4.6 11.9 7 17.8 6.1 11.7 11.9 14.4c7.8 3.6 17.3.3 24-5.1 11.1-8.9 17.2-23.9 14.9-37.9-3.7-22.8-22.5-30.1-42.7-32.2C2109.1 2194.1 2088.7 2204 2102.2 2225.1zM2011.3 2100.1c15.2.3 30.5 3.2 45.6 1.3a72.4 72.4 0 0 0 47.2-26.6c8-10.1 13.3-23.9 8.7-36-6.3-16.8-26.9-22.1-41.1-33.1-12.7-9.8-20.8-24.9-34.5-33.2s-27.9-8.5-41.6-4.2-25.5 13.5-34.4 24.8c-6.5 8.3-11.7 18.1-12.1 28.6-.3 7.4 1.8 14.6 3.8 21.7 4.7 16.4 7.1 43.3 16.9 57.3C1977.6 2111.6 1998.8 2099.8 2011.3 2100.1zM2032 2206.4c4.4 8.3 8.3 17.1 9.1 26.5s-2.2 19.5-9.5 25.4c-10.5 8.7-25.9 6.4-39.3 9.2-10.3 2.1-20 7.5-30.5 7.9-14 .5-27.5-8.6-33.6-21.1-13-26.6 9-67.7 33.3-81.9C1989.8 2156 2019.4 2182.9 2032 2206.4zM2644.6 2022.2c-10.1 7.6-18.5 20.1-15.4 32.4 3.6 14.2 20.3 21 26.8 34.2 3.7 7.4 3.9 16.6 9.4 22.8 8.4 9.4 23.7 6.7 35.2 1.7 13.9-6 27-14.3 36.3-26.2s14.3-27.6 11.1-42.4C2739 2002.8 2672.7 2001.1 2644.6 2022.2zM2310.6 1969.3a27.2 27.2 0 0 0 6.4-8.9c2.8-6.5 2.1-14.1-5.8-21.3C2271.4 1902.5 2264.8 2012.9 2310.6 1969.3zM2182.1 1929.3c-3.2 6.8-2 15.7 3.7 20.5a21.7 21.7 0 0 0 9.3 4.3c2.7.6 18.2 4.7 27.9-4.3a18.3 18.3 0 0 0 5.2-8.3 18.6 18.6 0 0 0-2.2-14.9C2218.1 1915 2188.4 1915.9 2182.1 1929.3zM2752.6 1661.5c-5.1 10.8-3.1 25 5.9 32.7 4.2 3.5 9.4 5.6 14.8 6.8a61.2 61.2 0 0 0 44.5-6.9c2.3-1.4 4.7-3 6-5.4s1.4-4.8 1.6-7.4c.5-8.2.6-16.7-2.7-24.2C2810.2 1628.8 2764.3 1637 2752.6 1661.5zM2594.2 1971.3a13.4 13.4 0 0 0-5.1 9.9 22 22 0 0 0 1.5 9.2c2 4.9 6.9 9 12.2 8.8a15.6 15.6 0 0 0 7.5-2.7c6.8-4.2 11.8-11.7 11.7-19.7q0-.5 0-1c-.8-10.7-13.7-15.9-22-9.1zM2456.3 2112.2a17.8 17.8 0 0 0 8.2 12.2 29.2 29.2 0 0 0 11.7 4.2c7 .8 14.8-2.2 18-8.5a20.7 20.7 0 0 0 1.7-10.5c-.6-10.6-6-21.2-15.3-26.2l-1.2-.6c-13-5.9-27.2 5.7-24.7 19.7zM2659.8 1826a11.2 11.2 0 0 0-8.3 4.2 18.4 18.4 0 0 0-3.6 7c-1.1 4.3.2 9.4 3.9 11.9a13.1 13.1 0 0 0 6.4 1.9c6.7.5 13.8-2 17.6-7.5l.5-.7c4.7-7.6-1.4-17.5-10.4-17.1zM2495.6 1890.9c1.5 5.7 0 11.6-.2 17.5-.3 15 9.8 29.6 23.9 34.6 19.8 7 41-4.1 58.3-16 8.1-5.6 16.3-11.7 21.4-20.1s6.5-19.9.9-28c-10.2-14.8-32.5-28.1-47.4-38.1-11.4-7.7-25.3-15.2-39.4-15.9-12.4-.6-22.1 4.7-26.9 16.4C2478.1 1861.3 2489.7 1873.4 2495.6 1890.9zM2388.3 2108.6a27.4 27.4 0 0 0 10.8 3.8c9.4.9 18.1-5.9 22.9-14.1s6.8-17.6 9.9-26.6 7.9-18.7 9.8-28.6.6-21.2-6.5-28.3c-5.4-5.4-13.5-7.7-21.1-7.3s-15.1 2.9-22.1 6.1C2349.8 2032.4 2346.8 2085.2 2388.3 2108.6zM2650.9 1939.5a21.4 21.4 0 0 0 6.2 6.4c6.3 3.8 14.7 2.1 20.9-2s10.8-10 16.1-15.2 11.9-10.4 16.7-16.6 7.7-14.6 5.2-22.1c-1.9-5.7-6.8-10-12.3-12.4s-11.6-3.1-17.5-3.4C2650.2 1872.8 2629.9 1908.8 2650.9 1939.5zM2714.5 1981a21.9 21.9 0 0 0 15.3-11.2 19.4 19.4 0 0 0-.7-18.8 11.5 11.5 0 0 0-5.6-4.9c-8.4-3-24.6 7.2-26.9 15.5C2693.6 1972.6 2703.7 1983 2714.5 1981zM2106.5 1947c7.2-4.6 12-12.1 16.6-19.4 5.6-9 11.4-18.3 14-28.6s2.1-18.4 1.3-27.7c-.4-4.7-1-9.6-3.6-13.5-4.6-6.9-13.9-8.7-22.2-9.8a7.9 7.9 0 0 0-8.4 2.5l-40.8 38c-9.9 9.2-26.7 20-26.7 35.2C2036.6 1952.8 2087.6 1959.1 2106.5 1947zM2511.3 2031c-10.6 18.6-8.3 43.7 5.5 60.1 3.9 4.6 9.1 8.7 15.1 8.9s12.2-4.5 16.8-9.2a182.9 182.9 0 0 0 18.8-22c8.2-11.3 15.4-25.2 11.9-38.7-2.5-9.6-10.4-17.4-19.7-20.8C2540.2 2002.2 2521 2013.8 2511.3 2031zM2134.7 2029a49.2 49.2 0 0 0 35.9 11c3.6-.3 7.2-1.1 10.3-3s6.1-6.5 8.1-10.5c4.2-8 7.9-17.3 4.7-25.7a25.2 25.2 0 0 0-5-7.6c-13.7-15.1-37.3-19.8-56-12C2110.7 1990.5 2119.5 2016.1 2134.7 2029z" fill="#773c5f"></path><path d="M2282.7,1557.4s-19.9,27.2-35.1,47.6c-47.1,63-78,149.5-54.1,228.9,19.3,64.1,114.8,123.2,174.2,153q9.4,1.1,19.1,1.5a5,5,0,0,0-.4-1.4c-9.7-21.4,6.3-60.3,19-78,15.9-22.3,42.2-34.2,66.2-47.4s48.6-30.9,55.7-57.3l-5,57.7c37.9-18.6,69.3-49.7,89.3-86.9a198.4,198.4,0,0,0,18.5-49.1c-17.9-126-127-217.2-252.6-205.4-44.4,4.2-83.5,20.3-115.2,45.1C2274.6,1560.3,2282.7,1557.4,2282.7,1557.4Z" fill="#Ec79f2"></path><g clip-path="url(#tailClipPath2)" fill="#773c5f"><path d="M2552.2 1821.6c8.3 7.9 20.4 11 31.8 10.1s22.3-5.4 32.3-11 17.4-11 23.3-19.2 9.1-18.9 6.5-28.7-9.4-16.3-16.4-22.7c-29.9-27.5-60.7-29.4-98.3-15.9-18 6.5-12 19.2-4.2 32.7C2537.1 1783.8 2537.5 1807.6 2552.2 1821.6zM2231 1661.6c8.3 7.9 20.4 11 31.8 10.1s22.3-5.4 32.3-11 17.4-11 23.3-19.2 9.1-18.9 6.5-28.7-9.4-16.3-16.4-22.7c-29.9-27.5-60.7-29.4-98.3-15.9-18 6.5-12 19.2-4.2 32.7C2215.9 1623.9 2216.3 1647.6 2231 1661.6zM2436.1 1791.2c-1.5 6.7 1.1 14 5.9 18.8s11.6 7.5 18.5 8.2c4.9.5 10.2 0 14.3-2.8 8.2-5.6 8.3-18.8 1.8-26.3C2467.3 1778.2 2440.4 1772.5 2436.1 1791.2zM2309.5 1706.5c-5.6 13.3-5.5 28.3-3.2 42.6 1.4 8.7 4.4 18.4 12.5 21.8 5 2.1 10.6 1.3 16 .8a122.6 122.6 0 0 1 30.7 1c8.5 1.3 17.1 3.6 25.6 2.2a30.2 30.2 0 0 0 21.4-44.5c-2.3-4.2-5.7-7.9-7.6-12.3-3.5-8-2-17.4-5.4-25.4s-9-11.4-15.5-14.8C2358.2 1664.3 2320.6 1679.9 2309.5 1706.5zM2228.9 1714.4a12.7 12.7 0 0 0 7.7 5.7c5.9 1.6 13-1 15.8-6.4s.3-13.2-5.4-15.4a19.1 19.1 0 0 0-6.3-1 20.6 20.6 0 0 0-6.6.5C2227.8 1699.7 2226 1709.2 2228.9 1714.4zM2241.2 1863.4a36.4 36.4 0 0 0-28.5 29.4 19.7 19.7 0 0 0 .8 10.4c3.5 8.7 14.6 11.4 20.9 18.3s7.7 22.2 16.3 29.6c5.8 5 14.4 5.7 21.8 3.6s13.9-6.4 20.2-10.7c4.6-3.2 9.3-6.4 12.9-10.8a31.4 31.4 0 0 0 3.5-33.6c-6.7-13-20-13.7-30.9-20.7C2265.4 1870.7 2258.7 1860.1 2241.2 1863.4zM2369.6 1896.7c-6.8 11.2-5.3 26.9 3.6 36.6s24.4 12.5 36.2 6.5a48 48 0 0 0 12.3-9.6c5.6-5.7 10.7-12.2 12.5-20a27.5 27.5 0 0 0-10.7-27.8C2406.6 1870.5 2379.6 1880.3 2369.6 1896.7zM2437.2 1705.1a13.4 13.4 0 0 0-5.1 9.9 22 22 0 0 0 1.5 9.2c2 4.9 6.9 9 12.2 8.8a15.6 15.6 0 0 0 7.5-2.7c6.8-4.2 11.8-11.7 11.7-19.7q0-.5 0-1c-.8-10.7-13.7-15.9-22-9.1zM2231.3 1842.5a27.4 27.4 0 0 0 10.8 3.8c9.4.9 18.1-5.9 22.9-14.1s6.8-17.6 9.9-26.6 7.9-18.7 9.8-28.6.6-21.2-6.5-28.3c-5.4-5.4-13.5-7.7-21.1-7.3s-15.1 2.9-22.1 6.1C2192.8 1766.2 2189.8 1819 2231.3 1842.5zM2343.8 1797.7c-18.1 5.2-32 22.5-33.4 41.2-.4 5.3.3 11.1 4.1 14.8s10.5 4.6 16.2 4.5a160.6 160.6 0 0 0 25.3-2.3c12.1-2.1 25.1-6.4 31.3-17.1 4.3-7.6 4.2-17.3.3-25.2C2379.6 1797.3 2360.4 1792.9 2343.8 1797.7z"></path></g><path d="M2470.7 1616.8c-2.3 8.7-2.3 18.9 4 25.4s14.7 6.8 22.9 7.3l56.5 3.6a59.5 59.5 0 0 0 9.9.1 30.4 30.4 0 0 0 24.3-17.9 37.1 37.1 0 0 0 2.6-16.9 49.8 49.8 0 0 0-26.7-40.5C2529.1 1560.2 2481 1578.4 2470.7 1616.8zM2516.1 1546.1c5.6 7.1 14.6 10.9 23.6 11.9s18.1-.6 26.8-2.9c11-2.8 23-7.7 27.5-18.1 3-6.9 2-14.9-.1-22.1s-4.6-12-10.3-13.9-10.4.4-15.6 0c-8-.5-14.3-6.4-20.3-11.8s-13.1-10.7-21-9.6C2503.6 1482.6 2505.4 1532.7 2516.1 1546.1zM2612.4 1664.3a18.6 18.6 0 0 0-13.8 6.9 30.6 30.6 0 0 0-5.9 11.6c-1.8 7.2.3 15.7 6.5 19.8a21.7 21.7 0 0 0 10.6 3.2c11.1.8 22.9-3.4 29.3-12.4l.8-1.2c7.9-12.7-2.3-29-17.2-28.4zM2686.7 1477a18.6 18.6 0 0 0-13.8 6.9 30.6 30.6 0 0 0-5.9 11.6c-1.8 7.2.3 15.7 6.5 19.8a21.7 21.7 0 0 0 10.6 3.2c11.1.8 22.9-3.4 29.3-12.4l.8-1.2c7.9-12.7-2.3-29-17.2-28.4zM2240.8 1493.9c3.8 8.5 10.2 15.5 17.2 21.7 9.3 8.3 20.1 15.4 32.3 17.7s26-1 34-10.6c5.2-6.3 7.4-14.5 9.1-22.5 3.8-17.5 6.3-35.7 2.2-53.1-8.8-37.6-45.3-49.5-78.5-33.6C2230.3 1426.5 2230.1 1470.3 2240.8 1493.9zM2401.3 1397.2c-12.1 7.3-24.7 15-32.5 26.8-11.3 17.3-9.5 42 4.2 57.5 5.7 6.4 13 11.2 20.5 15.2 14.7 7.9 31 13.6 47.7 13a29.5 29.5 0 0 0 11.3-2.3c5.5-2.6 9.5-7.6 13.8-11.8 8.8-8.6 20-14.7 28-24.1s11.8-24.4 3.7-33.7c-2.5-2.9-5.9-4.9-9.3-6.8A186.1 186.1 0 0 0 2445 1414M2420.5 1637.7a21.4 21.4 0 0 0 6.1-6.5c3.6-6.5 1.4-14.8-2.9-20.8s-10.5-10.4-15.9-15.4-10.9-11.5-17.4-15.9-14.9-7-22.3-4.2c-5.6 2.2-9.7 7.2-11.9 12.8s-2.6 11.7-2.6 17.7C2354 1641.4 2390.8 1660.1 2420.5 1637.7zM2455.8 1555a21.9 21.9 0 0 0-11.9-14.8 19.4 19.4 0 0 0-18.8 1.5 11.5 11.5 0 0 0-4.6 5.8c-2.6 8.5 8.3 24.3 16.7 26.2C2448.3 1576.2 2458.3 1565.7 2455.8 1555zM2490.8 1711.7a16.9 16.9 0 0 0 3.5 6.2c4 4.2 10.8 4.6 16.4 2.8s10.3-5.4 15.4-8.3 11.2-5.5 16.1-9.3 8.9-9.6 8.5-15.8-3.1-9-6.8-12-8.2-4.8-12.7-6.2C2503.9 1660.7 2481 1683.9 2490.8 1711.7z" fill="#773c5f"></path><defs><clipPath id="tailShadowClipPath"><path d="M2843.8 1635s-3.6 27-26.7 75.5c-31.4-98.7-91-197.3-168.6-256-1.8-1.3-4.6-3.2-8.3-5.6-161.3-100.9-374.7-31.8-447.1 144.2l-6.7 16c40.7-31.8 96.3-51.8 96.3-51.8s-19.9 27.2-35.1 47.6c-47.1 63-78 149.5-54.1 228.9 7.5 24.9 26.4 49 50.3 71-121.3 19.7-207.2 143.9-207.2 143.9l-116 136.8 169.4 35.3 96.5 3.5c51.6 15.5 117.1 26.6 199.1 26.6 242.5 0 413.1-159 449.1-329.9 2.8-13.4 5.7-26.8 8.8-40.1 11.3-49.6 34.4-173.2.3-245.9z" fill="none"></path></clipPath><linearGradient id="tailShadowGradient" x1="2539.72" y1="1739.67" x2="2539.72" y2="1283.42" gradientUnits="userSpaceOnUse"><stop offset="0" stop-color="#fff" stop-opacity="0"></stop><stop offset=".72" stop-color="#fff"></stop></linearGradient><linearGradient id="tailShadowGradient2" x1="2371.12" y1="1885.86" x2="2523.5" y2="1885.86" href="#tailShadowGradient" xlink:href="#tailShadowGradient"></linearGradient><linearGradient id="tailShadowGradient3" x1="2703.65" y1="1891.5" x2="2893.32" y2="1891.5" href="#tailShadowGradient" xlink:href="#tailShadowGradient"></linearGradient><linearGradient id="tailShadowGradient4" x1="2524.03" y1="1787.87" x2="2627.37" y2="1787.87" href="#tailShadowGradient" xlink:href="#tailShadowGradient"></linearGradient></defs><g clip-path="url(#tailShadowClipPath)"><path fill="none" d="M2841.2 2267.2l-937.3-21.3 265.6-916 742.4 60-70.7 877.3z"></path></g><g clip-path="url(#tailShadowClipPath)" style="mix-blend-mode:multiply"><path d="M2010.4 2076.9s112.9-156 137.5-146.1c-100.8 117.4-26.2 185.8 23 200.3 199.6 59 530.9 111 665.9-164.6l-219 299.4-649.5-3z" fill="#7f7f7f" opacity=".25" style="mix-blend-mode:multiply"></path><path d="M2238 1890.9c-25.5 5.8-25 6.1-25 6.1 3.6 3.7 35.6 103.9 139.1 118.9a6.9 6.9 0 0 0 7.3-9.5c-2.3-5.3-4.4-13-5.7-24.1" fill="#7f7f7f" opacity=".3" style="mix-blend-mode:multiply"></path><path d="M2628.8 1731.1s-19.6 101.4-52.6 138.4a114.9 114.9 0 0 1-69.7 37.5 3.6 3.6 0 0 1-4-4.3c2.3-13-2.2-28.3-2.2-28.3s-121.7 64.6-113.7 115.6c0 0-16-71.9 67.7-119.2s69.7-65.3 69.7-65.3l-1.7 54.7c56.8-11.1 106.5-129.1 106.5-129.1z" fill="#7f7f7f" opacity=".25" style="mix-blend-mode:multiply"></path><path d="M2195.3 1591.4c1-5.3 4.5-9.8 8-13.8a191.2 191.2 0 0 1 106.3-60.8 3.6 3.6 0 0 1 2.9 6.4 173.3 173.3 0 0 0-31.4 31.3c-6.1 7.8-11.5 16.3-18.9 22.9-13.2 11.9-31.1 16.9-48.3 21.6" fill="#7f7f7f" opacity=".25" style="mix-blend-mode:multiply"></path></g><g clip-path="url(#tailShadowClipPath)" style="mix-blend-mode:overlay"><path d="M2262.3 1500s151.6-146.4 378 7.5c93 66.9 162 232.2 162 232.2l14.7-29.2-59.7-377.6-233.3-49.5-150.6 20.2z" opacity=".3" fill="url(#tailShadowGradient)" style="mix-blend-mode:overlay"></path><path d="M2374.2 1931.5c4.8-27.9 20.8-44.5 43-62s47.5-30.9 70-48c16-12.1 28.1-22.6 34.1-39.4a1.2 1.2 0 0 1 2.3.5l-.7 14.7a75.2 75.2 0 0 1-1 13.8 49.5 49.5 0 0 1-8.9 19.2c-24.8 34-74.1 40.5-103.1 71-18.7 19.7-26.5 47.5-26.4 74.2 0 4 2.9 16.3-2.6 14.8-3.7-1-8-8.8-8.7-14.2-2.1-14.8-.6-29.9 2-44.6z" opacity=".3" fill="url(#tailShadowGradient2)" style="mix-blend-mode:overlay"></path><path d="M2842.4 1647.5c5.9 118.9-1.6 137.7-27.2 261.3-20 96.7-86.2 192.2-111.5 226.7 40.5-19.6 59.6-30.7 86.7-66.6s47.7-76.5 65.6-117.8c13.7-31.6 26.1-64.1 32.6-97.9 3.9-20.2 5.7-40.9 4.2-61.4s-6.8-42.4-12-63.3l-12.9-51.9" opacity=".3" fill="url(#tailShadowGradient3)" style="mix-blend-mode:overlay"></path><path d="M2616.4 1728.1c2.5-3.2 6.3-6.7 10-5 3.4 12.3-2.5 25.1-8.3 36.4-10.6 20.5-21.6 41.3-37.9 57.6a149.8 149.8 0 0 1-30.6 23.5c-2.2 1.3-23.3 16.1-25.4 11.4-1.1-2.6 21.2-20.7 23-22.9 17.8-20.8 34.4-37.4 48.5-59.3 8-12.3 11.6-29.9 20.7-41.7z" opacity=".3" fill="url(#tailShadowGradient4)" style="mix-blend-mode:overlay"></path></g></g></g><g id="tail"><g fill="none" stroke="#31323d" stroke-linecap="round" stroke-width="12.5"><path d="M2817.2 1710.6c-31.3-98.7-91-197.4-168.7-256.1-1.8-1.3-4.6-3.2-8.3-5.6-161.3-100.9-374.7-31.8-447.1 144.2l-6.7 16c40.7-31.8 96.3-51.8 96.3-51.8s-19.9 27.2-35.1 47.6c-47.1 63-78 149.5-54.1 228.9 20.6 68.7 128.7 131.6 186.3 158.8 4.1 2 8.5-1.6 6.6-5.7-9.7-21.4 6.3-60.3 19-78 15.9-22.3 42.2-34.2 66.2-47.4s48.6-30.9 55.7-57.3l-5 57.7c37.9-18.6 69.3-49.7 89.3-86.9a198.2 198.2 0 0 0 18.9-50.6" stroke-linejoin="round"></path><path d="M2036.6 2048.8s85.9-124.2 207.2-143.9" stroke-miterlimit="10"></path><path d="M2186.4 2224.4c51.6 15.5 117.1 26.6 199.1 26.6 242.5 0 413.1-159 449.1-329.9 2.8-13.4 5.7-26.8 8.8-40.1 11.5-49.7 34.6-173.3.4-246 0 0-4.8 35.4-37.9 97.8" stroke-linejoin="round"></path></g></g></g><g clip-path="url(#kittyClipPath)"><g id="bodyFur"><clipPath id="furClipPath"><path d="M2200.5,2195.7c-43-29.4-132.4-61.7-179.8-75.5l-0.8-.3a248.8,248.8,0,0,0,10-33.3c18.3,12.9,41.1,5.5,41.1,5.5-25.6-22.7-33.7-60.1-35.3-69.1a252.4,252.4,0,0,0-9.4-59l-28.2-91.6c30,10.5,50.7-4.4,50.7-4.4-44.4-22.3-70.8-70.6-79-87.5l-19.5-63.6c22.9,3.5,40-14.6,40-14.6-20.1-4.7-37.1-17.1-48.8-27.7,27.7,7.7,46.5-5.8,46.5-5.8-42.4-21.3-68.8-65.6-78.3-84l-12.4-40.3c14.7,1.5,28.7-5.8,28.7-5.8-22.2-5.3-35.7-25.6-42.9-40.2l-43-140c60.6,16.9,66.7-17.6,66.7-17.6-51.3-8-72.7-46.7-72.7-46.7,65.3,16.7,75.3-28.7,75.3-28.7-84.7,12.7-149.8-168.7-149.8-168.7l-9-29.4c132.3-30.6,139.2-329.9,139.2-329.9-20.8,11.5-39.9,21-88.2,36.1-53.5,16.7-76.8,23.5-113.1,51.5-34.5,26.7-41.6,47.9-42.8,53.2a240.9,240.9,0,0,0-99.8-45.1,51.5,51.5,0,0,0-10.3-1h-3c-0.7-34.9,47.8-55.3,47.8-55.3-64.5-30-120.4-10.9-150.7,18.1,0.3-56.2,68.8-67.5,68.8-67.5-13.9-19.9-39.4-35.8-101.4-26.3s-85,47.5-104.4,83.1l-0.4,2c-45.2-26-75.3,35.6-75.3,35.6,19.2-5.1,33.7-4.1,44.1-.3a33.3,33.3,0,0,1,16.7,12.6l-2,.9c-29.3,13-48.4,22.2-48.4,22.2a241.6,241.6,0,0,0-43,29.5h0s-3.1-23.6-43.1-54.4c-36.3-28-59.6-34.8-113.1-51.5-48.3-15.1-67.4-24.5-88.2-36.1,0,0,7.1,305,143,330.7l11.4,1.6c-10.9,40-65.8,221.8-165.1,214.7,0,0,49,45,99,15,0,0-16,44.5-74,39.5,0,0,34.8,46.7,86.1,17.1h0l-14.7,77.3c-5.9,13.9-20.7,41.4-47.1,47.8,0,0,20,10.4,37.3,3.9l-4.1,21.8c-6.8,18.1-25,55.7-60.6,64.3,0,0,22.3,11.6,43.6,6.8-10.9,12.9-25.8,28.2-40.9,36.3,0,0,16.5,12.1,36.2,6.3l-26.1,137.3c-4.7,14.1-16.8,40.7-42.7,47,0,0,16.7,8.7,32.8,5.2l-1.8,9.2c-9.5,20.6-28.4,52.9-59.3,71.6,0,0,19.4,11.7,45.5.9l-19.2,100.9a253.2,253.2,0,0,0-2.1,38c-3.9,13.9-14.5,44-36.6,63.1,0,0,25.3,8.6,44.1-7.3a248.1,248.1,0,0,0,7.3,23.7l-0.6.2c-38.1,9.1-130.4,43.4-184.5,78.3-26.5,17.1-10.1,55.9,23.2,55.3l266.9-5.2h0q6.8,4.2,13.9,7.9v3.3c0.4,23.3-6.7,42.4-29.9,43.6-15.6.8-28.2,9.9-30.6,21.1-4.7,21.5,5.8,38.9,27.2,40.4l84.3,5c26.4,1.6,51.9-11.3,65.3-34.1a71.4,71.4,0,0,0,8.8-23.9l5-26.6h533.6l3.5,20.7a71.6,71.6,0,0,0,43.1,54.3,53.5,53.5,0,0,0,22.3,4l91.8-3c22-2.2,30.1-15.7,27.9-36.9-0.7-6.9-6.2-24.5-24.5-25.5-15.8-.9-25.2-8.6-28.1-21.9h0a246.8,246.8,0,0,0,65.3-28l261.6,5C2210.6,2251.6,2226.6,2213.5,2200.5,2195.7Z" fill="none"></path></clipPath><g clip-path="url(#furClipPath)"><path fill="#Ec79f2" d="M725.2 550.5h1509.4v1824.09H725.2z"></path><path fill="#585666" d="M1156.9 2405.5l71.2-358.8c16.2-81.8 100.1-177.6 222.1-177.6h2.1c93.9 0 203.7 76.8 219.2 162.3l60.8 352.3z"></path><path fill="#773c5f" d="M1677.7 1913.8c8.3 7.9 20.4 11.1 31.8 10.2s22.3-5.4 32.3-11 17.4-11 23.3-19.3 9.1-18.9 6.5-28.7-9.4-16.3-16.4-22.7c-29.9-27.5-60.7-29.4-98.2-16-18.1 6.5-12.1 19.2-4.3 32.7 9.9 17 10.3 40.8 25 54.8zM1635.3 1697c-2.4 8.6-2.3 18.9 3.9 25.3s14.7 6.8 22.9 7.3l56.5 3.6a54.7 54.7 0 0 0 9.9.1 30.3 30.3 0 0 0 24.3-17.9 36.2 36.2 0 0 0 2.6-16.9 50 50 0 0 0-26.7-40.5c-35-17.7-83.1.6-93.4 39zM1754.8 1633.4c.4 3.3 1.1 6.9 3.2 9.5s6.4 4.5 9.5 6.9 5.6 6.7 9.4 8.8 11.8 1.4 16.5-2.1 7.8-8.7 10.6-13.8 4.6-8.7 5.4-13.5.2-10.1-2.8-13.9a21.9 21.9 0 0 0-7-5.4c-8.2-4.7-28.8-14.8-38.6-11s-7.3 25.3-6.2 34.5zM1900.2 1565.5c-8.5-5.4-19.7-8.8-28.4-3.7s-11.3 17.3-10.8 27.7c.2 4.1.9 8.6 4.2 11.2 6.6 5.2 16.8-2.3 24.7 1 2.1.9 3.9 2.5 5.9 3.8 4.8 3.1 11.3 3.6 16.2.8s7.7-9.4 5.8-14.7M1859 1638.7c-12 5.1-20.8 16-25.6 28.1s-6.2 25.3-6.5 38.3c-.4 16.4 1.7 34.9 14.4 45.3 8.4 6.8 19.8 8.5 30.6 8.5 8.7-.1 18.5-1.8 23.4-8.9s3.5-14.5 6-21.6c3.8-10.8 14.5-17.4 24.2-23.5s20-14.1 21.6-25.4c4.9-33.3-65.4-50.3-88.1-40.8zM1399.9 1748.9c-14.3 2.7-26.3 15-28.5 29.4a19.3 19.3 0 0 0 .7 10.4c3.5 8.7 14.6 11.4 20.9 18.3 7.7 8.4 7.7 22.2 16.4 29.6 5.8 5 14.4 5.6 21.7 3.6s13.9-6.3 20.3-10.7c4.6-3.1 9.3-6.4 12.8-10.7a31.4 31.4 0 0 0 3.6-33.6c-6.8-13-20-13.8-31-20.8-12.7-8.1-19.4-18.7-36.9-15.5zM1948.7 1876.1c-8.6 3.4-15.9 9.5-22.4 16.2-8.7 8.9-16.3 19.3-19.2 31.5s-.1 26 9.1 34.4c6 5.4 14.1 8 22 10.1 17.3 4.6 35.4 7.9 53 4.5 37.9-7.1 51.5-43 37-76.9-11.6-27.3-55.4-29.4-79.5-19.8zM2020.9 2104.7a178.8 178.8 0 0 1-19 42.9 31.1 31.1 0 0 1-7.1 9c-9.7 7.7-24.5 3.2-33.6-5.2s-14.5-19.9-22.8-29c-4-4.6-8.9-8.7-11.2-14.4a29.3 29.3 0 0 1-1.7-11.4c.1-16.7 6.5-32.7 15.1-47 4.4-7.4 9.5-14.5 16.1-19.9 16.1-13 38.4-9.1 57.6-1.6 15 5.9 21.9 8.4 28.6 20.9l30.9 48.8zM1742.7 2248.7c9.6 5.2 22.4 2.6 30-5.2 17.4-17.9 3.1-64.9-25.8-52.8-20.2 8.4-23.8 47.4-4.2 58zM1881.4 2086.2c-2.4-11.1-8.1-21.7-17-28.8s-21.1-10.2-32-6.9-19.6 13.5-20 24.9c-.1 5.2 1.4 10.4 1.1 15.7-.7 10.6-8.6 19.1-12.4 29.1-7.7 19.9 4.6 45.1 25 51.3 5.8 1.7 12.1 2.1 17.6-.3s18.9-25.3 21.5-32.2M1725.5 2069.8a19.6 19.6 0 0 0 25.6 27.8 31.4 31.4 0 0 0 7.9-6.2c3.6-3.6 6.9-7.9 8-12.9a17.6 17.6 0 0 0-6.9-17.9c-10.8-7.7-28.2-1.4-34.6 9.2zM1501 1727.7c-5.6 13.3-5.5 28.4-3.2 42.6 1.3 8.7 4.4 18.4 12.5 21.8 4.9 2.2 10.6 1.4 16 .8a125.4 125.4 0 0 1 30.6 1c8.6 1.3 17.2 3.6 25.7 2.2a30.3 30.3 0 0 0 21.4-44.5c-2.3-4.2-5.7-7.9-7.6-12.3-3.5-7.9-2-17.4-5.5-25.3s-9-11.5-15.4-14.9c-25.8-13.6-63.4 2-74.5 28.6zM1197.5 1644a29.9 29.9 0 0 0 11.1 31.7c7.9 5.7 18.4 7.2 25.8 13.5s11 18.4 18.1 26.5c12.2 13.8 36.9 13.4 48.6-.8s9.2-33 6.9-50.3c-1.4-10.3-3.2-21.3-10.4-28.8-11.8-12.3-38.8-15.7-55.1-17.4-18-1.8-39.6 6.9-45 25.6zM1471.9 915.8a29.8 29.8 0 0 0-17.1 28.9c.7 9.7 6.4 18.7 6.3 28.5s-7 20.2-8.6 30.9c-2.8 18.2 13.4 36.8 31.8 36.6s31.3-14.2 43-27.1c6.9-7.7 14.2-16.2 15.3-26.5 1.8-17-12.9-39.8-22.2-53.3s-30.8-25.9-48.5-18zM1248 1824c-4.6 8.2-11.8 14.6-17.2 22.3s-9 17.9-5 26.5 11.4 11.3 19.2 12.6c16.1 2.8 32.3-3.7 46.9-11.2 11.7-6 23.2-12.9 31.7-22.9s13.6-23.7 10.7-36.5c-4.4-19.1-30.3-36-49.3-38.2-25.8-2.9-27.9 31.2-37 47.4zM1120.7 1747.8c.2 9.2 2.5 19 9.3 25.1s19.7 7.4 30.4 7.4h8.1c10.5-.1 21.4-.2 31.1-4.5s17.8-13.7 17.2-24.2-7.8-17-15.7-22.2-16.7-8.8-23.8-14.8c-2.8-2.3-5.3-5-8.3-7-22.7-14.6-48.7 20.9-48.3 40.2zM1788.8 1946.1c-6.5-6.5-14.8-12-24-11.8s-19.4 8.2-27.1 15.6l-5.9 5.6c-7.6 7.3-15.4 14.9-19.4 24.6s-3.6 22.2 4.2 29.4 17.3 7 26.6 5.4 18.1-5.2 27.5-5.7c3.6-.2 7.2 0 10.8-.6 26.5-5.1 20.9-48.7 7.3-62.5zM1100.5 1848.1c3 4.7 6.9 8.9 9.6 13.9s4.6 11.9 7 17.8 6.1 11.7 11.9 14.3c7.8 3.6 17.3.3 24-5.1 11-8.9 17.1-23.8 14.9-37.9-3.7-22.7-22.5-30-42.7-32.2-17.8-1.9-38.2 8.1-24.7 29.2zM997.6 1718c15.3.3 30.5 3.3 45.7 1.4a72.7 72.7 0 0 0 47.2-26.6c8-10.2 13.2-24 8.7-36.1-6.3-16.8-26.9-22.1-41.1-33.1-12.7-9.7-20.8-24.8-34.5-33.2s-27.8-8.5-41.5-4.2-25.5 13.6-34.4 24.8c-6.6 8.3-11.7 18.1-12.1 28.7-.3 7.3 1.7 14.6 3.8 21.7 4.7 16.4 7.1 43.3 16.9 57.3 7.6 10.9 28.8-.9 41.3-.7zM1018.3 1824.4c4.5 8.3 8.4 17.1 9.1 26.5s-2.2 19.5-9.5 25.5c-10.5 8.6-25.9 6.4-39.2 9.1-10.3 2.2-20 7.6-30.5 8-14 .5-49.1 10.6-55.2-2-13-26.7 30.6-86.9 54.9-101.1 28.2-16.4 57.8 10.5 70.4 34zM1008 1969.8c-3 12.3-1.6 27.2 8.6 34.8 11.8 8.7 29.1 3.3 42.4 9.4 7.6 3.4 13.6 10.4 21.7 11.6 12.5 2 22.6-9.8 28.4-21 6.9-13.4 11.8-28.2 11.4-43.3s-6.4-30.4-18.2-39.8c-33.7-26.6-86 14.1-94.3 48.3zM1202.6 2160.3c-7-10.9-14.2-22-24.1-30.3s-23.3-13.7-35.9-10.9-23.5 15.3-21.3 28.1c1.2 7.2 6 13.3 9 20 9.2 20.5 1.6 46.8 14.5 65.2a34.6 34.6 0 0 0 27.6 14.6c8.9.2 19.4-5.6 19-14.6M1099.7 2256.7c8.9-3 11.5-15.2 7.8-23.9-6.8-16-28.9-17.7-36.6-1s13.8 30.2 28.8 24.9zM966.3 1976.4a26.5 26.5 0 0 0 2.8-10.6c.3-7.1-3-13.9-12.9-17.9-50.2-20.2-17.4 85.5 10.1 28.5zM1831 1952.6c-3.2 6.8-1.9 15.7 3.8 20.5a20.9 20.9 0 0 0 9.3 4.3 38.3 38.3 0 0 0 27.9-4.3 10.1 10.1 0 0 0 3.7-3.4 10.3 10.3 0 0 0 1-4.6c.3-5.2.4-10.5-1.7-15.2-7.8-17.8-36.6-12.7-44 2.7zM1933.1 1772.7c-5.1 10.7-3.1 25 6 32.7 4.2 3.5 9.4 5.5 14.7 6.8a61.7 61.7 0 0 0 44.5-6.9c2.3-1.4 4.7-3 6-5.4s1.4-4.8 1.6-7.4c.5-8.2.6-16.7-2.7-24.2-12.5-28.3-58.4-20.2-70.1 4.4zM1776.9 1761.5a18.4 18.4 0 0 0-13.8 6.9 32.1 32.1 0 0 0-6 11.6c-1.7 7.2.4 15.7 6.5 19.8 3.1 2.1 6.9 2.9 10.7 3.2 11 .8 22.8-3.4 29.3-12.4l.7-1.2c7.9-12.7-2.3-29-17.2-28.4zM1380.1 965.9a28.5 28.5 0 0 0-21.2 10.6 46.7 46.7 0 0 0-9.1 17.7c-2.7 11 .5 24.1 9.9 30.4 4.8 3.2 10.6 4.5 16.3 4.9 17 1.2 35.2-5.2 45-19.1l1.2-1.7c12-19.5-3.6-44.5-26.4-43.5zM1141.4 2039a18.8 18.8 0 0 0-13.9 6.9 31.9 31.9 0 0 0-5.9 11.6c-1.8 7.2.3 15.7 6.5 19.8 3.1 2.1 6.9 2.9 10.6 3.2 11.1.8 22.9-3.4 29.3-12.4l.8-1.2c7.9-12.7-2.3-29-17.2-28.4zM1575.1 919.7c1.5 5.6 0 11.6-.2 17.5-.3 15 9.8 29.6 23.9 34.6 19.8 7 41-4.1 58.3-16 8.2-5.6 16.3-11.6 21.5-20.1s6.5-19.8.8-27.9c-10.2-14.8-32.5-28.2-47.4-38.1-11.4-7.7-25.3-15.2-39.3-15.9-12.5-.6-22.1 4.6-26.9 16.4-8.2 19.8 3.4 32 9.3 49.5zM1434.3 876.5c2.9 5.2 8.2 8.8 14 10.4 10.7 3 23.6-1.8 28.7-11.7s.5-24.1-9.9-28.2c-3.6-1.4-7.6-1.6-11.5-1.8s-8.2-.1-12.1 1c-11.3 3.4-14.6 20.7-9.2 30.3zM1285.9 940.6a28.2 28.2 0 0 0 5 10.3c6.1 7.2 17.1 8.4 26.2 6s17.2-7.7 25.7-11.9 18.7-7.8 27-13.5 15.3-14.7 15.3-24.7c-.1-7.7-4.2-14.9-9.9-20.1s-12.8-8.5-20-11.2c-43.1-16.2-82.4 19.2-69.3 65.1zM1211 959.3c7.3-4.6 12-12.1 16.6-19.4 5.6-9 11.4-18.3 14-28.6s2.1-18.4 1.3-27.7c-.4-4.7-1-9.6-3.6-13.5-4.6-6.9-13.9-8.7-22.1-9.8-1.8-.2-3.6-.5-5.2.1a12.7 12.7 0 0 0-3.3 2.4l-40.8 38c-9.9 9.2-26.7 20-26.7 35.2-.1 29.1 50.9 35.4 69.8 23.3z"></path><path fill="#585666" d="M1716.4 2296.1c37-5 73.4-16.9 110.7-14.7a79.8 79.8 0 0 1 19.9 3.4c7.1 2.3 13.6 6 20.1 9.7 12.9 7.2 27.1 16.3 29.5 30.8 2.1 12.3-5.6 24.6-15.9 31.6s-22.9 9.5-35.2 11.5c-26.2 4.2-53.4 6.3-79-.9s-49.4-25-57.7-50.2M2020.7 2120.2l-36.6 65.4-68.4 60.3 261.6 5.1 26.9-10.4 8.7-27.1-9.6-15.6-78.3-42.4-104.3-35.3zM928.3 2118.8l36.5 65.4 68.4 60.2-261.6 5.2-32.4-10.6-3.2-26.9 9.6-15.6 78.3-42.4 104.4-35.3zM1045.3 2289.8a90 90 0 0 1 22-7.2c8.7-1.6 17.5-2 26.4-2.3 13.3-.6 26.7-1.1 39.9.8s26.3 6.5 36.5 15.1c2.6 2.2 5.2 4.9 5.8 8.3a16.2 16.2 0 0 1-1.2 7.8c-6 17.6-17.1 33.6-32 44.7s-33.6 17.3-52.2 16.3a146.7 146.7 0 0 1-18.5-2.5l-46.4-8.5c-8.4-1.5-17-3-24.6-6.9s-14.3-10.5-16.2-18.8 1.5-17.8 7.7-23.9 15-9.4 23.7-10.4"></path><path fill="#773c5f" d="M1178.5 1964.5a36.2 36.2 0 0 0 17.7 36.5c3.5 2 7.8 3.4 11.6 2s6.6-5.7 8.4-9.7a125.3 125.3 0 0 0 6.6-18.3c2.5-9.1 3.8-19.5-1.6-27.2a21.1 21.1 0 0 0-17.4-8.5c-14 .2-23.3 12.1-25.3 25.2zM1400.7 1681.5a20.5 20.5 0 0 0 7.3 19.4c6.2 4.9 14.5 5.7 22.4 6.4l11.7 1c7.7.6 16.5.9 22.1-4.4 4.1-3.8 5.4-9.7 6-15.2.3-2.6.5-5.4-.4-7.9-1.8-5.5-7.5-8.5-12.7-11l-14.6-6.4a31.2 31.2 0 0 0-9.3-2.8c-12-1.3-30.3 8.3-32.5 20.9zM1099.2 1602.8a49 49 0 0 0 35.9 11c3.6-.3 7.3-1 10.3-3s6-6.5 8.1-10.5c4.2-7.9 8-17.3 4.7-25.6a25.7 25.7 0 0 0-5-7.6c-13.8-15.1-37.3-19.8-56.1-12-21.8 9.1-13 34.8 2.1 47.7zM1853.4 2200.5c11.7-7.5 28.6-5.4 38.1 4.8 5.1 5.5 8.1 12.9 13.8 17.8 2.4 1.9 5.1 3.5 7.3 5.7s3.7 5.3 2.9 8.3-2.9 4.2-5 5.7c-15.4 11.3-31.1 22.8-49.2 28.8-4.5 1.5-10.4 2.3-13.2-1.6s-.8-8 .8-11.8M1488.8 1639.9a20.7 20.7 0 0 0 20.5 9.5c7.6-1.2 14-6.8 17.3-13.6s3.8-14.8 2.7-22.4c-.5-3.5-1.5-7.2-4-9.7-4-4.1-10.6-4.2-16-2.5-14.6 4.5-29.6 23.3-20.5 38.7zM1442.1 1620c16.9-18.2-3.2-45-21.7-24.5-15 16.7 5.7 41.7 21.7 24.5zM1220.9 1580.6c7.5 3.7 16.9 2.5 23.8-2s11.6-12.3 13.5-20.4a23.6 23.6 0 0 0 .1-11.8c-1.2-3.8-4-7.2-7.8-8.4-5.9-1.9-12 2-17.9 3.7-9.2 2.8-25.4 2.4-25.5 15.9-.1 8 6.8 19.5 13.8 23zM1703.5 1626.4c6.6-2.8 10.1-8.9 8.6-14.4-3.1-11-28.6-17.4-35.1-5s10.2 26.5 26.5 19.4zM1367.9 1736.8c6.2-3.7 9.5-11.6 8.1-18.8-3-14.3-27.2-22.7-33.3-6.5-5.5 14.6 9.7 34.5 25.2 25.3zM1048.5 2097.2c2.4-6.6 8.7-11.8 15.7-12.3s14.2 4.2 16.1 10.9-.4 11.9-1.3 17.8a45.4 45.4 0 0 0 5.5 28.8c2.5 4.4 5.7 8.4 7.5 13.1s1.7 10.6-1.8 14.2-8.2 3.6-12.7 3.8-15.1-4.3-18.8-6.4c-8.2-4.8-17.1-17.1-18.5-32-1.3-12 3.5-25.9 8.3-37.9zM1792.7 1574.4l13 4.1c2.8.9 5.7 1.7 8.6 1 6.3-1.5 9.1-10.5 6.8-17s-7.9-10.7-13.6-13.9c-8.1-4.7-27.3-16.4-33.2-2.9-6.8 15.4 7.1 25.2 18.4 28.7zM1647.5 1792.9c3.9 1.1 8 .7 12 .4l12.5-1.1 20.9-1.8c5.9-.5 12.9-1.7 15.6-7 15.2-29.8-57.4-38.6-71.1-16.3-5.7 9.2-.5 22.9 10.1 25.8zM1561.8 1615.1c-3.7 8.7-2.9 20.1 4.4 26.2s17.8 5.5 23.8 12.1 6.1 17.2 13.9 19.9 12.9-2.9 17.1-8.2c7.8-9.7 13.4-21.7 13.4-34.1a41.7 41.7 0 0 0-16.9-33c-9.1-6.6-23.1-10.2-34.1-6.5-9 3-18 15.1-21.6 23.6zM1603.3 850.4l50.9 36.4 49.3 52.7 49.3 76.6 38.9 63.3c5.2-8.1 1193.7-742.5 1192.5-747.9-2-8.7 0-319.9 0-319.9H1959.8zM1222.2 859.5L818 11.6H18.2v903.2l1046 176.5 38.8-90 28.2-56.9 24.8-29.6 38.3-35.3 27.9-20zM1564.9 1039.5c-13.2 7.1-22.6 22.8-18.6 37.3 3.1 11.2 13.5 19.4 24.7 22.5 16 4.4 34.8-1 44.4-14.5 26.8-37.4-18.9-62.4-50.5-45.3zM1272.4 999.9c10.6 2.3 18.6 10.7 25.7 18.9 11.7 13.4 23.2 28 27.4 45.3s-.8 38.2-16.1 47.3c-10.9 6.5-25.1 5.9-36.2-.3s-18.8-17.2-22.4-29.2c-3.1-10.4-3.3-21.4-5.3-32s-15.8-25.3-10.1-36.1 26.7-16.1 37-13.9zM1825.2 1834.3a30.2 30.2 0 0 0-3.8 33.9 16.6 16.6 0 0 0 5.8 6.5c6.8 4 15.4.1 23.1 1.4 9.4 1.6 16.4 10.7 25.9 11.2 6.4.3 12.4-3.6 16.2-8.7s6-11.3 7.9-17.4c1.5-4.5 2.9-9 3-13.7a26.3 26.3 0 0 0-14.8-24c-11.1-5.1-20.2 1.2-31 2.2-12.6 1.1-22.4-2.5-32.3 8.6zM1606.4 1859.4c1.6 4.6 2.4 10.5-1.2 13.8s-11.1 1.1-16.3-1.4a98.5 98.5 0 0 0-21.6-7.4c-12.3-2.7-29.3-5-30.7-20.7-.9-9.8 5.7-15.1 14.7-17 24.6-5 47.2 9.8 55.1 32.7zM1034.9 1778.6c1.3 9.6 9.4 17.7 18.9 19.6 19.1 3.8 42-21.7 25.1-37.6-15.1-14.2-47.4-5.8-44 18zM955.2 2165.4l15.6 24.6c4.8 7.5 10.2 15.4 18.7 17.9 11.1 3.2 22.9-5.2 27.4-15.8s3.4-22.7 1.6-34.1c-2.1-13.2-5.4-26.8-14-37.1-5.7-6.8-13.5-11.8-18.6-19-3.7-5.3-5.8-11.5-8.4-17.3-5.5-12.2-13.8-23.5-25.4-30s-26.8-7.6-38.1-.5l-51.8 33 4.6 28 65-1 23.4 51.3"></path></g></g><g id="shadow" style="mix-blend-mode:multiply"><defs><clipPath id="bodyShadow__b"><path fill="none" d="M2200.5 2195.7c-43-29.4-132.4-61.7-179.8-75.5l-.8-.3a250.7 250.7 0 0 0 10-33.3c18.2 13 41.1 5.5 41.1 5.5-25.7-22.7-33.7-60.1-35.3-69a259.8 259.8 0 0 0-9.4-59l-28.2-91.6c30 10.4 50.7-4.5 50.7-4.5-44.4-22.3-70.8-70.5-79-87.5l-19.5-63.6c22.8 3.5 40-14.6 40-14.6-20.1-4.6-37.1-17-48.8-27.7 27.7 7.7 46.5-5.8 46.5-5.8-42.4-21.3-68.8-65.5-78.3-84l-12.4-40.4c14.7 1.5 28.7-5.8 28.7-5.8-22.2-5.3-35.8-25.6-42.9-40.2l-43-140c60.6 17 66.7-17.6 66.7-17.6-51.3-8-72.6-46.7-72.6-46.7 65.3 16.7 75.3-28.6 75.3-28.6-84.7 12.6-149.8-168.7-149.9-168.7l-9-29.4c132.3-30.6 139.2-330 139.2-330-20.7 11.6-39.9 21-88.1 36.1-53.6 16.7-76.8 23.5-113.2 51.5-34.5 26.7-41.5 47.9-42.8 53.2a241.8 241.8 0 0 0-99.8-45.1 51.6 51.6 0 0 0-10.4-1h-3c-.7-34.9 47.8-55.4 47.8-55.4-64.5-30-120.4-10.9-150.6 18.2.2-56.3 68.8-67.5 68.8-67.5-13.9-19.9-39.4-35.8-101.4-26.3s-85.1 47.4-104.4 83l-.5 2c-45.1-26-75.3 35.6-75.3 35.6 19.3-5.2 33.7-4.1 44.1-.3a33.2 33.2 0 0 1 16.7 12.5l-2 .9c-29.3 13-48.4 22.2-48.4 22.2a244.5 244.5 0 0 0-43 29.5s-3.1-23.5-43.1-54.4c-36.4-28-59.7-34.8-113.2-51.5-48.3-15.1-67.4-24.6-88.1-36.1 0 0 7 305 142.9 330.7l11.4 1.6c-10.8 39.9-65.8 221.8-165 214.7 0 0 49 45 99 15 0 0-16 44.5-74 39.5 0 0 34.7 46.7 86.1 17.1l-14.7 77.2c-5.9 13.9-20.7 41.5-47.1 47.8 0 0 20 10.4 37.3 3.9l-4.2 21.8c-6.7 18-24.9 55.7-60.5 64.3 0 0 22.2 11.6 43.6 6.8-11 13-25.8 28.2-40.9 36.3 0 0 16.5 12.1 36.2 6.3l-26.1 137.3c-4.7 14.1-16.8 40.7-42.7 46.9 0 0 16.7 8.8 32.8 5.2l-1.8 9.3c-9.5 20.6-28.4 52.8-59.3 71.6 0 0 19.5 11.8 45.5.9l-19.2 100.9a271.4 271.4 0 0 0-2.1 38c-3.9 13.8-14.5 43.9-36.6 63.1 0 0 25.3 8.6 44.1-7.3 2.1 8.1 4.5 16 7.3 23.8l-.6.2c-38.1 9.1-130.5 43.4-184.5 78.3-26.5 17.1-10.1 55.9 23.2 55.3l266.9-5.2c4.5 2.7 9.1 5.4 13.8 7.9v3.3c.4 23.3-6.6 42.4-29.9 43.5-15.6.8-28.2 9.9-30.7 21.1-4.7 21.5 5.9 38.9 27.3 40.4l84.3 5c26.4 1.6 51.8-11.3 65.3-34.1a72.2 72.2 0 0 0 8.8-23.9l5-26.6h533.6l3.4 20.7a71.6 71.6 0 0 0 43.2 54.3 52.6 52.6 0 0 0 22.2 3.9l91.9-3c22-2.2 30.1-15.7 27.8-36.9-.7-7-6.2-24.5-24.4-25.6-15.8-.8-25.3-8.6-28.1-21.9a243.5 243.5 0 0 0 65.3-28l261.5 5.1c33.4.6 49.4-37.5 23.3-55.3z"></path></clipPath><linearGradient id="bodyShadow__c" x1="1169.71" x2="1169.71" y1="834.93" y2="1193.21" gradientUnits="userSpaceOnUse"><stop offset="0" stop-color="gray"></stop><stop offset=".27" stop-color="#7d7d7d"></stop><stop offset=".46" stop-color="#747474"></stop><stop offset=".64" stop-color="#646464"></stop><stop offset=".8" stop-color="#4d4d4d"></stop><stop offset=".95" stop-color="#303030"></stop><stop offset="1" stop-color="#242424"></stop></linearGradient><linearGradient id="bodyShadow__a" x1="933.23" x2="1142.71" y1="871.83" y2="992.77" gradientUnits="userSpaceOnUse"><stop offset="0" stop-color="gray"></stop><stop offset=".09" stop-color="#797979"></stop><stop offset=".22" stop-color="#646464"></stop><stop offset=".39" stop-color="#434343"></stop><stop offset=".57" stop-color="#141414"></stop><stop offset=".64"></stop></linearGradient><linearGradient id="bodyShadow__d" x1="1966.26" x2="2125.9" y1="784.79" y2="1032.96" gradientTransform="matrix(-1, 0.05, 0.05, 1, 3770.84, -97.47)" href="#bodyShadow__a" xlink:href="#bodyShadow__a"></linearGradient></defs><g clip-path="url(#bodyShadow__b)"><path fill="#595959" d="M1213.2 2110.7c-22.2 91.7 60.8 117.5 83.2 119.1 41.2 3.1 203.6 5.7 287.8-7.9 43.7-7 109.2-65.4 87.3-196.3l43 256.8h-533.6z" opacity=".2"></path><path d="M1065.3 1163l42.3-147.3s24.1-130.2 168.1-180.8c5.8 5.3 12.9 18.4 12.8 24.2-83.3 36.9-126.3 94.7-146.7 183.7a328.8 328.8 0 0 1-31.7 84.1c-13 23.9-30.8 49.2-52.4 63.3-18.8 14.3 7.6-27.2 7.6-27.2" opacity=".2"></path><path fill="#595959" d="M1854.3 2157.4s29.9-91.4 66.3-124.9c-39.4 75 14.1 92.7 28.1 87.7 53.7-19.2 74.9-66.7 79.2-150l65.3 116.3s-55 256-204 214l-38.7-18.1z" opacity=".2"></path><path fill="url(#bodyShadow__a)" d="M966.2 814.8s86.4 27.6 132.8 38.7 55.7 57.2 55.7 57.2c-33.7 50.6-53 106.2-60.5 166.1-106.7-29.3-119.1-146.4-128-262z" opacity=".4"></path><path fill="url(#bodyShadow__d)" d="M1862.6 791.3s-86.7 27.1-130.8 45c-59 23.9-55.6 66.1-55.6 66.1 45.9 52.6 57.7 97 74.4 165 99.6-42.6 108.6-160.3 112-276.1z" opacity=".4"></path><path fill="#595959" d="M1706.3 1452.3c1.2 15.3 10.2 47.7 41.4 61-.2-6.2-.3-12.3-.2-18.5s.2-10 1.8-14.7c2.4-7.1 7.8-13.2 8.3-20.6.6 12.5 35.1 10.1 35.1 10.1s-14.1-16.9-7-35.1l-22.1-5.4M1068 1442.5a68.5 68.5 0 0 0 37.5-18.3c-5.5 20.7-11.7 42.5-26.7 57.8 14.6 1.2 29.3-3 42.2-9.9 15-8.1 28.7-21.2 31.5-38a96.4 96.4 0 0 0-19.8-11.7c-13.3-5.9-28.4-8.8-42.9-6-5.7 1.1-11 1.9-12.7 7.9s-4.2 12.9-9.1 18.2z" opacity=".2"></path><path fill="#595959" d="M1083.2 1306.5c-20.4 28.7-48.5 44-83 48.8-11.8 1.7-24.5 1.6-34.6-4.7l16.2 12.8a100.1 100.1 0 0 0 22.4 3.9l-16.8 5.6c-77.2 195.9-94.5 515.9-94 602.6-31.6 166.4 17.2 278.2 79.2 278.2 49.7 0 81 .7 81 .7l-1.3-49c-5-88-29.1-150.8-52.6-176.8v-3.3c-1.8-45.1-12.6-148.1-9.9-196.8-12.7 26.5-55.1 61.1-85.7 66.7 0 0 33.9-46.4 48-69 21.2-11.5 31.2-28.6 34.8-56.4-14.3 29.7-54.5 41.3-54.5 41.3s67.3-66 74.3-148.6c9.4-53.1 35.9-119.9 46.4-164-8.5 10-33.4 79-87.7 79.1 14-11.3 40.5-89.5 61.7-95.5 24.1-8 55-171.5 56.1-175.6zM943.5 1297.8a122.8 122.8 0 0 0 90.3-19.4c7.6-5.2 14.6-11.4 19.4-19.3.6 20.5-3 25.4-12 36-7.7 9-22.7 16.9-34.2 19.6s-23.6 2.8-35.5 2.1c-5.3-.3-10.8-.9-15.2-4" opacity=".2"></path><path fill="#595959" d="M1022.3 1559.3c-1.3 18.5-4.2 25.7-11.9 36.5s-20.7 14.8-31.8 16.6c-5 .8-34.8 1.9-32.4-6.9 1.9-6.7 19.4-.6 34.4-8.2 18.6-9.5 30.1-22.4 41.7-38zM944.3 2040.4c.3 33.5-17.5 56.3-19 50.9-7.7 6.9-16.5 12.3-21.5 12.9-8.1.9-15.5-4-7.1-10.2 6.6-4.8 13.2-9.5 19.2-15.2a137.2 137.2 0 0 0 16-18.1c3.2-4.3 12.5-14.8 12.4-20.3zM1287.2 819.1c17.4 12.1 5.4 41.3 3.4 39.6-4.5-3.6-4.9-10-6.7-15.4-4.1-12.8-17-21.2-30.2-23.9s-26.8-.6-40.1 1.4c5.7-.9 11.8-7.7 17.3-10a48 48 0 0 1 19-3.7 66.2 66.2 0 0 1 37.3 12zM1443 711.2c-29.7-.9-60 7.4-83.7 25.3s-36.1 46.9-38.6 76.5c-2.1-5.4-10.4-11.4-15.3-14.5s-14.3-5.7-18.4-11.8a21.3 21.3 0 0 1-3.1-9.6c-1.8-15.8 3.8-31.6 11.6-45.5 13.2-23.4 33.3-43.2 57.9-54.2s53.6-12.4 78.5-2.3c18.5 7.6 34 21 48 35 1.8 1.7 14 11.5 11.4 14.7s-16.5-12.2-48.3-13.6zM1580.3 776.8c-103.1-3.6-122.1 18.7-160.1 42.3 0 0-1.5-25.6 28.5-50.1s131.6 7.8 131.6 7.8zM1065.2 1346.5s-13 42.6-31.4 65.6l6.5-49zM1058.9 2116.1a65.6 65.6 0 0 1-9.4 53.9l-2.5-14.8c-.5-3.3-1-6.7-.4-10 1.1-6.7 6.8-12.7 5.4-19.4M1166.5 2199.1a89.9 89.9 0 0 0 17.8 55.7l5.1-21.1c.4-1.8.9-3.7.4-5.5s-2.3-3.6-3.9-5.1a101.8 101.8 0 0 1-14.8-17.3M1729.1 2197.1a71.3 71.3 0 0 1-20.8 58.9 220.4 220.4 0 0 1-2.9-22.9 8.6 8.6 0 0 1 .3-3.9 10.3 10.3 0 0 1 2.5-3.4 69.5 69.5 0 0 0 10.4-13.2M1843.7 2113.8a50.3 50.3 0 0 0 13.1 43.4l4.7-13.9a8.4 8.4 0 0 0 .7-4.4 9 9 0 0 0-1.7-3c-1.8-2.3-3.7-4.6-5.7-6.7M1973.9 1860.8a17.9 17.9 0 0 0 2.9 11.9c5.3 8.4 11.8 16.2 19.7 22.1s17.5 10 27.4 10.4a190.9 190.9 0 0 1-24.6-32.6M2016.3 2075.1c-.5 3.8-2.4 11-2.4 14.8-.2 9.9 2.9 19.6 6.4 28.8 1.2 3 2.9 6.4 6 7s6.5-2.5 8.7-5.3l6.5-8.3a5.7 5.7 0 0 0 1.3-2.7 4.4 4.4 0 0 0-.6-2.5l-3.4-8.7a.9.9 0 0 0-.6 1.2M1932.6 1713.1c4.1 15.2 13.7 25 23.1 34.4 3.2 3.2 7.1 6.4 11.5 5.8l-5.3-15.9c-2.2-6.8-4.6-13.9-9.9-18.7-.4-.4-1.2-.4-1 .1M1868.4 1526.7c4.9 15.4 10.8 26.8 17.7 32.2 9.3 7.2 18.1 16.2 29.8 17.5a70.5 70.5 0 0 0-18.9-32.5M1806.5 1339.5c5.4 17.1 10.3 35 23.8 46.7 5.6 4.9 12.3 8.5 19 11.9 3.8 1.9 8 3.8 12.2 3.3-5.1-17.7-11-36.7-25.8-47.6M1817.9 1266.5l46.8 32.3a108 108 0 0 1-19.7-1.1c-6.1-.9-12.7-2.8-15.6-8.2" opacity=".2"></path></g></g><g id="highlight" style="mix-blend-mode:overlay"><defs><clipPath id="bodyHighlight__b"><path fill="none" d="M2200.5 2195.7c-43-29.4-132.4-61.7-179.8-75.5l-.8-.3a250.7 250.7 0 0 0 10-33.3c18.2 13 41.1 5.5 41.1 5.5-25.7-22.7-33.7-60.1-35.3-69a259.8 259.8 0 0 0-9.4-59l-28.2-91.6c30 10.4 50.7-4.5 50.7-4.5-44.4-22.3-70.8-70.5-79-87.5l-19.5-63.6c22.8 3.5 40-14.6 40-14.6-20.1-4.6-37.1-17-48.8-27.7 27.7 7.7 46.5-5.8 46.5-5.8-42.4-21.3-68.8-65.5-78.3-84l-12.4-40.4c14.7 1.5 28.7-5.8 28.7-5.8-22.2-5.3-35.8-25.6-42.9-40.2l-43-140c60.6 17 66.7-17.6 66.7-17.6-51.3-8-72.6-46.7-72.6-46.7 65.3 16.7 75.3-28.6 75.3-28.6-84.7 12.6-149.8-168.7-149.9-168.7l-9-29.4c132.3-30.6 139.2-330 139.2-330-20.7 11.6-39.9 21-88.1 36.1-53.6 16.7-76.8 23.5-113.2 51.5-34.5 26.7-41.5 47.9-42.8 53.2a241.8 241.8 0 0 0-99.8-45.1 51.6 51.6 0 0 0-10.4-1h-3c-.7-34.9 47.8-55.4 47.8-55.4-64.5-30-120.4-10.9-150.6 18.2.2-56.3 68.8-67.5 68.8-67.5-13.9-19.9-39.4-35.8-101.4-26.3s-85.1 47.4-104.4 83l-.5 2c-45.1-26-75.3 35.6-75.3 35.6 19.3-5.2 33.7-4.1 44.1-.3a33.2 33.2 0 0 1 16.7 12.5l-2 .9c-29.3 13-48.4 22.2-48.4 22.2a244.5 244.5 0 0 0-43 29.5s-3.1-23.5-43.1-54.4c-36.4-28-59.7-34.8-113.2-51.5-48.3-15.1-67.4-24.6-88.1-36.1 0 0 7 305 142.9 330.7l11.4 1.6c-10.8 39.9-65.8 221.8-165 214.7 0 0 49 45 99 15 0 0-16 44.5-74 39.5 0 0 34.7 46.7 86.1 17.1l-14.7 77.2c-5.9 13.9-20.7 41.5-47.1 47.8 0 0 20 10.4 37.3 3.9l-4.2 21.8c-6.7 18-24.9 55.7-60.5 64.3 0 0 22.2 11.6 43.6 6.8-11 13-25.8 28.2-40.9 36.3 0 0 16.5 12.1 36.2 6.3l-26.1 137.3c-4.7 14.1-16.8 40.7-42.7 46.9 0 0 16.7 8.8 32.8 5.2l-1.8 9.3c-9.5 20.6-28.4 52.8-59.3 71.6 0 0 19.5 11.8 45.5.9l-19.2 100.9a271.4 271.4 0 0 0-2.1 38c-3.9 13.8-14.5 43.9-36.6 63.1 0 0 25.3 8.6 44.1-7.3 2.1 8.1 4.5 16 7.3 23.8l-.6.2c-38.1 9.1-130.5 43.4-184.5 78.3-26.5 17.1-10.1 55.9 23.2 55.3l266.9-5.2c4.5 2.7 9.1 5.4 13.8 7.9v3.3c.4 23.3-6.6 42.4-29.9 43.5-15.6.8-28.2 9.9-30.7 21.1-4.7 21.5 5.9 38.9 27.3 40.4l84.3 5c26.4 1.6 51.8-11.3 65.3-34.1a72.2 72.2 0 0 0 8.8-23.9l5-26.6h533.6l3.4 20.7a71.6 71.6 0 0 0 43.2 54.3 52.6 52.6 0 0 0 22.2 3.9l91.9-3c22-2.2 30.1-15.7 27.8-36.9-.7-7-6.2-24.5-24.4-25.6-15.8-.8-25.3-8.6-28.1-21.9a243.5 243.5 0 0 0 65.3-28l261.5 5.1c33.4.6 49.4-37.5 23.3-55.3z"></path></clipPath><linearGradient id="bodyHighlight__a" x1="2116.32" x2="2116.32" y1="2248.97" y2="2113.28" gradientUnits="userSpaceOnUse"><stop offset="0" stop-color="#fff" stop-opacity="0"></stop><stop offset=".72" stop-color="#fff"></stop></linearGradient><linearGradient id="bodyHighlight__c" x1="1044.74" x2="1044.74" y1="2253.08" y2="2117.39" gradientTransform="matrix(-1, 0, 0, 1, 1878.82, 0)" href="#bodyHighlight__a" xlink:href="#bodyHighlight__a"></linearGradient></defs><g clip-path="url(#bodyHighlight__b)" opacity=".3"><path fill="#fff" d="M1537.5 850.9s70.7 9.3 102.4 50.6c23.3 30.3 48 80.3 82.3 171.2 70.6 187.3 140.2 213.5 178 206.2-33.5 48.3-72.1 18.6-81.2-11.8-.3 18 4.5 80.2 77.8 86.1-.4 4.4-40.1 25.8-88.4-12.5-.2 7.2 38.6 188.9 102.8 198.8-6.5 5.5-25.7 4.5-34.7-5.7 8.3 68.7 38 140 105.8 138.1 6.2-.1-40.8 2.7-61.1-4.4 8.2 29 24.7 38.7 62.1 40.6-23.1 14.4-47.4-2.9-46.1 4.5 4.4 25.3 2.3 49.1 18 76.2 35.1 61 42.9 83.7 82.6 84.4-54.6 13.1-64.5-21.7-62.1-12.7 12.8 47.5 21.5 73.9 31.5 121.6 1 4.7 1.8 9.5 2.5 14.2 10.9 79.9 35.7 103 63.7 95.7-42.9 9.9-35.8 8.9-55.2-16.3-43 146.2-168.5 183.4-168.5 183.4l.8 14.8c42.7-6.9 65.2-25 99.3-53 0 0 63-74.8 72.5-107.6 72.1-6.5 139-33 117.2-147.7s-114.6-503.8-219.3-721.9c-46.7-97-160.6-146.9-160.6-146.9s-26.6-111.5-76.9-180.9c-24.8-34.1-79.5-71.9-150.2-83.7z"></path><path fill="url(#bodyHighlight__a)" d="M1999.2 2162.4s113.2 21.1 98.3 83.6l92.7 3 43.3-6.5-4.3-68.5-206.9-60.7z"></path><path fill="url(#bodyHighlight__c)" d="M951.2 2166.5s-113.2 21.1-98.3 83.6l-92.7 3-43.3-6.5 4.3-68.5 206.9-60.7z" opacity=".7"></path><path style="mix-blend-mode:overlay" fill="#fff" d="M1124.3 1019.4c-3.4 16.5-13.7 67.7-37.6 139.9-18.5 55.7-47 118.2-145.7 141-63.5 14.7-48 591.8-37.6 596-1.8 9.9 37.8 2.2 57.2-8.2-7.8 41.6-8.8 56.2-13.1 81.4s-22.4 197.5 103.2 256.7v27.4s-82.2-37.7-117.9-136.6c-8.2-22.9-115 8.1-116.6-21.5-9-158 14-706.6 14-706.6l275.3-381.4s9.3-108 174.5-171.1c0 0-137.7 93.4-155.7 183z"></path><path fill="#fff" d="M1572.7 775.9s-69.2-3.4-57.5 51.2a38.9 38.9 0 0 0 24.1 28.2s-23.6-26.8 8.9-56.8zM1494.9 725.7s-38.1-14.9-68.5 21.8c-28.1 34-6.2 71.6-6.2 71.6s.6-35.3 37-56 37.7-37.4 37.7-37.4z"></path></g></g><g id="bodyMask"></g><g id="body"><path fill="#Ec79f2" d="M1707.2 1451.1c12.5 13.8 26.4 28.3 44.1 33.9 2.1-20.6 4.7-41 7.8-61.4 5.1 6.3 10.3 12.8 17 17.4s15.2 7.3 23.1 5.1c-13.9-26.1-16.7-73.7-20.7-102.9 0 0-16.6-22.2-54.3-7.2-35.8 14.2-63 64.5-17 115.1zM1151.8 1432.9c-9.9 18.8-39.2 31.7-59.8 26.4 15.8-26.7 16.4-35.8 20.7-54.2-12.3 10-24.7 16.6-41.1 17.6a104.5 104.5 0 0 0 22.3-53s28.9-50.2 57.9-29.6 0 92.8 0 92.8z"></path><path fill="none" stroke="#31323d" stroke-linecap="round" stroke-miterlimit="10" stroke-width="12.5" d="M1714.5 2282.4h-533.6M2029.3 2089.1c-20.7 88.1-88.7 160.8-178.8 184.8M1050.7 2253.7a251.8 251.8 0 0 1-125.6-158.2"></path><path fill="none" stroke="#31323d" stroke-linecap="round" stroke-miterlimit="10" stroke-width="12.5" d="M1045.5 2139.5l5.3 117.5c.4 23.3-6.6 42.4-29.9 43.5-15.6.8-28.2 9.9-30.7 21.1-4.7 21.5 5.9 38.9 27.3 40.4l84.2 5c26.5 1.6 51.9-11.3 65.4-34.1a72.2 72.2 0 0 0 8.8-23.9l13.2-70.1 2.4-14.6"></path><path fill="#31323d" d="M1095.2 2319.6h-2.2a22.2 22.2 0 0 0-5.8 2 23.6 23.6 0 0 0-6.7 5.5 28.6 28.6 0 0 0-2.8 4 34.5 34.5 0 0 0-2.4 4.7l-.5 1.2-.5 1.2-.4 1.3-.4 1.2c-.6 1.7-1 3.4-1.4 5a18.4 18.4 0 0 1-.5 2.5 15.7 15.7 0 0 1-.4 2.3c-.3 1.6-.4 3.1-.6 4.4s-.2 2.6-.3 3.7-.1 2.1-.2 2.9-.1 2.6-.1 2.6a6.3 6.3 0 1 1-12.5-.6 2.5 2.5 0 0 1 .1-.8s.1-1 .4-2.7.4-1.9.7-3.1.5-2.6.9-4.1.7-3.1 1.3-4.8a24.1 24.1 0 0 1 .8-2.5l.9-2.7c.7-1.8 1.4-3.7 2.3-5.5l.6-1.4.7-1.4.8-1.4.8-1.4a59.1 59.1 0 0 1 3.5-5.2 45.7 45.7 0 0 1 4.3-4.5 28.6 28.6 0 0 1 9.4-5.7 23.5 23.5 0 0 1 7.6-1.6h3.2a2.2 2.2 0 0 1 1.9 2.5 2.4 2.4 0 0 1-2.5 2.4zM1052.7 2314.9h-.6l-1.6.3-2.5.9-.7.3-.8.4-1.6.9-1.6 1.1-1.7 1.4-.8.7-.8.8-1.6 1.7-1.5 2a8.6 8.6 0 0 0-.7 1l-.7 1.1-1.3 2.2c-.4.7-.7 1.6-1.1 2.3l-1 2.4c-.3.9-.6 1.7-.8 2.5a22.5 22.5 0 0 0-.8 2.4l-.6 2.5a38.9 38.9 0 0 0-.9 4.7l-.6 4.3a23.8 23.8 0 0 0-.3 3.6c-.1 1.1-.2 2.1-.2 2.9s-.2 2.4-.2 2.4v.4a6.3 6.3 0 0 1-12.5-.7 1.9 1.9 0 0 1 .1-.8s.2-1 .5-2.8.4-1.9.6-3.1.5-2.5.9-4 .9-3 1.3-4.7 1.2-3.4 1.8-5.2.7-1.8 1-2.7l1.3-2.7 1.4-2.7a19.1 19.1 0 0 1 1.6-2.7l1.6-2.6 2-2.4.9-1.2a5.7 5.7 0 0 1 1.1-1.1l2.1-2.2 2.2-1.8 1.1-.9 1.2-.7a16.4 16.4 0 0 1 2.2-1.4l2.2-1.1 2.1-.8 1-.3.9-.3a33.4 33.4 0 0 1 3.3-.7l2.2-.2h.8a2.3 2.3 0 0 1 2.3 2.2 2.4 2.4 0 0 1-2.2 2.4z"></path><path fill="none" stroke="#31323d" stroke-linecap="round" stroke-miterlimit="10" stroke-width="12.5" d="M1704.9 2225.1l13 78a71.6 71.6 0 0 0 43.2 54.3 52.6 52.6 0 0 0 22.2 3.9l91.9-3c22-2.2 30.1-15.7 27.8-36.9-.7-7-6.2-24.5-24.4-25.6s-29.3-12.5-29-32l1.1-61.9a253.9 253.9 0 0 1 11.8-65.4"></path><path fill="#31323d" d="M1783.2 2307.4h3.2a34.9 34.9 0 0 1 8 1.7 31.5 31.5 0 0 1 5.2 2.1 30.8 30.8 0 0 1 5.2 3.4 35.1 35.1 0 0 1 5 4.5 18.6 18.6 0 0 1 2.2 2.7l1.1 1.4.9 1.4a40.2 40.2 0 0 1 3.3 6.1 36.1 36.1 0 0 1 2.4 6.2c.4 1 .6 2 .9 3s.5 1.9.7 2.9l.6 2.8a23.4 23.4 0 0 1 .4 2.6 40 40 0 0 1 .6 4.5 24.7 24.7 0 0 1 .3 3.5c.2 2 .2 3.1.2 3.1a6.2 6.2 0 0 1-5.8 6.6 6.3 6.3 0 0 1-6.7-5.8v-1s.1-1 .2-2.7.1-1.9.1-3.1v-4a17.7 17.7 0 0 1-.1-2.3l-.3-2.4a11.5 11.5 0 0 0-.3-2.6c-.1-.8-.2-1.7-.4-2.6a35.8 35.8 0 0 0-1.4-5.4 37 37 0 0 0-2-5.2l-.7-1.2-.7-1.3c-.4-.8-1-1.5-1.5-2.3a28 28 0 0 0-3.5-4.1 28.8 28.8 0 0 0-3.9-3.2 33.7 33.7 0 0 0-4-2.3 30.1 30.1 0 0 0-6.7-2.2l-1.9-.3h-.7a2.4 2.4 0 0 1-2.1-2.4 2.4 2.4 0 0 1 2.2-2.1zM1833.8 2304.2h3.2a36.7 36.7 0 0 1 8.1 1.7 30.6 30.6 0 0 1 5.1 2.1 33.9 33.9 0 0 1 5.3 3.4 35.1 35.1 0 0 1 5 4.5c.7.9 1.5 1.7 2.2 2.7l1 1.4 1 1.4a51.5 51.5 0 0 1 3.3 6.1c.9 2.1 1.7 4.1 2.4 6.2l.9 3c.2 1 .5 1.9.7 2.9l.6 2.8c.1.9.3 1.7.4 2.6s.4 3.2.6 4.5.2 2.6.3 3.5.2 3.1.2 3.1a6.3 6.3 0 0 1-5.9 6.6 6.2 6.2 0 0 1-6.6-5.8v-3.7a15.3 15.3 0 0 0 .1-3.1 26.7 26.7 0 0 0 0-4 17.7 17.7 0 0 0-.1-2.3c-.1-.8-.1-1.6-.2-2.4l-.3-2.6c-.1-.8-.3-1.7-.5-2.6a31.6 31.6 0 0 0-1.3-5.3 34.4 34.4 0 0 0-2.1-5.3l-.6-1.2-.7-1.2a19.4 19.4 0 0 0-1.5-2.4 28 28 0 0 0-3.5-4.1 29.5 29.5 0 0 0-4-3.2 27.3 27.3 0 0 0-4-2.3 29.6 29.6 0 0 0-6.6-2.2l-1.9-.3h-.7a2.2 2.2 0 0 1-2.1-2.4 2.2 2.2 0 0 1 2.2-2.1z"></path><path fill="none" stroke="#31323d" stroke-linecap="round" stroke-miterlimit="10" stroke-width="12.5" d="M931.3 2117.4c-38.1 9.1-130.5 43.4-184.5 78.3-26.5 17.1-10.1 55.9 23.2 55.3l267.1-5.5"></path><path fill="#31323d" d="M840.5 2200.1h-.7l-2.1.6-3.1 1-3.9 1.5a46.6 46.6 0 0 0-4.5 2.2 32.4 32.4 0 0 0-4.7 2.8 37.5 37.5 0 0 0-4.4 3.5 24.8 24.8 0 0 0-3.7 4.3l-.8 1.1-.6 1.2a10.4 10.4 0 0 0-1.1 2.4 5.6 5.6 0 0 0-.4 1.2l-.4 1.2c-.1.8-.3 1.6-.4 2.5a4.9 4.9 0 0 1-.1 1.2v2.3c.1.4.1.8.2 1.2a16.6 16.6 0 0 0 .3 2.2c.2.7.3 1.4.5 2.1a30.4 30.4 0 0 0 1.2 3.6 11.4 11.4 0 0 0 1.2 2.7l1.1 2.4.2.3a6.3 6.3 0 1 1-11.3 5.5l-.3-.7-1.1-3.1a32.1 32.1 0 0 1-1.1-3.6c-.4-1.4-.6-3.1-1-5l-.3-2.9c-.1-1-.1-2-.1-3.1a9.7 9.7 0 0 1 .1-1.7c0-.5.1-1.1.1-1.7a10.1 10.1 0 0 1 .3-1.7l.3-1.8a23.5 23.5 0 0 1 1.1-3.5 6.7 6.7 0 0 1 .7-1.8l.8-1.7a33.7 33.7 0 0 1 1.9-3.2l1.2-1.5 1.2-1.5a34.3 34.3 0 0 1 5.3-4.8 45.7 45.7 0 0 1 5.8-3.6 48 48 0 0 1 5.7-2.6 43.5 43.5 0 0 1 5.1-1.7l4.5-1.2 3.5-.7 2.2-.3h.9a2.1 2.1 0 0 1 2.4 1.9 2.2 2.2 0 0 1-1.7 2.5zM793 2202.1h-.6l-1.7.5a33.4 33.4 0 0 0-5.9 2.6 30.6 30.6 0 0 0-7.1 5.1 17.6 17.6 0 0 0-2.9 3.7 16.2 16.2 0 0 0-2 4.2 16.9 16.9 0 0 0-.9 4.5 23.4 23.4 0 0 0 .1 4.6 29.7 29.7 0 0 0 .7 4.3q.6 2.1 1.2 3.9c.3.6.4 1.2.7 1.7l.6 1.5.6 1.4.6 1.1 1.1 2.1v.3a6.3 6.3 0 1 1-11.2 5.6 2 2 0 0 1-.4-.8l-.9-2.7c-.1-.4-.3-.8-.5-1.4a15.4 15.4 0 0 0-.5-1.7 18 18 0 0 0-.5-1.9c-.2-.7-.3-1.5-.5-2.2a38.9 38.9 0 0 1-.8-5.1 34.9 34.9 0 0 1 .5-12.2 19.2 19.2 0 0 1 .9-3.2 20.5 20.5 0 0 1 1.3-3.1 25.5 25.5 0 0 1 3.6-5.6 30.3 30.3 0 0 1 4.5-4.3 43.2 43.2 0 0 1 4.8-3.1 35.7 35.7 0 0 1 4.6-2 44.6 44.6 0 0 1 7-1.9l2.1-.3h.7a2.2 2.2 0 0 1 2.5 1.9 2.2 2.2 0 0 1-1.7 2.4z"></path><path fill="none" stroke="#31323d" stroke-linecap="round" stroke-miterlimit="10" stroke-width="12.5" d="M2020.7 2120.2c47.4 13.8 136.8 46.1 179.8 75.5 26.1 17.8 10.1 55.9-23.2 55.3l-261.6-5.1"></path><path fill="#31323d" d="M2107.6 2193.7h.9l2.2.5a33.4 33.4 0 0 1 3.5.8c1.4.4 2.9.8 4.5 1.4a49.7 49.7 0 0 1 5.2 2 41.8 41.8 0 0 1 5.6 2.8 40.4 40.4 0 0 1 5.7 3.8 36.4 36.4 0 0 1 5.3 5.1l1.2 1.4 1.1 1.6a22.3 22.3 0 0 1 2 3.3c.3.5.5 1.1.8 1.7s.5 1.1.7 1.7l.6 1.8.2.9.2.9a22.5 22.5 0 0 1 .6 3.6 13 13 0 0 1 .2 3.4 39.6 39.6 0 0 1-.3 6.1c-.4 1.9-.6 3.6-1 5a37.2 37.2 0 0 1-1.1 3.8l-1.1 3.1a6.3 6.3 0 0 1-11.9-4.1l.3-.7.2-.3 1.1-2.4a14.7 14.7 0 0 0 1.2-2.8 31.3 31.3 0 0 0 2-8.1 16.9 16.9 0 0 0 .1-2.3 10.3 10.3 0 0 0-.1-2.5v-1.2l-.3-1.2-.3-1.3a5 5 0 0 1-.4-1.3c-.4-.8-.7-1.6-1.2-2.4l-.6-1.3-.8-1.1a31.6 31.6 0 0 0-8.1-8.2 41.3 41.3 0 0 0-4.6-3.1 48.3 48.3 0 0 0-4.5-2.3 67.1 67.1 0 0 0-7.1-2.9l-2.1-.6-.7-.2h-.1a2.2 2.2 0 0 1 1-4.3zM2155.1 2195.7h.7l2.1.5a46.6 46.6 0 0 1 7.1 2.3 48.3 48.3 0 0 1 4.5 2.3 34.3 34.3 0 0 1 4.8 3.3 37.6 37.6 0 0 1 4.4 4.5 32.5 32.5 0 0 1 3.6 5.7c.5 1 .8 2.1 1.2 3.1s.7 2.2 1 3.3a30.6 30.6 0 0 1 .5 3.2c.1 1.1.3 2.2.3 3.2v3.1a28.3 28.3 0 0 0-.2 2.9c-.3 1.8-.5 3.6-.9 5.1a15.5 15.5 0 0 1-.5 2.3c-.2.7-.3 1.4-.5 2a15.4 15.4 0 0 0-.5 1.7l-.5 1.5-1 2.7a6.2 6.2 0 0 1-7.9 3.9 6.3 6.3 0 0 1-3.9-8l.3-.7v-.3l1.1-2.1.6-1.2.6-1.4.6-1.5.7-1.8a31.9 31.9 0 0 0 1.2-4c.1-.7.3-1.4.4-2.1a18.1 18.1 0 0 0 .3-2.3 17.7 17.7 0 0 0 .1-2.3 19.2 19.2 0 0 0 0-2.4 20 20 0 0 0-.4-2.4 19.5 19.5 0 0 0-.6-2.3 17.5 17.5 0 0 0-2-4.4 28.2 28.2 0 0 0-2.9-3.9 34.9 34.9 0 0 0-3.5-3.2 37.5 37.5 0 0 0-3.6-2.4 38.9 38.9 0 0 0-5.9-2.9l-1.7-.6h-.8a2.2 2.2 0 0 1-1.4-2.8 2.1 2.1 0 0 1 2.6-1.6zM1278.2 840.6l-34.6 15.7-8.6 4.1-4.3 2-.6.3h.1l-.2.2-1.1.5-2.1 1.2c-2.8 1.5-5.4 3.1-8 4.7l-3.9 2.4c-1.3.9-2.7 1.7-3.9 2.6-5.2 3.4-10.2 7.1-15.1 10.9l-3.6 2.9-1.8 1.4-1.8 1.6-3.5 3-3.4 3.1-3.4 3.2-3.3 3.3c-2.2 2.2-4.4 4.4-6.4 6.7-4.3 4.5-8.3 9.3-12.1 14.1a221.4 221.4 0 0 0-20.6 30.9 233.2 233.2 0 0 0-15.5 33.7 250.1 250.1 0 0 0-9.9 35.8l-.8 4.6c-.3 1.5-.6 3-.8 4.6l-.6 4.6-.2.9v.6l-.2 1.2-.5 2.3-3.5 18.7-.9 4.7-.5 2.4v1.5l-.3 1.2c-.8 3.1-1.6 6.2-2.5 9.3-1.7 6.2-3.5 12.4-5.4 18.5-3.9 12.3-8 24.4-12.5 36.4-9.1 24.1-19.5 47.7-32.2 70.2a313.4 313.4 0 0 1-20.9 32.8 201.9 201.9 0 0 1-26.1 29.4c-9.8 8.9-20.9 16.8-33.5 22.1a87.1 87.1 0 0 1-19.6 5.9 82.8 82.8 0 0 1-20.5 1l4.7-10.8 1 .9 1.2 1 2.5 1.9 5.2 3.7c3.5 2.3 7.2 4.4 10.9 6.4a92.1 92.1 0 0 0 23.6 8.3 63.3 63.3 0 0 0 47.1-8l15.7-9.4-6.6 16.9-.3.9-.4.8-.6 1.4-1.4 2.8c-1 1.9-2.1 3.6-3.2 5.3a72.9 72.9 0 0 1-7.7 9.7 72.1 72.1 0 0 1-19.6 14.6 75.4 75.4 0 0 1-23.3 7.4 57.9 57.9 0 0 1-6 .7l-6 .4H960l-6-.4 5.6-10 .4.6.6.7 1.1 1.3 2.5 2.6c1.7 1.7 3.5 3.3 5.4 4.9a72.3 72.3 0 0 0 11.9 7.9 57 57 0 0 0 13.2 5 49.8 49.8 0 0 0 13.9 1.4 50.5 50.5 0 0 0 13.8-2.3l3.4-1.1 3.3-1.4c2.2-.9 4.5-1.6 6.8-2.6l1.7-.7.4-.2.3-.2.9-.4 3.3-1.7 6.7-3.8 6.6-4c2.3-1.3 4.4-2.8 6.7-4.1a2.6 2.6 0 0 1 3.2 3.9l-5.6 5.7c-1.9 1.9-3.9 3.7-5.9 5.5l-6.1 5.2-3.2 2.5-.9.7-.4.3-.5.3-1.7 1.2-3.6 2.2a27.5 27.5 0 0 1-3.8 2l-3.9 1.5-4.1 1.3a69.5 69.5 0 0 1-17 2.8 66.1 66.1 0 0 1-17.2-1.7 72.4 72.4 0 0 1-16.1-6.1 78.7 78.7 0 0 1-14.1-9.4 83.7 83.7 0 0 1-6.2-5.7l-3-3a20.9 20.9 0 0 0-1.4-1.7l-.7-.8-.8-1-8.7-11.1 14.3 1.1 5.3.4h5.2l5.3-.3 5.1-.6a66.3 66.3 0 0 0 19.5-6.2 58.7 58.7 0 0 0 16.2-12.1 59.9 59.9 0 0 0 6.3-8 50.8 50.8 0 0 0 2.7-4.3c.4-.8.7-1.5 1.1-2.2l.5-1.1.2-.6.2-.3 9.1 7.4c-2.1 1.2-4.2 2.4-6.4 3.5s-4.4 2-6.7 2.9a75.2 75.2 0 0 1-14.1 3.8 80.2 80.2 0 0 1-28.9-.6 104.3 104.3 0 0 1-26.8-9.5 132.1 132.1 0 0 1-12.1-7.1c-2-1.3-3.9-2.7-5.8-4.1l-2.8-2.2-1.4-1.1-1.5-1.3-13.4-12.2 18.1 1.3a72.3 72.3 0 0 0 34.3-5.9c11-4.6 20.9-11.6 30-19.8a189 189 0 0 0 24.4-27.6 294.9 294.9 0 0 0 20.1-31.5c12.3-21.8 22.5-44.9 31.4-68.5 4.4-11.8 8.5-23.7 12.2-35.7 1.9-6 3.7-12.1 5.4-18.1l2.4-9.1.3-1.1v-.3c-.1.6 0 .1 0 .2v-.8l.5-2.3.9-4.7 3.5-18.7.9-4.4.7-4.8c.2-1.6.5-3.2.8-4.9l.8-4.8a260.2 260.2 0 0 1 10.5-37.7 247.2 247.2 0 0 1 16.3-35.5 242.9 242.9 0 0 1 21.7-32.6c4-5 8.2-10.1 12.7-14.8 2.2-2.5 4.5-4.7 6.7-7.1l3.6-3.4 3.5-3.4 3.6-3.3 3.7-3.1 1.9-1.6 1.9-1.6 3.8-3.1c5.2-3.9 10.4-7.8 15.8-11.4l4.1-2.7 4.2-2.6c2.8-1.7 5.7-3.5 8.5-4.9l2-1.2 1.1-.6h.2l.5-.3h.1l.6-.3 4.3-2 8.7-4.1c11.6-5.4 23.2-10.6 34.9-15.8a6.2 6.2 0 1 1 5 11.4zM1536.7 854.8a43.2 43.2 0 0 1-6.8-11.6 38.9 38.9 0 0 1-2.8-13.7 42.1 42.1 0 0 1 2.3-14.1 50.9 50.9 0 0 1 6.4-12.5 79.8 79.8 0 0 1 18.9-19.1 130.2 130.2 0 0 1 11.1-7.1l5.9-3 3-1.3 3.2-1.3-.2 11.4c-5.9-2.7-12-5.1-18.1-7.2a171.3 171.3 0 0 0-18.7-4.9 133.8 133.8 0 0 0-38.4-1.8 121.4 121.4 0 0 0-36.9 9.8 117.9 117.9 0 0 0-16.7 9.2 106.5 106.5 0 0 0-14.9 11.9l-10.7 10.1v-14.7a65.3 65.3 0 0 1 6.2-28 70 70 0 0 1 17.7-22.6 97.1 97.1 0 0 1 23.7-14.6 118 118 0 0 1 12.9-4.9c2.2-.7 4.4-1.4 6.6-1.9l3.4-.9 1.7-.3 1.9-.4-4.1 9.8a63.6 63.6 0 0 0-9.4-10.6 53.6 53.6 0 0 0-11.6-7.8c-8.5-4.2-18.1-6.5-27.9-7.5a168.2 168.2 0 0 0-30.1.1c-5 .5-10.1 1.1-15.2 1.9a141.3 141.3 0 0 0-14.7 2.8l-7.2 2c-2.4.8-4.8 1.5-7.1 2.4a109.3 109.3 0 0 0-13.5 6.1 106.3 106.3 0 0 0-23.9 17.3 136.8 136.8 0 0 0-19 23c-5.7 8.4-10.7 17.3-15.7 26.4a6.2 6.2 0 1 1-10.9-6c5-9.2 10.2-18.5 16.2-27.4a149.9 149.9 0 0 1 20.8-25.1 119 119 0 0 1 41.6-26c2.6-1 5.2-1.8 7.8-2.6s5.2-1.6 7.9-2.2c5.2-1.3 10.6-2.3 15.9-3.1s10.6-1.4 15.9-1.9a175.3 175.3 0 0 1 32.4-.1c10.9 1.1 22 3.6 32.2 8.8a62.4 62.4 0 0 1 14.3 9.5 68.8 68.8 0 0 1 11.4 12.8l5.6 7.9-9.7 1.8-1.4.3-1.5.3-2.9.8c-2 .5-4 1-6 1.7a95.4 95.4 0 0 0-11.6 4.4 87.5 87.5 0 0 0-20.7 12.8 52.2 52.2 0 0 0-19.5 41.1l-10.6-4.5a130.7 130.7 0 0 1 16.6-13.3 134.5 134.5 0 0 1 18.6-10.2 131 131 0 0 1 40.8-10.8 151.9 151.9 0 0 1 62.2 7.3 192.6 192.6 0 0 1 19.5 7.7l12.6 5.8-12.9 5.6-2.4 1.3-2.6 1.5q-2.5 1.4-5.1 3c-3.3 2-6.6 4.2-9.7 6.5a82.2 82.2 0 0 0-16.5 15.7 39.9 39.9 0 0 0-8.5 19.4 36.3 36.3 0 0 0 .2 10.9 61.6 61.6 0 0 0 2.9 11.4 2.5 2.5 0 0 1-1.5 3.2 2.6 2.6 0 0 1-2.7-.7z"></path><path fill="#31323d" d="M1541.6 826l9.3 1.8 4.8 1.1 4.8 1.1c3.1.9 6.3 1.7 9.4 2.7l4.6 1.4c1.6.4 3.1 1 4.6 1.5a242 242 0 0 1 68.6 36.3 246.3 246.3 0 0 1 29.2 25.7 249.8 249.8 0 0 1 44.6 63.6 256.5 256.5 0 0 1 14.2 36.2l11.1 36.3 11.1 36.3 5.6 18.1 1.4 4.5.7 2.3c-.2-.5 0-.1 0-.1v.3l.2.5.4 1.1 3.4 8.7c4.7 11.6 9.8 23 15.2 34.3s11.3 22.4 17.5 33.2a363.3 363.3 0 0 0 20.2 31.3 223.9 223.9 0 0 0 23.9 28.2c8.7 8.5 18.3 16 28.8 21.1a65.7 65.7 0 0 0 16.4 5.4 53.3 53.3 0 0 0 16.9.3l9.2-1.4-2.2 8.9-.2.6v.4l-.2.9-.6 1.6a18.8 18.8 0 0 1-1.2 3 31 31 0 0 1-3 5.7 48.2 48.2 0 0 1-8 10 42.9 42.9 0 0 1-10.3 7.6 54.7 54.7 0 0 1-11.7 4.9 74.5 74.5 0 0 1-24.3 2.4c-2-.1-4-.2-6-.5s-3.9-.4-5.9-.8l-5.8-1.1-5.7-1.3 7-9.1.6.9.6 1.1 1.5 2.1 3.1 4.1c1.1 1.3 2.2 2.7 3.4 3.9l3.6 3.8 1.9 1.8 2 1.8 4 3.4 2 1.6 2.1 1.5 4.4 2.9a41.2 41.2 0 0 0 4.5 2.7l4.6 2.5 2.3 1.1 2.4 1.1 4.9 2c1.6.5 3.3 1.2 5 1.6l2.5.8 2.5.7 5.1 1.2 5.2.9 6.3 1.2-1.1 6.1-.2.8v.7l-.3 1.1c-.3.8-.5 1.5-.8 2.2a21.7 21.7 0 0 1-1.9 4.1 33.1 33.1 0 0 1-5.3 7 38.2 38.2 0 0 1-14.6 9 39.4 39.4 0 0 1-8 2.1 74.7 74.7 0 0 1-8 .8 86.7 86.7 0 0 1-15.4-1l-7.5-1.5-7.2-1.9-3.5-1.1-.9-.3-.5-.2h-.2l-.8-.3h-.5l-.5-.2a28.9 28.9 0 0 1-3.9-1.5l-3.5-1.6a71.6 71.6 0 0 1-6.6-3.9 68.4 68.4 0 0 1-11.6-9.8 46.1 46.1 0 0 1-4.7-6 2.5 2.5 0 0 1 .6-3.5 2.7 2.7 0 0 1 3.1.2h.1a25.3 25.3 0 0 0 2.6 2.2l1.3 1.1 1.4 1 2.8 2 2.9 1.8a66.3 66.3 0 0 0 5.9 3.1c2.1 1 4.1 1.9 6.2 2.7l3.1 1 3 .8h.7l.9.2 1.9.4 3.4.6c2.3.5 4.5.9 6.8 1.2l6.7.8c2.3.2 4.5.4 6.7.4s4.4 0 6.5-.2a43.4 43.4 0 0 0 6.3-.8 49.1 49.1 0 0 0 5.8-1.5 28.7 28.7 0 0 0 5.3-2.5 23.6 23.6 0 0 0 4.5-3.3 23 23 0 0 0 3.5-4.1c.5-.8.9-1.6 1.3-2.4l.5-1.1.2-.6v-.2c0-.1.1-.2.1-.1l5.2 7.3-5.8-1.1-5.7-1.3-2.9-.8-2.8-.8-5.6-1.9-5.4-2.2-2.7-1.2-2.7-1.3-5.2-2.8-5-3-4.9-3.3-2.4-1.8-2.3-1.8a56.3 56.3 0 0 1-4.5-3.8 20.9 20.9 0 0 1-2.2-2l-2.1-2c-1.4-1.4-2.8-2.8-4.1-4.3s-2.6-2.9-3.9-4.4l-3.6-4.8-1.7-2.5-.8-1.3a8.5 8.5 0 0 1-.9-1.4l-7.2-12.6 14.2 3.5 5.2 1.2 5.3 1 5.2.7 5.3.5a64.6 64.6 0 0 0 20.2-2 45 45 0 0 0 9-3.8 34 34 0 0 0 7.8-5.7 36.6 36.6 0 0 0 6-7.5 34.8 34.8 0 0 0 2.2-4.3l.9-2.2.3-1 .2-.5v-.4l7 7.6a63.7 63.7 0 0 1-20.9-.4 76.4 76.4 0 0 1-19.6-6.4 111.9 111.9 0 0 1-17.2-10.6 154.4 154.4 0 0 1-15-12.9 244.4 244.4 0 0 1-25.2-29.7 373.4 373.4 0 0 1-20.9-32.5c-6.4-11.1-12.4-22.4-17.9-34s-10.8-23.2-15.6-35l-3.5-9-.4-1.2-.2-.5-.3-.9-.7-2.3-1.4-4.5-5.6-18.2-11.2-36.3-11.1-36.3a236.1 236.1 0 0 0-13.5-34.4 238.5 238.5 0 0 0-42.3-60.3 246.7 246.7 0 0 0-27.7-24.4 241.6 241.6 0 0 0-31.2-19.8 231.4 231.4 0 0 0-33.9-14.7l-4.4-1.4-4.4-1.4c-2.9-.9-5.9-1.6-8.9-2.4a36.9 36.9 0 0 0-4.5-1.1l-4.4-1-9.3-1.9a6.2 6.2 0 1 1 2.4-12.2z"></path><path fill="none" stroke="#31323d" stroke-linecap="round" stroke-miterlimit="10" stroke-width="12.5" d="M1184.3 886.5s-3.1-23.5-43.1-54.4c-36.4-28-59.7-34.8-113.2-51.5-48.3-15.1-67.4-24.6-88.1-36.1 0 0 7 305 142.9 330.7l9.7 1.8M1646.4 875.8c2.5-7.7 11.5-27.1 42.1-50.8 36.4-28 59.6-34.8 113.2-51.5 48.2-15.1 67.4-24.5 88.1-36.1 0 0-6.9 299.4-139.2 330"></path><path fill="#31323d" d="M997.6 1591.1l-2.1 2.5-2.3 2.5-4.5 4.9-4.8 4.8-4.9 4.6-5.1 4.5-5.4 4.2c-1.8 1.4-3.7 2.7-5.7 4l-2.9 1.8-3.1 1.8.7-10.5.6.2.7.4 1.5.7 3 1.3 3.2 1.2 3.1.9 1.6.4 1.6.4 3.2.5 3.2.2h3.3a39.3 39.3 0 0 0 12.8-2.8l3.2-1.3a31.3 31.3 0 0 0 3.2-1.5l3.2-1.8 3.3-1.9h.2a2.5 2.5 0 0 1 3.4 1 2.7 2.7 0 0 1 0 2.6 41.5 41.5 0 0 1-2.4 3.4l-1.3 1.6-1.4 1.6c-1 1-2 2-3.1 2.9l-1.6 1.4-1.8 1.2-1.8 1.2-1.9 1.1-2 1-2.1.8-2.1.8a16.6 16.6 0 0 1-2.1.6l-2.2.5-2.2.4-2.3.3h-2.2a33.8 33.8 0 0 1-4.5 0l-4.4-.5-4.4-1-2.1-.6-2-.7c-1.4-.6-2.8-1.1-4.1-1.8a28.2 28.2 0 0 1-3.8-2.1 7.6 7.6 0 0 1-1.9-1.2l-.9-.7-1.1-.8-7.3-5.9 8.1-4.6 2.6-1.5 2.5-1.6 5-3.5a59.8 59.8 0 0 0 4.9-3.9l4.7-4.1 4.6-4.3 4.4-4.5 4.4-4.6 2.1-2.4 2.1-2.4a6.2 6.2 0 0 1 9.4 8.2z"></path><path fill="#31323d" d="M1019.3 1496.7c-.3 1.4-.6 2.4-.9 3.6l-.9 3.4c-.6 2.3-1.3 4.5-2 6.7q-2.1 6.8-4.8 13.2a152.6 152.6 0 0 1-12.9 25.1 97.8 97.8 0 0 1-18.9 21.8 65.8 65.8 0 0 1-26.4 13.7l1.5-11.7 2.1.8 2.2.9 4.6 1.5c3.1 1 6.2 1.8 9.4 2.5a62.4 62.4 0 0 0 18.7 1.3 37.8 37.8 0 0 0 17.1-6 13.3 13.3 0 0 0 1.9-1.4 12.4 12.4 0 0 0 1.8-1.4l1.8-1.6c.6-.5 1.1-1.2 1.7-1.8a39.5 39.5 0 0 0 3.3-3.7l1.5-2 1.4-2v-.2a2.6 2.6 0 0 1 3.6-.5 2.4 2.4 0 0 1 .8 2.9 46.5 46.5 0 0 1-4.8 10.1 40.7 40.7 0 0 1-7.3 8.9 37 37 0 0 1-9.8 6.7 45.1 45.1 0 0 1-11.2 3.9 60.3 60.3 0 0 1-23.2-.1 80.8 80.8 0 0 1-11-2.9c-1.8-.6-3.5-1.4-5.3-2.1l-2.6-1.2-1.2-.7-1.4-.8-14.6-7.5 16-4.1a50.4 50.4 0 0 0 21.3-11.1 83.5 83.5 0 0 0 16.4-19 138.6 138.6 0 0 0 11.8-23 128.8 128.8 0 0 0 4.5-12.3c.7-2.1 1.3-4.1 1.9-6.2l.8-3.2c.3-1 .5-2.1.7-3a6.4 6.4 0 0 1 7.5-4.8 6.3 6.3 0 0 1 4.8 7.4zM1846.6 1358.4l30.1 98 1.9 6.2.5 1.5.2.7.3 1 .9 3.1 3.4 12.4c.2.8.6 1.8.9 2.7l.9 2.8c.7 1.9 1.5 3.8 2.3 5.7a108.8 108.8 0 0 0 5.4 10.8 71.7 71.7 0 0 0 14.5 18.6 45 45 0 0 0 19.5 10.6l16.4 4-14.9 7.6-1.1.7-1 .5-2 .9-4.1 1.7c-1.4.4-2.7.9-4.2 1.2a29.9 29.9 0 0 1-4.3 1l-2.1.4-2.3.2a33.1 33.1 0 0 1-4.5.2 33.9 33.9 0 0 1-4.5-.2 36.5 36.5 0 0 1-4.6-.7l-2.2-.5-2.3-.7a40.3 40.3 0 0 1-4.3-1.9l-2-1.1a13.7 13.7 0 0 1-2-1.3l-1.9-1.4c-.6-.4-1.1-1-1.7-1.5l-1.6-1.6c-.5-.6-1.1-1.1-1.5-1.7l-1.4-1.8-1.2-1.9c-.8-1.2-1.4-2.5-2.1-3.8s-1.1-2.7-1.6-4a3 3 0 0 1 5.2-3l.2.3 2.2 3c.8.9 1.6 1.9 2.4 2.7a29.6 29.6 0 0 0 2.6 2.4l1.3 1 1.4 1 1.5.9 1.4.7c.5.3 1.1.4 1.5.7l1.6.5c1 .4 2.1.6 3.1.9l1.7.2 1.6.2a18.2 18.2 0 0 0 3.3.1h3.4l3.4-.5 1.8-.3 1.7-.3 1.7-.4 1.7-.5 3.4-1 3.4-1.1 1.7-.6 1.5-.5 1.4 11.6a57.6 57.6 0 0 1-13.4-5.3 59.7 59.7 0 0 1-11.6-8.3 85.8 85.8 0 0 1-17-21.6c-2.2-3.9-4.2-8-6-12.1-.9-2.1-1.7-4.2-2.5-6.3a30.1 30.1 0 0 1-1.1-3.2c-.4-1.1-.7-2.1-1.1-3.4l-3.4-12.3-.8-3.1v-.4h-.1c0-.2.1.2 0 .1v-.2l-.2-.7-.5-1.6-1.9-6.1-30.1-98a6.2 6.2 0 1 1 11.9-3.7z"></path><path fill="#31323d" d="M1035.6 1476.1l-.6 2a8.9 8.9 0 0 1-.7 1.9c-.6 1.4-1.2 2.8-1.9 4.1l-1.2 1.9-1.3 1.8a13 13 0 0 1-1.5 1.8l-1.6 1.7-1.7 1.5-1.9 1.5-1.9 1.3-2.1 1.1a26.9 26.9 0 0 1-4.3 1.9l-2.3.7-2.3.6-2.3.4-2.3.2-2.3.2h-2.2l-4.6-.2-2.2-.3-2.2-.4-4.3-1-4.1-1.3-4.1-1.7-2-1-1-.5-1.1-.7-14-7.2 15.5-4.4 1.8-.5 1-.3.9-.3 1.8-.6 1.8-.8.9-.4.8-.5 1.8-.9c1.1-.7 2.2-1.3 3.3-2.1a42.4 42.4 0 0 0 6.2-5 62.8 62.8 0 0 0 5.6-5.9 88.6 88.6 0 0 0 9.3-13.9 117.9 117.9 0 0 0 6.8-15.4c.5-1.3.9-2.7 1.3-4l.2-.7.3-1.1.5-2.2 1.1-4.3.2-1.1v-.3c0 .1.1-.3 0 .2v-.5l.4-2.2 3.4-17.6 6.8-35.1a6.4 6.4 0 0 1 7.3-5 6.2 6.2 0 0 1 5 7.3l-6.8 35.2-3.4 17.5-.4 2.2v.6l-.2.8-.3 1.1-1 4.3-.6 2.2-.2 1.1a4.5 4.5 0 0 0-.2.8l-.2.6-1.5 4.5a111.3 111.3 0 0 1-7.7 17.3 96.9 96.9 0 0 1-10.6 15.8 63.1 63.1 0 0 1-6.6 7.1 56.5 56.5 0 0 1-7.7 6.2c-1.4 1-2.8 1.8-4.3 2.7l-2.2 1.2-1.1.6-1.2.5-2.3 1-2.3.8-1.2.5-1.3.3-2.4.7 1.4-11.6 3.2 1.1 3.4 1 3.4 1 1.8.4 1.7.4 3.4.6 3.4.4h6.7l1.6-.2 1.6-.3a17.7 17.7 0 0 0 3.1-.8l1.5-.5 1.5-.6 1.5-.7 1.5-.8 1.4-1 1.4-1 1.3-1a15.9 15.9 0 0 0 1.3-1.3 14.8 14.8 0 0 0 2.5-2.5 9.3 9.3 0 0 0 1.3-1.5l1.3-1.5a2.5 2.5 0 0 1 3.6-.3 2.4 2.4 0 0 1 .9 2.4zM1318.7 814.5c-8-7.7-15.9-15.2-24.7-20.5-1.1-.8-2.2-1.3-3.3-2s-2.3-1.2-3.4-1.6a43.2 43.2 0 0 0-6.8-2.6 34.6 34.6 0 0 0-13.9-1.2c-9.1 1-18 6-25.5 13a77.8 77.8 0 0 0-10.3 11.8c-1.5 2.1-3 4.3-4.4 6.5l-2 3.4-.9 1.7-.8 1.6-7.4-9a95.8 95.8 0 0 1 24.6-3.9 61.8 61.8 0 0 1 12.8.9 50.1 50.1 0 0 1 12.6 3.7 39.7 39.7 0 0 1 19.2 18.5c.5 1 1 2 1.4 3s.7 1.9 1 2.9 1.3 3.8 1.9 5.8a48.7 48.7 0 0 1 2.2 12.2 2.6 2.6 0 0 1-2.5 2.6 2.7 2.7 0 0 1-2.4-1.6h-.1a83.1 83.1 0 0 0-4.8-10c-.9-1.7-1.9-3.3-2.8-4.9l-1.5-2.5-1.4-2.1a34.7 34.7 0 0 0-15.1-12.1l-4.8-1.4a40.2 40.2 0 0 0-5-1 60.5 60.5 0 0 0-10.5-.6 93.6 93.6 0 0 0-21.5 3l-13.8 3.4 6.4-12.4 1.1-2.1 1.1-1.9c.8-1.3 1.5-2.6 2.3-3.8s3.3-4.9 5-7.3a123.4 123.4 0 0 1 11.7-13.4 73.9 73.9 0 0 1 14.6-11.1 47.6 47.6 0 0 1 18.2-5.9 45.9 45.9 0 0 1 9.8 0 42.2 42.2 0 0 1 9.3 2.3 44.5 44.5 0 0 1 8.6 3.9c1.3.7 2.6 1.6 3.9 2.4s2.5 1.7 3.6 2.7a77.9 77.9 0 0 1 12.6 12.4 96.6 96.6 0 0 1 9.6 14.3 2.5 2.5 0 0 1-.9 3.4 2.4 2.4 0 0 1-3-.4zM1956.6 1716.2l6.8 22.1 3.4 11c1.1 3.7 2.2 7.2 3.5 10.7s2.6 7 4 10.6l1 2.6 1.1 2.6c.7 1.7 1.5 3.3 2.3 5a209.6 209.6 0 0 0 10.7 19.8c1.9 3.2 3.9 6.4 6 9.4s4.3 6.2 6.6 9.1 4.5 5.9 7 8.7l1.8 2.2 1.9 2c1.2 1.4 2.5 2.7 3.8 4.1s5.2 5.2 8 7.7 2.8 2.3 4.2 3.6l4.3 3.4 4.5 3.2 4.6 3 4.7 2.9 4.8 2.5 9 4.9-8.2 5.8-.7.5-.6.5-1.2.8-2.4 1.4a48.4 48.4 0 0 1-10.2 4.2 50.1 50.1 0 0 1-5.2 1.4l-5.4.8-5.5.3h-5.4l-5.4-.6-5.3-1.1-5.1-1.5-2.5-1-2.5-.9-2.3-1.2-2.4-1.2-4.5-2.7-1-.7-1.1-.8-2-1.5c-1.4-1.1-2.7-2.3-3.9-3.4s-2.4-2.5-3.5-3.8a2.5 2.5 0 0 1 .2-3.6 2.8 2.8 0 0 1 2.6-.5h.1a47 47 0 0 1 4.5 1.7l2.3.9 2.2.9 4.3 1.6 2.2.8 2.2.7 4.3 1.3c1.4.5 2.9.8 4.3 1.2l4.3.8 4.4.6 2.1.2h2.2a16.2 16.2 0 0 0 2.2 0h2.1l4.3-.4a29.7 29.7 0 0 0 4.3-.6l4.2-1a31.7 31.7 0 0 0 4.1-1.2l3.9-1.5 1.9-.9.9-.4.5-.2h.1c.1 0 .2-.1.1-.1l.9 10.7-5.4-2.9-5.2-3.1-5-3.3c-1.7-1.2-3.3-2.3-4.9-3.6s-3.2-2.4-4.7-3.7l-4.6-3.9c-3-2.7-5.9-5.4-8.7-8.3-1.4-1.4-2.7-2.9-4.1-4.4l-2-2.2-1.9-2.2q-3.9-4.5-7.5-9.3c-2.4-3.2-4.7-6.4-6.9-9.7s-4.4-6.6-6.4-9.9a233.6 233.6 0 0 1-11.3-20.9l-2.5-5.4-1.2-2.8-1.1-2.8c-1.3-3.5-2.8-7.3-4.1-11s-2.6-7.6-3.7-11.2l-3.4-11.1-6.8-22a6.3 6.3 0 0 1 4.2-7.8 6.1 6.1 0 0 1 7.8 4.1zM961.7 1820.2l-2.7 6.1c-.9 2-1.8 4-2.8 6-1.9 4-4 7.9-6.1 11.8s-4.5 7.7-6.9 11.4-5 7.4-7.7 11l-2 2.6-2.1 2.7-4.4 5.1c-1.4 1.7-2.9 3.3-4.5 4.9l-4.8 4.8-2.5 2.3-2.5 2.2-5.3 4.3-2.7 2.1-2.8 1.9-5.7 3.8v-10.7h.6l.9.3 1.7.7 3.7 1.1 3.9.8 3.8.6 3.9.3h5.9l2-.2 4-.5a27 27 0 0 0 3.9-.8 27.9 27.9 0 0 0 3.9-1l2-.6 1.9-.7 2-.7 1.9-.8a32 32 0 0 0 3.9-1.6l3.9-1.9 3.9-2a35.5 35.5 0 0 1 3.9-2h.1a2.6 2.6 0 0 1 3.4 1.1 2.4 2.4 0 0 1-.3 2.7 35.8 35.8 0 0 1-3 3.6l-3.4 3.4-1.7 1.6-1.9 1.5a38.9 38.9 0 0 1-3.9 2.8l-4.1 2.6-4.4 2.2c-1.5.6-3 1.3-4.6 1.8s-3.1 1-4.7 1.5a42.6 42.6 0 0 1-4.9 1l-2.5.4-2.5.2a43.5 43.5 0 0 1-5.1.2l-5-.3a40.1 40.1 0 0 1-5-.9 27.2 27.2 0 0 1-4.9-1.3 46.8 46.8 0 0 1-4.8-1.8l-2.4-1.1-1.1-.7-.6-.4-.8-.4-8.4-5.4 8.4-5.3 5.1-3.4a22 22 0 0 0 2.5-1.7l2.5-1.9 4.7-3.8 2.3-2.1 2.3-2.1c1.5-1.4 3-2.8 4.4-4.3l4.2-4.6c1.4-1.5 2.7-3.1 4-4.7l1.9-2.5 1.9-2.4c2.5-3.4 4.9-6.8 7.2-10.3s4.4-7.1 6.5-10.7 4-7.4 5.8-11.1c.9-1.9 1.8-3.8 2.6-5.7s1.7-3.8 2.5-5.8a6.3 6.3 0 0 1 8.2-3.4 6.2 6.2 0 0 1 3.4 8.1z"></path><path fill="#31323d" d="M1946.7 1670.9l2.6 2.3 2.4 2.1 5.2 4.1 2.7 2 2.7 1.8 2.7 1.8 2.8 1.6 2.9 1.6 2.9 1.5 2.9 1.4 3 1.2 3 1.2 3 1 3.1.9 3.1.8 10.5 2.7-7.4 7.7-.8.9-.8.8a10 10 0 0 1-1.5 1.4c-1 1-2.1 1.8-3.1 2.7a63.6 63.6 0 0 1-6.9 4.6 58.7 58.7 0 0 1-7.6 3.5 44.2 44.2 0 0 1-8.1 2.3l-4.2.6-4.3.2a48.1 48.1 0 0 1-8.5-1l-4.1-1.2-3.9-1.6-3.6-2a19.9 19.9 0 0 1-3.3-2.4 4 4 0 0 1-.7-5.7 4 4 0 0 1 4.3-1.3h.2l3.3 1 3.3.8a30.3 30.3 0 0 0 3.2.6l3.1.4h6.3a42.2 42.2 0 0 0 6.2-1 62.1 62.1 0 0 0 6.1-2 51.2 51.2 0 0 0 5.8-2.8l2.8-1.7 2.8-1.8 2.6-2 1.3-1 1.1-.9 3.1 10.4-3.6-.9-3.6-1.1-3.5-1.2-3.4-1.3-3.4-1.4-3.3-1.6-3.3-1.7-3.2-1.7-3.2-1.9-3-2-3-2-3-2.2q-2.9-2.1-5.7-4.5l-2.7-2.3-2.6-2.4a6.2 6.2 0 0 1 8.3-9.3zM2004.1 1870.6l17.2 56.1 8.6 28 2.2 7 .3 1 .2.9.5 1.8 1 3.7c1.2 4.8 2.3 9.7 3.3 14.6s1.7 9.9 2.4 14.8l.9 7.5.2 1.9v2c.1 1.3.2 2.4.3 3.5a123.9 123.9 0 0 0 1.9 13.8 129.2 129.2 0 0 0 3.5 13.6c.7 2.2 1.5 4.4 2.3 6.5s1.7 4.3 2.7 6.5a131 131 0 0 0 6.3 12.4 86.5 86.5 0 0 0 17.1 21.2l7.4 6.9-9.6 3.8-1.1.4-1.1.3-2 .6-4 .9a28.5 28.5 0 0 1-4.1.4l-4.2.2-4.1-.2-2.1-.2-2.1-.3-4.1-.9-4-1.3-1.9-.8-2-.9-1.8-.9-1.9-1.1-1.7-1.1a10.9 10.9 0 0 1-1.7-1.3 10.9 10.9 0 0 1-1.7-1.3l-1.5-1.4a10 10 0 0 1-1.5-1.4 10.7 10.7 0 0 1-1.4-1.6l-1.3-1.5-1.2-1.7a38.7 38.7 0 0 1-2.1-3.4 29.2 29.2 0 0 1-1.7-3.6 2.5 2.5 0 0 1 1.1-3.3 2.4 2.4 0 0 1 2.9.5h.2a30.7 30.7 0 0 0 2.5 2.6 30.3 30.3 0 0 0 2.6 2.3l2.6 2.1 2.8 1.8 1.4.8 1.5.7.7.4.8.3 1.5.6 1.5.6 1.5.4 1.6.4 1.6.4 3.1.5 3.2.3h6.5l3.3-.2 3.3-.3 3.2-.5 3-.4-2.2 10.6a100.2 100.2 0 0 1-19.5-24.2 118.1 118.1 0 0 1-7-13.7c-1.1-2.3-2.1-4.9-2.9-7.1s-1.8-4.8-2.6-7.3a123.5 123.5 0 0 1-3.8-14.8c-1-5.1-1.7-10.1-2.2-15.2-.1-1.3-.2-2.6-.2-3.8v-3.2l-.9-7.1c-.6-4.7-1.4-9.4-2.3-14.1s-2-9.3-3.1-14l-.9-3.4-.5-1.7-.3-.9v-.4c.1.4 0 .1.1.2h-.1v-.4l-2.1-7-8.7-28.1-17.2-56a6.3 6.3 0 0 1 12-3.7zM935.1 2085.3a13.4 13.4 0 0 1-.7 1.8l-.9 1.9a32.4 32.4 0 0 1-2 3.6l-2.5 3.3a26.8 26.8 0 0 1-2.8 3l-3.3 2.8a31.7 31.7 0 0 1-3.6 2.3 36.5 36.5 0 0 1-7.8 3.5 48.6 48.6 0 0 1-8.2 1.9 59.2 59.2 0 0 1-8.4.5l-4.1-.3-4.1-.6-4.1-1-2-.6-1-.3-1.1-.5-10.4-3.5 8.3-7.1a82.3 82.3 0 0 0 15.7-18.9q3.1-5.4 6-11.1c.9-1.9 1.8-3.9 2.5-5.7l1.3-3.1c.3-.9.7-1.9 1.1-2.9a136 136 0 0 0 6.5-24.5c.8-4.2 1.3-8.4 1.7-12.6l.6-6.6.6-6.8.4-3.4.2-1.6.4-2 1.3-6.5 2.4-13.1 5-26.1 9.9-52.1a6.3 6.3 0 1 1 12.3 2.3l-9.9 52.2-5 26.1-2.5 13-1.2 6.5-.2.8v.6c0-.1-.1.4 0-.3l-.2 1.6-.3 3.2c-.3 2.2-.5 4.3-.7 6.4l-.5 6.7c-.4 4.6-1.1 9.1-1.9 13.7a145.1 145.1 0 0 1-7.1 26.6l-1.2 3.3-1.3 3.1c-.9 2.3-1.9 4.3-2.9 6.4a129.8 129.8 0 0 1-6.6 12.2 94.3 94.3 0 0 1-18.1 21.8l-2.1-10.6 3 .5 3.2.4 3.3.3 3.3.2 6.4-.2a45.8 45.8 0 0 0 6.3-1 29.8 29.8 0 0 0 6-1.8 18.8 18.8 0 0 0 3-1.2l2.8-1.4a66.5 66.5 0 0 0 5.6-3.6 28.8 28.8 0 0 0 2.7-2.2l1.4-1.1 1.4-1.2a2.7 2.7 0 0 1 3.7.3 2.8 2.8 0 0 1 .5 2.5zM1023.6 1302.2l1.1-1 2.9-2.5c2.4-2.1 5.6-5 8.6-7.9l4.4-4.4 3.7-3.9 1.3-1.6a9.1 9.1 0 0 0 1-1.3l.8-1.1.2-.2a2.4 2.4 0 0 1 3.5-.5 2.6 2.6 0 0 1 .8 3 11.5 11.5 0 0 0-.7 1.5 11.8 11.8 0 0 1-.8 1.6l-1 2.1c-.8 1.5-1.8 3.2-2.9 4.9s-2.3 3.7-3.6 5.5c-2.4 3.7-5 7.3-6.9 9.9s-1.8 2.5-2.4 3.2l-.9 1.3a6.3 6.3 0 0 1-8.8 1.2 6.2 6.2 0 0 1-1.2-8.8 2.8 2.8 0 0 1 .9-1zM1834.4 1302.1l-1.2-1.3-2.7-3.3c-1.1-1.4-2.4-3-3.7-4.8s-2.6-3.8-3.9-5.8-1.2-2-1.8-3-1.1-2-1.6-3-1-2-1.4-3-.8-1.8-1.1-2.7-.6-1.6-.8-2.3a9 9 0 0 1-.5-1.9c-.3-1.1-.4-1.7-.4-1.7a2.4 2.4 0 0 1 4.6-1.6l.2.3.6 1.3.7 1.4 1.1 1.8 1.4 2.1 1.8 2.3a22 22 0 0 0 2 2.3l2.2 2.4 4.5 4.4q2.3 2.1 4.2 3.6l3 2.4 1.2.8a6.3 6.3 0 1 1-7.5 10.1z"></path><path fill="#31323d" d="M1903.4 1543.2l5.8 18.8 1.5 4.7v1.1c-.1-.1.1.5-.1-.3l.4 1.2.9 2.3.9 2.3.2.5v.3h.1l.4 1c.6 1.4 1.3 2.9 2 4.3 2.7 5.8 5.7 11.4 8.9 16.9 1.6 2.8 3.3 5.5 5.1 8.2l2.6 4 2.7 4 5.7 7.7c2 2.5 4 5 6.1 7.4l3.1 3.6 3.3 3.4 3.3 3.4 3.4 3.3c2.4 2.2 4.7 4.3 7.2 6.3l3.7 2.9a13.3 13.3 0 0 0 1.9 1.4l1.9 1.4 3.9 2.7 3.9 2.5 4.1 2.3 4.1 2.2 9 4.8-8.2 5.9-.7.5-.6.5-1.2.8-2.4 1.4-5 2.4-5.2 1.8a45.4 45.4 0 0 1-5.3 1.2 50.2 50.2 0 0 1-5.4.8 48.9 48.9 0 0 1-5.4.3h-2.7l-2.7-.2a45.1 45.1 0 0 1-5.3-.7 49.9 49.9 0 0 1-5.3-1.1l-5-1.6-2.5-1-2.4-1-2.4-1.1-2.3-1.2-4.4-2.7c-1.5-.9-2.9-1.9-4.3-2.9l-3.9-3.2-3.7-3.5a2.6 2.6 0 0 1-.1-3.6 2.8 2.8 0 0 1 2.9-.5h.1l4.3 2 4.4 2 4.3 1.7 4.4 1.6 4.3 1.3 2.2.5 2.2.5 4.4.8a34.9 34.9 0 0 0 4.4.5l4.4.2h4.3a49.4 49.4 0 0 0 8.6-1.1 32 32 0 0 0 4.2-1 32.4 32.4 0 0 0 4.1-1.3l4-1.5 1.8-.9.9-.4.5-.2h.1c.1 0 .2-.1.1-.1l.9 10.7-4.6-2.4-4.5-2.6-4.3-2.8c-1.5-.9-2.9-1.9-4.3-2.9l-2.1-1.5-2-1.6-4.1-3.2c-2.6-2.1-5.2-4.4-7.7-6.7l-3.7-3.6-3.6-3.6-3.4-3.8-3.4-3.8-6.4-7.8c-2.1-2.7-4.1-5.4-6.1-8.2l-2.9-4.2-2.7-4.2c-1.9-2.8-3.7-5.7-5.3-8.6-3.5-5.9-6.6-11.8-9.5-18-.8-1.5-1.5-3.1-2.2-4.6l-.5-1.3-.3-.7-.2-.6-.9-2.3-.8-2.3-.5-1.1-.2-.6v-.3l-.2-.6-1.4-4.7-5.8-18.9a6.1 6.1 0 0 1 4.1-7.8 6.3 6.3 0 0 1 8.1 4.1zM1848.2 2113.6a48.3 48.3 0 0 0 5.4 7.2 44.3 44.3 0 0 0 6.5 5.8 38.7 38.7 0 0 0 7.5 4 21.2 21.2 0 0 0 4 1.4l2 .6.9.2h.8l-7.2 7.3a38.4 38.4 0 0 1-1.1-8.7c0-1.4.1-2.8.2-4.1s.2-2.7.4-4.1 1-5.2 1.5-7.8 1.3-5.1 2-7.6a147.4 147.4 0 0 1 4.6-14.7 109.2 109.2 0 0 1 6.3-14c1.1-2.3 2.3-4.5 3.6-6.8s2.6-4.4 4.1-6.7c2.9-4.2 5.9-8.2 9.1-12.2a251.2 251.2 0 0 1 19.9-22.6 2.5 2.5 0 0 1 3.8 3.2c-5.8 8-11.3 16.2-16.5 24.5l-3.7 6.3c-1.3 2.1-2.5 4.2-3.7 6.3s-2.1 4.1-3.1 6.3l-2.8 6.6c-1.8 4.5-3.3 9.1-5 13.6s-3.3 9-4.6 13.5a85.8 85.8 0 0 0-2.6 13.8c-.3 2.2-.4 4.5-.5 6.6a59.2 59.2 0 0 0 .2 6.1l1.2 9.3-8.4-1.9-.9-.2-.7-.3-1.4-.4-2.6-1.1-4.9-2.5a51.5 51.5 0 0 1-8.6-6.8 41.4 41.4 0 0 1-6.5-8.6 39 39 0 0 1-3.8-9.8 2.5 2.5 0 0 1 1.9-3 2.5 2.5 0 0 1 2.7 1.1zM1002.1 2027l1.4 1.3 1.4 1.5 2.7 2.9c1.8 2 3.5 4 5.1 6.1s3.3 4.2 4.8 6.3 3.1 4.2 4.6 6.4 3 4.3 4.5 6.4l2.2 3.4 1.1 1.6 1.1 2c1.3 2.5 2.5 5 3.6 7.6a81.1 81.1 0 0 1 2.8 7.8c.8 2.6 1.4 5.3 2 7.9s1.1 5.2 1.5 7.8.9 5.2 1.3 7.9.7 5.4.9 8.2.3 5.5.3 8.4a80.9 80.9 0 0 1-.6 8.5 49.7 49.7 0 0 1-1.9 8.5 28.6 28.6 0 0 1-1.5 4.1c-.6 1.4-1.2 2.7-1.9 4l-5-8.9h1.3l1.8-.2 1.8-.3 1.8-.6 1.8-.7 1.7-1 .8-.5.8-.6 1.5-1.4 1.5-1.5 1.3-1.7.7-.9.6-.9 1.2-2c.4-.7.7-1.4 1.1-2l1-2.2.9-2.2.8-2.3h.1a2.5 2.5 0 0 1 4.8 1.1v2.6l-.4 2.7a23.8 23.8 0 0 1-.5 2.6 26.8 26.8 0 0 1-.7 2.7 19.9 19.9 0 0 1-.9 2.6l-.5 1.3-.6 1.3c-.4.9-.9 1.8-1.3 2.6s-1 1.7-1.6 2.5a21.1 21.1 0 0 1-1.9 2.3l-1 1.1-1.1 1.1-2.5 1.9a14.5 14.5 0 0 1-2.6 1.7 15.5 15.5 0 0 1-2.9 1.4l-3 1-3.2.7-1.7.2h-2l-8.5-.4 3.5-8.5 1.2-3.2c.3-1.1.7-2.2 1-3.3a63.8 63.8 0 0 0 1.5-6.6 54 54 0 0 0 .8-6.9c0-2.4 0-4.8-.2-7.2s-.5-4.8-.9-7.2-.9-4.9-1.4-7.4l-1.6-7.5c-.5-2.4-1.1-4.8-1.6-7.2s-1.3-4.7-2-7a64.2 64.2 0 0 0-2.4-6.6l-.7-1.6-.9-1.7-1.7-3.3-3.7-6.9-3.6-6.7-3.8-6.7c-1.3-2.2-2.6-4.5-3.9-6.6s-1.3-2.2-2-3.2l-1-1.6-1.1-1.6a2.5 2.5 0 0 1 3.8-3.2zM1228.9 2040.9q-1.2 13.8-3 27.6c-.6 4.6-1.2 9.2-1.9 13.8s-1.2 9.2-2 13.8q-1.9 13.7-4.5 27.3c-1.6 9.1-3.5 18.2-5.3 27.3v.5l-.2.5c-1 2.8-2 5.9-2.9 8.9s-1.8 6.2-2.6 9.3a149.2 149.2 0 0 0-3.7 18.6 147.5 147.5 0 0 0-1.6 18.5 50.9 50.9 0 0 0 .4 8.8 28.4 28.4 0 0 0 1.9 8l3.4 8.6-8.6-.6h-1.9l-1.7-.4a15.8 15.8 0 0 1-3.1-.9 34 34 0 0 1-5.8-2.6 39.6 39.6 0 0 1-9.8-7.9 56 56 0 0 1-3.6-4.9 39.2 39.2 0 0 1-2.9-5.3 55.9 55.9 0 0 1-3.5-11.2 2.6 2.6 0 0 1 2-2.9 2.5 2.5 0 0 1 2.8 1.5 58.7 58.7 0 0 0 4.9 9.3 38.5 38.5 0 0 0 6.4 7.5 31.1 31.1 0 0 0 8.1 5 22.5 22.5 0 0 0 4.4 1.4l2.2.4 1.1.2h.8l-5.2 7.9a37.9 37.9 0 0 1-3.7-10.7 56.8 56.8 0 0 1-1.3-10.7 94.4 94.4 0 0 1 1.6-20.7c1.1-6.7 2.6-13.2 4.3-19.7.8-3.3 1.6-6.5 2.6-9.8s1.9-6.3 3-9.7l-.3 1c1.7-9.1 3.2-18.2 5-27.3s3.7-18.1 5.7-27.1c1-4.6 2.1-9.1 3.2-13.6s2.1-9 3.2-13.5c2.3-9 4.6-17.9 7.3-26.9a2.5 2.5 0 0 1 3.1-1.6 2.4 2.4 0 0 1 1.7 2.3zM1673.9 2025.2l5.1 24.9 5 24.9 9.8 49.8 2.4 12.4 1.2 6.3.2.7v.6c-.1-.5 0-.1 0-.2l.3 1.5.7 3.1 1.4 6.3c.4 2.2.8 4.3 1.1 6.4.8 4.3 1.4 8.5 2 12.8s1.1 8.6 1.5 12.9.6 8.6.6 13-.2 8.8-.6 13.3a80.8 80.8 0 0 1-2.5 13.4l-5.4-6.7h1.9l2.2-.5a22.5 22.5 0 0 0 4.4-1.4 27.8 27.8 0 0 0 4.2-2.2l2-1.4 1.9-1.5 1.7-1.7a14.5 14.5 0 0 0 1.7-1.8c.6-.6 1.1-1.3 1.6-1.9s1-1.4 1.4-2.1l1.4-2.2 1.2-2.3 1.2-2.3 1-2.5h.1a2.5 2.5 0 0 1 4.7 1.5l-.6 2.9c-.3.9-.5 1.8-.8 2.8s-.6 1.8-1 2.7-.7 1.9-1.1 2.8a21.5 21.5 0 0 1-1.4 2.6 13.5 13.5 0 0 1-1.5 2.6 22 22 0 0 1-1.7 2.5 23.1 23.1 0 0 1-2 2.4 15.1 15.1 0 0 1-2.1 2.3l-2.3 2a44 44 0 0 1-5.2 3.6l-2.9 1.4a13.4 13.4 0 0 1-3 1.2 15.8 15.8 0 0 1-3.1.9l-1.6.4h-2l-6.7.6 1.3-7.3a86.1 86.1 0 0 0 1.1-11.6c.1-4-.1-8.1-.3-12.2s-.5-8.1-.8-12.2-.7-8.3-1.1-12.4-1.1-8.2-1.7-12.3c-.4-2.1-.7-4.1-1.1-6.1l-1.3-6.1-.6-3.1-.3-1.6v-1.8l-.9-6.3-1.7-12.6-6.9-50.3-3.4-25.1-3.6-25a2.5 2.5 0 0 1 2.2-2.8 2.4 2.4 0 0 1 2.7 2zM1439 787.8a33.2 33.2 0 0 0-2.3 3.7c-.8 1.2-1.5 2.5-2.2 3.8s-2.9 5.3-4.2 8c-2.7 5.3-5.2 10.9-7.4 16.5a2.8 2.8 0 0 1-3.7 1.6 2.8 2.8 0 0 1-1.7-3c.9-6.2 2.1-12.4 3.6-18.5.7-3 1.5-6.1 2.4-9.1.4-1.5.9-3.1 1.4-4.6s.9-3 1.5-4.7h.1a7 7 0 0 1 13.2 4.9 10.7 10.7 0 0 1-.7 1.4zM978.2 1799.8l-.6 1.9a8 8 0 0 1-.7 2 37.3 37.3 0 0 1-2 4c-.7 1.3-1.6 2.5-2.4 3.7l-1.5 1.8-1.6 1.6-1.7 1.6-1.9 1.4-1.9 1.3-2.1 1.2a32.5 32.5 0 0 1-4.3 1.8l-2.3.7a18 18 0 0 1-2.2.6l-2.3.4-2.3.3-2.3.2h-2.3l-4.5-.2-2.2-.3-2.2-.4-4.3-1-4.2-1.3-4-1.7-2-.9-1-.6-1.1-.6-14.9-7.7 16.3-3.9a36.6 36.6 0 0 0 10-4.2 41.8 41.8 0 0 0 8.7-7 73.6 73.6 0 0 0 13.2-19.5 121.5 121.5 0 0 0 8.2-22.8c.2-1 .5-2 .7-2.9s.4-2 .6-3l1.2-6.3 2.3-12.6 19.2-100.6a6.2 6.2 0 0 1 7.3-5 6.3 6.3 0 0 1 5 7.3l-19.2 100.6-2.4 12.6-1.2 6.3c-.2 1-.3 2.1-.6 3.3s-.5 2.2-.8 3.3c-1.1 4.4-2.4 8.6-3.9 12.8a122.3 122.3 0 0 1-5.2 12.5 85.2 85.2 0 0 1-15.4 22.7 54.6 54.6 0 0 1-11.2 9 47.6 47.6 0 0 1-13.6 5.6l1.5-11.6 3.1 1.1 3.4 1.1c1.2.3 2.3.7 3.5.9l1.7.5 1.7.4 3.4.6 3.4.4h3.4a18.2 18.2 0 0 0 3.3-.1l1.6-.2 1.7-.2 3.1-.8 1.5-.6a6.7 6.7 0 0 0 1.5-.6l1.5-.7 1.5-.8 1.4-.9 1.4-1.1 1.3-1.1a7.4 7.4 0 0 0 1.3-1.2 29.5 29.5 0 0 0 2.5-2.5l1.3-1.5 1.2-1.6a2.6 2.6 0 0 1 3.6-.4 2.7 2.7 0 0 1 .8 2.9zM1780.9 1342.8c1.1 4.3 2 8.7 2.8 13s1.6 8.7 2.3 13c1.5 8.7 2.8 17.4 4.4 25.9a257.8 257.8 0 0 0 5.4 25.3c2.2 8.2 4.8 16.3 8.7 23.3l3.5 6.5-7.3 2.1a29.8 29.8 0 0 1-15.1.2 40.1 40.1 0 0 1-13.1-6 54.6 54.6 0 0 1-10.1-9c-2.9-3.2-5.6-6.5-8.1-9.7l10.9-2.9-2.3 15.2c-.8 5.1-1.6 10.2-2.3 15.3l-2.1 15.2c-.8 5.1-1.4 10.2-2.1 15.3l-.8 6.4-5.8-2a94.8 94.8 0 0 1-13.8-6.1 79.2 79.2 0 0 1-12.5-8.2 67 67 0 0 1-10.7-10.6 61.4 61.4 0 0 1-7.9-12.7 2.6 2.6 0 0 1 1.3-3.3 2.5 2.5 0 0 1 3.2 1 60.5 60.5 0 0 0 8.4 10.5 71 71 0 0 0 10.5 8.5 80 80 0 0 0 11.8 6.5 88 88 0 0 0 12.7 4.6l-6.6 4.4c.4-5.2.8-10.4 1.3-15.5s1-10.4 1.6-15.5 1.1-10.3 1.8-15.5 1.4-10.2 2.1-15.4l2.1-13.9 8.9 11c2.5 3.2 5 6.2 7.6 9a53.7 53.7 0 0 0 8 7.2 29.5 29.5 0 0 0 9 4.2 18.4 18.4 0 0 0 9 .2l-3.7 8.7a97.8 97.8 0 0 1-5.4-13.1q-2.1-6.6-3.6-13.2c-1.9-8.9-3.3-17.7-4.3-26.5s-1.7-17.6-2.4-26.4-1.3-17.5-2.2-26.1a2.5 2.5 0 0 1 2.2-2.7 2.5 2.5 0 0 1 2.7 1.8zM1096.4 1370a93.3 93.3 0 0 1-1.8 14.9 109 109 0 0 1-4 14.6 114.5 114.5 0 0 1-6.3 13.8 108.9 108.9 0 0 1-8.3 12.9l-4.7-9a58.2 58.2 0 0 0 19.8-5.4 74.9 74.9 0 0 0 9.1-5.1c2.9-2 5.7-4.2 8.5-6.5l14.1-11.5-4 17.8c-1.1 4.6-2.1 9.4-3.3 14.3a113.4 113.4 0 0 1-4.6 14.7 133.8 133.8 0 0 1-6.5 13.8c-2.4 4.4-5 8.7-7.5 12.9l-3.5-8.4a39.9 39.9 0 0 0 15.1 1 61.3 61.3 0 0 0 15.6-3.8 59.5 59.5 0 0 0 14.2-7.8 44.1 44.1 0 0 0 11.3-11.5 2.6 2.6 0 0 1 3.5-.7 2.5 2.5 0 0 1 .9 3.1 45.2 45.2 0 0 1-11 14.9 63.6 63.6 0 0 1-15.3 10.4 72 72 0 0 1-17.7 5.8 50.8 50.8 0 0 1-19.4-.3l-7.3-1.6 3.8-6.8a183.9 183.9 0 0 0 12.3-25.3 97.4 97.4 0 0 0 4-13.3c1.1-4.5 2.1-9.3 3.2-14.2l10 6.3a89.7 89.7 0 0 1-9.7 7.1 69.9 69.9 0 0 1-10.8 5.8 62.8 62.8 0 0 1-11.8 3.9 64.6 64.6 0 0 1-12.3 1.5l-12.7.4 8-9.4a103 103 0 0 0 15.1-23.1 122.1 122.1 0 0 0 5.3-13 125.6 125.6 0 0 0 3.7-13.7 2.5 2.5 0 0 1 3-1.9 2.5 2.5 0 0 1 2 2.4z"></path></g></g><g id="eye"><defs><linearGradient id="eyeColor1" x2="0%" y2="100%"><stop offset="0%" stop-color="#49b749"></stop></linearGradient><linearGradient id="eyeColor2" x2="0%" y2="100%"><stop offset="0%" stop-color="#49b749"></stop></linearGradient></defs><defs><clipPath id="eyeClipPath"><circle cx="1696" cy="1101.3" r="129.7" transform="rotate(-82.5 1695.15228554 1101.41325556)" fill="#fff" stroke="#31323d" stroke-linecap="round" stroke-miterlimit="10" stroke-width="10"></circle></clipPath><clipPath id="eyeClipPath2"><circle cx="1168.9" cy="1127" r="129.7" transform="rotate(-7.5 1174.5997126 1131.94800874)" fill="#fff" stroke="#31323d" stroke-linecap="round" stroke-miterlimit="10" stroke-width="10"></circle></clipPath></defs><circle cx="1696" cy="1101.3" r="129.7" transform="rotate(-82.5 1695.15228554 1101.41325556)" fill="#fff"></circle><g clip-path="url(#eyeClipPath)"><circle cx="1663.5" cy="1122.6" r="105.2" transform="rotate(-7.5 1671.3781873 1126.9682321)" fill="url(#eyeColor1)"></circle><circle cx="1667.8" cy="1124.1" r="77.6" transform="rotate(-7.5 1675.09245022 1128.74393727)" fill="#31323d"></circle><circle cx="1694.3" cy="1057.6" r="42.2" transform="matrix(.99 -.13 .13 .99 -124.02 231.23)" fill="#fff"></circle></g><circle cx="1696" cy="1101.3" r="129.7" transform="rotate(-82.5 1695.15228554 1101.41325556)" fill="none" stroke="#31323d" stroke-linecap="round" stroke-miterlimit="10" stroke-width="10"></circle><path d="M1728.2 951.5c-62.3 16.7-116 45.1-158.5 90.1" fill="none" stroke="#31323d" stroke-linecap="round" stroke-miterlimit="10" stroke-width="30"></path><circle cx="1168.9" cy="1127" r="129.7" transform="rotate(-7.5 1174.5997126 1131.94800874)" fill="#fff"></circle><g clip-path="url(#eyeClipPath2)"><circle cx="1207.4" cy="1154.2" r="87.6" transform="rotate(-7.5 1212.66804698 1158.95929144)" fill="url(#eyeColor2)"></circle><circle cx="1211" cy="1155.4" r="64.7" transform="rotate(-7.5 1216.4323099 1159.97214402)" fill="#31323d"></circle><circle cx="1233.1" cy="1100" r="35.2" transform="rotate(-7.5 1238.44077193 1104.72105278)" fill="#fff"></circle></g><circle cx="1168.9" cy="1127" r="129.7" transform="rotate(-7.5 1174.5997126 1131.94800874)" fill="none" stroke="#31323d" stroke-linecap="round" stroke-miterlimit="10" stroke-width="10"></circle><path d="M1819.9 1139.5a129.8 129.8 0 0 1-234.8 29.5 522.5 522.5 0 0 0 234.8-29.5z" fill="#Ec79f2"></path><path d="M1819.9 1139.5a129.8 129.8 0 0 1-117.4 91.4c-49.2 2.5-92.4-22.7-116.4-62a513.2 513.2 0 0 0 107.2 0 523.4 523.4 0 0 0 126.6-29.4z" fill="none" stroke="#31323d" stroke-linecap="round" stroke-miterlimit="10" stroke-width="10"></path><path d="M1044.2 1165.2a129.8 129.8 0 0 0 234.8 29.5 522.5 522.5 0 0 1-234.8-29.5z" fill="#Ec79f2"></path><path d="M1044.2 1165.2a129.8 129.8 0 0 0 234.8 29.5 522.5 522.5 0 0 1-234.8-29.5z" fill="none" stroke="#31323d" stroke-linecap="round" stroke-miterlimit="10" stroke-width="10"></path><path d="M1109.5 988.5c56.7 0 143.7 34 184.9 70.4" fill="none" stroke="#31323d" stroke-linecap="round" stroke-miterlimit="10" stroke-width="30"></path></g><g id="mouth"><defs><clipPath id="mouth__a"><path fill="#31323d" stroke="#31323d" stroke-linecap="round" stroke-linejoin="round" stroke-width="7" d="M1353.5 1311.9s24.8 61 78.8 61 74-61.4 74-61.4-44.9-7.8-68.8-85.4c0 0-24 89.7-84 85.8z"></path></clipPath><clipPath id="mouth__b"><path fill="#f29cb1" d="M1506.3 1348.8s-48.8-13.2-69.9-12.3c0 0-44.6-1.9-63.4 18.9 0 0 12.2 33.6 61.9 33.6s65.4.8 71.4-40.2z"></path></clipPath></defs><g><path fill="#31323d" d="M1353.5 1311.9s24.8 61 78.8 61 74-61.4 74-61.4-44.9-7.8-68.8-85.4c0 0-24 89.7-84 85.8z"></path><g clip-path="url(#mouth__a)"><path fill="#f29cb1" d="M1506.3 1348.8s-48.8-13.2-69.9-12.3c0 0-44.6-1.9-63.4 18.9 0 0 12.2 33.6 61.9 33.6s65.4.8 71.4-40.2z"></path><g clip-path="url(#mouth__b)"><path fill="none" stroke="#db829b" stroke-linecap="round" stroke-miterlimit="10" stroke-width="22" d="M1432.8 1287.3c4.8 11.9 3.9 37.2 3.3 62.1"></path></g></g><path fill="none" stroke="#31323d" stroke-linecap="round" stroke-linejoin="round" stroke-width="7" d="M1353.5 1311.9s24.8 61 78.8 61 74-61.4 74-61.4-44.9-7.8-68.8-85.4c0 0-24 89.7-84 85.8z"></path><g style="mix-blend-mode:multiply"><path fill="#595959" d="M1372.1 1412s7.8 72.2 68.5 66.3c58.7-5.6 61.4-73.8 61.4-73.8s-19.5 31.4-57.5 34-72.4-26.5-72.4-26.5z" opacity=".2"></path></g><path fill="#31323d" d="M1372.6 1195.8a15.2 15.2 0 0 1 4-15.9c9.2-8.5 28.7-20.9 64.3-20.3s52.2 13.5 60 22.4a15 15 0 0 1 2.1 16.2 20.8 20.8 0 0 1-18.5 11.9c-10.1 0-24.1 2.7-33.1 15a12.9 12.9 0 0 1-1.9 2.1l-.4.3a17.6 17.6 0 0 1-25.2-2s-7-12.7-33.8-15.4a21.1 21.1 0 0 1-17.4-14z"></path><path fill="#31323d" d="M1504.5 1401.2a32.5 32.5 0 0 1-1.2 5.2 49.1 49.1 0 0 1-1.7 5 67.2 67.2 0 0 1-5 9.6 71.1 71.1 0 0 1-6.9 8.5 63 63 0 0 1-8.2 7.3 74.2 74.2 0 0 1-41.1 13.8h-5.5l-5.4-.4a78.5 78.5 0 0 1-10.8-1.8 91.2 91.2 0 0 1-20.2-7.6c-12.6-6.8-23.4-17.1-29.9-29.4a2.4 2.4 0 0 1 1-3.4 2.4 2.4 0 0 1 3 .4 90.6 90.6 0 0 0 31.3 20.9 93.8 93.8 0 0 0 17.7 5.1 86.2 86.2 0 0 0 18.2 1.2 75.9 75.9 0 0 0 34.5-9.8 90.2 90.2 0 0 0 7.5-5.1 55.9 55.9 0 0 0 6.8-6.1 69.1 69.1 0 0 0 6.1-7.1 37.7 37.7 0 0 0 2.6-3.9c.9-1.3 1.7-2.7 2.5-4.1v-.2a2.5 2.5 0 0 1 4.6 1.8z"></path><path fill="#31323D" d="M1527.4 1237.2c15-3.1 30-5.4 45.1-7.1s30.3-2.9 45.5-3.4a460.3 460.3 0 0 1 90.8 5.5 319.8 319.8 0 0 1 44.3 10.3 270.4 270.4 0 0 1 42.3 16.9 215.3 215.3 0 0 1 38.2 24.4 197.1 197.1 0 0 1 31.9 32 204.2 204.2 0 0 0-32.6-31.1 229.2 229.2 0 0 0-38.6-23.1 266.9 266.9 0 0 0-42.2-15.5 350.2 350.2 0 0 0-44-9c-29.8-4.1-59.9-4.7-89.8-2.9q-22.3 1.3-44.7 4.5c-14.8 2.1-29.5 4.8-44 8.3a5 5 0 0 1-6-3.7 4.9 4.9 0 0 1 3.7-6z"></path><path fill="#31323D" d="M1697 1191.2c-12.9.5-25.8 1.3-38.6 2.7s-25.5 3.2-38.1 5.5-25.2 5.1-37.6 8.3-24.6 7-36.7 11.2h-.1a5 5 0 0 1-6.3-3.1 5 5 0 0 1 3.1-6.4h.3c12.6-3.4 25.3-6.4 38-8.9s25.6-4.5 38.5-6 25.8-2.5 38.8-3 25.8-.7 38.7-.3z"></path><path fill="#31323D" d="M1541.7 1259l5.9-.9 2.9-.4 2.9-.2 3-.3h11.8l3 .2 2.9.2 2.9.4 5.8.8 5.8 1.1a154.7 154.7 0 0 1 22.2 7 180.6 180.6 0 0 1 20.7 10.2 219.1 219.1 0 0 1 36.7 27.4c5.6 5.2 10.9 10.6 16 16.2a200.8 200.8 0 0 1 14.5 17.5 220.7 220.7 0 0 0-15.4-16.7c-5.3-5.3-11-10.3-16.8-15.1a211.6 211.6 0 0 0-37.4-24.9 175.7 175.7 0 0 0-20.5-8.8 134.1 134.1 0 0 0-21.4-5.4l-5.5-.8-5.4-.4-2.8-.2h-8.2l-5.4.3-2.7.3-2.7.4-2.7.4-2.7.5-5.3 1.1h-.3a5 5 0 0 1-5.9-3.9 4.9 4.9 0 0 1 3.8-5.9z"></path><path fill="#31323D" d="M1349 1253.5c-15.1-2.9-29.9-5.9-44.9-8.5s-30-4.9-45.1-6.7c-30.1-3.5-60.5-5.1-90.7-3.1a325.7 325.7 0 0 0-45.1 6 233.4 233.4 0 0 0-43.3 13.4 182 182 0 0 0-39.5 22.6 166.5 166.5 0 0 0-32.2 32.2 168 168 0 0 1 31.5-33.2 184.4 184.4 0 0 1 39.2-23.9 237 237 0 0 1 43.5-14.7 319.5 319.5 0 0 1 45.5-7.4c30.6-2.8 61.4-2.1 91.9.6 15.3 1.4 30.5 3.3 45.7 5.5s30.2 4.9 45.2 7.4a5 5 0 0 1 4.2 5.7 5.1 5.1 0 0 1-5.8 4.2z"></path><path fill="#31323D" d="M1177.8 1198.7a271.2 271.2 0 0 1 119 5.4 286.1 286.1 0 0 1 38 13.5 5 5 0 0 1-4 9.2l-.3-.2a276.5 276.5 0 0 0-35.9-15.3 262.3 262.3 0 0 0-38-10 270.1 270.1 0 0 0-78.8-2.6z"></path><path fill="#31323D" d="M1336.5 1278.8a96.5 96.5 0 0 0-21.4-3.4 101.3 101.3 0 0 0-21.8 2.1c-14.4 3-28.3 9-41.1 16.8a180.9 180.9 0 0 0-18.7 12.7 220.1 220.1 0 0 0-17.3 14.7c-5.6 5.1-11 10.5-16.1 16.1s-10.1 11.4-14.7 17.5c4.2-6.3 8.9-12.4 13.7-18.3s10-11.6 15.3-17.1 10.9-10.8 16.7-15.8a207.4 207.4 0 0 1 18.4-14 139.3 139.3 0 0 1 42.1-19.9 108.4 108.4 0 0 1 23.5-3.5 107.1 107.1 0 0 1 23.9 2.4 5 5 0 0 1 3.8 6 4.9 4.9 0 0 1-5.9 3.8h-.4z"></path><path fill="#fff" stroke="#31323d" stroke-linecap="round" stroke-linejoin="round" stroke-width="7" d="M1330.9 1307.7c.6 1.6 9.8 46.4 18.9 53.8 0 0 8.4-7.4 14.3-46.2"></path><path fill="#31323d" d="M1443.6 1227.9c-.3 1.1-.6 2-.9 2.9l-.9 2.8c-.7 1.8-1.3 3.6-2 5.3-1.4 3.6-2.9 7.1-4.4 10.5a185.3 185.3 0 0 1-10.7 20.2 135.5 135.5 0 0 1-13.5 18.6 91.6 91.6 0 0 1-17.2 15.6 63.4 63.4 0 0 1-21.3 9.7 58.6 58.6 0 0 1-23.2.9 70.3 70.3 0 0 1-11.2-2.7l-2.7-.9-2.7-1-5.1-2.3a124.6 124.6 0 0 1-19.2-11.7 1.6 1.6 0 0 1-.3-2.4 1.7 1.7 0 0 1 2.3-.5 109.5 109.5 0 0 0 19.2 10 42.9 42.9 0 0 0 5 1.9l2.5.8 2.6.7a74.1 74.1 0 0 0 10.3 1.8 53.6 53.6 0 0 0 20.4-2.1 57.1 57.1 0 0 0 18-9.7 81.5 81.5 0 0 0 14.4-14.9 124.3 124.3 0 0 0 11.2-17.8 160.9 160.9 0 0 0 8.6-19.4c1.3-3.3 2.5-6.6 3.5-10a49.1 49.1 0 0 0 1.5-5.1l.7-2.5c.2-.8.5-1.7.6-2.4a7.5 7.5 0 0 1 14.7 3.2.9.9 0 0 0-.1.5z"></path><path fill="#fff" stroke="#31323d" stroke-linecap="round" stroke-linejoin="round" stroke-width="7" d="M1527 1311.5c-.5 1.6-8.8 42.6-18 50 0 0-8.3-7.4-14.2-46.2"></path><path fill="#31323d" d="M1443.7 1223.7c.5 1.4 1 3.1 1.6 4.7s1.1 3.2 1.7 4.8l3.8 9.5c2.7 6.2 5.7 12.4 9 18.4 6.6 11.9 14.4 23.3 24.2 32.3a61.6 61.6 0 0 0 16.3 11 42.4 42.4 0 0 0 18.9 3.8 46.3 46.3 0 0 0 9.8-1.4 64 64 0 0 0 9.6-3.3 90.5 90.5 0 0 0 17.4-10.9 1.9 1.9 0 0 1 2.5.3 1.7 1.7 0 0 1-.2 2.4 89.3 89.3 0 0 1-17.6 12.6 60.1 60.1 0 0 1-10.1 4.3 45 45 0 0 1-10.9 2.3 47.4 47.4 0 0 1-11.3-.1 50.7 50.7 0 0 1-11-2.8 68.9 68.9 0 0 1-19.4-11.1c-11.6-9.4-20.8-21-28.6-33.2q-5.9-9.1-10.8-18.9c-1.7-3.2-3.3-6.4-4.8-9.7-.7-1.7-1.5-3.4-2.2-5s-1.4-3.3-2.1-5.2a7.5 7.5 0 0 1 4.4-9.7 7.4 7.4 0 0 1 9.6 4.3l.2.5z"></path></g></g></svg>