<?xml version="1.0" encoding="utf-8"?>
<!-- Generator: Adobe Illustrator 16.0.0, SVG Export Plug-In . SVG Version: 6.00 Build 0)  -->
<!DOCTYPE svg PUBLIC "-//W3C//DTD SVG 1.1//EN" "http://www.w3.org/Graphics/SVG/1.1/DTD/svg11.dtd">
<svg version="1.1" id="Selected_Items" xmlns="http://www.w3.org/2000/svg" xmlns:xlink="http://www.w3.org/1999/xlink" x="0px"
	 y="0px" width="1024px" height="768px" viewBox="0 0 1024 768" enable-background="new 0 0 1024 768" xml:space="preserve">
<g>
	<g>
		<path fill-rule="evenodd" clip-rule="evenodd" fill="#FE6C3B" d="M826.3,505.349l36.8-11.299l25.051-47.65l4.449-8.551
			l54.25-58.998L1003,258.899l21-21.924v243.748l-8.6,11.375l-15.2,27.65l-73.351,5.701l-2.649,11.398H838.35l17.15-17.1h-70.95
			h-5.2L826.3,505.349z M0,502.649V223.675L71.2,251.3l49.5,152.25l89.399,5.75l18.301,39l37.899,80.949H72.5l-18.5-8.6L0,502.649z"
			/>
		<path fill-rule="evenodd" clip-rule="evenodd" fill="#FFCABA" d="M940.6,221.05l-67.05-61.15l-20.95,6.65l-91.35-84.699H690.8
			l-41.149,59.299c-2.134-2.533-4.434-5.033-6.9-7.5c-19.3-19.299-42.634-28.949-70-28.949c-27.333,0-50.667,9.65-70,28.949
			c-17.3,17.334-26.85,37.883-28.65,61.65l-17.449-15.4l-44.7,4.75l-56.2,70.451h-59l-21.9-9.551L260.9,262.499l-63.15-95
			l-47.6,28.551L94,96.101H42.6L23.55,118.05L7.4,109.45H0V-0.001h1024V184.45l-19.1-15.951L940.6,221.05z"/>
		<path fill-rule="evenodd" clip-rule="evenodd" fill="#FF946E" d="M1024,184.45v52.525l-21,21.924l-56.15,119.951l-54.25,58.998
			l-4.449,8.551H738.4l17.149-16.15l21.851-36.15h33.35l5.15-12.949L867.85,251.3l27.65,6.6l45.1-36.85l64.301-52.551L1024,184.45z
			 M0,223.675V109.45h7.4l16.149,8.6L42.6,96.101H94l56.15,99.949l47.6-28.551l63.15,95l31.1,46.852l22.85-8.551l47.2,80.35
			l31.5,53.6l7.9,13.551H228.4l-18.301-39l-89.399-5.75L71.2,251.3L0,223.675z"/>
		<polygon fill-rule="evenodd" clip-rule="evenodd" fill="#FBAE94" points="815.9,381.149 362.05,381.149 314.85,300.8 292,309.351 
			260.9,262.499 274.85,245.55 296.75,255.101 355.75,255.101 411.95,184.649 456.65,179.899 474.1,195.3 553.75,265.55 
			563.3,265.55 649.65,141.149 690.8,81.851 761.25,81.851 852.6,166.55 873.55,159.899 940.6,221.05 895.5,257.899 867.85,251.3 		
			"/>
		<path fill-rule="evenodd" clip-rule="evenodd" fill="#F93C02" d="M1024,480.724v153.176h-33.35l9.55-16.15H866.9l4.75-15.25
			L883,598.05l29.6-11.701l11.601-49.5l2.649-11.398l73.351-5.701l15.2-27.65L1024,480.724z M272.4,577.8l27.199-1l48.551,37.1
			l9.55,18.15H0v-129.4l54,18l18.5,8.6l73.9,34.201l21.85,18.148L272.4,577.8z"/>
		<path fill-rule="evenodd" clip-rule="evenodd" fill="#FDE8E5" d="M649.65,141.149L563.3,265.55h-9.55L474.1,195.3
			c1.801-23.768,11.351-44.316,28.65-61.65c19.333-19.299,42.667-28.949,70-28.949c27.366,0,50.7,9.65,70,28.949
			C645.217,136.116,647.517,138.616,649.65,141.149z"/>
		<path fill-rule="evenodd" clip-rule="evenodd" fill="#FFC0A5" d="M362.05,381.149H815.9l-5.15,12.949H777.4l-21.851,36.15
			L548.05,389.3H516.6l-123.05,45.449L362.05,381.149z M826.3,505.349L738.4,446.399h149.75L863.1,494.05L826.3,505.349z
			 M883,598.05l-98.45-78.301h70.95l-17.15,17.1H924.2l-11.601,49.5L883,598.05z M866.9,617.749h133.3l-9.55,16.15H1024v24.15
			l-13.35,1.6L978.3,697.599L866.9,617.749z M401.45,448.3L272.4,577.8l-104.15,3.799L146.4,563.45l-73.9-34.201h193.8L228.4,448.3
			H401.45z M0,632.05h357.7L261.6,741.849l-7.699,0.602l-63.75-32.352l-80.9,15.25l-53.3-43.799L0,669.374V632.05z"/>
		<polygon fill-rule="evenodd" clip-rule="evenodd" fill="#FFDDD3" points="357.7,632.05 348.15,613.899 299.6,576.8 272.4,577.8 
			401.45,448.3 393.55,434.749 516.6,389.3 548.05,389.3 755.55,430.249 738.4,446.399 826.3,505.349 779.35,519.749 
			784.55,519.749 883,598.05 871.65,602.499 866.9,617.749 978.3,697.599 966.85,711.05 836.45,711.05 791.7,740.55 664.2,716.749 
			598.5,767.999 537.6,767.999 484.25,706.3 402.45,751.95 352.9,734.849 261.6,741.849 		"/>
		<path fill-rule="evenodd" clip-rule="evenodd" fill="#CF3501" d="M537.6,767.999H0v-98.625l55.95,12.176l53.3,43.799l80.9-15.25
			l63.75,32.352l7.699-0.602l91.301-7l49.55,17.102l81.8-45.65L537.6,767.999z M1024,658.05v109.949H598.5l65.7-51.25l127.5,23.801
			l44.75-29.5H966.85l11.45-13.451l32.351-37.949L1024,658.05z"/>
	</g>
</g>
</svg>
