<?xml version="1.0" encoding="utf-8"?>
<!-- Generator: Adobe Illustrator 16.0.0, SVG Export Plug-In . SVG Version: 6.00 Build 0)  -->
<!DOCTYPE svg PUBLIC "-//W3C//DTD SVG 1.1//EN" "http://www.w3.org/Graphics/SVG/1.1/DTD/svg11.dtd">
<svg version="1.1" id="Layer_1" xmlns="http://www.w3.org/2000/svg" xmlns:xlink="http://www.w3.org/1999/xlink" x="0px" y="0px"
	 width="104px" height="100px" viewBox="0 0 104 100" enable-background="new 0 0 104 100" xml:space="preserve">
<g>
	<path fill-rule="evenodd" clip-rule="evenodd" fill="#CF5551" d="M88.65,37.9c-1.804-5.603-4.945-10.644-9.425-15.125
		C71.715,15.26,62.64,11.502,52,11.5c-10.64,0.002-19.715,3.76-27.225,11.275c-6.523,6.517-10.215,14.217-11.075,23.1
		c6.455-8.266,14.288-16.058,23.5-23.375c8.367,9.767,14.45,17.967,18.25,24.6c3.767,6.634,0.85,12.334-8.75,17.101
		c-9.6,4.733-10.05,9.649-1.35,14.75c6.64,3.882,8.182,7.048,4.625,9.5c0.67,0.033,1.345,0.05,2.025,0.05
		c3.988,0.003,7.771-0.514,11.35-1.55h-0.025c2.63-0.797,5.138-1.88,7.525-3.25c2.609-3.896-0.69-6.828-9.9-8.8
		c-13.233-2.834-17.483-5.717-12.75-8.65c4.7-2.967,7.9-6.033,9.6-9.2c1.667-3.166,1.133-6.883-1.6-11.149
		C59.7,39.3,63.867,34.033,68.7,30.1c4.933,2.634,8.633,5.467,11.1,8.5c0.533-1.433,1.5-2.683,2.9-3.75
		C84.685,35.469,86.668,36.485,88.65,37.9z M82.775,19.225c6.055,6.054,9.947,13.012,11.675,20.875
		c0.702,3.142,1.052,6.441,1.05,9.9c0.002,12.026-4.24,22.285-12.725,30.775c-5.309,5.306-11.309,8.965-18,10.975H64.75
		c-4.021,1.164-8.271,1.747-12.75,1.75c-2.429,0.001-4.787-0.174-7.075-0.525c-9.035-1.372-16.935-5.438-23.7-12.199
		C12.74,72.285,8.498,62.026,8.5,50c0-0.2,0-0.384,0-0.55v-0.025c0.139-11.782,4.38-21.849,12.725-30.2
		C29.715,10.739,39.974,6.498,52,6.5C64.027,6.498,74.285,10.739,82.775,19.225z"/>
</g>
</svg>
