<svg xmlns="http://www.w3.org/2000/svg" viewBox="0 0 3000 3000" xmlns:xlink="http://www.w3.org/1999/xlink"><g id="tail"></g><g id="bodyFur"><clipPath id="furClipPath"><path d="M1211.5 866.4a240.2 240.2 0 0 1 129.5-37.8h158.2A240.5 240.5 0 0 1 1607 854c24.5-19.2 89.4-68.2 129.3-66.3a15 15 0 0 1 12.1 22.9L1684 914.8a240.5 240.5 0 0 1 47.2 89.2l295.1 960.1a248.1 248.1 0 0 1-6.4 155.9l.8.3c47.5 13.8 136.8 46.1 179.8 75.5 26.1 17.8 10.1 55.9-23.2 55.3l-261.6-5a246.8 246.8 0 0 1-65.3 28c2.8 13.3 12.3 21 28.1 21.9 18.2 1 23.7 18.6 24.5 25.5 2.3 21.2-5.8 34.7-27.9 36.9l-91.8 3a53.5 53.5 0 0 1-22.3-4 71.6 71.6 0 0 1-43.1-54.3l-3.5-20.7h-533.5l-5 26.6a71.4 71.4 0 0 1-8.8 23.9c-13.4 22.8-38.9 35.7-65.3 34.1l-84.3-5c-21.4-1.6-31.9-18.9-27.2-40.4 2.5-11.1 15.1-20.3 30.6-21.1 23.3-1.2 30.3-20.2 29.9-43.6v-3.3q-7.1-3.7-13.9-7.9L770 2251c-33.3.6-49.7-38.2-23.2-55.3 54-34.9 146.4-69.2 184.5-78.3l.6-.2a248.9 248.9 0 0 1-12.6-117.6l182.9-961.4a240.3 240.3 0 0 1 33-93.8l-60.5-108.1a15 15 0 0 1 .9-16c24.9-34.9 89.3 8.5 130.8 42.6z" fill="none"></path></clipPath><g clip-path="url(#furClipPath)"><path fill="#ded0ee" d="M724.1 562.8h1509.4v1824.09H724.1z"></path><path d="M1000 2026.8l.3.3c55.2 62.2 49.5 189.6 50.5 223.2 1.9 60.7-47.9 41.3-60.1 63-10.4 18.5 2.8 28.8 19.4 42s36.8 10.2 58 10.2c30.4 0 55.6 4.5 81.2-12s30.8-46.1 35.3-76.2l41.8-238.6c-25.4-15.9-46.4-37.5-63.2-64.5a10 10 0 0 1-.2-10.2l27.3-48.2a10 10 0 0 0-3-13.1c-37-25.6-68.6-52.6-89.6-82.3a10 10 0 0 1-.5-10.6l32.7-58.2a3 3 0 0 0-4.7-3.7l-80.6 75.8a10 10 0 0 0-2.3 11.4c11.1 24.9 23.9 47.7 40.6 65.2a10 10 0 0 1-.9 14.7l-73.8 60a39.2 39.2 0 0 0-8.2 51.8zM1920.6 2030.9c-56.6 61.1-75 182.9-76.7 216.5-3.1 60.6 47.1 42.3 58.8 64.2 10 18.7-3.4 28.7-20.3 41.6s-37 9.5-58.2 9.1c-30.4-.6-55.7 3.4-81-13.6s-29.9-46.7-33.8-76.9l-38-247.7c25.7-15.3 47.8-29.1 65.3-54.7a10 10 0 0 0 .6-10.4l-26.3-48.7a10 10 0 0 1 3.3-13.1c37.5-24.9 69.6-51.3 91.2-80.5a10 10 0 0 0 .7-10.6l-31.5-58.8a3 3 0 0 1 4.7-3.6l79.1 77.4a10 10 0 0 1 2.1 11.4c-11.6 24.7-24.8 47.1-41.8 64.3a10 10 0 0 0 .6 14.8l82.6 69.1a54.1 54.1 0 0 1 18.7 50.4z" fill="#cf5be8"></path><path d="M1198.3 2203.5c.9-22.6 1.7-43.6 10-71.8" fill="#dad6e1"></path><path d="M1922.3 2254.2c-2.3 7.4 11.8 9.6 19.3 11.3a605.4 605.4 0 0 0 243.5 4.2c26.6-5 57-15.3 65.6-41.1 5.3-15.7.3-33.5-9.3-47s-23.5-23.3-37.5-32.1c-36.7-22.8-121.5-58.7-165.3-43-23.1 8.2-36.4 51.4-60.1 81.2-20.3 25.5-49.2 44.2-56.2 66.5zM921.8 2089.2c17.4 58.6 54.6 116.1 107.3 147 5.4 3.2 3.7 14-.7 15.2l-76.4 20.7c-41.2 11.1-82.9 22.3-125.5 22.4s-87-12.3-117.2-42.4c-23.1-23.1-36-60.8-19.3-88.9 8.8-14.7 24-24.3 39.3-31.9a280.2 280.2 0 0 1 104.8-28.4M1603.3 848.8l50.8 36.4 49.3 52.7 49.3 76.7 38.9 63.3c5.2-8.1 1193.7-742.5 1192.4-747.9-2-8.7 0-319.9 0-319.9H1959.8zM1222.2 857.9L818 10H18.2v903.2l1046 176.5 38.8-90.1 28.2-56.8 24.8-29.6 38.3-35.3 27.9-20z" fill="#cf5be8"></path><path d="M892 1983.9s42.7-77 104.8-118.8a10 10 0 0 0 4.1-11l-10.6-39.1a10 10 0 0 1 1.5-8.3c9.4-13.4 42.5-58.5 82.7-84.5a3 3 0 0 0-2.3-5.4c-29.9 6.5-93.1 23.1-158.7 57.8zM2046.9 2043.1s-58.7-98.3-127.5-152.4a11.8 11.8 0 0 1-3.9-13.1l15.7-44.8a11.7 11.7 0 0 0-1-9.8c-9.8-16.5-44.6-71.9-89.2-105.8a3.5 3.5 0 0 1 3.1-6.2c34.3 10.2 106.6 35 180.2 81.2zM1635.9 1787.5a184.9 184.9 0 0 0-111.2-141.5 6.9 6.9 0 0 0-9.2 4l-1.1 2.9a376.8 376.8 0 0 1-30.4 64.4l-11.7 19.6a4.2 4.2 0 0 0 3.2 6.2l42.3 4.2a4.2 4.2 0 0 1 2.7 6.9l-91 101.6a2.5 2.5 0 0 1-4.2-2.6l29.3-76.2a4.2 4.2 0 0 0-3.4-5.6l-74.2-8.7a4.2 4.2 0 0 1-3.4-5.7l15.9-39q5-12.4 8.9-25.2l13.8-46a6.9 6.9 0 0 0-8.4-8.6 184.9 184.9 0 0 0-132.6 146.1l-86.7 492.8 254.5 38.3 275.3-34.9-42-252z" fill="#dad6e1"></path></g></g><g id="shadow" style="mix-blend-mode:multiply"><defs><clipPath id="shadowClipPath"><path d="M1211.5 866.4a240.2 240.2 0 0 1 129.5-37.8h158.2A240.5 240.5 0 0 1 1607 854c24.5-19.2 89.4-68.2 129.3-66.3a15 15 0 0 1 12.1 22.9L1684 914.8a240.5 240.5 0 0 1 47.2 89.2l295.1 960.1a248.1 248.1 0 0 1-6.4 155.9l.8.3c47.5 13.8 136.8 46.1 179.8 75.5 26.1 17.8 10.1 55.9-23.2 55.3l-261.6-5a246.8 246.8 0 0 1-65.3 28c2.8 13.3 12.3 21 28.1 21.9 18.2 1 23.7 18.6 24.5 25.5 2.3 21.2-5.8 34.7-27.9 36.9l-91.8 3a53.5 53.5 0 0 1-22.3-4 71.6 71.6 0 0 1-43.1-54.3l-3.5-20.7h-533.5l-5 26.6a71.4 71.4 0 0 1-8.8 23.9c-13.4 22.8-38.9 35.7-65.3 34.1l-84.3-5c-21.4-1.6-31.9-18.9-27.2-40.4 2.5-11.1 15.1-20.3 30.6-21.1 23.3-1.2 30.3-20.2 29.9-43.6v-3.3q-7.1-3.7-13.9-7.9L770 2251c-33.3.6-49.7-38.2-23.2-55.3 54-34.9 146.4-69.2 184.5-78.3l.6-.2a248.9 248.9 0 0 1-12.6-117.6l182.9-961.4a240.3 240.3 0 0 1 33-93.8l-60.5-108.1a15 15 0 0 1 .9-16c24.9-34.9 89.3 8.5 130.8 42.6z" fill="none"></path></clipPath><linearGradient id="shadowGradient" x1="1180.91" y1="2153.98" x2="1714.46" y2="2153.98" gradientUnits="userSpaceOnUse"><stop offset="0" stop-color="gray"></stop><stop offset=".27" stop-color="#7d7d7d"></stop><stop offset=".46" stop-color="#747474"></stop><stop offset=".64" stop-color="#646464"></stop><stop offset=".8" stop-color="#4d4d4d"></stop><stop offset=".95" stop-color="#303030"></stop><stop offset="1" stop-color="#242424"></stop></linearGradient><linearGradient id="shadowGradient2" x1="1713.27" y1="794.55" x2="1713.27" y2="927.94" gradientUnits="userSpaceOnUse"><stop offset="0" stop-color="gray"></stop><stop offset=".14" stop-color="#797979"></stop><stop offset=".35" stop-color="#646464"></stop><stop offset=".6" stop-color="#434343"></stop><stop offset=".89" stop-color="#141414"></stop><stop offset="1"></stop></linearGradient><linearGradient id="shadowGradient3" x1="1028.58" y1="855.47" x2="1028.58" y2="2254.41" href="#shadowGradient" xlink:href="#shadowGradient"></linearGradient><linearGradient id="shadowGradient4" x1="1971.82" y1="1970.17" x2="1971.82" y2="2305.13" href="#shadowGradient" xlink:href="#shadowGradient"></linearGradient><linearGradient id="shadowGradient5" x1="1041.15" y1="888.73" x2="1175.15" y2="888.73" href="#shadowGradient2" xlink:href="#shadowGradient2"></linearGradient></defs><g clip-path="url(#shadowClipPath)"><path d="M1213.2 2110.7c-22.2 91.8 60.8 117.5 83.2 119.2 41.2 3.1 203.6 5.6 287.7-7.9 43.8-7 109.2-65.4 87.3-196.3l43 256.8h-533.5z" opacity=".2" fill="url(#shadowGradient)"></path><path d="M1233.2 855.5c-66 66-73.4 124.2-101.7 248-48.7 214.1-107.5 671.9-126.3 823.4a910.2 910.2 0 0 0-6.8 98.4v3.4c23.5 26 47.6 88.8 52.6 176.8l1.3 49s-31.3-.8-81-.8c-62 0-110.8-111.7-79.2-278.2 28.4-149.5-68-915.5-68-915.5l282.1-44.3s16-102.2 127-160.2z" opacity=".2" fill="url(#shadowGradient3)"></path><path d="M1854.3 2157.4s29.9-91.4 66.3-124.9c-39.4 75 14.1 92.7 28.1 87.7 53.7-19.2 75-66.7 79.2-150l65.3 116.3s-55 256-204 214l-38.7-18.1z" opacity=".2" fill="url(#shadowGradient4)"></path><path d="M1781.2 799.5s-38-26-102 41.5l-33.7 40.5 56.1 46.5z" opacity=".4" fill="url(#shadowGradient2)" style="mix-blend-mode:multiply"></path><path d="M1041.2 839.5s27.5-18.9 71.6-.8a122.7 122.7 0 0 1 47.5 35.2l14.9 17.9-37.7 54.9z" opacity=".4" fill="url(#shadowGradient5)" style="mix-blend-mode:multiply"></path></g></g><g id="highlight" style="mix-blend-mode:overlay"><defs><clipPath id="highlightClipPath"><path d="M1211.5 866.4a240.2 240.2 0 0 1 129.5-37.8h158.2A240.5 240.5 0 0 1 1607 854c24.5-19.2 89.4-68.2 129.3-66.3a15 15 0 0 1 12.1 22.9L1684 914.8a240.5 240.5 0 0 1 47.2 89.2l295.1 960.1a248.1 248.1 0 0 1-6.4 155.9l.8.3c47.5 13.8 136.8 46.1 179.8 75.5 26.1 17.8 10.1 55.9-23.2 55.3l-261.6-5a246.8 246.8 0 0 1-65.3 28c2.8 13.3 12.3 21 28.1 21.9 18.2 1 23.7 18.6 24.5 25.5 2.3 21.2-5.8 34.7-27.9 36.9l-91.8 3a53.5 53.5 0 0 1-22.3-4 71.6 71.6 0 0 1-43.1-54.3l-3.5-20.7h-533.5l-5 26.6a71.4 71.4 0 0 1-8.8 23.9c-13.4 22.8-38.9 35.7-65.3 34.1l-84.3-5c-21.4-1.6-31.9-18.9-27.2-40.4 2.5-11.1 15.1-20.3 30.6-21.1 23.3-1.2 30.3-20.2 29.9-43.6v-3.3q-7.1-3.7-13.9-7.9L770 2251c-33.3.6-49.7-38.2-23.2-55.3 54-34.9 146.4-69.2 184.5-78.3l.6-.2a248.9 248.9 0 0 1-12.6-117.6l182.9-961.4a240.3 240.3 0 0 1 33-93.8l-60.5-108.1a15 15 0 0 1 .9-16c24.9-34.9 89.3 8.5 130.8 42.6z" fill="none"></path></clipPath><linearGradient id="highlightGradient" x1="1844.99" y1="2256.39" x2="1844.99" y2="835.98" gradientUnits="userSpaceOnUse"><stop offset="0" stop-color="#fff" stop-opacity="0"></stop><stop offset=".72" stop-color="#fff"></stop></linearGradient><linearGradient id="highlightGradient2" x1="2116.32" y1="2248.97" x2="2116.32" y2="2113.28" href="#highlightGradient" xlink:href="#highlightGradient"></linearGradient><linearGradient id="highlightGradient3" x1="1044.74" y1="2253.08" x2="1044.74" y2="2117.39" gradientTransform="matrix(-1 0 0 1 1878.82 0)" href="#highlightGradient" xlink:href="#highlightGradient"></linearGradient><linearGradient id="highlightGradient4" x1="916.62" y1="1544.97" x2="1280" y2="1544.97" href="#highlightGradient" xlink:href="#highlightGradient"></linearGradient></defs><g clip-path="url(#highlightClipPath)" opacity=".3"><path d="M1547.8 836.6s70.1 33.5 92.1 64.8 44.1 86.3 65.6 181c58.9 258.7 229.4 683.2 275.5 888s-92.3 286-92.3 286l61.1-35.5s63-74.8 72.5-107.6c20.8-71.9 139-33 117.2-147.7-31.7-166.5-305.7-970.5-305.7-970.5s-123.4-29.9-151.2-79.3c-20.7-36.8-73.2-64.7-124.1-79.9z" fill="url(#highlightGradient)"></path><path d="M1999.2 2162.4s113.2 21.1 98.4 83.6l92.6 3 43.3-6.5-4.3-68.5-206.8-60.7z" fill="url(#highlightGradient2)"></path><path d="M951.2 2166.5s-113.2 21.1-98.4 83.6l-92.6 3-43.3-6.5 4.3-68.5 206.8-60.7z" opacity=".7" fill="url(#highlightGradient3)"></path><path d="M1124.3 1019.4l-176.1 935.1s-53.5 175 102.2 279l.3 20.2s-124.5-57.2-133.5-215.2 100-604 100-604l81.8-433s88.4-169.6 181-165c0-.1-140.8 103.5-155.7 182.9z" fill="url(#highlightGradient4)" style="mix-blend-mode:overlay"></path></g></g><g id="bodyMask"><path d="M1211.5 866.4a240.2 240.2 0 0 1 129.5-37.8h158.2A240.5 240.5 0 0 1 1607 854c24.5-19.2 89.4-68.2 129.3-66.3a15 15 0 0 1 12.1 22.9L1684 914.8a240.5 240.5 0 0 1 47.2 89.2l295.1 960.1a248.1 248.1 0 0 1-6.4 155.9l.8.3c47.5 13.8 136.8 46.1 179.8 75.5 26.1 17.8 10.1 55.9-23.2 55.3l-261.6-5a246.8 246.8 0 0 1-65.3 28c2.8 13.3 12.3 21 28.1 21.9 18.2 1 23.7 18.6 24.5 25.5 2.3 21.2-5.8 34.7-27.9 36.9l-91.8 3a53.5 53.5 0 0 1-22.3-4 71.6 71.6 0 0 1-43.1-54.3l-3.5-20.7h-533.5l-5 26.6a71.4 71.4 0 0 1-8.8 23.9c-13.4 22.8-38.9 35.7-65.3 34.1l-84.3-5c-21.4-1.6-31.9-18.9-27.2-40.4 2.5-11.1 15.1-20.3 30.6-21.1 23.3-1.2 30.3-20.2 29.9-43.6v-3.3q-7.1-3.7-13.9-7.9L770 2251c-33.3.6-49.7-38.2-23.2-55.3 54-34.9 146.4-69.2 184.5-78.3l.6-.2a248.9 248.9 0 0 1-12.6-117.6l182.9-961.4a240.3 240.3 0 0 1 33-93.8l-60.5-108.1a15 15 0 0 1 .9-16c24.9-34.9 89.3 8.5 130.8 42.6z" fill="none"></path></g><g id="body"><path fill="none" stroke="#31323D" stroke-width="12.5" stroke-miterlimit="10" d="M1714.5 2282.4h-533.6m-130.2-28.7c-89.2-47.1-145.7-146.2-131.5-254.1l182.9-961.4c15.8-119.9 118-209.6 238.9-209.6h158.2c107.8 0 202.5 71.6 231.9 175.4l295.1 960.1c39 137.9-45.2 275-175.8 309.9" stroke-linecap="round"></path><path fill="#31323D" d="M1228.6 2040.8c-1.7 15.3-3.8 30.4-6 45.6l-3.5 22.7-3.8 22.6c-2.6 15.1-5.4 30.1-8.1 45.2l-8.3 45.1-16.6 90.3c-.8 4.1-2 8.2-3.5 12.1-1.5 3.9-3.3 7.8-5.4 11.4-4.2 7.3-9.6 13.9-16 19.4-12.9 11.1-29 17.6-45.9 18.8l-6.3.2h-6.1l-11.5-.7-22.9-1.3-45.8-2.8h-4.7l-1.8-.3c-2.3-.4-4.5-1-6.7-1.7-4.6-1.6-8.7-4.1-12.3-7.3-3.6-3.3-6.4-7.3-8.3-11.7-1.8-4.3-2.9-8.9-3.1-13.5-.2-4.4.1-8.9 1-13.2l.2-.8v-1.7l.3-1.1c.4-1.2.9-2.4 1.5-3.6 1.1-2.2 2.5-4.3 4.1-6.2 3.1-3.6 6.8-6.6 11-8.8 4-2.1 8.3-3.6 12.7-4.5 2.2-.4 4.4-.8 6.6-.9l2.7-.2 2.1-.3c1.5-.3 2.9-.7 4.3-1.2 1.3-.5 2.6-1.1 3.8-1.9 4.6-3 7.7-8.4 9.4-14.8 1.6-6.8 2.2-13.8 1.8-20.8l-.9-22.9-1.9-45.9c-.6-15.3-1.3-30.6-1.8-45.9v.5c-.6-5-1.3-9.9-2-14.9-.4-2.5-.8-4.9-1.2-7.4s-.9-4.9-1.4-7.3-1-4.9-1.6-7.3l-1.8-7.2c-1.3-4.8-2.7-9.5-4.4-14.2-.8-2.3-1.7-4.6-2.6-6.9s-1.8-4.6-2.9-6.8l-1.5-3.4-1.6-3.3-1.7-3.3-1.8-3.3-1.8-3.2-1.9-3.2-4-6.3c-1.4-2.1-2.8-4.1-4.3-6.2l-2.2-3-2.3-3c-.8-.9-.7-2.3.2-3.2s2.3-.7 3.2.2l5.4 5.6c1.7 1.9 3.4 3.9 5.1 5.9 1.7 2 3.3 4 4.8 6.1l2.3 3.2 2.2 3.2c1.5 2.2 2.9 4.3 4.2 6.6l2 3.4 1.9 3.4c1.3 2.3 2.4 4.6 3.5 7 1.1 2.4 2.2 4.7 3.2 7.2 2 4.8 3.8 9.7 5.4 14.7 1.6 5 3 10 4.2 15 .6 2.5 1.2 5.1 1.7 7.6s1.1 5.1 1.5 7.6c.9 5.1 1.7 10.2 2.4 15.3v.5c.9 15.3 1.6 30.6 2.4 45.8l2.3 45.8 1.1 22.9c.2 4.1.2 8.2-.1 12.3-.3 4.2-.9 8.4-1.9 12.5-.5 2.1-1.2 4.2-2 6.3-.9 2.1-1.9 4.2-3.1 6.2-2.5 4.1-5.8 7.7-9.8 10.4-4 2.6-8.5 4.5-13.2 5.3l-3.5.5-3 .2c-1.6.1-3.1.3-4.7.6-3.1.6-6 1.7-8.8 3.2-2.6 1.4-5 3.3-6.9 5.5-.9 1-1.6 2.1-2.2 3.3-.6 1.2-1 2.4-1.2 3.7-.7 3.2-.9 6.4-.7 9.6.2 3 .8 5.9 2 8.7 1.1 2.6 2.8 5 4.9 6.9 2.1 1.9 4.6 3.4 7.3 4.3 1.4.5 2.9.8 4.4 1.1l1 .2h3.9l45.8 2.7 22.9 1.4 11.5.7h10.5c13.8-.9 27-6.2 37.6-15.2 5.2-4.5 9.6-9.8 13.1-15.7 3.5-6 6-12.4 7.4-19.2l17.4-90.1 8.7-45.1c2.9-15 5.8-30 8.8-45l4.7-22.5 5-22.4c3.4-14.9 7-29.8 11-44.6.2-1.4 1.4-2.3 2.7-2.2s2.4 1.5 2.2 2.9z"></path><path fill="#31323D" d="M1095.2 2319.6h-.5l-1.7.2c-2 .3-4 1-5.8 2-2.6 1.4-4.8 3.2-6.7 5.5-1.1 1.3-2 2.6-2.9 4-.9 1.5-1.7 3-2.4 4.6l-.5 1.2-.5 1.2-.5 1.2-.4 1.3c-.5 1.7-.9 3.4-1.3 5l-.5 2.4c-.2.8-.3 1.6-.4 2.4s-.4 3-.6 4.4-.2 2.6-.3 3.7-.1 2.1-.2 2.9v2.7c.2 3.5-2.4 6.5-5.9 6.7-3.5.2-6.5-2.4-6.7-5.9 0-.5 0-1 .1-1.5 0-.3.1-.5.1-.8l.5-2.7c.2-.9.3-1.9.6-3.1s.5-2.6.9-4.1.8-3.1 1.3-4.8l.8-2.6.9-2.7c.7-1.8 1.4-3.7 2.3-5.5l.6-1.4.7-1.4.7-1.4.8-1.4c1.1-1.8 2.3-3.5 3.6-5.2 1.3-1.6 2.7-3.1 4.2-4.5 2.7-2.5 5.9-4.5 9.4-5.8 2.5-.9 5.1-1.4 7.7-1.5h3.1c1.3.1 2.3 1.3 2.2 2.7-.2 1.4-1.4 2.3-2.7 2.2zm-42.5-4.7h-.6l-1.6.4-2.5.9-.7.3-.8.4-1.6.9-1.7 1.1-1.7 1.3-.9.7-.8.8-1.6 1.7-1.5 2-.7 1-.6 1.1-1.3 2.2-1.1 2.4c-.3.8-.7 1.6-1 2.4l-.8 2.5-.8 2.4-.6 2.5c-.4 1.5-.8 3.1-1 4.7l-.6 4.3c-.2 1.2-.3 2.5-.3 3.7l-.2 2.8-.2 2.5v.4c.2 3.5-2.5 6.4-6 6.6-3.5.2-6.4-2.5-6.6-6 0-.5 0-.9.1-1.4 0-.3.1-.5.1-.8l.5-2.7.6-3.1c.3-1.2.4-2.5.9-4l1.3-4.7c.5-1.8 1.1-3.5 1.8-5.2l1-2.7 1.3-2.7 1.3-2.7c.5-.9 1.1-1.8 1.6-2.7l1.7-2.6 1.9-2.4.9-1.2 1.1-1.1 2.1-2.1 2.2-1.8 1.1-.9 1.2-.7 2.2-1.4 2.2-1.1 2.1-.8 1-.4 1-.3c1.1-.3 2.1-.5 3.2-.7l2.2-.2h.8c1.2-.1 2.3.8 2.4 2 .1 1.2-.8 2.3-2 2.4zm621-289.7l2.2 9.4c1.4 6.1 3.4 15.1 5.8 26.6 1.2 5.7 2.5 12.1 3.9 19l4.4 22.5 4.8 25.6 5 28.4 23.3 135.3c1.1 6.1 2 12.8 3.6 17.8 1.7 5.5 4.1 10.8 7.2 15.7 6.3 10 15.3 18.1 25.9 23.4l4.1 1.9 1.1.4 1 .4 2 .7c2.7.8 5.6 1.4 8.4 1.7l4.3.3h4.6l10-.3 40.1-1.4 39.4-1.2 2.5-.3 1.2-.2.9-.2 1.9-.4 1.9-.6c2.4-.8 4.5-2 6.5-3.5 1.8-1.5 3.3-3.3 4.3-5.4.2-.6.6-1.1.7-1.7l.6-1.8c.4-1.3.6-2.6.8-3.9.2-1.4.3-2.7.4-4.1v-2.1s0-1.4-.1-2.2l-.2-2.2v-.3c0 .2-.2.3-.3.2-.2 0-.3-.2-.2-.3 0-.2.2-.3.3-.2.1 0 .2.1.2.2v-1.6l-.2-.8-.2-.9c-.1-.6-.4-1.3-.6-1.9-1.7-5-4.7-9.3-8.4-11.7-2-1.2-4.1-2-6.4-2.3l-1.8-.2-2.6-.2h-1.2l-1.5-.2-2.9-.5c-3.8-.9-7.5-2.3-10.9-4.2-3.5-2-6.6-4.7-9.1-8-2.4-3.1-4.1-6.7-5.3-10.4-1-3.5-1.7-7.1-1.9-10.7-.1-.9-.1-1.7-.1-2.6v-7.2l.2-9.1.8-35.4.2-8.6v-4.6l.3-4.2.3-4.2c.1-1.4.2-2.7.4-4.2l1-8.4c1.5-10.6 3.6-21.1 6.4-31.5 2.5-9.5 5.6-18.8 9.1-28l2.7-6.4c.9-2.1 1.7-4.2 2.7-6.2l2.8-5.9c.9-1.9 1.8-3.9 2.8-5.7l2.9-5.4 1.4-2.6 1.5-2.5 2.9-4.9c.9-1.6 1.8-3.2 2.8-4.7l5.6-8.7 5.4-7.7 2.6-3.5 2.5-3.2c1.6-2.1 3.1-4.1 4.6-5.8l4.1-4.9 3.5-4 6.6-7.1c.8-.9 2.2-1.1 3.1-.3.9.8 1.1 2.2.3 3.1l-5.6 7.8c-3.6 5.1-8.8 12.6-14.9 22.5l-4.7 7.8-4.8 8.8c-.9 1.5-1.7 3.1-2.5 4.7l-2.5 4.9-1.3 2.5-1.2 2.6-2.5 5.4c-7.4 16.3-13.4 33.2-17.7 50.6l-.9 3.6-.4 1.8-.4 1.8-1.5 7.4-.4 1.9-.3 1.9-.6 3.8-.6 3.9-.3 1.9-.2 1.9-.9 7.8c-.2 1.3-.2 2.7-.3 4.1l-.3 4.2-.3 4.2v12.5l-.5 35.4v15.8s0 1.4.1 2c.2 2.5.7 5.1 1.4 7.5.7 2.2 1.8 4.3 3.2 6.2 2.7 3.6 6.9 5.8 12 6.9l1.8.3.9.2h1.2l2.2.2 3 .3c4.1.6 8.1 2 11.7 4.2 3.5 2.2 6.6 5.1 9 8.5 2.3 3.2 4.1 6.8 5.4 10.5.3.9.6 1.8.8 2.8l.4 1.4.3 1.6v2.9l.2 2.7c.1.9.1 1.8.1 2.8s.1 1.8 0 2.8c-.1 1.9-.2 3.8-.5 5.7-.3 2-.7 3.9-1.2 5.8l-1 2.9c-.3 1-.8 1.9-1.3 2.9-1.9 3.9-4.6 7.3-7.9 10.1-3.3 2.6-6.9 4.7-10.9 6l-2.8.9-3 .7-1.5.3-1.3.2-2.5.3h-5.7l-5 .2-10 .4-20.1.7-40.1 1.3-10 .3h-5.4l-5.6-.4c-3.7-.4-7.4-1.2-11-2.3l-2.7-.9-1.4-.5-1.2-.5-4.9-2.3c-12.9-6.5-23.7-16.4-31.4-28.6-3.8-6-6.7-12.4-8.7-19.2l-.7-2.6-.3-1.3c-.1-.4-.2-.9-.3-1.3l-.5-2.3-.2-1.2v-1.4l-1.5-9.3-22-135.6-4.5-28.5-3.8-25.7-3.2-22.7c-1-7-1.8-13.4-2.5-19.3-1.5-11.6-2.5-20.8-3.2-27.1l-1-9.6c.4-1.1 1.7-1.7 2.8-1.3.4.1.7.4 1 .7z"></path><path fill="#31323D" d="M1783.2 2307.4h3.2c2.7.3 5.4.8 8 1.7 1.8.6 3.5 1.3 5.1 2.1 1.9.9 3.6 2 5.3 3.3 1.8 1.3 3.5 2.9 5 4.5.7.9 1.5 1.7 2.2 2.7l1 1.4 1 1.5c1.2 1.9 2.4 4 3.3 6.1.9 2 1.7 4.1 2.4 6.2.4 1 .6 2 .9 3s.5 2 .7 2.9l.6 2.8.4 2.6c.3 1.7.4 3.2.6 4.6s.3 2.5.3 3.5l.2 3.1c-.2 3.5-3.1 6.2-6.6 6-3-.1-5.4-2.3-5.9-5.2v-1l.2-2.7c.1-.9.1-1.9.1-3.1s.1-2.6 0-4v-2.3l-.2-2.4c-.1-.8-.2-1.7-.3-2.5s-.2-1.8-.4-2.6c-.3-1.8-.8-3.6-1.3-5.3-.6-1.8-1.3-3.5-2.1-5.2l-.6-1.3-.7-1.2c-.4-.8-1-1.6-1.5-2.3-1-1.5-2.2-2.8-3.5-4.1-2.3-2.3-5-4.1-8-5.5-2.1-1-4.3-1.7-6.6-2.2l-1.9-.3h-.7c-1.3.1-2.4-1-2.5-2.3s1-2.4 2.3-2.5zm50.6-3.2h3.2c2.7.3 5.4.8 8 1.7 1.8.6 3.5 1.3 5.1 2.1 1.9.9 3.6 2 5.3 3.3 1.8 1.3 3.5 2.9 5 4.5.7.9 1.5 1.7 2.2 2.7l1 1.4 1 1.5c1.2 1.9 2.4 4 3.3 6.1.9 2 1.7 4.1 2.4 6.2.4 1 .6 2 .9 3s.5 2 .7 2.9l.6 2.8.4 2.6c.3 1.7.4 3.2.6 4.6s.3 2.5.3 3.5l.2 3.1c.5 3.4-2 6.6-5.4 7.1-3.4.5-6.6-2-7.1-5.4-.1-.5-.1-1.1 0-1.6v-.3l.2-2.7c.1-.9.1-1.9.1-3.1s.1-2.6 0-4v-2.3l-.2-2.4c-.1-.8-.2-1.7-.3-2.5s-.2-1.8-.4-2.6c-.3-1.8-.8-3.6-1.3-5.3-.6-1.8-1.3-3.5-2.1-5.2l-.6-1.3-.7-1.2c-.4-.8-1-1.6-1.5-2.3-1-1.5-2.2-2.8-3.5-4.1-2.3-2.3-5-4.1-8-5.5-2.1-1-4.3-1.7-6.6-2.2l-1.9-.3h-.7c-1.3.1-2.4-1-2.5-2.3s1-2.4 2.3-2.5z"></path><path fill="none" stroke="#31323D" stroke-width="12.5" stroke-miterlimit="10" d="M1206.2 862.9c-41.5-34.1-105.9-77.5-130.8-42.6-3.4 4.7-3.7 10.9-.9 16l60.5 108.1m472-90.4c24.5-19.2 89.4-68.2 129.3-66.3 8.3.4 14.7 7.4 14.3 15.6-.1 2.6-.9 5.1-2.2 7.3L1684 914.8M931.3 2117.4c-38.1 9.1-130.4 43.4-184.5 78.3-26.5 17.1-10.1 55.9 23.2 55.3l280.4-5.5" stroke-linecap="round"></path><path fill="#31323D" d="M840.5 2200.1l-.7.2-2 .6-3.1 1-4 1.5-4.5 2.1c-1.6.8-3.2 1.8-4.7 2.8-1.6 1.1-3 2.2-4.4 3.5-1.4 1.3-2.6 2.7-3.7 4.2l-.8 1.1-.7 1.2c-.4.8-.8 1.6-1.1 2.4-.2.4-.3.8-.4 1.2l-.3 1.2c-.2.8-.3 1.6-.4 2.4v3.6c0 .4.1.8.1 1.2 0 .7.1 1.5.3 2.2.2.7.3 1.4.5 2.1.3 1.2.7 2.4 1.2 3.6.4 1 .8 1.9 1.2 2.8l1.2 2.4.2.3c1.3 3.2-.3 6.9-3.5 8.2-2.9 1.2-6.2 0-7.8-2.7l-.3-.7-1.1-3.1c-.4-1-.7-2.2-1.1-3.7-.4-1.6-.8-3.3-1-4.9-.1-.9-.2-1.9-.3-2.9-.1-1.1-.1-2.1-.1-3.2v-1.7l.2-1.7c.1-.6.1-1.2.2-1.7l.4-1.8c.3-1.2.6-2.4 1-3.5.2-.6.4-1.1.7-1.7l.8-1.7c.6-1.1 1.3-2.2 2-3.2l1.1-1.5 1.2-1.4c1.6-1.8 3.4-3.5 5.4-4.9 1.8-1.4 3.8-2.6 5.8-3.6 1.9-1 3.8-1.8 5.7-2.6l5.2-1.8 4.4-1.2 3.5-.7 2.3-.3h.8c1.2-.2 2.4.6 2.6 1.8.2 1.2-.6 2.4-1.8 2.6h-.2zm-47.5 2h-.6l-1.7.5c-2 .7-4 1.5-5.9 2.5-1.2.7-2.4 1.4-3.6 2.2-1.2.9-2.4 1.8-3.5 2.9-1.1 1.1-2.1 2.4-2.9 3.7-.8 1.3-1.5 2.7-2 4.2-.2.7-.4 1.5-.6 2.2-.1.8-.3 1.5-.3 2.3-.1 1.5-.1 3.1.1 4.6.2 1.4.4 2.9.8 4.3s.7 2.7 1.2 3.9l.6 1.7.7 1.5.6 1.3.6 1.1 1.1 2.1v.2c1.2 3.3-.5 6.9-3.7 8.1-2.8 1-5.9 0-7.5-2.5l-.3-.8-.9-2.7-.5-1.4-.5-1.7-.5-1.9c-.2-.7-.3-1.4-.5-2.2s-.6-3.3-.8-5.1c-.2-2-.3-3.9-.2-5.9.1-2.1.3-4.2.8-6.3.2-1.1.6-2.1.9-3.2.4-1.1.8-2.1 1.3-3.1 1-2 2.2-3.9 3.6-5.6 1.4-1.6 2.9-3 4.5-4.3 1.5-1.1 3.1-2.1 4.8-3 1.5-.8 3-1.4 4.6-2 2.3-.9 4.7-1.5 7.1-2l2-.3h.8c1.2-.2 2.4.6 2.6 1.8.2 1.2-.6 2.4-1.8 2.6h-.4v.3z"></path><path fill="none" stroke="#31323D" stroke-width="12.5" stroke-miterlimit="10" d="M2020.7 2120.2c47.5 13.8 136.8 46.1 179.8 75.5 26.1 17.8 10.1 55.9-23.2 55.3l-261.6-5.1" stroke-linecap="round"></path><path fill="#31323D" d="M2107.6 2193.7h.8l2.3.4 3.5.8 4.5 1.4 5.2 2c1.9.8 3.8 1.8 5.6 2.8 2 1.1 3.9 2.4 5.7 3.8 1.9 1.5 3.7 3.2 5.3 5.1l1.2 1.5 1.1 1.6c.7 1.1 1.3 2.2 1.9 3.3.3.6.5 1.2.8 1.7s.5 1.2.7 1.8l.6 1.8.3.9.2.9c.3 1.2.5 2.3.6 3.5.1 1.1.2 2.3.2 3.4 0 2.1-.1 4.1-.4 6.2-.2 1.7-.6 3.4-1 5-.4 1.5-.7 2.8-1.1 3.7l-1.1 3.2c-1.6 3.1-5.3 4.4-8.5 2.8-2.5-1.3-3.9-4.1-3.3-6.9l.3-.7.2-.3 1.2-2.4c.4-.8.7-1.7 1.2-2.8s.8-2.3 1.2-3.7c.4-1.4.6-2.9.8-4.4.1-.8.1-1.6.1-2.4 0-.8 0-1.7-.1-2.5v-1.2l-.2-1.3c-.1-.4-.2-.8-.4-1.3-.1-.4-.2-.9-.4-1.3-.3-.9-.7-1.7-1.1-2.5l-.7-1.2-.8-1.2c-1.1-1.6-2.3-3.1-3.7-4.4-1.4-1.4-2.8-2.6-4.4-3.8-1.5-1.1-3.1-2.1-4.7-3l-4.5-2.3c-2.3-1.1-4.7-2.1-7.1-2.9l-2-.6-.7-.2h-.1c-1.2-.4-1.8-1.6-1.5-2.7.3-1 1.3-1.7 2.3-1.6zm47.5 2h.8l2.1.4c2.4.6 4.8 1.4 7.1 2.4 1.5.7 3 1.4 4.5 2.3 1.6 1 3.2 2.1 4.7 3.3 1.6 1.4 3.1 2.9 4.4 4.5 2.1 2.6 3.7 5.6 4.8 8.8.4 1.1.6 2.2.9 3.2s.4 2.2.6 3.3.3 2.2.2 3.2.1 2.1 0 3.1l-.2 2.9c-.3 1.8-.5 3.6-.8 5.2l-.5 2.3-.6 2-.5 1.8-.5 1.4-.9 2.7c-1.6 3.1-5.3 4.4-8.5 2.8-2.5-1.3-3.9-4.1-3.3-6.9l.3-.7v-.3l1.1-2.2.6-1.2.6-1.4.7-1.6.6-1.7c.5-1.2.8-2.6 1.2-4l.4-2.2c.2-.7.2-1.5.3-2.3s.1-1.5.1-2.3-.1-1.6-.1-2.4-.2-1.6-.3-2.4c-.2-.8-.4-1.5-.6-2.3-.5-1.5-1.2-3-2-4.4-.8-1.4-1.8-2.7-2.9-3.9-1.1-1.2-2.3-2.2-3.5-3.2-1.1-.9-2.4-1.7-3.6-2.4-1.9-1.1-3.9-2.1-5.9-2.9l-1.7-.6-.6-.2h-.1c-1-.6-1.4-2-.8-3 .4-.7 1.1-1.1 1.9-1.1z"></path></g><g id="eye"><defs><clipPath id="eyeClipPath"><path fill="#fff" stroke="#31323d" stroke-width="10" stroke-miterlimit="10" d="M1291.6 1125.7c0 95.5-32.9 116.3-86.2 106.3a239.9 239.9 0 0 0-79.7-1.9c-56.6 8.5-94.1-14.6-93.5-100.6.4-70.6 56.3-129.2 126.8-130.7s132.6 55.2 132.6 126.9z" stroke-linecap="round"></path></clipPath><clipPath id="eyeClipPath2"><path fill="#fff" stroke="#31323d" stroke-width="10" stroke-miterlimit="10" d="M1573.5 1107.9c0 95.5 32.9 116.3 86.2 106.3a239.9 239.9 0 0 1 79.7-1.9c56.6 8.5 94.1-14.6 93.5-100.6-.4-70.6-56.3-129.2-126.8-130.7s-132.6 55.2-132.6 126.9z" stroke-linecap="round"></path></clipPath></defs><path fill="#fff" d="M1291.6 1125.7c0 95.5-32.9 116.3-86.2 106.3a239.9 239.9 0 0 0-79.7-1.9c-56.6 8.5-94.1-14.6-93.5-100.6.4-70.6 56.3-129.2 126.8-130.7s132.6 55.2 132.6 126.9z"></path><g clip-path="url(#eyeClipPath)"><circle cx="1180.3" cy="1149.9" r="77" fill="#a56429" transform="translate(-25 26.2) rotate(-1.3)"></circle><circle cx="1182.1" cy="1147" r="58.1" fill="#31323d" transform="matrix(1, -0.02, 0.02, 1, -24.98, 26.14)"></circle><circle cx="1210.8" cy="1105.3" r="30.9" fill="#fff" transform="translate(-24 26.8) rotate(-1.3)"></circle></g><path fill="none" stroke="#31323d" stroke-width="10" stroke-miterlimit="10" d="M1291.6 1125.7c0 95.5-32.9 116.3-86.2 106.3a239.9 239.9 0 0 0-79.7-1.9c-56.6 8.5-94.1-14.6-93.5-100.6.4-70.6 56.3-129.2 126.8-130.7s132.6 55.2 132.6 126.9z" stroke-linecap="round"></path><path fill="#fff" d="M1573.5 1107.9c0 95.5 32.9 116.3 86.2 106.3a239.9 239.9 0 0 1 79.7-1.9c56.6 8.5 94.1-14.6 93.5-100.6-.4-70.6-56.3-129.2-126.8-130.7s-132.6 55.2-132.6 126.9z"></path><g clip-path="url(#eyeClipPath2)"><circle cx="1684.8" cy="1132" r="77" fill="#a56429" transform="translate(516.1 2791.6) rotate(-88.7)"></circle><circle cx="1687.1" cy="1133.1" r="58.1" fill="#31323d" transform="translate(517.2 2794.9) rotate(-88.7)"></circle><circle cx="1733.9" cy="1087.5" r="30.9" fill="#fff" transform="translate(608.6 2797.1) rotate(-88.7)"></circle></g><path fill="none" stroke="#31323d" stroke-width="10" stroke-miterlimit="10" d="M1573.5 1107.9c0 95.5 32.9 116.3 86.2 106.3a239.9 239.9 0 0 1 79.7-1.9c56.6 8.5 94.1-14.6 93.5-100.6-.4-70.6-56.3-129.2-126.8-130.7s-132.6 55.2-132.6 126.9z" stroke-linecap="round"></path></g><g id="mouth"><defs><clipPath id="mouthClipPath"><path d="M1437.6 1205.5c-40.7 94.1-88.3 119.6-127.7 119.8 0 0 27.6 79.8 70.1 74.7s32.9-22.8 68.9-21.3c33.8 1.4 44.4 29.9 73.3 29s56.5-83.2 56.5-83.2c-77.7-2.9-140.9-107-140.9-107" fill="#31323d"></path></clipPath></defs><path d="M1437.6 1205.5c-40.7 94.1-88.3 119.6-127.7 119.8 0 0 27.6 79.8 70.1 74.7s32.9-22.8 68.9-21.3c33.8 1.4 44.4 29.9 73.3 29s56.5-83.2 56.5-83.2c-77.7-2.9-140.9-107-140.9-107" fill="#31323d"></path><g clip-path="url(#mouthClipPath)" fill="#fff" stroke="#31323d" stroke-linecap="round" stroke-miterlimit="10"><path d="M1388.8 1275.7l8 17.2c8.7 18.8 36.9 11.8 35.9-8.9l-3.1-65.8-35.5 48.8z"></path><path d="M1485.3 1257.5l-13.1 34.8c-4.3 11.4-21 9.1-22.1-3l-6.3-73.4 16.2 12.4z"></path></g><path d="M1308.5 1325.2s29.2 74.3 69.3 74.8c36 .4 31-23.3 68.7-21.2 39.9 2.3 42.9 30 75.7 28.8s59.2-83.1 59.2-83.1" fill="none" stroke="#31323d" stroke-linecap="round" stroke-miterlimit="10" stroke-width="8"></path><path d="M1444.2 1213.6l1.5 2.6c1.1 1.7 2.6 4.2 4.7 7.4 4.2 6.3 10.4 15.2 18.6 25.4 4.1 5.1 8.7 10.5 13.7 15.9s10.6 11.1 16.6 16.5a204.3 204.3 0 0 0 19.4 15.7 151.6 151.6 0 0 0 21.9 13.1 115.9 115.9 0 0 0 11.8 4.9 100.1 100.1 0 0 0 12.1 3.5 86.4 86.4 0 0 0 24.4 2 85.4 85.4 0 0 0 22.5-4.5 98 98 0 0 0 18.8-8.9 121.3 121.3 0 0 0 14.5-10.3l3-2.4 2.7-2.4 2.5-2.2 2.2-2.1 3.6-3.6 2.6-2.8 2.2-2.3a1.8 1.8 0 0 1 2.6 2.3l-2.1 2.4-2.5 2.9-3.6 3.8-2.1 2.3-2.4 2.4-2.6 2.6-3 2.6a126.2 126.2 0 0 1-14.6 11.3 103.7 103.7 0 0 1-19.5 10.2 92.1 92.1 0 0 1-24.1 5.9 94 94 0 0 1-26.6-1.1 108.6 108.6 0 0 1-13.3-3.3 124.9 124.9 0 0 1-12.9-4.8 161.3 161.3 0 0 1-23.9-13 215 215 0 0 1-21-15.7c-6.5-5.5-12.5-11.1-18-16.6s-10.5-10.9-14.9-16c-8.9-10.2-15.8-19.2-20.4-25.6-2.3-3.2-4.1-5.8-5.3-7.6l-1.4-2.1-.5-.7a7.5 7.5 0 1 1 12.6-8.1v.3z" fill="#31323d"></path><path d="M1230.3 1290.9l2.3 1.9c1.5 1.2 3.9 3 6.9 5.1s6.8 4.6 11.3 7.1a137.3 137.3 0 0 0 15.5 7.6 116 116 0 0 0 19.3 6.1 98.3 98.3 0 0 0 22.2 2.4 89 89 0 0 0 11.6-.9l2.9-.5 2.9-.6 2.9-.7 2.9-.8a86.8 86.8 0 0 0 11.4-4.1c1.9-.8 3.7-1.7 5.5-2.6l2.7-1.5 2.7-1.5a123.8 123.8 0 0 0 19.5-14.7 156.9 156.9 0 0 0 16.2-17.2c4.9-6.1 9.2-12.3 13.2-18.2s7.4-11.9 10.4-17.4l2.2-4 2-3.9 1.9-3.7 1.7-3.6c2.3-4.6 4.1-8.7 5.6-12 .8-1.7 1.3-3.2 2.1-4.5a14.5 14.5 0 0 1 2.2-3 11.5 11.5 0 0 1 1.9-1.6l.8-.5h.1a6.5 6.5 0 0 1 8.7 3.1l.4.9a6.2 6.2 0 0 1 .2.9 11.5 11.5 0 0 1 0 2.6 15.2 15.2 0 0 1-.8 3.8 42.7 42.7 0 0 1-2.1 4.6c-1.7 3.4-3.7 7.6-6.2 12.3l-1.9 3.6-2.1 3.8-2.2 4-2.5 4.2c-3.3 5.7-7.2 11.7-11.5 17.9a231.4 231.4 0 0 1-14.7 18.8 168.8 168.8 0 0 1-18.2 18.1 127.7 127.7 0 0 1-22 15.1l-3 1.5-3 1.5c-2.1.9-4.1 1.8-6.2 2.6a96.3 96.3 0 0 1-12.8 4 93.8 93.8 0 0 1-25.7 2.4 101.7 101.7 0 0 1-23.6-3.9 122 122 0 0 1-19.8-7.7 142 142 0 0 1-15.5-8.9 134.8 134.8 0 0 1-11.1-8.1c-2.9-2.4-5.2-4.4-6.6-5.8l-2.2-2.2a1.2 1.2 0 0 1 1.6-1.8z" fill="#31323d"></path><path d="M1369.1 1198.9a15 15 0 0 1 3.4-16c8.9-8.9 27.9-22.2 63.7-23s52.9 11.4 61.1 20.1a14.9 14.9 0 0 1 2.8 16.1 20.9 20.9 0 0 1-18.1 12.6c-10.1.5-24 3.7-32.6 16.4a13.2 13.2 0 0 1-1.8 2.2l-.3.3a17.7 17.7 0 0 1-25.4-1s-7.5-12.4-34.5-14.1a20.8 20.8 0 0 1-18-13.3v-.3z" fill="#31323d"></path><path d="M1528.6 1236.9l4-.7 11.5-1.8c9.9-1.4 24.1-3.1 41.1-4.2a545.1 545.1 0 0 1 58.4-.6c10.7.5 21.7 1.3 32.8 2.6s22.4 3 33.6 5.2 22.2 4.9 33 8.1a301.2 301.2 0 0 1 30.9 11.2 260 260 0 0 1 27.5 13.7 220.6 220.6 0 0 1 22.9 15.2 202.8 202.8 0 0 1 17.7 15.1l3.6 3.5 3.2 3.3 2.9 3.1 2.6 2.9c1.7 1.8 3 3.6 4.3 5.1l3 3.8 2.5 3.2-2.6-3.2-3.1-3.7c-1.3-1.4-2.7-3.1-4.4-4.9l-2.7-2.9-3-3-3.3-3.2-3.6-3.4a201.6 201.6 0 0 0-18-14.5 218.6 218.6 0 0 0-23.1-14.5 257.2 257.2 0 0 0-27.6-12.8 297.5 297.5 0 0 0-30.9-10.2c-10.7-2.9-21.7-5.3-32.8-7.1s-22.3-3.2-33.3-4.2-21.9-1.5-32.4-1.6a537.4 537.4 0 0 0-57.5 2.2c-16.8 1.5-30.7 3.6-40.3 5.2l-11.2 2-4 .8a5 5 0 1 1-2-9.8h.1z" fill="#31323D"></path><path d="M1702.9 1192.9h-14.3l-9.9.4-11.7.7-13 1.1c-4.5.5-9.2.9-13.9 1.5l-7.1.9-7.1 1-7.1 1.1-7.1 1.2-6.9 1.3-6.7 1.4-6.5 1.4-6.2 1.4-11.3 2.8-9.5 2.6-7.3 2.1-6.3 1.9a5 5 0 0 1-2.9-9.6h.3l6.5-1.5 7.5-1.7 9.8-2 11.6-2.1 6.4-1 6.7-1 6.9-.9 7.1-.9 7.2-.8 7.3-.7 7.3-.6 7.2-.4c4.8-.3 9.5-.4 14-.6l13.1-.2h11.7l9.9.3 7.6.4z" fill="#31323D"></path><path d="M1541.7 1260.4l7.8-.9 4.4-.2 5.1-.2c3.6.1 7.7.1 12.1.6l3.4.3 3.5.6 3.6.6 3.6.8 3.7.9 3.8 1.1 3.8 1.1 3.8 1.3 3.9 1.4 3.9 1.6 3.9 1.7 3.8 1.8 1.9.9 1.9 1 3.8 2 7.4 4.4c4.8 3.1 9.6 6.3 14.1 9.8s8.8 7 12.8 10.5 7.8 7.1 11.2 10.6 6.6 6.9 9.5 10 5.4 6.2 7.6 8.9 4 5.1 5.6 7c3 4 4.6 6.3 4.6 6.3s-1.7-2.3-4.9-6.1c-1.6-1.9-3.6-4.2-5.9-6.7s-5-5.4-8-8.4-6.3-6.2-10-9.4-7.5-6.5-11.7-9.8-8.5-6.5-13.2-9.6-9.4-6-14.3-8.8l-7.4-3.9-3.8-1.8-1.9-.9-1.9-.8-3.8-1.6-3.8-1.4-3.8-1.3-3.8-1.1-3.7-1.1-3.7-.9-3.6-.8-3.5-.6-3.4-.6-3.4-.4-3.2-.4h-3.1c-4.1-.3-7.8 0-11.2 0l-4.5.4-3.8.4-7.7 1.4a5 5 0 1 1-1.7-9.8h.3z" fill="#31323D"></path><path d="M1351.1 1256.6l-15.4-3.5c-9.7-2.2-23.6-5.4-40.4-8.7-8.4-1.6-17.5-3.3-27.1-4.8s-19.9-2.9-30.5-4.1-21.6-2.1-32.8-2.6-22.6-.6-33.9-.2a334.8 334.8 0 0 0-33.8 2.9c-5.5.7-11 1.7-16.4 2.7s-10.7 2.3-15.8 3.7a200.5 200.5 0 0 0-53.6 22.5 165.1 165.1 0 0 0-19 13.5c-1.4 1.1-2.6 2.2-3.8 3.3l-3.5 3.1-3.2 3-2.8 2.8c-1.8 1.8-3.2 3.4-4.6 4.9l-1.8 2-1.4 1.7-2.6 3.2 2.6-3.2 1.4-1.8 1.7-2.1c1.3-1.5 2.7-3.2 4.4-5l2.7-2.9 3.1-3.1 3.4-3.3c1.2-1.1 2.4-2.3 3.8-3.4a166.3 166.3 0 0 1 18.7-14.2 202.9 202.9 0 0 1 53.5-24.2c5.2-1.6 10.5-2.9 15.9-4.2s10.9-2.3 16.5-3.2a339.3 339.3 0 0 1 34.1-3.8c11.5-.7 23-.9 34.3-.7s22.5.8 33.2 1.7 21.1 2 30.9 3.3 19 2.7 27.5 4.1c17 2.8 31.1 5.7 40.9 7.6l15.4 3.1a5 5 0 0 1-2 9.8h-.1z" fill="#31323D"></path><path d="M1178.2 1192.5l1.8-.3 5-.7 7.8-.8 10.2-.7c7.5-.4 16.2-.6 25.6-.2 4.7.2 9.5.5 14.4 1l7.4.8 7.4 1 7.4 1.2 7.3 1.4c4.8 1 9.6 2.1 14.1 3.3l6.7 1.9 6.4 2c4.1 1.3 8 2.6 11.5 4l9.6 3.8 7.3 3.1 4.7 2.1 1.6.8a5 5 0 1 1-4.2 9.1h-.2l-1.5-.8-4.4-2.3-6.9-3.5-9.1-4.2c-3.3-1.5-7-3-10.9-4.6l-6.1-2.3-6.4-2.2c-4.4-1.4-8.9-2.9-13.6-4.1l-7.1-1.8-7.2-1.7-7.3-1.5-7.2-1.2c-4.8-.8-9.5-1.4-14.1-1.9-9.2-.9-17.9-1.4-25.3-1.4h-10.1l-7.8.4-5 .4h-1.8z" fill="#31323D"></path><path d="M1337.6 1279.9l-7.6-2.1-3.7-.7-2.1-.4-1.1-.2h-1.2l-5.3-.5h-9l-3.3.2c-2.2.1-4.5.5-6.8.7s-4.7.8-7.2 1.3l-1.8.4-1.8.5-3.7 1-3.8 1.2-3.8 1.3-7.6 3a163 163 0 0 0-15 7.4l-3.7 2.1-3.6 2.2c-2.4 1.4-4.7 3.1-7.1 4.6l-6.8 4.8c-2.2 1.7-4.4 3.2-6.4 4.9l-3.1 2.5-3 2.5-5.7 4.9-5.3 4.8-4.8 4.6c-3 3-5.8 5.8-8.2 8.4l-6 6.7c-3.3 3.8-5 6-5 6s1.6-2.3 4.7-6.3c1.5-2 3.4-4.3 5.7-7s4.8-5.7 7.7-8.8l4.6-4.9 5-5.1 5.5-5.3 2.9-2.7 3-2.7c2-1.8 4.1-3.5 6.2-5.3l6.6-5.2c2.3-1.7 4.5-3.5 6.9-5.1l3.6-2.5 3.7-2.3a168.5 168.5 0 0 1 15.1-8.5l7.8-3.6 3.9-1.5 3.9-1.4 3.9-1.3 1.9-.6 1.9-.5c2.6-.6 5.1-1.4 7.6-1.8s4.9-1 7.3-1.2l3.5-.4 1.7-.2h1.7l6.4-.2 5.8.3h1.3l1.3.2 2.5.3 4.4.6 7.7 1.7a5 5 0 1 1-2.1 9.8h-.3z" fill="#31323D"></path><path d="M1385.5 1459.6s5.7 72.4 66.5 68.4c58.8-3.9 63.6-72 63.6-72s-20.4 30.8-58.4 32.3-71.7-28.7-71.7-28.7z" fill="#595959" opacity=".2" style="mix-blend-mode:multiply"></path><path d="M1518.2 1453l-.4 1.8c-.2.6-.3 1.3-.6 2.2l-1 3-1.5 3.6c-.6 1.3-1.3 2.7-2.1 4.1a56.1 56.1 0 0 1-6.4 9.1 63 63 0 0 1-9.6 9.1l-2.9 2.1-3.1 2c-2.1 1.3-4.4 2.5-6.7 3.6s-4.8 2-7.3 2.9l-3.8 1.2-3.9 1a77.5 77.5 0 0 1-16.3 1.8 81.8 81.8 0 0 1-16.2-1.5 83.6 83.6 0 0 1-15-4.5l-.9-.4-.4-.2h-.5l-1.6-.7-3.3-1.6c-2.2-1.1-4.3-2.3-6.2-3.5a76.6 76.6 0 0 1-10.4-7.8 75.2 75.2 0 0 1-7.6-7.8 71.2 71.2 0 0 1-4.9-6.7c-.7-.9-1.1-1.9-1.6-2.6l-1.1-2-.9-1.7a2.5 2.5 0 0 1 4-2.9h.1l1.2 1.3 3.5 3.5c1.5 1.5 3.5 3.1 5.7 5s4.9 3.7 7.9 5.6a91.1 91.1 0 0 0 9.9 5.5l2.8 1.2 2.8 1.2 3 1.1 1.6.6 1.4.4a85.9 85.9 0 0 0 12.9 3 81.6 81.6 0 0 0 13.5.9 80.6 80.6 0 0 0 13.4-1.3l3.3-.7 3.2-.8c2.1-.6 4.1-1.2 6.1-2s3.9-1.5 5.7-2.4l2.7-1.4 2.6-1.4a65.7 65.7 0 0 0 9-6.3 60.7 60.7 0 0 0 6.8-6.6 72.3 72.3 0 0 0 4.7-5.8l1.5-2.2c.5-.6.8-1.3 1.1-1.8l1-1.5a2.5 2.5 0 0 1 4.8 1.3z" fill="#31323d"></path></g></svg>