<?xml version="1.0" encoding="utf-8"?>
<!-- Generator: Adobe Illustrator 16.0.0, SVG Export Plug-In . SVG Version: 6.00 Build 0)  -->
<!DOCTYPE svg PUBLIC "-//W3C//DTD SVG 1.1//EN" "http://www.w3.org/Graphics/SVG/1.1/DTD/svg11.dtd">
<svg version="1.1" id="Selected_Items" xmlns="http://www.w3.org/2000/svg" xmlns:xlink="http://www.w3.org/1999/xlink" x="0px"
	 y="0px" width="1024px" height="768px" viewBox="0 0 1024 768" enable-background="new 0 0 1024 768" xml:space="preserve">
<g>
	<g>
		<path fill-rule="evenodd" clip-rule="evenodd" fill="#E28E33" d="M486.3,627.35C619.4,552.483,762.116,504.4,914.45,483.1
			c29.733-4.166,59.85-7.3,90.35-9.399c6.384-0.446,12.784-0.846,19.2-1.2V768H717.4c-7-5.8-14.084-11.467-21.25-17
			C632.45,701.434,562.5,660.217,486.3,627.35z"/>
		<path fill-rule="evenodd" clip-rule="evenodd" fill="#BF782B" d="M717.4,768H0V530.475c183.459,3.889,345.56,36.181,486.3,96.875
			C562.5,660.217,632.45,701.434,696.15,751C703.316,756.533,710.4,762.2,717.4,768z"/>
		<path fill-rule="evenodd" clip-rule="evenodd" fill="#D08D46" d="M486.3,627.35C345.56,566.655,183.459,534.363,0,530.475V390.825
			c21.919-1.539,43.802-2.864,65.649-3.976v-44.8h-8.6v-8.899l38.4-38.4h136l36.65,36.8v10.5h-8.5v40.4
			c12.433,0.033,24.883,0.183,37.35,0.45c0.566,0,1.166,0.016,1.8,0.05c1.967,0.033,3.967,0.066,6,0.1l3.899-15.05v-0.25
			c0-0.533,0.184-1,0.551-1.4l12.05-49.85v-0.25c0-0.367,0.083-0.633,0.25-0.8v-0.3l15.5-63.5h6.5l15.55,63.25
			c0.2,0.533,0.301,1.066,0.301,1.6l12.299,49.65l0.25,0.199c0.201,0.4,0.301,0.867,0.301,1.4l4.25,17.5
			c1.767,0.1,3.517,0.167,5.25,0.2c2.934,0.133,5.85,0.267,8.75,0.399c86.199,3.967,171.85,11.317,256.95,22.051
			c120.232,15.166,239.366,37.1,357.399,65.8c-30.5,2.1-60.616,5.233-90.35,9.399C762.116,504.4,619.4,552.483,486.3,627.35z
			 M359.149,219.55L346.55,237c-1.4-1.066-2.916-1.867-4.55-2.4l6.45-20.35L359.149,219.55z M337.45,212.3l-0.25,21.5
			c-0.2,0-0.384,0-0.551,0c-1.6,0-3.216,0.267-4.85,0.8l-6.65-20.35l11.75-1.95H337.45z M352.5,255.5c0.533-1.6,0.8-3.3,0.8-5.1H375
			l-1.851,11.55L352.5,255.5z M306.101,272.7l-5.4-10.75l20.4-6.45c0.533,1.6,1.35,3.117,2.449,4.55L306.101,272.7z M352.5,245.35
			c-0.566-1.6-1.3-3.133-2.2-4.6l17.45-12.85l5.399,10.699L352.5,245.35z M325.149,238.6c-0.533,0.734-1.066,1.45-1.6,2.15
			l-17.449-12.85l8.299-8.351L327.25,237C326.55,237.367,325.851,237.9,325.149,238.6z M350.3,260.05l17.45,12.65l-8.601,8.6
			l-12.6-17.75c0.533-0.333,1.167-0.866,1.9-1.6C348.983,261.383,349.601,260.75,350.3,260.05z M331.8,266.25l-6.65,20.35
			l-10.75-5.3l12.851-17.45C328.684,264.916,330.2,265.717,331.8,266.25z M342.95,365.05L332,340.35l-15.601,24.7H342.95z
			 M354.5,343.3l-4.3,21.75h15L354.5,343.3z M350.601,384.25c1.566,0.066,3.133,0.134,4.699,0.2c5.233,0.2,10.483,0.383,15.75,0.55
			l-3.4-14.6H349.95L350.601,384.25z M313.5,370.4l-3.149,12.8c6.533,0.1,13.066,0.25,19.6,0.45c2.833,0.066,5.65,0.133,8.449,0.199
			c2.334,0.101,4.634,0.167,6.9,0.2l-0.699-13.649H313.5z M341.899,324.8l-6.5,10.2l8.101,18.5L341.899,324.8z M347.5,329.35
			l1.101,15.9L350.5,335L347.5,329.35z M357.149,328.85l-1.049,5.601l4.85,9.649L357.149,328.85z M329.3,334.45l-4.55-10.15
			l-7.05,28.4L329.3,334.45z M339.2,318.9h-11.051l4.65,10.199L339.2,318.9z M353.399,318.9h-5.1l3.801,7.25L353.399,318.9z
			 M321.101,245.35c-0.534,1.601-0.801,3.283-0.801,5.051h-21.449l1.85-11.801L321.101,245.35z M346.75,286.9l-1.601,0.25
			l1.551,26.399h6.699L346.75,286.9z M336.899,288.5v-13.85l-9.549,38.899h14l-1.5-25.55L336.899,288.5z M376.2,237.1l21-6.899
			l-4.85,20.1l4.85,20.101l-21-7.051c0.267-1.1,0.5-2.184,0.699-3.25c1.234-6.399,1.4-12.383,0.5-17.949
			C377.101,240.416,376.7,238.733,376.2,237.1z"/>
		<path fill-rule="evenodd" clip-rule="evenodd" fill="#FFCC00" d="M1004.8,473.7C886.767,445,767.633,423.066,647.4,407.9
			c-85.101-10.733-170.751-18.084-256.95-22.051c-2.9-0.133-5.816-0.267-8.75-0.399c-1.733-0.033-3.483-0.101-5.25-0.2l-4.25-17.5
			c0-0.533-0.1-1-0.301-1.4l-0.25-0.199l-12.299-49.65c0-0.533-0.101-1.066-0.301-1.6l-15.55-63.25H337l-15.5,63.5v0.3
			c-0.167,0.167-0.25,0.433-0.25,0.8v0.25l-12.05,49.85c-0.367,0.4-0.551,0.867-0.551,1.4V368l-3.899,15.05
			c-2.033-0.033-4.033-0.066-6-0.1c-0.634-0.034-1.233-0.05-1.8-0.05c-12.467-0.268-24.917-0.417-37.35-0.45v-40.4h8.5v-10.5
			l-36.65-36.8h-136l-38.4,38.4v8.899h8.6v44.8c-21.848,1.111-43.73,2.437-65.649,3.976V0h1024v472.5
			C1017.584,472.854,1011.184,473.254,1004.8,473.7z M337.45,212.3h-0.551l-11.75,1.95l6.65,20.35c1.634-0.533,3.25-0.8,4.85-0.8
			c0.167,0,0.351,0,0.551,0L337.45,212.3z M359.149,219.55l-10.699-5.3L342,234.6c1.634,0.533,3.149,1.334,4.55,2.4L359.149,219.55z
			 M325.149,238.6c0.701-0.699,1.4-1.232,2.101-1.6l-12.851-17.45l-8.299,8.351l17.449,12.85
			C324.083,240.05,324.616,239.334,325.149,238.6z M352.5,245.35l20.649-6.75L367.75,227.9l-17.45,12.85
			C351.2,242.217,351.934,243.75,352.5,245.35z M306.101,272.7l17.449-12.65c-1.1-1.433-1.916-2.95-2.449-4.55l-20.4,6.45
			L306.101,272.7z M352.5,255.5l20.649,6.45L375,250.4h-21.7C353.3,252.2,353.033,253.9,352.5,255.5z M331.8,266.25
			c-1.6-0.533-3.116-1.334-4.55-2.4l-12.851,17.45l10.75,5.3L331.8,266.25z M350.3,260.05c-0.699,0.7-1.316,1.333-1.85,1.9
			c-0.733,0.733-1.367,1.267-1.9,1.6l12.6,17.75l8.601-8.6L350.3,260.05z M336.899,288.5l2.951-0.5l1.5,25.55h-14l9.549-38.899
			V288.5z M346.75,286.9l6.649,26.649H346.7l-1.551-26.399L346.75,286.9z M321.101,245.35l-20.4-6.75l-1.85,11.801H320.3
			C320.3,248.633,320.566,246.95,321.101,245.35z M353.399,318.9l-1.299,7.25l-3.801-7.25H353.399z M339.2,318.9l-6.4,10.199
			l-4.65-10.199H339.2z M329.3,334.45l-11.6,18.25l7.05-28.4L329.3,334.45z M357.149,328.85l3.801,15.25l-4.85-9.649L357.149,328.85
			z M347.5,329.35l3,5.65l-1.899,10.25L347.5,329.35z M341.899,324.8l1.601,28.7l-8.101-18.5L341.899,324.8z M313.5,370.4h31.101
			l0.699,13.649c-2.267-0.033-4.566-0.1-6.9-0.2c-2.799-0.066-5.616-0.133-8.449-0.199c-6.533-0.2-13.066-0.351-19.6-0.45
			L313.5,370.4z M350.601,384.25l-0.65-13.85h17.699l3.4,14.6c-5.267-0.167-10.517-0.35-15.75-0.55
			C353.733,384.384,352.167,384.316,350.601,384.25z M354.5,343.3l10.7,21.75h-15L354.5,343.3z M342.95,365.05h-26.551L332,340.35
			L342.95,365.05z M376.2,237.1c0.5,1.634,0.9,3.316,1.199,5.051c0.9,5.566,0.734,11.55-0.5,17.949
			c-0.199,1.066-0.433,2.15-0.699,3.25l21,7.051l-4.85-20.101l4.85-20.1L376.2,237.1z"/>
	</g>
</g>
</svg>
