<?xml version="1.0" encoding="utf-8"?>
<!-- Generator: Adobe Illustrator 16.0.0, SVG Export Plug-In . SVG Version: 6.00 Build 0)  -->
<!DOCTYPE svg PUBLIC "-//W3C//DTD SVG 1.1//EN" "http://www.w3.org/Graphics/SVG/1.1/DTD/svg11.dtd">
<svg version="1.1" id="Layer_1" xmlns="http://www.w3.org/2000/svg" xmlns:xlink="http://www.w3.org/1999/xlink" x="0px" y="0px"
	 width="104px" height="100px" viewBox="0 0 104 100" enable-background="new 0 0 104 100" xml:space="preserve">
<g>
	<path fill-rule="evenodd" clip-rule="evenodd" fill="#FFA03A" d="M22.2,40.75h25.35l6.85,6.851v1.95h-1.6V58.7h8.05l1.1-4.3v-0.05
		c0-0.101,0.033-0.184,0.1-0.25l2.25-9.3V44.75c0-0.066,0.017-0.116,0.05-0.149v-0.05l2.9-11.851h1.2l2.9,11.8
		c0.033,0.101,0.05,0.2,0.05,0.301l2.3,9.25l0.05,0.05c0.033,0.066,0.05,0.149,0.05,0.25l1.05,4.35H89.6
		c0.032-0.166,0.065-0.333,0.1-0.5c0.534-2.607,0.801-5.341,0.8-8.2c-0.002-0.94-0.035-1.865-0.1-2.774V47.2
		c-0.6-9.438-4.325-17.58-11.175-24.425C71.715,15.261,62.64,11.502,52,11.5c-10.64,0.002-19.715,3.761-27.225,11.275
		C17.26,30.285,13.502,39.36,13.5,50c0.001,0.758,0.018,1.499,0.05,2.226c0.094,2.03,0.344,4.014,0.75,5.95V58.2
		c0.034,0.167,0.067,0.334,0.1,0.5h2.25v-9.149h-1.6V47.9L22.2,40.75z M60.15,32.45l0.35-2.2l3.8,1.25
		c-0.1,0.301-0.15,0.617-0.15,0.95H60.15z M61.5,36.601l-1-2l3.8-1.2c0.1,0.3,0.25,0.583,0.45,0.85L61.5,36.601z M9.4,59.2
		c-0.46-2.188-0.744-4.43-0.85-6.725V52.45C8.516,51.651,8.5,50.835,8.5,50c-0.002-12.026,4.24-22.284,12.725-30.774
		C29.715,10.74,39.974,6.498,52,6.5c12.026-0.002,22.285,4.24,30.775,12.726C90.525,26.98,94.733,36.206,95.4,46.9
		c0.069,1.016,0.102,2.049,0.1,3.1c-0.001,3.208-0.301,6.274-0.9,9.2c-1.654,8.149-5.596,15.342-11.825,21.575
		c-7.15,7.146-15.558,11.279-25.225,12.4C55.753,93.39,53.903,93.498,52,93.5c-5.009-0.003-9.701-0.728-14.075-2.175H37.9
		c-6.161-2.081-11.72-5.598-16.675-10.55C14.996,74.542,11.055,67.35,9.4,59.2z M74.55,30l3.9-1.3l-0.9,3.75l0.9,3.75l-3.9-1.3
		C74.983,33.101,74.983,31.467,74.55,30z M74.35,32.45L74,34.601l-3.85-1.2c0.1-0.3,0.15-0.616,0.15-0.95H74.35z M73,28.25l1,2
		l-3.85,1.25c-0.1-0.3-0.233-0.583-0.4-0.85L73,28.25z M68.2,29.5l1.2-3.8l2,1l-2.35,3.25C68.783,29.75,68.5,29.601,68.2,29.5z
		 M67.35,25.351l-0.05,4c-0.034,0-0.067,0-0.1,0c-0.3,0-0.6,0.05-0.9,0.149l-1.25-3.8l2.2-0.35H67.35z M65.05,30.25
		c-0.1,0.134-0.2,0.267-0.3,0.4l-3.25-2.4l1.55-1.55l2.4,3.25C65.317,30.017,65.184,30.117,65.05,30.25z M66.3,35.4l-1.25,3.8l-2-1
		l2.4-3.25C65.717,35.15,66,35.301,66.3,35.4z M69.4,34.601c0.1-0.101,0.217-0.217,0.35-0.351L73,36.601l-1.6,1.6l-2.35-3.3
		C69.15,34.834,69.267,34.733,69.4,34.601z M69.65,54.851l0.2,3.85h4l-0.9-3.85H69.65z M68.65,54.851h-5.8L61.9,58.7h6.95
		L68.65,54.851z M69.7,53.851h2.8l-2-4.05L69.7,53.851z M63.4,53.851h4.95L66.3,49.25L63.4,53.851z M68.15,46.351l-1.2,1.899
		l1.5,3.45L68.15,46.351z M69.35,45.25l0.7,1.351l0.25-1.351H69.35z M71,47.101l-0.2,1.05l0.9,1.8L71,47.101z M69.75,48.25
		L69.2,47.2l0.2,2.95L69.75,48.25z M65.8,48.15l-0.85-1.9l-1.3,5.301L65.8,48.15z M67.65,45.25H65.6l0.85,1.9L67.65,45.25z
		 M67.775,39.476l-0.525,0.075v-2.625l-1.8,7.324h2.6L67.775,39.476z M69.05,39.25l-0.3,0.051l0.3,4.949h1.25L69.05,39.25z"/>
</g>
</svg>
