<?xml version="1.0" encoding="utf-8"?>
<!-- Generator: Adobe Illustrator 16.0.0, SVG Export Plug-In . SVG Version: 6.00 Build 0)  -->
<!DOCTYPE svg PUBLIC "-//W3C//DTD SVG 1.1//EN" "http://www.w3.org/Graphics/SVG/1.1/DTD/svg11.dtd">
<svg version="1.1" id="Selected_Items" xmlns="http://www.w3.org/2000/svg" xmlns:xlink="http://www.w3.org/1999/xlink" x="0px"
	 y="0px" width="1024px" height="768px" viewBox="0 0 1024 768" enable-background="new 0 0 1024 768" xml:space="preserve">
<g>
	<g>
		<path fill-rule="evenodd" clip-rule="evenodd" fill="#FFA823" d="M446.75,259.75c-37.566,3.567-77.533-1.117-119.899-14.05
			c-53.101,22.566-107.234,23.8-162.4,3.7C112.224,269.528,57.407,271.204,0,254.425V0h1024v250.55
			c-43.379,10.677-88.429,7.66-135.15-9.05c-14.333,8.933-29.116,15.783-44.35,20.55c2.066-11.933,3.1-24.283,3.1-37.05
			c0-55.667-19.699-103.183-59.1-142.55c-39.367-39.4-86.917-59.1-142.65-59.1s-103.3,19.7-142.7,59.1
			c-39.399,39.367-59.1,86.883-59.1,142.55C444.05,236.967,444.95,248.55,446.75,259.75z"/>
		<path fill-rule="evenodd" clip-rule="evenodd" fill="#3EDBBC" d="M304.351,405.8c-27.534-1.833-50.067-18.649-67.601-50.45
			c-44.366,37.466-95.366,56.25-153,56.35c59.3,4.366,108.717-6.25,148.25-31.85c15.167,31.199,43.866,44.766,86.101,40.699
			c31.966-3,53.016-12.533,63.149-28.6c20.533,26.899,51.5,36.283,92.899,28.149c-39.666,5.5-71.266-11.399-94.799-50.7
			C356.851,395.533,331.851,407.667,304.351,405.8z M0,324.85c52.692,27.415,108.46,35.714,167.3,24.9
			c-60.65,8.443-116.418-6.632-167.3-45.225v-50.1c57.407,16.779,112.224,15.104,164.45-5.025c55.166,20.1,109.3,18.867,162.4-3.7
			c42.366,12.933,82.333,17.617,119.899,14.05c23.566-2.267,46.167-7.75,67.8-16.45c59.333,28.6,118.816,30.083,178.45,4.45
			c54.566,24.1,105.066,28.867,151.5,14.3c15.233-4.767,30.017-11.617,44.35-20.55c46.722,16.71,91.771,19.727,135.15,9.05V538.6
			c-34.43,5.717-73.829,10.283-118.2,13.7c43.248,0.99,82.647,0.106,118.2-2.649v30.8c-154.707,7.799-340.523-7.4-557.45-45.601
			C278.097,501.61,122.579,491.811,0,505.45V324.85z M738.75,354.45c-11.4,23.433-25.15,31.233-41.25,23.4
			c15.267,11.367,28.383,9.5,39.35-5.6c37.4,26.033,77.134,30.1,119.2,12.2C805.783,399.283,766.684,389.283,738.75,354.45z
			 M593.35,365.7c-21.767,17.833-47.116,25.017-76.05,21.55c22.533,6.833,45.05,5.566,67.55-3.8
			c37.134,21.3,76.551,27.883,118.25,19.75C657.366,406.6,620.783,394.1,593.35,365.7z M476.25,325.25
			c18.5-3.2,34.384-10.033,47.65-20.5c48.866,27.733,101.083,30.233,156.649,7.5C625.65,330.383,572.167,321,520.1,284.1
			c-22.3,24.267-44.483,36.483-66.55,36.65c25.801,27.6,58.934,34.133,99.4,19.6c11.267,16.767,22.533,21.467,33.8,14.1
			c-10.533,3.9-19.934-3.6-28.2-22.5C522.717,341.817,495.283,339.583,476.25,325.25z M611.15,345.05
			c59.633,15.633,118.116,11.267,175.449-13.1c35.767,17.5,70.483,23.433,104.15,17.8c-36.2,1.967-70.617-10.233-103.25-36.6
			C723.434,346.817,664.65,357.45,611.15,345.05z M628.95,442.6c16.566,10.301,33.149,9.367,49.75-2.8
			c25.533,13.834,49.933,13.834,73.2,0c-26.601,13.934-50.684,7.983-72.25-17.85C668.783,439.684,651.883,446.566,628.95,442.6z"/>
		<path fill-rule="evenodd" clip-rule="evenodd" fill="#FFFFFF" d="M476.25,325.25c19.033,14.333,46.467,16.567,82.3,6.7
			c8.267,18.9,17.667,26.4,28.2,22.5c-11.267,7.367-22.533,2.667-33.8-14.1c-40.467,14.533-73.6,8-99.4-19.6
			c22.066-0.167,44.25-12.383,66.55-36.65c52.067,36.9,105.551,46.283,160.45,28.15c-55.566,22.733-107.783,20.233-156.649-7.5
			C510.634,315.217,494.75,322.05,476.25,325.25z M593.35,365.7c27.434,28.399,64.017,40.899,109.75,37.5
			c-41.699,8.133-81.116,1.55-118.25-19.75c-22.5,9.366-45.017,10.633-67.55,3.8C546.233,390.717,571.583,383.533,593.35,365.7z
			 M738.75,354.45c27.934,34.833,67.033,44.833,117.3,30c-42.066,17.899-81.8,13.833-119.2-12.2
			c-10.967,15.1-24.083,16.967-39.35,5.6C713.6,385.684,727.35,377.883,738.75,354.45z M611.15,345.05
			c53.5,12.4,112.283,1.767,176.35-31.9c32.633,26.367,67.05,38.567,103.25,36.6c-33.667,5.633-68.384-0.3-104.15-17.8
			C729.267,356.317,670.783,360.683,611.15,345.05z M628.95,442.6c22.933,3.967,39.833-2.916,50.7-20.649
			c21.566,25.833,45.649,31.783,72.25,17.85c-23.268,13.834-47.667,13.834-73.2,0C662.1,451.967,645.517,452.9,628.95,442.6z
			 M0,324.85v-20.325c50.882,38.593,106.649,53.668,167.3,45.225C108.46,360.564,52.692,352.265,0,324.85z M304.351,405.8
			c27.5,1.867,52.5-10.267,75-36.4c23.533,39.3,55.133,56.2,94.799,50.7c-41.399,8.134-72.366-1.25-92.899-28.149
			c-10.134,16.066-31.184,25.6-63.149,28.6c-42.234,4.066-70.934-9.5-86.101-40.699c-39.533,25.6-88.95,36.216-148.25,31.85
			c57.634-0.101,108.634-18.884,153-56.35C254.283,387.15,276.816,403.967,304.351,405.8z M1024,549.65
			c-35.553,2.756-74.952,3.64-118.2,2.649c44.371-3.417,83.771-7.983,118.2-13.7V549.65z"/>
		<path fill-rule="evenodd" clip-rule="evenodd" fill="#FFFF99" d="M844.5,262.05c-46.434,14.567-96.934,9.8-151.5-14.3
			c-59.634,25.633-119.117,24.15-178.45-4.45c-21.633,8.7-44.233,14.184-67.8,16.45c-1.8-11.2-2.7-22.783-2.7-34.75
			c0-55.667,19.7-103.183,59.1-142.55c39.4-39.4,86.967-59.1,142.7-59.1s103.283,19.7,142.65,59.1
			c39.4,39.367,59.1,86.883,59.1,142.55C847.6,237.767,846.566,250.117,844.5,262.05z"/>
		<path fill-rule="evenodd" clip-rule="evenodd" fill="#C9A150" d="M1024,631.925c-166.64-0.785-338.173-15.96-514.601-45.524
			C307.874,552.668,138.073,544.893,0,563.075V505.45c122.579-13.64,278.097-3.84,466.55,29.399
			c216.927,38.2,402.743,53.399,557.45,45.601V631.925z"/>
		<path fill-rule="evenodd" clip-rule="evenodd" fill="#FFEB58" d="M0,610.925c140.623-32.54,312.956-22.314,517,30.675
			c163.336,42.443,332.336,55.144,507,38.101V768H0V610.925z"/>
		<path fill-rule="evenodd" clip-rule="evenodd" fill="#E9BB5D" d="M1024,679.7c-174.664,17.043-343.664,4.343-507-38.101
			C312.956,588.61,140.623,578.385,0,610.925v-47.85c138.073-18.183,307.874-10.407,509.399,23.325
			C685.827,615.965,857.36,631.14,1024,631.925V679.7z"/>
	</g>
</g>
</svg>
