<?xml version="1.0" encoding="utf-8"?>
<!-- Generator: Adobe Illustrator 16.0.0, SVG Export Plug-In . SVG Version: 6.00 Build 0)  -->
<!DOCTYPE svg PUBLIC "-//W3C//DTD SVG 1.1//EN" "http://www.w3.org/Graphics/SVG/1.1/DTD/svg11.dtd">
<svg version="1.1" id="Layer_1" xmlns="http://www.w3.org/2000/svg" xmlns:xlink="http://www.w3.org/1999/xlink" x="0px" y="0px"
	 width="104px" height="100px" viewBox="0 0 104 100" enable-background="new 0 0 104 100" xml:space="preserve">
<g>
	<path fill-rule="evenodd" clip-rule="evenodd" fill="#5363DB" d="M14.125,42.725c-0.159,0.922-0.293,1.855-0.4,2.8
		c-0.042,0.408-0.075,0.816-0.1,1.225c3.885,2.021,8.376,2.288,13.475,0.8c4.233,4.3,9.3,6.117,15.2,5.45
		c-6-0.033-10.767-2.8-14.3-8.3C22.472,46.027,17.847,45.369,14.125,42.725z M88.45,62.9l-0.025,0.05
		c0.146-0.426,0.287-0.852,0.425-1.275C83.428,65.72,76.711,66.878,68.7,65.15C64.6,74.55,58.483,79.067,50.35,78.7
		c8.8,0.867,15.434-2.3,19.9-9.5c6.569,1.099,12.061,0.357,16.475-2.225C87.375,65.651,87.95,64.292,88.45,62.9z M75.2,40.45
		c-0.025-0.063-0.042-0.129-0.051-0.2c-0.541-5.368-2.774-10.019-6.699-13.95c-4.541-4.536-10.024-6.802-16.45-6.8
		c-6.427-0.002-11.91,2.264-16.45,6.8c-3.892,3.897-6.108,8.481-6.65,13.75c-0.008,0.07-0.024,0.137-0.05,0.2
		C44.562,45.083,60.012,45.149,75.2,40.45z M92.35,33.325l0.025,0.05c0.74,1.837,1.357,3.746,1.85,5.725
		c0.848,3.457,1.272,7.09,1.275,10.9c-0.001,2.245-0.143,4.42-0.425,6.525c-0.001,0.023-0.001,0.048,0,0.075
		c-0.14,0.859-0.298,1.701-0.476,2.525c-0.351,1.844-0.825,3.652-1.425,5.425c-0.01,0.016-0.018,0.033-0.025,0.05
		c-0.636,1.761-1.377,3.469-2.225,5.125v0.025c-2.045,3.958-4.762,7.633-8.15,11.025C74.284,89.26,64.026,93.502,52,93.5
		c-12.026,0.002-22.285-4.24-30.775-12.725c-3.376-3.385-6.068-7.052-8.075-11c-0.009-0.016-0.017-0.033-0.024-0.05
		c-1.35-2.552-2.399-5.227-3.15-8.025C8.99,57.994,8.498,54.094,8.5,50c0.004-1.692,0.096-3.368,0.274-5.025
		c0.168-1.542,0.401-3.05,0.7-4.525c0.088-0.487,0.196-0.954,0.325-1.4L9.774,39.1c0.499-1.997,1.142-3.921,1.926-5.775v0.025
		c2.111-5.169,5.286-9.878,9.524-14.125C29.715,10.74,39.974,6.498,52,6.5c12.026-0.002,22.284,4.24,30.774,12.725
		C87.011,23.464,90.202,28.165,92.35,33.325z M87.75,35.275c-0.008-0.017-0.016-0.034-0.025-0.05c-1.916-4.554-4.75-8.704-8.5-12.45
		C71.715,15.26,62.64,11.502,52,11.5c-10.641,0.002-19.715,3.76-27.226,11.275c-3.762,3.753-6.587,7.911-8.475,12.475v0.025
		c-0.016,0.037-0.032,0.07-0.05,0.1c3.559,1.668,7.117,3.085,10.675,4.25c0.629-5.634,3.037-10.542,7.225-14.725
		c4.927-4.931,10.877-7.397,17.851-7.4c6.974,0.002,12.924,2.469,17.85,7.4c4.22,4.214,6.646,9.189,7.275,14.925
		c3.562-1.2,7.119-2.667,10.675-4.4C87.786,35.375,87.77,35.325,87.75,35.275z"/>
</g>
</svg>
