<?xml version="1.0" encoding="utf-8"?>
<!-- Generator: Adobe Illustrator 16.0.0, SVG Export Plug-In . SVG Version: 6.00 Build 0)  -->
<!DOCTYPE svg PUBLIC "-//W3C//DTD SVG 1.1//EN" "http://www.w3.org/Graphics/SVG/1.1/DTD/svg11.dtd">
<svg version="1.1" id="Selected_Items" xmlns="http://www.w3.org/2000/svg" xmlns:xlink="http://www.w3.org/1999/xlink" x="0px"
	 y="0px" width="1024px" height="768px" viewBox="0 0 1024 768" enable-background="new 0 0 1024 768" xml:space="preserve">
<g>
	<g>
		<path fill-rule="evenodd" clip-rule="evenodd" fill="#3A254A" d="M216.8,0H1024v334.95c-30.467-15.833-62.934-26.867-97.4-33.1
			c-7.5-1.367-15.083-2.5-22.75-3.4c-5.933-0.7-11.933-1.25-18-1.65c-7.6-0.566-15.3-0.883-23.1-0.95
			c-1.866-0.033-3.75-0.05-5.65-0.05c-100.933,0-187.1,35.684-258.5,107.05c-11.746,11.746-22.521,23.896-32.324,36.45
			c-32.095-37.86-82.819-83.11-152.175-135.75C351,255.683,280.316,207.65,202.05,159.45c10.434-40.333,15.65-82.833,15.65-127.5
			C217.7,21.183,217.399,10.533,216.8,0z M870.65,149.6l3.3,9.85l3.25-9.85l9.95-3.3l-9.95-3.25l-3.25-9.9l-3.3,9.9l-9.851,3.25
			L870.65,149.6z M826.1,210.75l-23.05,7.65l23.05,7.75l7.7,23.1l7.65-23.1l23.2-7.75l-23.2-7.65l-7.65-23L826.1,210.75z
			 M842.45,73.95l-9.9-3.25l-3.25-9.85l-3.35,9.85l-9.851,3.25l9.851,3.35l3.35,9.85l3.25-9.85L842.45,73.95z M959.35,63.15
			l-7.6-23.05L944,63.15l-23.05,7.6L944,78.5l7.75,23.1l7.6-23.1l23.2-7.75L959.35,63.15z M661.05,124.65l-7.6-23.05l-7.75,23.05
			l-23.05,7.6L645.7,140l7.75,23.1l7.6-23.1l23.2-7.75L661.05,124.65z M682.85,302.45l3.25-9.85l9.9-3.3l-9.9-3.25l-3.25-9.9
			l-3.35,9.9l-9.85,3.25l9.85,3.3L682.85,302.45z M556.35,343.65l9.9-3.35l-9.9-3.25l-3.3-9.85l-3.3,9.85l-9.85,3.25l9.85,3.35
			l3.3,9.85L556.35,343.65z M450,262.9l3.3,9.85l3.25-9.85l9.9-3.35l-9.9-3.25l-3.25-9.85l-3.3,9.85l-9.899,3.25L450,262.9z
			 M491.7,652c-0.066,3.1-0.1,6.217-0.1,9.35c0,4.567,0.066,9.117,0.199,13.65c0.2,6.3,0.551,12.533,1.051,18.7
			c0.566,7.2,1.333,14.3,2.299,21.3c2.467,18.2,6.234,35.85,11.301,52.95l1.175,0.024L0,768V439.65
			c2.634-1.801,5.25-3.634,7.851-5.5c104.332,41.533,201.949,74.699,292.85,99.5c84.456,23.076,151.515,35.768,201.175,38.074
			c-2.316,9.564-4.241,19.289-5.774,29.176c-1.301,8.399-2.301,16.899-3,25.5C492.333,634.833,491.866,643.366,491.7,652z
			 M1023.975,595.275l-0.024-1.375l0.024-1.4V595.275z M404.05,72.25l3.301,9.9l3.25-9.9l9.949-3.3l-9.949-3.25l-3.25-9.85
			l-3.301,9.85l-9.85,3.25L404.05,72.25z M88.75,362.7c37.767-40.6,67.25-84.65,88.45-132.15
			c69.267,58.567,97.5,100.85,84.699,126.851C248.101,385.4,190.384,387.167,88.75,362.7z M91.101,524.6L83.5,501.55l-7.75,23.05
			L52.7,532.2l23.05,7.75l7.75,23.1l7.601-23.1l23.199-7.75L91.101,524.6z M286.399,695.2l3.301,9.85l3.25-9.85l9.949-3.3
			l-9.949-3.25l-3.25-9.9l-3.301,9.9l-9.85,3.25L286.399,695.2z M396.55,640.45l-7.75,23l-23.05,7.649l23.05,7.75l7.75,23.051
			l7.6-23.051l23.201-7.75l-23.201-7.649L396.55,640.45z M125.2,755.05l3.25-9.899l9.9-3.301l-9.9-3.25l-3.25-9.85l-3.301,9.85
			L112,741.85l9.899,3.301L125.2,755.05z M316.101,578.55l-9.9-3.25l-3.25-9.85l-3.301,9.85l-9.899,3.25l9.899,3.3l3.301,9.9
			l3.25-9.9L316.101,578.55z M29.25,592.1l9.851,3.301l3.299,9.899L45.7,595.4l9.9-3.301l-9.9-3.25L42.399,579l-3.299,9.85
			L29.25,592.1z"/>
		<path fill-rule="evenodd" clip-rule="evenodd" fill="#FF0BB9" d="M7.851,434.15C5.25,433.116,2.634,432.083,0,431.05V338.1
			c17.433,5.4,34.55,10.383,51.351,14.95c13.066,3.601,25.533,6.817,37.399,9.65c101.634,24.467,159.351,22.7,173.149-5.3
			c12.801-26-15.433-68.284-84.699-126.851c10.199-22.933,18.482-46.633,24.85-71.1c78.267,48.2,148.95,96.233,212.051,144.1
			c69.355,52.64,120.08,97.89,152.175,135.75c-7.277,9.31-14.019,18.843-20.226,28.601c-20.527,32.208-35.252,66.816-44.175,103.824
			c-49.66-2.307-116.719-14.998-201.175-38.074C209.8,508.85,112.183,475.684,7.851,434.15z"/>
		<path fill-rule="evenodd" clip-rule="evenodd" fill="#FFCC23" d="M177.2,230.55c-21.2,47.5-50.684,91.55-88.45,132.15
			c-11.866-2.833-24.333-6.05-37.399-9.65C34.55,348.483,17.433,343.5,0,338.1V0h216.8c0.6,10.533,0.9,21.183,0.9,31.95
			c0,44.667-5.217,87.167-15.65,127.5C195.683,183.917,187.399,207.617,177.2,230.55z M0,439.65v-8.601
			c2.634,1.033,5.25,2.066,7.851,3.101C5.25,436.017,2.634,437.85,0,439.65z"/>
		<path fill-rule="evenodd" clip-rule="evenodd" fill="#8C1999" d="M862.75,295.85c-23.8,97.3-81.1,142.466-171.9,135.5
			c-42.968-3.043-81.385,3.424-115.25,19.4c-10.268,4.84-20.117,10.557-29.55,17.15c6.207-9.758,12.948-19.291,20.226-28.601
			c9.804-12.554,20.578-24.704,32.324-36.45C670,331.483,756.167,295.8,857.1,295.8C859,295.8,860.884,295.817,862.75,295.85z
			 M903.85,298.45c10.4,104.366-16.25,194.283-79.949,269.75C705.533,708.4,595.95,757.333,495.149,715
			c-0.966-7-1.732-14.1-2.299-21.3c111.266,28,194.35-6.367,249.249-103.101c23.167-40.8,8.483-60.683-44.05-59.649
			c-45.866,0.866-114.184,32.683-204.949,95.45c0.699-8.601,1.699-17.101,3-25.5c13.073-10.711,26.29-20.503,39.649-29.375
			c22.952-15.266,46.318-27.832,70.1-37.7c35.997-14.908,72.947-23.633,110.851-26.175c95.467-6.801,151.85-77.084,169.149-210.851
			C891.917,297.2,897.917,297.75,903.85,298.45z"/>
		<path fill-rule="evenodd" clip-rule="evenodd" fill="#1BEAFF" d="M501.875,571.725c8.923-37.008,23.647-71.616,44.175-103.824
			c9.433-6.594,19.282-12.311,29.55-17.15c33.865-15.977,72.282-22.443,115.25-19.4c90.801,6.967,148.101-38.199,171.9-135.5
			c7.8,0.066,15.5,0.383,23.1,0.95C868.55,430.566,812.167,500.85,716.7,507.65c-37.903,2.542-74.854,11.267-110.851,26.175
			c-23.781,9.868-47.147,22.435-70.1,37.7c-13.359,8.872-26.576,18.664-39.649,29.375
			C497.634,591.014,499.559,581.289,501.875,571.725z M926.6,301.85c63.467,92.6,69.5,193.633,18.101,303.1
			C905.8,687.65,827.1,742,708.6,768l-200.575-0.025c-0.131-0.001-0.264-0.001-0.399,0l-1.175-0.024
			c-5.066-17.101-8.834-34.75-11.301-52.95c100.801,42.333,210.384-6.6,328.751-146.8c63.699-75.467,90.35-165.384,79.949-269.75
			C911.517,299.35,919.1,300.483,926.6,301.85z M491.7,652c0.166-8.634,0.633-17.167,1.4-25.6
			c90.766-62.768,159.083-94.584,204.949-95.45c52.533-1.033,67.217,18.85,44.05,59.649C687.2,687.333,604.116,721.7,492.851,693.7
			c-0.5-6.167-0.851-12.4-1.051-18.7c81.667,13.967,144.217-6.15,187.65-60.35c43.433-54.167,36.149-69.7-21.851-46.601
			C599.566,591.15,544.267,619.133,491.7,652z M918.95,768c67.666-38.967,102.666-97,105-174.1l0.024,1.375
			c-0.001,0.445-0.001,0.896,0,1.35L1024,768H918.95z"/>
		<path fill-rule="evenodd" clip-rule="evenodd" fill="#EE1568" d="M918.95,768H708.6c118.5-26,197.2-80.35,236.101-163.05
			c51.399-109.467,45.366-210.5-18.101-303.1c34.467,6.233,66.934,17.267,97.4,33.1l-0.025,257.55l-0.024,1.4
			C1021.616,671,986.616,729.033,918.95,768z"/>
		<path fill-rule="evenodd" clip-rule="evenodd" fill="#E5477A" d="M491.8,675c-0.133-4.533-0.199-9.083-0.199-13.65
			c0-3.133,0.033-6.25,0.1-9.35c52.566-32.867,107.866-60.85,165.899-83.95c58-23.1,65.283-7.566,21.851,46.601
			C636.017,668.85,573.467,688.967,491.8,675z"/>
		<path fill-rule="evenodd" clip-rule="evenodd" fill="#FFFFFF" d="M959.35,63.15l23.2,7.6l-23.2,7.75l-7.6,23.1L944,78.5
			l-23.05-7.75l23.05-7.6l7.75-23.05L959.35,63.15z M842.45,73.95l-9.9,3.35l-3.25,9.85l-3.35-9.85l-9.851-3.35l9.851-3.25
			l3.35-9.85l3.25,9.85L842.45,73.95z M826.1,210.75l7.7-23l7.65,23l23.2,7.65l-23.2,7.75l-7.65,23.1l-7.7-23.1l-23.05-7.75
			L826.1,210.75z M870.65,149.6l-9.851-3.3l9.851-3.25l3.3-9.9l3.25,9.9l9.95,3.25l-9.95,3.3l-3.25,9.85L870.65,149.6z M450,262.9
			l-9.899-3.35L450,256.3l3.3-9.85l3.25,9.85l9.9,3.25l-9.9,3.35l-3.25,9.85L450,262.9z M556.35,343.65l-3.3,9.85l-3.3-9.85
			l-9.85-3.35l9.85-3.25l3.3-9.85l3.3,9.85l9.9,3.25L556.35,343.65z M682.85,302.45l-3.35-9.85l-9.85-3.3l9.85-3.25l3.35-9.9
			l3.25,9.9l9.9,3.25l-9.9,3.3L682.85,302.45z M404.05,72.25l-9.85-3.3l9.85-3.25l3.301-9.85l3.25,9.85l9.949,3.25l-9.949,3.3
			l-3.25,9.9L404.05,72.25z M29.25,592.1l9.851-3.25l3.299-9.85l3.301,9.85l9.9,3.25l-9.9,3.301l-3.301,9.899l-3.299-9.899
			L29.25,592.1z M316.101,578.55l-9.9,3.3l-3.25,9.9l-3.301-9.9l-9.899-3.3l9.899-3.25l3.301-9.85l3.25,9.85L316.101,578.55z
			 M125.2,755.05l-3.301-9.899L112,741.85l9.899-3.25l3.301-9.85l3.25,9.85l9.9,3.25l-9.9,3.301L125.2,755.05z M396.55,640.45
			l7.6,23l23.201,7.649l-23.201,7.75l-7.6,23.051l-7.75-23.051l-23.05-7.75l23.05-7.649L396.55,640.45z M286.399,695.2l-9.85-3.3
			l9.85-3.25l3.301-9.9l3.25,9.9l9.949,3.25l-9.949,3.3l-3.25,9.85L286.399,695.2z"/>
		<polygon fill-rule="evenodd" clip-rule="evenodd" fill="#FFD15D" points="661.05,124.65 684.25,132.25 661.05,140 653.45,163.1 
			645.7,140 622.65,132.25 645.7,124.65 653.45,101.6 		"/>
		<polygon fill-rule="evenodd" clip-rule="evenodd" fill="#FFCE56" points="91.101,524.6 114.3,532.2 91.101,539.95 83.5,563.05 
			75.75,539.95 52.7,532.2 75.75,524.6 83.5,501.55 		"/>
	</g>
</g>
</svg>
