<?xml version="1.0" encoding="utf-8"?>
<!-- Generator: Adobe Illustrator 16.0.0, SVG Export Plug-In . SVG Version: 6.00 Build 0)  -->
<!DOCTYPE svg PUBLIC "-//W3C//DTD SVG 1.1//EN" "http://www.w3.org/Graphics/SVG/1.1/DTD/svg11.dtd">
<svg version="1.1" id="Layer_1" xmlns="http://www.w3.org/2000/svg" xmlns:xlink="http://www.w3.org/1999/xlink" x="0px" y="0px"
	 width="104px" height="100px" viewBox="0 0 104 100" enable-background="new 0 0 104 100" xml:space="preserve">
<g>
	<path fill-rule="evenodd" clip-rule="evenodd" fill="#B651CC" d="M36.9,17.75l-3.1,9.25l-9.25,3.05l9.25,3.1l3.1,9.25l3.05-9.25
		l9.3-3.1L39.95,27L36.9,17.75z M54.601,52.5c4.866-4.6,8.233-8.75,10.1-12.45C55.267,41.417,47,45.633,39.9,52.7
		c-1.634,1.633-3.1,3.333-4.4,5.1C43.334,58.867,49.7,57.1,54.601,52.5z M52,88.5c10.641-0.002,19.716-3.76,27.226-11.275
		c6.351-6.341,10.018-13.774,11-22.3V54.9c0.016-0.136,0.032-0.27,0.05-0.4c-3.542-0.542-7.851,0.759-12.925,3.9
		c-6.3,3.867-11.417,10.2-15.351,19c-3.151,7.079-10.352,10.229-21.6,9.45C44.036,87.955,47.902,88.505,52,88.5z M51.351,36.55
		L50,32.25l-1.5,4.3l-4.25,1.4l4.25,1.45l1.5,4.25l1.351-4.25l4.3-1.45L51.351,36.55z M95.5,49.7c0,0.1,0,0.2,0,0.3
		c-0.003,1.86-0.11,3.685-0.324,5.475c-1.085,9.674-5.219,18.107-12.4,25.3C74.285,89.26,64.026,93.502,52,93.5
		c-8.138-0.009-15.463-1.942-21.975-5.8L30,87.675c-1.618-0.985-3.201-2.093-4.75-3.325c-1.377-1.086-2.718-2.278-4.024-3.575
		C12.74,72.285,8.498,62.026,8.5,50c-0.002-12.026,4.24-22.285,12.726-30.775C29.716,10.74,39.974,6.498,52,6.5
		c12.026-0.002,22.285,4.24,30.775,12.725c7.109,7.117,11.243,15.492,12.4,25.125C95.39,46.081,95.498,47.864,95.5,49.7z
		 M90.226,44.95c-0.067-0.551-0.143-1.101-0.226-1.65c-5.587-2.5-11.688-3.75-18.3-3.75c-1.5,0-2.95,0.067-4.35,0.2
		c-2.167,6.067-6.267,11.8-12.3,17.2C46.384,64.683,38.45,67.233,31.25,64.6c-0.966,1.933-1.767,3.933-2.399,6
		c10.467,3.333,19.066,1.75,25.8-4.75c6.733-6.533,13.583-11.367,20.55-14.5c5.797-2.647,10.896-3.464,15.3-2.45
		C90.472,47.549,90.381,46.232,90.226,44.95z"/>
</g>
</svg>
